G04 #@! TF.GenerationSoftware,KiCad,Pcbnew,5.99.0-unknown-a61ea1f~89~ubuntu20.04.1*
G04 #@! TF.CreationDate,2020-07-29T14:39:46+09:00*
G04 #@! TF.ProjectId,bGeigieRaku V2,62476569-6769-4655-9261-6b752056322e,rev?*
G04 #@! TF.SameCoordinates,Original*
G04 #@! TF.FileFunction,Soldermask,Top*
G04 #@! TF.FilePolarity,Negative*
%FSLAX46Y46*%
G04 Gerber Fmt 4.6, Leading zero omitted, Abs format (unit mm)*
G04 Created by KiCad (PCBNEW 5.99.0-unknown-a61ea1f~89~ubuntu20.04.1) date 2020-07-29 14:39:46*
%MOMM*%
%LPD*%
G01*
G04 APERTURE LIST*
%ADD10O,1.802000X1.802000*%
%ADD11C,3.803200*%
%ADD12C,2.845200*%
%ADD13C,1.879600*%
%ADD14C,3.203200*%
G04 APERTURE END LIST*
D10*
X204826000Y-116449000D03*
X202286000Y-116449000D03*
X199746000Y-116449000D03*
X197206000Y-116449000D03*
X194666000Y-116449000D03*
X192126000Y-116449000D03*
X189586000Y-116449000D03*
X187046000Y-116449000D03*
X184506000Y-116449000D03*
X181966000Y-116449000D03*
X179426000Y-116449000D03*
X176886000Y-116449000D03*
X174346000Y-116449000D03*
X171806000Y-116449000D03*
X169266000Y-116449000D03*
X166726000Y-116449000D03*
X164186000Y-116449000D03*
G36*
G01*
X162492940Y-117350000D02*
X160799060Y-117350000D01*
G75*
G02*
X160745000Y-117295940I0J54060D01*
G01*
X160745000Y-115602060D01*
G75*
G02*
X160799060Y-115548000I54060J0D01*
G01*
X162492940Y-115548000D01*
G75*
G02*
X162547000Y-115602060I0J-54060D01*
G01*
X162547000Y-117295940D01*
G75*
G02*
X162492940Y-117350000I-54060J0D01*
G01*
G37*
D11*
X172568000Y-126186000D03*
X90271600Y-126186000D03*
X90525600Y-72338000D03*
X209144000Y-72338000D03*
X209144000Y-126186000D03*
D10*
X189586000Y-105993000D03*
G36*
G01*
X191279060Y-105092000D02*
X192972940Y-105092000D01*
G75*
G02*
X193027000Y-105146060I0J-54060D01*
G01*
X193027000Y-106839940D01*
G75*
G02*
X192972940Y-106894000I-54060J0D01*
G01*
X191279060Y-106894000D01*
G75*
G02*
X191225000Y-106839940I0J54060D01*
G01*
X191225000Y-105146060D01*
G75*
G02*
X191279060Y-105092000I54060J0D01*
G01*
G37*
X204572000Y-105993000D03*
G36*
G01*
X206265060Y-105092000D02*
X207958940Y-105092000D01*
G75*
G02*
X208013000Y-105146060I0J-54060D01*
G01*
X208013000Y-106839940D01*
G75*
G02*
X207958940Y-106894000I-54060J0D01*
G01*
X206265060Y-106894000D01*
G75*
G02*
X206211000Y-106839940I0J54060D01*
G01*
X206211000Y-105146060D01*
G75*
G02*
X206265060Y-105092000I54060J0D01*
G01*
G37*
X204572000Y-91007000D03*
G36*
G01*
X206265060Y-90106000D02*
X207958940Y-90106000D01*
G75*
G02*
X208013000Y-90160060I0J-54060D01*
G01*
X208013000Y-91853940D01*
G75*
G02*
X207958940Y-91908000I-54060J0D01*
G01*
X206265060Y-91908000D01*
G75*
G02*
X206211000Y-91853940I0J54060D01*
G01*
X206211000Y-90160060D01*
G75*
G02*
X206265060Y-90106000I54060J0D01*
G01*
G37*
X189586000Y-91007000D03*
G36*
G01*
X191279060Y-90106000D02*
X192972940Y-90106000D01*
G75*
G02*
X193027000Y-90160060I0J-54060D01*
G01*
X193027000Y-91853940D01*
G75*
G02*
X192972940Y-91908000I-54060J0D01*
G01*
X191279060Y-91908000D01*
G75*
G02*
X191225000Y-91853940I0J54060D01*
G01*
X191225000Y-90160060D01*
G75*
G02*
X191279060Y-90106000I54060J0D01*
G01*
G37*
X104004000Y-116574000D03*
X104004000Y-119114000D03*
X106544000Y-116574000D03*
X106544000Y-119114000D03*
X109084000Y-116574000D03*
X109084000Y-119114000D03*
X111624000Y-116574000D03*
X111624000Y-119114000D03*
X114164000Y-116574000D03*
X114164000Y-119114000D03*
X116704000Y-116574000D03*
X116704000Y-119114000D03*
X119244000Y-116574000D03*
X119244000Y-119114000D03*
X121784000Y-116574000D03*
X121784000Y-119114000D03*
X124324000Y-116574000D03*
X124324000Y-119114000D03*
X126864000Y-116574000D03*
X126864000Y-119114000D03*
X129404000Y-116574000D03*
X129404000Y-119114000D03*
X131944000Y-116574000D03*
X131944000Y-119114000D03*
X134484000Y-116574000D03*
X134484000Y-119114000D03*
X137024000Y-116574000D03*
X137024000Y-119114000D03*
X139564000Y-116574000D03*
G36*
G01*
X140410940Y-120015000D02*
X138717060Y-120015000D01*
G75*
G02*
X138663000Y-119960940I0J54060D01*
G01*
X138663000Y-118267060D01*
G75*
G02*
X138717060Y-118213000I54060J0D01*
G01*
X140410940Y-118213000D01*
G75*
G02*
X140465000Y-118267060I0J-54060D01*
G01*
X140465000Y-119960940D01*
G75*
G02*
X140410940Y-120015000I-54060J0D01*
G01*
G37*
D12*
X196194000Y-75142000D03*
X202942000Y-77682000D03*
X196194000Y-80222000D03*
X148434000Y-80202000D03*
X141686000Y-77662000D03*
X148434000Y-75122000D03*
D10*
X204826000Y-113359000D03*
X202286000Y-113359000D03*
X199746000Y-113359000D03*
X197206000Y-113359000D03*
X194666000Y-113359000D03*
X192126000Y-113359000D03*
X189586000Y-113359000D03*
X187046000Y-113359000D03*
X184506000Y-113359000D03*
X181966000Y-113359000D03*
X179426000Y-113359000D03*
X176886000Y-113359000D03*
X174346000Y-113359000D03*
X171806000Y-113359000D03*
X169266000Y-113359000D03*
X166726000Y-113359000D03*
X164186000Y-113359000D03*
G36*
G01*
X162492940Y-114260000D02*
X160799060Y-114260000D01*
G75*
G02*
X160745000Y-114205940I0J54060D01*
G01*
X160745000Y-112512060D01*
G75*
G02*
X160799060Y-112458000I54060J0D01*
G01*
X162492940Y-112458000D01*
G75*
G02*
X162547000Y-112512060I0J-54060D01*
G01*
X162547000Y-114205940D01*
G75*
G02*
X162492940Y-114260000I-54060J0D01*
G01*
G37*
X204826000Y-119540000D03*
X202286000Y-119540000D03*
X199746000Y-119540000D03*
X197206000Y-119540000D03*
X194666000Y-119540000D03*
X192126000Y-119540000D03*
X189586000Y-119540000D03*
X187046000Y-119540000D03*
X184506000Y-119540000D03*
X181966000Y-119540000D03*
X179426000Y-119540000D03*
X176886000Y-119540000D03*
X174346000Y-119540000D03*
X171806000Y-119540000D03*
X169266000Y-119540000D03*
X166726000Y-119540000D03*
X164186000Y-119540000D03*
G36*
G01*
X162492940Y-120441000D02*
X160799060Y-120441000D01*
G75*
G02*
X160745000Y-120386940I0J54060D01*
G01*
X160745000Y-118693060D01*
G75*
G02*
X160799060Y-118639000I54060J0D01*
G01*
X162492940Y-118639000D01*
G75*
G02*
X162547000Y-118693060I0J-54060D01*
G01*
X162547000Y-120386940D01*
G75*
G02*
X162492940Y-120441000I-54060J0D01*
G01*
G37*
X204826000Y-122630000D03*
X202286000Y-122630000D03*
X199746000Y-122630000D03*
X197206000Y-122630000D03*
X194666000Y-122630000D03*
X192126000Y-122630000D03*
X189586000Y-122630000D03*
X187046000Y-122630000D03*
X184506000Y-122630000D03*
X181966000Y-122630000D03*
X179426000Y-122630000D03*
X176886000Y-122630000D03*
X174346000Y-122630000D03*
X171806000Y-122630000D03*
X169266000Y-122630000D03*
X166726000Y-122630000D03*
X164186000Y-122630000D03*
G36*
G01*
X162492940Y-123531000D02*
X160799060Y-123531000D01*
G75*
G02*
X160745000Y-123476940I0J54060D01*
G01*
X160745000Y-121783060D01*
G75*
G02*
X160799060Y-121729000I54060J0D01*
G01*
X162492940Y-121729000D01*
G75*
G02*
X162547000Y-121783060I0J-54060D01*
G01*
X162547000Y-123476940D01*
G75*
G02*
X162492940Y-123531000I-54060J0D01*
G01*
G37*
D13*
X180823000Y-82244000D03*
X190983000Y-82244000D03*
X190983000Y-86054000D03*
X180823000Y-86054000D03*
X200762000Y-86054000D03*
X198222000Y-86054000D03*
X183744000Y-76148000D03*
D14*
X177494000Y-76148000D03*
X189994000Y-76148000D03*
D13*
X186744000Y-76148000D03*
X180744000Y-76148000D03*
D10*
X174346000Y-87197000D03*
X174346000Y-89737000D03*
X174346000Y-92277000D03*
G36*
G01*
X175247000Y-93970060D02*
X175247000Y-95663940D01*
G75*
G02*
X175192940Y-95718000I-54060J0D01*
G01*
X173499060Y-95718000D01*
G75*
G02*
X173445000Y-95663940I0J54060D01*
G01*
X173445000Y-93970060D01*
G75*
G02*
X173499060Y-93916000I54060J0D01*
G01*
X175192940Y-93916000D01*
G75*
G02*
X175247000Y-93970060I0J-54060D01*
G01*
G37*
X165964000Y-100024000D03*
X165964000Y-102564000D03*
G36*
G01*
X165063000Y-105950940D02*
X165063000Y-104257060D01*
G75*
G02*
X165117060Y-104203000I54060J0D01*
G01*
X166810940Y-104203000D01*
G75*
G02*
X166865000Y-104257060I0J-54060D01*
G01*
X166865000Y-105950940D01*
G75*
G02*
X166810940Y-106005000I-54060J0D01*
G01*
X165117060Y-106005000D01*
G75*
G02*
X165063000Y-105950940I0J54060D01*
G01*
G37*
M02*
