G04 #@! TF.GenerationSoftware,KiCad,Pcbnew,5.99.0-unknown-a61ea1f~89~ubuntu20.04.1*
G04 #@! TF.CreationDate,2020-07-29T14:39:46+09:00*
G04 #@! TF.ProjectId,bGeigieRaku V2,62476569-6769-4655-9261-6b752056322e,rev?*
G04 #@! TF.SameCoordinates,Original*
G04 #@! TF.FileFunction,Copper,L2,Bot*
G04 #@! TF.FilePolarity,Positive*
%FSLAX46Y46*%
G04 Gerber Fmt 4.6, Leading zero omitted, Abs format (unit mm)*
G04 Created by KiCad (PCBNEW 5.99.0-unknown-a61ea1f~89~ubuntu20.04.1) date 2020-07-29 14:39:46*
%MOMM*%
%LPD*%
G01*
G04 APERTURE LIST*
G04 #@! TA.AperFunction,ComponentPad*
%ADD10O,1.700000X1.700000*%
G04 #@! TD*
G04 #@! TA.AperFunction,ComponentPad*
%ADD11R,1.700000X1.700000*%
G04 #@! TD*
G04 #@! TA.AperFunction,ComponentPad*
%ADD12C,3.600000*%
G04 #@! TD*
G04 #@! TA.AperFunction,ComponentPad*
%ADD13C,2.743200*%
G04 #@! TD*
G04 #@! TA.AperFunction,SMDPad,CuDef*
%ADD14R,12.000000X12.000000*%
G04 #@! TD*
G04 #@! TA.AperFunction,ComponentPad*
%ADD15C,1.676400*%
G04 #@! TD*
G04 #@! TA.AperFunction,ComponentPad*
%ADD16C,3.000000*%
G04 #@! TD*
G04 #@! TA.AperFunction,Conductor*
%ADD17C,0.250000*%
G04 #@! TD*
G04 #@! TA.AperFunction,Conductor*
%ADD18C,1.000000*%
G04 #@! TD*
G04 APERTURE END LIST*
D10*
X204826000Y-116449000D03*
X202286000Y-116449000D03*
X199746000Y-116449000D03*
X197206000Y-116449000D03*
X194666000Y-116449000D03*
X192126000Y-116449000D03*
X189586000Y-116449000D03*
X187046000Y-116449000D03*
X184506000Y-116449000D03*
X181966000Y-116449000D03*
X179426000Y-116449000D03*
X176886000Y-116449000D03*
X174346000Y-116449000D03*
X171806000Y-116449000D03*
X169266000Y-116449000D03*
X166726000Y-116449000D03*
X164186000Y-116449000D03*
D11*
X161646000Y-116449000D03*
D12*
X172568000Y-126186000D03*
X90271600Y-126186000D03*
X90525600Y-72338000D03*
X209144000Y-72338000D03*
X209144000Y-126186000D03*
D10*
X189586000Y-105993000D03*
D11*
X192126000Y-105993000D03*
D10*
X204572000Y-105993000D03*
D11*
X207112000Y-105993000D03*
D10*
X204572000Y-91007000D03*
D11*
X207112000Y-91007000D03*
D10*
X189586000Y-91007000D03*
D11*
X192126000Y-91007000D03*
D10*
X104004000Y-116574000D03*
X104004000Y-119114000D03*
X106544000Y-116574000D03*
X106544000Y-119114000D03*
X109084000Y-116574000D03*
X109084000Y-119114000D03*
X111624000Y-116574000D03*
X111624000Y-119114000D03*
X114164000Y-116574000D03*
X114164000Y-119114000D03*
X116704000Y-116574000D03*
X116704000Y-119114000D03*
X119244000Y-116574000D03*
X119244000Y-119114000D03*
X121784000Y-116574000D03*
X121784000Y-119114000D03*
X124324000Y-116574000D03*
X124324000Y-119114000D03*
X126864000Y-116574000D03*
X126864000Y-119114000D03*
X129404000Y-116574000D03*
X129404000Y-119114000D03*
X131944000Y-116574000D03*
X131944000Y-119114000D03*
X134484000Y-116574000D03*
X134484000Y-119114000D03*
X137024000Y-116574000D03*
X137024000Y-119114000D03*
X139564000Y-116574000D03*
D11*
X139564000Y-119114000D03*
D13*
X196194000Y-75142000D03*
X202942000Y-77682000D03*
X196194000Y-80222000D03*
X148434000Y-80202000D03*
X141686000Y-77662000D03*
X148434000Y-75122000D03*
D14*
X145114000Y-77662000D03*
X199914000Y-77872000D03*
D10*
X204826000Y-113359000D03*
X202286000Y-113359000D03*
X199746000Y-113359000D03*
X197206000Y-113359000D03*
X194666000Y-113359000D03*
X192126000Y-113359000D03*
X189586000Y-113359000D03*
X187046000Y-113359000D03*
X184506000Y-113359000D03*
X181966000Y-113359000D03*
X179426000Y-113359000D03*
X176886000Y-113359000D03*
X174346000Y-113359000D03*
X171806000Y-113359000D03*
X169266000Y-113359000D03*
X166726000Y-113359000D03*
X164186000Y-113359000D03*
D11*
X161646000Y-113359000D03*
D10*
X204826000Y-119540000D03*
X202286000Y-119540000D03*
X199746000Y-119540000D03*
X197206000Y-119540000D03*
X194666000Y-119540000D03*
X192126000Y-119540000D03*
X189586000Y-119540000D03*
X187046000Y-119540000D03*
X184506000Y-119540000D03*
X181966000Y-119540000D03*
X179426000Y-119540000D03*
X176886000Y-119540000D03*
X174346000Y-119540000D03*
X171806000Y-119540000D03*
X169266000Y-119540000D03*
X166726000Y-119540000D03*
X164186000Y-119540000D03*
D11*
X161646000Y-119540000D03*
D10*
X204826000Y-122630000D03*
X202286000Y-122630000D03*
X199746000Y-122630000D03*
X197206000Y-122630000D03*
X194666000Y-122630000D03*
X192126000Y-122630000D03*
X189586000Y-122630000D03*
X187046000Y-122630000D03*
X184506000Y-122630000D03*
X181966000Y-122630000D03*
X179426000Y-122630000D03*
X176886000Y-122630000D03*
X174346000Y-122630000D03*
X171806000Y-122630000D03*
X169266000Y-122630000D03*
X166726000Y-122630000D03*
X164186000Y-122630000D03*
D11*
X161646000Y-122630000D03*
D15*
X180823000Y-82244000D03*
X190983000Y-82244000D03*
X190983000Y-86054000D03*
X180823000Y-86054000D03*
X200762000Y-86054000D03*
X198222000Y-86054000D03*
X183744000Y-76148000D03*
D16*
X177494000Y-76148000D03*
X189994000Y-76148000D03*
D15*
X186744000Y-76148000D03*
X180744000Y-76148000D03*
D10*
X174346000Y-87197000D03*
X174346000Y-89737000D03*
X174346000Y-92277000D03*
D11*
X174346000Y-94817000D03*
D10*
X165964000Y-100024000D03*
X165964000Y-102564000D03*
D11*
X165964000Y-105104000D03*
D17*
X145114000Y-77662000D02*
X141686000Y-77662000D01*
X189586000Y-105993000D02*
X189586000Y-105405300D01*
X192126000Y-105993000D02*
X190950700Y-105993000D01*
X189586000Y-105405300D02*
X190363000Y-105405300D01*
X190363000Y-105405300D02*
X190950700Y-105993000D01*
X145114000Y-77662000D02*
X151439300Y-77662000D01*
X183744000Y-77099800D02*
X183744000Y-76148000D01*
X192204800Y-85560600D02*
X183744000Y-77099800D01*
X192204800Y-87991000D02*
X192204800Y-85560600D01*
X190950600Y-89245200D02*
X192204800Y-87991000D01*
X190950600Y-104817700D02*
X190950600Y-89245200D01*
X190363000Y-105405300D02*
X190950600Y-104817700D01*
X154806500Y-74294800D02*
X151439300Y-77662000D01*
X181890800Y-74294800D02*
X154806500Y-74294800D01*
X183744000Y-76148000D02*
X181890800Y-74294800D01*
X124691400Y-117749300D02*
X124324000Y-117749300D01*
X125499300Y-118557200D02*
X124691400Y-117749300D01*
X125499300Y-119456000D02*
X125499300Y-118557200D01*
X126372900Y-120329600D02*
X125499300Y-119456000D01*
X134940300Y-120329600D02*
X126372900Y-120329600D01*
X135754000Y-119515900D02*
X134940300Y-120329600D01*
X135754000Y-116164100D02*
X135754000Y-119515900D01*
X137069100Y-114849000D02*
X135754000Y-116164100D01*
X169508000Y-114849000D02*
X137069100Y-114849000D01*
X170630700Y-113726300D02*
X169508000Y-114849000D01*
X170630700Y-113359000D02*
X170630700Y-113726300D01*
X171806000Y-113359000D02*
X170630700Y-113359000D01*
X124324000Y-116574000D02*
X124324000Y-117749300D01*
X119611400Y-117749300D02*
X119244000Y-117749300D01*
X120419300Y-118557200D02*
X119611400Y-117749300D01*
X120419300Y-119411600D02*
X120419300Y-118557200D01*
X125154800Y-124147100D02*
X120419300Y-119411600D01*
X169508400Y-124147100D02*
X125154800Y-124147100D01*
X170536000Y-123119500D02*
X169508400Y-124147100D01*
X170536000Y-122163900D02*
X170536000Y-123119500D01*
X171520300Y-121179600D02*
X170536000Y-122163900D01*
X171848500Y-121179600D02*
X171520300Y-121179600D01*
X173076000Y-119952100D02*
X171848500Y-121179600D01*
X173076000Y-119073600D02*
X173076000Y-119952100D01*
X174060500Y-118089100D02*
X173076000Y-119073600D01*
X174388800Y-118089100D02*
X174060500Y-118089100D01*
X175710700Y-116767200D02*
X174388800Y-118089100D01*
X175710700Y-115709600D02*
X175710700Y-116767200D01*
X176886000Y-114534300D02*
X175710700Y-115709600D01*
X176886000Y-113359000D02*
X176886000Y-114534300D01*
X119244000Y-116574000D02*
X119244000Y-117749300D01*
X112799300Y-116941400D02*
X112799300Y-116574000D01*
X113607200Y-117749300D02*
X112799300Y-116941400D01*
X117087100Y-117749300D02*
X113607200Y-117749300D01*
X117879400Y-118541600D02*
X117087100Y-117749300D01*
X117879400Y-119438600D02*
X117879400Y-118541600D01*
X123044600Y-124603800D02*
X117879400Y-119438600D01*
X170436300Y-124603800D02*
X123044600Y-124603800D01*
X171011000Y-124029100D02*
X170436300Y-124603800D01*
X174706400Y-124029100D02*
X171011000Y-124029100D01*
X175616000Y-123119500D02*
X174706400Y-124029100D01*
X175616000Y-122237700D02*
X175616000Y-123119500D01*
X176768700Y-121085000D02*
X175616000Y-122237700D01*
X177023100Y-121085000D02*
X176768700Y-121085000D01*
X178250700Y-119857400D02*
X177023100Y-121085000D01*
X178250700Y-115709600D02*
X178250700Y-119857400D01*
X179426000Y-114534300D02*
X178250700Y-115709600D01*
X179426000Y-113359000D02*
X179426000Y-114534300D01*
X111624000Y-116574000D02*
X112799300Y-116574000D01*
D18*
X166726000Y-122630000D02*
X166726000Y-119540000D01*
X166726000Y-119540000D02*
X166726000Y-116449000D01*
X164186000Y-122630000D02*
X164186000Y-119540000D01*
X164186000Y-119540000D02*
X164186000Y-116449000D01*
X126864000Y-116574000D02*
X126864000Y-114723700D01*
X141563700Y-100024000D02*
X165964000Y-100024000D01*
X126864000Y-114723700D02*
X141563700Y-100024000D01*
X164186000Y-110715200D02*
X164186000Y-113359000D01*
X167814300Y-107086900D02*
X164186000Y-110715200D01*
X167814300Y-100024000D02*
X167814300Y-107086900D01*
X165964000Y-100024000D02*
X167814300Y-100024000D01*
D17*
X180823000Y-82244000D02*
X180823000Y-86054000D01*
X121784000Y-119114000D02*
X121784000Y-117938700D01*
X146954600Y-92277000D02*
X174346000Y-92277000D01*
X122959300Y-116272300D02*
X146954600Y-92277000D01*
X122959300Y-117130800D02*
X122959300Y-116272300D01*
X122151400Y-117938700D02*
X122959300Y-117130800D01*
X121784000Y-117938700D02*
X122151400Y-117938700D01*
X148621000Y-89737000D02*
X121784000Y-116574000D01*
X174346000Y-89737000D02*
X148621000Y-89737000D01*
X180744000Y-76148000D02*
X180744000Y-78160100D01*
X188637900Y-86054000D02*
X180744000Y-78160100D01*
X190983000Y-86054000D02*
X188637900Y-86054000D01*
X129627400Y-90950600D02*
X104004000Y-116574000D01*
X146770500Y-90950600D02*
X129627400Y-90950600D01*
X159561000Y-78160100D02*
X146770500Y-90950600D01*
X180744000Y-78160100D02*
X159561000Y-78160100D01*
X161646000Y-122630000D02*
X161646000Y-119540000D01*
X199914000Y-77872000D02*
X199914000Y-81034600D01*
X199914000Y-81034600D02*
X199914000Y-84197300D01*
X202942000Y-78006600D02*
X202942000Y-77682000D01*
X199914000Y-81034600D02*
X202942000Y-78006600D01*
X139564000Y-119114000D02*
X137024000Y-119114000D01*
X192126000Y-91007000D02*
X192126000Y-89831700D01*
X198222000Y-85971600D02*
X192655200Y-85971600D01*
X192655200Y-89302500D02*
X192655200Y-85971600D01*
X192126000Y-89831700D02*
X192655200Y-89302500D01*
X192655200Y-83916200D02*
X190983000Y-82244000D01*
X192655200Y-85971600D02*
X192655200Y-83916200D01*
X198222000Y-86054000D02*
X198222000Y-85971600D01*
X198222000Y-85889300D02*
X199914000Y-84197300D01*
X198222000Y-85971600D02*
X198222000Y-85889300D01*
X139564000Y-119114000D02*
X140739300Y-119114000D01*
X161646000Y-119114000D02*
X140739300Y-119114000D01*
X161646000Y-119540000D02*
X161646000Y-119114000D01*
X161646000Y-119114000D02*
X161646000Y-116449000D01*
X161646000Y-110597300D02*
X165964000Y-106279300D01*
X161646000Y-113359000D02*
X161646000Y-110597300D01*
X165964000Y-105104000D02*
X165964000Y-106279300D01*
M02*
