G04 #@! TF.GenerationSoftware,KiCad,Pcbnew,5.99.0-unknown-51b9944~86~ubuntu18.04.1*
G04 #@! TF.CreationDate,2020-03-12T08:57:13+09:00*
G04 #@! TF.ProjectId,bGeigieRaku V2,62476569-6769-4655-9261-6b752056322e,rev?*
G04 #@! TF.SameCoordinates,Original*
G04 #@! TF.FileFunction,Legend,Top*
G04 #@! TF.FilePolarity,Positive*
%FSLAX46Y46*%
G04 Gerber Fmt 4.6, Leading zero omitted, Abs format (unit mm)*
G04 Created by KiCad (PCBNEW 5.99.0-unknown-51b9944~86~ubuntu18.04.1) date 2020-03-12 08:57:13*
%MOMM*%
%LPD*%
G01*
G04 APERTURE LIST*
%ADD10C,1.000000*%
%ADD11C,0.150000*%
%ADD12C,0.300000*%
%ADD13C,0.200000*%
%ADD14C,0.100000*%
%ADD15C,0.203200*%
%ADD16C,0.120000*%
%ADD17C,0.152400*%
%ADD18C,0.304800*%
%ADD19C,0.127000*%
%ADD20C,0.120650*%
%ADD21C,0.096520*%
G04 APERTURE END LIST*
D10*
X164947600Y-98246000D02*
X164947600Y-107390000D01*
X162407600Y-98246000D02*
X162407600Y-107644000D01*
D11*
X193070171Y-122073714D02*
X193117790Y-121930857D01*
X193165409Y-121883238D01*
X193260647Y-121835619D01*
X193403504Y-121835619D01*
X193498742Y-121883238D01*
X193546361Y-121930857D01*
X193593980Y-122026095D01*
X193593980Y-122407047D01*
X192593980Y-122407047D01*
X192593980Y-122073714D01*
X192641600Y-121978476D01*
X192689219Y-121930857D01*
X192784457Y-121883238D01*
X192879695Y-121883238D01*
X192974933Y-121930857D01*
X193022552Y-121978476D01*
X193070171Y-122073714D01*
X193070171Y-122407047D01*
X193593980Y-120978476D02*
X193070171Y-120978476D01*
X192974933Y-121026095D01*
X192927314Y-121121333D01*
X192927314Y-121311809D01*
X192974933Y-121407047D01*
X193546361Y-120978476D02*
X193593980Y-121073714D01*
X193593980Y-121311809D01*
X193546361Y-121407047D01*
X193451123Y-121454666D01*
X193355885Y-121454666D01*
X193260647Y-121407047D01*
X193213028Y-121311809D01*
X193213028Y-121073714D01*
X193165409Y-120978476D01*
X192927314Y-120645142D02*
X192927314Y-120264190D01*
X192593980Y-120502285D02*
X193451123Y-120502285D01*
X193546361Y-120454666D01*
X193593980Y-120359428D01*
X193593980Y-120264190D01*
X192927314Y-120073714D02*
X192927314Y-119692761D01*
X192593980Y-119930857D02*
X193451123Y-119930857D01*
X193546361Y-119883238D01*
X193593980Y-119788000D01*
X193593980Y-119692761D01*
X193546361Y-118978476D02*
X193593980Y-119073714D01*
X193593980Y-119264190D01*
X193546361Y-119359428D01*
X193451123Y-119407047D01*
X193070171Y-119407047D01*
X192974933Y-119359428D01*
X192927314Y-119264190D01*
X192927314Y-119073714D01*
X192974933Y-118978476D01*
X193070171Y-118930857D01*
X193165409Y-118930857D01*
X193260647Y-119407047D01*
X193593980Y-118502285D02*
X192927314Y-118502285D01*
X193117790Y-118502285D02*
X193022552Y-118454666D01*
X192974933Y-118407047D01*
X192927314Y-118311809D01*
X192927314Y-118216571D01*
X192927314Y-117978476D02*
X193593980Y-117740380D01*
X192927314Y-117502285D02*
X193593980Y-117740380D01*
X193832076Y-117835619D01*
X193879695Y-117883238D01*
X193927314Y-117978476D01*
X193546361Y-115930857D02*
X193593980Y-116026095D01*
X193593980Y-116216571D01*
X193546361Y-116311809D01*
X193498742Y-116359428D01*
X193403504Y-116407047D01*
X193117790Y-116407047D01*
X193022552Y-116359428D01*
X192974933Y-116311809D01*
X192927314Y-116216571D01*
X192927314Y-116026095D01*
X192974933Y-115930857D01*
X193593980Y-115502285D02*
X192593980Y-115502285D01*
X193593980Y-115073714D02*
X193070171Y-115073714D01*
X192974933Y-115121333D01*
X192927314Y-115216571D01*
X192927314Y-115359428D01*
X192974933Y-115454666D01*
X193022552Y-115502285D01*
X193593980Y-114168952D02*
X193070171Y-114168952D01*
X192974933Y-114216571D01*
X192927314Y-114311809D01*
X192927314Y-114502285D01*
X192974933Y-114597523D01*
X193546361Y-114168952D02*
X193593980Y-114264190D01*
X193593980Y-114502285D01*
X193546361Y-114597523D01*
X193451123Y-114645142D01*
X193355885Y-114645142D01*
X193260647Y-114597523D01*
X193213028Y-114502285D01*
X193213028Y-114264190D01*
X193165409Y-114168952D01*
X193593980Y-113692761D02*
X192927314Y-113692761D01*
X193117790Y-113692761D02*
X193022552Y-113645142D01*
X192974933Y-113597523D01*
X192927314Y-113502285D01*
X192927314Y-113407047D01*
X192927314Y-112645142D02*
X193736838Y-112645142D01*
X193832076Y-112692761D01*
X193879695Y-112740380D01*
X193927314Y-112835619D01*
X193927314Y-112978476D01*
X193879695Y-113073714D01*
X193546361Y-112645142D02*
X193593980Y-112740380D01*
X193593980Y-112930857D01*
X193546361Y-113026095D01*
X193498742Y-113073714D01*
X193403504Y-113121333D01*
X193117790Y-113121333D01*
X193022552Y-113073714D01*
X192974933Y-113026095D01*
X192927314Y-112930857D01*
X192927314Y-112740380D01*
X192974933Y-112645142D01*
X193546361Y-111788000D02*
X193593980Y-111883238D01*
X193593980Y-112073714D01*
X193546361Y-112168952D01*
X193451123Y-112216571D01*
X193070171Y-112216571D01*
X192974933Y-112168952D01*
X192927314Y-112073714D01*
X192927314Y-111883238D01*
X192974933Y-111788000D01*
X193070171Y-111740380D01*
X193165409Y-111740380D01*
X193260647Y-112216571D01*
X193593980Y-111311809D02*
X192927314Y-111311809D01*
X193117790Y-111311809D02*
X193022552Y-111264190D01*
X192974933Y-111216571D01*
X192927314Y-111121333D01*
X192927314Y-111026095D01*
D12*
X173925028Y-69230571D02*
X174210742Y-69230571D01*
X174353600Y-69302000D01*
X174496457Y-69444857D01*
X174567885Y-69730571D01*
X174567885Y-70230571D01*
X174496457Y-70516285D01*
X174353600Y-70659142D01*
X174210742Y-70730571D01*
X173925028Y-70730571D01*
X173782171Y-70659142D01*
X173639314Y-70516285D01*
X173567885Y-70230571D01*
X173567885Y-69730571D01*
X173639314Y-69444857D01*
X173782171Y-69302000D01*
X173925028Y-69230571D01*
X175210742Y-70730571D02*
X175210742Y-69230571D01*
X176067885Y-70730571D01*
X176067885Y-69230571D01*
X190443028Y-68976571D02*
X190728742Y-68976571D01*
X190871600Y-69048000D01*
X191014457Y-69190857D01*
X191085885Y-69476571D01*
X191085885Y-69976571D01*
X191014457Y-70262285D01*
X190871600Y-70405142D01*
X190728742Y-70476571D01*
X190443028Y-70476571D01*
X190300171Y-70405142D01*
X190157314Y-70262285D01*
X190085885Y-69976571D01*
X190085885Y-69476571D01*
X190157314Y-69190857D01*
X190300171Y-69048000D01*
X190443028Y-68976571D01*
X192228742Y-69690857D02*
X191728742Y-69690857D01*
X191728742Y-70476571D02*
X191728742Y-68976571D01*
X192443028Y-68976571D01*
X193514457Y-69690857D02*
X193014457Y-69690857D01*
X193014457Y-70476571D02*
X193014457Y-68976571D01*
X193728742Y-68976571D01*
D11*
X166034980Y-95880523D02*
X165034980Y-95880523D01*
X165749266Y-95547190D01*
X165034980Y-95213857D01*
X166034980Y-95213857D01*
X165034980Y-94261476D02*
X165034980Y-94737666D01*
X165511171Y-94785285D01*
X165463552Y-94737666D01*
X165415933Y-94642428D01*
X165415933Y-94404333D01*
X165463552Y-94309095D01*
X165511171Y-94261476D01*
X165606409Y-94213857D01*
X165844504Y-94213857D01*
X165939742Y-94261476D01*
X165987361Y-94309095D01*
X166034980Y-94404333D01*
X166034980Y-94642428D01*
X165987361Y-94737666D01*
X165939742Y-94785285D01*
D13*
X179171600Y-99516000D02*
X166471600Y-99516000D01*
X179171600Y-94182000D02*
X179171600Y-99516000D01*
X166471600Y-94182000D02*
X179171600Y-94182000D01*
X166471600Y-99516000D02*
X166471600Y-94182000D01*
D10*
X159867600Y-98246000D02*
X159867600Y-107644000D01*
D11*
X177272600Y-96311142D02*
X177236885Y-96382571D01*
X177236885Y-96489714D01*
X177272600Y-96596857D01*
X177344028Y-96668285D01*
X177415457Y-96704000D01*
X177558314Y-96739714D01*
X177665457Y-96739714D01*
X177808314Y-96704000D01*
X177879742Y-96668285D01*
X177951171Y-96596857D01*
X177986885Y-96489714D01*
X177986885Y-96418285D01*
X177951171Y-96311142D01*
X177915457Y-96275428D01*
X177665457Y-96275428D01*
X177665457Y-96418285D01*
X177986885Y-95954000D02*
X177236885Y-95954000D01*
X177236885Y-95454000D02*
X177236885Y-95311142D01*
X177272600Y-95239714D01*
X177344028Y-95168285D01*
X177486885Y-95132571D01*
X177736885Y-95132571D01*
X177879742Y-95168285D01*
X177951171Y-95239714D01*
X177986885Y-95311142D01*
X177986885Y-95454000D01*
X177951171Y-95525428D01*
X177879742Y-95596857D01*
X177736885Y-95632571D01*
X177486885Y-95632571D01*
X177344028Y-95596857D01*
X177272600Y-95525428D01*
X177236885Y-95454000D01*
X177236885Y-94668285D02*
X177236885Y-94596857D01*
X177272600Y-94525428D01*
X177308314Y-94489714D01*
X177379742Y-94454000D01*
X177522600Y-94418285D01*
X177701171Y-94418285D01*
X177844028Y-94454000D01*
X177915457Y-94489714D01*
X177951171Y-94525428D01*
X177986885Y-94596857D01*
X177986885Y-94668285D01*
X177951171Y-94739714D01*
X177915457Y-94775428D01*
X177844028Y-94811142D01*
X177701171Y-94846857D01*
X177522600Y-94846857D01*
X177379742Y-94811142D01*
X177308314Y-94775428D01*
X177272600Y-94739714D01*
X177236885Y-94668285D01*
X175411171Y-96471857D02*
X175446885Y-96364714D01*
X175446885Y-96186142D01*
X175411171Y-96114714D01*
X175375457Y-96079000D01*
X175304028Y-96043285D01*
X175232600Y-96043285D01*
X175161171Y-96079000D01*
X175125457Y-96114714D01*
X175089742Y-96186142D01*
X175054028Y-96329000D01*
X175018314Y-96400428D01*
X174982600Y-96436142D01*
X174911171Y-96471857D01*
X174839742Y-96471857D01*
X174768314Y-96436142D01*
X174732600Y-96400428D01*
X174696885Y-96329000D01*
X174696885Y-96150428D01*
X174732600Y-96043285D01*
X175375457Y-95293285D02*
X175411171Y-95329000D01*
X175446885Y-95436142D01*
X175446885Y-95507571D01*
X175411171Y-95614714D01*
X175339742Y-95686142D01*
X175268314Y-95721857D01*
X175125457Y-95757571D01*
X175018314Y-95757571D01*
X174875457Y-95721857D01*
X174804028Y-95686142D01*
X174732600Y-95614714D01*
X174696885Y-95507571D01*
X174696885Y-95436142D01*
X174732600Y-95329000D01*
X174768314Y-95293285D01*
X175446885Y-94614714D02*
X175446885Y-94971857D01*
X174696885Y-94971857D01*
X172871171Y-96489714D02*
X172906885Y-96382571D01*
X172906885Y-96204000D01*
X172871171Y-96132571D01*
X172835457Y-96096857D01*
X172764028Y-96061142D01*
X172692600Y-96061142D01*
X172621171Y-96096857D01*
X172585457Y-96132571D01*
X172549742Y-96204000D01*
X172514028Y-96346857D01*
X172478314Y-96418285D01*
X172442600Y-96454000D01*
X172371171Y-96489714D01*
X172299742Y-96489714D01*
X172228314Y-96454000D01*
X172192600Y-96418285D01*
X172156885Y-96346857D01*
X172156885Y-96168285D01*
X172192600Y-96061142D01*
X172906885Y-95739714D02*
X172156885Y-95739714D01*
X172156885Y-95561142D01*
X172192600Y-95454000D01*
X172264028Y-95382571D01*
X172335457Y-95346857D01*
X172478314Y-95311142D01*
X172585457Y-95311142D01*
X172728314Y-95346857D01*
X172799742Y-95382571D01*
X172871171Y-95454000D01*
X172906885Y-95561142D01*
X172906885Y-95739714D01*
X172692600Y-95025428D02*
X172692600Y-94668285D01*
X172906885Y-95096857D02*
X172156885Y-94846857D01*
X172906885Y-94596857D01*
X170366885Y-96061141D02*
X170009742Y-96311141D01*
X170366885Y-96489713D02*
X169616885Y-96489713D01*
X169616885Y-96203999D01*
X169652600Y-96132570D01*
X169688314Y-96096856D01*
X169759742Y-96061141D01*
X169866885Y-96061141D01*
X169938314Y-96096856D01*
X169974028Y-96132570D01*
X170009742Y-96203999D01*
X170009742Y-96489713D01*
X169616885Y-95811141D02*
X170366885Y-95311141D01*
X169616885Y-95311141D02*
X170366885Y-95811141D01*
X170366885Y-94632570D02*
X170366885Y-95061141D01*
X170366885Y-94846856D02*
X169616885Y-94846856D01*
X169724028Y-94918284D01*
X169795457Y-94989713D01*
X169831171Y-95061141D01*
X167076885Y-96507570D02*
X167076885Y-96078999D01*
X167826885Y-96293284D02*
X167076885Y-96293284D01*
X167076885Y-95900427D02*
X167826885Y-95400427D01*
X167076885Y-95400427D02*
X167826885Y-95900427D01*
X167826885Y-94721856D02*
X167826885Y-95150427D01*
X167826885Y-94936141D02*
X167076885Y-94936141D01*
X167184028Y-95007570D01*
X167255457Y-95078999D01*
X167291171Y-95150427D01*
X164790885Y-110807143D02*
X164790885Y-111164286D01*
X165148028Y-111200000D01*
X165112314Y-111164286D01*
X165076600Y-111092857D01*
X165076600Y-110914286D01*
X165112314Y-110842857D01*
X165148028Y-110807143D01*
X165219457Y-110771428D01*
X165398028Y-110771428D01*
X165469457Y-110807143D01*
X165505171Y-110842857D01*
X165540885Y-110914286D01*
X165540885Y-111092857D01*
X165505171Y-111164286D01*
X165469457Y-111200000D01*
X164790885Y-110557143D02*
X165540885Y-110307143D01*
X164790885Y-110057143D01*
X162250885Y-112307142D02*
X162250885Y-111842857D01*
X162536600Y-112092857D01*
X162536600Y-111985714D01*
X162572314Y-111914285D01*
X162608028Y-111878571D01*
X162679457Y-111842857D01*
X162858028Y-111842857D01*
X162929457Y-111878571D01*
X162965171Y-111914285D01*
X163000885Y-111985714D01*
X163000885Y-112200000D01*
X162965171Y-112271428D01*
X162929457Y-112307142D01*
X162929457Y-111521428D02*
X162965171Y-111485714D01*
X163000885Y-111521428D01*
X162965171Y-111557142D01*
X162929457Y-111521428D01*
X163000885Y-111521428D01*
X162250885Y-111235714D02*
X162250885Y-110771428D01*
X162536600Y-111021428D01*
X162536600Y-110914285D01*
X162572314Y-110842857D01*
X162608028Y-110807142D01*
X162679457Y-110771428D01*
X162858028Y-110771428D01*
X162929457Y-110807142D01*
X162965171Y-110842857D01*
X163000885Y-110914285D01*
X163000885Y-111128571D01*
X162965171Y-111200000D01*
X162929457Y-111235714D01*
X162250885Y-110557142D02*
X163000885Y-110307142D01*
X162250885Y-110057142D01*
X159746600Y-111699999D02*
X159710885Y-111771428D01*
X159710885Y-111878571D01*
X159746600Y-111985713D01*
X159818028Y-112057142D01*
X159889457Y-112092856D01*
X160032314Y-112128571D01*
X160139457Y-112128571D01*
X160282314Y-112092856D01*
X160353742Y-112057142D01*
X160425171Y-111985713D01*
X160460885Y-111878571D01*
X160460885Y-111807142D01*
X160425171Y-111699999D01*
X160389457Y-111664285D01*
X160139457Y-111664285D01*
X160139457Y-111807142D01*
X160460885Y-111342856D02*
X159710885Y-111342856D01*
X160460885Y-110914285D01*
X159710885Y-110914285D01*
X160460885Y-110557142D02*
X159710885Y-110557142D01*
X159710885Y-110378571D01*
X159746600Y-110271428D01*
X159818028Y-110199999D01*
X159889457Y-110164285D01*
X160032314Y-110128571D01*
X160139457Y-110128571D01*
X160282314Y-110164285D01*
X160353742Y-110199999D01*
X160425171Y-110271428D01*
X160460885Y-110378571D01*
X160460885Y-110557142D01*
D14*
X152863361Y-108912523D02*
X152910980Y-108769666D01*
X152910980Y-108531571D01*
X152863361Y-108436333D01*
X152815742Y-108388714D01*
X152720504Y-108341095D01*
X152625266Y-108341095D01*
X152530028Y-108388714D01*
X152482409Y-108436333D01*
X152434790Y-108531571D01*
X152387171Y-108722047D01*
X152339552Y-108817285D01*
X152291933Y-108864904D01*
X152196695Y-108912523D01*
X152101457Y-108912523D01*
X152006219Y-108864904D01*
X151958600Y-108817285D01*
X151910980Y-108722047D01*
X151910980Y-108483952D01*
X151958600Y-108341095D01*
X152910980Y-107483952D02*
X152387171Y-107483952D01*
X152291933Y-107531571D01*
X152244314Y-107626809D01*
X152244314Y-107817285D01*
X152291933Y-107912523D01*
X152863361Y-107483952D02*
X152910980Y-107579190D01*
X152910980Y-107817285D01*
X152863361Y-107912523D01*
X152768123Y-107960142D01*
X152672885Y-107960142D01*
X152577647Y-107912523D01*
X152530028Y-107817285D01*
X152530028Y-107579190D01*
X152482409Y-107483952D01*
X152244314Y-107150619D02*
X152244314Y-106769666D01*
X152910980Y-107007761D02*
X152053838Y-107007761D01*
X151958600Y-106960142D01*
X151910980Y-106864904D01*
X151910980Y-106769666D01*
X152863361Y-106055380D02*
X152910980Y-106150619D01*
X152910980Y-106341095D01*
X152863361Y-106436333D01*
X152768123Y-106483952D01*
X152387171Y-106483952D01*
X152291933Y-106436333D01*
X152244314Y-106341095D01*
X152244314Y-106150619D01*
X152291933Y-106055380D01*
X152387171Y-106007761D01*
X152482409Y-106007761D01*
X152577647Y-106483952D01*
X152863361Y-105150619D02*
X152910980Y-105245857D01*
X152910980Y-105436333D01*
X152863361Y-105531571D01*
X152815742Y-105579190D01*
X152720504Y-105626809D01*
X152434790Y-105626809D01*
X152339552Y-105579190D01*
X152291933Y-105531571D01*
X152244314Y-105436333D01*
X152244314Y-105245857D01*
X152291933Y-105150619D01*
X152910980Y-104293476D02*
X152387171Y-104293476D01*
X152291933Y-104341095D01*
X152244314Y-104436333D01*
X152244314Y-104626809D01*
X152291933Y-104722047D01*
X152863361Y-104293476D02*
X152910980Y-104388714D01*
X152910980Y-104626809D01*
X152863361Y-104722047D01*
X152768123Y-104769666D01*
X152672885Y-104769666D01*
X152577647Y-104722047D01*
X152530028Y-104626809D01*
X152530028Y-104388714D01*
X152482409Y-104293476D01*
X152863361Y-103864904D02*
X152910980Y-103769666D01*
X152910980Y-103579190D01*
X152863361Y-103483952D01*
X152768123Y-103436333D01*
X152720504Y-103436333D01*
X152625266Y-103483952D01*
X152577647Y-103579190D01*
X152577647Y-103722047D01*
X152530028Y-103817285D01*
X152434790Y-103864904D01*
X152387171Y-103864904D01*
X152291933Y-103817285D01*
X152244314Y-103722047D01*
X152244314Y-103579190D01*
X152291933Y-103483952D01*
X152244314Y-103150619D02*
X152244314Y-102769666D01*
X151910980Y-103007761D02*
X152768123Y-103007761D01*
X152863361Y-102960142D01*
X152910980Y-102864904D01*
X152910980Y-102769666D01*
X152910980Y-101674428D02*
X151910980Y-101674428D01*
X152625266Y-101341095D01*
X151910980Y-101007761D01*
X152910980Y-101007761D01*
X151910980Y-100055380D02*
X151910980Y-100531571D01*
X152387171Y-100579190D01*
X152339552Y-100531571D01*
X152291933Y-100436333D01*
X152291933Y-100198238D01*
X152339552Y-100103000D01*
X152387171Y-100055380D01*
X152482409Y-100007761D01*
X152720504Y-100007761D01*
X152815742Y-100055380D01*
X152863361Y-100103000D01*
X152910980Y-100198238D01*
X152910980Y-100436333D01*
X152863361Y-100531571D01*
X152815742Y-100579190D01*
X152910980Y-98817285D02*
X151910980Y-98817285D01*
X152291933Y-98817285D02*
X152244314Y-98722047D01*
X152244314Y-98531571D01*
X152291933Y-98436333D01*
X152339552Y-98388714D01*
X152434790Y-98341095D01*
X152720504Y-98341095D01*
X152815742Y-98388714D01*
X152863361Y-98436333D01*
X152910980Y-98531571D01*
X152910980Y-98722047D01*
X152863361Y-98817285D01*
X152910980Y-97483952D02*
X152387171Y-97483952D01*
X152291933Y-97531571D01*
X152244314Y-97626809D01*
X152244314Y-97817285D01*
X152291933Y-97912523D01*
X152863361Y-97483952D02*
X152910980Y-97579190D01*
X152910980Y-97817285D01*
X152863361Y-97912523D01*
X152768123Y-97960142D01*
X152672885Y-97960142D01*
X152577647Y-97912523D01*
X152530028Y-97817285D01*
X152530028Y-97579190D01*
X152482409Y-97483952D01*
X152863361Y-97055380D02*
X152910980Y-96960142D01*
X152910980Y-96769666D01*
X152863361Y-96674428D01*
X152768123Y-96626809D01*
X152720504Y-96626809D01*
X152625266Y-96674428D01*
X152577647Y-96769666D01*
X152577647Y-96912523D01*
X152530028Y-97007761D01*
X152434790Y-97055380D01*
X152387171Y-97055380D01*
X152291933Y-97007761D01*
X152244314Y-96912523D01*
X152244314Y-96769666D01*
X152291933Y-96674428D01*
X152863361Y-95817285D02*
X152910980Y-95912523D01*
X152910980Y-96103000D01*
X152863361Y-96198238D01*
X152768123Y-96245857D01*
X152387171Y-96245857D01*
X152291933Y-96198238D01*
X152244314Y-96103000D01*
X152244314Y-95912523D01*
X152291933Y-95817285D01*
X152387171Y-95769666D01*
X152482409Y-95769666D01*
X152577647Y-96245857D01*
X152910980Y-94912523D02*
X151910980Y-94912523D01*
X152863361Y-94912523D02*
X152910980Y-95007761D01*
X152910980Y-95198238D01*
X152863361Y-95293476D01*
X152815742Y-95341095D01*
X152720504Y-95388714D01*
X152434790Y-95388714D01*
X152339552Y-95341095D01*
X152291933Y-95293476D01*
X152244314Y-95198238D01*
X152244314Y-95007761D01*
X152291933Y-94912523D01*
X152910980Y-93674428D02*
X151910980Y-93674428D01*
X152291933Y-93674428D02*
X152244314Y-93579190D01*
X152244314Y-93388714D01*
X152291933Y-93293476D01*
X152339552Y-93245857D01*
X152434790Y-93198238D01*
X152720504Y-93198238D01*
X152815742Y-93245857D01*
X152863361Y-93293476D01*
X152910980Y-93388714D01*
X152910980Y-93579190D01*
X152863361Y-93674428D01*
X151958600Y-92245857D02*
X151910980Y-92341095D01*
X151910980Y-92483952D01*
X151958600Y-92626809D01*
X152053838Y-92722047D01*
X152149076Y-92769666D01*
X152339552Y-92817285D01*
X152482409Y-92817285D01*
X152672885Y-92769666D01*
X152768123Y-92722047D01*
X152863361Y-92626809D01*
X152910980Y-92483952D01*
X152910980Y-92388714D01*
X152863361Y-92245857D01*
X152815742Y-92198238D01*
X152482409Y-92198238D01*
X152482409Y-92388714D01*
X152863361Y-91388714D02*
X152910980Y-91483952D01*
X152910980Y-91674428D01*
X152863361Y-91769666D01*
X152768123Y-91817285D01*
X152387171Y-91817285D01*
X152291933Y-91769666D01*
X152244314Y-91674428D01*
X152244314Y-91483952D01*
X152291933Y-91388714D01*
X152387171Y-91341095D01*
X152482409Y-91341095D01*
X152577647Y-91817285D01*
X152910980Y-90912523D02*
X152244314Y-90912523D01*
X151910980Y-90912523D02*
X151958600Y-90960142D01*
X152006219Y-90912523D01*
X151958600Y-90864904D01*
X151910980Y-90912523D01*
X152006219Y-90912523D01*
X152244314Y-90007761D02*
X153053838Y-90007761D01*
X153149076Y-90055380D01*
X153196695Y-90103000D01*
X153244314Y-90198238D01*
X153244314Y-90341095D01*
X153196695Y-90436333D01*
X152863361Y-90007761D02*
X152910980Y-90103000D01*
X152910980Y-90293476D01*
X152863361Y-90388714D01*
X152815742Y-90436333D01*
X152720504Y-90483952D01*
X152434790Y-90483952D01*
X152339552Y-90436333D01*
X152291933Y-90388714D01*
X152244314Y-90293476D01*
X152244314Y-90103000D01*
X152291933Y-90007761D01*
X152910980Y-89531571D02*
X152244314Y-89531571D01*
X151910980Y-89531571D02*
X151958600Y-89579190D01*
X152006219Y-89531571D01*
X151958600Y-89483952D01*
X151910980Y-89531571D01*
X152006219Y-89531571D01*
X152863361Y-88674428D02*
X152910980Y-88769666D01*
X152910980Y-88960142D01*
X152863361Y-89055380D01*
X152768123Y-89103000D01*
X152387171Y-89103000D01*
X152291933Y-89055380D01*
X152244314Y-88960142D01*
X152244314Y-88769666D01*
X152291933Y-88674428D01*
X152387171Y-88626809D01*
X152482409Y-88626809D01*
X152577647Y-89103000D01*
X152910980Y-87626809D02*
X152434790Y-87960142D01*
X152910980Y-88198238D02*
X151910980Y-88198238D01*
X151910980Y-87817285D01*
X151958600Y-87722047D01*
X152006219Y-87674428D01*
X152101457Y-87626809D01*
X152244314Y-87626809D01*
X152339552Y-87674428D01*
X152387171Y-87722047D01*
X152434790Y-87817285D01*
X152434790Y-88198238D01*
X152910980Y-86769666D02*
X152387171Y-86769666D01*
X152291933Y-86817285D01*
X152244314Y-86912523D01*
X152244314Y-87103000D01*
X152291933Y-87198238D01*
X152863361Y-86769666D02*
X152910980Y-86864904D01*
X152910980Y-87103000D01*
X152863361Y-87198238D01*
X152768123Y-87245857D01*
X152672885Y-87245857D01*
X152577647Y-87198238D01*
X152530028Y-87103000D01*
X152530028Y-86864904D01*
X152482409Y-86769666D01*
X152910980Y-86293476D02*
X151910980Y-86293476D01*
X152530028Y-86198238D02*
X152910980Y-85912523D01*
X152244314Y-85912523D02*
X152625266Y-86293476D01*
X152244314Y-85055380D02*
X152910980Y-85055380D01*
X152244314Y-85483952D02*
X152768123Y-85483952D01*
X152863361Y-85436333D01*
X152910980Y-85341095D01*
X152910980Y-85198238D01*
X152863361Y-85103000D01*
X152815742Y-85055380D01*
X153854314Y-108864904D02*
X154854314Y-108864904D01*
X153901933Y-108864904D02*
X153854314Y-108769666D01*
X153854314Y-108579190D01*
X153901933Y-108483952D01*
X153949552Y-108436333D01*
X154044790Y-108388714D01*
X154330504Y-108388714D01*
X154425742Y-108436333D01*
X154473361Y-108483952D01*
X154520980Y-108579190D01*
X154520980Y-108769666D01*
X154473361Y-108864904D01*
X154520980Y-107960142D02*
X153854314Y-107960142D01*
X154044790Y-107960142D02*
X153949552Y-107912523D01*
X153901933Y-107864904D01*
X153854314Y-107769666D01*
X153854314Y-107674428D01*
X154520980Y-107198238D02*
X154473361Y-107293476D01*
X154425742Y-107341095D01*
X154330504Y-107388714D01*
X154044790Y-107388714D01*
X153949552Y-107341095D01*
X153901933Y-107293476D01*
X153854314Y-107198238D01*
X153854314Y-107055380D01*
X153901933Y-106960142D01*
X153949552Y-106912523D01*
X154044790Y-106864904D01*
X154330504Y-106864904D01*
X154425742Y-106912523D01*
X154473361Y-106960142D01*
X154520980Y-107055380D01*
X154520980Y-107198238D01*
X153854314Y-106579190D02*
X153854314Y-106198238D01*
X153520980Y-106436333D02*
X154378123Y-106436333D01*
X154473361Y-106388714D01*
X154520980Y-106293476D01*
X154520980Y-106198238D01*
X154520980Y-105722047D02*
X154473361Y-105817285D01*
X154425742Y-105864904D01*
X154330504Y-105912523D01*
X154044790Y-105912523D01*
X153949552Y-105864904D01*
X153901933Y-105817285D01*
X153854314Y-105722047D01*
X153854314Y-105579190D01*
X153901933Y-105483952D01*
X153949552Y-105436333D01*
X154044790Y-105388714D01*
X154330504Y-105388714D01*
X154425742Y-105436333D01*
X154473361Y-105483952D01*
X154520980Y-105579190D01*
X154520980Y-105722047D01*
X153854314Y-105103000D02*
X153854314Y-104722047D01*
X153520980Y-104960142D02*
X154378123Y-104960142D01*
X154473361Y-104912523D01*
X154520980Y-104817285D01*
X154520980Y-104722047D01*
X153854314Y-104483952D02*
X154520980Y-104245857D01*
X153854314Y-104007761D02*
X154520980Y-104245857D01*
X154759076Y-104341095D01*
X154806695Y-104388714D01*
X154854314Y-104483952D01*
X153854314Y-103626809D02*
X154854314Y-103626809D01*
X153901933Y-103626809D02*
X153854314Y-103531571D01*
X153854314Y-103341095D01*
X153901933Y-103245857D01*
X153949552Y-103198238D01*
X154044790Y-103150619D01*
X154330504Y-103150619D01*
X154425742Y-103198238D01*
X154473361Y-103245857D01*
X154520980Y-103341095D01*
X154520980Y-103531571D01*
X154473361Y-103626809D01*
X154473361Y-102341095D02*
X154520980Y-102436333D01*
X154520980Y-102626809D01*
X154473361Y-102722047D01*
X154378123Y-102769666D01*
X153997171Y-102769666D01*
X153901933Y-102722047D01*
X153854314Y-102626809D01*
X153854314Y-102436333D01*
X153901933Y-102341095D01*
X153997171Y-102293476D01*
X154092409Y-102293476D01*
X154187647Y-102769666D01*
X154520980Y-101103000D02*
X153520980Y-101103000D01*
X153901933Y-101103000D02*
X153854314Y-101007761D01*
X153854314Y-100817285D01*
X153901933Y-100722047D01*
X153949552Y-100674428D01*
X154044790Y-100626809D01*
X154330504Y-100626809D01*
X154425742Y-100674428D01*
X154473361Y-100722047D01*
X154520980Y-100817285D01*
X154520980Y-101007761D01*
X154473361Y-101103000D01*
X154520980Y-100055380D02*
X154473361Y-100150619D01*
X154425742Y-100198238D01*
X154330504Y-100245857D01*
X154044790Y-100245857D01*
X153949552Y-100198238D01*
X153901933Y-100150619D01*
X153854314Y-100055380D01*
X153854314Y-99912523D01*
X153901933Y-99817285D01*
X153949552Y-99769666D01*
X154044790Y-99722047D01*
X154330504Y-99722047D01*
X154425742Y-99769666D01*
X154473361Y-99817285D01*
X154520980Y-99912523D01*
X154520980Y-100055380D01*
X154520980Y-98864904D02*
X153997171Y-98864904D01*
X153901933Y-98912523D01*
X153854314Y-99007761D01*
X153854314Y-99198238D01*
X153901933Y-99293476D01*
X154473361Y-98864904D02*
X154520980Y-98960142D01*
X154520980Y-99198238D01*
X154473361Y-99293476D01*
X154378123Y-99341095D01*
X154282885Y-99341095D01*
X154187647Y-99293476D01*
X154140028Y-99198238D01*
X154140028Y-98960142D01*
X154092409Y-98864904D01*
X154520980Y-98388714D02*
X153854314Y-98388714D01*
X154044790Y-98388714D02*
X153949552Y-98341095D01*
X153901933Y-98293476D01*
X153854314Y-98198238D01*
X153854314Y-98103000D01*
X154520980Y-97341095D02*
X153520980Y-97341095D01*
X154473361Y-97341095D02*
X154520980Y-97436333D01*
X154520980Y-97626809D01*
X154473361Y-97722047D01*
X154425742Y-97769666D01*
X154330504Y-97817285D01*
X154044790Y-97817285D01*
X153949552Y-97769666D01*
X153901933Y-97722047D01*
X153854314Y-97626809D01*
X153854314Y-97436333D01*
X153901933Y-97341095D01*
X153520980Y-96245857D02*
X154520980Y-95912523D01*
X153520980Y-95579190D01*
X154520980Y-94722047D02*
X154520980Y-95293476D01*
X154520980Y-95007761D02*
X153520980Y-95007761D01*
X153663838Y-95103000D01*
X153759076Y-95198238D01*
X153806695Y-95293476D01*
X154425742Y-94293476D02*
X154473361Y-94245857D01*
X154520980Y-94293476D01*
X154473361Y-94341095D01*
X154425742Y-94293476D01*
X154520980Y-94293476D01*
X154520980Y-93293476D02*
X154520980Y-93864904D01*
X154520980Y-93579190D02*
X153520980Y-93579190D01*
X153663838Y-93674428D01*
X153759076Y-93769666D01*
X153806695Y-93864904D01*
X154425742Y-92864904D02*
X154473361Y-92817285D01*
X154520980Y-92864904D01*
X154473361Y-92912523D01*
X154425742Y-92864904D01*
X154520980Y-92864904D01*
X153520980Y-92198238D02*
X153520980Y-92103000D01*
X153568600Y-92007761D01*
X153616219Y-91960142D01*
X153711457Y-91912523D01*
X153901933Y-91864904D01*
X154140028Y-91864904D01*
X154330504Y-91912523D01*
X154425742Y-91960142D01*
X154473361Y-92007761D01*
X154520980Y-92103000D01*
X154520980Y-92198238D01*
X154473361Y-92293476D01*
X154425742Y-92341095D01*
X154330504Y-92388714D01*
X154140028Y-92436333D01*
X153901933Y-92436333D01*
X153711457Y-92388714D01*
X153616219Y-92341095D01*
X153568600Y-92293476D01*
X153520980Y-92198238D01*
D15*
X174599600Y-126186000D02*
G75*
G03*
X174599600Y-126186000I-2032000J0D01*
G01*
X92303600Y-126186000D02*
G75*
G03*
X92303600Y-126186000I-2032000J0D01*
G01*
X92557600Y-72338000D02*
G75*
G03*
X92557600Y-72338000I-2032000J0D01*
G01*
X211176000Y-72338000D02*
G75*
G03*
X211176000Y-72338000I-2032000J0D01*
G01*
X211175600Y-126186000D02*
G75*
G03*
X211175600Y-126186000I-2032000J0D01*
G01*
D16*
X204378000Y-99576000D02*
X204378000Y-96916000D01*
X161138000Y-99576000D02*
X204378000Y-99576000D01*
X161138000Y-96916000D02*
X204378000Y-96916000D01*
X161138000Y-99576000D02*
X161138000Y-96916000D01*
X159868000Y-99576000D02*
X158538000Y-99576000D01*
X158538000Y-99576000D02*
X158538000Y-98246000D01*
X188884000Y-125110000D02*
X188884000Y-126440000D01*
X187554000Y-125110000D02*
X188884000Y-125110000D01*
X186284000Y-125110000D02*
X186284000Y-127770000D01*
X186284000Y-127770000D02*
X183684000Y-127770000D01*
X186284000Y-125110000D02*
X183684000Y-125110000D01*
X183684000Y-125110000D02*
X183684000Y-127770000D01*
X203870000Y-125110000D02*
X203870000Y-126440000D01*
X202540000Y-125110000D02*
X203870000Y-125110000D01*
X201270000Y-125110000D02*
X201270000Y-127770000D01*
X201270000Y-127770000D02*
X198670000Y-127770000D01*
X201270000Y-125110000D02*
X198670000Y-125110000D01*
X198670000Y-125110000D02*
X198670000Y-127770000D01*
X203870000Y-110124000D02*
X203870000Y-111454000D01*
X202540000Y-110124000D02*
X203870000Y-110124000D01*
X201270000Y-110124000D02*
X201270000Y-112784000D01*
X201270000Y-112784000D02*
X198670000Y-112784000D01*
X201270000Y-110124000D02*
X198670000Y-110124000D01*
X198670000Y-110124000D02*
X198670000Y-112784000D01*
X188884000Y-110124000D02*
X188884000Y-111454000D01*
X187554000Y-110124000D02*
X188884000Y-110124000D01*
X186284000Y-110124000D02*
X186284000Y-112784000D01*
X186284000Y-112784000D02*
X183684000Y-112784000D01*
X186284000Y-110124000D02*
X183684000Y-110124000D01*
X183684000Y-110124000D02*
X183684000Y-112784000D01*
X158538000Y-102624000D02*
X158538000Y-101294000D01*
X159868000Y-102624000D02*
X158538000Y-102624000D01*
X161138000Y-102624000D02*
X161138000Y-99964000D01*
X161138000Y-99964000D02*
X204378000Y-99964000D01*
X161138000Y-102624000D02*
X204378000Y-102624000D01*
X204378000Y-102624000D02*
X204378000Y-99964000D01*
X158538000Y-105672000D02*
X158538000Y-104342000D01*
X159868000Y-105672000D02*
X158538000Y-105672000D01*
X161138000Y-105672000D02*
X161138000Y-103012000D01*
X161138000Y-103012000D02*
X204378000Y-103012000D01*
X161138000Y-105672000D02*
X204378000Y-105672000D01*
X204378000Y-105672000D02*
X204378000Y-103012000D01*
X158538000Y-108720000D02*
X158538000Y-107390000D01*
X159868000Y-108720000D02*
X158538000Y-108720000D01*
X161138000Y-108720000D02*
X161138000Y-106060000D01*
X161138000Y-106060000D02*
X204378000Y-106060000D01*
X161138000Y-108720000D02*
X204378000Y-108720000D01*
X204378000Y-108720000D02*
X204378000Y-106060000D01*
G36*
X182728000Y-82548800D02*
G01*
X181864400Y-82548800D01*
X181864400Y-81939200D01*
X182728000Y-81939200D01*
X182728000Y-82548800D01*
G37*
G36*
X189941600Y-82548800D02*
G01*
X189078000Y-82548800D01*
X189078000Y-81939200D01*
X189941600Y-81939200D01*
X189941600Y-82548800D01*
G37*
D17*
X189078000Y-83133000D02*
X189078000Y-81355000D01*
X188824000Y-83387000D02*
X188443000Y-83387000D01*
X188824000Y-81101000D02*
X188443000Y-81101000D01*
X188316000Y-83260000D02*
X183490000Y-83260000D01*
X188316000Y-83260000D02*
X188443000Y-83387000D01*
X188316000Y-81228000D02*
X183490000Y-81228000D01*
X188316000Y-81228000D02*
X188443000Y-81101000D01*
X183490000Y-83260000D02*
X183363000Y-83387000D01*
X182982000Y-83387000D02*
X183363000Y-83387000D01*
X183490000Y-81228000D02*
X183363000Y-81101000D01*
X182982000Y-81101000D02*
X183363000Y-81101000D01*
X182728000Y-83133000D02*
X182728000Y-81355000D01*
X189078000Y-81355000D02*
G75*
G03*
X188824000Y-81101000I-254000J0D01*
G01*
X189078000Y-83133000D02*
G75*
G02*
X188824000Y-83387000I-254000J0D01*
G01*
X182982000Y-83387000D02*
G75*
G02*
X182728000Y-83133000I0J254000D01*
G01*
X182982000Y-81101000D02*
G75*
G03*
X182728000Y-81355000I0J-254000D01*
G01*
G36*
X189941600Y-86358800D02*
G01*
X189078000Y-86358800D01*
X189078000Y-85749200D01*
X189941600Y-85749200D01*
X189941600Y-86358800D01*
G37*
G36*
X182728000Y-86358800D02*
G01*
X181864400Y-86358800D01*
X181864400Y-85749200D01*
X182728000Y-85749200D01*
X182728000Y-86358800D01*
G37*
X182728000Y-85165000D02*
X182728000Y-86943000D01*
X182982000Y-84911000D02*
X183363000Y-84911000D01*
X182982000Y-87197000D02*
X183363000Y-87197000D01*
X183490000Y-85038000D02*
X188316000Y-85038000D01*
X183490000Y-85038000D02*
X183363000Y-84911000D01*
X183490000Y-87070000D02*
X188316000Y-87070000D01*
X183490000Y-87070000D02*
X183363000Y-87197000D01*
X188316000Y-85038000D02*
X188443000Y-84911000D01*
X188824000Y-84911000D02*
X188443000Y-84911000D01*
X188316000Y-87070000D02*
X188443000Y-87197000D01*
X188824000Y-87197000D02*
X188443000Y-87197000D01*
X189078000Y-85165000D02*
X189078000Y-86943000D01*
X182728000Y-86943000D02*
G75*
G03*
X182982000Y-87197000I254000J0D01*
G01*
X182728000Y-85165000D02*
G75*
G02*
X182982000Y-84911000I254000J0D01*
G01*
X188824000Y-84911000D02*
G75*
G02*
X189078000Y-85165000I0J-254000D01*
G01*
X188824000Y-87197000D02*
G75*
G03*
X189078000Y-86943000I0J254000D01*
G01*
D18*
X199161800Y-86816000D02*
X199161800Y-85292000D01*
X199796800Y-86816000D02*
X199796800Y-85292000D01*
D17*
X197333000Y-85419000D02*
G75*
G02*
X197841000Y-84911000I508000J0D01*
G01*
X197333000Y-86689000D02*
G75*
G03*
X197841000Y-87197000I508000J0D01*
G01*
X197841000Y-84911000D02*
X201143000Y-84911000D01*
X197333000Y-85419000D02*
X197333000Y-86689000D01*
X197841000Y-87197000D02*
X201143000Y-87197000D01*
X201143000Y-84911000D02*
G75*
G02*
X201651000Y-85419000I0J-508000D01*
G01*
X201143000Y-87197000D02*
G75*
G03*
X201651000Y-86689000I0J508000D01*
G01*
X201651000Y-85419000D02*
X201651000Y-86689000D01*
D19*
X190244000Y-78948000D02*
X184744000Y-78948000D01*
X184744000Y-78948000D02*
X182744000Y-78948000D01*
X182744000Y-78948000D02*
X177244000Y-78948000D01*
X177244000Y-73348000D02*
X180744000Y-73348000D01*
X180744000Y-73348000D02*
X181994000Y-73348000D01*
X181994000Y-73348000D02*
X185494000Y-73348000D01*
X185494000Y-73348000D02*
X186744000Y-73348000D01*
X186744000Y-73348000D02*
X190244000Y-73348000D01*
X184744000Y-78948000D02*
X184744000Y-77948000D01*
X184744000Y-77948000D02*
X182744000Y-77948000D01*
X182744000Y-77948000D02*
X182744000Y-78948000D01*
X186744000Y-73348000D02*
X186744000Y-74548000D01*
X186744000Y-74548000D02*
X180744000Y-74548000D01*
X180744000Y-74548000D02*
X180744000Y-73348000D01*
X185494000Y-73348000D02*
X185494000Y-70348000D01*
X185494000Y-70348000D02*
X181994000Y-70348000D01*
X181994000Y-70348000D02*
X181994000Y-73348000D01*
X190244000Y-78948000D02*
X190244000Y-77848000D01*
X190244000Y-73348000D02*
X190244000Y-74448000D01*
X177244000Y-78948000D02*
X177244000Y-77848000D01*
X177244000Y-73348000D02*
X177244000Y-74448000D01*
D16*
X181331000Y-122630000D02*
X180061000Y-122630000D01*
X181331000Y-121360000D02*
X181331000Y-122630000D01*
X179018071Y-113360000D02*
X178621000Y-113360000D01*
X179018071Y-114120000D02*
X178621000Y-114120000D01*
X169961000Y-113360000D02*
X175961000Y-113360000D01*
X169961000Y-114120000D02*
X169961000Y-113360000D01*
X175961000Y-114120000D02*
X169961000Y-114120000D01*
X178621000Y-115010000D02*
X175961000Y-115010000D01*
X179018071Y-115900000D02*
X178621000Y-115900000D01*
X179018071Y-116660000D02*
X178621000Y-116660000D01*
X169961000Y-115900000D02*
X175961000Y-115900000D01*
X169961000Y-116660000D02*
X169961000Y-115900000D01*
X175961000Y-116660000D02*
X169961000Y-116660000D01*
X178621000Y-117550000D02*
X175961000Y-117550000D01*
X179018071Y-118440000D02*
X178621000Y-118440000D01*
X179018071Y-119200000D02*
X178621000Y-119200000D01*
X169961000Y-118440000D02*
X175961000Y-118440000D01*
X169961000Y-119200000D02*
X169961000Y-118440000D01*
X175961000Y-119200000D02*
X169961000Y-119200000D01*
X178621000Y-120090000D02*
X175961000Y-120090000D01*
X178951000Y-120980000D02*
X178621000Y-120980000D01*
X178951000Y-121740000D02*
X178621000Y-121740000D01*
X175961000Y-121080000D02*
X169961000Y-121080000D01*
X175961000Y-121200000D02*
X169961000Y-121200000D01*
X175961000Y-121320000D02*
X169961000Y-121320000D01*
X175961000Y-121440000D02*
X169961000Y-121440000D01*
X175961000Y-121560000D02*
X169961000Y-121560000D01*
X175961000Y-121680000D02*
X169961000Y-121680000D01*
X169961000Y-120980000D02*
X175961000Y-120980000D01*
X169961000Y-121740000D02*
X169961000Y-120980000D01*
X175961000Y-121740000D02*
X169961000Y-121740000D01*
X175961000Y-122690000D02*
X178621000Y-122690000D01*
X175961000Y-112410000D02*
X175961000Y-122690000D01*
X178621000Y-112410000D02*
X175961000Y-112410000D01*
X178621000Y-122690000D02*
X178621000Y-112410000D01*
D11*
X156990380Y-98579333D02*
X157704666Y-98579333D01*
X157847523Y-98626952D01*
X157942761Y-98722190D01*
X157990380Y-98865047D01*
X157990380Y-98960285D01*
X157323714Y-97674571D02*
X157990380Y-97674571D01*
X156942761Y-97912666D02*
X157657047Y-98150761D01*
X157657047Y-97531714D01*
X206135219Y-113596904D02*
X206087600Y-113692142D01*
X205992361Y-113787380D01*
X205849504Y-113930238D01*
X205801885Y-114025476D01*
X205801885Y-114120714D01*
X206039980Y-114073095D02*
X205992361Y-114168333D01*
X205897123Y-114263571D01*
X205706647Y-114311190D01*
X205373314Y-114311190D01*
X205182838Y-114263571D01*
X205087600Y-114168333D01*
X205039980Y-114073095D01*
X205039980Y-113882619D01*
X205087600Y-113787380D01*
X205182838Y-113692142D01*
X205373314Y-113644523D01*
X205706647Y-113644523D01*
X205897123Y-113692142D01*
X205992361Y-113787380D01*
X206039980Y-113882619D01*
X206039980Y-114073095D01*
X206039980Y-113215952D02*
X205039980Y-113215952D01*
X205087600Y-111454047D02*
X205039980Y-111549285D01*
X205039980Y-111692142D01*
X205087600Y-111835000D01*
X205182838Y-111930238D01*
X205278076Y-111977857D01*
X205468552Y-112025476D01*
X205611409Y-112025476D01*
X205801885Y-111977857D01*
X205897123Y-111930238D01*
X205992361Y-111835000D01*
X206039980Y-111692142D01*
X206039980Y-111596904D01*
X205992361Y-111454047D01*
X205944742Y-111406428D01*
X205611409Y-111406428D01*
X205611409Y-111596904D01*
X206039980Y-110977857D02*
X205039980Y-110977857D01*
X206039980Y-110406428D01*
X205039980Y-110406428D01*
X206039980Y-109930238D02*
X205039980Y-109930238D01*
X205039980Y-109692142D01*
X205087600Y-109549285D01*
X205182838Y-109454047D01*
X205278076Y-109406428D01*
X205468552Y-109358809D01*
X205611409Y-109358809D01*
X205801885Y-109406428D01*
X205897123Y-109454047D01*
X205992361Y-109549285D01*
X206039980Y-109692142D01*
X206039980Y-109930238D01*
X206135219Y-127662142D02*
X206087600Y-127757380D01*
X205992361Y-127852619D01*
X205849504Y-127995476D01*
X205801885Y-128090714D01*
X205801885Y-128185952D01*
X206039980Y-128138333D02*
X205992361Y-128233571D01*
X205897123Y-128328809D01*
X205706647Y-128376428D01*
X205373314Y-128376428D01*
X205182838Y-128328809D01*
X205087600Y-128233571D01*
X205039980Y-128138333D01*
X205039980Y-127947857D01*
X205087600Y-127852619D01*
X205182838Y-127757380D01*
X205373314Y-127709761D01*
X205706647Y-127709761D01*
X205897123Y-127757380D01*
X205992361Y-127852619D01*
X206039980Y-127947857D01*
X206039980Y-128138333D01*
X206039980Y-127281190D02*
X205039980Y-127281190D01*
X206039980Y-126043095D02*
X205039980Y-126043095D01*
X205039980Y-125662142D01*
X205087600Y-125566904D01*
X205135219Y-125519285D01*
X205230457Y-125471666D01*
X205373314Y-125471666D01*
X205468552Y-125519285D01*
X205516171Y-125566904D01*
X205563790Y-125662142D01*
X205563790Y-126043095D01*
X206039980Y-124900238D02*
X205992361Y-124995476D01*
X205897123Y-125043095D01*
X205039980Y-125043095D01*
X205373314Y-124090714D02*
X206039980Y-124090714D01*
X205373314Y-124519285D02*
X205897123Y-124519285D01*
X205992361Y-124471666D01*
X206039980Y-124376428D01*
X206039980Y-124233571D01*
X205992361Y-124138333D01*
X205944742Y-124090714D01*
X205992361Y-123662142D02*
X206039980Y-123566904D01*
X206039980Y-123376428D01*
X205992361Y-123281190D01*
X205897123Y-123233571D01*
X205849504Y-123233571D01*
X205754266Y-123281190D01*
X205706647Y-123376428D01*
X205706647Y-123519285D01*
X205659028Y-123614523D01*
X205563790Y-123662142D01*
X205516171Y-123662142D01*
X205420933Y-123614523D01*
X205373314Y-123519285D01*
X205373314Y-123376428D01*
X205420933Y-123281190D01*
X156990380Y-101627333D02*
X157704666Y-101627333D01*
X157847523Y-101674952D01*
X157942761Y-101770190D01*
X157990380Y-101913047D01*
X157990380Y-102008285D01*
X156990380Y-101246380D02*
X156990380Y-100579714D01*
X157990380Y-101008285D01*
X156990380Y-104675333D02*
X157704666Y-104675333D01*
X157847523Y-104722952D01*
X157942761Y-104818190D01*
X157990380Y-104961047D01*
X157990380Y-105056285D01*
X156990380Y-103770571D02*
X156990380Y-103961047D01*
X157038000Y-104056285D01*
X157085619Y-104103904D01*
X157228476Y-104199142D01*
X157418952Y-104246761D01*
X157799904Y-104246761D01*
X157895142Y-104199142D01*
X157942761Y-104151523D01*
X157990380Y-104056285D01*
X157990380Y-103865809D01*
X157942761Y-103770571D01*
X157895142Y-103722952D01*
X157799904Y-103675333D01*
X157561809Y-103675333D01*
X157466571Y-103722952D01*
X157418952Y-103770571D01*
X157371333Y-103865809D01*
X157371333Y-104056285D01*
X157418952Y-104151523D01*
X157466571Y-104199142D01*
X157561809Y-104246761D01*
X156990380Y-107723333D02*
X157704666Y-107723333D01*
X157847523Y-107770952D01*
X157942761Y-107866190D01*
X157990380Y-108009047D01*
X157990380Y-108104285D01*
X156990380Y-106770952D02*
X156990380Y-107247142D01*
X157466571Y-107294761D01*
X157418952Y-107247142D01*
X157371333Y-107151904D01*
X157371333Y-106913809D01*
X157418952Y-106818571D01*
X157466571Y-106770952D01*
X157561809Y-106723333D01*
X157799904Y-106723333D01*
X157895142Y-106770952D01*
X157942761Y-106818571D01*
X157990380Y-106913809D01*
X157990380Y-107151904D01*
X157942761Y-107247142D01*
X157895142Y-107294761D01*
D20*
X178530265Y-82685279D02*
X177955741Y-83087446D01*
X178530265Y-83374708D02*
X177323765Y-83374708D01*
X177323765Y-82915089D01*
X177381218Y-82800184D01*
X177438670Y-82742732D01*
X177553575Y-82685279D01*
X177725932Y-82685279D01*
X177840837Y-82742732D01*
X177898289Y-82800184D01*
X177955741Y-82915089D01*
X177955741Y-83374708D01*
X177438670Y-82225660D02*
X177381218Y-82168208D01*
X177323765Y-82053303D01*
X177323765Y-81766041D01*
X177381218Y-81651136D01*
X177438670Y-81593684D01*
X177553575Y-81536232D01*
X177668479Y-81536232D01*
X177840837Y-81593684D01*
X178530265Y-82283112D01*
X178530265Y-81536232D01*
X185530867Y-82948547D02*
X184841439Y-82948547D01*
X185186153Y-82948547D02*
X185186153Y-81742047D01*
X185071248Y-81914404D01*
X184956344Y-82029309D01*
X184841439Y-82086761D01*
X186047939Y-82948547D02*
X186047939Y-81742047D01*
X186737367Y-82948547D02*
X186220296Y-82259119D01*
X186737367Y-81742047D02*
X186047939Y-82431476D01*
X178530265Y-85760887D02*
X177955741Y-86163053D01*
X178530265Y-86450315D02*
X177323765Y-86450315D01*
X177323765Y-85990696D01*
X177381218Y-85875791D01*
X177438670Y-85818339D01*
X177553575Y-85760887D01*
X177725932Y-85760887D01*
X177840837Y-85818339D01*
X177898289Y-85875791D01*
X177955741Y-85990696D01*
X177955741Y-86450315D01*
X178530265Y-84611839D02*
X178530265Y-85301267D01*
X178530265Y-84956553D02*
X177323765Y-84956553D01*
X177496122Y-85071458D01*
X177611027Y-85186363D01*
X177668479Y-85301267D01*
X185249260Y-86504547D02*
X184559832Y-86504547D01*
X184904546Y-86504547D02*
X184904546Y-85298047D01*
X184789641Y-85470404D01*
X184674736Y-85585309D01*
X184559832Y-85642761D01*
X185996141Y-85298047D02*
X186111046Y-85298047D01*
X186225951Y-85355500D01*
X186283403Y-85412952D01*
X186340855Y-85527857D01*
X186398308Y-85757666D01*
X186398308Y-86044928D01*
X186340855Y-86274738D01*
X186283403Y-86389642D01*
X186225951Y-86447095D01*
X186111046Y-86504547D01*
X185996141Y-86504547D01*
X185881236Y-86447095D01*
X185823784Y-86389642D01*
X185766332Y-86274738D01*
X185708879Y-86044928D01*
X185708879Y-85757666D01*
X185766332Y-85527857D01*
X185823784Y-85412952D01*
X185881236Y-85355500D01*
X185996141Y-85298047D01*
X186915379Y-86504547D02*
X186915379Y-85298047D01*
X187030284Y-86044928D02*
X187374998Y-86504547D01*
X187374998Y-85700214D02*
X186915379Y-86159833D01*
X195509242Y-86241279D02*
X195566695Y-86298732D01*
X195624147Y-86471089D01*
X195624147Y-86585993D01*
X195566695Y-86758351D01*
X195451790Y-86873255D01*
X195336885Y-86930708D01*
X195107076Y-86988160D01*
X194934719Y-86988160D01*
X194704909Y-86930708D01*
X194590004Y-86873255D01*
X194475100Y-86758351D01*
X194417647Y-86585993D01*
X194417647Y-86471089D01*
X194475100Y-86298732D01*
X194532552Y-86241279D01*
X194532552Y-85781660D02*
X194475100Y-85724208D01*
X194417647Y-85609303D01*
X194417647Y-85322041D01*
X194475100Y-85207136D01*
X194532552Y-85149684D01*
X194647457Y-85092232D01*
X194762361Y-85092232D01*
X194934719Y-85149684D01*
X195624147Y-85839112D01*
X195624147Y-85092232D01*
X203201814Y-87695732D02*
X204006147Y-87695732D01*
X202742195Y-87982993D02*
X203603980Y-88270255D01*
X203603980Y-87523374D01*
X203891242Y-87063755D02*
X203948695Y-87006303D01*
X204006147Y-87063755D01*
X203948695Y-87121208D01*
X203891242Y-87063755D01*
X204006147Y-87063755D01*
X202799647Y-86604136D02*
X202799647Y-85799803D01*
X204006147Y-86316874D01*
X203201814Y-84823112D02*
X204006147Y-84823112D01*
X203201814Y-85340184D02*
X203833790Y-85340184D01*
X203948695Y-85282732D01*
X204006147Y-85167827D01*
X204006147Y-84995470D01*
X203948695Y-84880565D01*
X203891242Y-84823112D01*
X203201814Y-84420946D02*
X203201814Y-83961327D01*
X204006147Y-84248589D02*
X202972004Y-84248589D01*
X202857100Y-84191136D01*
X202799647Y-84076232D01*
X202799647Y-83961327D01*
D21*
X175183195Y-77633452D02*
X175240647Y-77461095D01*
X175240647Y-77173833D01*
X175183195Y-77058928D01*
X175125742Y-77001476D01*
X175010838Y-76944023D01*
X174895933Y-76944023D01*
X174781028Y-77001476D01*
X174723576Y-77058928D01*
X174666123Y-77173833D01*
X174608671Y-77403642D01*
X174551219Y-77518547D01*
X174493766Y-77576000D01*
X174378861Y-77633452D01*
X174263957Y-77633452D01*
X174149052Y-77576000D01*
X174091600Y-77518547D01*
X174034147Y-77403642D01*
X174034147Y-77116381D01*
X174091600Y-76944023D01*
X174034147Y-76541857D02*
X175240647Y-76254595D01*
X174378861Y-76024785D01*
X175240647Y-75794976D01*
X174034147Y-75507714D01*
X175240647Y-74416119D02*
X175240647Y-75105547D01*
X175240647Y-74760833D02*
X174034147Y-74760833D01*
X174206504Y-74875738D01*
X174321409Y-74990642D01*
X174378861Y-75105547D01*
D11*
X182735600Y-117883285D02*
X182687980Y-117978523D01*
X182687980Y-118121380D01*
X182735600Y-118264238D01*
X182830838Y-118359476D01*
X182926076Y-118407095D01*
X183116552Y-118454714D01*
X183259409Y-118454714D01*
X183449885Y-118407095D01*
X183545123Y-118359476D01*
X183640361Y-118264238D01*
X183687980Y-118121380D01*
X183687980Y-118026142D01*
X183640361Y-117883285D01*
X183592742Y-117835666D01*
X183259409Y-117835666D01*
X183259409Y-118026142D01*
X183687980Y-117407095D02*
X182687980Y-117407095D01*
X182687980Y-117026142D01*
X182735600Y-116930904D01*
X182783219Y-116883285D01*
X182878457Y-116835666D01*
X183021314Y-116835666D01*
X183116552Y-116883285D01*
X183164171Y-116930904D01*
X183211790Y-117026142D01*
X183211790Y-117407095D01*
X183640361Y-116454714D02*
X183687980Y-116311857D01*
X183687980Y-116073761D01*
X183640361Y-115978523D01*
X183592742Y-115930904D01*
X183497504Y-115883285D01*
X183402266Y-115883285D01*
X183307028Y-115930904D01*
X183259409Y-115978523D01*
X183211790Y-116073761D01*
X183164171Y-116264238D01*
X183116552Y-116359476D01*
X183068933Y-116407095D01*
X182973695Y-116454714D01*
X182878457Y-116454714D01*
X182783219Y-116407095D01*
X182735600Y-116359476D01*
X182687980Y-116264238D01*
X182687980Y-116026142D01*
X182735600Y-115883285D01*
M02*
