<?xml version="1.0" standalone="no"?>
 <!DOCTYPE svg PUBLIC "-//W3C//DTD SVG 1.1//EN" 
 "http://www.w3.org/Graphics/SVG/1.1/DTD/svg11.dtd"> 
<svg
  xmlns:svg="http://www.w3.org/2000/svg"
  xmlns="http://www.w3.org/2000/svg"
  xmlns:xlink="http://www.w3.org/1999/xlink"
  version="1.1"
  width="13.469620cm" height="10.474960cm" viewBox="0 0 134696200 104749600">
<title>SVG Picture created as M5_board_bGeigieRaku V1.9-F_Fab.svg date 2021/03/20 20:38:29 </title>
  <desc>Picture generated by PCBNEW </desc>
<g style="fill:#000000; fill-opacity:1.000000;stroke:#000000; stroke-opacity:1.000000;
stroke-linecap:round; stroke-linejoin:round;"
 transform="translate(0 0) scale(1 1)">
</g>
<g style="fill:#000000; fill-opacity:0.0; 
stroke:#000000; stroke-width:0.000000; stroke-opacity:1; 
stroke-linecap:round; stroke-linejoin:round;">
</g>
<g style="fill:#848484; fill-opacity:0.0; 
stroke:#848484; stroke-width:0.000000; stroke-opacity:1; 
stroke-linecap:round; stroke-linejoin:round;">
</g>
<g style="fill:#848484; fill-opacity:0.0; 
stroke:#848484; stroke-width:150000.000000; stroke-opacity:1; 
stroke-linecap:round; stroke-linejoin:round;">
<text x="43400000.000000" y="51773680.000000"
textLength="1864286.000000" font-size="1333333.000000" lengthAdjust="spacingAndGlyphs"
text-anchor="middle" opacity="0">J1</text>
<g class="stroked-text"><desc>J1</desc>
<path d="M43066666 50726060
L43066666 51440346
L43019047 51583203
L42923809 51678441
L42780952 51726060
L42685714 51726060
" />
<path d="M44066666 51726060
L43495238 51726060
" />
<path d="M43780952 51726060
L43780952 50726060
L43685714 50868918
L43590476 50964156
L43495238 51011775
" />
</g><text x="10295000.000000" y="59945680.000000"
textLength="2195000.000000" font-size="1333333.000000" lengthAdjust="spacingAndGlyphs"
text-anchor="middle" opacity="0">H1</text>
<g class="stroked-text"><desc>H1</desc>
<path d="M9533095 59898060
L9533095 58898060
" />
<path d="M9533095 59374251
L10104523 59374251
" />
<path d="M10104523 59898060
L10104523 58898060
" />
<path d="M11104523 59898060
L10533095 59898060
" />
<path d="M10818809 59898060
L10818809 58898060
L10723571 59040918
L10628333 59136156
L10533095 59183775
" />
</g><text x="43425400.000000" y="51768680.000000"
textLength="1909286.000000" font-size="1333333.000000" lengthAdjust="spacingAndGlyphs"
text-anchor="middle" opacity="0">J1</text>
<g class="stroked-text"><desc>J1</desc>
<path d="M43092066 50721060
L43092066 51435346
L43044447 51578203
L42949209 51673441
L42806352 51721060
L42711114 51721060
" />
<path d="M44092066 51721060
L43520638 51721060
" />
<path d="M43806352 51721060
L43806352 50721060
L43711114 50863918
L43615876 50959156
L43520638 51006775
" />
</g><text x="128105400.000000" y="39498680.000000"
textLength="2861667.000000" font-size="1333333.000000" lengthAdjust="spacingAndGlyphs"
text-anchor="middle" opacity="0">J10</text>
<g class="stroked-text"><desc>J10</desc>
<path d="M127295876 38451060
L127295876 39165346
L127248257 39308203
L127153019 39403441
L127010161 39451060
L126914923 39451060
" />
<path d="M128295876 39451060
L127724447 39451060
" />
<path d="M128010161 39451060
L128010161 38451060
L127914923 38593918
L127819685 38689156
L127724447 38736775
" />
<path d="M128914923 38451060
L129010161 38451060
L129105400 38498680
L129153019 38546299
L129200638 38641537
L129248257 38832013
L129248257 39070108
L129200638 39260584
L129153019 39355822
L129105400 39403441
L129010161 39451060
L128914923 39451060
L128819685 39403441
L128772066 39355822
L128724447 39260584
L128676828 39070108
L128676828 38832013
L128724447 38641537
L128772066 38546299
L128819685 38498680
L128914923 38451060
" />
</g><text x="73050000.000000" y="21743680.000000"
textLength="3147381.000000" font-size="1333333.000000" lengthAdjust="spacingAndGlyphs"
text-anchor="middle" opacity="0">GPS</text>
<g class="stroked-text"><desc>GPS</desc>
<path d="M72335714 20743680
L72240476 20696060
L72097619 20696060
L71954761 20743680
L71859523 20838918
L71811904 20934156
L71764285 21124632
L71764285 21267489
L71811904 21457965
L71859523 21553203
L71954761 21648441
L72097619 21696060
L72192857 21696060
L72335714 21648441
L72383333 21600822
L72383333 21267489
L72192857 21267489
" />
<path d="M72811904 21696060
L72811904 20696060
L73192857 20696060
L73288095 20743680
L73335714 20791299
L73383333 20886537
L73383333 21029394
L73335714 21124632
L73288095 21172251
L73192857 21219870
L72811904 21219870
" />
<path d="M73764285 21648441
L73907142 21696060
L74145238 21696060
L74240476 21648441
L74288095 21600822
L74335714 21505584
L74335714 21410346
L74288095 21315108
L74240476 21267489
L74145238 21219870
L73954761 21172251
L73859523 21124632
L73811904 21077013
L73764285 20981775
L73764285 20886537
L73811904 20791299
L73859523 20743680
L73954761 20696060
L74192857 20696060
L74335714 20743680
" />
</g><g transform="rotate(-90.000000 73050000.000000 30363680.000000)">
<text x="73050000.000000" y="30863680.000000"
textLength="1909286.000000" font-size="1333333.000000" lengthAdjust="spacingAndGlyphs"
text-anchor="middle" opacity="0">J3</text>
</g>
<g class="stroked-text"><desc>J3</desc>
<path d="M72502380 30697013
L73216666 30697013
L73359523 30744632
L73454761 30839870
L73502380 30982727
L73502380 31077965
" />
<path d="M72502380 30316060
L72502380 29697013
L72883333 30030346
L72883333 29887489
L72930952 29792251
L72978571 29744632
L73073809 29697013
L73311904 29697013
L73407142 29744632
L73454761 29792251
L73502380 29887489
L73502380 30173203
L73454761 30268441
L73407142 30316060
" />
</g><text x="120287400.000000" y="22993680.000000"
textLength="2195000.000000" font-size="1333333.000000" lengthAdjust="spacingAndGlyphs"
text-anchor="middle" opacity="0">H8</text>
<g class="stroked-text"><desc>H8</desc>
<path d="M119525495 22946060
L119525495 21946060
" />
<path d="M119525495 22422251
L120096923 22422251
" />
<path d="M120096923 22946060
L120096923 21946060
" />
<path d="M120715971 22374632
L120620733 22327013
L120573114 22279394
L120525495 22184156
L120525495 22136537
L120573114 22041299
L120620733 21993680
L120715971 21946060
L120906447 21946060
L121001685 21993680
L121049304 22041299
L121096923 22136537
L121096923 22184156
L121049304 22279394
L121001685 22327013
L120906447 22374632
L120715971 22374632
L120620733 22422251
L120573114 22469870
L120525495 22565108
L120525495 22755584
L120573114 22850822
L120620733 22898441
L120715971 22946060
L120906447 22946060
L121001685 22898441
L121049304 22850822
L121096923 22755584
L121096923 22565108
L121049304 22469870
L121001685 22422251
L120906447 22374632
" />
</g><text x="91360000.000000" y="59945680.000000"
textLength="2195000.000000" font-size="1333333.000000" lengthAdjust="spacingAndGlyphs"
text-anchor="middle" opacity="0">H7</text>
<g class="stroked-text"><desc>H7</desc>
<path d="M90598095 59898060
L90598095 58898060
" />
<path d="M90598095 59374251
L91169523 59374251
" />
<path d="M91169523 59898060
L91169523 58898060
" />
<path d="M91550476 58898060
L92217142 58898060
L91788571 59898060
" />
</g><text x="128105400.000000" y="24512680.000000"
textLength="1909286.000000" font-size="1333333.000000" lengthAdjust="spacingAndGlyphs"
text-anchor="middle" opacity="0">J9</text>
<g class="stroked-text"><desc>J9</desc>
<path d="M127772066 23465060
L127772066 24179346
L127724447 24322203
L127629209 24417441
L127486352 24465060
L127391114 24465060
" />
<path d="M128295876 24465060
L128486352 24465060
L128581590 24417441
L128629209 24369822
L128724447 24226965
L128772066 24036489
L128772066 23655537
L128724447 23560299
L128676828 23512680
L128581590 23465060
L128391114 23465060
L128295876 23512680
L128248257 23560299
L128200638 23655537
L128200638 23893632
L128248257 23988870
L128295876 24036489
L128391114 24084108
L128581590 24084108
L128676828 24036489
L128724447 23988870
L128772066 23893632
" />
</g><text x="96650000.000000" y="42445580.000000"
textLength="1909286.000000" font-size="1333333.000000" lengthAdjust="spacingAndGlyphs"
text-anchor="middle" opacity="0">J7</text>
<g class="stroked-text"><desc>J7</desc>
<path d="M96316666 41397960
L96316666 42112246
L96269047 42255103
L96173809 42350341
L96030952 42397960
L95935714 42397960
" />
<path d="M96697619 41397960
L97364285 41397960
L96935714 42397960
" />
</g><text x="21750400.000000" y="11843680.000000"
textLength="2195000.000000" font-size="1333333.000000" lengthAdjust="spacingAndGlyphs"
text-anchor="middle" opacity="0">H4</text>
<g class="stroked-text"><desc>H4</desc>
<path d="M20988495 11796060
L20988495 10796060
" />
<path d="M20988495 11272251
L21559923 11272251
" />
<path d="M21559923 11796060
L21559923 10796060
" />
<path d="M22464685 11129394
L22464685 11796060
" />
<path d="M22226590 10748441
L21988495 11462727
L22607542 11462727
" />
</g><text x="91160000.000000" y="5953680.000000"
textLength="2195000.000000" font-size="1333333.000000" lengthAdjust="spacingAndGlyphs"
text-anchor="middle" opacity="0">H9</text>
<g class="stroked-text"><desc>H9</desc>
<path d="M90398095 5906060
L90398095 4906060
" />
<path d="M90398095 5382251
L90969523 5382251
" />
<path d="M90969523 5906060
L90969523 4906060
" />
<path d="M91493333 5906060
L91683809 5906060
L91779047 5858441
L91826666 5810822
L91921904 5667965
L91969523 5477489
L91969523 5096537
L91921904 5001299
L91874285 4953680
L91779047 4906060
L91588571 4906060
L91493333 4953680
L91445714 5001299
L91398095 5096537
L91398095 5334632
L91445714 5429870
L91493333 5477489
L91588571 5525108
L91779047 5525108
L91874285 5477489
L91921904 5429870
L91969523 5334632
" />
</g><text x="112950000.000000" y="24483680.000000"
textLength="1909286.000000" font-size="1333333.000000" lengthAdjust="spacingAndGlyphs"
text-anchor="middle" opacity="0">J4</text>
<g class="stroked-text"><desc>J4</desc>
<path d="M112616666 23436060
L112616666 24150346
L112569047 24293203
L112473809 24388441
L112330952 24436060
L112235714 24436060
" />
<path d="M113521428 23769394
L113521428 24436060
" />
<path d="M113283333 23388441
L113045238 24102727
L113664285 24102727
" />
</g><g transform="rotate(-90.000000 126450400.000000 31383680.000000)">
<text x="126450400.000000" y="31883680.000000"
textLength="1909286.000000" font-size="1333333.000000" lengthAdjust="spacingAndGlyphs"
text-anchor="middle" opacity="0">J2</text>
</g>
<g class="stroked-text"><desc>J2</desc>
<path d="M125902780 31717013
L126617066 31717013
L126759923 31764632
L126855161 31859870
L126902780 32002727
L126902780 32097965
" />
<path d="M125998019 31288441
L125950400 31240822
L125902780 31145584
L125902780 30907489
L125950400 30812251
L125998019 30764632
L126093257 30717013
L126188495 30717013
L126331352 30764632
L126902780 31336060
L126902780 30717013
" />
</g><text x="79070000.000000" y="13857680.000000"
textLength="7337857.000000" font-size="1333333.000000" lengthAdjust="spacingAndGlyphs"
text-anchor="middle" opacity="0">IRFR9024</text>
<g class="stroked-text"><desc>IRFR9024</desc>
<path d="M75736666 13810060
L75736666 12810060
" />
<path d="M76784285 13810060
L76450952 13333870
" />
<path d="M76212857 13810060
L76212857 12810060
L76593809 12810060
L76689047 12857680
L76736666 12905299
L76784285 13000537
L76784285 13143394
L76736666 13238632
L76689047 13286251
L76593809 13333870
L76212857 13333870
" />
<path d="M77546190 13286251
L77212857 13286251
" />
<path d="M77212857 13810060
L77212857 12810060
L77689047 12810060
" />
<path d="M78641428 13810060
L78308095 13333870
" />
<path d="M78070000 13810060
L78070000 12810060
L78450952 12810060
L78546190 12857680
L78593809 12905299
L78641428 13000537
L78641428 13143394
L78593809 13238632
L78546190 13286251
L78450952 13333870
L78070000 13333870
" />
<path d="M79117619 13810060
L79308095 13810060
L79403333 13762441
L79450952 13714822
L79546190 13571965
L79593809 13381489
L79593809 13000537
L79546190 12905299
L79498571 12857680
L79403333 12810060
L79212857 12810060
L79117619 12857680
L79070000 12905299
L79022380 13000537
L79022380 13238632
L79070000 13333870
L79117619 13381489
L79212857 13429108
L79403333 13429108
L79498571 13381489
L79546190 13333870
L79593809 13238632
" />
<path d="M80212857 12810060
L80308095 12810060
L80403333 12857680
L80450952 12905299
L80498571 13000537
L80546190 13191013
L80546190 13429108
L80498571 13619584
L80450952 13714822
L80403333 13762441
L80308095 13810060
L80212857 13810060
L80117619 13762441
L80070000 13714822
L80022380 13619584
L79974761 13429108
L79974761 13191013
L80022380 13000537
L80070000 12905299
L80117619 12857680
L80212857 12810060
" />
<path d="M80927142 12905299
L80974761 12857680
L81070000 12810060
L81308095 12810060
L81403333 12857680
L81450952 12905299
L81498571 13000537
L81498571 13095775
L81450952 13238632
L80879523 13810060
L81498571 13810060
" />
<path d="M82355714 13143394
L82355714 13810060
" />
<path d="M82117619 12762441
L81879523 13476727
L82498571 13476727
" />
</g><text x="79070000.000000" y="18527680.000000"
textLength="2195000.000000" font-size="1333333.000000" lengthAdjust="spacingAndGlyphs"
text-anchor="middle" opacity="0">Q2</text>
<g class="stroked-text"><desc>Q2</desc>
<path d="M78974761 18575299
L78879523 18527680
L78784285 18432441
L78641428 18289584
L78546190 18241965
L78450952 18241965
" />
<path d="M78498571 18480060
L78403333 18432441
L78308095 18337203
L78260476 18146727
L78260476 17813394
L78308095 17622918
L78403333 17527680
L78498571 17480060
L78689047 17480060
L78784285 17527680
L78879523 17622918
L78927142 17813394
L78927142 18146727
L78879523 18337203
L78784285 18432441
L78689047 18480060
L78498571 18480060
" />
<path d="M79308095 17575299
L79355714 17527680
L79450952 17480060
L79689047 17480060
L79784285 17527680
L79831904 17575299
L79879523 17670537
L79879523 17765775
L79831904 17908632
L79260476 18480060
L79879523 18480060
" />
</g><text x="103086400.000000" y="24512680.000000"
textLength="1909286.000000" font-size="1333333.000000" lengthAdjust="spacingAndGlyphs"
text-anchor="middle" opacity="0">J8</text>
<g class="stroked-text"><desc>J8</desc>
<path d="M102753066 23465060
L102753066 24179346
L102705447 24322203
L102610209 24417441
L102467352 24465060
L102372114 24465060
" />
<path d="M103372114 23893632
L103276876 23846013
L103229257 23798394
L103181638 23703156
L103181638 23655537
L103229257 23560299
L103276876 23512680
L103372114 23465060
L103562590 23465060
L103657828 23512680
L103705447 23560299
L103753066 23655537
L103753066 23703156
L103705447 23798394
L103657828 23846013
L103562590 23893632
L103372114 23893632
L103276876 23941251
L103229257 23988870
L103181638 24084108
L103181638 24274584
L103229257 24369822
L103276876 24417441
L103372114 24465060
L103562590 24465060
L103657828 24417441
L103705447 24369822
L103753066 24274584
L103753066 24084108
L103705447 23988870
L103657828 23941251
L103562590 23893632
" />
</g><text x="95850000.000000" y="18357680.000000"
textLength="1195000.000000" font-size="1333333.000000" lengthAdjust="spacingAndGlyphs"
text-anchor="middle" opacity="0">K</text>
<g class="stroked-text"><desc>K</desc>
<path d="M95588095 18310060
L95588095 17310060
" />
<path d="M96159523 18310060
L95730952 17738632
" />
<path d="M96159523 17310060
L95588095 17881489
" />
</g><text x="90380000.000000" y="16257680.000000"
textLength="2147381.000000" font-size="1333333.000000" lengthAdjust="spacingAndGlyphs"
text-anchor="middle" opacity="0">D2</text>
<g class="stroked-text"><desc>D2</desc>
<path d="M89641904 16210060
L89641904 15210060
L89880000 15210060
L90022857 15257680
L90118095 15352918
L90165714 15448156
L90213333 15638632
L90213333 15781489
L90165714 15971965
L90118095 16067203
L90022857 16162441
L89880000 16210060
L89641904 16210060
" />
<path d="M90594285 15305299
L90641904 15257680
L90737142 15210060
L90975238 15210060
L91070476 15257680
L91118095 15305299
L91165714 15400537
L91165714 15495775
L91118095 15638632
L90546666 16210060
L91165714 16210060
" />
</g><text x="103086400.000000" y="39498680.000000"
textLength="2861667.000000" font-size="1333333.000000" lengthAdjust="spacingAndGlyphs"
text-anchor="middle" opacity="0">J11</text>
<g class="stroked-text"><desc>J11</desc>
<path d="M102276876 38451060
L102276876 39165346
L102229257 39308203
L102134019 39403441
L101991161 39451060
L101895923 39451060
" />
<path d="M103276876 39451060
L102705447 39451060
" />
<path d="M102991161 39451060
L102991161 38451060
L102895923 38593918
L102800685 38689156
L102705447 38736775
" />
<path d="M104229257 39451060
L103657828 39451060
" />
<path d="M103943542 39451060
L103943542 38451060
L103848304 38593918
L103753066 38689156
L103657828 38736775
" />
</g><text x="128410000.000000" y="5953680.000000"
textLength="3147381.000000" font-size="1333333.000000" lengthAdjust="spacingAndGlyphs"
text-anchor="middle" opacity="0">H10</text>
<g class="stroked-text"><desc>H10</desc>
<path d="M127171904 5906060
L127171904 4906060
" />
<path d="M127171904 5382251
L127743333 5382251
" />
<path d="M127743333 5906060
L127743333 4906060
" />
<path d="M128743333 5906060
L128171904 5906060
" />
<path d="M128457619 5906060
L128457619 4906060
L128362380 5048918
L128267142 5144156
L128171904 5191775
" />
<path d="M129362380 4906060
L129457619 4906060
L129552857 4953680
L129600476 5001299
L129648095 5096537
L129695714 5287013
L129695714 5525108
L129648095 5715584
L129600476 5810822
L129552857 5858441
L129457619 5906060
L129362380 5906060
L129267142 5858441
L129219523 5810822
L129171904 5715584
L129124285 5525108
L129124285 5287013
L129171904 5096537
L129219523 5001299
L129267142 4953680
L129362380 4906060
" />
</g><text x="10295000.000000" y="5953680.000000"
textLength="2195000.000000" font-size="1333333.000000" lengthAdjust="spacingAndGlyphs"
text-anchor="middle" opacity="0">H2</text>
<g class="stroked-text"><desc>H2</desc>
<path d="M9533095 5906060
L9533095 4906060
" />
<path d="M9533095 5382251
L10104523 5382251
" />
<path d="M10104523 5906060
L10104523 4906060
" />
<path d="M10533095 5001299
L10580714 4953680
L10675952 4906060
L10914047 4906060
L11009285 4953680
L11056904 5001299
L11104523 5096537
L11104523 5191775
L11056904 5334632
L10485476 5906060
L11104523 5906060
" />
</g><text x="21880000.000000" y="55573680.000000"
textLength="2195000.000000" font-size="1333333.000000" lengthAdjust="spacingAndGlyphs"
text-anchor="middle" opacity="0">H6</text>
<g class="stroked-text"><desc>H6</desc>
<path d="M21118095 55526060
L21118095 54526060
" />
<path d="M21118095 55002251
L21689523 55002251
" />
<path d="M21689523 55526060
L21689523 54526060
" />
<path d="M22594285 54526060
L22403809 54526060
L22308571 54573680
L22260952 54621299
L22165714 54764156
L22118095 54954632
L22118095 55335584
L22165714 55430822
L22213333 55478441
L22308571 55526060
L22499047 55526060
L22594285 55478441
L22641904 55430822
L22689523 55335584
L22689523 55097489
L22641904 55002251
L22594285 54954632
L22499047 54907013
L22308571 54907013
L22213333 54954632
L22165714 55002251
L22118095 55097489
" />
</g><text x="127978400.000000" y="59945680.000000"
textLength="2195000.000000" font-size="1333333.000000" lengthAdjust="spacingAndGlyphs"
text-anchor="middle" opacity="0">H5</text>
<g class="stroked-text"><desc>H5</desc>
<path d="M127216495 59898060
L127216495 58898060
" />
<path d="M127216495 59374251
L127787923 59374251
" />
<path d="M127787923 59898060
L127787923 58898060
" />
<path d="M128740304 58898060
L128264114 58898060
L128216495 59374251
L128264114 59326632
L128359352 59279013
L128597447 59279013
L128692685 59326632
L128740304 59374251
L128787923 59469489
L128787923 59707584
L128740304 59802822
L128692685 59850441
L128597447 59898060
L128359352 59898060
L128264114 59850441
L128216495 59802822
" />
</g></g>
<g style="fill:#848484; fill-opacity:0.0; 
stroke:#848484; stroke-width:100000.000000; stroke-opacity:1; 
stroke-linecap:round; stroke-linejoin:round;">
<path d="M24350000 48733680
L62450000 48733680
" />
<path d="M62450000 48733680
L62450000 53813680
" />
<path d="M24350000 52543680
L24350000 48733680
" />
<path d="M25620000 53813680
L24350000 52543680
" />
<path d="M62450000 53813680
L25620000 53813680
" />
</g>
<g style="fill:#848484; fill-opacity:0.0; 
stroke:#848484; stroke-width:609600.000000; stroke-opacity:1; 
stroke-linecap:round; stroke-linejoin:round;">
<path d="M110325400 15757680
L109309400 15757680
" />
<path d="M100165400 15757680
L101181400 15757680
" />
</g>
<g style="fill:#848484; fill-opacity:0.0; 
stroke:#848484; stroke-width:100000.000000; stroke-opacity:1; 
stroke-linecap:round; stroke-linejoin:round;">
<path d="M58345400 54868680
L58345400 53808680
" />
<path d="M58985400 54868680
L58345400 54868680
" />
<path d="M38665400 54868680
L38025400 54868680
" />
<path d="M55805400 54868680
L55805400 53808680
" />
<path d="M60885400 54868680
L60885400 53808680
" />
<path d="M38665400 48728680
L38665400 47668680
" />
<path d="M40565400 54868680
L40565400 53808680
" />
<path d="M61525400 53808680
L61525400 54868680
" />
<path d="M33585400 48728680
L33585400 47668680
" />
<path d="M46285400 54868680
L45645400 54868680
" />
<path d="M61525400 48728680
L61525400 47668680
" />
<path d="M28505400 47668680
L27865400 47668680
" />
<path d="M53265400 47668680
L53265400 48728680
" />
<path d="M48185400 54868680
L48185400 53808680
" />
<path d="M41205400 53808680
L41205400 54868680
" />
<path d="M61525400 47668680
L60885400 47668680
" />
<path d="M53905400 48728680
L53905400 47668680
" />
<path d="M25965400 48728680
L25965400 47668680
" />
<path d="M61525400 54868680
L60885400 54868680
" />
<path d="M51365400 47668680
L50725400 47668680
" />
<path d="M24375400 53808680
L24375400 48728680
" />
<path d="M51365400 54868680
L50725400 54868680
" />
<path d="M53905400 53808680
L53905400 54868680
" />
<path d="M45645400 54868680
L45645400 53808680
" />
<path d="M53265400 54868680
L53265400 53808680
" />
<path d="M41205400 54868680
L40565400 54868680
" />
<path d="M48825400 47668680
L48185400 47668680
" />
<path d="M38025400 54868680
L38025400 53808680
" />
<path d="M48825400 53808680
L48825400 54868680
" />
<path d="M31045400 48728680
L31045400 47668680
" />
<path d="M48825400 48728680
L48825400 47668680
" />
<path d="M43745400 53808680
L43745400 54868680
" />
<path d="M24375400 48728680
L61525400 48728680
" />
<path d="M48185400 47668680
L48185400 48728680
" />
<path d="M58985400 47668680
L58345400 47668680
" />
<path d="M25325400 54868680
L25325400 53808680
" />
<path d="M58985400 53808680
L58985400 54868680
" />
<path d="M53905400 47668680
L53265400 47668680
" />
<path d="M43745400 48728680
L43745400 47668680
" />
<path d="M46285400 47668680
L45645400 47668680
" />
<path d="M27865400 47668680
L27865400 48728680
" />
<path d="M41205400 48728680
L41205400 47668680
" />
<path d="M38665400 47668680
L38025400 47668680
" />
<path d="M31045400 54868680
L30405400 54868680
" />
<path d="M55805400 47668680
L55805400 48728680
" />
<path d="M25325400 47668680
L25325400 48728680
" />
<path d="M41205400 47668680
L40565400 47668680
" />
<path d="M43105400 47668680
L43105400 48728680
" />
<path d="M43105400 54868680
L43105400 53808680
" />
<path d="M32945400 47668680
L32945400 48728680
" />
<path d="M28505400 48728680
L28505400 47668680
" />
<path d="M31045400 53808680
L31045400 54868680
" />
<path d="M36125400 47668680
L35485400 47668680
" />
<path d="M36125400 54868680
L35485400 54868680
" />
<path d="M60885400 47668680
L60885400 48728680
" />
<path d="M45645400 47668680
L45645400 48728680
" />
<path d="M25965400 54868680
L25325400 54868680
" />
<path d="M36125400 53808680
L36125400 54868680
" />
<path d="M30405400 54868680
L30405400 53808680
" />
<path d="M33585400 53808680
L33585400 54868680
" />
<path d="M32945400 54868680
L32945400 53808680
" />
<path d="M35485400 47668680
L35485400 48728680
" />
<path d="M56445400 47668680
L55805400 47668680
" />
<path d="M46285400 53808680
L46285400 54868680
" />
<path d="M43745400 54868680
L43105400 54868680
" />
<path d="M25965400 53808680
L25965400 54868680
" />
<path d="M38025400 47668680
L38025400 48728680
" />
<path d="M51365400 48728680
L51365400 47668680
" />
<path d="M56445400 54868680
L55805400 54868680
" />
<path d="M33585400 47668680
L32945400 47668680
" />
<path d="M43745400 47668680
L43105400 47668680
" />
<path d="M28505400 53808680
L28505400 54868680
" />
<path d="M58345400 47668680
L58345400 48728680
" />
<path d="M53905400 54868680
L53265400 54868680
" />
<path d="M33585400 54868680
L32945400 54868680
" />
<path d="M50725400 54868680
L50725400 53808680
" />
<path d="M51365400 53808680
L51365400 54868680
" />
<path d="M62475400 53808680
L24375400 53808680
" />
<path d="M25965400 47668680
L25325400 47668680
" />
<path d="M31045400 47668680
L30405400 47668680
" />
<path d="M58985400 48728680
L58985400 47668680
" />
<path d="M30405400 47668680
L30405400 48728680
" />
<path d="M46285400 48728680
L46285400 47668680
" />
<path d="M35485400 54868680
L35485400 53808680
" />
<path d="M48825400 54868680
L48185400 54868680
" />
<path d="M38665400 53808680
L38665400 54868680
" />
<path d="M56445400 53808680
L56445400 54868680
" />
<path d="M36125400 48728680
L36125400 47668680
" />
<path d="M28505400 54868680
L27865400 54868680
" />
<path d="M40565400 47668680
L40565400 48728680
" />
<path d="M56445400 48728680
L56445400 47668680
" />
<path d="M61525400 48728680
L62475400 49678680
" />
<path d="M27865400 54868680
L27865400 53808680
" />
<path d="M50725400 47668680
L50725400 48728680
" />
<path d="M62475400 49678680
L62475400 53808680
" />
<path d="M130010400 37728680
L130645400 38363680
" />
<path d="M130645400 38363680
L130645400 40268680
" />
<path d="M125565400 37728680
L130010400 37728680
" />
<path d="M130645400 40268680
L125565400 40268680
" />
<path d="M125565400 40268680
L125565400 37728680
" />
<path d="M74320000 37983680
L72415000 37983680
" />
<path d="M71780000 37348680
L71780000 22743680
" />
<path d="M74320000 22743680
L74320000 37983680
" />
<path d="M71780000 22743680
L74320000 22743680
" />
<path d="M72415000 37983680
L71780000 37348680
" />
</g>
<g style="fill:#848484; fill-opacity:0.0; 
stroke:#848484; stroke-width:127000.000000; stroke-opacity:1; 
stroke-linecap:round; stroke-linejoin:round;">
<path d="M109586400 11361680
L109586400 7961680
" />
<path d="M96586400 11361680
L96586400 7961680
" />
</g>
<g style="fill:#848484; fill-opacity:0.0; 
stroke:#848484; stroke-width:152400.000000; stroke-opacity:1; 
stroke-linecap:round; stroke-linejoin:round;">
<path d="M119795400 15518680
L118830200 15518680
" />
<path d="M117255400 15518680
L118195200 15518680
" />
</g>
<g style="fill:#848484; fill-opacity:0.0; 
stroke:#848484; stroke-width:100000.000000; stroke-opacity:1; 
stroke-linecap:round; stroke-linejoin:round;">
<path d="M125565400 22742680
L130010400 22742680
" />
<path d="M130010400 22742680
L130645400 23377680
" />
<path d="M125565400 25282680
L125565400 22742680
" />
<path d="M130645400 23377680
L130645400 25282680
" />
<path d="M130645400 25282680
L125565400 25282680
" />
<path d="M83950000 42580580
L83950000 40675580
" />
<path d="M109350000 43215580
L84585000 43215580
" />
<path d="M83950000 40675580
L109350000 40675580
" />
<path d="M109350000 40675580
L109350000 43215580
" />
<path d="M84585000 43215580
L83950000 42580580
" />
<path d="M80090000 41073680
L79455000 41708680
" />
<path d="M79455000 41708680
L77550000 41708680
" />
<path d="M77550000 36628680
L80090000 36628680
" />
<path d="M80090000 36628680
L80090000 41073680
" />
<path d="M77550000 41708680
L77550000 36628680
" />
</g>
<g style="fill:#848484; fill-opacity:0.0; 
stroke:#848484; stroke-width:609600.000000; stroke-opacity:1; 
stroke-linecap:round; stroke-linejoin:round;">
<path d="M100165400 19567680
L101181400 19567680
" />
<path d="M110325400 19567680
L109309400 19567680
" />
</g>
<g style="fill:#848484; fill-opacity:0.0; 
stroke:#848484; stroke-width:100000.000000; stroke-opacity:1; 
stroke-linecap:round; stroke-linejoin:round;">
<path d="M116760000 25253680
L109775000 25253680
" />
<path d="M116760000 22713680
L116760000 25253680
" />
<path d="M109140000 24618680
L109140000 22713680
" />
<path d="M109775000 25253680
L109140000 24618680
" />
<path d="M109140000 22713680
L116760000 22713680
" />
<path d="M127720400 35193680
L125180400 35193680
" />
<path d="M125815400 27573680
L127720400 27573680
" />
<path d="M127720400 27573680
L127720400 35193680
" />
<path d="M125180400 35193680
L125180400 28208680
" />
<path d="M125180400 28208680
L125815400 27573680
" />
<path d="M82360000 14607680
L75780000 14607680
" />
<path d="M82360000 16907680
L82360000 14607680
" />
<path d="M75780000 16907680
L82360000 16907680
" />
<path d="M82360000 16407680
L75780000 16407680
" />
<path d="M75780000 14607680
L75780000 16907680
" />
<path d="M105626400 25282680
L100546400 25282680
" />
<path d="M100546400 22742680
L104991400 22742680
" />
<path d="M104991400 22742680
L105626400 23377680
" />
<path d="M105626400 23377680
L105626400 25282680
" />
<path d="M100546400 25282680
L100546400 22742680
" />
<path d="M88170000 14407680
L88170000 17107680
" />
<path d="M88170000 17107680
L93370000 17107680
" />
<path d="M93370000 17107680
L93370000 14407680
" />
<path d="M93370000 14407680
L88170000 14407680
" />
<path d="M92590000 17107680
L92590000 14407680
" />
<path d="M85690000 15757680
L88170000 15757680
" />
<path d="M95850000 15757680
L93370000 15757680
" />
<path d="M92490000 17107680
L92490000 14407680
" />
<path d="M92690000 17107680
L92690000 14407680
" />
<path d="M105626400 40268680
L100546400 40268680
" />
<path d="M104991400 37728680
L105626400 38363680
" />
<path d="M100546400 37728680
L104991400 37728680
" />
<path d="M105626400 38363680
L105626400 40268680
" />
<path d="M100546400 40268680
L100546400 37728680
" />
<g >
</g>
<g >
</g>
<g >
</g>
<g >
</g>
<g >
</g>
<g >
</g>
<g >
</g>
<g >
</g>
<g >
</g>
<g >
</g>
<g >
</g>
<g >
</g>
<g >
</g>
<g >
</g>
<g >
</g>
<g >
</g>
<g >
</g>
<g >
</g>
<g >
</g>
<g >
</g>
<g >
</g>
<g >
</g>
<g >
</g>
<g >
</g>
<g >
</g>
<g >
</g>
<g >
</g>
<g >
</g>
<g >
</g>
<g >
</g>
<g >
</g>
<g >
</g>
<g >
</g>
</g>
<g style="fill:#000000; fill-opacity:0.0; 
stroke:#000000; stroke-width:100000.000000; stroke-opacity:1; 
stroke-linecap:round; stroke-linejoin:round;">
</g>
<g style="fill:#C2C200; fill-opacity:0.0; 
stroke:#C2C200; stroke-width:100000.000000; stroke-opacity:1; 
stroke-linecap:round; stroke-linejoin:round;">
</g>
<g style="fill:#C2C200; fill-opacity:0.0; 
stroke:#C2C200; stroke-width:358429.000000; stroke-opacity:1; 
stroke-linecap:round; stroke-linejoin:round;">
<path d="M93940942 64769088
L89281815 64769088
" />
<path d="M126046462 333968
L126479272 429779
" />
<path d="M132695963 12638820
L132618440 12762298
" />
<path d="M94977027 343480
L95120994 384689
" />
<path d="M132115020 13500858
L131678722 14274112
" />
<path d="M5729542 3711757
L6005348 3378235
" />
<path d="M42865805 64726062
L42717521 64702574
" />
<path d="M86235515 1325107
L87012185 865066
" />
<path d="M112265443 179290
L124264497 179290
" />
<path d="M59848004 2575198
L60733517 2352456
" />
<path d="M49296310 430194
L49437316 479948
" />
<path d="M76507763 62540675
L75643591 62830012
" />
<path d="M6925704 62493845
L6604305 62199836
" />
<path d="M87963935 437851
L88105367 389118
" />
<path d="M132618409 52091873
L132696836 52214992
" />
<path d="M64834559 64468941
L64695234 64414996
" />
<path d="M9117075 1020975
L9519512 843366
" />
<path d="M43314576 64769088
L43164467 64759367
" />
<path d="M5470373 4057059
L5729542 3711757
" />
<path d="M132640920 5541974
L132806073 5935794
" />
<path d="M111375741 304490
L111521010 269314
" />
<path d="M4614540 5542201
L4799927 5156711
" />
<path d="M4005849 7580509
L4082745 7160376
" />
<path d="M81946264 62154905
L81035541 62058457
" />
<path d="M133289206 11018080
L133264624 11160118
" />
<path d="M132695933 38763530
L132618409 38887008
" />
<path d="M124264481 64769241
L112265443 64769241
" />
<path d="M26169570 64563369
L26025797 64605073
" />
<path d="M95542903 64412958
L95403666 64467208
" />
<path d="M132899767 26476444
L132963788 26607604
" />
<path d="M49009790 343480
L49153757 384689
" />
<path d="M41996693 437851
L42138125 389118
" />
<path d="M4352175 38380250
L4292768 38248281
" />
<path d="M4614691 59406924
L4449533 59013100
" />
<path d="M6650839 47239044
L6751526 46366664
" />
<path d="M106700772 2352456
L107566601 2069436
" />
<path d="M36864387 2575198
L37749901 2352456
" />
<path d="M6751532 44611986
L6650851 43739599
" />
<path d="M88245713 64605337
L88101742 64564159
" />
<path d="M133119950 11718582
L133072443 11855134
" />
<path d="M109219136 1325105
L109995805 865066
" />
<path d="M84595642 62830029
L83731488 62540692
" />
<path d="M103090794 2875392
L104005252 2837302
" />
<path d="M26170136 384689
L26312689 430194
" />
<path d="M95263547 430194
L95404552 479948
" />
<path d="M66298203 64769088
L66148094 64759367
" />
<path d="M4897264 25602360
L5140580 25228432
" />
<path d="M81035541 62058457
L80119642 62026306
" />
<path d="M26866086 654235
L26999561 720514
" />
<path d="M72559292 64412958
L72420056 64467208
" />
<path d="M43014832 64745009
L42865805 64726062
" />
<path d="M79193101 2850665
L80107171 2875398
" />
<path d="M133324104 36856698
L133309039 37000035
" />
<path d="M112115331 64759519
L111965694 64745161
" />
<path d="M133072725 6745621
L133172776 7160242
" />
<path d="M4182869 58203272
L4082808 57788653
" />
<path d="M108417535 63183815
L107579251 62830182
" />
<path d="M132905198 52598006
L132965675 52729750
" />
<path d="M3952845 56943470
L3924389 56514293
" />
<path d="M131678705 24455283
L132115010 25228560
" />
<path d="M133334336 28141250
L133334336 36712905
" />
<path d="M31418947 2610183
L32317188 2762469
" />
<path d="M130329896 2455083
L130651298 2749092
" />
<path d="M132950285 58611520
L132806129 59012943
" />
<path d="M71701770 274142
L71848161 306616
" />
<path d="M130772529 48101576
L131007457 48949189
" />
<path d="M111088996 389123
L111231729 344547
" />
<path d="M52657426 2110781
L53519766 2393165
" />
<path d="M12991039 179290
L24990083 179290
" />
<path d="M95543876 533904
L95681384 592016
" />
<path d="M77392628 62315636
L76507763 62540675
" />
<path d="M132769347 12513089
L132695963 12638820
" />
<path d="M132769317 38637800
L132695933 38763530
" />
<path d="M131007472 22824483
L131309526 23652272
" />
<path d="M4187553 37979086
L4141571 37842182
" />
<path d="M3991007 27569162
L4020274 27427966
" />
<path d="M79203741 62058451
L78293012 62154895
" />
<path d="M50114001 64157041
L49982443 64226664
" />
<path d="M12991043 64769119
L12539410 64766225
" />
<path d="M72697765 592016
L72833323 654235
" />
<path d="M35979016 62154905
L35068293 62058457
" />
<path d="M130651564 62199657
L130330180 62493680
" />
<path d="M26025797 64605073
L25880745 64642402
" />
<path d="M3974441 37141004
L3952961 36998561
" />
<path d="M71406086 222556
L71554367 246107
" />
<path d="M133264624 11160118
L133235358 11301315
" />
<path d="M131678722 14274112
L131309546 15077104
" />
<path d="M71107430 189101
L71257063 203539
" />
<path d="M72420932 479948
L72560256 533904
" />
<path d="M93940942 179290
L94091050 189101
" />
<path d="M8724399 63731685
L8341510 63517387
" />
<path d="M128138487 63927922
L127736053 64105508
" />
<path d="M124264573 179397
L124716196 182353
" />
<path d="M4417071 26344058
L4486263 26216203
" />
<path d="M132114994 39625571
L131678700 40398825
" />
<path d="M49153757 384689
L49296310 430194
" />
<path d="M4005892 57368488
L3952845 56943470
" />
<path d="M3921253 36712753
L3921253 28141067
" />
<path d="M3952961 36998561
L3935261 36855757
" />
<path d="M70957330 64769088
L66298207 64769088
" />
<path d="M27259721 865066
L28030576 1347368
" />
<path d="M130504054 20242007
L130604736 21114394
" />
<path d="M72560256 533904
L72697765 592016
" />
<path d="M26452812 64467222
L26311947 64517386
" />
<path d="M49295567 64517374
L49153190 64563358
" />
<path d="M33225853 2850660
L34139923 2875392
" />
<path d="M132838513 38509945
L132769317 38637800
" />
<path d="M71257063 203539
L71406086 222556
" />
<path d="M24990083 179290
L25140191 189101
" />
<path d="M132358334 25602500
L132618440 25967147
" />
<path d="M89281823 64769088
L89131714 64759367
" />
<path d="M4234972 11991691
L4186361 11855800
" />
<path d="M95262801 64517374
L95120424 64563358
" />
<path d="M131249976 3378000
L131525805 3711514
" />
<path d="M87141071 64158087
L87012177 64083816
" />
<path d="M6604305 62199836
L6297374 61891965
" />
<path d="M5946068 41201717
L5576892 40398702
" />
<path d="M110389409 64294825
L110255942 64228541
" />
<path d="M11647727 64688353
L11209123 64614761
" />
<path d="M87012177 865066
L87277056 731246
" />
<path d="M133263231 53694237
L133287757 53836336
" />
<path d="M133288075 27565383
L133311020 27707520
" />
<path d="M41305078 64228389
L41173831 64158087
" />
<path d="M64701437 546348
L64840202 490382
" />
<path d="M133201458 11441544
L133162972 11580676
" />
<path d="M66298196 179290
L70957322 179290
" />
<path d="M6483029 21976810
L6650838 21114342
" />
<path d="M130604735 43739653
L130504049 44612033
" />
<path d="M4054175 27287738
L4092660 27148608
" />
<path d="M88831605 215047
L88980515 196682
" />
<path d="M104929871 62155058
L104019147 62058610
" />
<path d="M65553757 269311
L65700262 239377
" />
<path d="M25587128 246107
L25734531 274142
" />
<path d="M111231729 344547
L111375741 304490
" />
<path d="M71701775 64675253
L71554514 64703544
" />
<path d="M25880745 64642402
L25734529 64675259
" />
<path d="M52659969 62830012
L51821664 63183648
" />
<path d="M4305352 58611652
L4182869 58203272
" />
<path d="M4235126 26739085
L4291453 26605627
" />
<path d="M43164467 64759367
L43014832 64745009
" />
<path d="M9117417 63927961
L8724399 63731685
" />
<path d="M66146969 184642
L66298196 179290
" />
<path d="M4020274 27427966
L4054175 27287738
" />
<path d="M87272320 64228389
L87141071 64158087
" />
<path d="M74805285 63183648
L73998019 63601582
" />
<path d="M71847990 64642394
L71701775 64675253
" />
<path d="M4417073 52468722
L4486264 52340867
" />
<path d="M4637167 12762115
L4555633 12640133
" />
<path d="M59863012 62315650
L58962638 62154905
" />
<path d="M110524963 64357043
L110389409 64294825
" />
<path d="M47973702 179290
L48123811 189101
" />
<path d="M54409005 62315636
L53524140 62540675
" />
<path d="M6650851 43739599
L6483047 42877121
" />
<path d="M130772558 16752475
L130604748 17614944
" />
<path d="M4486263 26216203
L4559645 26090473
" />
<path d="M129286437 63285654
L128914402 63517302
" />
<path d="M64564040 605388
L64701437 546348
" />
<path d="M132358340 13126932
L132115020 13500858
" />
<path d="M130604736 21114394
L130772542 21976872
" />
<path d="M130772542 21976872
L131007472 22824483
" />
<path d="M51821664 63183648
L51014399 63601582
" />
<path d="M4346909 12257915
L4288398 12125801
" />
<path d="M131678685 50579995
L132114985 51353278
" />
<path d="M49576640 533904
L49714149 592016
" />
<path d="M3921253 10588027
L3921253 8867156
" />
<path d="M110531292 605394
L110668690 546355
" />
<path d="M4799927 5156711
L5004843 4780228
" />
<path d="M3921249 8867233
L3924378 8434630
" />
<path d="M78284436 2762473
L79193101 2850665
" />
<path d="M41580423 605388
L41717821 546348
" />
<path d="M105815259 2575198
L106700772 2352456
" />
<path d="M5004843 4780228
L5228566 4413447
" />
<path d="M56220117 62058451
L55309388 62154895
" />
<path d="M5946046 23652183
L6248098 22824409
" />
<path d="M133334336 36712905
L133324104 36856698
" />
<path d="M3931498 54121969
L3946572 53978632
" />
<path d="M4486264 52340867
L4559645 52215137
" />
<path d="M133222279 27284945
L133258337 27424515
" />
<path d="M5576893 14273999
L5140592 13500720
" />
<path d="M6297374 61891965
L6005634 61570924
" />
<path d="M124716250 64766362
L124264558 64769271
" />
<path d="M133311020 27707520
L133326696 27850897
" />
<path d="M72279927 430194
L72420932 479948
" />
<path d="M25587267 64703548
L25439075 64727172
" />
<path d="M87685061 546348
L87823825 490382
" />
<path d="M109224775 63601744
L108417535 63183815
" />
<path d="M128914075 1431517
L129286116 1663153
" />
<path d="M111815231 215049
L111964140 196683
" />
<path d="M55309388 62154895
L54409005 62315636
" />
<path d="M63251880 1325105
L64028550 865066
" />
<path d="M48864544 306616
L49009790 343480
" />
<path d="M94389706 222556
L94537986 246107
" />
<path d="M49153190 64563358
L49009417 64605063
" />
<path d="M4449533 59013100
L4305352 58611652
" />
<path d="M40268267 1325105
L41044938 865066
" />
<path d="M28030576 1347368
L28836944 1762394
" />
<path d="M64028554 865066
L64293432 731246
" />
<path d="M4082808 57788653
L4005892 57368488
" />
<path d="M4186361 11855800
L4142297 11718341
" />
<path d="M132618409 38887008
L132358311 39251643
" />
<path d="M125607864 260331
L126046462 333968
" />
<path d="M39456859 1726773
L40268267 1325105
" />
<path d="M87405790 64294672
L87272320 64228389
" />
<path d="M4006141 11157133
L3980784 11015060
" />
<path d="M4800102 59792429
L4614691 59406924
" />
<path d="M73097621 64157041
L72966064 64226664
" />
<path d="M49983183 720514
L50114442 790807
" />
<path d="M75643591 62830012
L74805285 63183648
" />
<path d="M5005042 60168923
L4800102 59792429
" />
<path d="M78293012 62154895
L77392628 62315636
" />
<path d="M95681384 592016
L95816943 654235
" />
<path d="M3921253 54265762
L3931498 54121969
" />
<path d="M41856585 490382
L41996693 437851
" />
<path d="M98627195 62830164
L97788889 63183800
" />
<path d="M73226968 64083816
L73097621 64157041
" />
<path d="M130651298 2749092
L130958233 3056961
" />
<path d="M26865169 64292600
L26729539 64354732
" />
<path d="M11209123 64614761
L10776310 64518989
" />
<path d="M132455512 5156473
L132640920 5541974
" />
<path d="M94537986 246107
L94685389 274142
" />
<path d="M51014399 63601582
L50243348 64083816
" />
<path d="M130504060 18487326
L130470495 19364665
" />
<path d="M133234208 53552930
L133263231 53694237
" />
<path d="M48718149 64675253
L48570887 64703544
" />
<path d="M96981443 1347368
L97787811 1762394
" />
<path d="M132806073 5935794
L132950249 6337241
" />
<path d="M64840202 490382
L64980311 437851
" />
<path d="M129646894 63037372
L129286437 63285654
" />
<path d="M95120994 384689
L95263547 430194
" />
<path d="M8341510 63517387
L7969473 63285762
" />
<path d="M4092660 27148608
L4135680 27010703
" />
<path d="M10776056 429729
L11208906 333890
" />
<path d="M41044938 64083816
L40273916 63601592
" />
<path d="M26729539 64354732
L26592048 64412971
" />
<path d="M85424107 1726778
L86235515 1325107
" />
<path d="M125164201 209562
L125607864 260331
" />
<path d="M133200688 53412557
L133234208 53552930
" />
<path d="M133249673 57368467
L133172780 57788589
" />
<path d="M41309816 731246
L41580423 605388
" />
<path d="M97787811 1762394
L98624675 2110781
" />
<path d="M127324634 685154
L127735740 843332
" />
<path d="M48123811 189101
L48273444 203539
" />
<path d="M95404552 479948
L95543876 533904
" />
<path d="M87818177 64468941
L87678852 64414996
" />
<path d="M53524140 62540675
L52659969 62830012
" />
<path d="M133120162 53135192
L133162672 53273263
" />
<path d="M64422172 64294672
L64288703 64228389
" />
<path d="M127324932 64263686
L126905846 64401763
" />
<path d="M26592048 64412971
L26452812 64467222
" />
<path d="M35068293 62058457
L34152394 62026306
" />
<path d="M30536148 2393165
L31418947 2610183
" />
<path d="M12091396 64739072
L11647727 64688353
" />
<path d="M132618440 12762298
L132358340 13126932
" />
<path d="M72136815 64563358
L71993042 64605063
" />
<path d="M4416232 38510252
L4352175 38380250
" />
<path d="M109995805 865066
L110260683 731251
" />
<path d="M3946572 53978632
L3966427 53835879
" />
<path d="M128138164 1020914
L128531184 1217207
" />
<path d="M64293432 731246
L64564040 605388
" />
<path d="M25289824 203539
L25438848 222556
" />
<path d="M30540516 62540675
L29676344 62830012
" />
<path d="M85433925 63183663
L84595642 62830029
" />
<path d="M6751532 18487278
L6650851 17614891
" />
<path d="M80119642 62026306
L79203741 62058451
" />
<path d="M5946069 15077011
L5576893 14273999
" />
<path d="M35054380 2837302
L35964208 2737025
" />
<path d="M6483030 48101511
L6650839 47239044
" />
<path d="M133072743 58203171
L132950285 58611520
" />
<path d="M111667514 239380
L111815231 215049
" />
<path d="M10776310 64518989
L10350010 64401729
" />
<path d="M49982443 64226664
L49848791 64292589
" />
<path d="M5140592 39625420
L4897270 39251477
" />
<path d="M4102511 11579531
L4066736 11439583
" />
<path d="M95949676 64226664
L95816024 64292589
" />
<path d="M4559645 52215137
L4637167 52091659
" />
<path d="M48422695 64727169
L48273689 64746033
" />
<path d="M131309546 15077104
L131007491 15904877
" />
<path d="M5228566 4413447
L5470373 4057059
" />
<path d="M108407729 1726773
L109219136 1325105
" />
<path d="M42138125 389118
L42280857 344542
" />
<path d="M51014195 1347368
L51820563 1762394
" />
<path d="M4082745 7160376
L4182786 6745786
" />
<path d="M27259725 64083816
L27130378 64157046
" />
<path d="M42570138 269311
L42716642 239377
" />
<path d="M110255942 64228541
L110124696 64158240
" />
<path d="M88392112 304486
L88537382 269311
" />
<path d="M101268058 2762469
L102176723 2850660
" />
<path d="M111668380 64702726
L111520971 64674744
" />
<path d="M26998821 64226673
L26865169 64292600
" />
<path d="M132964167 12123662
L132903499 12255381
" />
<path d="M131309509 49776980
L131678685 50579995
" />
<path d="M4054182 53412410
L4092667 53273278
" />
<path d="M89130595 184642
L89281823 179290
" />
<path d="M72696783 64354719
L72559292 64412958
" />
<path d="M42716642 239377
L42864360 215047
" />
<path d="M81931456 2737032
L82831636 2575205
" />
<path d="M98624675 2110781
L99487016 2393165
" />
<path d="M131250198 61570723
L130958477 61891773
" />
<path d="M47973702 64769088
L43314580 64769088
" />
<path d="M129286116 1663153
L129646582 1911421
" />
<path d="M31425381 62315636
L30540516 62540675
" />
<path d="M60747862 62540692
L59863012 62315650
" />
<path d="M103103248 62026458
L102187346 62058604
" />
<path d="M133334260 56081802
L133331136 56514381
" />
<path d="M101276617 62155047
L100376233 62315788
" />
<path d="M41717821 546348
L41856585 490382
" />
<path d="M94831599 64642394
L94685384 64675253
" />
<path d="M73226968 865066
L73997823 1347368
" />
<path d="M132903499 12255381
L132838542 12385233
" />
<path d="M65849432 64726062
L65701148 64702574
" />
<path d="M6248100 48949108
L6483030 48101511
" />
<path d="M34139923 2875392
L35054380 2837302
" />
<path d="M132358311 39251643
L132114994 39625571
" />
<path d="M133331153 8434622
L133334275 8867278
" />
<path d="M124716196 182353
L125164201 209562
" />
<path d="M100369816 2610183
L101268058 2762469
" />
<path d="M41173831 64158087
L41044938 64083816
" />
<path d="M10350010 64401729
L9930945 64263676
" />
<path d="M133289190 37142788
L133264607 37284828
" />
<path d="M3999787 37282925
L3974441 37141004
" />
<path d="M133080929 26874321
L133133101 27009818
" />
<path d="M86241164 63601592
L85433925 63183663
" />
<path d="M65264476 344542
L65408488 304486
" />
<path d="M97788889 63183800
L96981624 63601735
" />
<path d="M125608031 64688453
L125164316 64739192
" />
<path d="M38628394 62830029
L37764240 62540692
" />
<path d="M48570887 64703544
L48422695 64727169
" />
<path d="M58962638 62154905
L58051916 62058457
" />
<path d="M48123986 64760038
L47973702 64769088
" />
<path d="M4449406 5936005
L4614540 5542201
" />
<path d="M3931495 27997279
L3946568 27853947
" />
<path d="M133119927 37843295
L133072418 37979847
" />
<path d="M131526004 61237199
L131250198 61570723
" />
<path d="M133072418 37979847
L133020473 38114917
" />
<path d="M27130378 64157046
L26998821 64226673
" />
<path d="M71848161 306616
L71993407 343480
" />
<path d="M4410773 12387818
L4346909 12257915
" />
<path d="M133180376 27146703
L133222279 27284945
" />
<path d="M127736053 64105508
L127324932 64263686
" />
<path d="M12539410 64766225
L12091396 64739072
" />
<path d="M132832745 26346788
L132899767 26476444
" />
<path d="M6297071 3057186
L6603986 2749303
" />
<path d="M133162950 37705389
L133119927 37843295
" />
<path d="M111085354 64564311
L110942798 64518830
" />
<path d="M6650838 21114342
L6751525 20241959
" />
<path d="M4183185 26874153
L4235126 26739085
" />
<path d="M3924378 8434630
L3952819 8005492
" />
<path d="M132806129 59012943
L132640997 59406746
" />
<path d="M64157455 64158087
L64028561 64083816
" />
<path d="M133021662 52863292
L133073158 52998487
" />
<path d="M36879389 62315650
L35979016 62154905
" />
<path d="M133307784 53979083
L133323311 54122334
" />
<path d="M5140581 51353127
L5576875 50579872
" />
<path d="M7609011 63037500
L7260847 62773297
" />
<path d="M7969118 1663288
L8341156 1431629
" />
<path d="M4897264 51727054
L5140581 51353127
" />
<path d="M48273689 64746033
L48123986 64760038
" />
<path d="M88683887 239377
L88831605 215047
" />
<path d="M80107171 2875398
L81021629 2837308
" />
<path d="M35964208 2737025
L36864387 2575198
" />
<path d="M133302714 8005435
L133331153 8434622
" />
<path d="M12091273 209430
L12539344 182195
" />
<path d="M65847980 215047
L65996889 196682
" />
<path d="M133162672 53273263
L133200688 53412557
" />
<path d="M81021629 2837308
L81931456 2737032
" />
<path d="M3921253 56081619
L3921253 54265762
" />
<path d="M65998459 64745009
L65849432 64726062
" />
<path d="M41438547 64294672
L41305078 64228389
" />
<path d="M25439075 64727172
L25290070 64746034
" />
<path d="M7969473 63285762
L7609011 63037500
" />
<path d="M28838039 63183648
L28030774 63601582
" />
<path d="M4292768 38248281
L4237923 38114506
" />
<path d="M6785090 19364620
L6751532 18487278
" />
<path d="M28030774 63601582
L27259723 64083816
" />
<path d="M6751526 46366664
L6785090 45489326
" />
<path d="M72279192 64517374
L72136815 64563358
" />
<path d="M72833323 654235
L72966798 720514
" />
<path d="M110947564 437858
L111088996 389123
" />
<path d="M6483047 42877121
L6248119 42029509
" />
<path d="M61612015 62830029
L60747862 62540692
" />
<path d="M58037997 2837302
L58947825 2737025
" />
<path d="M131007457 48949189
L131309509 49776980
" />
<path d="M84582979 2069441
L85424107 1726778
" />
<path d="M4352118 26473909
L4417071 26344058
" />
<path d="M26730527 592016
L26866086 654235
" />
<path d="M95816024 64292589
L95680394 64354719
" />
<path d="M54402565 2610183
L55300806 2762469
" />
<path d="M38615731 2069436
L39456859 1726773
" />
<path d="M56209470 2850660
L57123540 2875392
" />
<path d="M4092667 53273278
L4135686 53135372
" />
<path d="M132250698 60168720
L132026976 60535504
" />
<path d="M3966427 53835879
L3991013 53693839
" />
<path d="M34152394 62026306
L33236493 62058451
" />
<path d="M5729807 61237406
L5470618 60892104
" />
<path d="M27130819 790807
L27259725 865066
" />
<path d="M130470495 19364665
L130504054 20242007
" />
<path d="M111521010 269314
L111667514 239380
" />
<path d="M126905846 64401763
L126479519 64519045
" />
<path d="M64975566 64518678
L64834559 64468941
" />
<path d="M25140191 189101
L25289824 203539
" />
<path d="M5470618 60892104
L5228788 60535712
" />
<path d="M126905571 547072
L127324634 685154
" />
<path d="M132696836 52214992
L132770777 52340483
" />
<path d="M48570749 246107
L48718152 274142
" />
<path d="M65996889 196682
L66146969 184642
" />
<path d="M42864360 215047
L43013270 196682
" />
<path d="M89131714 64759367
L88982079 64745009
" />
<path d="M32317188 2762469
L33225853 2850660
" />
<path d="M4142297 11718341
L4102511 11579531
" />
<path d="M42570113 64674592
L42423717 64642163
" />
<path d="M126479272 429779
L126905571 547072
" />
<path d="M5140592 13500720
L4897270 13126779
" />
<path d="M5576875 50579872
L5946048 49776881
" />
<path d="M94240683 203539
L94389706 222556
" />
<path d="M41711608 64414996
L41574101 64356891
" />
<path d="M6925371 2455279
L7260503 2175806
" />
<path d="M57123540 2875392
L58037997 2837302
" />
<path d="M63257537 63601592
L62450298 63183663
" />
<path d="M104915079 2737025
L105815259 2575198
" />
<path d="M42423717 64642163
L42278466 64605337
" />
<path d="M43163349 184642
L43314576 179290
" />
<path d="M65118122 64564159
L64975566 64518678
" />
<path d="M72966064 64226664
L72832412 64292589
" />
<path d="M49437316 479948
L49576640 533904
" />
<path d="M9930945 64263676
L9519840 64105523
" />
<path d="M110668690 546355
L110807454 490388
" />
<path d="M3966421 27711198
L3991007 27569162
" />
<path d="M132763195 26218668
L132832745 26346788
" />
<path d="M7260847 62773297
L6925704 62493845
" />
<path d="M133324119 10731998
L133309055 10875331
" />
<path d="M96981624 63601735
L96210572 64083969
" />
<path d="M3980784 11015060
L3958362 10872708
" />
<path d="M25880923 306616
L26026169 343480
" />
<path d="M100376233 62315788
L99491367 62540827
" />
<path d="M6248098 22824409
L6483029 21976810
" />
<path d="M60733517 2352456
L61599346 2069436
" />
<path d="M3958362 10872708
L3921253 10588027
" />
<path d="M87823825 490382
L87963935 437851
" />
<path d="M133287757 53836336
L133307784 53979083
" />
<path d="M32325764 62154895
L31425381 62315636
" />
<path d="M110260683 731251
L110531292 605394
" />
<path d="M41574101 64356891
L41438547 64294672
" />
<path d="M5228788 60535712
L5005042 60168923
" />
<path d="M42717521 64702574
L42570113 64674592
" />
<path d="M3952819 8005492
L4005849 7580509
" />
<path d="M102176723 2850660
L103090794 2875392
" />
<path d="M94685384 64675253
L94538123 64703544
" />
<path d="M6005348 3378235
L6297071 3057186
" />
<path d="M111964140 196683
L112114218 184643
" />
<path d="M94685389 274142
L94831781 306616
" />
<path d="M26311947 64517386
L26169570 64563369
" />
<path d="M128914402 63517302
L128531511 63731622
" />
<path d="M126479519 64519045
L126046673 64614840
" />
<path d="M75641055 2110783
L76503395 2393168
" />
<path d="M3924389 56514293
L3921249 56081649
" />
<path d="M4034702 11298712
L4006141 11157133
" />
<path d="M61599346 2069436
L62440473 1726773
" />
<path d="M94831781 306616
L94977027 343480
" />
<path d="M29676344 62830012
L28838039 63183648
" />
<path d="M6005634 61570924
L5729807 61237406
" />
<path d="M77386195 2610186
L78284436 2762473
" />
<path d="M133249680 7580411
L133302714 8005435
" />
<path d="M4480258 12515295
L4410773 12387818
" />
<path d="M94976651 64605063
L94831599 64642394
" />
<path d="M4485025 38638128
L4416232 38510252
" />
<path d="M128531511 63731622
L128138487 63927922
" />
<path d="M4141571 37842182
L4099891 37703952
" />
<path d="M133264607 37284828
L133235340 37426027
" />
<path d="M131525805 3711514
L131784997 4056811
" />
<path d="M49848791 64292589
L49713160 64354719
" />
<path d="M71993407 343480
L72137374 384689
" />
<path d="M133334351 10588210
L133324119 10731998
" />
<path d="M132114985 51353278
L132358306 51727221
" />
<path d="M111520971 64674744
L111374575 64642316
" />
<path d="M71257316 64746033
L71107614 64760038
" />
<path d="M94538123 64703544
L94389931 64727169
" />
<path d="M64695234 64414996
L64557727 64356891
" />
<path d="M133334336 54265945
L133334336 56081832
" />
<path d="M4135680 27010703
L4183185 26874153
" />
<path d="M130504043 46366712
L130604725 47239099
" />
<path d="M102187346 62058604
L101276617 62155047
" />
<path d="M48422468 222556
L48570749 246107
" />
<path d="M25140367 64760038
L24990083 64769088
" />
<path d="M87541345 64356891
L87405790 64294672
" />
<path d="M71554514 64703544
L71406322 64727169
" />
<path d="M42424869 304486
L42570138 269311
" />
<path d="M132618409 25967147
L132763195 26218668
" />
<path d="M65553740 64674592
L65407344 64642163
" />
<path d="M48273444 203539
L48422468 222556
" />
<path d="M131784997 4056811
L132026827 4413199
" />
<path d="M133309055 10875331
L133289206 11018080
" />
<path d="M132770777 52340483
L132840231 52468202
" />
<path d="M4020281 53552640
L4054182 53412410
" />
<path d="M132903470 38380093
L132838513 38509945
" />
<path d="M133235340 37426027
L133201438 37566257
" />
<path d="M133334351 8867340
L133334351 10588210
" />
<path d="M131309526 23652272
L131678705 24455283
" />
<path d="M133172780 57788589
L133072743 58203171
" />
<path d="M33236493 62058451
L32325764 62154895
" />
<path d="M130504049 44612033
L130470485 45489372
" />
<path d="M130604748 17614944
L130504060 18487326
" />
<path d="M4182786 6745786
L4305247 6337431
" />
<path d="M132026827 4413199
L132250573 4779983
" />
<path d="M72420056 64467208
L72279192 64517374
" />
<path d="M4291457 52730292
L4352121 52598574
" />
<path d="M4637167 38886855
L4558641 38763716
" />
<path d="M87959185 64518678
L87818177 64468941
" />
<path d="M95816943 654235
L95950418 720514
" />
<path d="M4099891 37703952
L4062425 37564560
" />
<path d="M6248119 42029509
L5946068 41201717
" />
<path d="M72966798 720514
L73098055 790807
" />
<path d="M129646582 1911421
L129994749 2175628
" />
<path d="M104019147 62058610
L103103248 62026458
" />
<path d="M4237923 38114506
L4187553 37979086
" />
<path d="M4066736 11439583
L4034702 11298712
" />
<path d="M9519512 843366
L9930636 685160
" />
<path d="M11208906 333890
L11647553 260226
" />
<path d="M129994749 2175628
L130329896 2455083
" />
<path d="M88537382 269311
L88683887 239377
" />
<path d="M132115010 25228560
L132358334 25602500
" />
<path d="M4897270 13126779
L4637167 12762130
" />
<path d="M9930636 685160
L10349725 547050
" />
<path d="M26593019 533904
L26730527 592016
" />
<path d="M132964140 38248375
L132903470 38380093
" />
<path d="M89281815 179290
L93940942 179290
" />
<path d="M65408488 304486
L65553757 269311
" />
<path d="M110801791 64469094
L110662468 64415149
" />
<path d="M41991939 64518678
L41850932 64468941
" />
<path d="M49849708 654235
L49983183 720514
" />
<path d="M71107614 64760038
L70957330 64769088
" />
<path d="M4029085 37424163
L3999787 37282925
" />
<path d="M133024333 26740239
L133080929 26874321
" />
<path d="M132838542 12385233
L132769347 12513089
" />
<path d="M5576892 40398702
L5140592 39625420
" />
<path d="M132950249 6337241
L133072725 6745621
" />
<path d="M132840231 52468202
L132905198 52598006
" />
<path d="M133302699 56943500
L133249673 57368467
" />
<path d="M4135686 53135372
L4183190 52998820
" />
<path d="M73998019 63601582
L73226968 64083816
" />
<path d="M64028558 64083816
L63257537 63601592
" />
<path d="M49714149 592016
L49849708 654235
" />
<path d="M6483048 16752413
L6248120 15904801
" />
<path d="M4897270 39251477
L4637167 38886825
" />
<path d="M132250573 4779983
L132455512 5156473
" />
<path d="M4288398 12125801
L4234972 11991691
" />
<path d="M26026169 343480
L26170136 384689
" />
<path d="M7608660 1911578
L7969118 1663288
" />
<path d="M43013270 196682
L43163349 184642
" />
<path d="M26999561 720514
L27130819 790807
" />
<path d="M53519766 2393165
L54402565 2610183
" />
<path d="M130958233 3056961
L131249976 3378000
" />
<path d="M130470485 45489372
L130504043 46366712
" />
<path d="M94389931 64727169
L94240926 64746033
" />
<path d="M12539344 182195
L12991043 179214
" />
<path d="M4637167 52091689
L4897264 51727054
" />
<path d="M133020498 11990203
L132964167 12123662
" />
<path d="M110662468 64415149
L110524963 64357043
" />
<path d="M96081675 790807
L96210580 865066
" />
<path d="M133172776 7160242
L133249680 7580411
" />
<path d="M131309526 41201817
L131007474 42029589
" />
<path d="M110942798 64518830
L110801791 64469094
" />
<path d="M11647553 260226
L12091273 209430
" />
<path d="M3946568 27853947
L3966421 27711198
" />
<path d="M132455612 59792236
L132250698 60168720
" />
<path d="M6785090 45489326
L6751532 44611986
" />
<path d="M73997823 1347368
L74804191 1762395
" />
<path d="M6603986 2749303
L6925371 2455279
" />
<path d="M49009417 64605063
L48864364 64642394
" />
<path d="M96210580 64083816
L96081233 64157041
" />
<path d="M58051916 62058457
L57136017 62026306
" />
<path d="M88101742 64564159
L87959185 64518678
" />
<path d="M42280857 344542
L42424869 304486
" />
<path d="M130604725 47239099
L130772529 48101576
" />
<path d="M133309039 37000035
L133289190 37142788
" />
<path d="M83731488 62540692
L82846638 62315650
" />
<path d="M130958477 61891773
L130651564 62199657
" />
<path d="M83717149 2352462
L84582979 2069441
" />
<path d="M132358306 51727221
L132618409 52091873
" />
<path d="M41850932 64468941
L41711608 64414996
" />
<path d="M55300806 2762469
L56209470 2850660
" />
<path d="M107579251 62830182
L106715096 62540844
" />
<path d="M132026976 60535504
L131785171 60891895
" />
<path d="M37764240 62540692
L36879389 62315650
" />
<path d="M106715096 62540844
L105830245 62315803
" />
<path d="M4235130 52863751
L4291457 52730292
" />
<path d="M71993042 64605063
L71847990 64642394
" />
<path d="M66148094 64759367
L65998459 64745009
" />
<path d="M109995797 64083969
L109224775 63601744
" />
<path d="M7260503 2175806
L7608660 1911578
" />
<path d="M99491367 62540827
L98627195 62830164
" />
<path d="M88248100 344542
L88392112 304486
" />
<path d="M132963788 26607604
L133024333 26740239
" />
<path d="M94091224 64760038
L93940942 64769088
" />
<path d="M133072443 11855134
L133020498 11990203
" />
<path d="M88390963 64642163
L88245713 64605337
" />
<path d="M6248120 15904801
L5946069 15077011
" />
<path d="M126046673 64614840
L125608031 64688453
" />
<path d="M96081233 64157041
L95949676 64226664
" />
<path d="M24990083 64769088
L12991038 64769088
" />
<path d="M111816665 64726215
L111668380 64702726
" />
<path d="M37749901 2352456
L38615731 2069436
" />
<path d="M8341156 1431629
L8724049 1217293
" />
<path d="M133073158 52998487
L133120162 53135192
" />
<path d="M3935261 36855757
L3921253 36712753
" />
<path d="M4291453 26605627
L4352118 26473909
" />
<path d="M95403666 64467208
L95262801 64517374
" />
<path d="M131678700 40398825
L131309526 41201817
" />
<path d="M133326696 27850897
L133334632 27995483
" />
<path d="M99487016 2393165
L100369816 2610183
" />
<path d="M111965694 64745161
L111816665 64726215
" />
<path d="M133258337 27424515
L133288075 27565383
" />
<path d="M65407344 64642163
L65262093 64605337
" />
<path d="M41044938 865066
L41309816 731246
" />
<path d="M4352121 52598574
L4417073 52468722
" />
<path d="M65121743 389118
L65264476 344542
" />
<path d="M4305247 6337431
L4449406 5936005
" />
<path d="M25290070 64746034
L25140367 64760038
" />
<path d="M87012185 64083816
L86241164 63601592
" />
<path d="M3921253 28141067
L3931495 27997279
" />
<path d="M65262093 64605337
L65118122 64564159
" />
<path d="M95680394 64354719
L95542903 64412958
" />
<path d="M130772544 42877186
L130604735 43739653
" />
<path d="M110124696 64158240
L109995805 64083969
" />
<path d="M76503395 2393168
L77386195 2610186
" />
<path d="M112114218 184643
L112265443 179290
" />
<path d="M133323311 54122334
L133334336 54265945
" />
<path d="M88982079 64745009
L88833052 64726062
" />
<path d="M87277056 731246
L87547663 605388
" />
<path d="M88105367 389118
L88248100 344542
" />
<path d="M26312689 430194
L26453694 479948
" />
<path d="M29673807 2110781
L30536148 2393165
" />
<path d="M51820563 1762394
L52657426 2110781
" />
<path d="M133020473 38114917
L132964140 38248375
" />
<path d="M133201438 37566257
L133162950 37705389
" />
<path d="M71406322 64727169
L71257316 64746033
" />
<path d="M133162972 11580676
L133119950 11718582
" />
<path d="M105830245 62315803
L104929871 62155058
" />
<path d="M130330180 62493680
L129995049 62773150
" />
<path d="M10349725 547050
L10776056 429729
" />
<path d="M65700262 239377
L65847980 215047
" />
<path d="M8724049 1217293
L9117075 1020975
" />
<path d="M88537360 64674592
L88390963 64642163
" />
<path d="M4558641 38763716
L4485025 38638128
" />
<path d="M6650851 17614891
L6483048 16752413
" />
<path d="M112265443 64769241
L112115331 64759519
" />
<path d="M133334632 27995483
L133334351 28141250
" />
<path d="M64557727 64356891
L64422172 64294672
" />
<path d="M26453694 479948
L26593019 533904
" />
<path d="M43314580 179290
L47973702 179290
" />
<path d="M133133101 27009818
L133180376 27146703
" />
<path d="M107566601 2069436
L108407729 1726773
" />
<path d="M57136017 62026306
L56220117 62058451
" />
<path d="M133235358 11301315
L133201458 11441544
" />
<path d="M58947825 2737025
L59848004 2575198
" />
<path d="M25438848 222556
L25587128 246107
" />
<path d="M62450298 63183663
L61612015 62830029
" />
<path d="M70957322 179290
L71107430 189101
" />
<path d="M40273916 63601592
L39466677 63183663
" />
<path d="M28836944 1762394
L29673807 2110781
" />
<path d="M131007491 15904877
L130772558 16752475
" />
<path d="M95120424 64563358
L94976651 64605063
" />
<path d="M71554367 246107
L71701770 274142
" />
<path d="M82831636 2575205
L83717149 2352462
" />
<path d="M95950418 720514
L96081675 790807
" />
<path d="M94091050 189101
L94240683 203539
" />
<path d="M48864364 64642394
L48718149 64675253
" />
<path d="M87678852 64414996
L87541345 64356891
" />
<path d="M110807454 490388
L110947564 437858
" />
<path d="M49436432 64467208
L49295567 64517374
" />
<path d="M96210587 865066
L96981443 1347368
" />
<path d="M50114442 790807
L50243348 865066
" />
<path d="M49713160 64354719
L49575669 64412958
" />
<path d="M6751525 20241959
L6785090 19364620
" />
<path d="M4183190 52998820
L4235130 52863751
" />
<path d="M111374575 64642316
L111229324 64605489
" />
<path d="M131007474 42029589
L130772544 42877186
" />
<path d="M125164316 64739192
L124716250 64766362
" />
<path d="M4637167 25966995
L4897264 25602360
" />
<path d="M104005252 2837302
L104915079 2737025
" />
<path d="M50243348 64083816
L50114001 64157041
" />
<path d="M133331136 56514381
L133302699 56943500
" />
<path d="M88980515 196682
L89130595 184642
" />
<path d="M50243340 865066
L51014195 1347368
" />
<path d="M4062425 37564560
L4029085 37424163
" />
<path d="M74804191 1762395
L75641055 2110783
" />
<path d="M42134496 64564159
L41991939 64518678
" />
<path d="M132640997 59406746
L132455612 59792236
" />
<path d="M9519840 64105523
L9117417 63927961
" />
<path d="M88684767 64702574
L88537360 64674592
" />
<path d="M132965675 52729750
L133021662 52863292
" />
<path d="M127735740 843332
L128138164 1020914
" />
<path d="M82846638 62315650
L81946264 62154905
" />
<path d="M42278466 64605337
L42134496 64564159
" />
<path d="M4559645 26090473
L4637167 25966995
" />
<path d="M64288703 64228389
L64157455 64158087
" />
<path d="M72832412 64292589
L72696783 64354719
" />
<path d="M94240926 64746033
L94091224 64760038
" />
<path d="M3991013 53693839
L4020281 53552640
" />
<path d="M128531184 1217207
L128914075 1431517
" />
<path d="M72137374 384689
L72279927 430194
" />
<path d="M25734529 64675259
L25587267 64703548
" />
<path d="M87547663 605388
L87685061 546348
" />
<path d="M129995049 62773150
L129646894 63037372
" />
<path d="M65701148 64702574
L65553740 64674592
" />
<path d="M73098055 790807
L73226960 865066
" />
<path d="M5576874 24455176
L5946046 23652183
" />
<path d="M111229324 64605489
L111085354 64564311
" />
<path d="M49575669 64412958
L49436432 64467208
" />
<path d="M25734531 274142
L25880923 306616
" />
<path d="M62440473 1726773
L63251880 1325105
" />
<path d="M88833052 64726062
L88684767 64702574
" />
<path d="M64980311 437851
L65121743 389118
" />
<path d="M48718152 274142
L48864544 306616
" />
<path d="M39466677 63183663
L38628394 62830029
" />
<path d="M5946048 49776881
L6248100 48949108
" />
<path d="M131785171 60891895
L131526004 61237199
" />
<path d="M4555633 12640133
L4480258 12515295
" />
<path d="M5140580 25228432
L5576874 24455176
" />
<g >
</g>
<g >
</g>
<g >
</g>
<g >
</g>
<g >
</g>
<g >
</g>
<g >
</g>
<g >
</g>
<g >
</g>
<g >
</g>
<g >
</g>
<g >
</g>
<g >
</g>
<g >
</g>
<g >
</g>
<g >
</g>
<g >
</g>
<g >
</g>
<g >
</g>
<g >
</g>
<g >
</g>
<g >
</g>
<g >
</g>
<g >
</g>
<g >
</g>
<g >
</g>
<g >
</g>
<g >
</g>
<g >
</g>
<g >
</g>
<g >
</g>
<g >
</g>
<g >
</g>
</g> 
</svg>
