M48
; DRILL file {KiCad 5.99.0-unknown-51b9944~86~ubuntu18.04.1} date Thu Mar 12 09:02:18 2020
; FORMAT={-:-/ absolute / inch / decimal}
; #@! TF.CreationDate,2020-03-12T09:02:18+09:00
; #@! TF.GenerationSoftware,Kicad,Pcbnew,5.99.0-unknown-51b9944~86~ubuntu18.04.1
; #@! TF.FileFunction,Plated,1,2,PTH
FMAT,2
INCH
T1C0.0157
T2C0.0315
T3C0.0320
T4C0.0394
T5C0.0720
T6C0.0866
T7C0.1181
%
G90
G05
T1
X5.6707Y-4.048
X6.0576Y-3.9584
T2
X7.1159Y-2.998
X7.234Y-2.998
X7.3521Y-2.998
T3
X7.119Y-3.388
X7.519Y-3.388
X7.119Y-3.238
X7.519Y-3.238
X7.804Y-3.388
X7.904Y-3.388
T4
X4.0946Y-4.5895
X4.0946Y-4.6895
X4.1946Y-4.5895
X4.1946Y-4.6895
X4.2946Y-4.5895
X4.2946Y-4.6895
X4.3946Y-4.5895
X4.3946Y-4.6895
X4.4946Y-4.5895
X4.4946Y-4.6895
X4.5946Y-4.5895
X4.5946Y-4.6895
X4.6946Y-4.5895
X4.6946Y-4.6895
X4.7946Y-4.5895
X4.7946Y-4.6895
X4.8946Y-4.5895
X4.8946Y-4.6895
X4.9946Y-4.5895
X4.9946Y-4.6895
X5.0946Y-4.5895
X5.0946Y-4.6895
X5.1946Y-4.5895
X5.1946Y-4.6895
X5.2946Y-4.5895
X5.2946Y-4.6895
X5.3946Y-4.5895
X5.3946Y-4.6895
X5.4946Y-4.5895
X5.4946Y-4.6895
X7.284Y-4.978
X7.384Y-4.978
X6.294Y-3.868
X6.394Y-3.868
X6.494Y-3.868
X6.594Y-3.868
X6.694Y-3.868
X6.794Y-3.868
X6.894Y-3.868
X6.994Y-3.868
X7.094Y-3.868
X7.194Y-3.868
X7.294Y-3.868
X7.394Y-3.868
X7.494Y-3.868
X7.594Y-3.868
X7.694Y-3.868
X7.794Y-3.868
X7.894Y-3.868
X7.994Y-3.868
X7.874Y-4.978
X7.974Y-4.978
X6.294Y-3.988
X6.394Y-3.988
X6.494Y-3.988
X6.594Y-3.988
X6.694Y-3.988
X6.794Y-3.988
X6.894Y-3.988
X6.994Y-3.988
X7.094Y-3.988
X7.194Y-3.988
X7.294Y-3.988
X7.394Y-3.988
X7.494Y-3.988
X7.594Y-3.988
X7.694Y-3.988
X7.794Y-3.988
X7.894Y-3.988
X7.994Y-3.988
X7.874Y-4.388
X7.974Y-4.388
X6.294Y-4.108
X6.394Y-4.108
X6.494Y-4.108
X6.594Y-4.108
X6.694Y-4.108
X6.794Y-4.108
X6.894Y-4.108
X6.994Y-4.108
X7.094Y-4.108
X7.194Y-4.108
X7.294Y-4.108
X7.394Y-4.108
X7.494Y-4.108
X7.594Y-4.108
X7.694Y-4.108
X7.794Y-4.108
X7.894Y-4.108
X7.994Y-4.108
X6.294Y-4.228
X6.394Y-4.228
X6.494Y-4.228
X6.594Y-4.228
X6.694Y-4.228
X6.794Y-4.228
X6.894Y-4.228
X6.994Y-4.228
X7.094Y-4.228
X7.194Y-4.228
X7.294Y-4.228
X7.394Y-4.228
X7.494Y-4.228
X7.594Y-4.228
X7.694Y-4.228
X7.794Y-4.228
X7.894Y-4.228
X7.994Y-4.228
X7.244Y-3.528
X7.244Y-3.628
X7.244Y-3.728
X7.284Y-4.388
X7.384Y-4.388
X7.089Y-4.478
X7.089Y-4.578
X7.089Y-4.678
X7.089Y-4.778
T5
X5.5782Y-3.0576
X5.8439Y-2.9576
X5.8439Y-3.1576
X7.7242Y-2.9583
X7.7242Y-3.1583
X7.9898Y-3.0583
T6
X6.988Y-2.998
X7.4801Y-2.998
T7
X3.554Y-4.968
X3.564Y-2.848
X6.794Y-4.968
X8.234Y-2.848
X8.234Y-4.968
T0
M30
