G04 #@! TF.GenerationSoftware,KiCad,Pcbnew,5.99.0-unknown-51b9944~86~ubuntu18.04.1*
G04 #@! TF.CreationDate,2020-03-12T09:02:04+09:00*
G04 #@! TF.ProjectId,bGeigieRaku V2,62476569-6769-4655-9261-6b752056322e,rev?*
G04 #@! TF.SameCoordinates,Original*
G04 #@! TF.FileFunction,Copper,L2,Bot*
G04 #@! TF.FilePolarity,Positive*
%FSLAX46Y46*%
G04 Gerber Fmt 4.6, Leading zero omitted, Abs format (unit mm)*
G04 Created by KiCad (PCBNEW 5.99.0-unknown-51b9944~86~ubuntu18.04.1) date 2020-03-12 09:02:04*
%MOMM*%
%LPD*%
G01*
G04 APERTURE LIST*
%ADD10C,3.600000*%
%ADD11O,1.700000X1.700000*%
%ADD12R,1.700000X1.700000*%
%ADD13C,2.743200*%
%ADD14R,12.000000X12.000000*%
%ADD15C,1.676400*%
%ADD16C,3.000000*%
%ADD17C,0.800000*%
%ADD18C,1.000000*%
%ADD19C,0.250000*%
G04 APERTURE END LIST*
D10*
X172567600Y-126186000D03*
X90271600Y-126186000D03*
X90525600Y-72338000D03*
X209144000Y-72338000D03*
X209143600Y-126186000D03*
D11*
X203048000Y-98246000D03*
X200508000Y-98246000D03*
X197968000Y-98246000D03*
X195428000Y-98246000D03*
X192888000Y-98246000D03*
X190348000Y-98246000D03*
X187808000Y-98246000D03*
X185268000Y-98246000D03*
X182728000Y-98246000D03*
X180188000Y-98246000D03*
X177648000Y-98246000D03*
X175108000Y-98246000D03*
X172568000Y-98246000D03*
X170028000Y-98246000D03*
X167488000Y-98246000D03*
X164948000Y-98246000D03*
X162408000Y-98246000D03*
D12*
X159868000Y-98246000D03*
D11*
X185014000Y-126440000D03*
D12*
X187554000Y-126440000D03*
D11*
X200000000Y-126440000D03*
D12*
X202540000Y-126440000D03*
D11*
X200000000Y-111454000D03*
D12*
X202540000Y-111454000D03*
D11*
X185014000Y-111454000D03*
D12*
X187554000Y-111454000D03*
D11*
X104004000Y-116574000D03*
X104004000Y-119114000D03*
X106544000Y-116574000D03*
X106544000Y-119114000D03*
X109084000Y-116574000D03*
X109084000Y-119114000D03*
X111624000Y-116574000D03*
X111624000Y-119114000D03*
X114164000Y-116574000D03*
X114164000Y-119114000D03*
X116704000Y-116574000D03*
X116704000Y-119114000D03*
X119244000Y-116574000D03*
X119244000Y-119114000D03*
X121784000Y-116574000D03*
X121784000Y-119114000D03*
X124324000Y-116574000D03*
X124324000Y-119114000D03*
X126864000Y-116574000D03*
X126864000Y-119114000D03*
X129404000Y-116574000D03*
X129404000Y-119114000D03*
X131944000Y-116574000D03*
X131944000Y-119114000D03*
X134484000Y-116574000D03*
X134484000Y-119114000D03*
X137024000Y-116574000D03*
X137024000Y-119114000D03*
X139564000Y-116574000D03*
D12*
X139564000Y-119114000D03*
D13*
X196194000Y-75142000D03*
X202942000Y-77682000D03*
X196194000Y-80222000D03*
X148434000Y-80202000D03*
X141686000Y-77662000D03*
X148434000Y-75122000D03*
D14*
X145114000Y-77662000D03*
X199914000Y-77872000D03*
D11*
X203048000Y-101294000D03*
X200508000Y-101294000D03*
X197968000Y-101294000D03*
X195428000Y-101294000D03*
X192888000Y-101294000D03*
X190348000Y-101294000D03*
X187808000Y-101294000D03*
X185268000Y-101294000D03*
X182728000Y-101294000D03*
X180188000Y-101294000D03*
X177648000Y-101294000D03*
X175108000Y-101294000D03*
X172568000Y-101294000D03*
X170028000Y-101294000D03*
X167488000Y-101294000D03*
X164948000Y-101294000D03*
X162408000Y-101294000D03*
D12*
X159868000Y-101294000D03*
D11*
X203048000Y-104342000D03*
X200508000Y-104342000D03*
X197968000Y-104342000D03*
X195428000Y-104342000D03*
X192888000Y-104342000D03*
X190348000Y-104342000D03*
X187808000Y-104342000D03*
X185268000Y-104342000D03*
X182728000Y-104342000D03*
X180188000Y-104342000D03*
X177648000Y-104342000D03*
X175108000Y-104342000D03*
X172568000Y-104342000D03*
X170028000Y-104342000D03*
X167488000Y-104342000D03*
X164948000Y-104342000D03*
X162408000Y-104342000D03*
D12*
X159868000Y-104342000D03*
D11*
X203048000Y-107390000D03*
X200508000Y-107390000D03*
X197968000Y-107390000D03*
X195428000Y-107390000D03*
X192888000Y-107390000D03*
X190348000Y-107390000D03*
X187808000Y-107390000D03*
X185268000Y-107390000D03*
X182728000Y-107390000D03*
X180188000Y-107390000D03*
X177648000Y-107390000D03*
X175108000Y-107390000D03*
X172568000Y-107390000D03*
X170028000Y-107390000D03*
X167488000Y-107390000D03*
X164948000Y-107390000D03*
X162408000Y-107390000D03*
D12*
X159868000Y-107390000D03*
D15*
X180823000Y-82244000D03*
X190983000Y-82244000D03*
X190983000Y-86054000D03*
X180823000Y-86054000D03*
X200762000Y-86054000D03*
X198222000Y-86054000D03*
X183744000Y-76148000D03*
D16*
X177494000Y-76148000D03*
X189994000Y-76148000D03*
D15*
X186744000Y-76148000D03*
X180744000Y-76148000D03*
D11*
X180061000Y-113740000D03*
X180061000Y-116280000D03*
X180061000Y-118820000D03*
D12*
X180061000Y-121360000D03*
D11*
X183998000Y-89610000D03*
X183998000Y-92150000D03*
D12*
X183998000Y-94690000D03*
D17*
X153862100Y-100543900D03*
X144036500Y-102818000D03*
D18*
X196751400Y-83080800D02*
X191819800Y-83080800D01*
X191819800Y-83080800D02*
X190983000Y-82244000D01*
X196751400Y-83080800D02*
X196751400Y-84583400D01*
X196751400Y-84583400D02*
X198222000Y-86054000D01*
X183998000Y-94690000D02*
X185848300Y-94690000D01*
X185848300Y-94690000D02*
X185848300Y-87378700D01*
X185848300Y-87378700D02*
X190983000Y-82244000D01*
X159868000Y-109240300D02*
X171987700Y-121360000D01*
X171987700Y-121360000D02*
X180061000Y-121360000D01*
X159868000Y-107390000D02*
X159868000Y-109240300D01*
X159868000Y-107390000D02*
X158017700Y-107390000D01*
X158017700Y-107390000D02*
X146293700Y-119114000D01*
X146293700Y-119114000D02*
X139564000Y-119114000D01*
X159868000Y-107390000D02*
X159868000Y-104342000D01*
X159868000Y-104342000D02*
X159868000Y-101294000D01*
D19*
X138199300Y-116574000D02*
X138199300Y-116206700D01*
X138199300Y-116206700D02*
X153862100Y-100543900D01*
X137024000Y-116574000D02*
X138199300Y-116574000D01*
X180823000Y-86054000D02*
X180823000Y-82244000D01*
D18*
X126864000Y-116574000D02*
X126864000Y-114723700D01*
X162408000Y-98246000D02*
X162408000Y-96395700D01*
X162408000Y-96395700D02*
X145192000Y-96395700D01*
X145192000Y-96395700D02*
X126864000Y-114723700D01*
X166907700Y-113740000D02*
X180061000Y-113740000D01*
X166907700Y-113740000D02*
X162408000Y-109240300D01*
X162408000Y-107390000D02*
X162408000Y-109240300D01*
X162408000Y-104342000D02*
X162408000Y-107390000D01*
X162408000Y-104342000D02*
X162408000Y-101294000D01*
X164948000Y-104342000D02*
X164948000Y-107390000D01*
X164948000Y-104342000D02*
X164948000Y-101294000D01*
D19*
X117879300Y-119114000D02*
X117879300Y-118746600D01*
X117879300Y-118746600D02*
X118687200Y-117938700D01*
X118687200Y-117938700D02*
X119563500Y-117938700D01*
X119563500Y-117938700D02*
X120480600Y-117021600D01*
X120480600Y-117021600D02*
X120480600Y-116211000D01*
X120480600Y-116211000D02*
X144541600Y-92150000D01*
X144541600Y-92150000D02*
X183998000Y-92150000D01*
X116704000Y-119114000D02*
X117879300Y-119114000D01*
X119244000Y-119114000D02*
X120419300Y-119114000D01*
X172568000Y-101294000D02*
X172568000Y-100118700D01*
X172568000Y-100118700D02*
X171392700Y-98943400D01*
X171392700Y-98943400D02*
X171392700Y-97859000D01*
X171392700Y-97859000D02*
X168259100Y-94725400D01*
X168259100Y-94725400D02*
X144273800Y-94725400D01*
X144273800Y-94725400D02*
X122959400Y-116039800D01*
X122959400Y-116039800D02*
X122959400Y-117063400D01*
X122959400Y-117063400D02*
X122084100Y-117938700D01*
X122084100Y-117938700D02*
X121227200Y-117938700D01*
X121227200Y-117938700D02*
X120419300Y-118746600D01*
X120419300Y-118746600D02*
X120419300Y-119114000D01*
X124324000Y-115398700D02*
X144481500Y-95241200D01*
X144481500Y-95241200D02*
X166146200Y-95241200D01*
X166146200Y-95241200D02*
X168852700Y-97947700D01*
X168852700Y-97947700D02*
X168852700Y-98943400D01*
X168852700Y-98943400D02*
X170028000Y-100118700D01*
X124324000Y-116574000D02*
X124324000Y-115398700D01*
X170028000Y-101294000D02*
X170028000Y-100118700D01*
X125499300Y-119114000D02*
X125499300Y-119481400D01*
X125499300Y-119481400D02*
X126307200Y-120289300D01*
X126307200Y-120289300D02*
X129964800Y-120289300D01*
X129964800Y-120289300D02*
X130674000Y-119580100D01*
X130674000Y-119580100D02*
X130674000Y-116180500D01*
X130674000Y-116180500D02*
X144036500Y-102818000D01*
X124324000Y-119114000D02*
X125499300Y-119114000D01*
D18*
X183744000Y-76148000D02*
X181194300Y-78697700D01*
X181194300Y-78697700D02*
X175861300Y-78697700D01*
X175861300Y-78697700D02*
X174825600Y-77662000D01*
X174825600Y-77662000D02*
X145114000Y-77662000D01*
D19*
X134484000Y-116574000D02*
X135659300Y-116574000D01*
X200762000Y-86054000D02*
X190435400Y-96380600D01*
X190435400Y-96380600D02*
X185405700Y-96380600D01*
X185405700Y-96380600D02*
X184092600Y-97693700D01*
X184092600Y-97693700D02*
X184092600Y-98556500D01*
X184092600Y-98556500D02*
X182784500Y-99864600D01*
X182784500Y-99864600D02*
X182452800Y-99864600D01*
X182452800Y-99864600D02*
X181458000Y-100859400D01*
X181458000Y-100859400D02*
X181458000Y-101765000D01*
X181458000Y-101765000D02*
X180739200Y-102483800D01*
X180739200Y-102483800D02*
X169498800Y-102483800D01*
X169498800Y-102483800D02*
X168758000Y-101743000D01*
X168758000Y-101743000D02*
X168758000Y-100880300D01*
X168758000Y-100880300D02*
X167663600Y-99785900D01*
X167663600Y-99785900D02*
X152080100Y-99785900D01*
X152080100Y-99785900D02*
X135659300Y-116206700D01*
X135659300Y-116206700D02*
X135659300Y-116574000D01*
M02*
