G04 #@! TF.GenerationSoftware,KiCad,Pcbnew,5.99.0-unknown-5127d6c77~91~ubuntu20.04.1*
G04 #@! TF.CreationDate,2020-10-08T17:45:23+09:00*
G04 #@! TF.ProjectId,M5_board_bGeigieRaku V1.9,4d355f62-6f61-4726-945f-624765696769,rev?*
G04 #@! TF.SameCoordinates,Original*
G04 #@! TF.FileFunction,Legend,Top*
G04 #@! TF.FilePolarity,Positive*
%FSLAX46Y46*%
G04 Gerber Fmt 4.6, Leading zero omitted, Abs format (unit mm)*
G04 Created by KiCad (PCBNEW 5.99.0-unknown-5127d6c77~91~ubuntu20.04.1) date 2020-10-08 17:45:23*
%MOMM*%
%LPD*%
G01*
G04 APERTURE LIST*
%ADD10C,1.000000*%
%ADD11C,0.200000*%
%ADD12C,0.150000*%
%ADD13C,0.300000*%
%ADD14C,0.100000*%
%ADD15C,0.120650*%
%ADD16C,0.096520*%
%ADD17C,0.152400*%
%ADD18C,0.120000*%
%ADD19C,0.127000*%
%ADD20C,0.304800*%
G04 APERTURE END LIST*
D10*
X156438600Y-112188288D02*
X156438600Y-121586288D01*
D11*
X162661600Y-113867000D02*
X162661600Y-108152000D01*
X175361600Y-113867000D02*
X162661600Y-113867000D01*
X162661600Y-108152000D02*
X175361600Y-108152000D01*
D10*
X161518600Y-112188288D02*
X161518600Y-121332288D01*
D11*
X175361600Y-108152000D02*
X175361600Y-113867000D01*
D10*
X158978600Y-112188288D02*
X158978600Y-121586288D01*
D12*
X209707171Y-103150714D02*
X209754790Y-103007857D01*
X209802409Y-102960238D01*
X209897647Y-102912619D01*
X210040504Y-102912619D01*
X210135742Y-102960238D01*
X210183361Y-103007857D01*
X210230980Y-103103095D01*
X210230980Y-103484047D01*
X209230980Y-103484047D01*
X209230980Y-103150714D01*
X209278600Y-103055476D01*
X209326219Y-103007857D01*
X209421457Y-102960238D01*
X209516695Y-102960238D01*
X209611933Y-103007857D01*
X209659552Y-103055476D01*
X209707171Y-103150714D01*
X209707171Y-103484047D01*
X210230980Y-102055476D02*
X209707171Y-102055476D01*
X209611933Y-102103095D01*
X209564314Y-102198333D01*
X209564314Y-102388809D01*
X209611933Y-102484047D01*
X210183361Y-102055476D02*
X210230980Y-102150714D01*
X210230980Y-102388809D01*
X210183361Y-102484047D01*
X210088123Y-102531666D01*
X209992885Y-102531666D01*
X209897647Y-102484047D01*
X209850028Y-102388809D01*
X209850028Y-102150714D01*
X209802409Y-102055476D01*
X209564314Y-101722142D02*
X209564314Y-101341190D01*
X209230980Y-101579285D02*
X210088123Y-101579285D01*
X210183361Y-101531666D01*
X210230980Y-101436428D01*
X210230980Y-101341190D01*
X209564314Y-101150714D02*
X209564314Y-100769761D01*
X209230980Y-101007857D02*
X210088123Y-101007857D01*
X210183361Y-100960238D01*
X210230980Y-100865000D01*
X210230980Y-100769761D01*
X210183361Y-100055476D02*
X210230980Y-100150714D01*
X210230980Y-100341190D01*
X210183361Y-100436428D01*
X210088123Y-100484047D01*
X209707171Y-100484047D01*
X209611933Y-100436428D01*
X209564314Y-100341190D01*
X209564314Y-100150714D01*
X209611933Y-100055476D01*
X209707171Y-100007857D01*
X209802409Y-100007857D01*
X209897647Y-100484047D01*
X210230980Y-99579285D02*
X209564314Y-99579285D01*
X209754790Y-99579285D02*
X209659552Y-99531666D01*
X209611933Y-99484047D01*
X209564314Y-99388809D01*
X209564314Y-99293571D01*
X209564314Y-99055476D02*
X210230980Y-98817380D01*
X209564314Y-98579285D02*
X210230980Y-98817380D01*
X210469076Y-98912619D01*
X210516695Y-98960238D01*
X210564314Y-99055476D01*
X210183361Y-97007857D02*
X210230980Y-97103095D01*
X210230980Y-97293571D01*
X210183361Y-97388809D01*
X210135742Y-97436428D01*
X210040504Y-97484047D01*
X209754790Y-97484047D01*
X209659552Y-97436428D01*
X209611933Y-97388809D01*
X209564314Y-97293571D01*
X209564314Y-97103095D01*
X209611933Y-97007857D01*
X210230980Y-96579285D02*
X209230980Y-96579285D01*
X210230980Y-96150714D02*
X209707171Y-96150714D01*
X209611933Y-96198333D01*
X209564314Y-96293571D01*
X209564314Y-96436428D01*
X209611933Y-96531666D01*
X209659552Y-96579285D01*
X210230980Y-95245952D02*
X209707171Y-95245952D01*
X209611933Y-95293571D01*
X209564314Y-95388809D01*
X209564314Y-95579285D01*
X209611933Y-95674523D01*
X210183361Y-95245952D02*
X210230980Y-95341190D01*
X210230980Y-95579285D01*
X210183361Y-95674523D01*
X210088123Y-95722142D01*
X209992885Y-95722142D01*
X209897647Y-95674523D01*
X209850028Y-95579285D01*
X209850028Y-95341190D01*
X209802409Y-95245952D01*
X210230980Y-94769761D02*
X209564314Y-94769761D01*
X209754790Y-94769761D02*
X209659552Y-94722142D01*
X209611933Y-94674523D01*
X209564314Y-94579285D01*
X209564314Y-94484047D01*
X209564314Y-93722142D02*
X210373838Y-93722142D01*
X210469076Y-93769761D01*
X210516695Y-93817380D01*
X210564314Y-93912619D01*
X210564314Y-94055476D01*
X210516695Y-94150714D01*
X210183361Y-93722142D02*
X210230980Y-93817380D01*
X210230980Y-94007857D01*
X210183361Y-94103095D01*
X210135742Y-94150714D01*
X210040504Y-94198333D01*
X209754790Y-94198333D01*
X209659552Y-94150714D01*
X209611933Y-94103095D01*
X209564314Y-94007857D01*
X209564314Y-93817380D01*
X209611933Y-93722142D01*
X210183361Y-92865000D02*
X210230980Y-92960238D01*
X210230980Y-93150714D01*
X210183361Y-93245952D01*
X210088123Y-93293571D01*
X209707171Y-93293571D01*
X209611933Y-93245952D01*
X209564314Y-93150714D01*
X209564314Y-92960238D01*
X209611933Y-92865000D01*
X209707171Y-92817380D01*
X209802409Y-92817380D01*
X209897647Y-93293571D01*
X210230980Y-92388809D02*
X209564314Y-92388809D01*
X209754790Y-92388809D02*
X209659552Y-92341190D01*
X209611933Y-92293571D01*
X209564314Y-92198333D01*
X209564314Y-92103095D01*
X169188171Y-110459714D02*
X169223885Y-110352571D01*
X169223885Y-110174000D01*
X169188171Y-110102571D01*
X169152457Y-110066857D01*
X169081028Y-110031142D01*
X169009600Y-110031142D01*
X168938171Y-110066857D01*
X168902457Y-110102571D01*
X168866742Y-110174000D01*
X168831028Y-110316857D01*
X168795314Y-110388285D01*
X168759600Y-110424000D01*
X168688171Y-110459714D01*
X168616742Y-110459714D01*
X168545314Y-110424000D01*
X168509600Y-110388285D01*
X168473885Y-110316857D01*
X168473885Y-110138285D01*
X168509600Y-110031142D01*
X169223885Y-109709714D02*
X168473885Y-109709714D01*
X168473885Y-109531142D01*
X168509600Y-109424000D01*
X168581028Y-109352571D01*
X168652457Y-109316857D01*
X168795314Y-109281142D01*
X168902457Y-109281142D01*
X169045314Y-109316857D01*
X169116742Y-109352571D01*
X169188171Y-109424000D01*
X169223885Y-109531142D01*
X169223885Y-109709714D01*
X169009600Y-108995428D02*
X169009600Y-108638285D01*
X169223885Y-109066857D02*
X168473885Y-108816857D01*
X169223885Y-108566857D01*
D13*
X173925028Y-69230571D02*
X174210742Y-69230571D01*
X174353600Y-69302000D01*
X174496457Y-69444857D01*
X174567885Y-69730571D01*
X174567885Y-70230571D01*
X174496457Y-70516285D01*
X174353600Y-70659142D01*
X174210742Y-70730571D01*
X173925028Y-70730571D01*
X173782171Y-70659142D01*
X173639314Y-70516285D01*
X173567885Y-70230571D01*
X173567885Y-69730571D01*
X173639314Y-69444857D01*
X173782171Y-69302000D01*
X173925028Y-69230571D01*
X175210742Y-70730571D02*
X175210742Y-69230571D01*
X176067885Y-70730571D01*
X176067885Y-69230571D01*
D12*
X173716600Y-110281142D02*
X173680885Y-110352571D01*
X173680885Y-110459714D01*
X173716600Y-110566857D01*
X173788028Y-110638285D01*
X173859457Y-110674000D01*
X174002314Y-110709714D01*
X174109457Y-110709714D01*
X174252314Y-110674000D01*
X174323742Y-110638285D01*
X174395171Y-110566857D01*
X174430885Y-110459714D01*
X174430885Y-110388285D01*
X174395171Y-110281142D01*
X174359457Y-110245428D01*
X174109457Y-110245428D01*
X174109457Y-110388285D01*
X174430885Y-109924000D02*
X173680885Y-109924000D01*
X173680885Y-109424000D02*
X173680885Y-109281142D01*
X173716600Y-109209714D01*
X173788028Y-109138285D01*
X173930885Y-109102571D01*
X174180885Y-109102571D01*
X174323742Y-109138285D01*
X174395171Y-109209714D01*
X174430885Y-109281142D01*
X174430885Y-109424000D01*
X174395171Y-109495428D01*
X174323742Y-109566857D01*
X174180885Y-109602571D01*
X173930885Y-109602571D01*
X173788028Y-109566857D01*
X173716600Y-109495428D01*
X173680885Y-109424000D01*
X173680885Y-108638285D02*
X173680885Y-108566857D01*
X173716600Y-108495428D01*
X173752314Y-108459714D01*
X173823742Y-108424000D01*
X173966600Y-108388285D01*
X174145171Y-108388285D01*
X174288028Y-108424000D01*
X174359457Y-108459714D01*
X174395171Y-108495428D01*
X174430885Y-108566857D01*
X174430885Y-108638285D01*
X174395171Y-108709714D01*
X174359457Y-108745428D01*
X174288028Y-108781142D01*
X174145171Y-108816857D01*
X173966600Y-108816857D01*
X173823742Y-108781142D01*
X173752314Y-108745428D01*
X173716600Y-108709714D01*
X173680885Y-108638285D01*
X161361885Y-124749431D02*
X161361885Y-125106574D01*
X161719028Y-125142288D01*
X161683314Y-125106574D01*
X161647600Y-125035145D01*
X161647600Y-124856574D01*
X161683314Y-124785145D01*
X161719028Y-124749431D01*
X161790457Y-124713716D01*
X161969028Y-124713716D01*
X162040457Y-124749431D01*
X162076171Y-124785145D01*
X162111885Y-124856574D01*
X162111885Y-125035145D01*
X162076171Y-125106574D01*
X162040457Y-125142288D01*
X161361885Y-124499431D02*
X162111885Y-124249431D01*
X161361885Y-123999431D01*
X158821885Y-126249430D02*
X158821885Y-125785145D01*
X159107600Y-126035145D01*
X159107600Y-125928002D01*
X159143314Y-125856573D01*
X159179028Y-125820859D01*
X159250457Y-125785145D01*
X159429028Y-125785145D01*
X159500457Y-125820859D01*
X159536171Y-125856573D01*
X159571885Y-125928002D01*
X159571885Y-126142288D01*
X159536171Y-126213716D01*
X159500457Y-126249430D01*
X159500457Y-125463716D02*
X159536171Y-125428002D01*
X159571885Y-125463716D01*
X159536171Y-125499430D01*
X159500457Y-125463716D01*
X159571885Y-125463716D01*
X158821885Y-125178002D02*
X158821885Y-124713716D01*
X159107600Y-124963716D01*
X159107600Y-124856573D01*
X159143314Y-124785145D01*
X159179028Y-124749430D01*
X159250457Y-124713716D01*
X159429028Y-124713716D01*
X159500457Y-124749430D01*
X159536171Y-124785145D01*
X159571885Y-124856573D01*
X159571885Y-125070859D01*
X159536171Y-125142288D01*
X159500457Y-125178002D01*
X158821885Y-124499430D02*
X159571885Y-124249430D01*
X158821885Y-123999430D01*
X163393885Y-110195858D02*
X163393885Y-109767287D01*
X164143885Y-109981572D02*
X163393885Y-109981572D01*
X163393885Y-109588715D02*
X164143885Y-109088715D01*
X163393885Y-109088715D02*
X164143885Y-109588715D01*
X164143885Y-108410144D02*
X164143885Y-108838715D01*
X164143885Y-108624429D02*
X163393885Y-108624429D01*
X163501028Y-108695858D01*
X163572457Y-108767287D01*
X163608171Y-108838715D01*
X156317600Y-125642287D02*
X156281885Y-125713716D01*
X156281885Y-125820859D01*
X156317600Y-125928001D01*
X156389028Y-125999430D01*
X156460457Y-126035144D01*
X156603314Y-126070859D01*
X156710457Y-126070859D01*
X156853314Y-126035144D01*
X156924742Y-125999430D01*
X156996171Y-125928001D01*
X157031885Y-125820859D01*
X157031885Y-125749430D01*
X156996171Y-125642287D01*
X156960457Y-125606573D01*
X156710457Y-125606573D01*
X156710457Y-125749430D01*
X157031885Y-125285144D02*
X156281885Y-125285144D01*
X157031885Y-124856573D01*
X156281885Y-124856573D01*
X157031885Y-124499430D02*
X156281885Y-124499430D01*
X156281885Y-124320859D01*
X156317600Y-124213716D01*
X156389028Y-124142287D01*
X156460457Y-124106573D01*
X156603314Y-124070859D01*
X156710457Y-124070859D01*
X156853314Y-124106573D01*
X156924742Y-124142287D01*
X156996171Y-124213716D01*
X157031885Y-124320859D01*
X157031885Y-124499430D01*
D13*
X190443028Y-68976571D02*
X190728742Y-68976571D01*
X190871600Y-69048000D01*
X191014457Y-69190857D01*
X191085885Y-69476571D01*
X191085885Y-69976571D01*
X191014457Y-70262285D01*
X190871600Y-70405142D01*
X190728742Y-70476571D01*
X190443028Y-70476571D01*
X190300171Y-70405142D01*
X190157314Y-70262285D01*
X190085885Y-69976571D01*
X190085885Y-69476571D01*
X190157314Y-69190857D01*
X190300171Y-69048000D01*
X190443028Y-68976571D01*
X192228742Y-69690857D02*
X191728742Y-69690857D01*
X191728742Y-70476571D02*
X191728742Y-68976571D01*
X192443028Y-68976571D01*
X193514457Y-69690857D02*
X193014457Y-69690857D01*
X193014457Y-70476571D02*
X193014457Y-68976571D01*
X193728742Y-68976571D01*
D12*
X166683885Y-109749429D02*
X166326742Y-109999429D01*
X166683885Y-110178001D02*
X165933885Y-110178001D01*
X165933885Y-109892287D01*
X165969600Y-109820858D01*
X166005314Y-109785144D01*
X166076742Y-109749429D01*
X166183885Y-109749429D01*
X166255314Y-109785144D01*
X166291028Y-109820858D01*
X166326742Y-109892287D01*
X166326742Y-110178001D01*
X165933885Y-109499429D02*
X166683885Y-108999429D01*
X165933885Y-108999429D02*
X166683885Y-109499429D01*
X166683885Y-108320858D02*
X166683885Y-108749429D01*
X166683885Y-108535144D02*
X165933885Y-108535144D01*
X166041028Y-108606572D01*
X166112457Y-108678001D01*
X166148171Y-108749429D01*
X171728171Y-110160145D02*
X171763885Y-110053002D01*
X171763885Y-109874430D01*
X171728171Y-109803002D01*
X171692457Y-109767288D01*
X171621028Y-109731573D01*
X171549600Y-109731573D01*
X171478171Y-109767288D01*
X171442457Y-109803002D01*
X171406742Y-109874430D01*
X171371028Y-110017288D01*
X171335314Y-110088716D01*
X171299600Y-110124430D01*
X171228171Y-110160145D01*
X171156742Y-110160145D01*
X171085314Y-110124430D01*
X171049600Y-110088716D01*
X171013885Y-110017288D01*
X171013885Y-109838716D01*
X171049600Y-109731573D01*
X171692457Y-108981573D02*
X171728171Y-109017288D01*
X171763885Y-109124430D01*
X171763885Y-109195859D01*
X171728171Y-109303002D01*
X171656742Y-109374430D01*
X171585314Y-109410145D01*
X171442457Y-109445859D01*
X171335314Y-109445859D01*
X171192457Y-109410145D01*
X171121028Y-109374430D01*
X171049600Y-109303002D01*
X171013885Y-109195859D01*
X171013885Y-109124430D01*
X171049600Y-109017288D01*
X171085314Y-108981573D01*
X171763885Y-108303002D02*
X171763885Y-108660145D01*
X171013885Y-108660145D01*
D14*
X152863361Y-108912523D02*
X152910980Y-108769666D01*
X152910980Y-108531571D01*
X152863361Y-108436333D01*
X152815742Y-108388714D01*
X152720504Y-108341095D01*
X152625266Y-108341095D01*
X152530028Y-108388714D01*
X152482409Y-108436333D01*
X152434790Y-108531571D01*
X152387171Y-108722047D01*
X152339552Y-108817285D01*
X152291933Y-108864904D01*
X152196695Y-108912523D01*
X152101457Y-108912523D01*
X152006219Y-108864904D01*
X151958600Y-108817285D01*
X151910980Y-108722047D01*
X151910980Y-108483952D01*
X151958600Y-108341095D01*
X152910980Y-107483952D02*
X152387171Y-107483952D01*
X152291933Y-107531571D01*
X152244314Y-107626809D01*
X152244314Y-107817285D01*
X152291933Y-107912523D01*
X152863361Y-107483952D02*
X152910980Y-107579190D01*
X152910980Y-107817285D01*
X152863361Y-107912523D01*
X152768123Y-107960142D01*
X152672885Y-107960142D01*
X152577647Y-107912523D01*
X152530028Y-107817285D01*
X152530028Y-107579190D01*
X152482409Y-107483952D01*
X152244314Y-107150619D02*
X152244314Y-106769666D01*
X152910980Y-107007761D02*
X152053838Y-107007761D01*
X151958600Y-106960142D01*
X151910980Y-106864904D01*
X151910980Y-106769666D01*
X152863361Y-106055380D02*
X152910980Y-106150619D01*
X152910980Y-106341095D01*
X152863361Y-106436333D01*
X152768123Y-106483952D01*
X152387171Y-106483952D01*
X152291933Y-106436333D01*
X152244314Y-106341095D01*
X152244314Y-106150619D01*
X152291933Y-106055380D01*
X152387171Y-106007761D01*
X152482409Y-106007761D01*
X152577647Y-106483952D01*
X152863361Y-105150619D02*
X152910980Y-105245857D01*
X152910980Y-105436333D01*
X152863361Y-105531571D01*
X152815742Y-105579190D01*
X152720504Y-105626809D01*
X152434790Y-105626809D01*
X152339552Y-105579190D01*
X152291933Y-105531571D01*
X152244314Y-105436333D01*
X152244314Y-105245857D01*
X152291933Y-105150619D01*
X152910980Y-104293476D02*
X152387171Y-104293476D01*
X152291933Y-104341095D01*
X152244314Y-104436333D01*
X152244314Y-104626809D01*
X152291933Y-104722047D01*
X152863361Y-104293476D02*
X152910980Y-104388714D01*
X152910980Y-104626809D01*
X152863361Y-104722047D01*
X152768123Y-104769666D01*
X152672885Y-104769666D01*
X152577647Y-104722047D01*
X152530028Y-104626809D01*
X152530028Y-104388714D01*
X152482409Y-104293476D01*
X152863361Y-103864904D02*
X152910980Y-103769666D01*
X152910980Y-103579190D01*
X152863361Y-103483952D01*
X152768123Y-103436333D01*
X152720504Y-103436333D01*
X152625266Y-103483952D01*
X152577647Y-103579190D01*
X152577647Y-103722047D01*
X152530028Y-103817285D01*
X152434790Y-103864904D01*
X152387171Y-103864904D01*
X152291933Y-103817285D01*
X152244314Y-103722047D01*
X152244314Y-103579190D01*
X152291933Y-103483952D01*
X152244314Y-103150619D02*
X152244314Y-102769666D01*
X151910980Y-103007761D02*
X152768123Y-103007761D01*
X152863361Y-102960142D01*
X152910980Y-102864904D01*
X152910980Y-102769666D01*
X152910980Y-101674428D02*
X151910980Y-101674428D01*
X152625266Y-101341095D01*
X151910980Y-101007761D01*
X152910980Y-101007761D01*
X151910980Y-100055380D02*
X151910980Y-100531571D01*
X152387171Y-100579190D01*
X152339552Y-100531571D01*
X152291933Y-100436333D01*
X152291933Y-100198238D01*
X152339552Y-100103000D01*
X152387171Y-100055380D01*
X152482409Y-100007761D01*
X152720504Y-100007761D01*
X152815742Y-100055380D01*
X152863361Y-100103000D01*
X152910980Y-100198238D01*
X152910980Y-100436333D01*
X152863361Y-100531571D01*
X152815742Y-100579190D01*
X152910980Y-98817285D02*
X151910980Y-98817285D01*
X152291933Y-98817285D02*
X152244314Y-98722047D01*
X152244314Y-98531571D01*
X152291933Y-98436333D01*
X152339552Y-98388714D01*
X152434790Y-98341095D01*
X152720504Y-98341095D01*
X152815742Y-98388714D01*
X152863361Y-98436333D01*
X152910980Y-98531571D01*
X152910980Y-98722047D01*
X152863361Y-98817285D01*
X152910980Y-97483952D02*
X152387171Y-97483952D01*
X152291933Y-97531571D01*
X152244314Y-97626809D01*
X152244314Y-97817285D01*
X152291933Y-97912523D01*
X152863361Y-97483952D02*
X152910980Y-97579190D01*
X152910980Y-97817285D01*
X152863361Y-97912523D01*
X152768123Y-97960142D01*
X152672885Y-97960142D01*
X152577647Y-97912523D01*
X152530028Y-97817285D01*
X152530028Y-97579190D01*
X152482409Y-97483952D01*
X152863361Y-97055380D02*
X152910980Y-96960142D01*
X152910980Y-96769666D01*
X152863361Y-96674428D01*
X152768123Y-96626809D01*
X152720504Y-96626809D01*
X152625266Y-96674428D01*
X152577647Y-96769666D01*
X152577647Y-96912523D01*
X152530028Y-97007761D01*
X152434790Y-97055380D01*
X152387171Y-97055380D01*
X152291933Y-97007761D01*
X152244314Y-96912523D01*
X152244314Y-96769666D01*
X152291933Y-96674428D01*
X152863361Y-95817285D02*
X152910980Y-95912523D01*
X152910980Y-96103000D01*
X152863361Y-96198238D01*
X152768123Y-96245857D01*
X152387171Y-96245857D01*
X152291933Y-96198238D01*
X152244314Y-96103000D01*
X152244314Y-95912523D01*
X152291933Y-95817285D01*
X152387171Y-95769666D01*
X152482409Y-95769666D01*
X152577647Y-96245857D01*
X152910980Y-94912523D02*
X151910980Y-94912523D01*
X152863361Y-94912523D02*
X152910980Y-95007761D01*
X152910980Y-95198238D01*
X152863361Y-95293476D01*
X152815742Y-95341095D01*
X152720504Y-95388714D01*
X152434790Y-95388714D01*
X152339552Y-95341095D01*
X152291933Y-95293476D01*
X152244314Y-95198238D01*
X152244314Y-95007761D01*
X152291933Y-94912523D01*
X152910980Y-93674428D02*
X151910980Y-93674428D01*
X152291933Y-93674428D02*
X152244314Y-93579190D01*
X152244314Y-93388714D01*
X152291933Y-93293476D01*
X152339552Y-93245857D01*
X152434790Y-93198238D01*
X152720504Y-93198238D01*
X152815742Y-93245857D01*
X152863361Y-93293476D01*
X152910980Y-93388714D01*
X152910980Y-93579190D01*
X152863361Y-93674428D01*
X151958600Y-92245857D02*
X151910980Y-92341095D01*
X151910980Y-92483952D01*
X151958600Y-92626809D01*
X152053838Y-92722047D01*
X152149076Y-92769666D01*
X152339552Y-92817285D01*
X152482409Y-92817285D01*
X152672885Y-92769666D01*
X152768123Y-92722047D01*
X152863361Y-92626809D01*
X152910980Y-92483952D01*
X152910980Y-92388714D01*
X152863361Y-92245857D01*
X152815742Y-92198238D01*
X152482409Y-92198238D01*
X152482409Y-92388714D01*
X152863361Y-91388714D02*
X152910980Y-91483952D01*
X152910980Y-91674428D01*
X152863361Y-91769666D01*
X152768123Y-91817285D01*
X152387171Y-91817285D01*
X152291933Y-91769666D01*
X152244314Y-91674428D01*
X152244314Y-91483952D01*
X152291933Y-91388714D01*
X152387171Y-91341095D01*
X152482409Y-91341095D01*
X152577647Y-91817285D01*
X152910980Y-90912523D02*
X152244314Y-90912523D01*
X151910980Y-90912523D02*
X151958600Y-90960142D01*
X152006219Y-90912523D01*
X151958600Y-90864904D01*
X151910980Y-90912523D01*
X152006219Y-90912523D01*
X152244314Y-90007761D02*
X153053838Y-90007761D01*
X153149076Y-90055380D01*
X153196695Y-90103000D01*
X153244314Y-90198238D01*
X153244314Y-90341095D01*
X153196695Y-90436333D01*
X152863361Y-90007761D02*
X152910980Y-90103000D01*
X152910980Y-90293476D01*
X152863361Y-90388714D01*
X152815742Y-90436333D01*
X152720504Y-90483952D01*
X152434790Y-90483952D01*
X152339552Y-90436333D01*
X152291933Y-90388714D01*
X152244314Y-90293476D01*
X152244314Y-90103000D01*
X152291933Y-90007761D01*
X152910980Y-89531571D02*
X152244314Y-89531571D01*
X151910980Y-89531571D02*
X151958600Y-89579190D01*
X152006219Y-89531571D01*
X151958600Y-89483952D01*
X151910980Y-89531571D01*
X152006219Y-89531571D01*
X152863361Y-88674428D02*
X152910980Y-88769666D01*
X152910980Y-88960142D01*
X152863361Y-89055380D01*
X152768123Y-89103000D01*
X152387171Y-89103000D01*
X152291933Y-89055380D01*
X152244314Y-88960142D01*
X152244314Y-88769666D01*
X152291933Y-88674428D01*
X152387171Y-88626809D01*
X152482409Y-88626809D01*
X152577647Y-89103000D01*
X152910980Y-87626809D02*
X152434790Y-87960142D01*
X152910980Y-88198238D02*
X151910980Y-88198238D01*
X151910980Y-87817285D01*
X151958600Y-87722047D01*
X152006219Y-87674428D01*
X152101457Y-87626809D01*
X152244314Y-87626809D01*
X152339552Y-87674428D01*
X152387171Y-87722047D01*
X152434790Y-87817285D01*
X152434790Y-88198238D01*
X152910980Y-86769666D02*
X152387171Y-86769666D01*
X152291933Y-86817285D01*
X152244314Y-86912523D01*
X152244314Y-87103000D01*
X152291933Y-87198238D01*
X152863361Y-86769666D02*
X152910980Y-86864904D01*
X152910980Y-87103000D01*
X152863361Y-87198238D01*
X152768123Y-87245857D01*
X152672885Y-87245857D01*
X152577647Y-87198238D01*
X152530028Y-87103000D01*
X152530028Y-86864904D01*
X152482409Y-86769666D01*
X152910980Y-86293476D02*
X151910980Y-86293476D01*
X152530028Y-86198238D02*
X152910980Y-85912523D01*
X152244314Y-85912523D02*
X152625266Y-86293476D01*
X152244314Y-85055380D02*
X152910980Y-85055380D01*
X152244314Y-85483952D02*
X152768123Y-85483952D01*
X152863361Y-85436333D01*
X152910980Y-85341095D01*
X152910980Y-85198238D01*
X152863361Y-85103000D01*
X152815742Y-85055380D01*
X153854314Y-108864904D02*
X154854314Y-108864904D01*
X153901933Y-108864904D02*
X153854314Y-108769666D01*
X153854314Y-108579190D01*
X153901933Y-108483952D01*
X153949552Y-108436333D01*
X154044790Y-108388714D01*
X154330504Y-108388714D01*
X154425742Y-108436333D01*
X154473361Y-108483952D01*
X154520980Y-108579190D01*
X154520980Y-108769666D01*
X154473361Y-108864904D01*
X154520980Y-107960142D02*
X153854314Y-107960142D01*
X154044790Y-107960142D02*
X153949552Y-107912523D01*
X153901933Y-107864904D01*
X153854314Y-107769666D01*
X153854314Y-107674428D01*
X154520980Y-107198238D02*
X154473361Y-107293476D01*
X154425742Y-107341095D01*
X154330504Y-107388714D01*
X154044790Y-107388714D01*
X153949552Y-107341095D01*
X153901933Y-107293476D01*
X153854314Y-107198238D01*
X153854314Y-107055380D01*
X153901933Y-106960142D01*
X153949552Y-106912523D01*
X154044790Y-106864904D01*
X154330504Y-106864904D01*
X154425742Y-106912523D01*
X154473361Y-106960142D01*
X154520980Y-107055380D01*
X154520980Y-107198238D01*
X153854314Y-106579190D02*
X153854314Y-106198238D01*
X153520980Y-106436333D02*
X154378123Y-106436333D01*
X154473361Y-106388714D01*
X154520980Y-106293476D01*
X154520980Y-106198238D01*
X154520980Y-105722047D02*
X154473361Y-105817285D01*
X154425742Y-105864904D01*
X154330504Y-105912523D01*
X154044790Y-105912523D01*
X153949552Y-105864904D01*
X153901933Y-105817285D01*
X153854314Y-105722047D01*
X153854314Y-105579190D01*
X153901933Y-105483952D01*
X153949552Y-105436333D01*
X154044790Y-105388714D01*
X154330504Y-105388714D01*
X154425742Y-105436333D01*
X154473361Y-105483952D01*
X154520980Y-105579190D01*
X154520980Y-105722047D01*
X153854314Y-105103000D02*
X153854314Y-104722047D01*
X153520980Y-104960142D02*
X154378123Y-104960142D01*
X154473361Y-104912523D01*
X154520980Y-104817285D01*
X154520980Y-104722047D01*
X153854314Y-104483952D02*
X154520980Y-104245857D01*
X153854314Y-104007761D02*
X154520980Y-104245857D01*
X154759076Y-104341095D01*
X154806695Y-104388714D01*
X154854314Y-104483952D01*
X153854314Y-103626809D02*
X154854314Y-103626809D01*
X153901933Y-103626809D02*
X153854314Y-103531571D01*
X153854314Y-103341095D01*
X153901933Y-103245857D01*
X153949552Y-103198238D01*
X154044790Y-103150619D01*
X154330504Y-103150619D01*
X154425742Y-103198238D01*
X154473361Y-103245857D01*
X154520980Y-103341095D01*
X154520980Y-103531571D01*
X154473361Y-103626809D01*
X154473361Y-102341095D02*
X154520980Y-102436333D01*
X154520980Y-102626809D01*
X154473361Y-102722047D01*
X154378123Y-102769666D01*
X153997171Y-102769666D01*
X153901933Y-102722047D01*
X153854314Y-102626809D01*
X153854314Y-102436333D01*
X153901933Y-102341095D01*
X153997171Y-102293476D01*
X154092409Y-102293476D01*
X154187647Y-102769666D01*
X154520980Y-101103000D02*
X153520980Y-101103000D01*
X153901933Y-101103000D02*
X153854314Y-101007761D01*
X153854314Y-100817285D01*
X153901933Y-100722047D01*
X153949552Y-100674428D01*
X154044790Y-100626809D01*
X154330504Y-100626809D01*
X154425742Y-100674428D01*
X154473361Y-100722047D01*
X154520980Y-100817285D01*
X154520980Y-101007761D01*
X154473361Y-101103000D01*
X154520980Y-100055380D02*
X154473361Y-100150619D01*
X154425742Y-100198238D01*
X154330504Y-100245857D01*
X154044790Y-100245857D01*
X153949552Y-100198238D01*
X153901933Y-100150619D01*
X153854314Y-100055380D01*
X153854314Y-99912523D01*
X153901933Y-99817285D01*
X153949552Y-99769666D01*
X154044790Y-99722047D01*
X154330504Y-99722047D01*
X154425742Y-99769666D01*
X154473361Y-99817285D01*
X154520980Y-99912523D01*
X154520980Y-100055380D01*
X154520980Y-98864904D02*
X153997171Y-98864904D01*
X153901933Y-98912523D01*
X153854314Y-99007761D01*
X153854314Y-99198238D01*
X153901933Y-99293476D01*
X154473361Y-98864904D02*
X154520980Y-98960142D01*
X154520980Y-99198238D01*
X154473361Y-99293476D01*
X154378123Y-99341095D01*
X154282885Y-99341095D01*
X154187647Y-99293476D01*
X154140028Y-99198238D01*
X154140028Y-98960142D01*
X154092409Y-98864904D01*
X154520980Y-98388714D02*
X153854314Y-98388714D01*
X154044790Y-98388714D02*
X153949552Y-98341095D01*
X153901933Y-98293476D01*
X153854314Y-98198238D01*
X153854314Y-98103000D01*
X154520980Y-97341095D02*
X153520980Y-97341095D01*
X154473361Y-97341095D02*
X154520980Y-97436333D01*
X154520980Y-97626809D01*
X154473361Y-97722047D01*
X154425742Y-97769666D01*
X154330504Y-97817285D01*
X154044790Y-97817285D01*
X153949552Y-97769666D01*
X153901933Y-97722047D01*
X153854314Y-97626809D01*
X153854314Y-97436333D01*
X153901933Y-97341095D01*
X153520980Y-96245857D02*
X154520980Y-95912523D01*
X153520980Y-95579190D01*
X154520980Y-94722047D02*
X154520980Y-95293476D01*
X154520980Y-95007761D02*
X153520980Y-95007761D01*
X153663838Y-95103000D01*
X153759076Y-95198238D01*
X153806695Y-95293476D01*
X154425742Y-94293476D02*
X154473361Y-94245857D01*
X154520980Y-94293476D01*
X154473361Y-94341095D01*
X154425742Y-94293476D01*
X154520980Y-94293476D01*
X154520980Y-93769666D02*
X154520980Y-93579190D01*
X154473361Y-93483952D01*
X154425742Y-93436333D01*
X154282885Y-93341095D01*
X154092409Y-93293476D01*
X153711457Y-93293476D01*
X153616219Y-93341095D01*
X153568600Y-93388714D01*
X153520980Y-93483952D01*
X153520980Y-93674428D01*
X153568600Y-93769666D01*
X153616219Y-93817285D01*
X153711457Y-93864904D01*
X153949552Y-93864904D01*
X154044790Y-93817285D01*
X154092409Y-93769666D01*
X154140028Y-93674428D01*
X154140028Y-93483952D01*
X154092409Y-93388714D01*
X154044790Y-93341095D01*
X153949552Y-93293476D01*
X154425742Y-92864904D02*
X154473361Y-92817285D01*
X154520980Y-92864904D01*
X154473361Y-92912523D01*
X154425742Y-92864904D01*
X154520980Y-92864904D01*
X153520980Y-91912523D02*
X153520980Y-92388714D01*
X153997171Y-92436333D01*
X153949552Y-92388714D01*
X153901933Y-92293476D01*
X153901933Y-92055380D01*
X153949552Y-91960142D01*
X153997171Y-91912523D01*
X154092409Y-91864904D01*
X154330504Y-91864904D01*
X154425742Y-91912523D01*
X154473361Y-91960142D01*
X154520980Y-92055380D01*
X154520980Y-92293476D01*
X154473361Y-92388714D01*
X154425742Y-92436333D01*
D12*
X163621580Y-88133523D02*
X162621580Y-88133523D01*
X163335866Y-87800190D01*
X162621580Y-87466857D01*
X163621580Y-87466857D01*
X162621580Y-86514476D02*
X162621580Y-86990666D01*
X163097771Y-87038285D01*
X163050152Y-86990666D01*
X163002533Y-86895428D01*
X163002533Y-86657333D01*
X163050152Y-86562095D01*
X163097771Y-86514476D01*
X163193009Y-86466857D01*
X163431104Y-86466857D01*
X163526342Y-86514476D01*
X163573961Y-86562095D01*
X163621580Y-86657333D01*
X163621580Y-86895428D01*
X163573961Y-86990666D01*
X163526342Y-87038285D01*
D15*
X178530265Y-82685279D02*
X177955741Y-83087446D01*
X178530265Y-83374708D02*
X177323765Y-83374708D01*
X177323765Y-82915089D01*
X177381218Y-82800184D01*
X177438670Y-82742732D01*
X177553575Y-82685279D01*
X177725932Y-82685279D01*
X177840837Y-82742732D01*
X177898289Y-82800184D01*
X177955741Y-82915089D01*
X177955741Y-83374708D01*
X177438670Y-82225660D02*
X177381218Y-82168208D01*
X177323765Y-82053303D01*
X177323765Y-81766041D01*
X177381218Y-81651136D01*
X177438670Y-81593684D01*
X177553575Y-81536232D01*
X177668479Y-81536232D01*
X177840837Y-81593684D01*
X178530265Y-82283112D01*
X178530265Y-81536232D01*
X185530867Y-82948547D02*
X184841439Y-82948547D01*
X185186153Y-82948547D02*
X185186153Y-81742047D01*
X185071248Y-81914404D01*
X184956344Y-82029309D01*
X184841439Y-82086761D01*
X186047939Y-82948547D02*
X186047939Y-81742047D01*
X186737367Y-82948547D02*
X186220296Y-82259119D01*
X186737367Y-81742047D02*
X186047939Y-82431476D01*
D12*
X95549980Y-126566904D02*
X94549980Y-126566904D01*
X95026171Y-126566904D02*
X95026171Y-125995476D01*
X95549980Y-125995476D02*
X94549980Y-125995476D01*
X95549980Y-124995476D02*
X95549980Y-125566904D01*
X95549980Y-125281190D02*
X94549980Y-125281190D01*
X94692838Y-125376428D01*
X94788076Y-125471666D01*
X94835695Y-125566904D01*
X209310619Y-86926904D02*
X209263000Y-87022142D01*
X209167761Y-87117380D01*
X209024904Y-87260238D01*
X208977285Y-87355476D01*
X208977285Y-87450714D01*
X209215380Y-87403095D02*
X209167761Y-87498333D01*
X209072523Y-87593571D01*
X208882047Y-87641190D01*
X208548714Y-87641190D01*
X208358238Y-87593571D01*
X208263000Y-87498333D01*
X208215380Y-87403095D01*
X208215380Y-87212619D01*
X208263000Y-87117380D01*
X208358238Y-87022142D01*
X208548714Y-86974523D01*
X208882047Y-86974523D01*
X209072523Y-87022142D01*
X209167761Y-87117380D01*
X209215380Y-87212619D01*
X209215380Y-87403095D01*
X209215380Y-86545952D02*
X208215380Y-86545952D01*
X208263000Y-84784047D02*
X208215380Y-84879285D01*
X208215380Y-85022142D01*
X208263000Y-85165000D01*
X208358238Y-85260238D01*
X208453476Y-85307857D01*
X208643952Y-85355476D01*
X208786809Y-85355476D01*
X208977285Y-85307857D01*
X209072523Y-85260238D01*
X209167761Y-85165000D01*
X209215380Y-85022142D01*
X209215380Y-84926904D01*
X209167761Y-84784047D01*
X209120142Y-84736428D01*
X208786809Y-84736428D01*
X208786809Y-84926904D01*
X209215380Y-84307857D02*
X208215380Y-84307857D01*
X209215380Y-83736428D01*
X208215380Y-83736428D01*
X209215380Y-83260238D02*
X208215380Y-83260238D01*
X208215380Y-83022142D01*
X208263000Y-82879285D01*
X208358238Y-82784047D01*
X208453476Y-82736428D01*
X208643952Y-82688809D01*
X208786809Y-82688809D01*
X208977285Y-82736428D01*
X209072523Y-82784047D01*
X209167761Y-82879285D01*
X209215380Y-83022142D01*
X209215380Y-83260238D01*
X174607600Y-83593285D02*
X174559980Y-83688523D01*
X174559980Y-83831380D01*
X174607600Y-83974238D01*
X174702838Y-84069476D01*
X174798076Y-84117095D01*
X174988552Y-84164714D01*
X175131409Y-84164714D01*
X175321885Y-84117095D01*
X175417123Y-84069476D01*
X175512361Y-83974238D01*
X175559980Y-83831380D01*
X175559980Y-83736142D01*
X175512361Y-83593285D01*
X175464742Y-83545666D01*
X175131409Y-83545666D01*
X175131409Y-83736142D01*
X175559980Y-83117095D02*
X174559980Y-83117095D01*
X174559980Y-82736142D01*
X174607600Y-82640904D01*
X174655219Y-82593285D01*
X174750457Y-82545666D01*
X174893314Y-82545666D01*
X174988552Y-82593285D01*
X175036171Y-82640904D01*
X175083790Y-82736142D01*
X175083790Y-83117095D01*
X175512361Y-82164714D02*
X175559980Y-82021857D01*
X175559980Y-81783761D01*
X175512361Y-81688523D01*
X175464742Y-81640904D01*
X175369504Y-81593285D01*
X175274266Y-81593285D01*
X175179028Y-81640904D01*
X175131409Y-81688523D01*
X175083790Y-81783761D01*
X175036171Y-81974238D01*
X174988552Y-82069476D01*
X174940933Y-82117095D01*
X174845695Y-82164714D01*
X174750457Y-82164714D01*
X174655219Y-82117095D01*
X174607600Y-82069476D01*
X174559980Y-81974238D01*
X174559980Y-81736142D01*
X174607600Y-81593285D01*
D16*
X175183195Y-77633452D02*
X175240647Y-77461095D01*
X175240647Y-77173833D01*
X175183195Y-77058928D01*
X175125742Y-77001476D01*
X175010838Y-76944023D01*
X174895933Y-76944023D01*
X174781028Y-77001476D01*
X174723576Y-77058928D01*
X174666123Y-77173833D01*
X174608671Y-77403642D01*
X174551219Y-77518547D01*
X174493766Y-77576000D01*
X174378861Y-77633452D01*
X174263957Y-77633452D01*
X174149052Y-77576000D01*
X174091600Y-77518547D01*
X174034147Y-77403642D01*
X174034147Y-77116381D01*
X174091600Y-76944023D01*
X174034147Y-76541857D02*
X175240647Y-76254595D01*
X174378861Y-76024785D01*
X175240647Y-75794976D01*
X174034147Y-75507714D01*
X175240647Y-74416119D02*
X175240647Y-75105547D01*
X175240647Y-74760833D02*
X174034147Y-74760833D01*
X174206504Y-74875738D01*
X174321409Y-74990642D01*
X174378861Y-75105547D01*
D15*
X195509242Y-86241279D02*
X195566695Y-86298732D01*
X195624147Y-86471089D01*
X195624147Y-86585993D01*
X195566695Y-86758351D01*
X195451790Y-86873255D01*
X195336885Y-86930708D01*
X195107076Y-86988160D01*
X194934719Y-86988160D01*
X194704909Y-86930708D01*
X194590004Y-86873255D01*
X194475100Y-86758351D01*
X194417647Y-86585993D01*
X194417647Y-86471089D01*
X194475100Y-86298732D01*
X194532552Y-86241279D01*
X194532552Y-85781660D02*
X194475100Y-85724208D01*
X194417647Y-85609303D01*
X194417647Y-85322041D01*
X194475100Y-85207136D01*
X194532552Y-85149684D01*
X194647457Y-85092232D01*
X194762361Y-85092232D01*
X194934719Y-85149684D01*
X195624147Y-85839112D01*
X195624147Y-85092232D01*
X203201814Y-87695732D02*
X204006147Y-87695732D01*
X202742195Y-87982993D02*
X203603980Y-88270255D01*
X203603980Y-87523374D01*
X203891242Y-87063755D02*
X203948695Y-87006303D01*
X204006147Y-87063755D01*
X203948695Y-87121208D01*
X203891242Y-87063755D01*
X204006147Y-87063755D01*
X202799647Y-86604136D02*
X202799647Y-85799803D01*
X204006147Y-86316874D01*
X203201814Y-84823112D02*
X204006147Y-84823112D01*
X203201814Y-85340184D02*
X203833790Y-85340184D01*
X203948695Y-85282732D01*
X204006147Y-85167827D01*
X204006147Y-84995470D01*
X203948695Y-84880565D01*
X203891242Y-84823112D01*
X203201814Y-84420946D02*
X203201814Y-83961327D01*
X204006147Y-84248589D02*
X202972004Y-84248589D01*
X202857100Y-84191136D01*
X202799647Y-84076232D01*
X202799647Y-83961327D01*
D12*
X201722380Y-99642904D02*
X200722380Y-99642904D01*
X201198571Y-99642904D02*
X201198571Y-99071476D01*
X201722380Y-99071476D02*
X200722380Y-99071476D01*
X201150952Y-98452428D02*
X201103333Y-98547666D01*
X201055714Y-98595285D01*
X200960476Y-98642904D01*
X200912857Y-98642904D01*
X200817619Y-98595285D01*
X200770000Y-98547666D01*
X200722380Y-98452428D01*
X200722380Y-98261952D01*
X200770000Y-98166714D01*
X200817619Y-98119095D01*
X200912857Y-98071476D01*
X200960476Y-98071476D01*
X201055714Y-98119095D01*
X201103333Y-98166714D01*
X201150952Y-98261952D01*
X201150952Y-98452428D01*
X201198571Y-98547666D01*
X201246190Y-98595285D01*
X201341428Y-98642904D01*
X201531904Y-98642904D01*
X201627142Y-98595285D01*
X201674761Y-98547666D01*
X201722380Y-98452428D01*
X201722380Y-98261952D01*
X201674761Y-98166714D01*
X201627142Y-98119095D01*
X201531904Y-98071476D01*
X201341428Y-98071476D01*
X201246190Y-98119095D01*
X201198571Y-98166714D01*
X201150952Y-98261952D01*
X182290980Y-109802904D02*
X181290980Y-109802904D01*
X181767171Y-109802904D02*
X181767171Y-109231476D01*
X182290980Y-109231476D02*
X181290980Y-109231476D01*
X181290980Y-108850523D02*
X181290980Y-108231476D01*
X181671933Y-108564809D01*
X181671933Y-108421952D01*
X181719552Y-108326714D01*
X181767171Y-108279095D01*
X181862409Y-108231476D01*
X182100504Y-108231476D01*
X182195742Y-108279095D01*
X182243361Y-108326714D01*
X182290980Y-108421952D01*
X182290980Y-108707666D01*
X182243361Y-108802904D01*
X182195742Y-108850523D01*
X210453219Y-112041142D02*
X210405600Y-112136380D01*
X210310361Y-112231619D01*
X210167504Y-112374476D01*
X210119885Y-112469714D01*
X210119885Y-112564952D01*
X210357980Y-112517333D02*
X210310361Y-112612571D01*
X210215123Y-112707809D01*
X210024647Y-112755428D01*
X209691314Y-112755428D01*
X209500838Y-112707809D01*
X209405600Y-112612571D01*
X209357980Y-112517333D01*
X209357980Y-112326857D01*
X209405600Y-112231619D01*
X209500838Y-112136380D01*
X209691314Y-112088761D01*
X210024647Y-112088761D01*
X210215123Y-112136380D01*
X210310361Y-112231619D01*
X210357980Y-112326857D01*
X210357980Y-112517333D01*
X210357980Y-111660190D02*
X209357980Y-111660190D01*
X210357980Y-110422095D02*
X209357980Y-110422095D01*
X209357980Y-110041142D01*
X209405600Y-109945904D01*
X209453219Y-109898285D01*
X209548457Y-109850666D01*
X209691314Y-109850666D01*
X209786552Y-109898285D01*
X209834171Y-109945904D01*
X209881790Y-110041142D01*
X209881790Y-110422095D01*
X210357980Y-109279238D02*
X210310361Y-109374476D01*
X210215123Y-109422095D01*
X209357980Y-109422095D01*
X209691314Y-108469714D02*
X210357980Y-108469714D01*
X209691314Y-108898285D02*
X210215123Y-108898285D01*
X210310361Y-108850666D01*
X210357980Y-108755428D01*
X210357980Y-108612571D01*
X210310361Y-108517333D01*
X210262742Y-108469714D01*
X210310361Y-108041142D02*
X210357980Y-107945904D01*
X210357980Y-107755428D01*
X210310361Y-107660190D01*
X210215123Y-107612571D01*
X210167504Y-107612571D01*
X210072266Y-107660190D01*
X210024647Y-107755428D01*
X210024647Y-107898285D01*
X209977028Y-107993523D01*
X209881790Y-108041142D01*
X209834171Y-108041142D01*
X209738933Y-107993523D01*
X209691314Y-107898285D01*
X209691314Y-107755428D01*
X209738933Y-107660190D01*
X177464980Y-125931904D02*
X176464980Y-125931904D01*
X176941171Y-125931904D02*
X176941171Y-125360476D01*
X177464980Y-125360476D02*
X176464980Y-125360476D01*
X176798314Y-124455714D02*
X177464980Y-124455714D01*
X176417361Y-124693809D02*
X177131647Y-124931904D01*
X177131647Y-124312857D01*
D15*
X178530265Y-85760887D02*
X177955741Y-86163053D01*
X178530265Y-86450315D02*
X177323765Y-86450315D01*
X177323765Y-85990696D01*
X177381218Y-85875791D01*
X177438670Y-85818339D01*
X177553575Y-85760887D01*
X177725932Y-85760887D01*
X177840837Y-85818339D01*
X177898289Y-85875791D01*
X177955741Y-85990696D01*
X177955741Y-86450315D01*
X178530265Y-84611839D02*
X178530265Y-85301267D01*
X178530265Y-84956553D02*
X177323765Y-84956553D01*
X177496122Y-85071458D01*
X177611027Y-85186363D01*
X177668479Y-85301267D01*
X184674736Y-86504547D02*
X184904546Y-86504547D01*
X185019451Y-86447095D01*
X185076903Y-86389642D01*
X185191808Y-86217285D01*
X185249260Y-85987476D01*
X185249260Y-85527857D01*
X185191808Y-85412952D01*
X185134355Y-85355500D01*
X185019451Y-85298047D01*
X184789641Y-85298047D01*
X184674736Y-85355500D01*
X184617284Y-85412952D01*
X184559832Y-85527857D01*
X184559832Y-85815119D01*
X184617284Y-85930023D01*
X184674736Y-85987476D01*
X184789641Y-86044928D01*
X185019451Y-86044928D01*
X185134355Y-85987476D01*
X185191808Y-85930023D01*
X185249260Y-85815119D01*
X185766332Y-86504547D02*
X185766332Y-85298047D01*
X185881236Y-86044928D02*
X186225951Y-86504547D01*
X186225951Y-85700214D02*
X185766332Y-86159833D01*
D12*
X209215380Y-121486904D02*
X208215380Y-121486904D01*
X208691571Y-121486904D02*
X208691571Y-120915476D01*
X209215380Y-120915476D02*
X208215380Y-120915476D01*
X208215380Y-119963095D02*
X208215380Y-120439285D01*
X208691571Y-120486904D01*
X208643952Y-120439285D01*
X208596333Y-120344047D01*
X208596333Y-120105952D01*
X208643952Y-120010714D01*
X208691571Y-119963095D01*
X208786809Y-119915476D01*
X209024904Y-119915476D01*
X209120142Y-119963095D01*
X209167761Y-120010714D01*
X209215380Y-120105952D01*
X209215380Y-120344047D01*
X209167761Y-120439285D01*
X209120142Y-120486904D01*
X95549980Y-72591904D02*
X94549980Y-72591904D01*
X95026171Y-72591904D02*
X95026171Y-72020476D01*
X95549980Y-72020476D02*
X94549980Y-72020476D01*
X94645219Y-71591904D02*
X94597600Y-71544285D01*
X94549980Y-71449047D01*
X94549980Y-71210952D01*
X94597600Y-71115714D01*
X94645219Y-71068095D01*
X94740457Y-71020476D01*
X94835695Y-71020476D01*
X94978552Y-71068095D01*
X95549980Y-71639523D01*
X95549980Y-71020476D01*
D17*
X183490000Y-83260000D02*
X183363000Y-83387000D01*
X182728000Y-83133000D02*
X182728000Y-81355000D01*
X188824000Y-83387000D02*
X188443000Y-83387000D01*
X189078000Y-83133000D02*
X189078000Y-81355000D01*
X188316000Y-81228000D02*
X188443000Y-81101000D01*
X188316000Y-83260000D02*
X183490000Y-83260000D01*
X182982000Y-81101000D02*
X183363000Y-81101000D01*
X188316000Y-83260000D02*
X188443000Y-83387000D01*
X183490000Y-81228000D02*
X183363000Y-81101000D01*
X182982000Y-83387000D02*
X183363000Y-83387000D01*
X188316000Y-81228000D02*
X183490000Y-81228000D01*
X188824000Y-81101000D02*
X188443000Y-81101000D01*
X189078000Y-83133000D02*
G75*
G02*
X188824000Y-83387000I-254000J0D01*
G01*
X189078000Y-81355000D02*
G75*
G03*
X188824000Y-81101000I-254000J0D01*
G01*
X182982000Y-83387000D02*
G75*
G02*
X182728000Y-83133000I0J254000D01*
G01*
X182982000Y-81101000D02*
G75*
G03*
X182728000Y-81355000I0J-254000D01*
G01*
G36*
X189941600Y-82548800D02*
G01*
X189078000Y-82548800D01*
X189078000Y-81939200D01*
X189941600Y-81939200D01*
X189941600Y-82548800D01*
G37*
G36*
X182728000Y-82548800D02*
G01*
X181864400Y-82548800D01*
X181864400Y-81939200D01*
X182728000Y-81939200D01*
X182728000Y-82548800D01*
G37*
D18*
X210033000Y-104155000D02*
X211363000Y-104155000D01*
X208763000Y-104155000D02*
X208763000Y-106815000D01*
X211363000Y-104155000D02*
X211363000Y-105485000D01*
X208763000Y-106815000D02*
X206163000Y-106815000D01*
X208763000Y-104155000D02*
X206163000Y-104155000D01*
X206163000Y-104155000D02*
X206163000Y-106815000D01*
X161833000Y-79830000D02*
X161833000Y-79070000D01*
X170493000Y-78120000D02*
X167833000Y-78120000D01*
X161833000Y-81610000D02*
X167833000Y-81610000D01*
X167833000Y-86790000D02*
X161833000Y-86790000D01*
X170890071Y-84910000D02*
X170493000Y-84910000D01*
X167833000Y-87150000D02*
X161833000Y-87150000D01*
X161833000Y-79070000D02*
X167833000Y-79070000D01*
X161833000Y-86690000D02*
X167833000Y-86690000D01*
X167833000Y-87030000D02*
X161833000Y-87030000D01*
X161833000Y-84150000D02*
X167833000Y-84150000D01*
X173203000Y-88340000D02*
X171933000Y-88340000D01*
X170493000Y-83260000D02*
X167833000Y-83260000D01*
X170823000Y-86690000D02*
X170493000Y-86690000D01*
X167833000Y-79830000D02*
X161833000Y-79830000D01*
X170493000Y-85800000D02*
X167833000Y-85800000D01*
X173203000Y-87070000D02*
X173203000Y-88340000D01*
X167833000Y-82370000D02*
X161833000Y-82370000D01*
X167833000Y-87450000D02*
X161833000Y-87450000D01*
X167833000Y-87390000D02*
X161833000Y-87390000D01*
X170890071Y-84150000D02*
X170493000Y-84150000D01*
X170493000Y-88400000D02*
X170493000Y-78120000D01*
X170493000Y-80720000D02*
X167833000Y-80720000D01*
X170890071Y-79070000D02*
X170493000Y-79070000D01*
X170890071Y-82370000D02*
X170493000Y-82370000D01*
X167833000Y-78120000D02*
X167833000Y-88400000D01*
X161833000Y-82370000D02*
X161833000Y-81610000D01*
X167833000Y-84910000D02*
X161833000Y-84910000D01*
X167833000Y-88400000D02*
X170493000Y-88400000D01*
X167833000Y-86910000D02*
X161833000Y-86910000D01*
X170823000Y-87450000D02*
X170493000Y-87450000D01*
X170890071Y-79830000D02*
X170493000Y-79830000D01*
X170890071Y-81610000D02*
X170493000Y-81610000D01*
X161833000Y-87450000D02*
X161833000Y-86690000D01*
X161833000Y-84910000D02*
X161833000Y-84150000D01*
X167833000Y-87270000D02*
X161833000Y-87270000D01*
D19*
X190244000Y-78948000D02*
X190244000Y-77848000D01*
X177244000Y-73348000D02*
X177244000Y-74448000D01*
X180744000Y-73348000D02*
X181994000Y-73348000D01*
X181994000Y-73348000D02*
X185494000Y-73348000D01*
X186744000Y-74548000D02*
X180744000Y-74548000D01*
X190244000Y-73348000D02*
X190244000Y-74448000D01*
X190244000Y-78948000D02*
X184744000Y-78948000D01*
X182744000Y-77948000D02*
X182744000Y-78948000D01*
X185494000Y-73348000D02*
X185494000Y-70348000D01*
X184744000Y-78948000D02*
X184744000Y-77948000D01*
X182744000Y-78948000D02*
X177244000Y-78948000D01*
X186744000Y-73348000D02*
X186744000Y-74548000D01*
X181994000Y-70348000D02*
X181994000Y-73348000D01*
X185494000Y-70348000D02*
X181994000Y-70348000D01*
X177244000Y-78948000D02*
X177244000Y-77848000D01*
X186744000Y-73348000D02*
X190244000Y-73348000D01*
X184744000Y-78948000D02*
X182744000Y-78948000D01*
X185494000Y-73348000D02*
X186744000Y-73348000D01*
X177244000Y-73348000D02*
X180744000Y-73348000D01*
X180744000Y-74548000D02*
X180744000Y-73348000D01*
X184744000Y-77948000D02*
X182744000Y-77948000D01*
D20*
X199161800Y-86816000D02*
X199161800Y-85292000D01*
D17*
X197841000Y-84911000D02*
X201143000Y-84911000D01*
D20*
X199796800Y-86816000D02*
X199796800Y-85292000D01*
D17*
X197333000Y-85419000D02*
X197333000Y-86689000D01*
X197841000Y-87197000D02*
X201143000Y-87197000D01*
X201651000Y-85419000D02*
X201651000Y-86689000D01*
X201143000Y-84911000D02*
G75*
G02*
X201651000Y-85419000I0J-508000D01*
G01*
X201143000Y-87197000D02*
G75*
G03*
X201651000Y-86689000I0J508000D01*
G01*
X197333000Y-85419000D02*
G75*
G02*
X197841000Y-84911000I508000J0D01*
G01*
X197333000Y-86689000D02*
G75*
G03*
X197841000Y-87197000I508000J0D01*
G01*
D18*
X206163000Y-89169000D02*
X206163000Y-91829000D01*
X210033000Y-89169000D02*
X211363000Y-89169000D01*
X208763000Y-91829000D02*
X206163000Y-91829000D01*
X211363000Y-89169000D02*
X211363000Y-90499000D01*
X208763000Y-89169000D02*
X206163000Y-89169000D01*
X208763000Y-89169000D02*
X208763000Y-91829000D01*
X157836000Y-115451000D02*
X157836000Y-112791000D01*
X156566000Y-115451000D02*
X155236000Y-115451000D01*
X201076000Y-115451000D02*
X201076000Y-112791000D01*
X157836000Y-115451000D02*
X201076000Y-115451000D01*
X155236000Y-115451000D02*
X155236000Y-114121000D01*
X157836000Y-112791000D02*
X201076000Y-112791000D01*
X156439000Y-120658000D02*
X155109000Y-120658000D01*
X155109000Y-120658000D02*
X155109000Y-119328000D01*
X157709000Y-120658000D02*
X200949000Y-120658000D01*
X157709000Y-117998000D02*
X200949000Y-117998000D01*
X157709000Y-120658000D02*
X157709000Y-117998000D01*
X200949000Y-120658000D02*
X200949000Y-117998000D01*
D17*
X182982000Y-87197000D02*
X183363000Y-87197000D01*
X183490000Y-85038000D02*
X183363000Y-84911000D01*
X188316000Y-85038000D02*
X188443000Y-84911000D01*
X188824000Y-84911000D02*
X188443000Y-84911000D01*
X182982000Y-84911000D02*
X183363000Y-84911000D01*
X189078000Y-85165000D02*
X189078000Y-86943000D01*
X183490000Y-85038000D02*
X188316000Y-85038000D01*
X188316000Y-87070000D02*
X188443000Y-87197000D01*
X183490000Y-87070000D02*
X188316000Y-87070000D01*
X182728000Y-85165000D02*
X182728000Y-86943000D01*
X188824000Y-87197000D02*
X188443000Y-87197000D01*
X183490000Y-87070000D02*
X183363000Y-87197000D01*
X182728000Y-85165000D02*
G75*
G02*
X182982000Y-84911000I254000J0D01*
G01*
X182728000Y-86943000D02*
G75*
G03*
X182982000Y-87197000I254000J0D01*
G01*
X188824000Y-87197000D02*
G75*
G03*
X189078000Y-86943000I0J254000D01*
G01*
X188824000Y-84911000D02*
G75*
G02*
X189078000Y-85165000I0J-254000D01*
G01*
G36*
X189941600Y-86358800D02*
G01*
X189078000Y-86358800D01*
X189078000Y-85749200D01*
X189941600Y-85749200D01*
X189941600Y-86358800D01*
G37*
G36*
X182728000Y-86358800D02*
G01*
X181864400Y-86358800D01*
X181864400Y-85749200D01*
X182728000Y-85749200D01*
X182728000Y-86358800D01*
G37*
D18*
X156439000Y-118118000D02*
X155109000Y-118118000D01*
X157709000Y-118118000D02*
X200949000Y-118118000D01*
X155109000Y-118118000D02*
X155109000Y-116788000D01*
X157709000Y-115458000D02*
X200949000Y-115458000D01*
X157709000Y-118118000D02*
X157709000Y-115458000D01*
X200949000Y-118118000D02*
X200949000Y-115458000D01*
X155109000Y-123170000D02*
X155109000Y-121840000D01*
X200949000Y-123170000D02*
X200949000Y-120510000D01*
X157709000Y-120510000D02*
X200949000Y-120510000D01*
X156439000Y-123170000D02*
X155109000Y-123170000D01*
X157709000Y-123170000D02*
X157709000Y-120510000D01*
X157709000Y-123170000D02*
X200949000Y-123170000D01*
X183744000Y-91829000D02*
X181144000Y-91829000D01*
X183744000Y-89169000D02*
X181144000Y-89169000D01*
X181144000Y-89169000D02*
X181144000Y-91829000D01*
X183744000Y-89169000D02*
X183744000Y-91829000D01*
X185014000Y-89169000D02*
X186344000Y-89169000D01*
X186344000Y-89169000D02*
X186344000Y-90499000D01*
X186344000Y-104155000D02*
X186344000Y-105485000D01*
X183744000Y-106815000D02*
X181144000Y-106815000D01*
X185014000Y-104155000D02*
X186344000Y-104155000D01*
X183744000Y-104155000D02*
X181144000Y-104155000D01*
X181144000Y-104155000D02*
X181144000Y-106815000D01*
X183744000Y-104155000D02*
X183744000Y-106815000D01*
M02*
