M48
; DRILL file {KiCad 5.99.0-unknown-5127d6c77~91~ubuntu20.04.1} date Thu Oct  8 17:45:14 2020
; FORMAT={-:-/ absolute / inch / decimal}
; #@! TF.CreationDate,2020-10-08T17:45:14+09:00
; #@! TF.GenerationSoftware,Kicad,Pcbnew,5.99.0-unknown-5127d6c77~91~ubuntu20.04.1
; #@! TF.FileFunction,Plated,1,2,PTH
FMAT,2
INCH
T1C0.0157
T2C0.0315
T3C0.0320
T4C0.0394
T5C0.0720
T6C0.0866
%
G90
G05
T1
X4.9495Y-4.459
X6.5442Y-4.3358
T2
X7.1159Y-2.998
X7.234Y-2.998
X7.3521Y-2.998
T3
X7.119Y-3.388
X7.519Y-3.388
X7.804Y-3.388
X7.904Y-3.388
X7.119Y-3.238
X7.519Y-3.238
T4
X6.769Y-3.128
X6.769Y-3.228
X6.769Y-3.328
X6.769Y-3.428
X8.169Y-3.563
X8.269Y-3.563
X6.159Y-4.7969
X6.259Y-4.7969
X6.359Y-4.7969
X6.459Y-4.7969
X6.759Y-4.698
X6.559Y-4.7969
X6.659Y-4.7969
X7.359Y-4.7969
X6.859Y-4.698
X6.959Y-4.698
X7.059Y-4.698
X7.159Y-4.698
X7.259Y-4.698
X7.359Y-4.698
X7.459Y-4.698
X7.559Y-4.698
X7.659Y-4.698
X7.759Y-4.698
X7.859Y-4.698
X6.759Y-4.7969
X6.859Y-4.7969
X6.959Y-4.7969
X7.059Y-4.7969
X7.159Y-4.7969
X7.259Y-4.7969
X6.159Y-4.698
X6.259Y-4.698
X6.359Y-4.698
X6.459Y-4.698
X6.559Y-4.698
X6.659Y-4.698
X7.459Y-4.7969
X7.559Y-4.7969
X7.659Y-4.7969
X7.759Y-4.7969
X7.859Y-4.7969
X7.184Y-3.563
X7.284Y-3.563
X4.0946Y-4.5895
X4.0946Y-4.6895
X4.1946Y-4.5895
X4.1946Y-4.6895
X4.2946Y-4.5895
X4.2946Y-4.6895
X4.3946Y-4.5895
X4.3946Y-4.6895
X4.4946Y-4.5895
X4.4946Y-4.6895
X4.5946Y-4.5895
X4.5946Y-4.6895
X8.154Y-4.308
X6.559Y-4.598
X6.164Y-4.493
X6.264Y-4.493
X6.364Y-4.493
X6.464Y-4.493
X6.564Y-4.493
X6.664Y-4.493
X6.764Y-4.493
X6.864Y-4.493
X7.184Y-4.153
X7.284Y-4.153
X4.6946Y-4.5895
X4.6946Y-4.6895
X4.7946Y-4.5895
X4.7946Y-4.6895
X4.8946Y-4.5895
X4.8946Y-4.6895
X4.9946Y-4.5895
X4.9946Y-4.6895
X5.0946Y-4.5895
X5.0946Y-4.6895
X5.1946Y-4.5895
X5.1946Y-4.6895
X5.2946Y-4.5895
X5.2946Y-4.6895
X5.3946Y-4.5895
X5.3946Y-4.6895
X5.4946Y-4.5895
X5.4946Y-4.6895
X8.154Y-4.508
X6.159Y-4.598
X6.259Y-4.598
X6.359Y-4.598
X6.459Y-4.598
X6.659Y-4.598
X6.759Y-4.598
X6.859Y-4.598
X6.959Y-4.598
X7.059Y-4.598
X7.159Y-4.598
X7.259Y-4.598
X7.359Y-4.598
X7.459Y-4.598
X7.559Y-4.598
X7.659Y-4.598
X7.759Y-4.598
X8.154Y-4.408
X6.964Y-4.493
X7.064Y-4.493
X7.164Y-4.493
X7.264Y-4.493
X7.364Y-4.493
X7.464Y-4.493
X7.564Y-4.493
X7.664Y-4.493
X7.764Y-4.493
X7.859Y-4.598
X7.864Y-4.493
X8.169Y-4.153
X8.269Y-4.153
T5
X5.7382Y-3.0176
X6.0039Y-2.9176
X6.0039Y-3.1176
X7.8842Y-2.9183
X7.8842Y-3.1183
X8.1498Y-3.0183
T6
X6.988Y-2.998
X7.4801Y-2.998
T0
M30
