M48
INCH,TZ
T1C0.0157
T2C0.0315
T3C0.0394
T4C0.0720
T5C0.0866
%
G90
G05
T1
X48440Y-42780
X49390Y-44280
X61122Y-43308
X68161Y-39250
T2
X62381Y-44948
X62381Y-45736
X62381Y-46523
X62381Y-47311
X71459Y-29070
X72640Y-29070
X73821Y-29070
T3
X41690Y-45830
X41690Y-46830
X42690Y-45830
X42690Y-46830
X43690Y-45830
X43690Y-46830
X44690Y-45830
X44690Y-46830
X45690Y-45830
X45690Y-46830
X46690Y-45830
X46690Y-46830
X47690Y-45830
X47690Y-46830
X48690Y-45830
X48690Y-46830
X49690Y-45830
X49690Y-46830
X50690Y-45830
X50690Y-46830
X51690Y-45830
X51690Y-46830
X52690Y-45830
X52690Y-46830
X53690Y-45830
X53690Y-46830
X54690Y-45830
X54690Y-46830
X55690Y-45830
X55690Y-46830
X60230Y-33780
X60230Y-34780
X60230Y-35780
X60230Y-36780
X60230Y-37780
X60230Y-38780
X63434Y-41096
X63434Y-42096
X72080Y-35600
X72080Y-36600
X72100Y-40112
X72100Y-41280
X75223Y-35618
X76223Y-35618
X77223Y-35618
X81539Y-37531
X81539Y-38531
X81539Y-39531
X81690Y-35630
X81692Y-41330
X82690Y-35630
X82692Y-41330
T4
X57744Y-46114
X60401Y-45114
X60401Y-47114
X79204Y-45122
X79204Y-47122
X81860Y-46122
T5
X70179Y-29070
X75101Y-29070
M30
