<?xml version="1.0" encoding="UTF-8" standalone="no"?>
<!-- Created with Inkscape (http://www.inkscape.org/) -->

<svg
   xmlns:dc="http://purl.org/dc/elements/1.1/"
   xmlns:cc="http://creativecommons.org/ns#"
   xmlns:rdf="http://www.w3.org/1999/02/22-rdf-syntax-ns#"
   xmlns:svg="http://www.w3.org/2000/svg"
   xmlns="http://www.w3.org/2000/svg"
   xmlns:sodipodi="http://sodipodi.sourceforge.net/DTD/sodipodi-0.dtd"
   xmlns:inkscape="http://www.inkscape.org/namespaces/inkscape"
   width="210mm"
   height="297mm"
   viewBox="0 0 210 297"
   version="1.1"
   id="svg4125"
   inkscape:version="0.92.3 (2405546, 2018-03-11)"
   sodipodi:docname="laser cut for Raka V2.0.0. M5.svg">
  <defs
     id="defs4119" />
  <sodipodi:namedview
     id="base"
     pagecolor="#ffffff"
     bordercolor="#666666"
     borderopacity="1.0"
     inkscape:pageopacity="0.0"
     inkscape:pageshadow="2"
     inkscape:zoom="0.98994949"
     inkscape:cx="456.58777"
     inkscape:cy="797.94282"
     inkscape:document-units="mm"
     inkscape:current-layer="layer1"
     showgrid="false"
     inkscape:window-width="1920"
     inkscape:window-height="1141"
     inkscape:window-x="0"
     inkscape:window-y="29"
     inkscape:window-maximized="1" />
  <metadata
     id="metadata4122">
    <rdf:RDF>
      <cc:Work
         rdf:about="">
        <dc:format>image/svg+xml</dc:format>
        <dc:type
           rdf:resource="http://purl.org/dc/dcmitype/StillImage" />
        <dc:title></dc:title>
      </cc:Work>
    </rdf:RDF>
  </metadata>
  <g
     inkscape:label="Layer 1"
     inkscape:groupmode="layer"
     id="layer1">
    <path
       d="m 29.765254,18.799377 c 0,0.82832 -0.67098,1.50001 -1.50001,1.50001 -0.82832,0 -1.50001,-0.67169 -1.50001,-1.50001 0,-0.82868 0.67169,-1.50001 1.50001,-1.50001 0.82903,0 1.50001,0.67133 1.50001,1.50001 z"
       style="fill:none;stroke:#ff0000;stroke-width:0.00705556;stroke-linecap:butt;stroke-linejoin:miter;stroke-miterlimit:4;stroke-dasharray:none;stroke-opacity:1"
       id="path326"
       inkscape:connector-curvature="0" />
    <path
       d="m 86.630354,18.799377 c 0,0.82832 -0.67239,1.50001 -1.50142,1.50001 -0.82868,0 -1.50001,-0.67169 -1.50001,-1.50001 0,-0.82868 0.67133,-1.50001 1.50001,-1.50001 0.82903,0 1.50142,0.67133 1.50142,1.50001 z"
       style="fill:none;stroke:#ff0000;stroke-width:0.00705556;stroke-linecap:butt;stroke-linejoin:miter;stroke-miterlimit:4;stroke-dasharray:none;stroke-opacity:1"
       id="path330"
       inkscape:connector-curvature="0" />
    <path
       d="m 29.765254,113.87231 c 0,0.82833 -0.67133,1.50001 -1.50001,1.50001 -0.82832,0 -1.50001,-0.67168 -1.50001,-1.50001 0,-0.82902 0.67169,-1.50001 1.50001,-1.50001 0.82868,0 1.50001,0.67099 1.50001,1.50001 z"
       style="fill:none;stroke:#ff0000;stroke-width:0.00705556;stroke-linecap:butt;stroke-linejoin:miter;stroke-miterlimit:4;stroke-dasharray:none;stroke-opacity:1"
       id="path334"
       inkscape:connector-curvature="0" />
    <path
       d="m 86.630354,114.0487 c 0,0.82833 -0.67239,1.50001 -1.50142,1.50001 -0.82868,0 -1.50001,-0.67168 -1.50001,-1.50001 0,-0.82902 0.67133,-1.50001 1.50001,-1.50001 0.82903,0 1.50142,0.67099 1.50142,1.50001 z"
       style="fill:none;stroke:#ff0000;stroke-width:0.00705556;stroke-linecap:butt;stroke-linejoin:miter;stroke-miterlimit:4;stroke-dasharray:none;stroke-opacity:1"
       id="path338"
       inkscape:connector-curvature="0" />
    <path
       d="m 53.935374,118.92797 c 0.82902,0 1.50001,-0.67169 1.50001,-1.50001 m 4.99815,0.01 c 0,0.82832 0.67169,1.50001 1.50001,1.50001 m 8e-4,-0.007 h 20.26038 c 4.4196,0 8.00382,-3.5821 8.00382,-7.99923 V 21.931017 c 0,-4.41854 -3.58422,-7.99994 -8.00382,-7.99994 h -51.00012 c -4.41818,0 -8.00029,3.5814 -8.00029,7.99994 v 88.999843 c 0,4.41783 3.58211,7.99994 8.00029,7.99994 h 22.74077 m 6.49499,-1.49331 0.0441,-15.23083 m -4.99992,0 -0.0441,15.2213 m 0.0441,-15.22835 c 0,-1.38078 1.11936,-2.499793 2.50013,-2.499793 1.38078,0 2.49979,1.119013 2.49979,2.499793"
       style="fill:none;stroke:#ff0000;stroke-width:0.00705556;stroke-linecap:butt;stroke-linejoin:miter;stroke-miterlimit:4;stroke-dasharray:none;stroke-opacity:1"
       id="path370"
       inkscape:connector-curvature="0" />
    <path
       d="m 27.553524,102.23683 c -0.22684,0.53657 -0.35208,1.12641 -0.35208,1.74554 0,2.47967 2.01013,4.4898 4.48981,4.4898 1.87042,0 3.4738,-1.14405 4.14866,-2.77036 m 9.74549,-23.461493 c 0.30233,0.12736 0.63429,0.19756 0.98284,0.19756 1.05374,0 1.95685,-0.64241 2.33891,-1.55716 m -12.92472,-5.38939 c -0.12876,0.29916 -0.20002,0.62936 -0.20002,0.97579 0,1.02411 0.623,1.90323 1.51059,2.27824 m 8.29346,3.49426 -9.74655,23.462193 m 1.45098,-26.962453 -9.74408,23.494643 m 25.21514,-30.593593 -3.85092,9.23925 m -12.9226,-5.38621 3.78002,-9.02758 m 0.006,-0.009 c -6.7546,-5.01047 -11.13257,-13.04428 -11.13257,-22.10079 0,-15.18814 12.31195,-27.50009 27.49938,-27.50009 15.18814,0 27.50009,12.31195 27.50009,27.50009 0,15.18743 -12.31195,27.49973 -27.50009,27.49973 -1.14441,0 -2.27224,-0.0699 -3.37961,-0.20567"
       style="fill:none;stroke:#0000ff;stroke-width:0.00035278;stroke-linecap:butt;stroke-linejoin:miter;stroke-miterlimit:4;stroke-dasharray:none;stroke-opacity:1"
       id="path374"
       inkscape:connector-curvature="0" />
  </g>
</svg>
