G04 #@! TF.GenerationSoftware,KiCad,Pcbnew,8.99.0-1934-ga4ba7ec6ec*
G04 #@! TF.CreationDate,2024-09-02T11:52:31+09:00*
G04 #@! TF.ProjectId,bGeigieZen V4.x.x single 18650,62476569-6769-4655-9a65-6e2056342e78,V4.0.8*
G04 #@! TF.SameCoordinates,Original*
G04 #@! TF.FileFunction,Legend,Top*
G04 #@! TF.FilePolarity,Positive*
%FSLAX46Y46*%
G04 Gerber Fmt 4.6, Leading zero omitted, Abs format (unit mm)*
G04 Created by KiCad (PCBNEW 8.99.0-1934-ga4ba7ec6ec) date 2024-09-02 11:52:31*
%MOMM*%
%LPD*%
G01*
G04 APERTURE LIST*
G04 Aperture macros list*
%AMRoundRect*
0 Rectangle with rounded corners*
0 $1 Rounding radius*
0 $2 $3 $4 $5 $6 $7 $8 $9 X,Y pos of 4 corners*
0 Add a 4 corners polygon primitive as box body*
4,1,4,$2,$3,$4,$5,$6,$7,$8,$9,$2,$3,0*
0 Add four circle primitives for the rounded corners*
1,1,$1+$1,$2,$3*
1,1,$1+$1,$4,$5*
1,1,$1+$1,$6,$7*
1,1,$1+$1,$8,$9*
0 Add four rect primitives between the rounded corners*
20,1,$1+$1,$2,$3,$4,$5,0*
20,1,$1+$1,$4,$5,$6,$7,0*
20,1,$1+$1,$6,$7,$8,$9,0*
20,1,$1+$1,$8,$9,$2,$3,0*%
G04 Aperture macros list end*
%ADD10C,0.150176*%
%ADD11C,0.120000*%
%ADD12C,0.300000*%
%ADD13C,0.150000*%
%ADD14C,0.000000*%
%ADD15C,0.127000*%
%ADD16R,1.700000X1.700000*%
%ADD17O,1.700000X1.700000*%
%ADD18C,5.000000*%
%ADD19C,1.879600*%
%ADD20C,3.203200*%
%ADD21C,2.743200*%
%ADD22RoundRect,0.250000X0.350000X0.625000X-0.350000X0.625000X-0.350000X-0.625000X0.350000X-0.625000X0*%
%ADD23O,1.200000X1.750000*%
%ADD24C,0.300000*%
G04 APERTURE END LIST*
D10*
X154323007Y-71815812D02*
X154323007Y-71815812D01*
X155089746Y-71989655D02*
X155089746Y-71989655D01*
X105741678Y-74271272D02*
X105741678Y-74271272D01*
X105226388Y-122439729D02*
X105384683Y-122802934D01*
X109808236Y-125919587D02*
X109938608Y-125932008D01*
X156061380Y-72390092D02*
X155825448Y-72272141D01*
X159016610Y-120847260D02*
X159016610Y-120847260D01*
X157191324Y-124525788D02*
X157383783Y-124345735D01*
X156176233Y-72452195D02*
X156061380Y-72390092D01*
X158690667Y-75382585D02*
X158690667Y-75382585D01*
X154062249Y-71781663D02*
X153931863Y-71769242D01*
X107138589Y-124895188D02*
X107138589Y-124895188D01*
X105536813Y-74609635D02*
X105474710Y-74724488D01*
X153931863Y-71769242D02*
X153931863Y-71769242D01*
X105005990Y-75947556D02*
X104974923Y-76074830D01*
X157942544Y-74001206D02*
X157942544Y-74001206D01*
D11*
X185691880Y-72149880D02*
X207784280Y-72149880D01*
D10*
X157141656Y-73132005D02*
X157042322Y-73048203D01*
X159029031Y-77049561D02*
X159022821Y-76919175D01*
X158426812Y-74783463D02*
X158426812Y-74783463D01*
X110202463Y-125947526D02*
X110202463Y-125947526D01*
X107085824Y-72843308D02*
X107085824Y-72843308D01*
X107809091Y-125311158D02*
X108045022Y-125429124D01*
X104844552Y-76984376D02*
X104838327Y-77117845D01*
X156570474Y-125006944D02*
X156570474Y-125006944D01*
X108529275Y-125627793D02*
X108529275Y-125627793D01*
X109482278Y-71825120D02*
X109482278Y-71825120D01*
X107467630Y-125115586D02*
X107579385Y-125183885D01*
X155887536Y-125401185D02*
X156002405Y-125342195D01*
X154062249Y-71781663D02*
X154062249Y-71781663D01*
X106536355Y-124389192D02*
X106536355Y-124389192D01*
X156679117Y-124932435D02*
X156784662Y-124857942D01*
X109032174Y-125779893D02*
X109032174Y-125779893D01*
X157091989Y-124612702D02*
X157191324Y-124525788D01*
X158513727Y-122740846D02*
X158513727Y-122740846D01*
X158057397Y-123538636D02*
X158057397Y-123538636D01*
X158333673Y-123091630D02*
X158395761Y-122976762D01*
X105179818Y-122318665D02*
X105179818Y-122318665D01*
X104838327Y-77117845D02*
X104838327Y-77117845D01*
X157240991Y-73222032D02*
X157240991Y-73222032D01*
X158091546Y-74215394D02*
X158091546Y-74215394D01*
X108780710Y-125711595D02*
X108904916Y-125745744D01*
X159032129Y-120583405D02*
X159032129Y-120583405D01*
X157042322Y-73048203D02*
X156939874Y-72964387D01*
X104847665Y-120782075D02*
X104872506Y-121042832D01*
X106828164Y-124653062D02*
X106930612Y-124736878D01*
X155887536Y-125401185D02*
X155887536Y-125401185D01*
X105443673Y-122917787D02*
X105443673Y-122917787D01*
X156784662Y-124857942D02*
X156784662Y-124857942D01*
X157979791Y-123647279D02*
X158057397Y-123538636D01*
X106778512Y-73088548D02*
X106679147Y-73175462D01*
X155462259Y-72120042D02*
X155341195Y-72073472D01*
X158333673Y-123091630D02*
X158333673Y-123091630D01*
X154965585Y-71955506D02*
X154965585Y-71955506D01*
X158970056Y-121238389D02*
X158970056Y-121238389D01*
X108346139Y-72141770D02*
X108346139Y-72141770D01*
X110134164Y-71756837D02*
X110003793Y-71763047D01*
X104934579Y-121433961D02*
X104959421Y-121561234D01*
X107191354Y-72768815D02*
X107191354Y-72768815D01*
X156992654Y-124696519D02*
X156992654Y-124696519D01*
X107467630Y-125115586D02*
X107467630Y-125115586D01*
X108284067Y-125534654D02*
X108284067Y-125534654D01*
X109159433Y-125810945D02*
X109159433Y-125810945D01*
X159025918Y-120716889D02*
X159032129Y-120583405D01*
X153931863Y-71769242D02*
X153801492Y-71759934D01*
X110398019Y-125950623D02*
X153863580Y-125913376D01*
X106089364Y-123908036D02*
X106089364Y-123908036D01*
X154900400Y-125764375D02*
X154900400Y-125764375D01*
X153863345Y-125906025D02*
X153996828Y-125899815D01*
X157653848Y-124057038D02*
X157653848Y-124057038D01*
X153996828Y-125899815D02*
X153996828Y-125899815D01*
X104959421Y-121561234D02*
X104959421Y-121561234D01*
X157821481Y-123855271D02*
X157902185Y-123752824D01*
X105813058Y-74162614D02*
X105813058Y-74162614D01*
X106930612Y-124736878D02*
X107033029Y-124817582D01*
X158619272Y-122501817D02*
X158619272Y-122501817D01*
X107138589Y-124895188D02*
X107247232Y-124972794D01*
X109547464Y-125885438D02*
X109547464Y-125885438D01*
X157430353Y-73402085D02*
X157334115Y-73312058D01*
X106828164Y-124653062D02*
X106828164Y-124653062D01*
X109032174Y-125779893D02*
X109159433Y-125810945D01*
X108591379Y-72051743D02*
X108591379Y-72051743D01*
X105114633Y-75568833D02*
X105114633Y-75568833D01*
X104866281Y-76723618D02*
X104866281Y-76723618D01*
X158299539Y-74550645D02*
X158234338Y-74438889D01*
X156002405Y-125342195D02*
X156120355Y-125280106D01*
X158566491Y-122622880D02*
X158619272Y-122501817D01*
X158796213Y-122005143D02*
X158796213Y-122005143D01*
X157737665Y-123957704D02*
X157821481Y-123855271D01*
X156731897Y-72806077D02*
X156731897Y-72806077D01*
X156890207Y-124777223D02*
X156890207Y-124777223D01*
X158774484Y-75630937D02*
X158734124Y-75506761D01*
X104841440Y-120651689D02*
X104847665Y-120782075D01*
X106048990Y-73845994D02*
X106048990Y-73845994D01*
X158923486Y-121496049D02*
X158948312Y-121368775D01*
X155279107Y-125649522D02*
X155403283Y-125606065D01*
X155089746Y-71989655D02*
X154965585Y-71955506D01*
X158712396Y-122256577D02*
X158712396Y-122256577D01*
X158057397Y-123538636D02*
X158128793Y-123429994D01*
X106728830Y-124569245D02*
X106828164Y-124653062D01*
X109289804Y-125838868D02*
X109289804Y-125838868D01*
X106440133Y-124299180D02*
X106440133Y-124299180D01*
X107809091Y-125311158D02*
X107809091Y-125311158D01*
X109351907Y-71849961D02*
X109351907Y-71849961D01*
X106396676Y-73451753D02*
X106306650Y-73544877D01*
X108653451Y-125671250D02*
X108653451Y-125671250D01*
X105601999Y-74494767D02*
X105601999Y-74494767D01*
X106306650Y-73544877D02*
X106216623Y-73644212D01*
X157781122Y-73793214D02*
X157697305Y-73693879D01*
X106778512Y-73088548D02*
X106778512Y-73088548D01*
X157091989Y-124612702D02*
X157091989Y-124612702D01*
X107033029Y-124817582D02*
X107033029Y-124817582D01*
X105443673Y-122917787D02*
X105505746Y-123035752D01*
X159004190Y-120977632D02*
X159004190Y-120977632D01*
X107694223Y-125249070D02*
X107694223Y-125249070D01*
X157942544Y-74001206D02*
X157861841Y-73895646D01*
X158426812Y-74783463D02*
X158364724Y-74665513D01*
X105179818Y-122318665D02*
X105226388Y-122439729D01*
X108715524Y-72011384D02*
X108591379Y-72051743D01*
X159035241Y-77183045D02*
X159029031Y-77049561D01*
X107523507Y-72551530D02*
X107523507Y-72551530D01*
D11*
X210784280Y-97445480D02*
G75*
G02*
X207784280Y-100445480I-2999980J-20D01*
G01*
D10*
X158970056Y-121238389D02*
X158988672Y-121108018D01*
X104838327Y-77117845D02*
X104835244Y-77313432D01*
X106980264Y-72924027D02*
X106877817Y-73004746D01*
X154518564Y-125851289D02*
X154518564Y-125851289D01*
X157902185Y-123752824D02*
X157902185Y-123752824D01*
X158166055Y-74327134D02*
X158091546Y-74215394D01*
X158299539Y-74550645D02*
X158299539Y-74550645D01*
X105021493Y-121815782D02*
X105095987Y-122070329D01*
X157240991Y-73222032D02*
X157141656Y-73132005D01*
X156458719Y-125081437D02*
X156458719Y-125081437D01*
X104959421Y-121561234D02*
X105021493Y-121815782D01*
X105853433Y-123594514D02*
X105927926Y-123700059D01*
X105021493Y-121815782D02*
X105021493Y-121815782D01*
X158997979Y-76658433D02*
X158960733Y-76397675D01*
X104835244Y-120518205D02*
X104841440Y-120651689D01*
X158923486Y-121496049D02*
X158923486Y-121496049D01*
X158960733Y-76397675D02*
X158960733Y-76397675D01*
X156514596Y-72657060D02*
X156402841Y-72585664D01*
X158935907Y-76267289D02*
X158935907Y-76267289D01*
X105778940Y-123485856D02*
X105853433Y-123594514D01*
X108467202Y-72095200D02*
X108467202Y-72095200D01*
X157902185Y-123752824D02*
X157979791Y-123647279D01*
X158091546Y-74215394D02*
X158017053Y-74106736D01*
X104835244Y-77313432D02*
X104835244Y-77313432D01*
X156623239Y-72728471D02*
X156623239Y-72728471D01*
X108408212Y-125581223D02*
X108529275Y-125627793D01*
X157861841Y-73895646D02*
X157781122Y-73793214D01*
X156402841Y-72585664D02*
X156291086Y-72517381D01*
X105670297Y-74383012D02*
X105670297Y-74383012D01*
X104841440Y-120651689D02*
X104841440Y-120651689D01*
X105136361Y-122194505D02*
X105179818Y-122318665D01*
X105095987Y-122070329D02*
X105136361Y-122194505D01*
X109159433Y-125810945D02*
X109289804Y-125838868D01*
X154900400Y-125764375D02*
X155154947Y-125689866D01*
X109289804Y-125838868D02*
X109417093Y-125863709D01*
X158395761Y-122976762D02*
X158513727Y-122740846D01*
X155403283Y-125606065D02*
X155524347Y-125559495D01*
X106629464Y-124479218D02*
X106629464Y-124479218D01*
X106877817Y-73004746D02*
X106877817Y-73004746D01*
X159025918Y-120716889D02*
X159025918Y-120716889D01*
X106536355Y-124389192D02*
X106629464Y-124479218D01*
X159029031Y-77049561D02*
X159029031Y-77049561D01*
X159022821Y-76919175D02*
X158997979Y-76658433D01*
X109547464Y-125885438D02*
X109677865Y-125904069D01*
X158830362Y-121880967D02*
X158830362Y-121880967D01*
X105704416Y-123374116D02*
X105778940Y-123485856D01*
X155462259Y-72120042D02*
X155462259Y-72120042D01*
X107033029Y-124817582D02*
X107138589Y-124895188D01*
X154127200Y-125893620D02*
X154387957Y-125868779D01*
D11*
X182691880Y-97445480D02*
X182691880Y-75149880D01*
D10*
X106306650Y-73544877D02*
X106306650Y-73544877D01*
X156731897Y-72806077D02*
X156623239Y-72728471D01*
X156235208Y-125214921D02*
X156235208Y-125214921D01*
X104853860Y-76853990D02*
X104853860Y-76853990D01*
X159035241Y-120387834D02*
X159035241Y-77183045D01*
X106486703Y-73355515D02*
X106396676Y-73451753D01*
X154645852Y-125826463D02*
X154900400Y-125764375D01*
X155217019Y-72030015D02*
X155089746Y-71989655D01*
X109417093Y-125863709D02*
X109417093Y-125863709D01*
X155154947Y-125689866D02*
X155154947Y-125689866D01*
X104909738Y-121303590D02*
X104934579Y-121433961D01*
X105040109Y-75820283D02*
X105040109Y-75820283D01*
X108904916Y-125745744D02*
X108904916Y-125745744D01*
X105636117Y-123262361D02*
X105704416Y-123374116D01*
X154711038Y-71890321D02*
X154711038Y-71890321D01*
X106728830Y-124569245D02*
X106728830Y-124569245D01*
X155524347Y-125559495D02*
X155887536Y-125401185D01*
X158017053Y-74106736D02*
X157942544Y-74001206D01*
X109743051Y-71787888D02*
X109743051Y-71787888D01*
D11*
X207784280Y-72149880D02*
G75*
G02*
X210784320Y-75149880I20J-3000020D01*
G01*
D10*
X105303964Y-75078370D02*
X105251199Y-75199433D01*
X105636117Y-123262361D02*
X105636117Y-123262361D01*
X108970102Y-71936875D02*
X108970102Y-71936875D01*
X155524347Y-125559495D02*
X155524347Y-125559495D01*
X110202463Y-125947526D02*
X110398019Y-125950623D01*
X110003793Y-71763047D02*
X110003793Y-71763047D01*
X105853433Y-123594514D02*
X105853433Y-123594514D01*
X104835244Y-77313432D02*
X104835244Y-120518205D01*
D11*
X203200000Y-70955600D02*
X211582000Y-70955600D01*
X211582000Y-75955600D01*
X203200000Y-75955600D01*
X203200000Y-70955600D01*
G36*
X203200000Y-70955600D02*
G01*
X211582000Y-70955600D01*
X211582000Y-75955600D01*
X203200000Y-75955600D01*
X203200000Y-70955600D01*
G37*
D10*
X105505746Y-123035752D02*
X105505746Y-123035752D01*
X155403283Y-125606065D02*
X155403283Y-125606065D01*
X157141656Y-73132005D02*
X157141656Y-73132005D01*
X104872506Y-121042832D02*
X104909738Y-121303590D01*
X158200204Y-123318238D02*
X158200204Y-123318238D01*
X155707498Y-72219377D02*
X155707498Y-72219377D01*
X158364724Y-74665513D02*
X158364724Y-74665513D01*
X105136361Y-122194505D02*
X105136361Y-122194505D01*
X105251199Y-75199433D02*
X105204660Y-75323609D01*
X106260080Y-124106706D02*
X106440133Y-124299180D01*
X158485788Y-74898332D02*
X158426812Y-74783463D01*
X104909738Y-121303590D02*
X104909738Y-121303590D01*
X155825448Y-72272141D02*
X155825448Y-72272141D01*
X158200204Y-123318238D02*
X158268487Y-123206483D01*
X156784662Y-124857942D02*
X156890207Y-124777223D01*
X156939874Y-72964387D02*
X156837442Y-72883683D01*
X105536813Y-74609635D02*
X105536813Y-74609635D01*
X158911065Y-76140031D02*
X158911065Y-76140031D01*
X159035241Y-77183045D02*
X159035241Y-77183045D01*
X158948312Y-121368775D02*
X158948312Y-121368775D01*
X158755853Y-122132417D02*
X158796213Y-122005143D01*
X108284067Y-125534654D02*
X108408212Y-125581223D01*
X105095987Y-122070329D02*
X105095987Y-122070329D01*
X106132821Y-73743546D02*
X106048990Y-73845994D01*
X104922159Y-76332475D02*
X104900430Y-76462861D01*
X106980264Y-72924027D02*
X106980264Y-72924027D01*
X156061380Y-72390092D02*
X156061380Y-72390092D01*
X106216623Y-73644212D02*
X106132821Y-73743546D01*
X104974923Y-76074830D02*
X104946969Y-76205216D01*
X156176233Y-72452195D02*
X156176233Y-72452195D01*
X158830362Y-121880967D02*
X158864511Y-121753694D01*
X158948312Y-121368775D02*
X158970056Y-121238389D01*
X158997979Y-76658433D02*
X158997979Y-76658433D01*
X158644098Y-75261521D02*
X158644098Y-75261521D01*
X158960733Y-76397675D02*
X158935907Y-76267289D01*
X154127200Y-125893620D02*
X154127200Y-125893620D01*
X104881784Y-76593247D02*
X104866281Y-76723618D01*
X105474710Y-74724488D02*
X105474710Y-74724488D01*
X108467202Y-72095200D02*
X108346139Y-72141770D01*
X154838311Y-71921357D02*
X154838311Y-71921357D01*
X104922159Y-76332475D02*
X104922159Y-76332475D01*
X105505746Y-123035752D02*
X105570932Y-123150605D01*
X154453378Y-71837541D02*
X154453378Y-71837541D01*
X104853860Y-76853990D02*
X104844552Y-76984376D01*
X153801492Y-71759934D02*
X153801492Y-71759934D01*
X156346963Y-125149735D02*
X156346963Y-125149735D01*
X156235208Y-125214921D02*
X156346963Y-125149735D01*
X105005990Y-75947556D02*
X105005990Y-75947556D01*
X105474710Y-74724488D02*
X105356759Y-74960404D01*
X107579385Y-125183885D02*
X107579385Y-125183885D01*
X157334115Y-73312058D02*
X157240991Y-73222032D01*
X105778940Y-123485856D02*
X105778940Y-123485856D01*
X104946969Y-76205216D02*
X104922159Y-76332475D01*
X110267648Y-71750627D02*
X110267648Y-71750627D01*
X157697305Y-73693879D02*
X157610391Y-73594544D01*
X104881784Y-76593247D02*
X104881784Y-76593247D01*
X154711038Y-71890321D02*
X154580652Y-71862382D01*
X105251199Y-75199433D02*
X105251199Y-75199433D01*
X157191324Y-124525788D02*
X157191324Y-124525788D01*
X106260080Y-124106706D02*
X106260080Y-124106706D01*
X107299997Y-72694322D02*
X107191354Y-72768815D01*
X156402841Y-72585664D02*
X156402841Y-72585664D01*
X157563836Y-124156373D02*
X157653848Y-124057038D01*
X105040109Y-75820283D02*
X105005990Y-75947556D01*
X105927926Y-123700059D02*
X105927926Y-123700059D01*
X154645852Y-125826463D02*
X154645852Y-125826463D01*
X157610391Y-73594544D02*
X157430353Y-73402085D01*
X158665826Y-122377656D02*
X158712396Y-122256577D01*
X154580652Y-71862382D02*
X154580652Y-71862382D01*
X157430353Y-73402085D02*
X157430353Y-73402085D01*
X105114633Y-75568833D02*
X105074258Y-75696122D01*
X158166055Y-74327134D02*
X158166055Y-74327134D01*
X104866281Y-76723618D02*
X104853860Y-76853990D01*
X107247232Y-124972794D02*
X107247232Y-124972794D01*
D11*
X185691880Y-100445480D02*
G75*
G02*
X182691920Y-97445480I20J2999980D01*
G01*
D10*
X156291086Y-72517381D02*
X156291086Y-72517381D01*
X157821481Y-123855271D02*
X157821481Y-123855271D01*
X109417093Y-125863709D02*
X109547464Y-125885438D01*
X108045022Y-125429124D02*
X108045022Y-125429124D01*
X158848977Y-75885484D02*
X158774484Y-75630937D01*
X108408212Y-125581223D02*
X108408212Y-125581223D01*
X106679147Y-73175462D02*
X106679147Y-73175462D01*
X105968271Y-73948426D02*
X105968271Y-73948426D01*
X157563836Y-124156373D02*
X157563836Y-124156373D01*
X104872506Y-121042832D02*
X104872506Y-121042832D01*
X158017053Y-74106736D02*
X158017053Y-74106736D01*
X109677865Y-125904069D02*
X109808236Y-125919587D01*
X105670297Y-74383012D02*
X105601999Y-74494767D01*
X107299997Y-72694322D02*
X107299997Y-72694322D01*
X155154947Y-125689866D02*
X155279107Y-125649522D01*
X107982919Y-72300080D02*
X107982919Y-72300080D01*
X107085824Y-72843308D02*
X106980264Y-72924027D01*
X158513727Y-122740846D02*
X158566491Y-122622880D01*
X155707498Y-72219377D02*
X155586435Y-72166596D01*
X158895547Y-121626420D02*
X158923486Y-121496049D01*
X157653848Y-124057038D02*
X157737665Y-123957704D01*
X104934579Y-121433961D02*
X104934579Y-121433961D01*
X155586435Y-72166596D02*
X155462259Y-72120042D01*
X105204660Y-75323609D02*
X105204660Y-75323609D01*
X105704416Y-123374116D02*
X105704416Y-123374116D01*
X104847665Y-120782075D02*
X104847665Y-120782075D01*
X157697305Y-73693879D02*
X157697305Y-73693879D01*
X158665826Y-122377656D02*
X158665826Y-122377656D01*
X105384683Y-122802934D02*
X105384683Y-122802934D01*
X106173166Y-124007371D02*
X106173166Y-124007371D01*
X106396676Y-73451753D02*
X106396676Y-73451753D01*
X108162973Y-125481889D02*
X108284067Y-125534654D01*
X105601999Y-74494767D02*
X105536813Y-74609635D01*
X106440133Y-124299180D02*
X106536355Y-124389192D01*
X156939874Y-72964387D02*
X156939874Y-72964387D01*
X105927926Y-123700059D02*
X106008645Y-123805604D01*
X158712396Y-122256577D02*
X158755853Y-122132417D01*
X109808236Y-125919587D02*
X109808236Y-125919587D01*
X156837442Y-72883683D02*
X156731897Y-72806077D01*
X158935907Y-76267289D02*
X158911065Y-76140031D01*
X155341195Y-72073472D02*
X155217019Y-72030015D01*
X153996828Y-125899815D02*
X154127200Y-125893620D01*
X105158090Y-75444673D02*
X105114633Y-75568833D01*
X154580652Y-71862382D02*
X154453378Y-71837541D01*
X158911065Y-76140031D02*
X158848977Y-75885484D01*
X155279107Y-125649522D02*
X155279107Y-125649522D01*
X155217019Y-72030015D02*
X155217019Y-72030015D01*
X156992654Y-124696519D02*
X157091989Y-124612702D01*
X153668008Y-71753739D02*
X153472436Y-71750627D01*
X104835244Y-120518205D02*
X104835244Y-120518205D01*
X157610391Y-73594544D02*
X157610391Y-73594544D01*
X158690667Y-75382585D02*
X158644098Y-75261521D01*
X158848977Y-75885484D02*
X158848977Y-75885484D01*
X106629464Y-124479218D02*
X106728830Y-124569245D01*
X154518564Y-125851289D02*
X154645852Y-125826463D01*
X159004190Y-120977632D02*
X159016610Y-120847260D01*
X154192621Y-71797196D02*
X154062249Y-71781663D01*
X107982919Y-72300080D02*
X107868081Y-72359055D01*
X157473810Y-124249513D02*
X157563836Y-124156373D01*
X156002405Y-125342195D02*
X156002405Y-125342195D01*
X110003793Y-71763047D02*
X109743051Y-71787888D01*
X107355874Y-125044190D02*
X107355874Y-125044190D01*
X110267648Y-71750627D02*
X110134164Y-71756837D01*
X158485788Y-74898332D02*
X158485788Y-74898332D01*
X105890695Y-74053971D02*
X105813058Y-74162614D01*
X158988672Y-121108018D02*
X159004190Y-120977632D01*
X158796213Y-122005143D02*
X158830362Y-121880967D01*
X156346963Y-125149735D02*
X156458719Y-125081437D01*
X109938608Y-125932008D02*
X109938608Y-125932008D01*
X110068979Y-125941316D02*
X110202463Y-125947526D01*
X107579385Y-125183885D02*
X107694223Y-125249070D01*
X159022821Y-76919175D02*
X159022821Y-76919175D01*
X154323007Y-71815812D02*
X154192621Y-71797196D01*
X106008645Y-123805604D02*
X106089364Y-123908036D01*
X154838311Y-71921357D02*
X154711038Y-71890321D01*
X105813058Y-74162614D02*
X105741678Y-74271272D01*
X109351907Y-71849961D02*
X109224618Y-71874803D01*
X106679147Y-73175462D02*
X106486703Y-73355515D01*
X158566491Y-122622880D02*
X158566491Y-122622880D01*
X158619272Y-122501817D02*
X158665826Y-122377656D01*
X158234338Y-74438889D02*
X158166055Y-74327134D01*
X158234338Y-74438889D02*
X158234338Y-74438889D01*
X105570932Y-123150605D02*
X105636117Y-123262361D01*
X158864511Y-121753694D02*
X158864511Y-121753694D01*
X105356759Y-74960404D02*
X105356759Y-74960404D01*
X153668008Y-71753739D02*
X153668008Y-71753739D01*
X108045022Y-125429124D02*
X108162973Y-125481889D01*
X158268487Y-123206483D02*
X158333673Y-123091630D01*
X104900430Y-76462861D02*
X104900430Y-76462861D01*
X105356759Y-74960404D02*
X105303964Y-75078370D01*
X157781122Y-73793214D02*
X157781122Y-73793214D01*
X104844552Y-76984376D02*
X104844552Y-76984376D01*
X156458719Y-125081437D02*
X156570474Y-125006944D01*
X154453378Y-71837541D02*
X154323007Y-71815812D01*
X153472436Y-71750627D02*
X153472436Y-71750627D01*
X154192621Y-71797196D02*
X154192621Y-71797196D01*
X105074258Y-75696122D02*
X105074258Y-75696122D01*
X104974923Y-76074830D02*
X104974923Y-76074830D01*
X154965585Y-71955506D02*
X154838311Y-71921357D01*
X108970102Y-71936875D02*
X108715524Y-72011384D01*
X109938608Y-125932008D02*
X110068979Y-125941316D01*
X108591379Y-72051743D02*
X108467202Y-72095200D01*
X108346139Y-72141770D02*
X107982919Y-72300080D01*
D11*
X182691880Y-75149880D02*
G75*
G02*
X185691880Y-72149880I3000020J-20D01*
G01*
D10*
X107635263Y-72486329D02*
X107635263Y-72486329D01*
X109743051Y-71787888D02*
X109482278Y-71825120D01*
X157383783Y-124345735D02*
X157383783Y-124345735D01*
X157334115Y-73312058D02*
X157334115Y-73312058D01*
X156120355Y-125280106D02*
X156235208Y-125214921D01*
X105158090Y-75444673D02*
X105158090Y-75444673D01*
X156623239Y-72728471D02*
X156514596Y-72657060D01*
X158988672Y-121108018D02*
X158988672Y-121108018D01*
X110068979Y-125941316D02*
X110068979Y-125941316D01*
X106048990Y-73845994D02*
X105968271Y-73948426D01*
X105303964Y-75078370D02*
X105303964Y-75078370D01*
X110398019Y-125950623D02*
X110398019Y-125950623D01*
X104946969Y-76205216D02*
X104946969Y-76205216D01*
X106089364Y-123908036D02*
X106173166Y-124007371D01*
X156514596Y-72657060D02*
X156514596Y-72657060D01*
X108780710Y-125711595D02*
X108780710Y-125711595D01*
X107355874Y-125044190D02*
X107467630Y-125115586D01*
X158734124Y-75506761D02*
X158690667Y-75382585D01*
X156291086Y-72517381D02*
X156176233Y-72452195D01*
X158128793Y-123429994D02*
X158200204Y-123318238D01*
X155341195Y-72073472D02*
X155341195Y-72073472D01*
X156837442Y-72883683D02*
X156837442Y-72883683D01*
X105074258Y-75696122D02*
X105040109Y-75820283D01*
X105890695Y-74053971D02*
X105890695Y-74053971D01*
X106132821Y-73743546D02*
X106132821Y-73743546D01*
X107523507Y-72551530D02*
X107411752Y-72619813D01*
X154388192Y-125876130D02*
X154518564Y-125851289D01*
D11*
X207784280Y-100445480D02*
X185691880Y-100445480D01*
D10*
X158395761Y-122976762D02*
X158395761Y-122976762D01*
X105570932Y-123150605D02*
X105570932Y-123150605D01*
X156570474Y-125006944D02*
X156679117Y-124932435D01*
X158755853Y-122132417D02*
X158755853Y-122132417D01*
X157473810Y-124249513D02*
X157473810Y-124249513D01*
X107191354Y-72768815D02*
X107085824Y-72843308D01*
X107411752Y-72619813D02*
X107411752Y-72619813D01*
X107635263Y-72486329D02*
X107523507Y-72551530D01*
X158128793Y-123429994D02*
X158128793Y-123429994D01*
X107750131Y-72421143D02*
X107635263Y-72486329D01*
X105741678Y-74271272D02*
X105670297Y-74383012D01*
X156890207Y-124777223D02*
X156992654Y-124696519D01*
X158364724Y-74665513D02*
X158299539Y-74550645D01*
X105968271Y-73948426D02*
X105890695Y-74053971D01*
X107750131Y-72421143D02*
X107750131Y-72421143D01*
X159016610Y-120847260D02*
X159025918Y-120716889D01*
X107411752Y-72619813D02*
X107299997Y-72694322D01*
X109224618Y-71874803D02*
X108970102Y-71936875D01*
D11*
X210784280Y-75149880D02*
X210784280Y-97445480D01*
D10*
X158895547Y-121626420D02*
X158895547Y-121626420D01*
X105204660Y-75323609D02*
X105158090Y-75444673D01*
X106173166Y-124007371D02*
X106260080Y-124106706D01*
X159032129Y-120583405D02*
X159035241Y-120387834D01*
X158774484Y-75630937D02*
X158774484Y-75630937D01*
X106486703Y-73355515D02*
X106486703Y-73355515D01*
X106008645Y-123805604D02*
X106008645Y-123805604D01*
X155825448Y-72272141D02*
X155707498Y-72219377D01*
X153863345Y-125906025D02*
X153863345Y-125906025D01*
X158734124Y-75506761D02*
X158734124Y-75506761D01*
X109482278Y-71825120D02*
X109351907Y-71849961D01*
X107868081Y-72359055D02*
X107868081Y-72359055D01*
X104900430Y-76462861D02*
X104881784Y-76593247D01*
X153801492Y-71759934D02*
X153668008Y-71753739D01*
X155586435Y-72166596D02*
X155586435Y-72166596D01*
X154388192Y-125876130D02*
X154388192Y-125876130D01*
X105226388Y-122439729D02*
X105226388Y-122439729D01*
X109677865Y-125904069D02*
X109677865Y-125904069D01*
X108904916Y-125745744D02*
X109032174Y-125779893D01*
X156679117Y-124932435D02*
X156679117Y-124932435D01*
X106216623Y-73644212D02*
X106216623Y-73644212D01*
X158644098Y-75261521D02*
X158485788Y-74898332D01*
X158268487Y-123206483D02*
X158268487Y-123206483D01*
X106877817Y-73004746D02*
X106778512Y-73088548D01*
X108653451Y-125671250D02*
X108780710Y-125711595D01*
X107868081Y-72359055D02*
X107750131Y-72421143D01*
X157861841Y-73895646D02*
X157861841Y-73895646D01*
X158864511Y-121753694D02*
X158895547Y-121626420D01*
X110134164Y-71756837D02*
X110134164Y-71756837D01*
X157737665Y-123957704D02*
X157737665Y-123957704D01*
X153472436Y-71750627D02*
X110267648Y-71750627D01*
X157383783Y-124345735D02*
X157473810Y-124249513D01*
X107247232Y-124972794D02*
X107355874Y-125044190D01*
X109224618Y-71874803D02*
X109224618Y-71874803D01*
X108715524Y-72011384D02*
X108715524Y-72011384D01*
X110134164Y-71756837D02*
X110134164Y-71756837D01*
X159035241Y-120387834D02*
X159035241Y-120387834D01*
X105384683Y-122802934D02*
X105443673Y-122917787D01*
X156120355Y-125280106D02*
X156120355Y-125280106D01*
X107694223Y-125249070D02*
X107809091Y-125311158D01*
X108162973Y-125481889D02*
X108162973Y-125481889D01*
X157979791Y-123647279D02*
X157979791Y-123647279D01*
X157042322Y-73048203D02*
X157042322Y-73048203D01*
X108529275Y-125627793D02*
X108653451Y-125671250D01*
X106930612Y-124736878D02*
X106930612Y-124736878D01*
D12*
X124130285Y-70700642D02*
X124273143Y-70772071D01*
X124273143Y-70772071D02*
X124487428Y-70772071D01*
X124487428Y-70772071D02*
X124701714Y-70700642D01*
X124701714Y-70700642D02*
X124844571Y-70557785D01*
X124844571Y-70557785D02*
X124916000Y-70414928D01*
X124916000Y-70414928D02*
X124987428Y-70129214D01*
X124987428Y-70129214D02*
X124987428Y-69914928D01*
X124987428Y-69914928D02*
X124916000Y-69629214D01*
X124916000Y-69629214D02*
X124844571Y-69486357D01*
X124844571Y-69486357D02*
X124701714Y-69343500D01*
X124701714Y-69343500D02*
X124487428Y-69272071D01*
X124487428Y-69272071D02*
X124344571Y-69272071D01*
X124344571Y-69272071D02*
X124130285Y-69343500D01*
X124130285Y-69343500D02*
X124058857Y-69414928D01*
X124058857Y-69414928D02*
X124058857Y-69914928D01*
X124058857Y-69914928D02*
X124344571Y-69914928D01*
X122558857Y-69272071D02*
X123058857Y-69986357D01*
X123416000Y-69272071D02*
X123416000Y-70772071D01*
X123416000Y-70772071D02*
X122844571Y-70772071D01*
X122844571Y-70772071D02*
X122701714Y-70700642D01*
X122701714Y-70700642D02*
X122630285Y-70629214D01*
X122630285Y-70629214D02*
X122558857Y-70486357D01*
X122558857Y-70486357D02*
X122558857Y-70272071D01*
X122558857Y-70272071D02*
X122630285Y-70129214D01*
X122630285Y-70129214D02*
X122701714Y-70057785D01*
X122701714Y-70057785D02*
X122844571Y-69986357D01*
X122844571Y-69986357D02*
X123416000Y-69986357D01*
X121630285Y-70772071D02*
X121344571Y-70772071D01*
X121344571Y-70772071D02*
X121201714Y-70700642D01*
X121201714Y-70700642D02*
X121058857Y-70557785D01*
X121058857Y-70557785D02*
X120987428Y-70272071D01*
X120987428Y-70272071D02*
X120987428Y-69772071D01*
X120987428Y-69772071D02*
X121058857Y-69486357D01*
X121058857Y-69486357D02*
X121201714Y-69343500D01*
X121201714Y-69343500D02*
X121344571Y-69272071D01*
X121344571Y-69272071D02*
X121630285Y-69272071D01*
X121630285Y-69272071D02*
X121773143Y-69343500D01*
X121773143Y-69343500D02*
X121916000Y-69486357D01*
X121916000Y-69486357D02*
X121987428Y-69772071D01*
X121987428Y-69772071D02*
X121987428Y-70272071D01*
X121987428Y-70272071D02*
X121916000Y-70557785D01*
X121916000Y-70557785D02*
X121773143Y-70700642D01*
X121773143Y-70700642D02*
X121630285Y-70772071D01*
X120558856Y-70772071D02*
X120058856Y-69272071D01*
X120058856Y-69272071D02*
X119558856Y-70772071D01*
X119058857Y-70057785D02*
X118558857Y-70057785D01*
X118344571Y-69272071D02*
X119058857Y-69272071D01*
X119058857Y-69272071D02*
X119058857Y-70772071D01*
X119058857Y-70772071D02*
X118344571Y-70772071D01*
X133312457Y-70822871D02*
X133312457Y-69608585D01*
X133312457Y-69608585D02*
X133241028Y-69465728D01*
X133241028Y-69465728D02*
X133169600Y-69394300D01*
X133169600Y-69394300D02*
X133026742Y-69322871D01*
X133026742Y-69322871D02*
X132741028Y-69322871D01*
X132741028Y-69322871D02*
X132598171Y-69394300D01*
X132598171Y-69394300D02*
X132526742Y-69465728D01*
X132526742Y-69465728D02*
X132455314Y-69608585D01*
X132455314Y-69608585D02*
X132455314Y-70822871D01*
X131812456Y-69394300D02*
X131598171Y-69322871D01*
X131598171Y-69322871D02*
X131241028Y-69322871D01*
X131241028Y-69322871D02*
X131098171Y-69394300D01*
X131098171Y-69394300D02*
X131026742Y-69465728D01*
X131026742Y-69465728D02*
X130955313Y-69608585D01*
X130955313Y-69608585D02*
X130955313Y-69751442D01*
X130955313Y-69751442D02*
X131026742Y-69894300D01*
X131026742Y-69894300D02*
X131098171Y-69965728D01*
X131098171Y-69965728D02*
X131241028Y-70037157D01*
X131241028Y-70037157D02*
X131526742Y-70108585D01*
X131526742Y-70108585D02*
X131669599Y-70180014D01*
X131669599Y-70180014D02*
X131741028Y-70251442D01*
X131741028Y-70251442D02*
X131812456Y-70394300D01*
X131812456Y-70394300D02*
X131812456Y-70537157D01*
X131812456Y-70537157D02*
X131741028Y-70680014D01*
X131741028Y-70680014D02*
X131669599Y-70751442D01*
X131669599Y-70751442D02*
X131526742Y-70822871D01*
X131526742Y-70822871D02*
X131169599Y-70822871D01*
X131169599Y-70822871D02*
X130955313Y-70751442D01*
X129812457Y-70108585D02*
X129598171Y-70037157D01*
X129598171Y-70037157D02*
X129526742Y-69965728D01*
X129526742Y-69965728D02*
X129455314Y-69822871D01*
X129455314Y-69822871D02*
X129455314Y-69608585D01*
X129455314Y-69608585D02*
X129526742Y-69465728D01*
X129526742Y-69465728D02*
X129598171Y-69394300D01*
X129598171Y-69394300D02*
X129741028Y-69322871D01*
X129741028Y-69322871D02*
X130312457Y-69322871D01*
X130312457Y-69322871D02*
X130312457Y-70822871D01*
X130312457Y-70822871D02*
X129812457Y-70822871D01*
X129812457Y-70822871D02*
X129669600Y-70751442D01*
X129669600Y-70751442D02*
X129598171Y-70680014D01*
X129598171Y-70680014D02*
X129526742Y-70537157D01*
X129526742Y-70537157D02*
X129526742Y-70394300D01*
X129526742Y-70394300D02*
X129598171Y-70251442D01*
X129598171Y-70251442D02*
X129669600Y-70180014D01*
X129669600Y-70180014D02*
X129812457Y-70108585D01*
X129812457Y-70108585D02*
X130312457Y-70108585D01*
X163278470Y-89975489D02*
X161778470Y-89975489D01*
X162349899Y-89975489D02*
X162278470Y-89832632D01*
X162278470Y-89832632D02*
X162278470Y-89546917D01*
X162278470Y-89546917D02*
X162349899Y-89404060D01*
X162349899Y-89404060D02*
X162421327Y-89332632D01*
X162421327Y-89332632D02*
X162564184Y-89261203D01*
X162564184Y-89261203D02*
X162992756Y-89261203D01*
X162992756Y-89261203D02*
X163135613Y-89332632D01*
X163135613Y-89332632D02*
X163207042Y-89404060D01*
X163207042Y-89404060D02*
X163278470Y-89546917D01*
X163278470Y-89546917D02*
X163278470Y-89832632D01*
X163278470Y-89832632D02*
X163207042Y-89975489D01*
X161849899Y-87832631D02*
X161778470Y-87975489D01*
X161778470Y-87975489D02*
X161778470Y-88189774D01*
X161778470Y-88189774D02*
X161849899Y-88404060D01*
X161849899Y-88404060D02*
X161992756Y-88546917D01*
X161992756Y-88546917D02*
X162135613Y-88618346D01*
X162135613Y-88618346D02*
X162421327Y-88689774D01*
X162421327Y-88689774D02*
X162635613Y-88689774D01*
X162635613Y-88689774D02*
X162921327Y-88618346D01*
X162921327Y-88618346D02*
X163064184Y-88546917D01*
X163064184Y-88546917D02*
X163207042Y-88404060D01*
X163207042Y-88404060D02*
X163278470Y-88189774D01*
X163278470Y-88189774D02*
X163278470Y-88046917D01*
X163278470Y-88046917D02*
X163207042Y-87832631D01*
X163207042Y-87832631D02*
X163135613Y-87761203D01*
X163135613Y-87761203D02*
X162635613Y-87761203D01*
X162635613Y-87761203D02*
X162635613Y-88046917D01*
X163207042Y-86546917D02*
X163278470Y-86689774D01*
X163278470Y-86689774D02*
X163278470Y-86975489D01*
X163278470Y-86975489D02*
X163207042Y-87118346D01*
X163207042Y-87118346D02*
X163064184Y-87189774D01*
X163064184Y-87189774D02*
X162492756Y-87189774D01*
X162492756Y-87189774D02*
X162349899Y-87118346D01*
X162349899Y-87118346D02*
X162278470Y-86975489D01*
X162278470Y-86975489D02*
X162278470Y-86689774D01*
X162278470Y-86689774D02*
X162349899Y-86546917D01*
X162349899Y-86546917D02*
X162492756Y-86475489D01*
X162492756Y-86475489D02*
X162635613Y-86475489D01*
X162635613Y-86475489D02*
X162778470Y-87189774D01*
X163278470Y-85832632D02*
X162278470Y-85832632D01*
X161778470Y-85832632D02*
X161849899Y-85904060D01*
X161849899Y-85904060D02*
X161921327Y-85832632D01*
X161921327Y-85832632D02*
X161849899Y-85761203D01*
X161849899Y-85761203D02*
X161778470Y-85832632D01*
X161778470Y-85832632D02*
X161921327Y-85832632D01*
X162278470Y-84475489D02*
X163492756Y-84475489D01*
X163492756Y-84475489D02*
X163635613Y-84546917D01*
X163635613Y-84546917D02*
X163707042Y-84618346D01*
X163707042Y-84618346D02*
X163778470Y-84761203D01*
X163778470Y-84761203D02*
X163778470Y-84975489D01*
X163778470Y-84975489D02*
X163707042Y-85118346D01*
X163207042Y-84475489D02*
X163278470Y-84618346D01*
X163278470Y-84618346D02*
X163278470Y-84904060D01*
X163278470Y-84904060D02*
X163207042Y-85046917D01*
X163207042Y-85046917D02*
X163135613Y-85118346D01*
X163135613Y-85118346D02*
X162992756Y-85189774D01*
X162992756Y-85189774D02*
X162564184Y-85189774D01*
X162564184Y-85189774D02*
X162421327Y-85118346D01*
X162421327Y-85118346D02*
X162349899Y-85046917D01*
X162349899Y-85046917D02*
X162278470Y-84904060D01*
X162278470Y-84904060D02*
X162278470Y-84618346D01*
X162278470Y-84618346D02*
X162349899Y-84475489D01*
X163278470Y-83761203D02*
X162278470Y-83761203D01*
X161778470Y-83761203D02*
X161849899Y-83832631D01*
X161849899Y-83832631D02*
X161921327Y-83761203D01*
X161921327Y-83761203D02*
X161849899Y-83689774D01*
X161849899Y-83689774D02*
X161778470Y-83761203D01*
X161778470Y-83761203D02*
X161921327Y-83761203D01*
X163207042Y-82475488D02*
X163278470Y-82618345D01*
X163278470Y-82618345D02*
X163278470Y-82904060D01*
X163278470Y-82904060D02*
X163207042Y-83046917D01*
X163207042Y-83046917D02*
X163064184Y-83118345D01*
X163064184Y-83118345D02*
X162492756Y-83118345D01*
X162492756Y-83118345D02*
X162349899Y-83046917D01*
X162349899Y-83046917D02*
X162278470Y-82904060D01*
X162278470Y-82904060D02*
X162278470Y-82618345D01*
X162278470Y-82618345D02*
X162349899Y-82475488D01*
X162349899Y-82475488D02*
X162492756Y-82404060D01*
X162492756Y-82404060D02*
X162635613Y-82404060D01*
X162635613Y-82404060D02*
X162778470Y-83118345D01*
X161778470Y-81904060D02*
X161778470Y-80904060D01*
X161778470Y-80904060D02*
X163278470Y-81904060D01*
X163278470Y-81904060D02*
X163278470Y-80904060D01*
X163207042Y-79761203D02*
X163278470Y-79904060D01*
X163278470Y-79904060D02*
X163278470Y-80189775D01*
X163278470Y-80189775D02*
X163207042Y-80332632D01*
X163207042Y-80332632D02*
X163064184Y-80404060D01*
X163064184Y-80404060D02*
X162492756Y-80404060D01*
X162492756Y-80404060D02*
X162349899Y-80332632D01*
X162349899Y-80332632D02*
X162278470Y-80189775D01*
X162278470Y-80189775D02*
X162278470Y-79904060D01*
X162278470Y-79904060D02*
X162349899Y-79761203D01*
X162349899Y-79761203D02*
X162492756Y-79689775D01*
X162492756Y-79689775D02*
X162635613Y-79689775D01*
X162635613Y-79689775D02*
X162778470Y-80404060D01*
X162278470Y-79046918D02*
X163278470Y-79046918D01*
X162421327Y-79046918D02*
X162349899Y-78975489D01*
X162349899Y-78975489D02*
X162278470Y-78832632D01*
X162278470Y-78832632D02*
X162278470Y-78618346D01*
X162278470Y-78618346D02*
X162349899Y-78475489D01*
X162349899Y-78475489D02*
X162492756Y-78404061D01*
X162492756Y-78404061D02*
X163278470Y-78404061D01*
X164193386Y-90189774D02*
X165693386Y-89689774D01*
X165693386Y-89689774D02*
X164193386Y-89189774D01*
X164693386Y-88046918D02*
X165693386Y-88046918D01*
X164121958Y-88404060D02*
X165193386Y-88761203D01*
X165193386Y-88761203D02*
X165193386Y-87832632D01*
X165550529Y-87261204D02*
X165621958Y-87189775D01*
X165621958Y-87189775D02*
X165693386Y-87261204D01*
X165693386Y-87261204D02*
X165621958Y-87332632D01*
X165621958Y-87332632D02*
X165550529Y-87261204D01*
X165550529Y-87261204D02*
X165693386Y-87261204D01*
X164193386Y-86261203D02*
X164193386Y-86118346D01*
X164193386Y-86118346D02*
X164264815Y-85975489D01*
X164264815Y-85975489D02*
X164336243Y-85904061D01*
X164336243Y-85904061D02*
X164479100Y-85832632D01*
X164479100Y-85832632D02*
X164764815Y-85761203D01*
X164764815Y-85761203D02*
X165121958Y-85761203D01*
X165121958Y-85761203D02*
X165407672Y-85832632D01*
X165407672Y-85832632D02*
X165550529Y-85904061D01*
X165550529Y-85904061D02*
X165621958Y-85975489D01*
X165621958Y-85975489D02*
X165693386Y-86118346D01*
X165693386Y-86118346D02*
X165693386Y-86261203D01*
X165693386Y-86261203D02*
X165621958Y-86404061D01*
X165621958Y-86404061D02*
X165550529Y-86475489D01*
X165550529Y-86475489D02*
X165407672Y-86546918D01*
X165407672Y-86546918D02*
X165121958Y-86618346D01*
X165121958Y-86618346D02*
X164764815Y-86618346D01*
X164764815Y-86618346D02*
X164479100Y-86546918D01*
X164479100Y-86546918D02*
X164336243Y-86475489D01*
X164336243Y-86475489D02*
X164264815Y-86404061D01*
X164264815Y-86404061D02*
X164193386Y-86261203D01*
X165550529Y-85118347D02*
X165621958Y-85046918D01*
X165621958Y-85046918D02*
X165693386Y-85118347D01*
X165693386Y-85118347D02*
X165621958Y-85189775D01*
X165621958Y-85189775D02*
X165550529Y-85118347D01*
X165550529Y-85118347D02*
X165693386Y-85118347D01*
X164836243Y-84189775D02*
X164764815Y-84332632D01*
X164764815Y-84332632D02*
X164693386Y-84404061D01*
X164693386Y-84404061D02*
X164550529Y-84475489D01*
X164550529Y-84475489D02*
X164479100Y-84475489D01*
X164479100Y-84475489D02*
X164336243Y-84404061D01*
X164336243Y-84404061D02*
X164264815Y-84332632D01*
X164264815Y-84332632D02*
X164193386Y-84189775D01*
X164193386Y-84189775D02*
X164193386Y-83904061D01*
X164193386Y-83904061D02*
X164264815Y-83761204D01*
X164264815Y-83761204D02*
X164336243Y-83689775D01*
X164336243Y-83689775D02*
X164479100Y-83618346D01*
X164479100Y-83618346D02*
X164550529Y-83618346D01*
X164550529Y-83618346D02*
X164693386Y-83689775D01*
X164693386Y-83689775D02*
X164764815Y-83761204D01*
X164764815Y-83761204D02*
X164836243Y-83904061D01*
X164836243Y-83904061D02*
X164836243Y-84189775D01*
X164836243Y-84189775D02*
X164907672Y-84332632D01*
X164907672Y-84332632D02*
X164979100Y-84404061D01*
X164979100Y-84404061D02*
X165121958Y-84475489D01*
X165121958Y-84475489D02*
X165407672Y-84475489D01*
X165407672Y-84475489D02*
X165550529Y-84404061D01*
X165550529Y-84404061D02*
X165621958Y-84332632D01*
X165621958Y-84332632D02*
X165693386Y-84189775D01*
X165693386Y-84189775D02*
X165693386Y-83904061D01*
X165693386Y-83904061D02*
X165621958Y-83761204D01*
X165621958Y-83761204D02*
X165550529Y-83689775D01*
X165550529Y-83689775D02*
X165407672Y-83618346D01*
X165407672Y-83618346D02*
X165121958Y-83618346D01*
X165121958Y-83618346D02*
X164979100Y-83689775D01*
X164979100Y-83689775D02*
X164907672Y-83761204D01*
X164907672Y-83761204D02*
X164836243Y-83904061D01*
X165693386Y-81832633D02*
X164193386Y-81832633D01*
X164193386Y-81832633D02*
X164193386Y-81261204D01*
X164193386Y-81261204D02*
X164264815Y-81118347D01*
X164264815Y-81118347D02*
X164336243Y-81046918D01*
X164336243Y-81046918D02*
X164479100Y-80975490D01*
X164479100Y-80975490D02*
X164693386Y-80975490D01*
X164693386Y-80975490D02*
X164836243Y-81046918D01*
X164836243Y-81046918D02*
X164907672Y-81118347D01*
X164907672Y-81118347D02*
X164979100Y-81261204D01*
X164979100Y-81261204D02*
X164979100Y-81832633D01*
X165693386Y-80332633D02*
X164693386Y-80332633D01*
X164979100Y-80332633D02*
X164836243Y-80261204D01*
X164836243Y-80261204D02*
X164764815Y-80189776D01*
X164764815Y-80189776D02*
X164693386Y-80046918D01*
X164693386Y-80046918D02*
X164693386Y-79904061D01*
X165693386Y-79189776D02*
X165621958Y-79332633D01*
X165621958Y-79332633D02*
X165550529Y-79404062D01*
X165550529Y-79404062D02*
X165407672Y-79475490D01*
X165407672Y-79475490D02*
X164979100Y-79475490D01*
X164979100Y-79475490D02*
X164836243Y-79404062D01*
X164836243Y-79404062D02*
X164764815Y-79332633D01*
X164764815Y-79332633D02*
X164693386Y-79189776D01*
X164693386Y-79189776D02*
X164693386Y-78975490D01*
X164693386Y-78975490D02*
X164764815Y-78832633D01*
X164764815Y-78832633D02*
X164836243Y-78761205D01*
X164836243Y-78761205D02*
X164979100Y-78689776D01*
X164979100Y-78689776D02*
X165407672Y-78689776D01*
X165407672Y-78689776D02*
X165550529Y-78761205D01*
X165550529Y-78761205D02*
X165621958Y-78832633D01*
X165621958Y-78832633D02*
X165693386Y-78975490D01*
X165693386Y-78975490D02*
X165693386Y-79189776D01*
X165693386Y-77404062D02*
X164193386Y-77404062D01*
X165621958Y-77404062D02*
X165693386Y-77546919D01*
X165693386Y-77546919D02*
X165693386Y-77832633D01*
X165693386Y-77832633D02*
X165621958Y-77975490D01*
X165621958Y-77975490D02*
X165550529Y-78046919D01*
X165550529Y-78046919D02*
X165407672Y-78118347D01*
X165407672Y-78118347D02*
X164979100Y-78118347D01*
X164979100Y-78118347D02*
X164836243Y-78046919D01*
X164836243Y-78046919D02*
X164764815Y-77975490D01*
X164764815Y-77975490D02*
X164693386Y-77832633D01*
X164693386Y-77832633D02*
X164693386Y-77546919D01*
X164693386Y-77546919D02*
X164764815Y-77404062D01*
X164693386Y-76046919D02*
X165693386Y-76046919D01*
X164693386Y-76689776D02*
X165479100Y-76689776D01*
X165479100Y-76689776D02*
X165621958Y-76618347D01*
X165621958Y-76618347D02*
X165693386Y-76475490D01*
X165693386Y-76475490D02*
X165693386Y-76261204D01*
X165693386Y-76261204D02*
X165621958Y-76118347D01*
X165621958Y-76118347D02*
X165550529Y-76046919D01*
X165621958Y-74689776D02*
X165693386Y-74832633D01*
X165693386Y-74832633D02*
X165693386Y-75118347D01*
X165693386Y-75118347D02*
X165621958Y-75261204D01*
X165621958Y-75261204D02*
X165550529Y-75332633D01*
X165550529Y-75332633D02*
X165407672Y-75404061D01*
X165407672Y-75404061D02*
X164979100Y-75404061D01*
X164979100Y-75404061D02*
X164836243Y-75332633D01*
X164836243Y-75332633D02*
X164764815Y-75261204D01*
X164764815Y-75261204D02*
X164693386Y-75118347D01*
X164693386Y-75118347D02*
X164693386Y-74832633D01*
X164693386Y-74832633D02*
X164764815Y-74689776D01*
X164693386Y-74261204D02*
X164693386Y-73689776D01*
X164193386Y-74046919D02*
X165479100Y-74046919D01*
X165479100Y-74046919D02*
X165621958Y-73975490D01*
X165621958Y-73975490D02*
X165693386Y-73832633D01*
X165693386Y-73832633D02*
X165693386Y-73689776D01*
X165693386Y-73189776D02*
X164693386Y-73189776D01*
X164193386Y-73189776D02*
X164264815Y-73261204D01*
X164264815Y-73261204D02*
X164336243Y-73189776D01*
X164336243Y-73189776D02*
X164264815Y-73118347D01*
X164264815Y-73118347D02*
X164193386Y-73189776D01*
X164193386Y-73189776D02*
X164336243Y-73189776D01*
X165693386Y-72261204D02*
X165621958Y-72404061D01*
X165621958Y-72404061D02*
X165550529Y-72475490D01*
X165550529Y-72475490D02*
X165407672Y-72546918D01*
X165407672Y-72546918D02*
X164979100Y-72546918D01*
X164979100Y-72546918D02*
X164836243Y-72475490D01*
X164836243Y-72475490D02*
X164764815Y-72404061D01*
X164764815Y-72404061D02*
X164693386Y-72261204D01*
X164693386Y-72261204D02*
X164693386Y-72046918D01*
X164693386Y-72046918D02*
X164764815Y-71904061D01*
X164764815Y-71904061D02*
X164836243Y-71832633D01*
X164836243Y-71832633D02*
X164979100Y-71761204D01*
X164979100Y-71761204D02*
X165407672Y-71761204D01*
X165407672Y-71761204D02*
X165550529Y-71832633D01*
X165550529Y-71832633D02*
X165621958Y-71904061D01*
X165621958Y-71904061D02*
X165693386Y-72046918D01*
X165693386Y-72046918D02*
X165693386Y-72261204D01*
X164693386Y-71118347D02*
X165693386Y-71118347D01*
X164836243Y-71118347D02*
X164764815Y-71046918D01*
X164764815Y-71046918D02*
X164693386Y-70904061D01*
X164693386Y-70904061D02*
X164693386Y-70689775D01*
X164693386Y-70689775D02*
X164764815Y-70546918D01*
X164764815Y-70546918D02*
X164907672Y-70475490D01*
X164907672Y-70475490D02*
X165693386Y-70475490D01*
X167358754Y-120361374D02*
X167358754Y-120075660D01*
X167358754Y-120075660D02*
X167430183Y-119932803D01*
X167430183Y-119932803D02*
X167573040Y-119789946D01*
X167573040Y-119789946D02*
X167858754Y-119718517D01*
X167858754Y-119718517D02*
X168358754Y-119718517D01*
X168358754Y-119718517D02*
X168644468Y-119789946D01*
X168644468Y-119789946D02*
X168787326Y-119932803D01*
X168787326Y-119932803D02*
X168858754Y-120075660D01*
X168858754Y-120075660D02*
X168858754Y-120361374D01*
X168858754Y-120361374D02*
X168787326Y-120504232D01*
X168787326Y-120504232D02*
X168644468Y-120647089D01*
X168644468Y-120647089D02*
X168358754Y-120718517D01*
X168358754Y-120718517D02*
X167858754Y-120718517D01*
X167858754Y-120718517D02*
X167573040Y-120647089D01*
X167573040Y-120647089D02*
X167430183Y-120504232D01*
X167430183Y-120504232D02*
X167358754Y-120361374D01*
X168858754Y-119075660D02*
X167358754Y-119075660D01*
X167358754Y-119075660D02*
X168858754Y-118218517D01*
X168858754Y-118218517D02*
X167358754Y-118218517D01*
X174603502Y-120361374D02*
X174603502Y-120075660D01*
X174603502Y-120075660D02*
X174674931Y-119932803D01*
X174674931Y-119932803D02*
X174817788Y-119789946D01*
X174817788Y-119789946D02*
X175103502Y-119718517D01*
X175103502Y-119718517D02*
X175603502Y-119718517D01*
X175603502Y-119718517D02*
X175889216Y-119789946D01*
X175889216Y-119789946D02*
X176032074Y-119932803D01*
X176032074Y-119932803D02*
X176103502Y-120075660D01*
X176103502Y-120075660D02*
X176103502Y-120361374D01*
X176103502Y-120361374D02*
X176032074Y-120504232D01*
X176032074Y-120504232D02*
X175889216Y-120647089D01*
X175889216Y-120647089D02*
X175603502Y-120718517D01*
X175603502Y-120718517D02*
X175103502Y-120718517D01*
X175103502Y-120718517D02*
X174817788Y-120647089D01*
X174817788Y-120647089D02*
X174674931Y-120504232D01*
X174674931Y-120504232D02*
X174603502Y-120361374D01*
X175317788Y-118575660D02*
X175317788Y-119075660D01*
X176103502Y-119075660D02*
X174603502Y-119075660D01*
X174603502Y-119075660D02*
X174603502Y-118361374D01*
X175317788Y-117289946D02*
X175317788Y-117789946D01*
X176103502Y-117789946D02*
X174603502Y-117789946D01*
X174603502Y-117789946D02*
X174603502Y-117075660D01*
X103294244Y-88309875D02*
X103365672Y-88095590D01*
X103365672Y-88095590D02*
X103365672Y-87738447D01*
X103365672Y-87738447D02*
X103294244Y-87595590D01*
X103294244Y-87595590D02*
X103222815Y-87524161D01*
X103222815Y-87524161D02*
X103079958Y-87452732D01*
X103079958Y-87452732D02*
X102937101Y-87452732D01*
X102937101Y-87452732D02*
X102794244Y-87524161D01*
X102794244Y-87524161D02*
X102722815Y-87595590D01*
X102722815Y-87595590D02*
X102651386Y-87738447D01*
X102651386Y-87738447D02*
X102579958Y-88024161D01*
X102579958Y-88024161D02*
X102508529Y-88167018D01*
X102508529Y-88167018D02*
X102437101Y-88238447D01*
X102437101Y-88238447D02*
X102294244Y-88309875D01*
X102294244Y-88309875D02*
X102151386Y-88309875D01*
X102151386Y-88309875D02*
X102008529Y-88238447D01*
X102008529Y-88238447D02*
X101937101Y-88167018D01*
X101937101Y-88167018D02*
X101865672Y-88024161D01*
X101865672Y-88024161D02*
X101865672Y-87667018D01*
X101865672Y-87667018D02*
X101937101Y-87452732D01*
X103365672Y-86809876D02*
X101865672Y-86809876D01*
X101865672Y-86809876D02*
X101865672Y-86452733D01*
X101865672Y-86452733D02*
X101937101Y-86238447D01*
X101937101Y-86238447D02*
X102079958Y-86095590D01*
X102079958Y-86095590D02*
X102222815Y-86024161D01*
X102222815Y-86024161D02*
X102508529Y-85952733D01*
X102508529Y-85952733D02*
X102722815Y-85952733D01*
X102722815Y-85952733D02*
X103008529Y-86024161D01*
X103008529Y-86024161D02*
X103151386Y-86095590D01*
X103151386Y-86095590D02*
X103294244Y-86238447D01*
X103294244Y-86238447D02*
X103365672Y-86452733D01*
X103365672Y-86452733D02*
X103365672Y-86809876D01*
X103294244Y-84667019D02*
X103365672Y-84809876D01*
X103365672Y-84809876D02*
X103365672Y-85095590D01*
X103365672Y-85095590D02*
X103294244Y-85238447D01*
X103294244Y-85238447D02*
X103222815Y-85309876D01*
X103222815Y-85309876D02*
X103079958Y-85381304D01*
X103079958Y-85381304D02*
X102651386Y-85381304D01*
X102651386Y-85381304D02*
X102508529Y-85309876D01*
X102508529Y-85309876D02*
X102437101Y-85238447D01*
X102437101Y-85238447D02*
X102365672Y-85095590D01*
X102365672Y-85095590D02*
X102365672Y-84809876D01*
X102365672Y-84809876D02*
X102437101Y-84667019D01*
X103365672Y-83381305D02*
X102579958Y-83381305D01*
X102579958Y-83381305D02*
X102437101Y-83452733D01*
X102437101Y-83452733D02*
X102365672Y-83595590D01*
X102365672Y-83595590D02*
X102365672Y-83881305D01*
X102365672Y-83881305D02*
X102437101Y-84024162D01*
X103294244Y-83381305D02*
X103365672Y-83524162D01*
X103365672Y-83524162D02*
X103365672Y-83881305D01*
X103365672Y-83881305D02*
X103294244Y-84024162D01*
X103294244Y-84024162D02*
X103151386Y-84095590D01*
X103151386Y-84095590D02*
X103008529Y-84095590D01*
X103008529Y-84095590D02*
X102865672Y-84024162D01*
X102865672Y-84024162D02*
X102794244Y-83881305D01*
X102794244Y-83881305D02*
X102794244Y-83524162D01*
X102794244Y-83524162D02*
X102722815Y-83381305D01*
X103365672Y-82667019D02*
X102365672Y-82667019D01*
X102651386Y-82667019D02*
X102508529Y-82595590D01*
X102508529Y-82595590D02*
X102437101Y-82524162D01*
X102437101Y-82524162D02*
X102365672Y-82381304D01*
X102365672Y-82381304D02*
X102365672Y-82238447D01*
X103365672Y-81095591D02*
X101865672Y-81095591D01*
X103294244Y-81095591D02*
X103365672Y-81238448D01*
X103365672Y-81238448D02*
X103365672Y-81524162D01*
X103365672Y-81524162D02*
X103294244Y-81667019D01*
X103294244Y-81667019D02*
X103222815Y-81738448D01*
X103222815Y-81738448D02*
X103079958Y-81809876D01*
X103079958Y-81809876D02*
X102651386Y-81809876D01*
X102651386Y-81809876D02*
X102508529Y-81738448D01*
X102508529Y-81738448D02*
X102437101Y-81667019D01*
X102437101Y-81667019D02*
X102365672Y-81524162D01*
X102365672Y-81524162D02*
X102365672Y-81238448D01*
X102365672Y-81238448D02*
X102437101Y-81095591D01*
X129846772Y-101002908D02*
X128346772Y-101002908D01*
X128346772Y-101002908D02*
X129418201Y-100502908D01*
X129418201Y-100502908D02*
X128346772Y-100002908D01*
X128346772Y-100002908D02*
X129846772Y-100002908D01*
X128346772Y-98574336D02*
X128346772Y-99288622D01*
X128346772Y-99288622D02*
X129061058Y-99360050D01*
X129061058Y-99360050D02*
X128989629Y-99288622D01*
X128989629Y-99288622D02*
X128918201Y-99145765D01*
X128918201Y-99145765D02*
X128918201Y-98788622D01*
X128918201Y-98788622D02*
X128989629Y-98645765D01*
X128989629Y-98645765D02*
X129061058Y-98574336D01*
X129061058Y-98574336D02*
X129203915Y-98502907D01*
X129203915Y-98502907D02*
X129561058Y-98502907D01*
X129561058Y-98502907D02*
X129703915Y-98574336D01*
X129703915Y-98574336D02*
X129775344Y-98645765D01*
X129775344Y-98645765D02*
X129846772Y-98788622D01*
X129846772Y-98788622D02*
X129846772Y-99145765D01*
X129846772Y-99145765D02*
X129775344Y-99288622D01*
X129775344Y-99288622D02*
X129703915Y-99360050D01*
X129775344Y-97931479D02*
X129846772Y-97717194D01*
X129846772Y-97717194D02*
X129846772Y-97360051D01*
X129846772Y-97360051D02*
X129775344Y-97217194D01*
X129775344Y-97217194D02*
X129703915Y-97145765D01*
X129703915Y-97145765D02*
X129561058Y-97074336D01*
X129561058Y-97074336D02*
X129418201Y-97074336D01*
X129418201Y-97074336D02*
X129275344Y-97145765D01*
X129275344Y-97145765D02*
X129203915Y-97217194D01*
X129203915Y-97217194D02*
X129132486Y-97360051D01*
X129132486Y-97360051D02*
X129061058Y-97645765D01*
X129061058Y-97645765D02*
X128989629Y-97788622D01*
X128989629Y-97788622D02*
X128918201Y-97860051D01*
X128918201Y-97860051D02*
X128775344Y-97931479D01*
X128775344Y-97931479D02*
X128632486Y-97931479D01*
X128632486Y-97931479D02*
X128489629Y-97860051D01*
X128489629Y-97860051D02*
X128418201Y-97788622D01*
X128418201Y-97788622D02*
X128346772Y-97645765D01*
X128346772Y-97645765D02*
X128346772Y-97288622D01*
X128346772Y-97288622D02*
X128418201Y-97074336D01*
X128846772Y-96645765D02*
X128846772Y-96074337D01*
X128346772Y-96431480D02*
X129632486Y-96431480D01*
X129632486Y-96431480D02*
X129775344Y-96360051D01*
X129775344Y-96360051D02*
X129846772Y-96217194D01*
X129846772Y-96217194D02*
X129846772Y-96074337D01*
X129846772Y-94931480D02*
X129061058Y-94931480D01*
X129061058Y-94931480D02*
X128918201Y-95002908D01*
X128918201Y-95002908D02*
X128846772Y-95145765D01*
X128846772Y-95145765D02*
X128846772Y-95431480D01*
X128846772Y-95431480D02*
X128918201Y-95574337D01*
X129775344Y-94931480D02*
X129846772Y-95074337D01*
X129846772Y-95074337D02*
X129846772Y-95431480D01*
X129846772Y-95431480D02*
X129775344Y-95574337D01*
X129775344Y-95574337D02*
X129632486Y-95645765D01*
X129632486Y-95645765D02*
X129489629Y-95645765D01*
X129489629Y-95645765D02*
X129346772Y-95574337D01*
X129346772Y-95574337D02*
X129275344Y-95431480D01*
X129275344Y-95431480D02*
X129275344Y-95074337D01*
X129275344Y-95074337D02*
X129203915Y-94931480D01*
X129775344Y-93574337D02*
X129846772Y-93717194D01*
X129846772Y-93717194D02*
X129846772Y-94002908D01*
X129846772Y-94002908D02*
X129775344Y-94145765D01*
X129775344Y-94145765D02*
X129703915Y-94217194D01*
X129703915Y-94217194D02*
X129561058Y-94288622D01*
X129561058Y-94288622D02*
X129132486Y-94288622D01*
X129132486Y-94288622D02*
X128989629Y-94217194D01*
X128989629Y-94217194D02*
X128918201Y-94145765D01*
X128918201Y-94145765D02*
X128846772Y-94002908D01*
X128846772Y-94002908D02*
X128846772Y-93717194D01*
X128846772Y-93717194D02*
X128918201Y-93574337D01*
X129846772Y-92931480D02*
X128346772Y-92931480D01*
X129275344Y-92788623D02*
X129846772Y-92360051D01*
X128846772Y-92360051D02*
X129418201Y-92931480D01*
X129703915Y-90860051D02*
X129775344Y-90931479D01*
X129775344Y-90931479D02*
X129846772Y-91145765D01*
X129846772Y-91145765D02*
X129846772Y-91288622D01*
X129846772Y-91288622D02*
X129775344Y-91502908D01*
X129775344Y-91502908D02*
X129632486Y-91645765D01*
X129632486Y-91645765D02*
X129489629Y-91717194D01*
X129489629Y-91717194D02*
X129203915Y-91788622D01*
X129203915Y-91788622D02*
X128989629Y-91788622D01*
X128989629Y-91788622D02*
X128703915Y-91717194D01*
X128703915Y-91717194D02*
X128561058Y-91645765D01*
X128561058Y-91645765D02*
X128418201Y-91502908D01*
X128418201Y-91502908D02*
X128346772Y-91288622D01*
X128346772Y-91288622D02*
X128346772Y-91145765D01*
X128346772Y-91145765D02*
X128418201Y-90931479D01*
X128418201Y-90931479D02*
X128489629Y-90860051D01*
X129846772Y-90002908D02*
X129775344Y-90145765D01*
X129775344Y-90145765D02*
X129703915Y-90217194D01*
X129703915Y-90217194D02*
X129561058Y-90288622D01*
X129561058Y-90288622D02*
X129132486Y-90288622D01*
X129132486Y-90288622D02*
X128989629Y-90217194D01*
X128989629Y-90217194D02*
X128918201Y-90145765D01*
X128918201Y-90145765D02*
X128846772Y-90002908D01*
X128846772Y-90002908D02*
X128846772Y-89788622D01*
X128846772Y-89788622D02*
X128918201Y-89645765D01*
X128918201Y-89645765D02*
X128989629Y-89574337D01*
X128989629Y-89574337D02*
X129132486Y-89502908D01*
X129132486Y-89502908D02*
X129561058Y-89502908D01*
X129561058Y-89502908D02*
X129703915Y-89574337D01*
X129703915Y-89574337D02*
X129775344Y-89645765D01*
X129775344Y-89645765D02*
X129846772Y-89788622D01*
X129846772Y-89788622D02*
X129846772Y-90002908D01*
X129846772Y-88860051D02*
X128846772Y-88860051D01*
X129132486Y-88860051D02*
X128989629Y-88788622D01*
X128989629Y-88788622D02*
X128918201Y-88717194D01*
X128918201Y-88717194D02*
X128846772Y-88574336D01*
X128846772Y-88574336D02*
X128846772Y-88431479D01*
X129775344Y-87360051D02*
X129846772Y-87502908D01*
X129846772Y-87502908D02*
X129846772Y-87788623D01*
X129846772Y-87788623D02*
X129775344Y-87931480D01*
X129775344Y-87931480D02*
X129632486Y-88002908D01*
X129632486Y-88002908D02*
X129061058Y-88002908D01*
X129061058Y-88002908D02*
X128918201Y-87931480D01*
X128918201Y-87931480D02*
X128846772Y-87788623D01*
X128846772Y-87788623D02*
X128846772Y-87502908D01*
X128846772Y-87502908D02*
X128918201Y-87360051D01*
X128918201Y-87360051D02*
X129061058Y-87288623D01*
X129061058Y-87288623D02*
X129203915Y-87288623D01*
X129203915Y-87288623D02*
X129346772Y-88002908D01*
X149988114Y-70619671D02*
X149702400Y-70619671D01*
X149702400Y-70619671D02*
X149559543Y-70548242D01*
X149559543Y-70548242D02*
X149416686Y-70405385D01*
X149416686Y-70405385D02*
X149345257Y-70119671D01*
X149345257Y-70119671D02*
X149345257Y-69619671D01*
X149345257Y-69619671D02*
X149416686Y-69333957D01*
X149416686Y-69333957D02*
X149559543Y-69191100D01*
X149559543Y-69191100D02*
X149702400Y-69119671D01*
X149702400Y-69119671D02*
X149988114Y-69119671D01*
X149988114Y-69119671D02*
X150130972Y-69191100D01*
X150130972Y-69191100D02*
X150273829Y-69333957D01*
X150273829Y-69333957D02*
X150345257Y-69619671D01*
X150345257Y-69619671D02*
X150345257Y-70119671D01*
X150345257Y-70119671D02*
X150273829Y-70405385D01*
X150273829Y-70405385D02*
X150130972Y-70548242D01*
X150130972Y-70548242D02*
X149988114Y-70619671D01*
X148702400Y-69119671D02*
X148702400Y-70619671D01*
X148702400Y-70619671D02*
X147845257Y-69119671D01*
X147845257Y-69119671D02*
X147845257Y-70619671D01*
X146059542Y-70691100D02*
X147345256Y-68762528D01*
X145273827Y-70619671D02*
X144988113Y-70619671D01*
X144988113Y-70619671D02*
X144845256Y-70548242D01*
X144845256Y-70548242D02*
X144702399Y-70405385D01*
X144702399Y-70405385D02*
X144630970Y-70119671D01*
X144630970Y-70119671D02*
X144630970Y-69619671D01*
X144630970Y-69619671D02*
X144702399Y-69333957D01*
X144702399Y-69333957D02*
X144845256Y-69191100D01*
X144845256Y-69191100D02*
X144988113Y-69119671D01*
X144988113Y-69119671D02*
X145273827Y-69119671D01*
X145273827Y-69119671D02*
X145416685Y-69191100D01*
X145416685Y-69191100D02*
X145559542Y-69333957D01*
X145559542Y-69333957D02*
X145630970Y-69619671D01*
X145630970Y-69619671D02*
X145630970Y-70119671D01*
X145630970Y-70119671D02*
X145559542Y-70405385D01*
X145559542Y-70405385D02*
X145416685Y-70548242D01*
X145416685Y-70548242D02*
X145273827Y-70619671D01*
X143488113Y-69905385D02*
X143988113Y-69905385D01*
X143988113Y-69119671D02*
X143988113Y-70619671D01*
X143988113Y-70619671D02*
X143273827Y-70619671D01*
X142202399Y-69905385D02*
X142702399Y-69905385D01*
X142702399Y-69119671D02*
X142702399Y-70619671D01*
X142702399Y-70619671D02*
X141988113Y-70619671D01*
X205345357Y-86058627D02*
X205273928Y-86201485D01*
X205273928Y-86201485D02*
X205273928Y-86415770D01*
X205273928Y-86415770D02*
X205345357Y-86630056D01*
X205345357Y-86630056D02*
X205488214Y-86772913D01*
X205488214Y-86772913D02*
X205631071Y-86844342D01*
X205631071Y-86844342D02*
X205916785Y-86915770D01*
X205916785Y-86915770D02*
X206131071Y-86915770D01*
X206131071Y-86915770D02*
X206416785Y-86844342D01*
X206416785Y-86844342D02*
X206559642Y-86772913D01*
X206559642Y-86772913D02*
X206702500Y-86630056D01*
X206702500Y-86630056D02*
X206773928Y-86415770D01*
X206773928Y-86415770D02*
X206773928Y-86272913D01*
X206773928Y-86272913D02*
X206702500Y-86058627D01*
X206702500Y-86058627D02*
X206631071Y-85987199D01*
X206631071Y-85987199D02*
X206131071Y-85987199D01*
X206131071Y-85987199D02*
X206131071Y-86272913D01*
X206773928Y-85344342D02*
X205273928Y-85344342D01*
X205273928Y-85344342D02*
X205273928Y-84772913D01*
X205273928Y-84772913D02*
X205345357Y-84630056D01*
X205345357Y-84630056D02*
X205416785Y-84558627D01*
X205416785Y-84558627D02*
X205559642Y-84487199D01*
X205559642Y-84487199D02*
X205773928Y-84487199D01*
X205773928Y-84487199D02*
X205916785Y-84558627D01*
X205916785Y-84558627D02*
X205988214Y-84630056D01*
X205988214Y-84630056D02*
X206059642Y-84772913D01*
X206059642Y-84772913D02*
X206059642Y-85344342D01*
X206702500Y-83915770D02*
X206773928Y-83701485D01*
X206773928Y-83701485D02*
X206773928Y-83344342D01*
X206773928Y-83344342D02*
X206702500Y-83201485D01*
X206702500Y-83201485D02*
X206631071Y-83130056D01*
X206631071Y-83130056D02*
X206488214Y-83058627D01*
X206488214Y-83058627D02*
X206345357Y-83058627D01*
X206345357Y-83058627D02*
X206202500Y-83130056D01*
X206202500Y-83130056D02*
X206131071Y-83201485D01*
X206131071Y-83201485D02*
X206059642Y-83344342D01*
X206059642Y-83344342D02*
X205988214Y-83630056D01*
X205988214Y-83630056D02*
X205916785Y-83772913D01*
X205916785Y-83772913D02*
X205845357Y-83844342D01*
X205845357Y-83844342D02*
X205702500Y-83915770D01*
X205702500Y-83915770D02*
X205559642Y-83915770D01*
X205559642Y-83915770D02*
X205416785Y-83844342D01*
X205416785Y-83844342D02*
X205345357Y-83772913D01*
X205345357Y-83772913D02*
X205273928Y-83630056D01*
X205273928Y-83630056D02*
X205273928Y-83272913D01*
X205273928Y-83272913D02*
X205345357Y-83058627D01*
D13*
X151970119Y-117664933D02*
X152684404Y-117664933D01*
X152684404Y-117664933D02*
X152827261Y-117712552D01*
X152827261Y-117712552D02*
X152922500Y-117807790D01*
X152922500Y-117807790D02*
X152970119Y-117950647D01*
X152970119Y-117950647D02*
X152970119Y-118045885D01*
X152970119Y-116664933D02*
X152970119Y-117236361D01*
X152970119Y-116950647D02*
X151970119Y-116950647D01*
X151970119Y-116950647D02*
X152112976Y-117045885D01*
X152112976Y-117045885D02*
X152208214Y-117141123D01*
X152208214Y-117141123D02*
X152255833Y-117236361D01*
X209488433Y-77046980D02*
X209488433Y-76332695D01*
X209488433Y-76332695D02*
X209536052Y-76189838D01*
X209536052Y-76189838D02*
X209631290Y-76094600D01*
X209631290Y-76094600D02*
X209774147Y-76046980D01*
X209774147Y-76046980D02*
X209869385Y-76046980D01*
X209107480Y-77046980D02*
X208488433Y-77046980D01*
X208488433Y-77046980D02*
X208821766Y-76666028D01*
X208821766Y-76666028D02*
X208678909Y-76666028D01*
X208678909Y-76666028D02*
X208583671Y-76618409D01*
X208583671Y-76618409D02*
X208536052Y-76570790D01*
X208536052Y-76570790D02*
X208488433Y-76475552D01*
X208488433Y-76475552D02*
X208488433Y-76237457D01*
X208488433Y-76237457D02*
X208536052Y-76142219D01*
X208536052Y-76142219D02*
X208583671Y-76094600D01*
X208583671Y-76094600D02*
X208678909Y-76046980D01*
X208678909Y-76046980D02*
X208964623Y-76046980D01*
X208964623Y-76046980D02*
X209059861Y-76094600D01*
X209059861Y-76094600D02*
X209107480Y-76142219D01*
X114752395Y-77781419D02*
X114752395Y-76781419D01*
X114752395Y-77257609D02*
X115323823Y-77257609D01*
X115323823Y-77781419D02*
X115323823Y-76781419D01*
X116228585Y-77114752D02*
X116228585Y-77781419D01*
X115990490Y-76733800D02*
X115752395Y-77448085D01*
X115752395Y-77448085D02*
X116371442Y-77448085D01*
X154708266Y-107452619D02*
X154708266Y-108166904D01*
X154708266Y-108166904D02*
X154660647Y-108309761D01*
X154660647Y-108309761D02*
X154565409Y-108405000D01*
X154565409Y-108405000D02*
X154422552Y-108452619D01*
X154422552Y-108452619D02*
X154327314Y-108452619D01*
X155660647Y-107452619D02*
X155184457Y-107452619D01*
X155184457Y-107452619D02*
X155136838Y-107928809D01*
X155136838Y-107928809D02*
X155184457Y-107881190D01*
X155184457Y-107881190D02*
X155279695Y-107833571D01*
X155279695Y-107833571D02*
X155517790Y-107833571D01*
X155517790Y-107833571D02*
X155613028Y-107881190D01*
X155613028Y-107881190D02*
X155660647Y-107928809D01*
X155660647Y-107928809D02*
X155708266Y-108024047D01*
X155708266Y-108024047D02*
X155708266Y-108262142D01*
X155708266Y-108262142D02*
X155660647Y-108357380D01*
X155660647Y-108357380D02*
X155613028Y-108405000D01*
X155613028Y-108405000D02*
X155517790Y-108452619D01*
X155517790Y-108452619D02*
X155279695Y-108452619D01*
X155279695Y-108452619D02*
X155184457Y-108405000D01*
X155184457Y-108405000D02*
X155136838Y-108357380D01*
X183264666Y-90182419D02*
X183264666Y-90896704D01*
X183264666Y-90896704D02*
X183217047Y-91039561D01*
X183217047Y-91039561D02*
X183121809Y-91134800D01*
X183121809Y-91134800D02*
X182978952Y-91182419D01*
X182978952Y-91182419D02*
X182883714Y-91182419D01*
X184169428Y-90515752D02*
X184169428Y-91182419D01*
X183931333Y-90134800D02*
X183693238Y-90849085D01*
X183693238Y-90849085D02*
X184312285Y-90849085D01*
X170316760Y-128651400D02*
X170459617Y-128699019D01*
X170459617Y-128699019D02*
X170697712Y-128699019D01*
X170697712Y-128699019D02*
X170792950Y-128651400D01*
X170792950Y-128651400D02*
X170840569Y-128603780D01*
X170840569Y-128603780D02*
X170888188Y-128508542D01*
X170888188Y-128508542D02*
X170888188Y-128413304D01*
X170888188Y-128413304D02*
X170840569Y-128318066D01*
X170840569Y-128318066D02*
X170792950Y-128270447D01*
X170792950Y-128270447D02*
X170697712Y-128222828D01*
X170697712Y-128222828D02*
X170507236Y-128175209D01*
X170507236Y-128175209D02*
X170411998Y-128127590D01*
X170411998Y-128127590D02*
X170364379Y-128079971D01*
X170364379Y-128079971D02*
X170316760Y-127984733D01*
X170316760Y-127984733D02*
X170316760Y-127889495D01*
X170316760Y-127889495D02*
X170364379Y-127794257D01*
X170364379Y-127794257D02*
X170411998Y-127746638D01*
X170411998Y-127746638D02*
X170507236Y-127699019D01*
X170507236Y-127699019D02*
X170745331Y-127699019D01*
X170745331Y-127699019D02*
X170888188Y-127746638D01*
X171221522Y-127699019D02*
X171459617Y-128699019D01*
X171459617Y-128699019D02*
X171650093Y-127984733D01*
X171650093Y-127984733D02*
X171840569Y-128699019D01*
X171840569Y-128699019D02*
X172078665Y-127699019D01*
X172983426Y-128699019D02*
X172411998Y-128699019D01*
X172697712Y-128699019D02*
X172697712Y-127699019D01*
X172697712Y-127699019D02*
X172602474Y-127841876D01*
X172602474Y-127841876D02*
X172507236Y-127937114D01*
X172507236Y-127937114D02*
X172411998Y-127984733D01*
X109418395Y-117151419D02*
X109418395Y-116151419D01*
X109418395Y-116627609D02*
X109989823Y-116627609D01*
X109989823Y-117151419D02*
X109989823Y-116151419D01*
X110894585Y-116151419D02*
X110704109Y-116151419D01*
X110704109Y-116151419D02*
X110608871Y-116199038D01*
X110608871Y-116199038D02*
X110561252Y-116246657D01*
X110561252Y-116246657D02*
X110466014Y-116389514D01*
X110466014Y-116389514D02*
X110418395Y-116579990D01*
X110418395Y-116579990D02*
X110418395Y-116960942D01*
X110418395Y-116960942D02*
X110466014Y-117056180D01*
X110466014Y-117056180D02*
X110513633Y-117103800D01*
X110513633Y-117103800D02*
X110608871Y-117151419D01*
X110608871Y-117151419D02*
X110799347Y-117151419D01*
X110799347Y-117151419D02*
X110894585Y-117103800D01*
X110894585Y-117103800D02*
X110942204Y-117056180D01*
X110942204Y-117056180D02*
X110989823Y-116960942D01*
X110989823Y-116960942D02*
X110989823Y-116722847D01*
X110989823Y-116722847D02*
X110942204Y-116627609D01*
X110942204Y-116627609D02*
X110894585Y-116579990D01*
X110894585Y-116579990D02*
X110799347Y-116532371D01*
X110799347Y-116532371D02*
X110608871Y-116532371D01*
X110608871Y-116532371D02*
X110513633Y-116579990D01*
X110513633Y-116579990D02*
X110466014Y-116627609D01*
X110466014Y-116627609D02*
X110418395Y-116722847D01*
D12*
X196399528Y-121627574D02*
X196399528Y-120770432D01*
X197899528Y-121199003D02*
X196399528Y-121199003D01*
X197899528Y-120270432D02*
X196399528Y-120270432D01*
X196399528Y-120270432D02*
X196399528Y-119699003D01*
X196399528Y-119699003D02*
X196470957Y-119556146D01*
X196470957Y-119556146D02*
X196542385Y-119484717D01*
X196542385Y-119484717D02*
X196685242Y-119413289D01*
X196685242Y-119413289D02*
X196899528Y-119413289D01*
X196899528Y-119413289D02*
X197042385Y-119484717D01*
X197042385Y-119484717D02*
X197113814Y-119556146D01*
X197113814Y-119556146D02*
X197185242Y-119699003D01*
X197185242Y-119699003D02*
X197185242Y-120270432D01*
X196899528Y-116984718D02*
X197899528Y-116984718D01*
X196328100Y-117341860D02*
X197399528Y-117699003D01*
X197399528Y-117699003D02*
X197399528Y-116770432D01*
X196399528Y-115913289D02*
X196399528Y-115770432D01*
X196399528Y-115770432D02*
X196470957Y-115627575D01*
X196470957Y-115627575D02*
X196542385Y-115556147D01*
X196542385Y-115556147D02*
X196685242Y-115484718D01*
X196685242Y-115484718D02*
X196970957Y-115413289D01*
X196970957Y-115413289D02*
X197328100Y-115413289D01*
X197328100Y-115413289D02*
X197613814Y-115484718D01*
X197613814Y-115484718D02*
X197756671Y-115556147D01*
X197756671Y-115556147D02*
X197828100Y-115627575D01*
X197828100Y-115627575D02*
X197899528Y-115770432D01*
X197899528Y-115770432D02*
X197899528Y-115913289D01*
X197899528Y-115913289D02*
X197828100Y-116056147D01*
X197828100Y-116056147D02*
X197756671Y-116127575D01*
X197756671Y-116127575D02*
X197613814Y-116199004D01*
X197613814Y-116199004D02*
X197328100Y-116270432D01*
X197328100Y-116270432D02*
X196970957Y-116270432D01*
X196970957Y-116270432D02*
X196685242Y-116199004D01*
X196685242Y-116199004D02*
X196542385Y-116127575D01*
X196542385Y-116127575D02*
X196470957Y-116056147D01*
X196470957Y-116056147D02*
X196399528Y-115913289D01*
X196399528Y-114056147D02*
X196399528Y-114770433D01*
X196399528Y-114770433D02*
X197113814Y-114841861D01*
X197113814Y-114841861D02*
X197042385Y-114770433D01*
X197042385Y-114770433D02*
X196970957Y-114627576D01*
X196970957Y-114627576D02*
X196970957Y-114270433D01*
X196970957Y-114270433D02*
X197042385Y-114127576D01*
X197042385Y-114127576D02*
X197113814Y-114056147D01*
X197113814Y-114056147D02*
X197256671Y-113984718D01*
X197256671Y-113984718D02*
X197613814Y-113984718D01*
X197613814Y-113984718D02*
X197756671Y-114056147D01*
X197756671Y-114056147D02*
X197828100Y-114127576D01*
X197828100Y-114127576D02*
X197899528Y-114270433D01*
X197899528Y-114270433D02*
X197899528Y-114627576D01*
X197899528Y-114627576D02*
X197828100Y-114770433D01*
X197828100Y-114770433D02*
X197756671Y-114841861D01*
X196399528Y-112699005D02*
X196399528Y-112984719D01*
X196399528Y-112984719D02*
X196470957Y-113127576D01*
X196470957Y-113127576D02*
X196542385Y-113199005D01*
X196542385Y-113199005D02*
X196756671Y-113341862D01*
X196756671Y-113341862D02*
X197042385Y-113413290D01*
X197042385Y-113413290D02*
X197613814Y-113413290D01*
X197613814Y-113413290D02*
X197756671Y-113341862D01*
X197756671Y-113341862D02*
X197828100Y-113270433D01*
X197828100Y-113270433D02*
X197899528Y-113127576D01*
X197899528Y-113127576D02*
X197899528Y-112841862D01*
X197899528Y-112841862D02*
X197828100Y-112699005D01*
X197828100Y-112699005D02*
X197756671Y-112627576D01*
X197756671Y-112627576D02*
X197613814Y-112556147D01*
X197613814Y-112556147D02*
X197256671Y-112556147D01*
X197256671Y-112556147D02*
X197113814Y-112627576D01*
X197113814Y-112627576D02*
X197042385Y-112699005D01*
X197042385Y-112699005D02*
X196970957Y-112841862D01*
X196970957Y-112841862D02*
X196970957Y-113127576D01*
X196970957Y-113127576D02*
X197042385Y-113270433D01*
X197042385Y-113270433D02*
X197113814Y-113341862D01*
X197113814Y-113341862D02*
X197256671Y-113413290D01*
D14*
G36*
X94505995Y-106727211D02*
G01*
X95740164Y-106727211D01*
X95740164Y-104816240D01*
X96098471Y-104816240D01*
X96098471Y-106727211D01*
X97651136Y-106727211D01*
X97651136Y-107125331D01*
X94107876Y-107125331D01*
X94107876Y-104617180D01*
X94505995Y-104617180D01*
X94505995Y-106727211D01*
G37*
G36*
X97651136Y-103462635D02*
G01*
X94107876Y-103462635D01*
X94107876Y-100914672D01*
X94464882Y-100914672D01*
X94475486Y-101979641D01*
X94486089Y-103044610D01*
X95072604Y-103055623D01*
X95659120Y-103066636D01*
X95680446Y-101133638D01*
X96038754Y-101133638D01*
X96060080Y-103066582D01*
X96666501Y-103055596D01*
X97272923Y-103044610D01*
X97283516Y-101959735D01*
X97294108Y-100874860D01*
X97651136Y-100874860D01*
X97651136Y-103462635D01*
G37*
G36*
X94497106Y-86273841D02*
G01*
X94508124Y-86861067D01*
X97651136Y-86861067D01*
X97651136Y-87053491D01*
X97646057Y-87171430D01*
X97633156Y-87253563D01*
X97624595Y-87272457D01*
X97580182Y-87278340D01*
X97464895Y-87283770D01*
X97287485Y-87288600D01*
X97056702Y-87292682D01*
X96781296Y-87295868D01*
X96470016Y-87298011D01*
X96131613Y-87298963D01*
X96052024Y-87298998D01*
X94505995Y-87298998D01*
X94505995Y-88453544D01*
X94106844Y-88453544D01*
X94127782Y-85686616D01*
X94486089Y-85686616D01*
X94497106Y-86273841D01*
G37*
G36*
X97137672Y-96882663D02*
G01*
X97172371Y-96912650D01*
X97284274Y-97039271D01*
X97403333Y-97214676D01*
X97513274Y-97411553D01*
X97597825Y-97602586D01*
X97617306Y-97659448D01*
X97666344Y-97887616D01*
X97688596Y-98150816D01*
X97684007Y-98418696D01*
X97652522Y-98660901D01*
X97619336Y-98785255D01*
X97459810Y-99135969D01*
X97245424Y-99430653D01*
X96980550Y-99666484D01*
X96669564Y-99840639D01*
X96316839Y-99950297D01*
X95926751Y-99992633D01*
X95752785Y-99989658D01*
X95556157Y-99975132D01*
X95405003Y-99950120D01*
X95265201Y-99906309D01*
X95102632Y-99835387D01*
X95084728Y-99826921D01*
X94756097Y-99629395D01*
X94483983Y-99376710D01*
X94271105Y-99071535D01*
X94225204Y-98982699D01*
X94162793Y-98846161D01*
X94122185Y-98730385D01*
X94097773Y-98609142D01*
X94083949Y-98456200D01*
X94076525Y-98287086D01*
X94080390Y-97963967D01*
X94120789Y-97691192D01*
X94203597Y-97445619D01*
X94334685Y-97204109D01*
X94362087Y-97161952D01*
X94467664Y-97007234D01*
X94544443Y-96914194D01*
X94605860Y-96877011D01*
X94665350Y-96889863D01*
X94736347Y-96946927D01*
X94773724Y-96983572D01*
X94917192Y-97127040D01*
X94785290Y-97277268D01*
X94608094Y-97524676D01*
X94498548Y-97792633D01*
X94450693Y-98097550D01*
X94447428Y-98207462D01*
X94451301Y-98396134D01*
X94468219Y-98536494D01*
X94503854Y-98659513D01*
X94549832Y-98766646D01*
X94699825Y-99026350D01*
X94883863Y-99226522D01*
X95118906Y-99385400D01*
X95131630Y-99392230D01*
X95440732Y-99517366D01*
X95759291Y-99575271D01*
X96075958Y-99569058D01*
X96379379Y-99501839D01*
X96658203Y-99376723D01*
X96901078Y-99196824D01*
X97096653Y-98965252D01*
X97172245Y-98832913D01*
X97288198Y-98515576D01*
X97324730Y-98196920D01*
X97282006Y-97878043D01*
X97160194Y-97560047D01*
X96959459Y-97244033D01*
X96926178Y-97201402D01*
X96838142Y-97091109D01*
X96964372Y-96964880D01*
X97044056Y-96889000D01*
X97093389Y-96863712D01*
X97137672Y-96882663D01*
G37*
G36*
X97631694Y-108064486D02*
G01*
X97647425Y-108137658D01*
X97651136Y-108251470D01*
X97651136Y-108470454D01*
X97172699Y-108679934D01*
X96694263Y-108889414D01*
X96704909Y-109842451D01*
X96715556Y-110795487D01*
X97631230Y-111207947D01*
X97643404Y-111420070D01*
X97644109Y-111534587D01*
X97633067Y-111605619D01*
X97619537Y-111618182D01*
X97553303Y-111590056D01*
X97426368Y-111533968D01*
X97247395Y-111453869D01*
X97025043Y-111353710D01*
X96767973Y-111237441D01*
X96484845Y-111109014D01*
X96337343Y-111041951D01*
X96184322Y-110972379D01*
X95875062Y-110831488D01*
X95565728Y-110690290D01*
X95264979Y-110552738D01*
X94981477Y-110422781D01*
X94723881Y-110304371D01*
X94500853Y-110201459D01*
X94321054Y-110117996D01*
X94193144Y-110057932D01*
X94125783Y-110025218D01*
X94117829Y-110020753D01*
X94082747Y-109952726D01*
X94069554Y-109844486D01*
X94070205Y-109836090D01*
X94567474Y-109836090D01*
X95323020Y-110175681D01*
X95558674Y-110281437D01*
X95777258Y-110379228D01*
X95965549Y-110463163D01*
X96110323Y-110527350D01*
X96198357Y-110565896D01*
X96207954Y-110569994D01*
X96337343Y-110624716D01*
X96337343Y-109850415D01*
X96335775Y-109611949D01*
X96331404Y-109403262D01*
X96324732Y-109236438D01*
X96316261Y-109123564D01*
X96306492Y-109076724D01*
X96305214Y-109076114D01*
X96260162Y-109091634D01*
X96154739Y-109134732D01*
X96001143Y-109200214D01*
X95811569Y-109282888D01*
X95618458Y-109368513D01*
X95391273Y-109469936D01*
X95174394Y-109566663D01*
X94984405Y-109651305D01*
X94837886Y-109716474D01*
X94765653Y-109748500D01*
X94567474Y-109836090D01*
X94070205Y-109836090D01*
X94078250Y-109732374D01*
X94108835Y-109652734D01*
X94117829Y-109643701D01*
X94159702Y-109622367D01*
X94265435Y-109572157D01*
X94426351Y-109497032D01*
X94633773Y-109400957D01*
X94879025Y-109287894D01*
X95153430Y-109161806D01*
X95448313Y-109026656D01*
X95754995Y-108886408D01*
X96064801Y-108745023D01*
X96369054Y-108606466D01*
X96659078Y-108474699D01*
X96926195Y-108353685D01*
X97161730Y-108247388D01*
X97357005Y-108159769D01*
X97503345Y-108094793D01*
X97592072Y-108056422D01*
X97601371Y-108052600D01*
X97631694Y-108064486D01*
G37*
G36*
X96812849Y-112228802D02*
G01*
X97057873Y-112283170D01*
X97268876Y-112403151D01*
X97441914Y-112580630D01*
X97573044Y-112807497D01*
X97658326Y-113075640D01*
X97693816Y-113376945D01*
X97675571Y-113703303D01*
X97634423Y-113919318D01*
X97551976Y-114172456D01*
X97433690Y-114422765D01*
X97295786Y-114637786D01*
X97243795Y-114701051D01*
X97113675Y-114846901D01*
X96840125Y-114611745D01*
X96968673Y-114432746D01*
X97136324Y-114168911D01*
X97243371Y-113920394D01*
X97298299Y-113662927D01*
X97310361Y-113455425D01*
X97306313Y-113258093D01*
X97288304Y-113114637D01*
X97252432Y-112999950D01*
X97233111Y-112958301D01*
X97112047Y-112788331D01*
X96956486Y-112674524D01*
X96781877Y-112620989D01*
X96603665Y-112631832D01*
X96437299Y-112711163D01*
X96404214Y-112737870D01*
X96313215Y-112836344D01*
X96236552Y-112965325D01*
X96167507Y-113139628D01*
X96099362Y-113374066D01*
X96078807Y-113455425D01*
X95977161Y-113822853D01*
X95868980Y-114116876D01*
X95749112Y-114343699D01*
X95612408Y-114509528D01*
X95453717Y-114620570D01*
X95267892Y-114683030D01*
X95049780Y-114703114D01*
X95043456Y-114703127D01*
X94774350Y-114668080D01*
X94543047Y-114562962D01*
X94349600Y-114387811D01*
X94194060Y-114142661D01*
X94179681Y-114112321D01*
X94123945Y-113932603D01*
X94091558Y-113703004D01*
X94082978Y-113449905D01*
X94098660Y-113199689D01*
X94139062Y-112978736D01*
X94158923Y-112913783D01*
X94221326Y-112761486D01*
X94298457Y-112610776D01*
X94379450Y-112479099D01*
X94453436Y-112383897D01*
X94509548Y-112342616D01*
X94515071Y-112342123D01*
X94576897Y-112366641D01*
X94665262Y-112425398D01*
X94684868Y-112440908D01*
X94760170Y-112506838D01*
X94780886Y-112554101D01*
X94754216Y-112614255D01*
X94732223Y-112648489D01*
X94586983Y-112899516D01*
X94497367Y-113130022D01*
X94454705Y-113366454D01*
X94448067Y-113515142D01*
X94469441Y-113796807D01*
X94537525Y-114014390D01*
X94652967Y-114168759D01*
X94816415Y-114260782D01*
X95028134Y-114291326D01*
X95163272Y-114278739D01*
X95276426Y-114235275D01*
X95373225Y-114152742D01*
X95459300Y-114022944D01*
X95540280Y-113837688D01*
X95621795Y-113588780D01*
X95696284Y-113318838D01*
X95780242Y-113026519D01*
X95864601Y-112798844D01*
X95956610Y-112621125D01*
X96063520Y-112478677D01*
X96155816Y-112387927D01*
X96295143Y-112292240D01*
X96456737Y-112238689D01*
X96660408Y-112222475D01*
X96812849Y-112228802D01*
G37*
G36*
X96960941Y-89365575D02*
G01*
X97202569Y-89472070D01*
X97404355Y-89645872D01*
X97561875Y-89883960D01*
X97592035Y-89949020D01*
X97641506Y-90121228D01*
X97670403Y-90344409D01*
X97678072Y-90592445D01*
X97663860Y-90839219D01*
X97627112Y-91058612D01*
X97620483Y-91084362D01*
X97553375Y-91278181D01*
X97458384Y-91483731D01*
X97349336Y-91675346D01*
X97240058Y-91827362D01*
X97193485Y-91876957D01*
X97140832Y-91920302D01*
X97096189Y-91924462D01*
X97032842Y-91884823D01*
X96976410Y-91839459D01*
X96893465Y-91767775D01*
X96864421Y-91720172D01*
X96880769Y-91671289D01*
X96907163Y-91633093D01*
X97074849Y-91385774D01*
X97191582Y-91171768D01*
X97265023Y-90970497D01*
X97302833Y-90761382D01*
X97312735Y-90543669D01*
X97294159Y-90277817D01*
X97235236Y-90071500D01*
X97131175Y-89913008D01*
X97014145Y-89814079D01*
X96899969Y-89752904D01*
X96782266Y-89733400D01*
X96684398Y-89738164D01*
X96538557Y-89766700D01*
X96418612Y-89828310D01*
X96318392Y-89931936D01*
X96231727Y-90086520D01*
X96152449Y-90301005D01*
X96074388Y-90584334D01*
X96060023Y-90643199D01*
X95959194Y-91000450D01*
X95844067Y-91284864D01*
X95710279Y-91502605D01*
X95553466Y-91659836D01*
X95369265Y-91762722D01*
X95239918Y-91801806D01*
X94978931Y-91823514D01*
X94737024Y-91773116D01*
X94521665Y-91657276D01*
X94340324Y-91482662D01*
X94200469Y-91255939D01*
X94109570Y-90983772D01*
X94078772Y-90765527D01*
X94085523Y-90386620D01*
X94162242Y-90034816D01*
X94270841Y-89772475D01*
X94356842Y-89609374D01*
X94424741Y-89511832D01*
X94487008Y-89471884D01*
X94556114Y-89481569D01*
X94644528Y-89532922D01*
X94645234Y-89533403D01*
X94731077Y-89597204D01*
X94780054Y-89643949D01*
X94784406Y-89653031D01*
X94765459Y-89697442D01*
X94715599Y-89789418D01*
X94647925Y-89905167D01*
X94516417Y-90178469D01*
X94443925Y-90455069D01*
X94430383Y-90722302D01*
X94475724Y-90967502D01*
X94579881Y-91178004D01*
X94655093Y-91267386D01*
X94745500Y-91347370D01*
X94830858Y-91386650D01*
X94947223Y-91399065D01*
X94999602Y-91399625D01*
X95151439Y-91385812D01*
X95276647Y-91338792D01*
X95381488Y-91250194D01*
X95472226Y-91111646D01*
X95555120Y-90914776D01*
X95636434Y-90651213D01*
X95678352Y-90492212D01*
X95757003Y-90204606D01*
X95832560Y-89981137D01*
X95911314Y-89806876D01*
X95999558Y-89666890D01*
X96054977Y-89598460D01*
X96225223Y-89446839D01*
X96420591Y-89359827D01*
X96659352Y-89329607D01*
X96683897Y-89329406D01*
X96960941Y-89365575D01*
G37*
G36*
X97638627Y-92709590D02*
G01*
X97645317Y-92795095D01*
X97643279Y-92891366D01*
X97631230Y-93116414D01*
X97200926Y-93307399D01*
X97028712Y-93385555D01*
X96882432Y-93455159D01*
X96778080Y-93508386D01*
X96732385Y-93536621D01*
X96720632Y-93588125D01*
X96711689Y-93711013D01*
X96705790Y-93897083D01*
X96703168Y-94138135D01*
X96704056Y-94425972D01*
X96704852Y-94504056D01*
X96715556Y-95433254D01*
X97631230Y-95842192D01*
X97643441Y-96054561D01*
X97646082Y-96180245D01*
X97633528Y-96239903D01*
X97603629Y-96246317D01*
X97528506Y-96214427D01*
X97393867Y-96155055D01*
X97208395Y-96072163D01*
X96980770Y-95969715D01*
X96719671Y-95851673D01*
X96433781Y-95721997D01*
X96307484Y-95664560D01*
X96131778Y-95584652D01*
X95822344Y-95443600D01*
X95514160Y-95302802D01*
X95215905Y-95166221D01*
X94936260Y-95037819D01*
X94683907Y-94921559D01*
X94467524Y-94821403D01*
X94295794Y-94741313D01*
X94177395Y-94685251D01*
X94121010Y-94657181D01*
X94117829Y-94655188D01*
X94082783Y-94586017D01*
X94069563Y-94477468D01*
X94070909Y-94459975D01*
X94617451Y-94459975D01*
X94644136Y-94482440D01*
X94734120Y-94531878D01*
X94877681Y-94603519D01*
X95065094Y-94692595D01*
X95286636Y-94794338D01*
X95433595Y-94860234D01*
X95674830Y-94967543D01*
X95891762Y-95064205D01*
X96073793Y-95145485D01*
X96210326Y-95206646D01*
X96290763Y-95242955D01*
X96307484Y-95250732D01*
X96316636Y-95217795D01*
X96324654Y-95116974D01*
X96331078Y-94960005D01*
X96335450Y-94758624D01*
X96337309Y-94524569D01*
X96337343Y-94487398D01*
X96336156Y-94248220D01*
X96332849Y-94038787D01*
X96327800Y-93871151D01*
X96321386Y-93757363D01*
X96313986Y-93709476D01*
X96312903Y-93708716D01*
X96269657Y-93724203D01*
X96166520Y-93766930D01*
X96016139Y-93831292D01*
X95831157Y-93911688D01*
X95624220Y-94002513D01*
X95407972Y-94098166D01*
X95195059Y-94193043D01*
X94998127Y-94281540D01*
X94829818Y-94358056D01*
X94702780Y-94416986D01*
X94629656Y-94452729D01*
X94617451Y-94459975D01*
X94070909Y-94459975D01*
X94078170Y-94365648D01*
X94108602Y-94286664D01*
X94117829Y-94277581D01*
X94163270Y-94253981D01*
X94274025Y-94201234D01*
X94442726Y-94122717D01*
X94662010Y-94021807D01*
X94924509Y-93901880D01*
X95222859Y-93766314D01*
X95549694Y-93618485D01*
X95879506Y-93469925D01*
X96225695Y-93314241D01*
X96549778Y-93168393D01*
X96844498Y-93035654D01*
X97102594Y-92919300D01*
X97316809Y-92822605D01*
X97479884Y-92748842D01*
X97584559Y-92701286D01*
X97623373Y-92683325D01*
X97638627Y-92709590D01*
G37*
G36*
X97969631Y-84114045D02*
G01*
X97161468Y-84114045D01*
X95132773Y-84114045D01*
X94279111Y-84114045D01*
X93789381Y-84114045D01*
X93789381Y-83163075D01*
X95132773Y-83163075D01*
X95345134Y-83150864D01*
X95557494Y-83138653D01*
X95746794Y-82808086D01*
X96766133Y-82808086D01*
X96799797Y-82951526D01*
X96885783Y-83064264D01*
X97010777Y-83132741D01*
X97161468Y-83143400D01*
X97258576Y-83116445D01*
X97375881Y-83029318D01*
X97453249Y-82897530D01*
X97474367Y-82751650D01*
X97469829Y-82720628D01*
X97425466Y-82623617D01*
X97348828Y-82531522D01*
X97210865Y-82454147D01*
X97062447Y-82443397D01*
X96925074Y-82494745D01*
X96820249Y-82603663D01*
X96798103Y-82647501D01*
X96766133Y-82808086D01*
X95746794Y-82808086D01*
X95842474Y-82641005D01*
X95964175Y-82436816D01*
X96072850Y-82270494D01*
X96160920Y-82152941D01*
X96220810Y-82095063D01*
X96222445Y-82094178D01*
X96314187Y-82070688D01*
X96483397Y-82054562D01*
X96728248Y-82045933D01*
X96906952Y-82044413D01*
X97496467Y-82043826D01*
X97484224Y-81874625D01*
X97471982Y-81705425D01*
X96826108Y-81694491D01*
X96546545Y-81690196D01*
X96332757Y-81692750D01*
X96170896Y-81709208D01*
X96047115Y-81746625D01*
X95947564Y-81812055D01*
X95858397Y-81912554D01*
X95765764Y-82055176D01*
X95655818Y-82246976D01*
X95621263Y-82308295D01*
X95509377Y-82506207D01*
X95402581Y-82694442D01*
X95311187Y-82854870D01*
X95245508Y-82969361D01*
X95232606Y-82991616D01*
X95132773Y-83163075D01*
X93789381Y-83163075D01*
X93789381Y-83140543D01*
X94147688Y-83140543D01*
X94183982Y-83149847D01*
X94279111Y-83153389D01*
X94411783Y-83150425D01*
X94675878Y-83138653D01*
X95163619Y-82286555D01*
X95327216Y-82005432D01*
X95470435Y-81768773D01*
X95589298Y-81582761D01*
X95679823Y-81453581D01*
X95738033Y-81387416D01*
X95745527Y-81382244D01*
X95806206Y-81362785D01*
X95913941Y-81348161D01*
X96076457Y-81337923D01*
X96301480Y-81331623D01*
X96596738Y-81328811D01*
X96667778Y-81328622D01*
X97495862Y-81327211D01*
X97483922Y-81098293D01*
X97471982Y-80869374D01*
X96514641Y-80869374D01*
X96208212Y-80869957D01*
X95971096Y-80872150D01*
X95792992Y-80876620D01*
X95663594Y-80884037D01*
X95572599Y-80895067D01*
X95509704Y-80910378D01*
X95464604Y-80930638D01*
X95452330Y-80938222D01*
X95398523Y-80996440D01*
X95310313Y-81121633D01*
X95190006Y-81310120D01*
X95039909Y-81558217D01*
X94862329Y-81862245D01*
X94747524Y-82062979D01*
X94598208Y-82326506D01*
X94462455Y-82567413D01*
X94345054Y-82777091D01*
X94250798Y-82946932D01*
X94184479Y-83068328D01*
X94150888Y-83132673D01*
X94147688Y-83140543D01*
X93789381Y-83140543D01*
X93789381Y-79814359D01*
X97969631Y-79814359D01*
X97969631Y-84114045D01*
G37*
D11*
X113295300Y-114731600D02*
X113295300Y-119931600D01*
X148915300Y-114731600D02*
X113295300Y-114731600D01*
X148915300Y-114731600D02*
X148915300Y-117331600D01*
X148915300Y-117331600D02*
X151515300Y-117331600D01*
X150185300Y-114731600D02*
X151515300Y-114731600D01*
X151515300Y-114731600D02*
X151515300Y-116061600D01*
X151515300Y-117331600D02*
X151515300Y-119931600D01*
X151515300Y-119931600D02*
X113295300Y-119931600D01*
X207825100Y-80541800D02*
X207825100Y-93301800D01*
X207825100Y-80541800D02*
X210485100Y-80541800D01*
X207825100Y-93301800D02*
X210485100Y-93301800D01*
X209155100Y-77941800D02*
X210485100Y-77941800D01*
X210485100Y-77941800D02*
X210485100Y-79271800D01*
X210485100Y-80541800D02*
X210485100Y-93301800D01*
X153711600Y-104397800D02*
X153711600Y-101797800D01*
X156371600Y-101797800D02*
X153711600Y-101797800D01*
X156371600Y-104397800D02*
X153711600Y-104397800D01*
X156371600Y-104397800D02*
X156371600Y-101797800D01*
X156371600Y-105667800D02*
X156371600Y-106997800D01*
X156371600Y-106997800D02*
X155041600Y-106997800D01*
X184598000Y-92057600D02*
X184598000Y-90727600D01*
X185928000Y-92057600D02*
X184598000Y-92057600D01*
X187198000Y-89397600D02*
X192338000Y-89397600D01*
X187198000Y-92057600D02*
X187198000Y-89397600D01*
X187198000Y-92057600D02*
X192338000Y-92057600D01*
X192338000Y-92057600D02*
X192338000Y-89397600D01*
D15*
X165302800Y-121201600D02*
X165302800Y-122301600D01*
X165302800Y-121201600D02*
X170802800Y-121201600D01*
X165302800Y-126801600D02*
X165302800Y-125701600D01*
X168802800Y-125601600D02*
X174802800Y-125601600D01*
X168802800Y-126801600D02*
X165302800Y-126801600D01*
X168802800Y-126801600D02*
X168802800Y-125601600D01*
X170052800Y-126801600D02*
X168802800Y-126801600D01*
X170802800Y-121201600D02*
X170802800Y-122201600D01*
X170802800Y-121201600D02*
X172802800Y-121201600D01*
X170802800Y-122201600D02*
X172802800Y-122201600D01*
X172802800Y-121201600D02*
X178302800Y-121201600D01*
X172802800Y-122201600D02*
X172802800Y-121201600D01*
X173552800Y-126801600D02*
X170052800Y-126801600D01*
X174802800Y-125601600D02*
X174802800Y-126801600D01*
X174802800Y-126801600D02*
X173552800Y-126801600D01*
X178302800Y-121201600D02*
X178302800Y-122301600D01*
X178302800Y-126801600D02*
X174802800Y-126801600D01*
X178302800Y-126801600D02*
X178302800Y-125701600D01*
D11*
X181080700Y-123888600D02*
X181080700Y-108759800D01*
X182080700Y-107759800D02*
X209046300Y-107759800D01*
X209046300Y-124888600D02*
X182080700Y-124888600D01*
X210046300Y-108759800D02*
X210046300Y-123888600D01*
X181080700Y-108759800D02*
G75*
G02*
X182080700Y-107759800I999999J1D01*
G01*
X182080700Y-124888600D02*
G75*
G02*
X181080700Y-123888600I0J1000000D01*
G01*
X209046300Y-107759800D02*
G75*
G02*
X210046300Y-108759800I1J-999999D01*
G01*
X210046300Y-123888600D02*
G75*
G02*
X209046300Y-124888600I-1000000J0D01*
G01*
%LPC*%
D16*
X150185300Y-116061600D03*
D17*
X150185300Y-118601600D03*
X147645300Y-116061600D03*
X147645300Y-118601600D03*
X145105300Y-116061600D03*
X145105300Y-118601600D03*
X142565300Y-116061600D03*
X142565300Y-118601600D03*
X140025300Y-116061600D03*
X140025300Y-118601600D03*
X137485300Y-116061600D03*
X137485300Y-118601600D03*
X134945300Y-116061600D03*
X134945300Y-118601600D03*
X132405300Y-116061600D03*
X132405300Y-118601600D03*
X129865300Y-116061600D03*
X129865300Y-118601600D03*
X127325300Y-116061600D03*
X127325300Y-118601600D03*
X124785300Y-116061600D03*
X124785300Y-118601600D03*
X122245300Y-116061600D03*
X122245300Y-118601600D03*
X119705300Y-116061600D03*
X119705300Y-118601600D03*
X117165300Y-116061600D03*
X117165300Y-118601600D03*
X114625300Y-116061600D03*
X114625300Y-118601600D03*
D16*
X209155100Y-79271800D03*
D17*
X209155100Y-81811800D03*
X209155100Y-84351800D03*
X209155100Y-86891800D03*
X209155100Y-89431800D03*
X209155100Y-91971800D03*
D18*
X110340700Y-77484600D03*
D16*
X155041600Y-105667800D03*
D17*
X155041600Y-103127800D03*
D16*
X185928000Y-90727600D03*
D17*
X188468000Y-90727600D03*
X191008000Y-90727600D03*
D19*
X168802800Y-124001600D03*
X171802800Y-124001600D03*
X174802800Y-124001600D03*
D20*
X165552800Y-124001600D03*
X178052800Y-124001600D03*
D18*
X110470300Y-121214600D03*
D16*
X182676800Y-109066400D03*
D17*
X182707869Y-112153815D03*
X182778400Y-120528100D03*
D16*
X182778400Y-123493600D03*
D17*
X205718900Y-109029800D03*
X205723500Y-123507800D03*
D21*
X203860000Y-78504800D03*
X142604000Y-78484800D03*
X149352000Y-75944800D03*
X149352000Y-81024800D03*
X197112000Y-75964800D03*
X197112000Y-81044800D03*
D22*
X205181200Y-95909200D03*
D23*
X203181200Y-95909200D03*
D24*
X208381600Y-94029600D03*
%LPD*%
M02*
