%TF.GenerationSoftware,KiCad,Pcbnew,7.99.0-unknown-07d7ccf46f~176~ubuntu22.04.1*%
%TF.CreationDate,2024-01-11T12:25:35+09:00*%
%TF.ProjectId,bGeigieZen 3.0.1 production,62476569-6769-4655-9a65-6e20332e302e,V3.0.1*%
%TF.SameCoordinates,Original*%
%TF.FileFunction,Copper,L2,Bot*%
%TF.FilePolarity,Positive*%
%FSLAX46Y46*%
G04 Gerber Fmt 4.6, Leading zero omitted, Abs format (unit mm)*
G04 Created by KiCad (PCBNEW 7.99.0-unknown-07d7ccf46f~176~ubuntu22.04.1) date 2024-01-11 12:25:35*
%MOMM*%
%LPD*%
G01*
G04 APERTURE LIST*
%TA.AperFunction,ComponentPad*%
%ADD10R,1.700000X1.700000*%
%TD*%
%TA.AperFunction,ComponentPad*%
%ADD11O,1.700000X1.700000*%
%TD*%
%TA.AperFunction,ComponentPad*%
%ADD12C,1.676400*%
%TD*%
%TA.AperFunction,ComponentPad*%
%ADD13C,3.000000*%
%TD*%
%TA.AperFunction,ComponentPad*%
%ADD14R,1.350000X1.350000*%
%TD*%
%TA.AperFunction,ComponentPad*%
%ADD15O,1.350000X1.350000*%
%TD*%
%TA.AperFunction,ComponentPad*%
%ADD16C,2.743200*%
%TD*%
%TA.AperFunction,SMDPad,CuDef*%
%ADD17R,12.000000X12.000000*%
%TD*%
%TA.AperFunction,ViaPad*%
%ADD18C,0.300000*%
%TD*%
%TA.AperFunction,Conductor*%
%ADD19C,0.250000*%
%TD*%
%TA.AperFunction,Conductor*%
%ADD20C,0.500000*%
%TD*%
G04 APERTURE END LIST*
D10*
%TO.P,J1,1,Pin_1*%
%TO.N,unconnected-(J1-Pin_1-Pad1)*%
X51018800Y-44591500D03*
D11*
%TO.P,J1,2,Pin_2*%
%TO.N,GND*%
X51018800Y-47131500D03*
%TO.P,J1,3,Pin_3*%
%TO.N,unconnected-(J1-Pin_3-Pad3)*%
X48478800Y-44591500D03*
%TO.P,J1,4,Pin_4*%
%TO.N,GND*%
X48478800Y-47131500D03*
%TO.P,J1,5,Pin_5*%
%TO.N,unconnected-(J1-Pin_5-Pad5)*%
X45938800Y-44591500D03*
%TO.P,J1,6,Pin_6*%
%TO.N,GND*%
X45938800Y-47131500D03*
%TO.P,J1,7,Pin_7*%
%TO.N,unconnected-(J1-Pin_7-Pad7)*%
X43398800Y-44591500D03*
%TO.P,J1,8,Pin_8*%
%TO.N,unconnected-(J1-Pin_8-Pad8)*%
X43398800Y-47131500D03*
%TO.P,J1,9,Pin_9*%
%TO.N,unconnected-(J1-Pin_9-Pad9)*%
X40858800Y-44591500D03*
%TO.P,J1,10,Pin_10*%
%TO.N,unconnected-(J1-Pin_10-Pad10)*%
X40858800Y-47131500D03*
%TO.P,J1,11,Pin_11*%
%TO.N,3.3V*%
X38318800Y-44591500D03*
%TO.P,J1,12,Pin_12*%
%TO.N,unconnected-(J1-Pin_12-Pad12)*%
X38318800Y-47131500D03*
%TO.P,J1,13,Pin_13*%
%TO.N,unconnected-(J1-Pin_13-Pad13)*%
X35778800Y-44591500D03*
%TO.P,J1,14,Pin_14*%
%TO.N,unconnected-(J1-Pin_14-Pad14)*%
X35778800Y-47131500D03*
%TO.P,J1,15,Pin_15*%
%TO.N,/RX2*%
X33238800Y-44591500D03*
%TO.P,J1,16,Pin_16*%
%TO.N,/TX2*%
X33238800Y-47131500D03*
%TO.P,J1,17,Pin_17*%
%TO.N,/SDA*%
X30698800Y-44591500D03*
%TO.P,J1,18,Pin_18*%
%TO.N,/SCL*%
X30698800Y-47131500D03*
%TO.P,J1,19,Pin_19*%
%TO.N,/GIO5*%
X28158800Y-44591500D03*
%TO.P,J1,20,Pin_20*%
%TO.N,/GIO2 on Core and GIO32 on Core-2*%
X28158800Y-47131500D03*
%TO.P,J1,21,Pin_21*%
%TO.N,/GIO13*%
X25618800Y-44591500D03*
%TO.P,J1,22,Pin_22*%
%TO.N,unconnected-(J1-Pin_22-Pad22)*%
X25618800Y-47131500D03*
%TO.P,J1,23,Pin_23*%
%TO.N,unconnected-(J1-Pin_23-Pad23)*%
X23078800Y-44591500D03*
%TO.P,J1,24,Pin_24*%
%TO.N,unconnected-(J1-Pin_24-Pad24)*%
X23078800Y-47131500D03*
%TO.P,J1,25,Pin_25*%
%TO.N,/GIO34*%
X20538800Y-44591500D03*
%TO.P,J1,26,Pin_26*%
%TO.N,unconnected-(J1-Pin_26-Pad26)*%
X20538800Y-47131500D03*
%TO.P,J1,27,Pin_27*%
%TO.N,5V*%
X17998800Y-44591500D03*
%TO.P,J1,28,Pin_28*%
%TO.N,unconnected-(J1-Pin_28-Pad28)*%
X17998800Y-47131500D03*
%TO.P,J1,29,Pin_29*%
%TO.N,/BAT*%
X15458800Y-44591500D03*
%TO.P,J1,30,Pin_30*%
%TO.N,unconnected-(J1-Pin_30-Pad30)*%
X15458800Y-47131500D03*
%TD*%
D10*
%TO.P,J10,1,Pin_1*%
%TO.N,GND*%
X119599200Y-18683500D03*
D11*
%TO.P,J10,2,Pin_2*%
X117059200Y-18683500D03*
%TD*%
D10*
%TO.P,J3,1,Pin_1*%
%TO.N,unconnected-(J3-Pin_1-Pad1)*%
X62550800Y-26684500D03*
D11*
%TO.P,J3,2,Pin_2*%
%TO.N,GND*%
X62550800Y-24144500D03*
%TO.P,J3,3,Pin_3*%
%TO.N,/TX2*%
X62550800Y-21604500D03*
%TO.P,J3,4,Pin_4*%
%TO.N,/RX2*%
X62550800Y-19064500D03*
%TO.P,J3,5,Pin_5*%
%TO.N,3.3V*%
X62550800Y-16524500D03*
%TO.P,J3,6,Pin_6*%
%TO.N,unconnected-(J3-Pin_6-Pad6)*%
X62550800Y-13984500D03*
%TD*%
D12*
%TO.P,SW1,1,A*%
%TO.N,unconnected-(SW1-A-Pad1)*%
X97071800Y-2022500D03*
%TO.P,SW1,2,B*%
%TO.N,/VBATT*%
X94071800Y-2022500D03*
%TO.P,SW1,3,C*%
%TO.N,/BAT*%
X91071800Y-2022500D03*
D13*
%TO.P,SW1,MT1*%
%TO.N,N/C*%
X100321800Y-2022500D03*
%TO.P,SW1,MT2*%
X87821800Y-2022500D03*
%TD*%
D10*
%TO.P,J9,1,Pin_1*%
%TO.N,Net-(J9-Pin_1)*%
X119603800Y-33161500D03*
D11*
%TO.P,J9,2,Pin_2*%
X117063800Y-33161500D03*
%TD*%
D10*
%TO.P,J5,1,Pin_1*%
%TO.N,unconnected-(J5-Pin_1-Pad1)*%
X70687800Y-35109500D03*
D11*
%TO.P,J5,2,Pin_2*%
%TO.N,unconnected-(J5-Pin_2-Pad2)*%
X70687800Y-32569500D03*
%TD*%
D10*
%TO.P,J4,1,Pin_1*%
%TO.N,GND*%
X100633800Y-18654500D03*
D11*
%TO.P,J4,2,Pin_2*%
%TO.N,/GIO2 on Core and GIO32 on Core-2*%
X103173800Y-18654500D03*
%TO.P,J4,3,Pin_3*%
%TO.N,3.3V*%
X105713800Y-18654500D03*
%TD*%
D10*
%TO.P,J2,1,Pin_1*%
%TO.N,3.3V*%
X116674200Y-23514500D03*
D11*
%TO.P,J2,2,Pin_2*%
%TO.N,/GIO2 on Core and GIO32 on Core-2*%
X116674200Y-26054500D03*
%TO.P,J2,3,Pin_3*%
%TO.N,GND*%
X116674200Y-28594500D03*
%TD*%
D10*
%TO.P,J11,1,Pin_1*%
%TO.N,/VBATT*%
X92700200Y-33034500D03*
D11*
%TO.P,J11,2,Pin_2*%
X92700200Y-30069000D03*
%TD*%
D14*
%TO.P,J6,1,1*%
%TO.N,/SCL*%
X68013800Y-48353500D03*
D15*
%TO.P,J6,2,2*%
%TO.N,/SDA*%
X68013800Y-46353500D03*
%TO.P,J6,3,3*%
%TO.N,3.3V*%
X68013800Y-44353500D03*
%TO.P,J6,4,4*%
%TO.N,GND*%
X68013800Y-42353500D03*
%TD*%
D10*
%TO.P,J8,1,Pin_1*%
%TO.N,GND*%
X92649400Y-18607300D03*
D11*
%TO.P,J8,2,Pin_2*%
%TO.N,Net-(BT1--)*%
X92649400Y-21147300D03*
%TD*%
D16*
%TO.P,BT1,1,+*%
%TO.N,/VBATT*%
X117491800Y-45334500D03*
D17*
X114063800Y-45334500D03*
%TO.P,BT1,2,-*%
%TO.N,Net-(BT1--)*%
X59263800Y-45124500D03*
D16*
%TO.P,BT1,BAT Neg*%
%TO.N,N/C*%
X62983800Y-47854500D03*
X62983800Y-42774500D03*
X56235800Y-45314500D03*
%TO.P,BT1,PWR@2*%
X110743800Y-42794500D03*
%TO.P,BT1,PWR@3*%
X110743800Y-47874500D03*
%TD*%
D18*
%TO.N,/RX2*%
X35017200Y-40654500D03*
%TO.N,/GIO2 on Core and GIO32 on Core-2*%
X32604200Y-36844500D03*
%TO.N,Net-(BT1--)*%
X82694200Y-27879600D03*
X64815200Y-38187500D03*
%TD*%
D19*
%TO.N,/RX2*%
X62550800Y-19064500D02*
X62551200Y-19064500D01*
X61376200Y-19064500D02*
X62550800Y-19064500D01*
X38954200Y-40654500D02*
X61376200Y-19064500D01*
X35017200Y-40654500D02*
X38954200Y-40654500D01*
%TO.N,/TX2*%
X33263200Y-47156500D02*
X33251200Y-47144000D01*
X52619200Y-47794500D02*
X51681200Y-48731500D01*
X34034200Y-47926500D02*
X34033200Y-47926500D01*
X33437200Y-47330500D02*
X33338200Y-47230500D01*
X33636200Y-47528500D02*
X33438200Y-47330500D01*
X34839200Y-48731500D02*
X34034200Y-47926500D01*
X33239200Y-47131500D02*
X33264200Y-47156500D01*
X33251200Y-47144000D02*
X33238800Y-47131600D01*
X52619200Y-30799500D02*
X52619200Y-47794500D01*
X33636200Y-47528500D02*
X34034200Y-47926500D01*
X33264200Y-47156500D02*
X33263200Y-47156500D01*
X33313200Y-47205500D02*
X33288200Y-47180500D01*
X62551200Y-21604500D02*
X62550800Y-21604500D01*
X33251200Y-47144000D02*
X33239200Y-47131500D01*
X33238800Y-47131600D02*
X33238800Y-47131500D01*
X33338200Y-47230500D02*
X33438200Y-47330500D01*
X34033200Y-47926500D02*
X33636200Y-47528500D01*
X61814200Y-21604500D02*
X52619200Y-30799500D01*
X33338200Y-47230500D02*
X33313200Y-47205500D01*
X33438200Y-47330500D02*
X33437200Y-47330500D01*
X62550800Y-21604500D02*
X61814200Y-21604500D01*
X33313200Y-47205500D02*
X33288200Y-47180500D01*
X51681200Y-48731500D02*
X34839200Y-48731500D01*
X33288200Y-47180500D02*
X33264200Y-47156500D01*
D20*
%TO.N,3.3V*%
X107314200Y-18654500D02*
X105714200Y-18654500D01*
X68013800Y-44353500D02*
X66587200Y-44353500D01*
X62550800Y-16524500D02*
X62551200Y-16524500D01*
X116674200Y-23514500D02*
X112174200Y-23514500D01*
X66587200Y-20560800D02*
X62551200Y-16524500D01*
X68014200Y-44353500D02*
X68013800Y-44353500D01*
X105714200Y-18654500D02*
X105713800Y-18654500D01*
X112174200Y-23514500D02*
X107314200Y-18654500D01*
X66587200Y-44353500D02*
X66587200Y-20560800D01*
%TO.N,/VBATT*%
X96444200Y-26877800D02*
X96444200Y-4394800D01*
X96444200Y-4394800D02*
X95028200Y-2978300D01*
X96444200Y-26877800D02*
X95891400Y-26877800D01*
X92700200Y-30069000D02*
X92700200Y-33034500D01*
X105941200Y-45334500D02*
X114063800Y-45334500D01*
X93641200Y-33034500D02*
X92700200Y-33034500D01*
X105941200Y-45334500D02*
X93641200Y-33034500D01*
X95028200Y-2978300D02*
X95027200Y-2978300D01*
X94550200Y-2500400D02*
X94311200Y-2261400D01*
X117491800Y-45334500D02*
X117492200Y-45334500D01*
X95027200Y-2978300D02*
X94550200Y-2500400D01*
X94071800Y-2022500D02*
X94072200Y-2022500D01*
X94311200Y-2261400D02*
X94072200Y-2022500D01*
X94550200Y-2500400D02*
X95028200Y-2978300D01*
X114063800Y-45334500D02*
X117491800Y-45334500D01*
X95891400Y-26877800D02*
X92700200Y-30069000D01*
D19*
%TO.N,/GIO2 on Core and GIO32 on Core-2*%
X13808200Y-43979500D02*
X13808200Y-47318500D01*
X103819200Y-19299300D02*
X103818200Y-19299300D01*
X17397200Y-40390500D02*
X13808200Y-43979500D01*
X32604200Y-36844500D02*
X29058200Y-40390500D01*
X13808200Y-47318500D02*
X15017200Y-48528500D01*
X15017200Y-48528500D02*
X26762200Y-48528500D01*
X28158800Y-47131900D02*
X28159200Y-47131500D01*
X103173800Y-18654500D02*
X103174200Y-18654500D01*
X29058200Y-40390500D02*
X17397200Y-40390500D01*
X26762200Y-48528500D02*
X28158800Y-47131900D01*
X103174200Y-18654500D02*
X103819200Y-19299300D01*
X103818200Y-19299300D02*
X103174200Y-18654500D01*
X28158800Y-47131900D02*
X28158800Y-47131500D01*
%TO.N,Net-(BT1--)*%
X62984200Y-42774500D02*
X60978200Y-44780500D01*
X59263800Y-45124900D02*
X59263800Y-45124500D01*
X62984200Y-47854500D02*
X60444200Y-45314500D01*
X82694200Y-27879600D02*
X84207200Y-27879600D01*
X60978200Y-42024500D02*
X64815200Y-38187500D01*
X59074200Y-45314500D02*
X56236200Y-45314500D01*
X92293800Y-20969500D02*
X92294200Y-20969500D01*
X60978200Y-44780500D02*
X60444200Y-45314500D01*
X59264200Y-45124500D02*
X59263800Y-45124900D01*
X84207200Y-27879600D02*
X91117200Y-20969500D01*
X59263800Y-45124900D02*
X59074200Y-45314500D01*
X91117200Y-20969500D02*
X92293800Y-20969500D01*
X60444200Y-45314500D02*
X59454200Y-45314500D01*
X60978200Y-44780500D02*
X60978200Y-42024500D01*
X59454200Y-45314500D02*
X59264200Y-45124500D01*
%TD*%
%TA.AperFunction,Conductor*%
%TO.N,GND*%
G36*
X48012875Y-46938507D02*
G01*
X47978800Y-47065674D01*
X47978800Y-47197326D01*
X48012875Y-47324493D01*
X48048097Y-47385500D01*
X46369503Y-47385500D01*
X46404725Y-47324493D01*
X46438800Y-47197326D01*
X46438800Y-47065674D01*
X46404725Y-46938507D01*
X46369503Y-46877500D01*
X48048097Y-46877500D01*
X48012875Y-46938507D01*
G37*
%TD.AperFunction*%
%TA.AperFunction,Conductor*%
G36*
X50552875Y-46938507D02*
G01*
X50518800Y-47065674D01*
X50518800Y-47197326D01*
X50552875Y-47324493D01*
X50588097Y-47385500D01*
X48909503Y-47385500D01*
X48944725Y-47324493D01*
X48978800Y-47197326D01*
X48978800Y-47065674D01*
X48944725Y-46938507D01*
X48909503Y-46877500D01*
X50588097Y-46877500D01*
X50552875Y-46938507D01*
G37*
%TD.AperFunction*%
%TA.AperFunction,Conductor*%
G36*
X64114165Y-19160302D02*
G01*
X64988041Y-20034243D01*
X65594393Y-20640640D01*
X65791799Y-20838060D01*
X65825821Y-20900373D01*
X65828700Y-20927152D01*
X65828700Y-38660468D01*
X65808698Y-38728589D01*
X65755042Y-38775082D01*
X65684768Y-38785186D01*
X65627191Y-38761336D01*
X65581560Y-38727177D01*
X65510004Y-38673611D01*
X65510002Y-38673610D01*
X65505765Y-38671296D01*
X65455566Y-38621091D01*
X65440479Y-38551716D01*
X65448343Y-38516039D01*
X65508165Y-38358301D01*
X65508165Y-38358300D01*
X65508166Y-38358298D01*
X65528904Y-38187503D01*
X65528904Y-38187496D01*
X65508165Y-38016700D01*
X65447154Y-37855826D01*
X65447154Y-37855825D01*
X65349415Y-37714227D01*
X65220630Y-37600133D01*
X65220629Y-37600132D01*
X65220626Y-37600130D01*
X65068287Y-37520177D01*
X65068279Y-37520173D01*
X64901231Y-37479000D01*
X64901228Y-37479000D01*
X64729172Y-37479000D01*
X64729168Y-37479000D01*
X64562120Y-37520173D01*
X64562112Y-37520177D01*
X64409773Y-37600130D01*
X64409768Y-37600134D01*
X64280985Y-37714227D01*
X64183246Y-37855825D01*
X64151460Y-37939637D01*
X64122744Y-37984050D01*
X63527701Y-38579095D01*
X63465388Y-38613120D01*
X63438605Y-38616000D01*
X53378700Y-38616000D01*
X53310579Y-38595998D01*
X53264086Y-38542342D01*
X53252700Y-38490000D01*
X53252700Y-31114094D01*
X53272702Y-31045973D01*
X53289605Y-31024999D01*
X57422839Y-26891765D01*
X61593664Y-22720939D01*
X61655974Y-22686915D01*
X61726789Y-22691980D01*
X61760149Y-22710605D01*
X61805224Y-22745689D01*
X61839005Y-22763970D01*
X61889396Y-22813982D01*
X61904749Y-22883299D01*
X61880189Y-22949912D01*
X61839009Y-22985596D01*
X61805504Y-23003728D01*
X61805498Y-23003732D01*
X61627897Y-23141965D01*
X61475474Y-23307541D01*
X61352380Y-23495951D01*
X61261979Y-23702043D01*
X61261976Y-23702050D01*
X61214255Y-23890499D01*
X61214256Y-23890500D01*
X62120097Y-23890500D01*
X62084875Y-23951507D01*
X62050800Y-24078674D01*
X62050800Y-24210326D01*
X62084875Y-24337493D01*
X62120097Y-24398500D01*
X61214255Y-24398500D01*
X61261976Y-24586949D01*
X61261979Y-24586956D01*
X61352380Y-24793048D01*
X61475474Y-24981458D01*
X61618781Y-25137132D01*
X61650201Y-25200797D01*
X61642214Y-25271343D01*
X61597355Y-25326372D01*
X61570113Y-25340524D01*
X61454595Y-25383611D01*
X61454592Y-25383612D01*
X61337538Y-25471238D01*
X61249912Y-25588292D01*
X61249910Y-25588297D01*
X61198811Y-25725295D01*
X61198809Y-25725303D01*
X61192300Y-25785850D01*
X61192300Y-27583149D01*
X61198809Y-27643696D01*
X61198811Y-27643704D01*
X61249910Y-27780702D01*
X61249912Y-27780707D01*
X61337538Y-27897761D01*
X61454592Y-27985387D01*
X61454594Y-27985388D01*
X61454596Y-27985389D01*
X61513675Y-28007424D01*
X61591595Y-28036488D01*
X61591603Y-28036490D01*
X61652150Y-28042999D01*
X61652155Y-28042999D01*
X61652162Y-28043000D01*
X61652168Y-28043000D01*
X63449432Y-28043000D01*
X63449438Y-28043000D01*
X63449445Y-28042999D01*
X63449449Y-28042999D01*
X63509996Y-28036490D01*
X63509999Y-28036489D01*
X63510001Y-28036489D01*
X63647004Y-27985389D01*
X63764061Y-27897761D01*
X63851689Y-27780704D01*
X63902789Y-27643701D01*
X63903276Y-27639179D01*
X63909299Y-27583149D01*
X63909300Y-27583132D01*
X63909300Y-25785867D01*
X63909299Y-25785850D01*
X63902790Y-25725303D01*
X63902788Y-25725295D01*
X63860488Y-25611887D01*
X63851689Y-25588296D01*
X63851688Y-25588294D01*
X63851687Y-25588292D01*
X63764061Y-25471238D01*
X63647007Y-25383612D01*
X63647004Y-25383611D01*
X63531486Y-25340524D01*
X63474651Y-25297977D01*
X63449841Y-25231457D01*
X63464933Y-25162083D01*
X63482819Y-25137132D01*
X63626123Y-24981461D01*
X63749219Y-24793048D01*
X63839620Y-24586956D01*
X63839623Y-24586949D01*
X63887344Y-24398500D01*
X62981503Y-24398500D01*
X63016725Y-24337493D01*
X63050800Y-24210326D01*
X63050800Y-24078674D01*
X63016725Y-23951507D01*
X62981503Y-23890500D01*
X63887344Y-23890500D01*
X63887344Y-23890499D01*
X63839623Y-23702050D01*
X63839620Y-23702043D01*
X63749219Y-23495951D01*
X63626125Y-23307541D01*
X63473702Y-23141965D01*
X63296101Y-23003732D01*
X63296100Y-23003731D01*
X63262591Y-22985597D01*
X63212201Y-22935583D01*
X63196850Y-22866266D01*
X63221412Y-22799653D01*
X63262590Y-22763972D01*
X63296376Y-22745689D01*
X63474040Y-22607406D01*
X63626522Y-22441768D01*
X63749660Y-22253291D01*
X63840096Y-22047116D01*
X63895364Y-21828868D01*
X63913956Y-21604500D01*
X63895364Y-21380132D01*
X63873806Y-21295000D01*
X63840097Y-21161887D01*
X63840096Y-21161886D01*
X63840096Y-21161884D01*
X63749660Y-20955709D01*
X63710646Y-20895993D01*
X63626524Y-20767234D01*
X63626520Y-20767229D01*
X63474037Y-20601591D01*
X63392182Y-20537881D01*
X63296376Y-20463311D01*
X63263119Y-20445313D01*
X63212729Y-20395302D01*
X63197376Y-20325985D01*
X63221936Y-20259372D01*
X63263120Y-20223686D01*
X63296376Y-20205689D01*
X63474040Y-20067406D01*
X63626522Y-19901768D01*
X63749660Y-19713291D01*
X63840096Y-19507116D01*
X63895364Y-19288868D01*
X63899497Y-19238986D01*
X63925055Y-19172754D01*
X63982366Y-19130850D01*
X64053234Y-19126583D01*
X64114165Y-19160302D01*
G37*
%TD.AperFunction*%
%TA.AperFunction,Conductor*%
G36*
X119133275Y-18490507D02*
G01*
X119099200Y-18617674D01*
X119099200Y-18749326D01*
X119133275Y-18876493D01*
X119168497Y-18937500D01*
X117489903Y-18937500D01*
X117525125Y-18876493D01*
X117559200Y-18749326D01*
X117559200Y-18617674D01*
X117525125Y-18490507D01*
X117489903Y-18429500D01*
X119168497Y-18429500D01*
X119133275Y-18490507D01*
G37*
%TD.AperFunction*%
%TA.AperFunction,Conductor*%
G36*
X15217640Y5139123D02*
G01*
X15361203Y5129740D01*
X15365033Y5129431D01*
X15510608Y5115384D01*
X15514340Y5114966D01*
X15659264Y5096472D01*
X15663026Y5095934D01*
X15807231Y5073030D01*
X15810966Y5072378D01*
X15954352Y5045107D01*
X15958048Y5044347D01*
X16092466Y5014528D01*
X16100463Y5012754D01*
X16104171Y5011872D01*
X16245383Y4976032D01*
X16249045Y4975044D01*
X16389060Y4934966D01*
X16392680Y4933871D01*
X16465808Y4910527D01*
X16531316Y4889616D01*
X16534926Y4888403D01*
X16556346Y4880845D01*
X16672069Y4840012D01*
X16675609Y4838703D01*
X16811090Y4786235D01*
X16811103Y4786230D01*
X16814632Y4784801D01*
X16948320Y4728303D01*
X16951795Y4726773D01*
X17083656Y4666252D01*
X17087081Y4664615D01*
X17216842Y4600180D01*
X17220239Y4598428D01*
X17318929Y4545576D01*
X17347796Y4530117D01*
X17351207Y4528221D01*
X17476059Y4456297D01*
X17479957Y4453957D01*
X18219986Y3990943D01*
X18228390Y3985685D01*
X18234972Y3979989D01*
X18244471Y3975101D01*
X18253664Y3969871D01*
X18262757Y3964180D01*
X18271020Y3961436D01*
X18415486Y3887082D01*
X19034369Y3568552D01*
X19041232Y3563537D01*
X19051623Y3559210D01*
X19060844Y3554926D01*
X19070913Y3549745D01*
X19079177Y3547740D01*
X19846624Y3228250D01*
X19871011Y3218098D01*
X19878092Y3213740D01*
X19889269Y3210081D01*
X19898508Y3206651D01*
X19909435Y3202101D01*
X19917652Y3200788D01*
X20733315Y2933688D01*
X20740545Y2929970D01*
X20752429Y2927051D01*
X20761611Y2924423D01*
X20773276Y2920601D01*
X20781379Y2919935D01*
X21616192Y2714713D01*
X21623526Y2711604D01*
X21636033Y2709486D01*
X21645105Y2707604D01*
X21657471Y2704562D01*
X21665445Y2704501D01*
X22514723Y2560515D01*
X22522122Y2557992D01*
X22535127Y2556731D01*
X22544059Y2555541D01*
X22556961Y2553352D01*
X22564767Y2553854D01*
X23423810Y2470480D01*
X23431269Y2468511D01*
X23444592Y2468153D01*
X23453418Y2467606D01*
X23466759Y2466308D01*
X23474401Y2467347D01*
X24338449Y2443968D01*
X24345930Y2442538D01*
X24359471Y2443102D01*
X24368130Y2443165D01*
X24381748Y2442797D01*
X24389208Y2444341D01*
X25253574Y2480345D01*
X25261101Y2479432D01*
X25274682Y2480930D01*
X25283270Y2481581D01*
X25296962Y2482150D01*
X25304269Y2484191D01*
X26164212Y2578970D01*
X26171789Y2578570D01*
X26185270Y2580995D01*
X26193804Y2582231D01*
X26207442Y2583732D01*
X26214589Y2586266D01*
X27065413Y2739221D01*
X27073029Y2739341D01*
X27086200Y2742655D01*
X27094665Y2744479D01*
X27108081Y2746890D01*
X27115065Y2749917D01*
X27951996Y2960439D01*
X27959665Y2961088D01*
X27972446Y2965267D01*
X27980895Y2967707D01*
X27993899Y2970977D01*
X28000728Y2974513D01*
X28819089Y3242017D01*
X28826808Y3243220D01*
X28838985Y3248184D01*
X28847436Y3251282D01*
X28859916Y3255359D01*
X28866577Y3259426D01*
X29661678Y3583338D01*
X29669419Y3585125D01*
X29680845Y3590783D01*
X29689253Y3594571D01*
X29701104Y3599397D01*
X29707566Y3604012D01*
X30474657Y3983741D01*
X30482399Y3986143D01*
X30492981Y3992413D01*
X30501341Y3996950D01*
X30512416Y4002430D01*
X30518653Y4007621D01*
X31270175Y4452763D01*
X31277558Y4456807D01*
X31536408Y4587581D01*
X31539980Y4589314D01*
X31806853Y4713437D01*
X31810204Y4714935D01*
X31944389Y4772595D01*
X31946867Y4773627D01*
X32082826Y4828462D01*
X32085652Y4829561D01*
X32222474Y4880859D01*
X32225620Y4881990D01*
X32363499Y4929499D01*
X32366928Y4930626D01*
X32505799Y4973996D01*
X32509494Y4975086D01*
X32649299Y5013971D01*
X32653353Y5015025D01*
X32794044Y5049092D01*
X32798454Y5050075D01*
X32940013Y5079000D01*
X32944702Y5079865D01*
X33087153Y5103327D01*
X33092180Y5104051D01*
X33235481Y5121724D01*
X33240815Y5122265D01*
X33361536Y5131950D01*
X33384980Y5133831D01*
X33390552Y5134153D01*
X33532947Y5139191D01*
X33536340Y5139311D01*
X33540795Y5139390D01*
X38193043Y5139390D01*
X38201259Y5139122D01*
X38220514Y5137864D01*
X38344819Y5129741D01*
X38348654Y5129431D01*
X38494200Y5115387D01*
X38497988Y5114962D01*
X38642883Y5096471D01*
X38646665Y5095930D01*
X38790842Y5073031D01*
X38794566Y5072382D01*
X38937973Y5045107D01*
X38941669Y5044347D01*
X39076087Y5014528D01*
X39084084Y5012754D01*
X39087792Y5011872D01*
X39229004Y4976032D01*
X39232666Y4975044D01*
X39372681Y4934966D01*
X39376301Y4933871D01*
X39449273Y4910577D01*
X39514938Y4889616D01*
X39518548Y4888403D01*
X39539968Y4880845D01*
X39655691Y4840012D01*
X39659250Y4838695D01*
X39794709Y4786235D01*
X39798252Y4784801D01*
X39830728Y4771077D01*
X39931928Y4728310D01*
X39931957Y4728298D01*
X39935414Y4726775D01*
X40067250Y4666265D01*
X40070698Y4664618D01*
X40200464Y4600180D01*
X40203861Y4598428D01*
X40331409Y4530122D01*
X40334814Y4528230D01*
X40434470Y4470821D01*
X40459641Y4456321D01*
X40463569Y4453962D01*
X41203605Y3990943D01*
X41212009Y3985685D01*
X41218591Y3979989D01*
X41228090Y3975101D01*
X41237283Y3969871D01*
X41246376Y3964180D01*
X41254639Y3961436D01*
X41399105Y3887082D01*
X42017988Y3568552D01*
X42024851Y3563537D01*
X42035242Y3559210D01*
X42044463Y3554926D01*
X42054532Y3549745D01*
X42062796Y3547740D01*
X42830243Y3228250D01*
X42854630Y3218098D01*
X42861711Y3213740D01*
X42872888Y3210081D01*
X42882127Y3206651D01*
X42893055Y3202101D01*
X42901271Y3200787D01*
X43020955Y3161595D01*
X43716933Y2933688D01*
X43724162Y2929971D01*
X43736036Y2927054D01*
X43745218Y2924426D01*
X43756892Y2920601D01*
X43764996Y2919935D01*
X44599810Y2714713D01*
X44607144Y2711604D01*
X44619651Y2709486D01*
X44628723Y2707604D01*
X44641089Y2704562D01*
X44649063Y2704501D01*
X45498341Y2560515D01*
X45505740Y2557992D01*
X45518745Y2556731D01*
X45527677Y2555541D01*
X45540579Y2553352D01*
X45548385Y2553854D01*
X46407427Y2470480D01*
X46414886Y2468511D01*
X46428209Y2468153D01*
X46437035Y2467606D01*
X46450376Y2466308D01*
X46458018Y2467347D01*
X47322066Y2443968D01*
X47329547Y2442538D01*
X47343088Y2443102D01*
X47351747Y2443165D01*
X47365365Y2442797D01*
X47372825Y2444341D01*
X48237191Y2480345D01*
X48244718Y2479432D01*
X48258299Y2480930D01*
X48266887Y2481581D01*
X48280579Y2482150D01*
X48287886Y2484191D01*
X49147829Y2578970D01*
X49155406Y2578570D01*
X49168887Y2580995D01*
X49177421Y2582231D01*
X49191059Y2583732D01*
X49198206Y2586266D01*
X50049030Y2739221D01*
X50056646Y2739341D01*
X50069817Y2742655D01*
X50078282Y2744479D01*
X50091698Y2746890D01*
X50098682Y2749917D01*
X50935612Y2960439D01*
X50943281Y2961088D01*
X50956062Y2965267D01*
X50964511Y2967707D01*
X50977515Y2970977D01*
X50984344Y2974513D01*
X51802705Y3242017D01*
X51810423Y3243220D01*
X51822600Y3248184D01*
X51831051Y3251282D01*
X51843534Y3255360D01*
X51850197Y3259427D01*
X52213665Y3407499D01*
X52645287Y3583336D01*
X52653030Y3585123D01*
X52664459Y3590783D01*
X52672867Y3594571D01*
X52684718Y3599397D01*
X52691180Y3604012D01*
X53458270Y3983741D01*
X53466012Y3986143D01*
X53476594Y3992413D01*
X53484954Y3996950D01*
X53496029Y4002430D01*
X53502266Y4007621D01*
X54253774Y4452754D01*
X54261131Y4456786D01*
X54520048Y4587593D01*
X54523595Y4589314D01*
X54790470Y4713437D01*
X54793840Y4714943D01*
X54927974Y4772581D01*
X54930514Y4773639D01*
X55066442Y4828462D01*
X55069267Y4829561D01*
X55206091Y4880860D01*
X55209196Y4881977D01*
X55347173Y4929519D01*
X55350545Y4930626D01*
X55489434Y4974001D01*
X55493095Y4975081D01*
X55632917Y5013971D01*
X55636972Y5015025D01*
X55777663Y5049092D01*
X55782072Y5050075D01*
X55923633Y5079000D01*
X55928322Y5079865D01*
X56070773Y5103327D01*
X56075800Y5104051D01*
X56219101Y5121724D01*
X56224434Y5122265D01*
X56345342Y5131965D01*
X56368600Y5133831D01*
X56374172Y5134153D01*
X56516567Y5139191D01*
X56519960Y5139311D01*
X56524415Y5139390D01*
X61176663Y5139390D01*
X61184879Y5139123D01*
X61328442Y5129740D01*
X61332272Y5129431D01*
X61477847Y5115384D01*
X61481579Y5114966D01*
X61626483Y5096474D01*
X61630291Y5095929D01*
X61774462Y5073031D01*
X61778192Y5072381D01*
X61921591Y5045107D01*
X61925287Y5044347D01*
X62067701Y5012754D01*
X62071409Y5011872D01*
X62212621Y4976032D01*
X62216283Y4975044D01*
X62356298Y4934966D01*
X62359918Y4933871D01*
X62433046Y4910527D01*
X62498554Y4889616D01*
X62502164Y4888403D01*
X62520336Y4881991D01*
X62639306Y4840012D01*
X62642846Y4838703D01*
X62729849Y4805009D01*
X62778324Y4786236D01*
X62781869Y4784801D01*
X62811990Y4772072D01*
X62907469Y4731722D01*
X62915560Y4728303D01*
X62919072Y4726755D01*
X63050851Y4666271D01*
X63054326Y4664611D01*
X63184078Y4600180D01*
X63187475Y4598428D01*
X63315055Y4530105D01*
X63318420Y4528235D01*
X63443469Y4456197D01*
X63447359Y4453861D01*
X64187233Y3990943D01*
X64195637Y3985685D01*
X64202219Y3979989D01*
X64211718Y3975101D01*
X64220911Y3969871D01*
X64230004Y3964180D01*
X64238267Y3961436D01*
X64377164Y3889948D01*
X64972892Y3583335D01*
X65001617Y3568551D01*
X65008486Y3563531D01*
X65018850Y3559217D01*
X65028096Y3554921D01*
X65038147Y3549748D01*
X65046421Y3547740D01*
X65838262Y3218095D01*
X65845348Y3213734D01*
X65856501Y3210084D01*
X65865760Y3206647D01*
X65876653Y3202110D01*
X65884873Y3200794D01*
X65928122Y3186632D01*
X66700565Y2933684D01*
X66707793Y2929968D01*
X66719665Y2927051D01*
X66728847Y2924423D01*
X66740521Y2920598D01*
X66748625Y2919932D01*
X67583440Y2714710D01*
X67590774Y2711601D01*
X67603281Y2709483D01*
X67612353Y2707601D01*
X67624719Y2704559D01*
X67632693Y2704498D01*
X68481973Y2560511D01*
X68489371Y2557987D01*
X68502375Y2556727D01*
X68511307Y2555537D01*
X68524209Y2553348D01*
X68532015Y2553850D01*
X69391058Y2470475D01*
X69398517Y2468506D01*
X69411840Y2468148D01*
X69420666Y2467601D01*
X69434007Y2466303D01*
X69441648Y2467342D01*
X70305696Y2443962D01*
X70313178Y2442532D01*
X70326719Y2443096D01*
X70335378Y2443159D01*
X70348996Y2442791D01*
X70356456Y2444335D01*
X71220823Y2480339D01*
X71228350Y2479426D01*
X71241931Y2480924D01*
X71250519Y2481575D01*
X71264211Y2482144D01*
X71271518Y2484185D01*
X72131459Y2578963D01*
X72139037Y2578563D01*
X72152518Y2580988D01*
X72161052Y2582224D01*
X72174690Y2583725D01*
X72181837Y2586259D01*
X73032662Y2739214D01*
X73040278Y2739334D01*
X73053449Y2742648D01*
X73061914Y2744472D01*
X73075327Y2746883D01*
X73082308Y2749908D01*
X73919246Y2960433D01*
X73926915Y2961082D01*
X73939694Y2965261D01*
X73948143Y2967701D01*
X73961146Y2970970D01*
X73967971Y2974505D01*
X74786338Y3242012D01*
X74794056Y3243215D01*
X74806233Y3248179D01*
X74814684Y3251277D01*
X74827164Y3255354D01*
X74833825Y3259421D01*
X75628926Y3583333D01*
X75636667Y3585120D01*
X75648093Y3590778D01*
X75656501Y3594566D01*
X75668351Y3599392D01*
X75674812Y3604006D01*
X76441904Y3983738D01*
X76449646Y3986140D01*
X76460229Y3992411D01*
X76468589Y3996948D01*
X76479664Y4002428D01*
X76485901Y4007619D01*
X77237453Y4452781D01*
X77244830Y4456824D01*
X77503641Y4587578D01*
X77507287Y4589345D01*
X77774093Y4713437D01*
X77777444Y4714935D01*
X77911597Y4772581D01*
X77914138Y4773639D01*
X78050065Y4828462D01*
X78052890Y4829561D01*
X78189715Y4880859D01*
X78192820Y4881977D01*
X78330797Y4929519D01*
X78334169Y4930626D01*
X78473058Y4974001D01*
X78476719Y4975081D01*
X78616556Y5013975D01*
X78620582Y5015022D01*
X78761288Y5049092D01*
X78765697Y5050075D01*
X78907258Y5079000D01*
X78911947Y5079865D01*
X79054398Y5103327D01*
X79059425Y5104051D01*
X79202726Y5121724D01*
X79208060Y5122265D01*
X79328968Y5131965D01*
X79352226Y5133831D01*
X79357798Y5134153D01*
X79500121Y5139189D01*
X79503587Y5139311D01*
X79508042Y5139390D01*
X84160283Y5139390D01*
X84168499Y5139123D01*
X84312062Y5129740D01*
X84315892Y5129431D01*
X84461467Y5115384D01*
X84465199Y5114966D01*
X84610121Y5096472D01*
X84613884Y5095934D01*
X84758089Y5073030D01*
X84761824Y5072378D01*
X84905210Y5045107D01*
X84908906Y5044347D01*
X85043324Y5014528D01*
X85051321Y5012754D01*
X85055029Y5011872D01*
X85196241Y4976032D01*
X85199903Y4975044D01*
X85339918Y4934966D01*
X85343538Y4933871D01*
X85416666Y4910527D01*
X85482174Y4889616D01*
X85485784Y4888403D01*
X85503956Y4881991D01*
X85622926Y4840012D01*
X85626466Y4838703D01*
X85761959Y4786231D01*
X85765490Y4784801D01*
X85899177Y4728303D01*
X85902652Y4726773D01*
X86034502Y4666257D01*
X86037924Y4664623D01*
X86135565Y4616136D01*
X86167687Y4600185D01*
X86171131Y4598408D01*
X86298652Y4530117D01*
X86302041Y4528235D01*
X86427093Y4456195D01*
X86430967Y4453869D01*
X87170853Y3990943D01*
X87179257Y3985685D01*
X87185839Y3979989D01*
X87195338Y3975101D01*
X87204531Y3969871D01*
X87213624Y3964180D01*
X87221887Y3961436D01*
X87366353Y3887082D01*
X87985236Y3568552D01*
X87992099Y3563537D01*
X88002490Y3559210D01*
X88011711Y3554926D01*
X88021780Y3549745D01*
X88030044Y3547740D01*
X88797492Y3228250D01*
X88821879Y3218098D01*
X88828960Y3213740D01*
X88840137Y3210081D01*
X88849376Y3206651D01*
X88860303Y3202101D01*
X88868520Y3200788D01*
X89684183Y2933688D01*
X89691413Y2929970D01*
X89703297Y2927051D01*
X89712479Y2924423D01*
X89724144Y2920601D01*
X89732247Y2919935D01*
X90567061Y2714713D01*
X90574395Y2711604D01*
X90586902Y2709486D01*
X90595974Y2707604D01*
X90608340Y2704562D01*
X90616314Y2704501D01*
X91465593Y2560515D01*
X91472992Y2557992D01*
X91485997Y2556731D01*
X91494929Y2555541D01*
X91507831Y2553352D01*
X91515637Y2553854D01*
X92374680Y2470480D01*
X92382139Y2468511D01*
X92395462Y2468153D01*
X92404288Y2467606D01*
X92417629Y2466308D01*
X92425271Y2467347D01*
X93289320Y2443968D01*
X93296801Y2442538D01*
X93310342Y2443102D01*
X93319001Y2443165D01*
X93332619Y2442797D01*
X93340079Y2444341D01*
X94204446Y2480345D01*
X94211973Y2479432D01*
X94225554Y2480930D01*
X94234142Y2481581D01*
X94247834Y2482150D01*
X94255141Y2484191D01*
X95115083Y2578970D01*
X95122660Y2578570D01*
X95136141Y2580995D01*
X95144675Y2582231D01*
X95158313Y2583732D01*
X95165460Y2586266D01*
X96016285Y2739221D01*
X96023901Y2739341D01*
X96037072Y2742655D01*
X96045537Y2744479D01*
X96058953Y2746890D01*
X96065937Y2749917D01*
X96902867Y2960439D01*
X96910536Y2961088D01*
X96923317Y2965267D01*
X96931766Y2967707D01*
X96944770Y2970977D01*
X96951599Y2974513D01*
X97769960Y3242017D01*
X97777678Y3243220D01*
X97789855Y3248184D01*
X97798306Y3251282D01*
X97810786Y3255359D01*
X97817447Y3259426D01*
X98612548Y3583338D01*
X98620289Y3585125D01*
X98631715Y3590783D01*
X98640123Y3594571D01*
X98651974Y3599397D01*
X98658436Y3604012D01*
X99425526Y3983741D01*
X99433268Y3986143D01*
X99443850Y3992413D01*
X99452210Y3996950D01*
X99463285Y4002430D01*
X99469522Y4007621D01*
X100221048Y4452766D01*
X100228402Y4456796D01*
X100487288Y4587583D01*
X100490874Y4589323D01*
X100757758Y4713447D01*
X100761059Y4714923D01*
X100895232Y4772576D01*
X100897774Y4773635D01*
X101033686Y4828453D01*
X101036415Y4829515D01*
X101173430Y4880883D01*
X101176451Y4881970D01*
X101314342Y4929485D01*
X101317811Y4930625D01*
X101456655Y4973986D01*
X101460366Y4975081D01*
X101600168Y5013967D01*
X101604217Y5015020D01*
X101744960Y5049100D01*
X101749266Y5050061D01*
X101890891Y5078998D01*
X101895592Y5079865D01*
X102038080Y5103334D01*
X102043054Y5104049D01*
X102186360Y5121724D01*
X102191627Y5122260D01*
X102335889Y5133833D01*
X102341422Y5134152D01*
X102487208Y5139311D01*
X102491664Y5139390D01*
X114471671Y5139390D01*
X114472495Y5139387D01*
X114483954Y5139313D01*
X114483955Y5139312D01*
X114936252Y5136353D01*
X114943016Y5136125D01*
X115383737Y5109359D01*
X115390411Y5108775D01*
X115826916Y5058825D01*
X115833430Y5057906D01*
X116140724Y5006314D01*
X116265042Y4985442D01*
X116271413Y4984203D01*
X116317594Y4973980D01*
X116697464Y4889889D01*
X116703609Y4888363D01*
X117123317Y4772884D01*
X117129276Y4771084D01*
X117541992Y4635094D01*
X117547765Y4633034D01*
X117952735Y4477216D01*
X117958322Y4474910D01*
X118318917Y4315786D01*
X118354751Y4299973D01*
X118360181Y4297421D01*
X118747437Y4104006D01*
X118752678Y4101232D01*
X119129946Y3890068D01*
X119135001Y3887082D01*
X119501674Y3658790D01*
X119506549Y3655596D01*
X119861836Y3410896D01*
X119866533Y3407499D01*
X120209706Y3147082D01*
X120214231Y3143482D01*
X120544580Y2868026D01*
X120548933Y2864223D01*
X120685591Y2739213D01*
X120860772Y2578963D01*
X120865692Y2574463D01*
X120869873Y2570459D01*
X120959095Y2480965D01*
X121172377Y2267032D01*
X121176394Y2262811D01*
X121463860Y1946479D01*
X121467708Y1942042D01*
X121700217Y1660908D01*
X121733418Y1620763D01*
X121739465Y1613452D01*
X121743139Y1608791D01*
X121998460Y1268648D01*
X122001953Y1263755D01*
X122240082Y912820D01*
X122243379Y907699D01*
X122463677Y546568D01*
X122466765Y541213D01*
X122668453Y170691D01*
X122671335Y165063D01*
X122853741Y-214193D01*
X122856388Y-220077D01*
X123018807Y-607381D01*
X123021195Y-613520D01*
X123162931Y-1008169D01*
X123165036Y-1014562D01*
X123285399Y-1415896D01*
X123287194Y-1422536D01*
X123385477Y-1829830D01*
X123386934Y-1836701D01*
X123462450Y-2249291D01*
X123463539Y-2256375D01*
X123515603Y-2673623D01*
X123516297Y-2680893D01*
X123544208Y-3102104D01*
X123544481Y-3109525D01*
X123547648Y-3548189D01*
X123547651Y-3549099D01*
X123547651Y-5254177D01*
X123547333Y-5263121D01*
X123537609Y-5399763D01*
X123537237Y-5403989D01*
X123522648Y-5542797D01*
X123522137Y-5546980D01*
X123502917Y-5685206D01*
X123502272Y-5689339D01*
X123478465Y-5826902D01*
X123477689Y-5830988D01*
X123449326Y-5967830D01*
X123448420Y-5971866D01*
X123415575Y-6107729D01*
X123414543Y-6111713D01*
X123377243Y-6246558D01*
X123376086Y-6250490D01*
X123334386Y-6384158D01*
X123333107Y-6388036D01*
X123287045Y-6520433D01*
X123285644Y-6524258D01*
X123235294Y-6655182D01*
X123233774Y-6658952D01*
X123179158Y-6788348D01*
X123177519Y-6792062D01*
X123118679Y-6919813D01*
X123116922Y-6923473D01*
X123053947Y-7049362D01*
X123052073Y-7052961D01*
X122984962Y-7176969D01*
X122982970Y-7180513D01*
X122911803Y-7302446D01*
X122909694Y-7305929D01*
X122835484Y-7424129D01*
X122831349Y-7430302D01*
X122589057Y-7769972D01*
X122585285Y-7773676D01*
X122575711Y-7788379D01*
X122575711Y-7788380D01*
X122574900Y-7789624D01*
X122571925Y-7793990D01*
X122560865Y-7809503D01*
X122558796Y-7814374D01*
X122343847Y-8144699D01*
X122339004Y-8149986D01*
X122331781Y-8162785D01*
X122327669Y-8169562D01*
X122319672Y-8181853D01*
X122317219Y-8188591D01*
X121905249Y-8918729D01*
X121899902Y-8925497D01*
X121895329Y-8935439D01*
X121890607Y-8944681D01*
X121885236Y-8954202D01*
X121882888Y-8962498D01*
X121533919Y-9721537D01*
X121529217Y-9728615D01*
X121525376Y-9739136D01*
X121521506Y-9748538D01*
X121516808Y-9758759D01*
X121515167Y-9767108D01*
X121229769Y-10549233D01*
X121225696Y-10556577D01*
X121222618Y-10567677D01*
X121219578Y-10577164D01*
X121215615Y-10588031D01*
X121214662Y-10596378D01*
X120992757Y-11396971D01*
X120989314Y-11404531D01*
X120987064Y-11416082D01*
X120984819Y-11425613D01*
X120981674Y-11436967D01*
X120981384Y-11445272D01*
X120822912Y-12259747D01*
X120820089Y-12267490D01*
X120818719Y-12279346D01*
X120817237Y-12288921D01*
X120814953Y-12300666D01*
X120815307Y-12308902D01*
X120720235Y-13132622D01*
X120718026Y-13140527D01*
X120717567Y-13152525D01*
X120716829Y-13162148D01*
X120715448Y-13174116D01*
X120716429Y-13182264D01*
X120684738Y-14010599D01*
X120683144Y-14018625D01*
X120683603Y-14030702D01*
X120683603Y-14040267D01*
X120683142Y-14052389D01*
X120684739Y-14060417D01*
X120716424Y-14888741D01*
X120715446Y-14896881D01*
X120716826Y-14908863D01*
X120717559Y-14918420D01*
X120718026Y-14930549D01*
X120720242Y-14938453D01*
X120815300Y-15762114D01*
X120814949Y-15770357D01*
X120817223Y-15782047D01*
X120818709Y-15791649D01*
X120820079Y-15803517D01*
X120822909Y-15811270D01*
X120981375Y-16625747D01*
X120981668Y-16634056D01*
X120984803Y-16645373D01*
X120987054Y-16654935D01*
X120989304Y-16666496D01*
X120992755Y-16674065D01*
X121037009Y-16833728D01*
X121214657Y-17474669D01*
X121215614Y-17483021D01*
X121219558Y-17493836D01*
X121222598Y-17503322D01*
X121225690Y-17514471D01*
X121229770Y-17521820D01*
X121515154Y-18303924D01*
X121516797Y-18312273D01*
X121521485Y-18322475D01*
X121525350Y-18331865D01*
X121529224Y-18342476D01*
X121533937Y-18349559D01*
X121882885Y-19108565D01*
X121885236Y-19116861D01*
X121890594Y-19126359D01*
X121895322Y-19135613D01*
X121899901Y-19145571D01*
X121905250Y-19152336D01*
X121982289Y-19288875D01*
X122308712Y-19867404D01*
X122317228Y-19882496D01*
X122319688Y-19889248D01*
X122327667Y-19901509D01*
X122331800Y-19908322D01*
X122339015Y-19921111D01*
X122343866Y-19926403D01*
X122558804Y-20256718D01*
X122560883Y-20261607D01*
X122571903Y-20277059D01*
X122574916Y-20281479D01*
X122575648Y-20282605D01*
X122585327Y-20297475D01*
X122589116Y-20301190D01*
X122829673Y-20638432D01*
X122836295Y-20648742D01*
X122977042Y-20893246D01*
X122978578Y-20895993D01*
X123046645Y-21021380D01*
X123047839Y-21023634D01*
X123113522Y-21150701D01*
X123114822Y-21153289D01*
X123177363Y-21281413D01*
X123178745Y-21284339D01*
X123237769Y-21413643D01*
X123239215Y-21416936D01*
X123294211Y-21547225D01*
X123295714Y-21550950D01*
X123346243Y-21682182D01*
X123347756Y-21686325D01*
X123393405Y-21818504D01*
X123394889Y-21823085D01*
X123435208Y-21956101D01*
X123436620Y-21961133D01*
X123471202Y-22094987D01*
X123472491Y-22100479D01*
X123500738Y-22234287D01*
X123500921Y-22235150D01*
X123502027Y-22241092D01*
X123502219Y-22242277D01*
X123523899Y-22376580D01*
X123524763Y-22382966D01*
X123539655Y-22519176D01*
X123540212Y-22525964D01*
X123547735Y-22663007D01*
X123547924Y-22670157D01*
X123547705Y-22783424D01*
X123547636Y-22783783D01*
X123547636Y-31378873D01*
X123547318Y-31387817D01*
X123537594Y-31524459D01*
X123537222Y-31528685D01*
X123522632Y-31667501D01*
X123522121Y-31671684D01*
X123502898Y-31809932D01*
X123502253Y-31814066D01*
X123478448Y-31951612D01*
X123477672Y-31955698D01*
X123449311Y-32092527D01*
X123448405Y-32096562D01*
X123415556Y-32232438D01*
X123414523Y-32236423D01*
X123377224Y-32371259D01*
X123376067Y-32375192D01*
X123334360Y-32508877D01*
X123333081Y-32512755D01*
X123287026Y-32645127D01*
X123285626Y-32648950D01*
X123235258Y-32779922D01*
X123233737Y-32783694D01*
X123179113Y-32913103D01*
X123177474Y-32916818D01*
X123118653Y-33044519D01*
X123116897Y-33048175D01*
X123053908Y-33174094D01*
X123052033Y-33177696D01*
X122984946Y-33301655D01*
X122982955Y-33305197D01*
X122911753Y-33427189D01*
X122909643Y-33430673D01*
X122835456Y-33548835D01*
X122831323Y-33555007D01*
X122589025Y-33894687D01*
X122585249Y-33898395D01*
X122574879Y-33914323D01*
X122571884Y-33918717D01*
X122560840Y-33934207D01*
X122558769Y-33939081D01*
X122343824Y-34269408D01*
X122338984Y-34274691D01*
X122331757Y-34287493D01*
X122327664Y-34294240D01*
X122319642Y-34306574D01*
X122317191Y-34313308D01*
X121905228Y-35043441D01*
X121899880Y-35050209D01*
X121895307Y-35060152D01*
X121890585Y-35069394D01*
X121885214Y-35078916D01*
X121882865Y-35087212D01*
X121533900Y-35846248D01*
X121529197Y-35853327D01*
X121525356Y-35863849D01*
X121521486Y-35873251D01*
X121516789Y-35883471D01*
X121515147Y-35891822D01*
X121229751Y-36673947D01*
X121225678Y-36681291D01*
X121222600Y-36692391D01*
X121219558Y-36701881D01*
X121215599Y-36712737D01*
X121214645Y-36721090D01*
X120992743Y-37521682D01*
X120989300Y-37529242D01*
X120987050Y-37540793D01*
X120984805Y-37550324D01*
X120981660Y-37561678D01*
X120981370Y-37569983D01*
X120822899Y-38384456D01*
X120820076Y-38392199D01*
X120818706Y-38404055D01*
X120817224Y-38413630D01*
X120814940Y-38425375D01*
X120815294Y-38433610D01*
X120745972Y-39034240D01*
X120718292Y-39099619D01*
X120659659Y-39139653D01*
X120588690Y-39141633D01*
X120527917Y-39104930D01*
X120519935Y-39095303D01*
X120427061Y-38971238D01*
X120310007Y-38883612D01*
X120310002Y-38883610D01*
X120173004Y-38832511D01*
X120172996Y-38832509D01*
X120112449Y-38826000D01*
X120112438Y-38826000D01*
X108015162Y-38826000D01*
X108015150Y-38826000D01*
X107954603Y-38832509D01*
X107954595Y-38832511D01*
X107817597Y-38883610D01*
X107817592Y-38883612D01*
X107700538Y-38971238D01*
X107612912Y-39088292D01*
X107612910Y-39088297D01*
X107561811Y-39225295D01*
X107561809Y-39225303D01*
X107555300Y-39285850D01*
X107555300Y-44450000D01*
X107535298Y-44518121D01*
X107481642Y-44564614D01*
X107429300Y-44576000D01*
X106307571Y-44576000D01*
X106239450Y-44555998D01*
X106218476Y-44539095D01*
X94840882Y-33161500D01*
X115700644Y-33161500D01*
X115713263Y-33313790D01*
X115719237Y-33385875D01*
X115774502Y-33604112D01*
X115774503Y-33604113D01*
X115774504Y-33604116D01*
X115864203Y-33808610D01*
X115864941Y-33810293D01*
X115988075Y-33998765D01*
X115988079Y-33998770D01*
X116079555Y-34098138D01*
X116127573Y-34150299D01*
X116140562Y-34164408D01*
X116195131Y-34206881D01*
X116318224Y-34302689D01*
X116516226Y-34409842D01*
X116516227Y-34409842D01*
X116516228Y-34409843D01*
X116628027Y-34448223D01*
X116729165Y-34482944D01*
X116951231Y-34520000D01*
X116951235Y-34520000D01*
X117176365Y-34520000D01*
X117176369Y-34520000D01*
X117398435Y-34482944D01*
X117611374Y-34409842D01*
X117809376Y-34302689D01*
X117987040Y-34164406D01*
X118048045Y-34098137D01*
X118108896Y-34061567D01*
X118179861Y-34063700D01*
X118238406Y-34103862D01*
X118258800Y-34139441D01*
X118302911Y-34257704D01*
X118302912Y-34257707D01*
X118390538Y-34374761D01*
X118507592Y-34462387D01*
X118507594Y-34462388D01*
X118507596Y-34462389D01*
X118562700Y-34482942D01*
X118644595Y-34513488D01*
X118644603Y-34513490D01*
X118705150Y-34519999D01*
X118705155Y-34519999D01*
X118705162Y-34520000D01*
X118705168Y-34520000D01*
X120502432Y-34520000D01*
X120502438Y-34520000D01*
X120502445Y-34519999D01*
X120502449Y-34519999D01*
X120562996Y-34513490D01*
X120562999Y-34513489D01*
X120563001Y-34513489D01*
X120700004Y-34462389D01*
X120770199Y-34409842D01*
X120817061Y-34374761D01*
X120904687Y-34257707D01*
X120904687Y-34257706D01*
X120904689Y-34257704D01*
X120955789Y-34120701D01*
X120957600Y-34103862D01*
X120962299Y-34060149D01*
X120962300Y-34060132D01*
X120962300Y-32262867D01*
X120962299Y-32262850D01*
X120955790Y-32202303D01*
X120955788Y-32202295D01*
X120918181Y-32101469D01*
X120904689Y-32065296D01*
X120904688Y-32065294D01*
X120904687Y-32065292D01*
X120817061Y-31948238D01*
X120700007Y-31860612D01*
X120700002Y-31860610D01*
X120563004Y-31809511D01*
X120562996Y-31809509D01*
X120502449Y-31803000D01*
X120502438Y-31803000D01*
X118705162Y-31803000D01*
X118705150Y-31803000D01*
X118644603Y-31809509D01*
X118644595Y-31809511D01*
X118507597Y-31860610D01*
X118507592Y-31860612D01*
X118390538Y-31948238D01*
X118302912Y-32065292D01*
X118302911Y-32065295D01*
X118258800Y-32183558D01*
X118216253Y-32240393D01*
X118149732Y-32265203D01*
X118080358Y-32250111D01*
X118048046Y-32224863D01*
X117987040Y-32158594D01*
X117987039Y-32158593D01*
X117987037Y-32158591D01*
X117880024Y-32075299D01*
X117809376Y-32020311D01*
X117611374Y-31913158D01*
X117611372Y-31913157D01*
X117611371Y-31913156D01*
X117398439Y-31840057D01*
X117398430Y-31840055D01*
X117354276Y-31832687D01*
X117176369Y-31803000D01*
X116951231Y-31803000D01*
X116803011Y-31827733D01*
X116729169Y-31840055D01*
X116729160Y-31840057D01*
X116516228Y-31913156D01*
X116516226Y-31913158D01*
X116441642Y-31953521D01*
X116318226Y-32020310D01*
X116318224Y-32020311D01*
X116140562Y-32158591D01*
X115988079Y-32324229D01*
X115988075Y-32324234D01*
X115864941Y-32512706D01*
X115774503Y-32718886D01*
X115774502Y-32718887D01*
X115719237Y-32937124D01*
X115719236Y-32937130D01*
X115719236Y-32937132D01*
X115700644Y-33161500D01*
X94840882Y-33161500D01*
X94124720Y-32445338D01*
X94124712Y-32445332D01*
X94114695Y-32438638D01*
X94069169Y-32384159D01*
X94058700Y-32333875D01*
X94058700Y-32135867D01*
X94058699Y-32135850D01*
X94052190Y-32075303D01*
X94052188Y-32075295D01*
X94023124Y-31997375D01*
X94001089Y-31938296D01*
X94001088Y-31938294D01*
X94001087Y-31938292D01*
X93913461Y-31821238D01*
X93796407Y-31733612D01*
X93796402Y-31733610D01*
X93659404Y-31682511D01*
X93659396Y-31682509D01*
X93598849Y-31676000D01*
X93598838Y-31676000D01*
X93584700Y-31676000D01*
X93516579Y-31655998D01*
X93470086Y-31602342D01*
X93458700Y-31550000D01*
X93458700Y-31261726D01*
X93478702Y-31193605D01*
X93507306Y-31162297D01*
X93623440Y-31071906D01*
X93775922Y-30906268D01*
X93899060Y-30717791D01*
X93989496Y-30511616D01*
X94044764Y-30293368D01*
X94063356Y-30069000D01*
X94045950Y-29858951D01*
X94060259Y-29789415D01*
X94082422Y-29759457D01*
X96168676Y-27673205D01*
X96230988Y-27639179D01*
X96257771Y-27636300D01*
X96518906Y-27636300D01*
X96665446Y-27607151D01*
X96803484Y-27549974D01*
X96927716Y-27466965D01*
X97033365Y-27361316D01*
X97116374Y-27237084D01*
X97173551Y-27099046D01*
X97202700Y-26952506D01*
X97202700Y-19553097D01*
X99275800Y-19553097D01*
X99282305Y-19613593D01*
X99333355Y-19750464D01*
X99333355Y-19750465D01*
X99420895Y-19867404D01*
X99537834Y-19954944D01*
X99674706Y-20005994D01*
X99735202Y-20012499D01*
X99735215Y-20012500D01*
X100379800Y-20012500D01*
X100379800Y-19085202D01*
X100440807Y-19120425D01*
X100567974Y-19154500D01*
X100699626Y-19154500D01*
X100826793Y-19120425D01*
X100887800Y-19085202D01*
X100887800Y-20012500D01*
X101532385Y-20012500D01*
X101532397Y-20012499D01*
X101592893Y-20005994D01*
X101729764Y-19954944D01*
X101729765Y-19954944D01*
X101846704Y-19867404D01*
X101934244Y-19750465D01*
X101978418Y-19632030D01*
X102020965Y-19575194D01*
X102087485Y-19550383D01*
X102156859Y-19565474D01*
X102189172Y-19590722D01*
X102227200Y-19632030D01*
X102250562Y-19657408D01*
X102287341Y-19686034D01*
X102428224Y-19795689D01*
X102626226Y-19902842D01*
X102626227Y-19902842D01*
X102626228Y-19902843D01*
X102738027Y-19941223D01*
X102839165Y-19975944D01*
X103061231Y-20013000D01*
X103061235Y-20013000D01*
X103286365Y-20013000D01*
X103286369Y-20013000D01*
X103508435Y-19975944D01*
X103646581Y-19928517D01*
X103712148Y-19924127D01*
X103755413Y-19932761D01*
X103755416Y-19932761D01*
X103755421Y-19932762D01*
X103755896Y-19932809D01*
X103756903Y-19932808D01*
X103756904Y-19932809D01*
X103816014Y-19932800D01*
X103818617Y-19932800D01*
X103880200Y-19932838D01*
X103880203Y-19932837D01*
X103881196Y-19932838D01*
X103881580Y-19932800D01*
X103881594Y-19932800D01*
X103881607Y-19932797D01*
X103881681Y-19932790D01*
X103881692Y-19932790D01*
X103925754Y-19924017D01*
X103940386Y-19921105D01*
X103940386Y-19921109D01*
X103940405Y-19921100D01*
X104003985Y-19908455D01*
X104003986Y-19908454D01*
X104003998Y-19908452D01*
X104004051Y-19908435D01*
X104004067Y-19908428D01*
X104004079Y-19908426D01*
X104061642Y-19884572D01*
X104119218Y-19860723D01*
X104119325Y-19860680D01*
X104119476Y-19860577D01*
X104173264Y-19824625D01*
X104223033Y-19791371D01*
X104223034Y-19791369D01*
X104223080Y-19791339D01*
X104223082Y-19791337D01*
X104223207Y-19791211D01*
X104267221Y-19747182D01*
X104267224Y-19747185D01*
X104267235Y-19747167D01*
X104311187Y-19703217D01*
X104311295Y-19703110D01*
X104311304Y-19703099D01*
X104311330Y-19703059D01*
X104311334Y-19703056D01*
X104346629Y-19650214D01*
X104380600Y-19599375D01*
X104380603Y-19599368D01*
X104380639Y-19599299D01*
X104380647Y-19599288D01*
X104404281Y-19542204D01*
X104416439Y-19512853D01*
X104460987Y-19457572D01*
X104528351Y-19435151D01*
X104597142Y-19452709D01*
X104634193Y-19488192D01*
X104634880Y-19487659D01*
X104638079Y-19491770D01*
X104790562Y-19657408D01*
X104827341Y-19686034D01*
X104968224Y-19795689D01*
X105166226Y-19902842D01*
X105166227Y-19902842D01*
X105166228Y-19902843D01*
X105278027Y-19941223D01*
X105379165Y-19975944D01*
X105601231Y-20013000D01*
X105601235Y-20013000D01*
X105826365Y-20013000D01*
X105826369Y-20013000D01*
X106048435Y-19975944D01*
X106261374Y-19902842D01*
X106459376Y-19795689D01*
X106637040Y-19657406D01*
X106789522Y-19491768D01*
X106803690Y-19470083D01*
X106857695Y-19423995D01*
X106909172Y-19413000D01*
X106947829Y-19413000D01*
X107015950Y-19433002D01*
X107036924Y-19449905D01*
X111690685Y-24103666D01*
X111814916Y-24186674D01*
X111952953Y-24243851D01*
X112026222Y-24258424D01*
X112026223Y-24258425D01*
X112040798Y-24261324D01*
X112099494Y-24273000D01*
X112099495Y-24273000D01*
X112248905Y-24273000D01*
X115189700Y-24273000D01*
X115257821Y-24293002D01*
X115304314Y-24346658D01*
X115315700Y-24399000D01*
X115315700Y-24413149D01*
X115322209Y-24473696D01*
X115322211Y-24473704D01*
X115373310Y-24610702D01*
X115373312Y-24610707D01*
X115460938Y-24727761D01*
X115577991Y-24815386D01*
X115577992Y-24815386D01*
X115577996Y-24815389D01*
X115693010Y-24858287D01*
X115749842Y-24900832D01*
X115774653Y-24967352D01*
X115759562Y-25036726D01*
X115741675Y-25061679D01*
X115598480Y-25217229D01*
X115598475Y-25217234D01*
X115475341Y-25405706D01*
X115384903Y-25611886D01*
X115384902Y-25611887D01*
X115329637Y-25830124D01*
X115329636Y-25830130D01*
X115329636Y-25830132D01*
X115311044Y-26054500D01*
X115324138Y-26212521D01*
X115329637Y-26278875D01*
X115384902Y-26497112D01*
X115384903Y-26497113D01*
X115475341Y-26703293D01*
X115598475Y-26891765D01*
X115598479Y-26891770D01*
X115750962Y-27057408D01*
X115804458Y-27099046D01*
X115928624Y-27195689D01*
X115962405Y-27213970D01*
X116012796Y-27263982D01*
X116028149Y-27333299D01*
X116003589Y-27399912D01*
X115962409Y-27435596D01*
X115928904Y-27453728D01*
X115928898Y-27453732D01*
X115751297Y-27591965D01*
X115598874Y-27757541D01*
X115475780Y-27945951D01*
X115385379Y-28152043D01*
X115385376Y-28152050D01*
X115337655Y-28340499D01*
X115337656Y-28340500D01*
X116243497Y-28340500D01*
X116208275Y-28401507D01*
X116174200Y-28528674D01*
X116174200Y-28660326D01*
X116208275Y-28787493D01*
X116243497Y-28848500D01*
X115337655Y-28848500D01*
X115385376Y-29036949D01*
X115385379Y-29036956D01*
X115475780Y-29243048D01*
X115598874Y-29431458D01*
X115751297Y-29597034D01*
X115928898Y-29735267D01*
X115928899Y-29735268D01*
X116126828Y-29842382D01*
X116126830Y-29842383D01*
X116339683Y-29915455D01*
X116339692Y-29915457D01*
X116420200Y-29928891D01*
X116420200Y-29025202D01*
X116481207Y-29060425D01*
X116608374Y-29094500D01*
X116740026Y-29094500D01*
X116867193Y-29060425D01*
X116928200Y-29025202D01*
X116928200Y-29928890D01*
X117008707Y-29915457D01*
X117008716Y-29915455D01*
X117221569Y-29842383D01*
X117221571Y-29842382D01*
X117419500Y-29735268D01*
X117419501Y-29735267D01*
X117597102Y-29597034D01*
X117749525Y-29431458D01*
X117872619Y-29243048D01*
X117963020Y-29036956D01*
X117963023Y-29036949D01*
X118010744Y-28848500D01*
X117104903Y-28848500D01*
X117140125Y-28787493D01*
X117174200Y-28660326D01*
X117174200Y-28528674D01*
X117140125Y-28401507D01*
X117104903Y-28340500D01*
X118010744Y-28340500D01*
X118010744Y-28340499D01*
X117963023Y-28152050D01*
X117963020Y-28152043D01*
X117872619Y-27945951D01*
X117749525Y-27757541D01*
X117597102Y-27591965D01*
X117419501Y-27453732D01*
X117419500Y-27453731D01*
X117385991Y-27435597D01*
X117335601Y-27385583D01*
X117320250Y-27316266D01*
X117344812Y-27249653D01*
X117385990Y-27213972D01*
X117419776Y-27195689D01*
X117597440Y-27057406D01*
X117749922Y-26891768D01*
X117873060Y-26703291D01*
X117963496Y-26497116D01*
X118018764Y-26278868D01*
X118037356Y-26054500D01*
X118018764Y-25830132D01*
X117963496Y-25611884D01*
X117873060Y-25405709D01*
X117830473Y-25340524D01*
X117749924Y-25217234D01*
X117749919Y-25217229D01*
X117606724Y-25061679D01*
X117575303Y-24998014D01*
X117583290Y-24927468D01*
X117628148Y-24872439D01*
X117655383Y-24858289D01*
X117770404Y-24815389D01*
X117887461Y-24727761D01*
X117975089Y-24610704D01*
X118026189Y-24473701D01*
X118032700Y-24413138D01*
X118032700Y-22615862D01*
X118031791Y-22607406D01*
X118026190Y-22555303D01*
X118026188Y-22555295D01*
X117983844Y-22441770D01*
X117975089Y-22418296D01*
X117975088Y-22418294D01*
X117975087Y-22418292D01*
X117887461Y-22301238D01*
X117770407Y-22213612D01*
X117770402Y-22213610D01*
X117633404Y-22162511D01*
X117633396Y-22162509D01*
X117572849Y-22156000D01*
X117572838Y-22156000D01*
X115775562Y-22156000D01*
X115775550Y-22156000D01*
X115715003Y-22162509D01*
X115714995Y-22162511D01*
X115577997Y-22213610D01*
X115577992Y-22213612D01*
X115460938Y-22301238D01*
X115373312Y-22418292D01*
X115373310Y-22418297D01*
X115322211Y-22555295D01*
X115322209Y-22555303D01*
X115315700Y-22615850D01*
X115315700Y-22630000D01*
X115295698Y-22698121D01*
X115242042Y-22744614D01*
X115189700Y-22756000D01*
X112540571Y-22756000D01*
X112472450Y-22735998D01*
X112451476Y-22719095D01*
X108669881Y-18937500D01*
X115722655Y-18937500D01*
X115770376Y-19125949D01*
X115770379Y-19125956D01*
X115860780Y-19332048D01*
X115983874Y-19520458D01*
X116136297Y-19686034D01*
X116313898Y-19824267D01*
X116313899Y-19824268D01*
X116511828Y-19931382D01*
X116511830Y-19931383D01*
X116724683Y-20004455D01*
X116724692Y-20004457D01*
X116805200Y-20017891D01*
X116805200Y-19114202D01*
X116866207Y-19149425D01*
X116993374Y-19183500D01*
X117125026Y-19183500D01*
X117252193Y-19149425D01*
X117313200Y-19114202D01*
X117313200Y-20017890D01*
X117393707Y-20004457D01*
X117393716Y-20004455D01*
X117606569Y-19931383D01*
X117606571Y-19931382D01*
X117804500Y-19824268D01*
X117804501Y-19824267D01*
X117982102Y-19686034D01*
X118043626Y-19619200D01*
X118104479Y-19582628D01*
X118175443Y-19584761D01*
X118233989Y-19624922D01*
X118254385Y-19660503D01*
X118298756Y-19779466D01*
X118386295Y-19896404D01*
X118503234Y-19983944D01*
X118640106Y-20034994D01*
X118700602Y-20041499D01*
X118700615Y-20041500D01*
X119345200Y-20041500D01*
X119345200Y-19114202D01*
X119406207Y-19149425D01*
X119533374Y-19183500D01*
X119665026Y-19183500D01*
X119792193Y-19149425D01*
X119853200Y-19114202D01*
X119853200Y-20041500D01*
X120497785Y-20041500D01*
X120497797Y-20041499D01*
X120558293Y-20034994D01*
X120695164Y-19983944D01*
X120695165Y-19983944D01*
X120812104Y-19896404D01*
X120899644Y-19779465D01*
X120899644Y-19779464D01*
X120950694Y-19642593D01*
X120957199Y-19582097D01*
X120957200Y-19582085D01*
X120957200Y-18937500D01*
X120029903Y-18937500D01*
X120065125Y-18876493D01*
X120099200Y-18749326D01*
X120099200Y-18617674D01*
X120065125Y-18490507D01*
X120029903Y-18429500D01*
X120957200Y-18429500D01*
X120957200Y-17784914D01*
X120957199Y-17784902D01*
X120950694Y-17724406D01*
X120899644Y-17587535D01*
X120899644Y-17587534D01*
X120812104Y-17470595D01*
X120695165Y-17383055D01*
X120558293Y-17332005D01*
X120497797Y-17325500D01*
X119853200Y-17325500D01*
X119853200Y-18252797D01*
X119792193Y-18217575D01*
X119665026Y-18183500D01*
X119533374Y-18183500D01*
X119406207Y-18217575D01*
X119345200Y-18252797D01*
X119345200Y-17325500D01*
X118700602Y-17325500D01*
X118640106Y-17332005D01*
X118503235Y-17383055D01*
X118503234Y-17383055D01*
X118386295Y-17470595D01*
X118298755Y-17587534D01*
X118298753Y-17587539D01*
X118254384Y-17706496D01*
X118211837Y-17763332D01*
X118145317Y-17788142D01*
X118075943Y-17773050D01*
X118043627Y-17747800D01*
X117982102Y-17680965D01*
X117804501Y-17542732D01*
X117804500Y-17542731D01*
X117606571Y-17435617D01*
X117606569Y-17435616D01*
X117393712Y-17362543D01*
X117393701Y-17362540D01*
X117313200Y-17349106D01*
X117313200Y-18252797D01*
X117252193Y-18217575D01*
X117125026Y-18183500D01*
X116993374Y-18183500D01*
X116866207Y-18217575D01*
X116805200Y-18252797D01*
X116805200Y-17349107D01*
X116805199Y-17349106D01*
X116724698Y-17362540D01*
X116724687Y-17362543D01*
X116511830Y-17435616D01*
X116511828Y-17435617D01*
X116313899Y-17542731D01*
X116313898Y-17542732D01*
X116136297Y-17680965D01*
X115983874Y-17846541D01*
X115860780Y-18034951D01*
X115770379Y-18241043D01*
X115770376Y-18241050D01*
X115722655Y-18429499D01*
X115722656Y-18429500D01*
X116628497Y-18429500D01*
X116593275Y-18490507D01*
X116559200Y-18617674D01*
X116559200Y-18749326D01*
X116593275Y-18876493D01*
X116628497Y-18937500D01*
X115722655Y-18937500D01*
X108669881Y-18937500D01*
X107797719Y-18065338D01*
X107797715Y-18065334D01*
X107673484Y-17982326D01*
X107535447Y-17925149D01*
X107462176Y-17910574D01*
X107462175Y-17910573D01*
X107388911Y-17896000D01*
X107388906Y-17896000D01*
X106909172Y-17896000D01*
X106841051Y-17875998D01*
X106803690Y-17838917D01*
X106798304Y-17830675D01*
X106789522Y-17817232D01*
X106637040Y-17651594D01*
X106637039Y-17651593D01*
X106637037Y-17651591D01*
X106517479Y-17558535D01*
X106459376Y-17513311D01*
X106261374Y-17406158D01*
X106261372Y-17406157D01*
X106261371Y-17406156D01*
X106048439Y-17333057D01*
X106048430Y-17333055D01*
X106003154Y-17325500D01*
X105826369Y-17296000D01*
X105601231Y-17296000D01*
X105453011Y-17320733D01*
X105379169Y-17333055D01*
X105379160Y-17333057D01*
X105166228Y-17406156D01*
X105166226Y-17406158D01*
X105003208Y-17494379D01*
X104968226Y-17513310D01*
X104968224Y-17513311D01*
X104790562Y-17651591D01*
X104638079Y-17817229D01*
X104549283Y-17953143D01*
X104495279Y-17999231D01*
X104424931Y-18008806D01*
X104360574Y-17978829D01*
X104338317Y-17953143D01*
X104249520Y-17817229D01*
X104110015Y-17665689D01*
X104097040Y-17651594D01*
X104097039Y-17651593D01*
X104097037Y-17651591D01*
X103977479Y-17558535D01*
X103919376Y-17513311D01*
X103721374Y-17406158D01*
X103721372Y-17406157D01*
X103721371Y-17406156D01*
X103508439Y-17333057D01*
X103508430Y-17333055D01*
X103463154Y-17325500D01*
X103286369Y-17296000D01*
X103061231Y-17296000D01*
X102913011Y-17320733D01*
X102839169Y-17333055D01*
X102839160Y-17333057D01*
X102626228Y-17406156D01*
X102626226Y-17406158D01*
X102463208Y-17494379D01*
X102428226Y-17513310D01*
X102428224Y-17513311D01*
X102250559Y-17651594D01*
X102189174Y-17718275D01*
X102128321Y-17754846D01*
X102057357Y-17752711D01*
X101998812Y-17712549D01*
X101978418Y-17676970D01*
X101934243Y-17558533D01*
X101846704Y-17441595D01*
X101729765Y-17354055D01*
X101592893Y-17303005D01*
X101532397Y-17296500D01*
X100887800Y-17296500D01*
X100887800Y-18223797D01*
X100826793Y-18188575D01*
X100699626Y-18154500D01*
X100567974Y-18154500D01*
X100440807Y-18188575D01*
X100379800Y-18223797D01*
X100379800Y-17296500D01*
X99735202Y-17296500D01*
X99674706Y-17303005D01*
X99537835Y-17354055D01*
X99537834Y-17354055D01*
X99420895Y-17441595D01*
X99333355Y-17558534D01*
X99333355Y-17558535D01*
X99282305Y-17695406D01*
X99275800Y-17755902D01*
X99275800Y-18400500D01*
X100203097Y-18400500D01*
X100167875Y-18461507D01*
X100133800Y-18588674D01*
X100133800Y-18720326D01*
X100167875Y-18847493D01*
X100203097Y-18908500D01*
X99275800Y-18908500D01*
X99275800Y-19553097D01*
X97202700Y-19553097D01*
X97202700Y-4394934D01*
X97202713Y-4320229D01*
X97202711Y-4320219D01*
X97202700Y-4320106D01*
X97202700Y-4320094D01*
X97187984Y-4246113D01*
X97187985Y-4246112D01*
X97187981Y-4246100D01*
X97173590Y-4173682D01*
X97173588Y-4173678D01*
X97173580Y-4173636D01*
X97173567Y-4173594D01*
X97173551Y-4173556D01*
X97173551Y-4173554D01*
X97145126Y-4104933D01*
X97145124Y-4104911D01*
X97145119Y-4104914D01*
X97141613Y-4096447D01*
X97116437Y-4035634D01*
X97116433Y-4035629D01*
X97116425Y-4035608D01*
X97116386Y-4035536D01*
X97116376Y-4035521D01*
X97116374Y-4035516D01*
X97074939Y-3973504D01*
X97033451Y-3911389D01*
X97033447Y-3911385D01*
X97033369Y-3911290D01*
X97033365Y-3911284D01*
X96979625Y-3857544D01*
X96979616Y-3857526D01*
X96979612Y-3857531D01*
X96676330Y-3554142D01*
X96642316Y-3491824D01*
X96647393Y-3421009D01*
X96689950Y-3364180D01*
X96756474Y-3339381D01*
X96798053Y-3343356D01*
X96837047Y-3353804D01*
X96837055Y-3353806D01*
X97071800Y-3374344D01*
X97306545Y-3353806D01*
X97534158Y-3292818D01*
X97747722Y-3193231D01*
X97867249Y-3109538D01*
X97940744Y-3058077D01*
X97940746Y-3058074D01*
X97940749Y-3058073D01*
X98107373Y-2891449D01*
X98227056Y-2720522D01*
X98282510Y-2676196D01*
X98353129Y-2668887D01*
X98416490Y-2700917D01*
X98448991Y-2750599D01*
X98475275Y-2824554D01*
X98475276Y-2824557D01*
X98475277Y-2824558D01*
X98596276Y-3058077D01*
X98601692Y-3068528D01*
X98630518Y-3109365D01*
X98760143Y-3293002D01*
X98947689Y-3493814D01*
X99160831Y-3667218D01*
X99395600Y-3809984D01*
X99647623Y-3919453D01*
X99912204Y-3993585D01*
X100007304Y-4006656D01*
X100184404Y-4030999D01*
X100184415Y-4031000D01*
X100459185Y-4031000D01*
X100459195Y-4030999D01*
X100588745Y-4013192D01*
X100731396Y-3993585D01*
X100995977Y-3919453D01*
X101248000Y-3809984D01*
X101482769Y-3667218D01*
X101695911Y-3493814D01*
X101883457Y-3293002D01*
X102041911Y-3068523D01*
X102168323Y-2824558D01*
X102260338Y-2565653D01*
X102316242Y-2296630D01*
X102319732Y-2245615D01*
X102334993Y-2022504D01*
X102334993Y-2022495D01*
X102316243Y-1748383D01*
X102316242Y-1748377D01*
X102316242Y-1748370D01*
X102260338Y-1479347D01*
X102168323Y-1220442D01*
X102041911Y-976477D01*
X101883457Y-751998D01*
X101695911Y-551186D01*
X101482769Y-377782D01*
X101248000Y-235016D01*
X101248001Y-235016D01*
X101247997Y-235014D01*
X100995980Y-125548D01*
X100995978Y-125547D01*
X100995977Y-125547D01*
X100863686Y-88481D01*
X100731393Y-51414D01*
X100459195Y-14000D01*
X100459185Y-14000D01*
X100184415Y-14000D01*
X100184404Y-14000D01*
X99912206Y-51414D01*
X99647619Y-125548D01*
X99395602Y-235014D01*
X99160828Y-377784D01*
X98947686Y-551188D01*
X98760143Y-751998D01*
X98601692Y-976471D01*
X98475275Y-1220445D01*
X98448991Y-1294400D01*
X98407331Y-1351889D01*
X98341204Y-1377728D01*
X98271604Y-1363715D01*
X98227054Y-1324475D01*
X98107373Y-1153551D01*
X98107370Y-1153548D01*
X98107368Y-1153545D01*
X97940754Y-986931D01*
X97940744Y-986922D01*
X97747725Y-851770D01*
X97747726Y-851770D01*
X97534160Y-752183D01*
X97534156Y-752181D01*
X97306548Y-691194D01*
X97071800Y-670656D01*
X96837051Y-691194D01*
X96609443Y-752181D01*
X96609439Y-752183D01*
X96395874Y-851770D01*
X96202855Y-986922D01*
X96202845Y-986931D01*
X96036231Y-1153545D01*
X96036222Y-1153555D01*
X95901070Y-1346574D01*
X95801483Y-1560139D01*
X95801481Y-1560143D01*
X95740494Y-1787751D01*
X95736198Y-1836852D01*
X95719956Y-2022500D01*
X95740494Y-2257245D01*
X95740495Y-2257250D01*
X95740494Y-2257250D01*
X95750797Y-2295700D01*
X95749107Y-2366677D01*
X95709312Y-2425472D01*
X95644047Y-2453419D01*
X95574034Y-2441645D01*
X95539979Y-2417390D01*
X95507688Y-2385088D01*
X95507353Y-2384784D01*
X95442786Y-2320230D01*
X95408754Y-2257922D01*
X95406352Y-2220144D01*
X95406601Y-2217294D01*
X95423644Y-2022500D01*
X95403106Y-1787755D01*
X95342118Y-1560142D01*
X95242531Y-1346578D01*
X95242530Y-1346577D01*
X95242529Y-1346574D01*
X95107377Y-1153555D01*
X95107368Y-1153545D01*
X94940754Y-986931D01*
X94940744Y-986922D01*
X94747725Y-851770D01*
X94747726Y-851770D01*
X94534160Y-752183D01*
X94534156Y-752181D01*
X94306548Y-691194D01*
X94071800Y-670656D01*
X93837051Y-691194D01*
X93609443Y-752181D01*
X93609439Y-752183D01*
X93395874Y-851770D01*
X93202855Y-986922D01*
X93202845Y-986931D01*
X93036231Y-1153545D01*
X93036222Y-1153555D01*
X92901070Y-1346574D01*
X92801483Y-1560139D01*
X92801481Y-1560143D01*
X92740494Y-1787751D01*
X92719956Y-2022500D01*
X92740494Y-2257248D01*
X92801481Y-2484856D01*
X92801483Y-2484860D01*
X92901070Y-2698425D01*
X93036222Y-2891444D01*
X93036231Y-2891454D01*
X93202845Y-3058068D01*
X93202855Y-3058077D01*
X93395874Y-3193229D01*
X93395873Y-3193229D01*
X93471796Y-3228632D01*
X93609442Y-3292818D01*
X93783220Y-3339381D01*
X93837047Y-3353804D01*
X93837055Y-3353806D01*
X94071800Y-3374344D01*
X94269815Y-3357019D01*
X94339418Y-3371008D01*
X94369973Y-3393528D01*
X94433237Y-3456910D01*
X94434268Y-3458049D01*
X94438034Y-3461815D01*
X94438035Y-3461816D01*
X94490652Y-3514433D01*
X94513663Y-3537487D01*
X94543131Y-3567012D01*
X94544419Y-3568070D01*
X94553537Y-3576339D01*
X95648811Y-4671999D01*
X95682825Y-4734317D01*
X95685700Y-4761079D01*
X95685700Y-26057818D01*
X95665698Y-26125939D01*
X95612042Y-26172432D01*
X95607919Y-26174226D01*
X95532119Y-26205624D01*
X95521797Y-26212521D01*
X95521789Y-26212525D01*
X95427746Y-26275363D01*
X95422502Y-26278868D01*
X95407883Y-26288636D01*
X95407876Y-26288641D01*
X93007104Y-28689413D01*
X92944792Y-28723439D01*
X92897272Y-28724600D01*
X92853884Y-28717360D01*
X92812769Y-28710500D01*
X92587631Y-28710500D01*
X92439411Y-28735233D01*
X92365569Y-28747555D01*
X92365560Y-28747557D01*
X92152628Y-28820656D01*
X92152626Y-28820658D01*
X91954626Y-28927810D01*
X91954624Y-28927811D01*
X91776962Y-29066091D01*
X91624479Y-29231729D01*
X91624475Y-29231734D01*
X91501341Y-29420206D01*
X91410903Y-29626386D01*
X91410902Y-29626387D01*
X91355637Y-29844624D01*
X91355636Y-29844630D01*
X91355636Y-29844632D01*
X91349767Y-29915457D01*
X91337044Y-30069000D01*
X91355637Y-30293375D01*
X91410902Y-30511612D01*
X91410903Y-30511613D01*
X91501341Y-30717793D01*
X91624475Y-30906265D01*
X91624479Y-30906270D01*
X91697282Y-30985353D01*
X91776960Y-31071906D01*
X91893092Y-31162296D01*
X91934562Y-31219919D01*
X91941700Y-31261726D01*
X91941700Y-31550000D01*
X91921698Y-31618121D01*
X91868042Y-31664614D01*
X91815700Y-31676000D01*
X91801550Y-31676000D01*
X91741003Y-31682509D01*
X91740995Y-31682511D01*
X91603997Y-31733610D01*
X91603992Y-31733612D01*
X91486938Y-31821238D01*
X91399312Y-31938292D01*
X91399310Y-31938297D01*
X91348211Y-32075295D01*
X91348209Y-32075303D01*
X91341700Y-32135850D01*
X91341700Y-33933149D01*
X91348209Y-33993696D01*
X91348211Y-33993704D01*
X91399310Y-34130702D01*
X91399312Y-34130707D01*
X91486938Y-34247761D01*
X91603992Y-34335387D01*
X91603994Y-34335388D01*
X91603996Y-34335389D01*
X91663075Y-34357424D01*
X91740995Y-34386488D01*
X91741003Y-34386490D01*
X91801550Y-34392999D01*
X91801555Y-34392999D01*
X91801562Y-34393000D01*
X91801568Y-34393000D01*
X93598832Y-34393000D01*
X93598838Y-34393000D01*
X93598845Y-34392999D01*
X93598849Y-34392999D01*
X93659396Y-34386490D01*
X93659399Y-34386489D01*
X93659401Y-34386489D01*
X93773706Y-34343854D01*
X93844521Y-34338789D01*
X93906831Y-34372812D01*
X105457685Y-45923666D01*
X105581916Y-46006674D01*
X105719953Y-46063851D01*
X105793222Y-46078424D01*
X105793223Y-46078425D01*
X105807798Y-46081324D01*
X105866494Y-46093000D01*
X105866495Y-46093000D01*
X106015905Y-46093000D01*
X107429300Y-46093000D01*
X107497421Y-46113002D01*
X107543914Y-46166658D01*
X107555300Y-46219000D01*
X107555300Y-51383149D01*
X107561809Y-51443696D01*
X107561811Y-51443704D01*
X107612910Y-51580702D01*
X107612912Y-51580707D01*
X107700538Y-51697761D01*
X107817592Y-51785387D01*
X107817594Y-51785388D01*
X107817596Y-51785389D01*
X107876675Y-51807424D01*
X107954595Y-51836488D01*
X107954603Y-51836490D01*
X108015150Y-51842999D01*
X108015155Y-51842999D01*
X108015162Y-51843000D01*
X108015168Y-51843000D01*
X120112432Y-51843000D01*
X120112438Y-51843000D01*
X120112445Y-51842999D01*
X120112449Y-51842999D01*
X120172996Y-51836490D01*
X120172999Y-51836489D01*
X120173001Y-51836489D01*
X120310004Y-51785389D01*
X120427061Y-51697761D01*
X120480415Y-51626489D01*
X120514687Y-51580707D01*
X120514687Y-51580706D01*
X120514689Y-51580704D01*
X120565789Y-51443701D01*
X120572300Y-51383138D01*
X120572300Y-41958391D01*
X120592302Y-41890270D01*
X120645958Y-41843777D01*
X120716232Y-41833673D01*
X120780812Y-41863167D01*
X120808419Y-41897155D01*
X120809336Y-41898804D01*
X120822898Y-41935977D01*
X120981362Y-42750449D01*
X120981654Y-42758755D01*
X120984789Y-42770070D01*
X120987037Y-42779619D01*
X120989293Y-42791204D01*
X120992742Y-42798769D01*
X121074437Y-43093521D01*
X121214642Y-43599375D01*
X121215599Y-43607727D01*
X121219543Y-43618542D01*
X121222583Y-43628028D01*
X121225675Y-43639177D01*
X121229755Y-43646526D01*
X121515144Y-44428651D01*
X121516789Y-44437000D01*
X121521469Y-44447184D01*
X121525339Y-44456587D01*
X121529199Y-44467161D01*
X121533906Y-44474239D01*
X121575456Y-44564614D01*
X121882867Y-45233281D01*
X121885222Y-45241588D01*
X121890556Y-45251040D01*
X121895305Y-45260336D01*
X121899870Y-45270266D01*
X121905226Y-45277042D01*
X122317195Y-46007201D01*
X122319650Y-46013941D01*
X122327634Y-46026213D01*
X122331752Y-46033003D01*
X122338964Y-46045784D01*
X122343812Y-46051077D01*
X122419020Y-46166658D01*
X122558604Y-46381175D01*
X122558778Y-46381441D01*
X122560861Y-46386341D01*
X122571872Y-46401777D01*
X122574907Y-46406230D01*
X122585289Y-46422187D01*
X122589086Y-46425910D01*
X122831596Y-46765897D01*
X122835288Y-46771371D01*
X122910524Y-46889482D01*
X122912788Y-46893176D01*
X122981711Y-47010150D01*
X122984324Y-47014585D01*
X122986457Y-47018353D01*
X123053710Y-47142024D01*
X123055694Y-47145825D01*
X123118567Y-47271446D01*
X123120403Y-47275273D01*
X123178980Y-47402876D01*
X123180670Y-47406726D01*
X123234905Y-47536088D01*
X123236452Y-47539955D01*
X123286347Y-47670948D01*
X123287752Y-47674828D01*
X123333303Y-47807305D01*
X123334572Y-47811199D01*
X123375788Y-47945066D01*
X123376920Y-47948968D01*
X123413783Y-48084039D01*
X123414783Y-48087948D01*
X123447288Y-48224072D01*
X123448158Y-48227987D01*
X123476310Y-48365053D01*
X123477050Y-48368971D01*
X123500843Y-48506816D01*
X123501457Y-48510742D01*
X123520887Y-48649235D01*
X123521375Y-48653163D01*
X123536441Y-48792156D01*
X123536805Y-48796089D01*
X123547266Y-48932343D01*
X123547636Y-48941988D01*
X123547636Y-50741700D01*
X123547633Y-50742611D01*
X123547592Y-50748197D01*
X123547592Y-50748198D01*
X123547528Y-50757109D01*
X123544464Y-51181114D01*
X123544191Y-51188535D01*
X123516282Y-51609684D01*
X123515588Y-51616953D01*
X123463532Y-52034141D01*
X123462443Y-52041224D01*
X123386940Y-52453753D01*
X123385484Y-52460624D01*
X123287207Y-52867913D01*
X123285412Y-52874551D01*
X123165070Y-53275844D01*
X123162965Y-53282237D01*
X123021252Y-53676853D01*
X123018865Y-53682992D01*
X122856464Y-54070282D01*
X122853818Y-54076165D01*
X122671434Y-54455415D01*
X122668551Y-54461042D01*
X122466876Y-54831576D01*
X122463776Y-54836953D01*
X122243526Y-55198044D01*
X122240223Y-55203175D01*
X122002109Y-55554124D01*
X121998617Y-55559016D01*
X121743335Y-55899144D01*
X121739661Y-55903805D01*
X121467929Y-56232403D01*
X121464082Y-56236841D01*
X121176635Y-56553186D01*
X121172618Y-56557407D01*
X120870129Y-56860852D01*
X120865943Y-56864862D01*
X120549204Y-57154637D01*
X120544850Y-57158440D01*
X120214541Y-57433888D01*
X120210017Y-57437488D01*
X119866824Y-57697945D01*
X119862126Y-57701343D01*
X119506891Y-57946028D01*
X119502016Y-57949223D01*
X119135333Y-58177538D01*
X119130276Y-58180525D01*
X118752992Y-58391706D01*
X118747750Y-58394480D01*
X118360512Y-58587891D01*
X118355081Y-58590444D01*
X117958641Y-58765385D01*
X117953017Y-58767706D01*
X117548077Y-58923507D01*
X117542260Y-58925583D01*
X117129586Y-59061546D01*
X117123579Y-59063361D01*
X116703872Y-59178822D01*
X116697678Y-59180358D01*
X116271641Y-59274646D01*
X116265268Y-59275885D01*
X115833627Y-59348324D01*
X115827088Y-59349246D01*
X115390539Y-59399166D01*
X115383850Y-59399751D01*
X114943089Y-59426477D01*
X114936275Y-59426705D01*
X114493408Y-59429558D01*
X114492596Y-59429561D01*
X102493666Y-59429561D01*
X102485522Y-59429298D01*
X102462640Y-59427816D01*
X102430279Y-59425720D01*
X102341918Y-59419997D01*
X102338028Y-59419684D01*
X102192606Y-59405731D01*
X102188749Y-59405301D01*
X102043836Y-59386878D01*
X102040014Y-59386332D01*
X101895883Y-59363501D01*
X101892115Y-59362845D01*
X101819948Y-59349146D01*
X101748774Y-59335635D01*
X101745024Y-59334864D01*
X101602658Y-59303329D01*
X101598941Y-59302446D01*
X101457698Y-59266635D01*
X101454015Y-59265642D01*
X101314024Y-59225602D01*
X101310386Y-59224502D01*
X101220585Y-59195852D01*
X101171773Y-59180279D01*
X101168159Y-59179065D01*
X101031027Y-59130696D01*
X101027443Y-59129371D01*
X100891983Y-59076921D01*
X100888435Y-59075484D01*
X100754759Y-59018997D01*
X100751277Y-59017463D01*
X100619428Y-58956945D01*
X100616006Y-58955310D01*
X100613251Y-58953942D01*
X100518085Y-58906679D01*
X100486299Y-58890893D01*
X100482851Y-58889114D01*
X100391679Y-58840279D01*
X100355321Y-58820804D01*
X100351918Y-58818913D01*
X100351642Y-58818754D01*
X100259998Y-58765946D01*
X100226886Y-58746866D01*
X100222981Y-58744521D01*
X99969571Y-58586029D01*
X99474744Y-58276546D01*
X99468304Y-58270954D01*
X99458322Y-58265786D01*
X99449446Y-58260724D01*
X99439968Y-58254796D01*
X99431882Y-58252097D01*
X98667845Y-57856536D01*
X98661132Y-57851591D01*
X98650337Y-57847036D01*
X98641413Y-57842852D01*
X98631072Y-57837500D01*
X98622988Y-57835498D01*
X97829788Y-57500884D01*
X97822864Y-57496565D01*
X97811297Y-57492690D01*
X97802371Y-57489319D01*
X97791192Y-57484605D01*
X97783146Y-57483263D01*
X96965663Y-57209552D01*
X96958568Y-57205834D01*
X96946373Y-57202731D01*
X96937462Y-57200110D01*
X96925580Y-57196133D01*
X96917595Y-57195412D01*
X96586300Y-57111155D01*
X96080676Y-56982561D01*
X96073431Y-56979418D01*
X96060745Y-56977152D01*
X96051856Y-56975231D01*
X96039416Y-56972068D01*
X96031519Y-56971935D01*
X95180043Y-56819920D01*
X95172684Y-56817335D01*
X95159581Y-56815945D01*
X95150757Y-56814691D01*
X95137865Y-56812392D01*
X95130080Y-56812820D01*
X94268882Y-56721617D01*
X94261410Y-56719573D01*
X94248104Y-56719104D01*
X94239295Y-56718483D01*
X94226161Y-56717094D01*
X94218477Y-56718063D01*
X93352345Y-56687659D01*
X93344769Y-56686151D01*
X93331447Y-56686617D01*
X93322647Y-56686617D01*
X93309375Y-56686153D01*
X93301799Y-56687657D01*
X92435664Y-56718056D01*
X92427981Y-56717083D01*
X92414788Y-56718478D01*
X92405989Y-56719098D01*
X92392778Y-56719564D01*
X92385315Y-56721599D01*
X91524049Y-56812804D01*
X91516270Y-56812373D01*
X91503313Y-56814683D01*
X91494509Y-56815933D01*
X91481495Y-56817314D01*
X91474143Y-56819890D01*
X90622598Y-56971913D01*
X90614711Y-56972043D01*
X90602210Y-56975220D01*
X90593350Y-56977135D01*
X90580684Y-56979398D01*
X90573451Y-56982533D01*
X89736495Y-57195388D01*
X89728505Y-57196107D01*
X89716613Y-57200089D01*
X89707677Y-57202717D01*
X89695582Y-57205793D01*
X89688479Y-57209508D01*
X88870922Y-57483238D01*
X88862868Y-57484579D01*
X88851691Y-57489293D01*
X88842756Y-57492668D01*
X88831242Y-57496524D01*
X88824312Y-57500842D01*
X88031112Y-57835451D01*
X88023017Y-57837450D01*
X88012602Y-57842840D01*
X88003684Y-57847021D01*
X87992946Y-57851552D01*
X87986232Y-57856492D01*
X87222128Y-58252082D01*
X87214042Y-58254780D01*
X87204544Y-58260719D01*
X87195684Y-58265772D01*
X87185742Y-58270920D01*
X87179301Y-58276507D01*
X86433860Y-58742723D01*
X86429122Y-58745545D01*
X86301558Y-58817761D01*
X86298422Y-58819478D01*
X86170296Y-58887286D01*
X86167097Y-58888921D01*
X86036920Y-58953133D01*
X86033655Y-58954685D01*
X85901628Y-59015163D01*
X85898299Y-59016630D01*
X85764422Y-59073339D01*
X85761019Y-59074723D01*
X85625519Y-59127516D01*
X85622049Y-59128809D01*
X85484976Y-59177625D01*
X85481457Y-59178820D01*
X85342960Y-59223551D01*
X85339358Y-59224655D01*
X85199514Y-59265220D01*
X85195817Y-59266231D01*
X85054801Y-59302524D01*
X85051023Y-59303435D01*
X84908950Y-59335363D01*
X84905094Y-59336166D01*
X84762096Y-59363637D01*
X84758162Y-59364329D01*
X84614241Y-59387274D01*
X84610229Y-59387847D01*
X84465591Y-59406158D01*
X84461503Y-59406608D01*
X84316295Y-59420193D01*
X84312132Y-59420513D01*
X84179512Y-59428499D01*
X84168205Y-59429180D01*
X84160633Y-59429408D01*
X79510044Y-59429408D01*
X79501901Y-59429145D01*
X79358303Y-59419845D01*
X79354412Y-59419532D01*
X79209002Y-59405580D01*
X79205145Y-59405150D01*
X79060214Y-59386724D01*
X79056392Y-59386178D01*
X78912281Y-59363350D01*
X78908495Y-59362691D01*
X78765160Y-59335482D01*
X78761409Y-59334711D01*
X78619062Y-59303180D01*
X78615346Y-59302298D01*
X78474062Y-59266477D01*
X78470380Y-59265483D01*
X78330411Y-59225450D01*
X78326769Y-59224349D01*
X78188131Y-59180118D01*
X78184527Y-59178908D01*
X78047403Y-59130540D01*
X78043822Y-59129215D01*
X77908354Y-59076764D01*
X77904844Y-59075343D01*
X77771137Y-59018843D01*
X77767622Y-59017294D01*
X77635870Y-58956820D01*
X77632388Y-58955157D01*
X77502676Y-58890740D01*
X77499226Y-58888960D01*
X77371692Y-58820649D01*
X77368278Y-58818752D01*
X77314371Y-58787690D01*
X77243435Y-58746815D01*
X77239565Y-58744491D01*
X76710815Y-58413792D01*
X76491135Y-58276396D01*
X76484696Y-58270805D01*
X76474706Y-58265632D01*
X76465841Y-58260575D01*
X76456357Y-58254644D01*
X76448270Y-58251945D01*
X75684260Y-57856397D01*
X75677544Y-57851449D01*
X75666726Y-57846884D01*
X75657792Y-57842694D01*
X75647448Y-57837339D01*
X75639359Y-57835338D01*
X74846179Y-57500731D01*
X74839255Y-57496412D01*
X74827688Y-57492537D01*
X74818762Y-57489166D01*
X74807583Y-57484452D01*
X74799537Y-57483110D01*
X73982055Y-57209400D01*
X73974960Y-57205682D01*
X73962765Y-57202579D01*
X73953854Y-57199958D01*
X73941971Y-57195981D01*
X73933987Y-57195260D01*
X73844138Y-57172409D01*
X73774260Y-57154637D01*
X73097068Y-56982408D01*
X73089824Y-56979265D01*
X73077138Y-56976999D01*
X73068249Y-56975078D01*
X73055809Y-56971915D01*
X73047912Y-56971782D01*
X72196436Y-56819767D01*
X72189077Y-56817182D01*
X72175974Y-56815792D01*
X72167150Y-56814538D01*
X72154258Y-56812239D01*
X72146473Y-56812667D01*
X71285276Y-56721464D01*
X71277804Y-56719420D01*
X71264498Y-56718951D01*
X71255689Y-56718330D01*
X71242555Y-56716941D01*
X71234871Y-56717910D01*
X70368739Y-56687507D01*
X70361163Y-56685999D01*
X70347841Y-56686465D01*
X70339041Y-56686465D01*
X70325768Y-56686001D01*
X70318193Y-56687505D01*
X69452058Y-56717903D01*
X69444376Y-56716930D01*
X69431183Y-56718325D01*
X69422384Y-56718945D01*
X69409173Y-56719411D01*
X69401710Y-56721446D01*
X68540444Y-56812652D01*
X68532665Y-56812221D01*
X68519708Y-56814531D01*
X68510904Y-56815781D01*
X68497890Y-56817162D01*
X68490538Y-56819738D01*
X67638993Y-56971761D01*
X67631106Y-56971891D01*
X67618605Y-56975068D01*
X67609745Y-56976983D01*
X67597079Y-56979246D01*
X67589846Y-56982381D01*
X66752891Y-57195236D01*
X66744901Y-57195955D01*
X66733009Y-57199937D01*
X66724073Y-57202565D01*
X66711978Y-57205641D01*
X66704875Y-57209356D01*
X65887318Y-57483086D01*
X65879264Y-57484427D01*
X65868087Y-57489141D01*
X65859152Y-57492516D01*
X65847638Y-57496372D01*
X65840707Y-57500691D01*
X65047510Y-57835298D01*
X65039412Y-57837297D01*
X65028990Y-57842692D01*
X65020065Y-57846877D01*
X65009305Y-57851417D01*
X65002597Y-57856356D01*
X64238523Y-58251929D01*
X64230437Y-58254627D01*
X64220939Y-58260566D01*
X64212079Y-58265619D01*
X64202137Y-58270767D01*
X64195696Y-58276354D01*
X63447743Y-58744142D01*
X63443004Y-58746964D01*
X63317960Y-58817752D01*
X63314826Y-58819468D01*
X63186685Y-58887285D01*
X63183485Y-58888921D01*
X63053306Y-58953133D01*
X63050043Y-58954685D01*
X63005399Y-58975136D01*
X62918009Y-59015168D01*
X62914687Y-59016632D01*
X62780822Y-59073335D01*
X62777421Y-59074718D01*
X62641899Y-59127520D01*
X62638428Y-59128813D01*
X62501366Y-59177625D01*
X62497819Y-59178829D01*
X62359372Y-59223544D01*
X62355749Y-59224655D01*
X62215905Y-59265220D01*
X62212208Y-59266231D01*
X62071192Y-59302524D01*
X62067414Y-59303435D01*
X61925341Y-59335363D01*
X61921485Y-59336166D01*
X61778487Y-59363637D01*
X61774553Y-59364329D01*
X61630632Y-59387274D01*
X61626620Y-59387847D01*
X61481981Y-59406158D01*
X61477893Y-59406608D01*
X61332685Y-59420193D01*
X61328522Y-59420513D01*
X61195065Y-59428549D01*
X61184593Y-59429180D01*
X61177021Y-59429408D01*
X56526424Y-59429408D01*
X56518281Y-59429145D01*
X56374683Y-59419845D01*
X56370792Y-59419532D01*
X56225382Y-59405580D01*
X56221525Y-59405150D01*
X56076594Y-59386724D01*
X56072772Y-59386178D01*
X55928662Y-59363350D01*
X55924876Y-59362691D01*
X55781540Y-59335482D01*
X55777789Y-59334711D01*
X55635443Y-59303180D01*
X55631727Y-59302298D01*
X55490442Y-59266477D01*
X55486759Y-59265483D01*
X55346800Y-59225452D01*
X55343151Y-59224349D01*
X55204515Y-59180118D01*
X55200900Y-59178904D01*
X55063785Y-59130540D01*
X55060204Y-59129215D01*
X54924736Y-59076764D01*
X54921226Y-59075343D01*
X54787519Y-59018843D01*
X54784004Y-59017294D01*
X54652265Y-58956826D01*
X54648783Y-58955163D01*
X54519047Y-58890734D01*
X54515597Y-58888954D01*
X54388068Y-58820645D01*
X54384653Y-58818747D01*
X54259706Y-58746749D01*
X54255801Y-58744404D01*
X53507508Y-58276396D01*
X53501069Y-58270805D01*
X53491079Y-58265632D01*
X53482214Y-58260575D01*
X53472730Y-58254644D01*
X53464643Y-58251945D01*
X52700633Y-57856397D01*
X52693917Y-57851449D01*
X52683099Y-57846884D01*
X52674165Y-57842694D01*
X52663821Y-57837339D01*
X52655732Y-57835338D01*
X51862552Y-57500731D01*
X51855628Y-57496412D01*
X51844061Y-57492537D01*
X51835135Y-57489166D01*
X51823956Y-57484452D01*
X51815910Y-57483110D01*
X50998429Y-57209400D01*
X50991334Y-57205682D01*
X50979139Y-57202579D01*
X50970228Y-57199958D01*
X50958345Y-57195981D01*
X50950361Y-57195260D01*
X50860512Y-57172409D01*
X50790634Y-57154637D01*
X50113442Y-56982408D01*
X50106198Y-56979265D01*
X50093512Y-56976999D01*
X50084623Y-56975078D01*
X50072183Y-56971915D01*
X50064286Y-56971782D01*
X49212810Y-56819767D01*
X49205451Y-56817182D01*
X49192348Y-56815792D01*
X49183524Y-56814538D01*
X49170632Y-56812239D01*
X49162847Y-56812667D01*
X48301651Y-56721464D01*
X48294179Y-56719420D01*
X48280873Y-56718951D01*
X48272064Y-56718330D01*
X48258930Y-56716941D01*
X48251246Y-56717910D01*
X47385114Y-56687507D01*
X47377538Y-56685999D01*
X47364216Y-56686465D01*
X47355416Y-56686465D01*
X47342143Y-56686001D01*
X47334568Y-56687505D01*
X46468434Y-56717903D01*
X46460752Y-56716930D01*
X46447559Y-56718325D01*
X46438760Y-56718945D01*
X46425549Y-56719411D01*
X46418086Y-56721446D01*
X45556820Y-56812652D01*
X45549041Y-56812221D01*
X45536084Y-56814531D01*
X45527280Y-56815781D01*
X45514266Y-56817162D01*
X45506914Y-56819738D01*
X44655370Y-56971761D01*
X44647483Y-56971891D01*
X44634982Y-56975068D01*
X44626122Y-56976983D01*
X44613456Y-56979246D01*
X44606223Y-56982381D01*
X43769268Y-57195236D01*
X43761278Y-57195955D01*
X43749386Y-57199937D01*
X43740450Y-57202565D01*
X43728355Y-57205641D01*
X43721252Y-57209356D01*
X42903696Y-57483086D01*
X42895642Y-57484427D01*
X42884465Y-57489141D01*
X42875530Y-57492516D01*
X42864016Y-57496372D01*
X42857085Y-57500691D01*
X42063829Y-57835323D01*
X42055740Y-57837324D01*
X42045377Y-57842688D01*
X42036459Y-57846869D01*
X42025721Y-57851400D01*
X42019007Y-57856340D01*
X41254903Y-58251929D01*
X41246817Y-58254627D01*
X41237319Y-58260566D01*
X41228459Y-58265619D01*
X41218517Y-58270767D01*
X41212076Y-58276354D01*
X40464133Y-58744136D01*
X40459394Y-58746958D01*
X40334326Y-58817760D01*
X40331191Y-58819477D01*
X40203063Y-58887286D01*
X40199863Y-58888921D01*
X40069673Y-58953138D01*
X40066410Y-58954690D01*
X40022136Y-58974971D01*
X39934373Y-59015173D01*
X39931063Y-59016632D01*
X39797206Y-59073333D01*
X39793802Y-59074717D01*
X39658285Y-59127516D01*
X39654815Y-59128809D01*
X39517742Y-59177625D01*
X39514223Y-59178820D01*
X39375726Y-59223551D01*
X39372124Y-59224655D01*
X39232280Y-59265220D01*
X39228583Y-59266232D01*
X39087566Y-59302525D01*
X39083788Y-59303435D01*
X38941716Y-59335363D01*
X38937860Y-59336166D01*
X38794860Y-59363637D01*
X38790926Y-59364329D01*
X38647005Y-59387274D01*
X38642993Y-59387847D01*
X38498354Y-59406158D01*
X38494266Y-59406608D01*
X38349057Y-59420193D01*
X38344894Y-59420513D01*
X38211437Y-59428549D01*
X38200965Y-59429180D01*
X38193393Y-59429408D01*
X33542797Y-59429408D01*
X33534654Y-59429145D01*
X33391056Y-59419845D01*
X33387165Y-59419532D01*
X33241755Y-59405580D01*
X33237898Y-59405150D01*
X33092967Y-59386724D01*
X33089145Y-59386178D01*
X32945035Y-59363350D01*
X32941249Y-59362691D01*
X32797913Y-59335482D01*
X32794162Y-59334711D01*
X32651816Y-59303180D01*
X32648100Y-59302298D01*
X32506815Y-59266477D01*
X32503132Y-59265483D01*
X32363165Y-59225450D01*
X32359517Y-59224347D01*
X32220898Y-59180122D01*
X32217282Y-59178908D01*
X32080158Y-59130540D01*
X32076576Y-59129215D01*
X31941110Y-59076764D01*
X31937561Y-59075327D01*
X31847608Y-59037316D01*
X31803894Y-59018844D01*
X31800390Y-59017300D01*
X31798930Y-59016630D01*
X31770537Y-59003597D01*
X31668627Y-58956820D01*
X31665146Y-58955157D01*
X31535411Y-58890729D01*
X31531970Y-58888954D01*
X31404417Y-58820630D01*
X31401042Y-58818754D01*
X31276121Y-58746771D01*
X31272216Y-58744426D01*
X30523870Y-58276384D01*
X30517433Y-58270797D01*
X30507462Y-58265634D01*
X30498590Y-58260574D01*
X30489107Y-58254643D01*
X30481022Y-58251945D01*
X29717012Y-57856397D01*
X29710296Y-57851449D01*
X29699478Y-57846884D01*
X29690544Y-57842694D01*
X29680200Y-57837339D01*
X29672111Y-57835338D01*
X28878931Y-57500731D01*
X28872007Y-57496412D01*
X28860440Y-57492537D01*
X28851514Y-57489166D01*
X28840335Y-57484452D01*
X28832289Y-57483110D01*
X28014807Y-57209400D01*
X28007712Y-57205682D01*
X27995517Y-57202579D01*
X27986606Y-57199958D01*
X27974723Y-57195981D01*
X27966739Y-57195260D01*
X27129819Y-56982408D01*
X27122575Y-56979265D01*
X27109889Y-56976999D01*
X27101000Y-56975078D01*
X27088560Y-56971915D01*
X27080663Y-56971782D01*
X26229188Y-56819767D01*
X26221829Y-56817182D01*
X26208726Y-56815792D01*
X26199902Y-56814538D01*
X26187010Y-56812239D01*
X26179225Y-56812667D01*
X25318028Y-56721464D01*
X25310556Y-56719420D01*
X25297250Y-56718951D01*
X25288441Y-56718330D01*
X25275307Y-56716941D01*
X25267623Y-56717910D01*
X24401491Y-56687507D01*
X24393915Y-56685999D01*
X24380593Y-56686465D01*
X24371793Y-56686465D01*
X24358520Y-56686001D01*
X24350945Y-56687505D01*
X23484810Y-56717903D01*
X23477128Y-56716930D01*
X23463935Y-56718325D01*
X23455136Y-56718945D01*
X23441925Y-56719411D01*
X23434462Y-56721446D01*
X22573196Y-56812652D01*
X22565417Y-56812221D01*
X22552460Y-56814531D01*
X22543656Y-56815781D01*
X22530642Y-56817162D01*
X22523290Y-56819738D01*
X21671746Y-56971761D01*
X21663859Y-56971891D01*
X21651358Y-56975068D01*
X21642498Y-56976983D01*
X21629832Y-56979246D01*
X21622599Y-56982381D01*
X20785644Y-57195236D01*
X20777654Y-57195955D01*
X20765762Y-57199937D01*
X20756826Y-57202565D01*
X20744731Y-57205641D01*
X20737628Y-57209356D01*
X19920071Y-57483086D01*
X19912017Y-57484427D01*
X19900840Y-57489141D01*
X19891905Y-57492516D01*
X19880391Y-57496372D01*
X19873460Y-57500691D01*
X19080204Y-57835323D01*
X19072115Y-57837324D01*
X19061752Y-57842688D01*
X19052834Y-57846869D01*
X19042096Y-57851400D01*
X19035382Y-57856340D01*
X18271278Y-58251929D01*
X18263192Y-58254627D01*
X18253694Y-58260566D01*
X18244834Y-58265619D01*
X18234891Y-58270767D01*
X18228452Y-58276353D01*
X17480469Y-58744160D01*
X17475733Y-58746980D01*
X17350693Y-58817771D01*
X17347558Y-58819488D01*
X17219421Y-58887306D01*
X17216240Y-58888932D01*
X17175964Y-58908799D01*
X17086087Y-58953132D01*
X17082824Y-58954683D01*
X16950730Y-59015195D01*
X16947399Y-59016663D01*
X16813605Y-59073337D01*
X16810204Y-59074720D01*
X16674673Y-59127527D01*
X16671199Y-59128822D01*
X16534136Y-59177632D01*
X16530591Y-59178836D01*
X16392099Y-59223565D01*
X16388475Y-59224675D01*
X16248627Y-59265240D01*
X16244928Y-59266252D01*
X16103952Y-59302531D01*
X16100176Y-59303441D01*
X15984786Y-59329371D01*
X15958123Y-59335363D01*
X15954271Y-59336166D01*
X15811218Y-59363645D01*
X15807286Y-59364336D01*
X15663373Y-59387279D01*
X15659360Y-59387852D01*
X15514747Y-59406158D01*
X15510659Y-59406608D01*
X15365438Y-59420193D01*
X15361276Y-59420513D01*
X15239983Y-59427817D01*
X15217346Y-59429180D01*
X15209774Y-59429408D01*
X3210513Y-59429408D01*
X3209706Y-59429405D01*
X3207287Y-59429389D01*
X2766974Y-59426567D01*
X2760159Y-59426339D01*
X2319468Y-59399630D01*
X2312780Y-59399046D01*
X1876273Y-59349146D01*
X1869734Y-59348224D01*
X1438130Y-59275807D01*
X1431758Y-59274568D01*
X1005762Y-59180305D01*
X999567Y-59178769D01*
X579870Y-59063326D01*
X573863Y-59061511D01*
X505737Y-59039068D01*
X161191Y-58925563D01*
X155380Y-58923490D01*
X121660Y-58910518D01*
X-111939Y-58820652D01*
X-249510Y-58767728D01*
X-255134Y-58765407D01*
X-651548Y-58590496D01*
X-656979Y-58587944D01*
X-1044270Y-58394528D01*
X-1049513Y-58391753D01*
X-1426788Y-58180596D01*
X-1431844Y-58177610D01*
X-1798505Y-57949332D01*
X-1803380Y-57946138D01*
X-1922425Y-57864148D01*
X-2158663Y-57701443D01*
X-2163335Y-57698065D01*
X-2506512Y-57437645D01*
X-2511017Y-57434060D01*
X-2841349Y-57158621D01*
X-2845701Y-57154820D01*
X-3145064Y-56880970D01*
X-3162506Y-56865014D01*
X-3166687Y-56861009D01*
X-3166844Y-56860852D01*
X-3341162Y-56685999D01*
X-3469149Y-56557619D01*
X-3473166Y-56553399D01*
X-3554808Y-56463558D01*
X-3760673Y-56237018D01*
X-3764495Y-56232610D01*
X-4036269Y-55903992D01*
X-4039936Y-55899338D01*
X-4040082Y-55899144D01*
X-4285286Y-55572473D01*
X-4295221Y-55559237D01*
X-4298714Y-55554345D01*
X-4528493Y-55215713D01*
X-4536881Y-55203352D01*
X-4540158Y-55198260D01*
X-4760451Y-54837133D01*
X-4763532Y-54831791D01*
X-4965244Y-54461227D01*
X-4968120Y-54455611D01*
X-5150525Y-54076357D01*
X-5153172Y-54070474D01*
X-5315606Y-53683145D01*
X-5317990Y-53677017D01*
X-5318049Y-53676853D01*
X-5459738Y-53282344D01*
X-5461838Y-53275966D01*
X-5461875Y-53275844D01*
X-5580362Y-52880783D01*
X-5582204Y-52874642D01*
X-5583999Y-52868005D01*
X-5584021Y-52867913D01*
X-5682313Y-52460624D01*
X-5683751Y-52453838D01*
X-5759283Y-52041224D01*
X-5760368Y-52034171D01*
X-5812448Y-51616902D01*
X-5813140Y-51609644D01*
X-5815059Y-51580707D01*
X-5841069Y-51188435D01*
X-5841341Y-51181016D01*
X-5844444Y-50753417D01*
X-5844447Y-50752503D01*
X-5844447Y-48941427D01*
X-5844128Y-48932472D01*
X-5838817Y-48857933D01*
X-5834391Y-48795805D01*
X-5834024Y-48791643D01*
X-5819426Y-48652821D01*
X-5818917Y-48648658D01*
X-5818910Y-48648612D01*
X-5799682Y-48510360D01*
X-5799039Y-48506241D01*
X-5775213Y-48368593D01*
X-5774461Y-48364640D01*
X-5746087Y-48227754D01*
X-5745203Y-48223810D01*
X-5712333Y-48087847D01*
X-5711316Y-48083922D01*
X-5673999Y-47949012D01*
X-5672854Y-47945123D01*
X-5631132Y-47811369D01*
X-5629876Y-47807564D01*
X-5583809Y-47675144D01*
X-5582437Y-47671396D01*
X-5532037Y-47540329D01*
X-5530578Y-47536711D01*
X-5475917Y-47407199D01*
X-5474294Y-47403523D01*
X-5472737Y-47400142D01*
X-5463752Y-47380633D01*
X13174673Y-47380633D01*
X13174699Y-47380890D01*
X13186867Y-47442065D01*
X13186872Y-47442115D01*
X13186877Y-47442115D01*
X13198973Y-47503056D01*
X13199037Y-47503265D01*
X13199044Y-47503283D01*
X13199045Y-47503285D01*
X13214234Y-47539955D01*
X13223006Y-47561131D01*
X13223016Y-47561182D01*
X13223025Y-47561179D01*
X13246676Y-47618343D01*
X13246798Y-47618573D01*
X13280916Y-47669633D01*
X13280910Y-47669636D01*
X13280941Y-47669670D01*
X13315962Y-47722129D01*
X13315963Y-47722130D01*
X13315972Y-47722143D01*
X13316124Y-47722328D01*
X13316128Y-47722332D01*
X13316129Y-47722333D01*
X13360615Y-47766819D01*
X13360640Y-47766865D01*
X13360651Y-47766855D01*
X14450826Y-48857933D01*
X14520629Y-48927793D01*
X14521014Y-48928218D01*
X14525128Y-48932332D01*
X14525129Y-48932333D01*
X14568437Y-48975641D01*
X14568463Y-48975688D01*
X14568474Y-48975678D01*
X14613162Y-49020403D01*
X14613364Y-49020569D01*
X14613367Y-49020571D01*
X14664753Y-49054906D01*
X14716893Y-49089776D01*
X14716896Y-49089777D01*
X14717117Y-49089894D01*
X14717125Y-49089900D01*
X14775019Y-49113880D01*
X14775062Y-49113914D01*
X14775068Y-49113901D01*
X14815520Y-49130676D01*
X14832163Y-49137578D01*
X14832166Y-49137578D01*
X14832196Y-49137588D01*
X14832404Y-49137650D01*
X14832415Y-49137655D01*
X14894230Y-49149950D01*
X14894229Y-49149950D01*
X14894237Y-49149951D01*
X14954544Y-49161974D01*
X14954555Y-49161974D01*
X14954800Y-49161998D01*
X14954806Y-49162000D01*
X14954811Y-49162000D01*
X15018161Y-49162000D01*
X15079331Y-49162025D01*
X15079332Y-49162024D01*
X15085183Y-49162027D01*
X15085752Y-49162000D01*
X26824593Y-49162000D01*
X26824594Y-49162000D01*
X26946985Y-49137655D01*
X27062275Y-49089900D01*
X27166033Y-49020571D01*
X27701326Y-48485277D01*
X27763635Y-48451255D01*
X27819006Y-48452193D01*
X27819024Y-48452086D01*
X27819740Y-48452205D01*
X27821357Y-48452233D01*
X27824160Y-48452943D01*
X27824164Y-48452943D01*
X27824165Y-48452944D01*
X28046231Y-48490000D01*
X28046235Y-48490000D01*
X28271365Y-48490000D01*
X28271369Y-48490000D01*
X28493435Y-48452944D01*
X28706374Y-48379842D01*
X28904376Y-48272689D01*
X29082040Y-48134406D01*
X29234522Y-47968768D01*
X29323318Y-47832854D01*
X29377320Y-47786768D01*
X29447668Y-47777192D01*
X29512025Y-47807169D01*
X29534280Y-47832853D01*
X29567407Y-47883558D01*
X29623075Y-47968765D01*
X29623079Y-47968770D01*
X29775562Y-48134408D01*
X29830131Y-48176881D01*
X29953224Y-48272689D01*
X30151226Y-48379842D01*
X30151227Y-48379842D01*
X30151228Y-48379843D01*
X30263027Y-48418223D01*
X30364165Y-48452944D01*
X30586231Y-48490000D01*
X30586235Y-48490000D01*
X30811365Y-48490000D01*
X30811369Y-48490000D01*
X31033435Y-48452944D01*
X31246374Y-48379842D01*
X31444376Y-48272689D01*
X31622040Y-48134406D01*
X31774522Y-47968768D01*
X31863318Y-47832854D01*
X31917320Y-47786768D01*
X31987668Y-47777192D01*
X32052025Y-47807169D01*
X32074280Y-47832853D01*
X32107407Y-47883558D01*
X32163075Y-47968765D01*
X32163079Y-47968770D01*
X32315562Y-48134408D01*
X32370131Y-48176881D01*
X32493224Y-48272689D01*
X32691226Y-48379842D01*
X32691227Y-48379842D01*
X32691228Y-48379843D01*
X32803027Y-48418223D01*
X32904165Y-48452944D01*
X33126231Y-48490000D01*
X33126235Y-48490000D01*
X33351365Y-48490000D01*
X33351369Y-48490000D01*
X33573435Y-48452944D01*
X33573443Y-48452941D01*
X33576871Y-48452073D01*
X33578327Y-48452127D01*
X33578576Y-48452086D01*
X33578584Y-48452137D01*
X33647818Y-48454730D01*
X33696914Y-48485118D01*
X34347129Y-49135333D01*
X34435367Y-49223571D01*
X34539125Y-49292900D01*
X34654415Y-49340655D01*
X34776806Y-49365000D01*
X51681792Y-49365000D01*
X51681824Y-49365000D01*
X51743256Y-49365033D01*
X51743261Y-49365031D01*
X51743263Y-49365032D01*
X51743594Y-49365000D01*
X51805252Y-49352735D01*
X51805254Y-49352749D01*
X51805316Y-49352722D01*
X51865660Y-49340753D01*
X51865663Y-49340751D01*
X51865925Y-49340673D01*
X51865976Y-49340656D01*
X51865985Y-49340655D01*
X51924022Y-49316614D01*
X51924025Y-49316621D01*
X51924083Y-49316588D01*
X51980975Y-49293060D01*
X51980979Y-49293056D01*
X51981270Y-49292901D01*
X51981275Y-49292900D01*
X52012332Y-49272147D01*
X52032992Y-49258344D01*
X52033011Y-49258330D01*
X52084770Y-49223787D01*
X52084779Y-49223777D01*
X52085021Y-49223578D01*
X52085033Y-49223571D01*
X52128773Y-49179829D01*
X52128833Y-49179796D01*
X52128820Y-49179783D01*
X52171071Y-49137577D01*
X52540252Y-48768789D01*
X52602582Y-48734798D01*
X52673395Y-48739901D01*
X52730208Y-48782478D01*
X52754984Y-48849011D01*
X52755300Y-48857933D01*
X52755300Y-51173149D01*
X52761809Y-51233696D01*
X52761811Y-51233704D01*
X52812910Y-51370702D01*
X52812912Y-51370707D01*
X52900538Y-51487761D01*
X53017592Y-51575387D01*
X53017594Y-51575388D01*
X53017596Y-51575389D01*
X53076675Y-51597424D01*
X53154595Y-51626488D01*
X53154603Y-51626490D01*
X53215150Y-51632999D01*
X53215155Y-51632999D01*
X53215162Y-51633000D01*
X53215168Y-51633000D01*
X65312432Y-51633000D01*
X65312438Y-51633000D01*
X65312445Y-51632999D01*
X65312449Y-51632999D01*
X65372996Y-51626490D01*
X65372999Y-51626489D01*
X65373001Y-51626489D01*
X65510004Y-51575389D01*
X65627061Y-51487761D01*
X65705381Y-51383138D01*
X65714687Y-51370707D01*
X65714687Y-51370706D01*
X65714689Y-51370704D01*
X65765789Y-51233701D01*
X65770528Y-51189626D01*
X65772299Y-51173149D01*
X65772300Y-51173132D01*
X65772300Y-44914103D01*
X65792302Y-44845982D01*
X65845958Y-44799489D01*
X65916232Y-44789385D01*
X65980812Y-44818879D01*
X65995697Y-44834166D01*
X65998030Y-44837008D01*
X65998035Y-44837016D01*
X66103684Y-44942665D01*
X66227916Y-45025674D01*
X66365954Y-45082851D01*
X66512494Y-45112000D01*
X66661906Y-45112000D01*
X67041300Y-45112000D01*
X67109421Y-45132002D01*
X67131115Y-45150326D01*
X67131131Y-45150310D01*
X67131571Y-45150711D01*
X67134411Y-45153110D01*
X67135437Y-45154235D01*
X67251877Y-45260384D01*
X67288744Y-45321058D01*
X67286955Y-45392032D01*
X67251878Y-45446614D01*
X67135434Y-45552766D01*
X67003258Y-45727797D01*
X66905491Y-45924139D01*
X66905488Y-45924146D01*
X66845467Y-46135102D01*
X66845467Y-46135106D01*
X66825230Y-46353495D01*
X66825230Y-46353504D01*
X66845467Y-46571893D01*
X66845467Y-46571897D01*
X66905488Y-46782853D01*
X66905490Y-46782858D01*
X66905491Y-46782861D01*
X67003257Y-46979201D01*
X67003258Y-46979202D01*
X67079112Y-47079650D01*
X67104202Y-47146066D01*
X67089402Y-47215503D01*
X67054071Y-47256450D01*
X66975538Y-47315238D01*
X66887912Y-47432292D01*
X66887910Y-47432297D01*
X66836811Y-47569295D01*
X66836809Y-47569303D01*
X66830300Y-47629850D01*
X66830300Y-49077149D01*
X66836809Y-49137696D01*
X66836811Y-49137704D01*
X66887910Y-49274702D01*
X66887912Y-49274707D01*
X66975538Y-49391761D01*
X67092592Y-49479387D01*
X67092594Y-49479388D01*
X67092596Y-49479389D01*
X67151675Y-49501424D01*
X67229595Y-49530488D01*
X67229603Y-49530490D01*
X67290150Y-49536999D01*
X67290155Y-49536999D01*
X67290162Y-49537000D01*
X67290168Y-49537000D01*
X68737432Y-49537000D01*
X68737438Y-49537000D01*
X68737445Y-49536999D01*
X68737449Y-49536999D01*
X68797996Y-49530490D01*
X68797999Y-49530489D01*
X68798001Y-49530489D01*
X68935004Y-49479389D01*
X69052061Y-49391761D01*
X69108310Y-49316621D01*
X69139687Y-49274707D01*
X69139687Y-49274706D01*
X69139689Y-49274704D01*
X69190789Y-49137701D01*
X69190795Y-49137653D01*
X69197299Y-49077149D01*
X69197300Y-49077132D01*
X69197300Y-47629867D01*
X69197299Y-47629850D01*
X69190790Y-47569303D01*
X69190788Y-47569295D01*
X69143351Y-47442115D01*
X69139689Y-47432296D01*
X69139688Y-47432294D01*
X69139687Y-47432292D01*
X69052061Y-47315238D01*
X68979676Y-47261052D01*
X68973527Y-47256449D01*
X68930981Y-47199615D01*
X68925916Y-47128799D01*
X68948487Y-47079650D01*
X69024343Y-46979201D01*
X69122109Y-46782861D01*
X69182132Y-46571899D01*
X69197710Y-46403792D01*
X69202370Y-46353504D01*
X69202370Y-46353495D01*
X69190977Y-46230552D01*
X69182132Y-46135101D01*
X69122109Y-45924139D01*
X69024343Y-45727799D01*
X68923609Y-45594406D01*
X68892162Y-45552763D01*
X68775723Y-45446615D01*
X68738856Y-45385941D01*
X68740645Y-45314967D01*
X68775723Y-45260385D01*
X68892162Y-45154236D01*
X68892164Y-45154234D01*
X69024343Y-44979201D01*
X69122109Y-44782861D01*
X69182132Y-44571899D01*
X69202370Y-44353500D01*
X69182132Y-44135101D01*
X69122109Y-43924139D01*
X69024343Y-43727799D01*
X68892164Y-43552766D01*
X68892162Y-43552763D01*
X68775352Y-43446277D01*
X68738485Y-43385603D01*
X68740274Y-43314629D01*
X68775352Y-43260047D01*
X68891791Y-43153898D01*
X69023914Y-42978938D01*
X69121639Y-42782679D01*
X69121641Y-42782674D01*
X69171483Y-42607500D01*
X68325486Y-42607500D01*
X68333880Y-42599106D01*
X68386541Y-42507894D01*
X68413800Y-42406161D01*
X68413800Y-42300839D01*
X68386541Y-42199106D01*
X68333880Y-42107894D01*
X68325486Y-42099500D01*
X69171483Y-42099500D01*
X69121641Y-41924325D01*
X69121639Y-41924320D01*
X69023914Y-41728061D01*
X68891794Y-41553104D01*
X68729773Y-41405402D01*
X68543367Y-41289985D01*
X68543360Y-41289982D01*
X68338936Y-41210787D01*
X68267800Y-41197489D01*
X68267800Y-42041814D01*
X68259406Y-42033420D01*
X68168194Y-41980759D01*
X68066461Y-41953500D01*
X67961139Y-41953500D01*
X67859406Y-41980759D01*
X67768194Y-42033420D01*
X67759800Y-42041814D01*
X67759800Y-41197489D01*
X67688666Y-41210787D01*
X67517216Y-41277207D01*
X67446470Y-41283163D01*
X67383734Y-41249926D01*
X67348927Y-41188047D01*
X67345700Y-41159715D01*
X67345700Y-32569500D01*
X69324644Y-32569500D01*
X69343217Y-32793644D01*
X69343237Y-32793875D01*
X69398502Y-33012112D01*
X69398503Y-33012113D01*
X69398504Y-33012116D01*
X69476361Y-33189614D01*
X69488941Y-33218293D01*
X69612075Y-33406765D01*
X69612078Y-33406768D01*
X69639041Y-33436057D01*
X69755275Y-33562320D01*
X69786696Y-33625985D01*
X69778709Y-33696531D01*
X69733851Y-33751560D01*
X69706607Y-33765713D01*
X69591597Y-33808610D01*
X69591592Y-33808612D01*
X69474538Y-33896238D01*
X69386912Y-34013292D01*
X69386910Y-34013297D01*
X69335811Y-34150295D01*
X69335809Y-34150303D01*
X69329300Y-34210850D01*
X69329300Y-36008149D01*
X69335809Y-36068696D01*
X69335811Y-36068704D01*
X69386910Y-36205702D01*
X69386912Y-36205707D01*
X69474538Y-36322761D01*
X69591592Y-36410387D01*
X69591594Y-36410388D01*
X69591596Y-36410389D01*
X69650675Y-36432424D01*
X69728595Y-36461488D01*
X69728603Y-36461490D01*
X69789150Y-36467999D01*
X69789155Y-36467999D01*
X69789162Y-36468000D01*
X69789168Y-36468000D01*
X71586432Y-36468000D01*
X71586438Y-36468000D01*
X71586445Y-36467999D01*
X71586449Y-36467999D01*
X71646996Y-36461490D01*
X71646999Y-36461489D01*
X71647001Y-36461489D01*
X71784004Y-36410389D01*
X71901061Y-36322761D01*
X71988689Y-36205704D01*
X72039789Y-36068701D01*
X72046300Y-36008138D01*
X72046300Y-34210862D01*
X72041306Y-34164406D01*
X72039790Y-34150303D01*
X72039788Y-34150295D01*
X71988689Y-34013297D01*
X71988687Y-34013292D01*
X71901061Y-33896238D01*
X71784007Y-33808612D01*
X71784003Y-33808610D01*
X71668992Y-33765713D01*
X71612156Y-33723167D01*
X71587346Y-33656646D01*
X71602438Y-33587272D01*
X71620325Y-33562320D01*
X71763514Y-33406777D01*
X71763524Y-33406765D01*
X71777177Y-33385868D01*
X71886660Y-33218291D01*
X71977096Y-33012116D01*
X72032364Y-32793868D01*
X72050956Y-32569500D01*
X72032364Y-32345132D01*
X72008301Y-32250111D01*
X71977097Y-32126887D01*
X71977096Y-32126886D01*
X71977096Y-32126884D01*
X71886660Y-31920709D01*
X71847396Y-31860611D01*
X71763524Y-31732234D01*
X71763520Y-31732229D01*
X71611037Y-31566591D01*
X71529182Y-31502881D01*
X71433376Y-31428311D01*
X71235374Y-31321158D01*
X71235372Y-31321157D01*
X71235371Y-31321156D01*
X71022439Y-31248057D01*
X71022430Y-31248055D01*
X70978276Y-31240687D01*
X70800369Y-31211000D01*
X70575231Y-31211000D01*
X70427011Y-31235733D01*
X70353169Y-31248055D01*
X70353160Y-31248057D01*
X70140228Y-31321156D01*
X70140226Y-31321158D01*
X69942226Y-31428310D01*
X69942224Y-31428311D01*
X69764562Y-31566591D01*
X69612079Y-31732229D01*
X69612075Y-31732234D01*
X69488941Y-31920706D01*
X69398503Y-32126886D01*
X69398502Y-32126887D01*
X69343237Y-32345124D01*
X69343236Y-32345130D01*
X69343236Y-32345132D01*
X69324644Y-32569500D01*
X67345700Y-32569500D01*
X67345700Y-27879603D01*
X81980496Y-27879603D01*
X82001234Y-28050399D01*
X82055847Y-28194401D01*
X82062246Y-28211275D01*
X82159985Y-28352873D01*
X82288770Y-28466967D01*
X82288771Y-28466967D01*
X82288773Y-28466969D01*
X82369665Y-28509424D01*
X82441117Y-28546925D01*
X82441118Y-28546925D01*
X82441120Y-28546926D01*
X82599594Y-28585985D01*
X82608172Y-28588100D01*
X82608175Y-28588100D01*
X82780225Y-28588100D01*
X82780228Y-28588100D01*
X82947283Y-28546925D01*
X82973326Y-28533256D01*
X82984232Y-28527533D01*
X83042787Y-28513100D01*
X84269593Y-28513100D01*
X84269594Y-28513100D01*
X84391985Y-28488755D01*
X84444586Y-28466967D01*
X84503160Y-28442705D01*
X84506705Y-28441381D01*
X84507277Y-28440998D01*
X84507279Y-28440998D01*
X84549120Y-28413039D01*
X84611033Y-28371671D01*
X84699271Y-28283433D01*
X84706442Y-28276262D01*
X84706453Y-28276248D01*
X91239639Y-21742968D01*
X91301947Y-21708946D01*
X91372763Y-21714010D01*
X91429599Y-21756556D01*
X91444117Y-21781450D01*
X91450538Y-21796088D01*
X91450539Y-21796090D01*
X91573675Y-21984565D01*
X91573679Y-21984570D01*
X91726162Y-22150208D01*
X91741969Y-22162511D01*
X91903824Y-22288489D01*
X92101826Y-22395642D01*
X92101827Y-22395642D01*
X92101828Y-22395643D01*
X92213627Y-22434023D01*
X92314765Y-22468744D01*
X92536831Y-22505800D01*
X92536835Y-22505800D01*
X92761965Y-22505800D01*
X92761969Y-22505800D01*
X92984035Y-22468744D01*
X93196974Y-22395642D01*
X93394976Y-22288489D01*
X93572640Y-22150206D01*
X93725122Y-21984568D01*
X93848260Y-21796091D01*
X93938696Y-21589916D01*
X93993964Y-21371668D01*
X94012556Y-21147300D01*
X93993964Y-20922932D01*
X93986620Y-20893932D01*
X93938697Y-20704687D01*
X93938696Y-20704686D01*
X93938696Y-20704684D01*
X93848260Y-20498509D01*
X93834490Y-20477432D01*
X93725124Y-20310034D01*
X93725114Y-20310022D01*
X93581559Y-20154082D01*
X93550137Y-20090417D01*
X93558123Y-20019871D01*
X93602982Y-19964842D01*
X93630227Y-19950688D01*
X93745365Y-19907744D01*
X93862304Y-19820204D01*
X93949844Y-19703265D01*
X93949844Y-19703264D01*
X94000894Y-19566393D01*
X94007399Y-19505897D01*
X94007400Y-19505885D01*
X94007400Y-18861300D01*
X93080103Y-18861300D01*
X93115325Y-18800293D01*
X93149400Y-18673126D01*
X93149400Y-18541474D01*
X93115325Y-18414307D01*
X93080103Y-18353300D01*
X94007400Y-18353300D01*
X94007400Y-17708714D01*
X94007399Y-17708702D01*
X94000894Y-17648206D01*
X93949844Y-17511335D01*
X93949844Y-17511334D01*
X93862304Y-17394395D01*
X93745365Y-17306855D01*
X93608493Y-17255805D01*
X93547997Y-17249300D01*
X92903400Y-17249300D01*
X92903400Y-18176597D01*
X92842393Y-18141375D01*
X92715226Y-18107300D01*
X92583574Y-18107300D01*
X92456407Y-18141375D01*
X92395400Y-18176597D01*
X92395400Y-17249300D01*
X91750802Y-17249300D01*
X91690306Y-17255805D01*
X91553435Y-17306855D01*
X91553434Y-17306855D01*
X91436495Y-17394395D01*
X91348955Y-17511334D01*
X91348955Y-17511335D01*
X91297905Y-17648206D01*
X91291400Y-17708702D01*
X91291400Y-18353300D01*
X92218697Y-18353300D01*
X92183475Y-18414307D01*
X92149400Y-18541474D01*
X92149400Y-18673126D01*
X92183475Y-18800293D01*
X92218697Y-18861300D01*
X91291400Y-18861300D01*
X91291400Y-19505897D01*
X91297905Y-19566393D01*
X91348955Y-19703264D01*
X91348955Y-19703265D01*
X91436495Y-19820204D01*
X91553434Y-19907744D01*
X91668572Y-19950688D01*
X91725408Y-19993235D01*
X91750219Y-20059755D01*
X91735128Y-20129129D01*
X91717241Y-20154082D01*
X91622757Y-20256718D01*
X91598847Y-20282692D01*
X91587205Y-20295338D01*
X91526352Y-20331909D01*
X91494504Y-20336000D01*
X91054803Y-20336000D01*
X90963632Y-20354135D01*
X90932415Y-20360345D01*
X90932414Y-20360345D01*
X90932411Y-20360346D01*
X90840280Y-20398509D01*
X90840276Y-20398509D01*
X90813250Y-20409703D01*
X90806805Y-20414994D01*
X90771880Y-20438330D01*
X90747321Y-20454741D01*
X90713372Y-20477426D01*
X90713371Y-20477427D01*
X90713362Y-20477432D01*
X83981698Y-27209195D01*
X83919386Y-27243220D01*
X83892602Y-27246100D01*
X83042787Y-27246100D01*
X82984232Y-27231667D01*
X82947287Y-27212277D01*
X82947279Y-27212273D01*
X82780231Y-27171100D01*
X82780228Y-27171100D01*
X82608172Y-27171100D01*
X82608168Y-27171100D01*
X82441120Y-27212273D01*
X82441112Y-27212277D01*
X82288773Y-27292230D01*
X82288768Y-27292234D01*
X82159985Y-27406327D01*
X82062245Y-27547926D01*
X82001234Y-27708800D01*
X81980496Y-27879596D01*
X81980496Y-27879603D01*
X67345700Y-27879603D01*
X67345700Y-20560828D01*
X67345703Y-20486123D01*
X67345701Y-20486117D01*
X67345702Y-20486115D01*
X67345701Y-20486099D01*
X67330186Y-20408101D01*
X67330185Y-20408097D01*
X67316906Y-20341328D01*
X67316608Y-20339696D01*
X67316596Y-20339656D01*
X67316419Y-20339237D01*
X67288196Y-20271098D01*
X67260400Y-20203987D01*
X67259536Y-20201763D01*
X67259487Y-20201669D01*
X67258911Y-20200823D01*
X67225035Y-20150123D01*
X67225034Y-20150121D01*
X67176383Y-20077305D01*
X67176368Y-20077287D01*
X67158836Y-20059755D01*
X67133326Y-20034245D01*
X67133325Y-20034243D01*
X67133325Y-20034244D01*
X63933047Y-16833728D01*
X63899024Y-16771415D01*
X63896576Y-16734236D01*
X63913956Y-16524500D01*
X63895364Y-16300132D01*
X63840096Y-16081884D01*
X63749660Y-15875709D01*
X63707560Y-15811270D01*
X63626524Y-15687234D01*
X63626520Y-15687229D01*
X63474037Y-15521591D01*
X63392182Y-15457881D01*
X63296376Y-15383311D01*
X63263119Y-15365313D01*
X63212729Y-15315302D01*
X63197376Y-15245985D01*
X63221936Y-15179372D01*
X63263120Y-15143686D01*
X63296376Y-15125689D01*
X63474040Y-14987406D01*
X63626522Y-14821768D01*
X63749660Y-14633291D01*
X63840096Y-14427116D01*
X63895364Y-14208868D01*
X63913956Y-13984500D01*
X63895364Y-13760132D01*
X63840096Y-13541884D01*
X63749660Y-13335709D01*
X63649410Y-13182264D01*
X63626524Y-13147234D01*
X63626520Y-13147229D01*
X63474037Y-12981591D01*
X63392182Y-12917881D01*
X63296376Y-12843311D01*
X63098374Y-12736158D01*
X63098372Y-12736157D01*
X63098371Y-12736156D01*
X62885439Y-12663057D01*
X62885430Y-12663055D01*
X62841276Y-12655687D01*
X62663369Y-12626000D01*
X62438231Y-12626000D01*
X62290011Y-12650733D01*
X62216169Y-12663055D01*
X62216160Y-12663057D01*
X62003228Y-12736156D01*
X62003226Y-12736158D01*
X61805226Y-12843310D01*
X61805224Y-12843311D01*
X61627562Y-12981591D01*
X61475079Y-13147229D01*
X61475075Y-13147234D01*
X61351941Y-13335706D01*
X61261503Y-13541886D01*
X61261502Y-13541887D01*
X61206237Y-13760124D01*
X61206236Y-13760130D01*
X61206236Y-13760132D01*
X61187644Y-13984500D01*
X61191472Y-14030702D01*
X61206237Y-14208875D01*
X61261502Y-14427112D01*
X61261503Y-14427113D01*
X61351941Y-14633293D01*
X61475075Y-14821765D01*
X61475079Y-14821770D01*
X61627562Y-14987408D01*
X61682131Y-15029881D01*
X61805224Y-15125689D01*
X61838480Y-15143686D01*
X61888871Y-15193700D01*
X61904223Y-15263016D01*
X61879662Y-15329629D01*
X61838480Y-15365313D01*
X61805226Y-15383310D01*
X61805224Y-15383311D01*
X61627562Y-15521591D01*
X61475079Y-15687229D01*
X61475075Y-15687234D01*
X61351941Y-15875706D01*
X61261503Y-16081886D01*
X61261502Y-16081887D01*
X61206237Y-16300124D01*
X61206236Y-16300130D01*
X61206236Y-16300132D01*
X61187644Y-16524500D01*
X61205023Y-16734231D01*
X61206237Y-16748875D01*
X61261502Y-16967112D01*
X61261503Y-16967113D01*
X61351941Y-17173293D01*
X61475075Y-17361765D01*
X61475079Y-17361770D01*
X61575261Y-17470595D01*
X61612765Y-17511335D01*
X61627562Y-17527408D01*
X61667553Y-17558534D01*
X61805224Y-17665689D01*
X61826070Y-17676970D01*
X61838480Y-17683686D01*
X61888871Y-17733700D01*
X61904223Y-17803016D01*
X61879662Y-17869629D01*
X61838480Y-17905314D01*
X61805226Y-17923310D01*
X61805224Y-17923311D01*
X61627562Y-18061591D01*
X61475079Y-18227229D01*
X61375117Y-18380233D01*
X61321113Y-18426321D01*
X61294217Y-18434896D01*
X61276506Y-18438419D01*
X61259612Y-18441779D01*
X61257361Y-18442205D01*
X61236387Y-18445966D01*
X61202957Y-18451961D01*
X61197201Y-18453589D01*
X61191413Y-18455345D01*
X61140435Y-18476460D01*
X61138233Y-18477348D01*
X61086794Y-18497525D01*
X61081427Y-18500265D01*
X61076129Y-18503097D01*
X61030226Y-18533767D01*
X61028241Y-18535066D01*
X60981740Y-18564883D01*
X60977008Y-18568619D01*
X60972368Y-18572427D01*
X60933311Y-18611483D01*
X60931614Y-18613148D01*
X41295983Y-37520173D01*
X38826078Y-39898429D01*
X38735378Y-39985763D01*
X38672433Y-40018605D01*
X38647982Y-40021000D01*
X35365787Y-40021000D01*
X35307232Y-40006567D01*
X35270287Y-39987177D01*
X35270279Y-39987173D01*
X35103231Y-39946000D01*
X35103228Y-39946000D01*
X34931172Y-39946000D01*
X34931168Y-39946000D01*
X34764120Y-39987173D01*
X34764112Y-39987177D01*
X34611773Y-40067130D01*
X34611768Y-40067134D01*
X34482985Y-40181227D01*
X34385245Y-40322826D01*
X34324234Y-40483700D01*
X34303496Y-40654496D01*
X34303496Y-40654503D01*
X34324234Y-40825299D01*
X34372247Y-40951898D01*
X34385246Y-40986175D01*
X34482985Y-41127773D01*
X34611770Y-41241867D01*
X34611771Y-41241867D01*
X34611773Y-41241869D01*
X34653287Y-41263657D01*
X34764117Y-41321825D01*
X34764118Y-41321825D01*
X34764120Y-41321826D01*
X34922594Y-41360885D01*
X34931172Y-41363000D01*
X34931175Y-41363000D01*
X35103225Y-41363000D01*
X35103228Y-41363000D01*
X35270283Y-41321825D01*
X35296326Y-41308156D01*
X35307232Y-41302433D01*
X35365787Y-41288000D01*
X38947062Y-41288000D01*
X38949444Y-41288022D01*
X38952600Y-41288082D01*
X39004600Y-41289066D01*
X39004601Y-41289065D01*
X39004609Y-41289066D01*
X39004616Y-41289064D01*
X39010622Y-41288588D01*
X39016582Y-41288000D01*
X39016594Y-41288000D01*
X39070774Y-41277221D01*
X39073087Y-41276784D01*
X39105395Y-41270991D01*
X39127433Y-41267040D01*
X39127433Y-41267039D01*
X39127438Y-41267039D01*
X39127441Y-41267037D01*
X39133270Y-41265388D01*
X39138978Y-41263657D01*
X39138980Y-41263655D01*
X39138985Y-41263655D01*
X39179702Y-41246789D01*
X39189997Y-41242525D01*
X39192155Y-41241654D01*
X39243611Y-41221472D01*
X39243614Y-41221469D01*
X39248936Y-41218752D01*
X39254266Y-41215903D01*
X39254275Y-41215900D01*
X39300258Y-41185173D01*
X39302023Y-41184017D01*
X39348660Y-41154116D01*
X39348665Y-41154110D01*
X39348668Y-41154109D01*
X39353350Y-41150412D01*
X39358025Y-41146576D01*
X39358033Y-41146571D01*
X39397137Y-41107465D01*
X39398731Y-41105901D01*
X61356373Y-19963029D01*
X61419317Y-19930188D01*
X61490024Y-19936591D01*
X61536467Y-19968453D01*
X61603711Y-20041499D01*
X61627562Y-20067408D01*
X61640278Y-20077305D01*
X61805224Y-20205689D01*
X61838480Y-20223686D01*
X61888871Y-20273700D01*
X61904223Y-20343016D01*
X61879662Y-20409629D01*
X61838480Y-20445313D01*
X61805226Y-20463310D01*
X61805224Y-20463311D01*
X61627562Y-20601591D01*
X61475079Y-20767229D01*
X61475075Y-20767234D01*
X61351941Y-20955706D01*
X61261503Y-21161885D01*
X61236310Y-21261369D01*
X61203261Y-21319532D01*
X52215367Y-30307429D01*
X52127131Y-30395664D01*
X52127126Y-30395671D01*
X52057801Y-30499423D01*
X52010046Y-30614712D01*
X51985700Y-30737103D01*
X51985700Y-43107000D01*
X51965698Y-43175121D01*
X51912042Y-43221614D01*
X51859700Y-43233000D01*
X50120150Y-43233000D01*
X50059603Y-43239509D01*
X50059595Y-43239511D01*
X49922597Y-43290610D01*
X49922592Y-43290612D01*
X49805538Y-43378238D01*
X49717912Y-43495292D01*
X49717911Y-43495295D01*
X49673800Y-43613558D01*
X49631253Y-43670393D01*
X49564732Y-43695203D01*
X49495358Y-43680111D01*
X49463046Y-43654863D01*
X49402040Y-43588594D01*
X49402039Y-43588593D01*
X49402037Y-43588591D01*
X49282172Y-43495296D01*
X49224376Y-43450311D01*
X49026374Y-43343158D01*
X49026372Y-43343157D01*
X49026371Y-43343156D01*
X48813439Y-43270057D01*
X48813430Y-43270055D01*
X48753454Y-43260047D01*
X48591369Y-43233000D01*
X48366231Y-43233000D01*
X48228291Y-43256018D01*
X48144169Y-43270055D01*
X48144160Y-43270057D01*
X47931228Y-43343156D01*
X47931226Y-43343158D01*
X47733226Y-43450310D01*
X47733224Y-43450311D01*
X47555562Y-43588591D01*
X47403079Y-43754229D01*
X47314283Y-43890143D01*
X47260279Y-43936231D01*
X47189931Y-43945806D01*
X47125574Y-43915829D01*
X47103317Y-43890143D01*
X47014520Y-43754229D01*
X46889486Y-43618408D01*
X46862040Y-43588594D01*
X46862039Y-43588593D01*
X46862037Y-43588591D01*
X46742172Y-43495296D01*
X46684376Y-43450311D01*
X46486374Y-43343158D01*
X46486372Y-43343157D01*
X46486371Y-43343156D01*
X46273439Y-43270057D01*
X46273430Y-43270055D01*
X46213454Y-43260047D01*
X46051369Y-43233000D01*
X45826231Y-43233000D01*
X45688291Y-43256018D01*
X45604169Y-43270055D01*
X45604160Y-43270057D01*
X45391228Y-43343156D01*
X45391226Y-43343158D01*
X45193226Y-43450310D01*
X45193224Y-43450311D01*
X45015562Y-43588591D01*
X44863079Y-43754229D01*
X44774283Y-43890143D01*
X44720279Y-43936231D01*
X44649931Y-43945806D01*
X44585574Y-43915829D01*
X44563317Y-43890143D01*
X44474520Y-43754229D01*
X44349486Y-43618408D01*
X44322040Y-43588594D01*
X44322039Y-43588593D01*
X44322037Y-43588591D01*
X44202172Y-43495296D01*
X44144376Y-43450311D01*
X43946374Y-43343158D01*
X43946372Y-43343157D01*
X43946371Y-43343156D01*
X43733439Y-43270057D01*
X43733430Y-43270055D01*
X43673454Y-43260047D01*
X43511369Y-43233000D01*
X43286231Y-43233000D01*
X43148291Y-43256018D01*
X43064169Y-43270055D01*
X43064160Y-43270057D01*
X42851228Y-43343156D01*
X42851226Y-43343158D01*
X42653226Y-43450310D01*
X42653224Y-43450311D01*
X42475562Y-43588591D01*
X42323079Y-43754229D01*
X42234283Y-43890143D01*
X42180279Y-43936231D01*
X42109931Y-43945806D01*
X42045574Y-43915829D01*
X42023317Y-43890143D01*
X41934520Y-43754229D01*
X41809486Y-43618408D01*
X41782040Y-43588594D01*
X41782039Y-43588593D01*
X41782037Y-43588591D01*
X41662172Y-43495296D01*
X41604376Y-43450311D01*
X41406374Y-43343158D01*
X41406372Y-43343157D01*
X41406371Y-43343156D01*
X41193439Y-43270057D01*
X41193430Y-43270055D01*
X41133454Y-43260047D01*
X40971369Y-43233000D01*
X40746231Y-43233000D01*
X40608291Y-43256018D01*
X40524169Y-43270055D01*
X40524160Y-43270057D01*
X40311228Y-43343156D01*
X40311226Y-43343158D01*
X40113226Y-43450310D01*
X40113224Y-43450311D01*
X39935562Y-43588591D01*
X39783079Y-43754229D01*
X39694283Y-43890143D01*
X39640279Y-43936231D01*
X39569931Y-43945806D01*
X39505574Y-43915829D01*
X39483317Y-43890143D01*
X39394520Y-43754229D01*
X39269486Y-43618408D01*
X39242040Y-43588594D01*
X39242039Y-43588593D01*
X39242037Y-43588591D01*
X39122172Y-43495296D01*
X39064376Y-43450311D01*
X38866374Y-43343158D01*
X38866372Y-43343157D01*
X38866371Y-43343156D01*
X38653439Y-43270057D01*
X38653430Y-43270055D01*
X38593454Y-43260047D01*
X38431369Y-43233000D01*
X38206231Y-43233000D01*
X38068291Y-43256018D01*
X37984169Y-43270055D01*
X37984160Y-43270057D01*
X37771228Y-43343156D01*
X37771226Y-43343158D01*
X37573226Y-43450310D01*
X37573224Y-43450311D01*
X37395562Y-43588591D01*
X37243079Y-43754229D01*
X37154283Y-43890143D01*
X37100279Y-43936231D01*
X37029931Y-43945806D01*
X36965574Y-43915829D01*
X36943317Y-43890143D01*
X36854520Y-43754229D01*
X36729486Y-43618408D01*
X36702040Y-43588594D01*
X36702039Y-43588593D01*
X36702037Y-43588591D01*
X36582172Y-43495296D01*
X36524376Y-43450311D01*
X36326374Y-43343158D01*
X36326372Y-43343157D01*
X36326371Y-43343156D01*
X36113439Y-43270057D01*
X36113430Y-43270055D01*
X36053454Y-43260047D01*
X35891369Y-43233000D01*
X35666231Y-43233000D01*
X35528291Y-43256018D01*
X35444169Y-43270055D01*
X35444160Y-43270057D01*
X35231228Y-43343156D01*
X35231226Y-43343158D01*
X35033226Y-43450310D01*
X35033224Y-43450311D01*
X34855562Y-43588591D01*
X34703079Y-43754229D01*
X34614283Y-43890143D01*
X34560279Y-43936231D01*
X34489931Y-43945806D01*
X34425574Y-43915829D01*
X34403317Y-43890143D01*
X34314520Y-43754229D01*
X34189486Y-43618408D01*
X34162040Y-43588594D01*
X34162039Y-43588593D01*
X34162037Y-43588591D01*
X34042172Y-43495296D01*
X33984376Y-43450311D01*
X33786374Y-43343158D01*
X33786372Y-43343157D01*
X33786371Y-43343156D01*
X33573439Y-43270057D01*
X33573430Y-43270055D01*
X33513454Y-43260047D01*
X33351369Y-43233000D01*
X33126231Y-43233000D01*
X32988291Y-43256018D01*
X32904169Y-43270055D01*
X32904160Y-43270057D01*
X32691228Y-43343156D01*
X32691226Y-43343158D01*
X32493226Y-43450310D01*
X32493224Y-43450311D01*
X32315562Y-43588591D01*
X32163079Y-43754229D01*
X32074283Y-43890143D01*
X32020279Y-43936231D01*
X31949931Y-43945806D01*
X31885574Y-43915829D01*
X31863317Y-43890143D01*
X31774520Y-43754229D01*
X31649486Y-43618408D01*
X31622040Y-43588594D01*
X31622039Y-43588593D01*
X31622037Y-43588591D01*
X31502172Y-43495296D01*
X31444376Y-43450311D01*
X31246374Y-43343158D01*
X31246372Y-43343157D01*
X31246371Y-43343156D01*
X31033439Y-43270057D01*
X31033430Y-43270055D01*
X30973454Y-43260047D01*
X30811369Y-43233000D01*
X30586231Y-43233000D01*
X30448291Y-43256018D01*
X30364169Y-43270055D01*
X30364160Y-43270057D01*
X30151228Y-43343156D01*
X30151226Y-43343158D01*
X29953226Y-43450310D01*
X29953224Y-43450311D01*
X29775562Y-43588591D01*
X29623079Y-43754229D01*
X29534283Y-43890143D01*
X29480279Y-43936231D01*
X29409931Y-43945806D01*
X29345574Y-43915829D01*
X29323317Y-43890143D01*
X29234520Y-43754229D01*
X29109486Y-43618408D01*
X29082040Y-43588594D01*
X29082039Y-43588593D01*
X29082037Y-43588591D01*
X28962172Y-43495296D01*
X28904376Y-43450311D01*
X28706374Y-43343158D01*
X28706372Y-43343157D01*
X28706371Y-43343156D01*
X28493439Y-43270057D01*
X28493430Y-43270055D01*
X28433454Y-43260047D01*
X28271369Y-43233000D01*
X28046231Y-43233000D01*
X27908291Y-43256018D01*
X27824169Y-43270055D01*
X27824160Y-43270057D01*
X27611228Y-43343156D01*
X27611226Y-43343158D01*
X27413226Y-43450310D01*
X27413224Y-43450311D01*
X27235562Y-43588591D01*
X27083079Y-43754229D01*
X26994283Y-43890143D01*
X26940279Y-43936231D01*
X26869931Y-43945806D01*
X26805574Y-43915829D01*
X26783317Y-43890143D01*
X26694520Y-43754229D01*
X26569486Y-43618408D01*
X26542040Y-43588594D01*
X26542039Y-43588593D01*
X26542037Y-43588591D01*
X26422172Y-43495296D01*
X26364376Y-43450311D01*
X26166374Y-43343158D01*
X26166372Y-43343157D01*
X26166371Y-43343156D01*
X25953439Y-43270057D01*
X25953430Y-43270055D01*
X25893454Y-43260047D01*
X25731369Y-43233000D01*
X25506231Y-43233000D01*
X25368291Y-43256018D01*
X25284169Y-43270055D01*
X25284160Y-43270057D01*
X25071228Y-43343156D01*
X25071226Y-43343158D01*
X24873226Y-43450310D01*
X24873224Y-43450311D01*
X24695562Y-43588591D01*
X24543079Y-43754229D01*
X24454283Y-43890143D01*
X24400279Y-43936231D01*
X24329931Y-43945806D01*
X24265574Y-43915829D01*
X24243317Y-43890143D01*
X24154520Y-43754229D01*
X24029486Y-43618408D01*
X24002040Y-43588594D01*
X24002039Y-43588593D01*
X24002037Y-43588591D01*
X23882172Y-43495296D01*
X23824376Y-43450311D01*
X23626374Y-43343158D01*
X23626372Y-43343157D01*
X23626371Y-43343156D01*
X23413439Y-43270057D01*
X23413430Y-43270055D01*
X23353454Y-43260047D01*
X23191369Y-43233000D01*
X22966231Y-43233000D01*
X22828291Y-43256018D01*
X22744169Y-43270055D01*
X22744160Y-43270057D01*
X22531228Y-43343156D01*
X22531226Y-43343158D01*
X22333226Y-43450310D01*
X22333224Y-43450311D01*
X22155562Y-43588591D01*
X22003079Y-43754229D01*
X21914283Y-43890143D01*
X21860279Y-43936231D01*
X21789931Y-43945806D01*
X21725574Y-43915829D01*
X21703317Y-43890143D01*
X21614520Y-43754229D01*
X21489486Y-43618408D01*
X21462040Y-43588594D01*
X21462039Y-43588593D01*
X21462037Y-43588591D01*
X21342172Y-43495296D01*
X21284376Y-43450311D01*
X21086374Y-43343158D01*
X21086372Y-43343157D01*
X21086371Y-43343156D01*
X20873439Y-43270057D01*
X20873430Y-43270055D01*
X20813454Y-43260047D01*
X20651369Y-43233000D01*
X20426231Y-43233000D01*
X20288291Y-43256018D01*
X20204169Y-43270055D01*
X20204160Y-43270057D01*
X19991228Y-43343156D01*
X19991226Y-43343158D01*
X19793226Y-43450310D01*
X19793224Y-43450311D01*
X19615562Y-43588591D01*
X19463079Y-43754229D01*
X19374283Y-43890143D01*
X19320279Y-43936231D01*
X19249931Y-43945806D01*
X19185574Y-43915829D01*
X19163317Y-43890143D01*
X19074520Y-43754229D01*
X18949486Y-43618408D01*
X18922040Y-43588594D01*
X18922039Y-43588593D01*
X18922037Y-43588591D01*
X18802172Y-43495296D01*
X18744376Y-43450311D01*
X18546374Y-43343158D01*
X18546372Y-43343157D01*
X18546371Y-43343156D01*
X18333439Y-43270057D01*
X18333430Y-43270055D01*
X18273454Y-43260047D01*
X18111369Y-43233000D01*
X17886231Y-43233000D01*
X17748291Y-43256018D01*
X17664169Y-43270055D01*
X17664160Y-43270057D01*
X17451228Y-43343156D01*
X17451226Y-43343158D01*
X17253226Y-43450310D01*
X17253224Y-43450311D01*
X17075562Y-43588591D01*
X16923079Y-43754229D01*
X16834283Y-43890143D01*
X16780279Y-43936231D01*
X16709931Y-43945806D01*
X16645574Y-43915829D01*
X16623317Y-43890143D01*
X16534520Y-43754229D01*
X16409486Y-43618408D01*
X16382040Y-43588594D01*
X16382039Y-43588593D01*
X16382037Y-43588591D01*
X16262172Y-43495296D01*
X16204376Y-43450311D01*
X16006374Y-43343158D01*
X16006372Y-43343157D01*
X16006371Y-43343156D01*
X15793439Y-43270057D01*
X15793422Y-43270053D01*
X15709316Y-43256018D01*
X15645417Y-43225077D01*
X15608390Y-43164500D01*
X15609991Y-43093521D01*
X15640959Y-43042644D01*
X17622699Y-41060905D01*
X17685011Y-41026879D01*
X17711794Y-41024000D01*
X29120593Y-41024000D01*
X29120594Y-41024000D01*
X29242985Y-40999655D01*
X29358275Y-40951900D01*
X29462033Y-40882571D01*
X32799926Y-37544676D01*
X32850728Y-37516028D01*
X32850159Y-37514527D01*
X32857277Y-37511826D01*
X32857283Y-37511825D01*
X33009630Y-37431867D01*
X33138415Y-37317773D01*
X33236154Y-37176175D01*
X33297165Y-37015301D01*
X33317904Y-36844500D01*
X33297165Y-36673699D01*
X33236154Y-36512825D01*
X33138415Y-36371227D01*
X33009630Y-36257133D01*
X33009629Y-36257132D01*
X33009626Y-36257130D01*
X32857287Y-36177177D01*
X32857279Y-36177173D01*
X32690231Y-36136000D01*
X32690228Y-36136000D01*
X32518172Y-36136000D01*
X32518168Y-36136000D01*
X32351120Y-36177173D01*
X32351112Y-36177177D01*
X32198773Y-36257130D01*
X32198768Y-36257134D01*
X32069985Y-36371227D01*
X31972246Y-36512825D01*
X31972246Y-36512826D01*
X31972242Y-36512832D01*
X31940458Y-36596639D01*
X31911742Y-36641052D01*
X28832701Y-39720095D01*
X28770389Y-39754120D01*
X28743606Y-39757000D01*
X17334803Y-39757000D01*
X17261768Y-39771528D01*
X17212415Y-39781345D01*
X17212413Y-39781345D01*
X17212412Y-39781346D01*
X17097123Y-39829101D01*
X16993371Y-39898426D01*
X16993364Y-39898431D01*
X13316131Y-43575664D01*
X13316126Y-43575671D01*
X13263213Y-43654862D01*
X13246800Y-43679425D01*
X13227021Y-43727175D01*
X13199046Y-43794712D01*
X13174700Y-43917103D01*
X13174700Y-47317398D01*
X13174673Y-47380633D01*
X-5463752Y-47380633D01*
X-5415444Y-47275742D01*
X-5413728Y-47272167D01*
X-5350728Y-47146216D01*
X-5348856Y-47142622D01*
X-5346368Y-47138025D01*
X-5281722Y-47018568D01*
X-5279800Y-47015147D01*
X-5208562Y-46893089D01*
X-5206520Y-46889718D01*
X-5132433Y-46771712D01*
X-5128314Y-46765563D01*
X-5022917Y-46617804D01*
X-4885932Y-46425761D01*
X-4882128Y-46422033D01*
X-4872509Y-46407246D01*
X-4872507Y-46407246D01*
X-4871730Y-46406050D01*
X-4868710Y-46401619D01*
X-4867862Y-46400431D01*
X-4867863Y-46400430D01*
X-4857626Y-46386084D01*
X-4855544Y-46381175D01*
X-4837538Y-46353504D01*
X-4640654Y-46050935D01*
X-4635801Y-46045638D01*
X-4628598Y-46032871D01*
X-4624474Y-46026070D01*
X-4624446Y-46026028D01*
X-4624447Y-46026026D01*
X-4616447Y-46013735D01*
X-4613993Y-46006983D01*
X-4202064Y-45276911D01*
X-4196703Y-45270129D01*
X-4192163Y-45260249D01*
X-4187387Y-45250900D01*
X-4182051Y-45241447D01*
X-4179695Y-45233127D01*
X-3830772Y-44474183D01*
X-3826047Y-44467085D01*
X-3822193Y-44456519D01*
X-3818291Y-44447037D01*
X-3813608Y-44436855D01*
X-3811966Y-44428489D01*
X-3526607Y-43646465D01*
X-3522516Y-43639100D01*
X-3519437Y-43627985D01*
X-3516367Y-43618408D01*
X-3512421Y-43607599D01*
X-3511467Y-43599224D01*
X-3289593Y-42798731D01*
X-3286135Y-42791153D01*
X-3283887Y-42779595D01*
X-3281622Y-42769976D01*
X-3278485Y-42758662D01*
X-3278196Y-42750338D01*
X-3119743Y-41935960D01*
X-3116906Y-41928197D01*
X-3115537Y-41916325D01*
X-3114042Y-41906666D01*
X-3111766Y-41894975D01*
X-3112121Y-41886718D01*
X-3017061Y-41063089D01*
X-3014840Y-41055168D01*
X-3014383Y-41043143D01*
X-3013639Y-41033446D01*
X-3012261Y-41021532D01*
X-3013245Y-41013365D01*
X-2981558Y-40185119D01*
X-2979955Y-40177079D01*
X-2980418Y-40164967D01*
X-2980418Y-40155325D01*
X-2979956Y-40143257D01*
X-2981556Y-40135213D01*
X-2986477Y-40006567D01*
X-3013237Y-39306970D01*
X-3012250Y-39298801D01*
X-3013634Y-39286831D01*
X-3014377Y-39277143D01*
X-3014834Y-39265126D01*
X-3017055Y-39257198D01*
X-3112104Y-38433605D01*
X-3111747Y-38425357D01*
X-3114037Y-38413585D01*
X-3115526Y-38403959D01*
X-3116892Y-38392119D01*
X-3119722Y-38384363D01*
X-3272302Y-37600134D01*
X-3278172Y-37569970D01*
X-3278459Y-37561644D01*
X-3281606Y-37550292D01*
X-3283868Y-37540688D01*
X-3286110Y-37529163D01*
X-3289562Y-37521587D01*
X-3385298Y-37176175D01*
X-3511440Y-36721060D01*
X-3512391Y-36712697D01*
X-3516356Y-36701830D01*
X-3519415Y-36692285D01*
X-3522489Y-36681194D01*
X-3526571Y-36673836D01*
X-3526621Y-36673700D01*
X-3811935Y-35891778D01*
X-3813575Y-35883416D01*
X-3818283Y-35873174D01*
X-3822167Y-35863737D01*
X-3826017Y-35853188D01*
X-3830732Y-35846096D01*
X-4179665Y-35087113D01*
X-4182018Y-35078800D01*
X-4187391Y-35069276D01*
X-4192138Y-35059983D01*
X-4196673Y-35050117D01*
X-4202022Y-35043344D01*
X-4497303Y-34520000D01*
X-4613974Y-34313216D01*
X-4616427Y-34306465D01*
X-4624455Y-34294127D01*
X-4628586Y-34287318D01*
X-4635758Y-34274606D01*
X-4640604Y-34269309D01*
X-4775781Y-34061567D01*
X-4855584Y-33938923D01*
X-4857657Y-33934042D01*
X-4867858Y-33919741D01*
X-4867857Y-33919740D01*
X-4868711Y-33918543D01*
X-4871708Y-33914144D01*
X-4882015Y-33898305D01*
X-4885805Y-33894577D01*
X-5128615Y-33554168D01*
X-5132273Y-33548747D01*
X-5207337Y-33431036D01*
X-5209801Y-33427007D01*
X-5280844Y-33305810D01*
X-5283106Y-33301785D01*
X-5349564Y-33178248D01*
X-5351625Y-33174247D01*
X-5413556Y-33048562D01*
X-5415427Y-33044592D01*
X-5415460Y-33044519D01*
X-5472911Y-32916896D01*
X-5474582Y-32913007D01*
X-5527705Y-32783434D01*
X-5529219Y-32779562D01*
X-5576149Y-32653389D01*
X-5578055Y-32648264D01*
X-5579387Y-32644501D01*
X-5624026Y-32511596D01*
X-5625185Y-32507955D01*
X-5665672Y-32373683D01*
X-5666691Y-32370105D01*
X-5703105Y-32234629D01*
X-5704015Y-32231036D01*
X-5710840Y-32202295D01*
X-5736450Y-32094449D01*
X-5737226Y-32090961D01*
X-5740475Y-32075299D01*
X-5765754Y-31953433D01*
X-5766417Y-31949994D01*
X-5782380Y-31860612D01*
X-5791102Y-31811778D01*
X-5791654Y-31808423D01*
X-5812588Y-31669596D01*
X-5813040Y-31666308D01*
X-5829596Y-31532735D01*
X-5830303Y-31527033D01*
X-5830658Y-31523831D01*
X-5840015Y-31428310D01*
X-5843847Y-31389184D01*
X-5844447Y-31376901D01*
X-5844447Y-22816740D01*
X-5844129Y-22807789D01*
X-5839706Y-22745683D01*
X-5834396Y-22671130D01*
X-5834024Y-22666921D01*
X-5833987Y-22666576D01*
X-5819430Y-22528133D01*
X-5818921Y-22523971D01*
X-5818725Y-22522564D01*
X-5799685Y-22385651D01*
X-5799056Y-22381620D01*
X-5775217Y-22243901D01*
X-5774468Y-22239968D01*
X-5746099Y-22103100D01*
X-5745200Y-22099098D01*
X-5717510Y-21984565D01*
X-5712345Y-21963196D01*
X-5711317Y-21959231D01*
X-5675257Y-21828868D01*
X-5673994Y-21824300D01*
X-5672866Y-21820466D01*
X-5631141Y-21686713D01*
X-5629874Y-21682875D01*
X-5629632Y-21682180D01*
X-5583806Y-21550457D01*
X-5582432Y-21546704D01*
X-5532048Y-21415685D01*
X-5530586Y-21412058D01*
X-5475917Y-21282526D01*
X-5474309Y-21278882D01*
X-5415430Y-21151039D01*
X-5413751Y-21147544D01*
X-5350724Y-21021544D01*
X-5348882Y-21018003D01*
X-5281727Y-20893910D01*
X-5279745Y-20890389D01*
X-5208563Y-20768429D01*
X-5206520Y-20765053D01*
X-5132271Y-20646789D01*
X-5128168Y-20640663D01*
X-4885929Y-20301064D01*
X-4882126Y-20297337D01*
X-4872508Y-20282552D01*
X-4872507Y-20282552D01*
X-4871730Y-20281356D01*
X-4868710Y-20276925D01*
X-4867862Y-20275737D01*
X-4867863Y-20275736D01*
X-4857627Y-20261390D01*
X-4855546Y-20256483D01*
X-4640655Y-19926239D01*
X-4635802Y-19920943D01*
X-4628599Y-19908176D01*
X-4624475Y-19901375D01*
X-4624447Y-19901333D01*
X-4624448Y-19901331D01*
X-4616448Y-19889040D01*
X-4613994Y-19882288D01*
X-4202065Y-19152215D01*
X-4196704Y-19145433D01*
X-4192164Y-19135553D01*
X-4187388Y-19126204D01*
X-4182052Y-19116751D01*
X-4179696Y-19108431D01*
X-3830775Y-18349487D01*
X-3826050Y-18342389D01*
X-3822190Y-18331808D01*
X-3818293Y-18322339D01*
X-3813610Y-18312156D01*
X-3811968Y-18303790D01*
X-3526609Y-17521766D01*
X-3522518Y-17514401D01*
X-3519439Y-17503286D01*
X-3516369Y-17493709D01*
X-3512423Y-17482900D01*
X-3511469Y-17474525D01*
X-3289594Y-16674030D01*
X-3286136Y-16666452D01*
X-3283888Y-16654894D01*
X-3281623Y-16645275D01*
X-3278486Y-16633961D01*
X-3278197Y-16625637D01*
X-3119744Y-15811258D01*
X-3116907Y-15803495D01*
X-3115538Y-15791623D01*
X-3114043Y-15781964D01*
X-3111767Y-15770273D01*
X-3112122Y-15762016D01*
X-3017062Y-14938384D01*
X-3014841Y-14930463D01*
X-3014384Y-14918438D01*
X-3013640Y-14908741D01*
X-3012262Y-14896827D01*
X-3013246Y-14888660D01*
X-2981558Y-14060413D01*
X-2979955Y-14052373D01*
X-2980418Y-14040261D01*
X-2980418Y-14030619D01*
X-2979956Y-14018551D01*
X-2981556Y-14010507D01*
X-2999481Y-13541884D01*
X-3013237Y-13182262D01*
X-3012250Y-13174093D01*
X-3013634Y-13162123D01*
X-3014377Y-13152435D01*
X-3014834Y-13140417D01*
X-3017055Y-13132492D01*
X-3112104Y-12308898D01*
X-3111747Y-12300646D01*
X-3114033Y-12288899D01*
X-3115524Y-12279259D01*
X-3116890Y-12267419D01*
X-3119722Y-12259657D01*
X-3278170Y-11445263D01*
X-3278458Y-11436936D01*
X-3281605Y-11425584D01*
X-3283867Y-11415980D01*
X-3286109Y-11404455D01*
X-3289561Y-11396879D01*
X-3293646Y-11382140D01*
X-3511439Y-10596352D01*
X-3512390Y-10587989D01*
X-3516355Y-10577122D01*
X-3519414Y-10567577D01*
X-3522488Y-10556486D01*
X-3526570Y-10549128D01*
X-3811933Y-9767071D01*
X-3813573Y-9758712D01*
X-3818282Y-9748468D01*
X-3822166Y-9739031D01*
X-3826015Y-9728483D01*
X-3830730Y-9721392D01*
X-4179666Y-8962406D01*
X-4182021Y-8954085D01*
X-4187376Y-8944597D01*
X-4192137Y-8935279D01*
X-4196667Y-8925421D01*
X-4202020Y-8918643D01*
X-4613972Y-8188519D01*
X-4616425Y-8181767D01*
X-4624436Y-8169459D01*
X-4624435Y-8169458D01*
X-4624471Y-8169403D01*
X-4628593Y-8162606D01*
X-4635782Y-8149862D01*
X-4640633Y-8144566D01*
X-4855527Y-7814314D01*
X-4857605Y-7809412D01*
X-4868695Y-7793865D01*
X-4871718Y-7789431D01*
X-4872501Y-7788227D01*
X-4872502Y-7788226D01*
X-4882063Y-7773531D01*
X-4885859Y-7769804D01*
X-5129163Y-7428706D01*
X-5131254Y-7425679D01*
X-5210118Y-7307691D01*
X-5213203Y-7302836D01*
X-5278292Y-7195034D01*
X-5285410Y-7183246D01*
X-5288166Y-7178443D01*
X-5354829Y-7056141D01*
X-5357269Y-7051430D01*
X-5418660Y-6926560D01*
X-5420783Y-6922016D01*
X-5477155Y-6794736D01*
X-5478998Y-6790351D01*
X-5530588Y-6660849D01*
X-5532164Y-6656678D01*
X-5579192Y-6525210D01*
X-5580540Y-6521234D01*
X-5623253Y-6387989D01*
X-5624390Y-6384243D01*
X-5660407Y-6258585D01*
X-5663065Y-6249312D01*
X-5663990Y-6245897D01*
X-5698291Y-6111713D01*
X-5698847Y-6109538D01*
X-5699635Y-6106273D01*
X-5730882Y-5968867D01*
X-5731531Y-5965843D01*
X-5759464Y-5827378D01*
X-5759992Y-5824600D01*
X-5784852Y-5685310D01*
X-5785256Y-5682903D01*
X-5807183Y-5543701D01*
X-5807659Y-5540391D01*
X-5843390Y-5266271D01*
X-5844447Y-5249985D01*
X-5844447Y-3537996D01*
X-5844444Y-3537085D01*
X-5843864Y-3456910D01*
X-5841352Y-3109525D01*
X-5841079Y-3102117D01*
X-5841078Y-3102104D01*
X-5813164Y-2680929D01*
X-5812475Y-2673705D01*
X-5760411Y-2256463D01*
X-5759322Y-2249387D01*
X-5759304Y-2249291D01*
X-5717797Y-2022504D01*
X85808607Y-2022504D01*
X85827356Y-2296616D01*
X85827357Y-2296622D01*
X85827358Y-2296630D01*
X85854132Y-2425472D01*
X85883260Y-2565646D01*
X85883262Y-2565654D01*
X85948992Y-2750599D01*
X85975277Y-2824558D01*
X86096276Y-3058077D01*
X86101692Y-3068528D01*
X86130518Y-3109365D01*
X86260143Y-3293002D01*
X86447689Y-3493814D01*
X86660831Y-3667218D01*
X86895600Y-3809984D01*
X87147623Y-3919453D01*
X87412204Y-3993585D01*
X87507304Y-4006656D01*
X87684404Y-4030999D01*
X87684415Y-4031000D01*
X87959185Y-4031000D01*
X87959195Y-4030999D01*
X88088745Y-4013192D01*
X88231396Y-3993585D01*
X88495977Y-3919453D01*
X88748000Y-3809984D01*
X88982769Y-3667218D01*
X89195911Y-3493814D01*
X89383457Y-3293002D01*
X89541911Y-3068523D01*
X89668323Y-2824558D01*
X89694608Y-2750598D01*
X89736266Y-2693111D01*
X89802393Y-2667271D01*
X89871993Y-2681283D01*
X89916545Y-2720525D01*
X90036222Y-2891444D01*
X90036231Y-2891454D01*
X90202845Y-3058068D01*
X90202855Y-3058077D01*
X90395874Y-3193229D01*
X90395873Y-3193229D01*
X90471796Y-3228632D01*
X90609442Y-3292818D01*
X90783220Y-3339381D01*
X90837047Y-3353804D01*
X90837055Y-3353806D01*
X91071800Y-3374344D01*
X91306545Y-3353806D01*
X91534158Y-3292818D01*
X91747722Y-3193231D01*
X91867249Y-3109538D01*
X91940744Y-3058077D01*
X91940746Y-3058074D01*
X91940749Y-3058073D01*
X92107373Y-2891449D01*
X92154211Y-2824558D01*
X92242529Y-2698425D01*
X92242529Y-2698424D01*
X92242531Y-2698422D01*
X92342118Y-2484858D01*
X92403106Y-2257245D01*
X92423644Y-2022500D01*
X92403106Y-1787755D01*
X92342118Y-1560142D01*
X92242531Y-1346578D01*
X92242530Y-1346577D01*
X92242529Y-1346574D01*
X92107377Y-1153555D01*
X92107368Y-1153545D01*
X91940754Y-986931D01*
X91940744Y-986922D01*
X91747725Y-851770D01*
X91747726Y-851770D01*
X91534160Y-752183D01*
X91534156Y-752181D01*
X91306548Y-691194D01*
X91071800Y-670656D01*
X90837051Y-691194D01*
X90609443Y-752181D01*
X90609439Y-752183D01*
X90395874Y-851770D01*
X90202855Y-986922D01*
X90202845Y-986931D01*
X90036231Y-1153545D01*
X90036222Y-1153555D01*
X89916545Y-1324474D01*
X89861088Y-1368803D01*
X89790469Y-1376112D01*
X89727108Y-1344082D01*
X89694607Y-1294399D01*
X89668323Y-1220442D01*
X89541911Y-976477D01*
X89383457Y-751998D01*
X89195911Y-551186D01*
X88982769Y-377782D01*
X88748000Y-235016D01*
X88748001Y-235016D01*
X88747997Y-235014D01*
X88495980Y-125548D01*
X88495978Y-125547D01*
X88495977Y-125547D01*
X88363686Y-88481D01*
X88231393Y-51414D01*
X87959195Y-14000D01*
X87959185Y-14000D01*
X87684415Y-14000D01*
X87684404Y-14000D01*
X87412206Y-51414D01*
X87147619Y-125548D01*
X86895602Y-235014D01*
X86660828Y-377784D01*
X86447686Y-551188D01*
X86260143Y-751998D01*
X86101692Y-976471D01*
X85975277Y-1220441D01*
X85883262Y-1479345D01*
X85883260Y-1479353D01*
X85827357Y-1748377D01*
X85827356Y-1748383D01*
X85808607Y-2022495D01*
X85808607Y-2022504D01*
X-5717797Y-2022504D01*
X-5683812Y-1836820D01*
X-5682361Y-1829980D01*
X-5584079Y-1422683D01*
X-5582285Y-1416046D01*
X-5580397Y-1409750D01*
X-5461938Y-1014738D01*
X-5459842Y-1008372D01*
X-5318118Y-613729D01*
X-5315732Y-607595D01*
X-5313723Y-602804D01*
X-5153317Y-220273D01*
X-5150689Y-214432D01*
X-4968297Y164831D01*
X-4965434Y170422D01*
X-4763737Y540992D01*
X-4760643Y546355D01*
X-4760499Y546591D01*
X-4540383Y907460D01*
X-4537108Y912549D01*
X-4298956Y1263550D01*
X-4295469Y1268432D01*
X-4290580Y1274946D01*
X-4040170Y1608579D01*
X-4036547Y1613177D01*
X-3764773Y1941821D01*
X-3760946Y1946234D01*
X-3473469Y2262609D01*
X-3469453Y2266829D01*
X-3469250Y2267032D01*
X-3166994Y2570243D01*
X-3162851Y2574214D01*
X-2846018Y2864073D01*
X-2841739Y2867812D01*
X-2511341Y3143337D01*
X-2506849Y3146911D01*
X-2163659Y3407368D01*
X-2159023Y3410721D01*
X-1803690Y3655480D01*
X-1798923Y3658605D01*
X-1432128Y3886998D01*
X-1427143Y3889942D01*
X-1049816Y4101161D01*
X-1044586Y4103930D01*
X-657333Y4297365D01*
X-651947Y4299897D01*
X-255432Y4474893D01*
X-249863Y4477191D01*
X155100Y4633026D01*
X160880Y4635089D01*
X573590Y4771097D01*
X579546Y4772897D01*
X999326Y4888416D01*
X1005472Y4889941D01*
X1431574Y4984286D01*
X1437920Y4985520D01*
X1869619Y5058016D01*
X1876084Y5058929D01*
X2312661Y5108907D01*
X2319287Y5109488D01*
X2760129Y5136283D01*
X2766907Y5136511D01*
X3202865Y5139388D01*
X3203696Y5139390D01*
X3210490Y5139390D01*
X15209424Y5139390D01*
X15217640Y5139123D01*
G37*
%TD.AperFunction*%
%TD*%
M02*
