G04 #@! TF.GenerationSoftware,KiCad,Pcbnew,5.99.0-unknown-5127d6c77~91~ubuntu20.04.1*
G04 #@! TF.CreationDate,2020-10-08T17:45:23+09:00*
G04 #@! TF.ProjectId,M5_board_bGeigieRaku V1.9,4d355f62-6f61-4726-945f-624765696769,rev?*
G04 #@! TF.SameCoordinates,Original*
G04 #@! TF.FileFunction,Soldermask,Bot*
G04 #@! TF.FilePolarity,Negative*
%FSLAX46Y46*%
G04 Gerber Fmt 4.6, Leading zero omitted, Abs format (unit mm)*
G04 Created by KiCad (PCBNEW 5.99.0-unknown-5127d6c77~91~ubuntu20.04.1) date 2020-10-08 17:45:23*
%MOMM*%
%LPD*%
G01*
G04 APERTURE LIST*
%ADD10C,1.879600*%
%ADD11C,3.200000*%
%ADD12R,1.700000X1.700000*%
%ADD13O,1.700000X1.700000*%
%ADD14C,3.203200*%
%ADD15C,2.743200*%
%ADD16R,12.000000X12.000000*%
G04 APERTURE END LIST*
D10*
X180823000Y-82244000D03*
X190983000Y-82244000D03*
D11*
X90652600Y-125805000D03*
D12*
X210033000Y-105485000D03*
D13*
X207493000Y-105485000D03*
D12*
X171933000Y-87070000D03*
D13*
X171933000Y-84530000D03*
X171933000Y-81990000D03*
X171933000Y-79450000D03*
D10*
X186744000Y-76148000D03*
X183744000Y-76148000D03*
X180744000Y-76148000D03*
D14*
X189994000Y-76148000D03*
X177494000Y-76148000D03*
D10*
X200762000Y-86054000D03*
X198222000Y-86054000D03*
D11*
X201270000Y-103580000D03*
X176759000Y-109041000D03*
D12*
X210033000Y-90499000D03*
D13*
X207493000Y-90499000D03*
D12*
X156566000Y-114121000D03*
D13*
X159106000Y-114121000D03*
X161646000Y-114121000D03*
X164186000Y-114121000D03*
X166726000Y-114121000D03*
X169266000Y-114121000D03*
X171806000Y-114121000D03*
X174346000Y-114121000D03*
X176886000Y-114121000D03*
X179426000Y-114121000D03*
X181966000Y-114121000D03*
X184506000Y-114121000D03*
X187046000Y-114121000D03*
X189586000Y-114121000D03*
X192126000Y-114121000D03*
X194666000Y-114121000D03*
X197206000Y-114121000D03*
X199746000Y-114121000D03*
D11*
X172476000Y-125664000D03*
D12*
X156439000Y-119328000D03*
D13*
X158979000Y-119328000D03*
X161519000Y-119328000D03*
X164059000Y-119328000D03*
X166599000Y-119328000D03*
X169139000Y-119328000D03*
X171679000Y-119328000D03*
X174219000Y-119328000D03*
X176759000Y-119328000D03*
X179299000Y-119328000D03*
X181839000Y-119328000D03*
X184379000Y-119328000D03*
X186919000Y-119328000D03*
X189459000Y-119328000D03*
X191999000Y-119328000D03*
X194539000Y-119328000D03*
X197079000Y-119328000D03*
X199619000Y-119328000D03*
D10*
X190983000Y-86054000D03*
X180823000Y-86054000D03*
D12*
X156439000Y-116788000D03*
D13*
X158979000Y-116788000D03*
X161519000Y-116788000D03*
X164059000Y-116788000D03*
X166599000Y-116788000D03*
X169139000Y-116788000D03*
X171679000Y-116788000D03*
X174219000Y-116788000D03*
X176759000Y-116788000D03*
X179299000Y-116788000D03*
X181839000Y-116788000D03*
X184379000Y-116788000D03*
X186919000Y-116788000D03*
X189459000Y-116788000D03*
X191999000Y-116788000D03*
X194539000Y-116788000D03*
X197079000Y-116788000D03*
X199619000Y-116788000D03*
D12*
X156439000Y-121840000D03*
D13*
X158979000Y-121840000D03*
X161519000Y-121840000D03*
X164059000Y-121840000D03*
X166599000Y-121840000D03*
X169139000Y-121840000D03*
X171679000Y-121840000D03*
X174219000Y-121840000D03*
X176759000Y-121840000D03*
X179299000Y-121840000D03*
X181839000Y-121840000D03*
X184379000Y-121840000D03*
X186919000Y-121840000D03*
X189459000Y-121840000D03*
X191999000Y-121840000D03*
X194539000Y-121840000D03*
X197079000Y-121840000D03*
X199619000Y-121840000D03*
D11*
X209052000Y-125664000D03*
D12*
X185014000Y-90499000D03*
D13*
X182474000Y-90499000D03*
D12*
X185014000Y-105485000D03*
D13*
X182474000Y-105485000D03*
D11*
X90433800Y-71815500D03*
D12*
X139564000Y-119114000D03*
D13*
X139564000Y-116574000D03*
X137024000Y-119114000D03*
X137024000Y-116574000D03*
X134484000Y-119114000D03*
X134484000Y-116574000D03*
X131944000Y-119114000D03*
X131944000Y-116574000D03*
X129404000Y-119114000D03*
X129404000Y-116574000D03*
X126864000Y-119114000D03*
X126864000Y-116574000D03*
X124324000Y-119114000D03*
X124324000Y-116574000D03*
X121784000Y-119114000D03*
X121784000Y-116574000D03*
X119244000Y-119114000D03*
X119244000Y-116574000D03*
X116704000Y-119114000D03*
X116704000Y-116574000D03*
X114164000Y-119114000D03*
X114164000Y-116574000D03*
X111624000Y-119114000D03*
X111624000Y-116574000D03*
X109084000Y-119114000D03*
X109084000Y-116574000D03*
X106544000Y-119114000D03*
X106544000Y-116574000D03*
X104004000Y-119114000D03*
X104004000Y-116574000D03*
D15*
X145750000Y-76646000D03*
D16*
X149178000Y-76646000D03*
X203978000Y-76856000D03*
D15*
X207006000Y-76666000D03*
X200258000Y-79206000D03*
X200258000Y-74126000D03*
X152498000Y-79186000D03*
X152498000Y-74106000D03*
D12*
X207112000Y-114502000D03*
D13*
X207112000Y-111962000D03*
X207112000Y-109422000D03*
M02*
