G04 #@! TF.GenerationSoftware,KiCad,Pcbnew,5.99.0-unknown-a61ea1f~89~ubuntu20.04.1*
G04 #@! TF.CreationDate,2020-07-29T14:39:46+09:00*
G04 #@! TF.ProjectId,bGeigieRaku V2,62476569-6769-4655-9261-6b752056322e,rev?*
G04 #@! TF.SameCoordinates,Original*
G04 #@! TF.FileFunction,Legend,Top*
G04 #@! TF.FilePolarity,Positive*
%FSLAX46Y46*%
G04 Gerber Fmt 4.6, Leading zero omitted, Abs format (unit mm)*
G04 Created by KiCad (PCBNEW 5.99.0-unknown-a61ea1f~89~ubuntu20.04.1) date 2020-07-29 14:39:46*
%MOMM*%
%LPD*%
G01*
G04 APERTURE LIST*
%ADD10C,0.200000*%
%ADD11C,1.000000*%
%ADD12C,0.150000*%
%ADD13C,0.300000*%
%ADD14C,0.100000*%
%ADD15C,0.120650*%
%ADD16C,0.096520*%
%ADD17C,0.120000*%
%ADD18C,0.203200*%
%ADD19C,0.152400*%
%ADD20C,0.304800*%
%ADD21C,0.127000*%
G04 APERTURE END LIST*
D10*
X180949600Y-117296000D02*
X168249600Y-117296000D01*
D11*
X166725600Y-112978000D02*
X166725600Y-122122000D01*
X164185600Y-112978000D02*
X164185600Y-122376000D01*
D12*
X197641771Y-101626714D02*
X197689390Y-101483857D01*
X197737009Y-101436238D01*
X197832247Y-101388619D01*
X197975104Y-101388619D01*
X198070342Y-101436238D01*
X198117961Y-101483857D01*
X198165580Y-101579095D01*
X198165580Y-101960047D01*
X197165580Y-101960047D01*
X197165580Y-101626714D01*
X197213200Y-101531476D01*
X197260819Y-101483857D01*
X197356057Y-101436238D01*
X197451295Y-101436238D01*
X197546533Y-101483857D01*
X197594152Y-101531476D01*
X197641771Y-101626714D01*
X197641771Y-101960047D01*
X198165580Y-100531476D02*
X197641771Y-100531476D01*
X197546533Y-100579095D01*
X197498914Y-100674333D01*
X197498914Y-100864809D01*
X197546533Y-100960047D01*
X198117961Y-100531476D02*
X198165580Y-100626714D01*
X198165580Y-100864809D01*
X198117961Y-100960047D01*
X198022723Y-101007666D01*
X197927485Y-101007666D01*
X197832247Y-100960047D01*
X197784628Y-100864809D01*
X197784628Y-100626714D01*
X197737009Y-100531476D01*
X197498914Y-100198142D02*
X197498914Y-99817190D01*
X197165580Y-100055285D02*
X198022723Y-100055285D01*
X198117961Y-100007666D01*
X198165580Y-99912428D01*
X198165580Y-99817190D01*
X197498914Y-99626714D02*
X197498914Y-99245761D01*
X197165580Y-99483857D02*
X198022723Y-99483857D01*
X198117961Y-99436238D01*
X198165580Y-99341000D01*
X198165580Y-99245761D01*
X198117961Y-98531476D02*
X198165580Y-98626714D01*
X198165580Y-98817190D01*
X198117961Y-98912428D01*
X198022723Y-98960047D01*
X197641771Y-98960047D01*
X197546533Y-98912428D01*
X197498914Y-98817190D01*
X197498914Y-98626714D01*
X197546533Y-98531476D01*
X197641771Y-98483857D01*
X197737009Y-98483857D01*
X197832247Y-98960047D01*
X198165580Y-98055285D02*
X197498914Y-98055285D01*
X197689390Y-98055285D02*
X197594152Y-98007666D01*
X197546533Y-97960047D01*
X197498914Y-97864809D01*
X197498914Y-97769571D01*
X197498914Y-97531476D02*
X198165580Y-97293380D01*
X197498914Y-97055285D02*
X198165580Y-97293380D01*
X198403676Y-97388619D01*
X198451295Y-97436238D01*
X198498914Y-97531476D01*
X198117961Y-95483857D02*
X198165580Y-95579095D01*
X198165580Y-95769571D01*
X198117961Y-95864809D01*
X198070342Y-95912428D01*
X197975104Y-95960047D01*
X197689390Y-95960047D01*
X197594152Y-95912428D01*
X197546533Y-95864809D01*
X197498914Y-95769571D01*
X197498914Y-95579095D01*
X197546533Y-95483857D01*
X198165580Y-95055285D02*
X197165580Y-95055285D01*
X198165580Y-94626714D02*
X197641771Y-94626714D01*
X197546533Y-94674333D01*
X197498914Y-94769571D01*
X197498914Y-94912428D01*
X197546533Y-95007666D01*
X197594152Y-95055285D01*
X198165580Y-93721952D02*
X197641771Y-93721952D01*
X197546533Y-93769571D01*
X197498914Y-93864809D01*
X197498914Y-94055285D01*
X197546533Y-94150523D01*
X198117961Y-93721952D02*
X198165580Y-93817190D01*
X198165580Y-94055285D01*
X198117961Y-94150523D01*
X198022723Y-94198142D01*
X197927485Y-94198142D01*
X197832247Y-94150523D01*
X197784628Y-94055285D01*
X197784628Y-93817190D01*
X197737009Y-93721952D01*
X198165580Y-93245761D02*
X197498914Y-93245761D01*
X197689390Y-93245761D02*
X197594152Y-93198142D01*
X197546533Y-93150523D01*
X197498914Y-93055285D01*
X197498914Y-92960047D01*
X197498914Y-92198142D02*
X198308438Y-92198142D01*
X198403676Y-92245761D01*
X198451295Y-92293380D01*
X198498914Y-92388619D01*
X198498914Y-92531476D01*
X198451295Y-92626714D01*
X198117961Y-92198142D02*
X198165580Y-92293380D01*
X198165580Y-92483857D01*
X198117961Y-92579095D01*
X198070342Y-92626714D01*
X197975104Y-92674333D01*
X197689390Y-92674333D01*
X197594152Y-92626714D01*
X197546533Y-92579095D01*
X197498914Y-92483857D01*
X197498914Y-92293380D01*
X197546533Y-92198142D01*
X198117961Y-91341000D02*
X198165580Y-91436238D01*
X198165580Y-91626714D01*
X198117961Y-91721952D01*
X198022723Y-91769571D01*
X197641771Y-91769571D01*
X197546533Y-91721952D01*
X197498914Y-91626714D01*
X197498914Y-91436238D01*
X197546533Y-91341000D01*
X197641771Y-91293380D01*
X197737009Y-91293380D01*
X197832247Y-91769571D01*
X198165580Y-90864809D02*
X197498914Y-90864809D01*
X197689390Y-90864809D02*
X197594152Y-90817190D01*
X197546533Y-90769571D01*
X197498914Y-90674333D01*
X197498914Y-90579095D01*
D13*
X173925028Y-69230571D02*
X174210742Y-69230571D01*
X174353600Y-69302000D01*
X174496457Y-69444857D01*
X174567885Y-69730571D01*
X174567885Y-70230571D01*
X174496457Y-70516285D01*
X174353600Y-70659142D01*
X174210742Y-70730571D01*
X173925028Y-70730571D01*
X173782171Y-70659142D01*
X173639314Y-70516285D01*
X173567885Y-70230571D01*
X173567885Y-69730571D01*
X173639314Y-69444857D01*
X173782171Y-69302000D01*
X173925028Y-69230571D01*
X175210742Y-70730571D02*
X175210742Y-69230571D01*
X176067885Y-70730571D01*
X176067885Y-69230571D01*
X190443028Y-68976571D02*
X190728742Y-68976571D01*
X190871600Y-69048000D01*
X191014457Y-69190857D01*
X191085885Y-69476571D01*
X191085885Y-69976571D01*
X191014457Y-70262285D01*
X190871600Y-70405142D01*
X190728742Y-70476571D01*
X190443028Y-70476571D01*
X190300171Y-70405142D01*
X190157314Y-70262285D01*
X190085885Y-69976571D01*
X190085885Y-69476571D01*
X190157314Y-69190857D01*
X190300171Y-69048000D01*
X190443028Y-68976571D01*
X192228742Y-69690857D02*
X191728742Y-69690857D01*
X191728742Y-70476571D02*
X191728742Y-68976571D01*
X192443028Y-68976571D01*
X193514457Y-69690857D02*
X193014457Y-69690857D01*
X193014457Y-70476571D02*
X193014457Y-68976571D01*
X193728742Y-68976571D01*
D12*
X166034980Y-95880523D02*
X165034980Y-95880523D01*
X165749266Y-95547190D01*
X165034980Y-95213857D01*
X166034980Y-95213857D01*
X165034980Y-94261476D02*
X165034980Y-94737666D01*
X165511171Y-94785285D01*
X165463552Y-94737666D01*
X165415933Y-94642428D01*
X165415933Y-94404333D01*
X165463552Y-94309095D01*
X165511171Y-94261476D01*
X165606409Y-94213857D01*
X165844504Y-94213857D01*
X165939742Y-94261476D01*
X165987361Y-94309095D01*
X166034980Y-94404333D01*
X166034980Y-94642428D01*
X165987361Y-94737666D01*
X165939742Y-94785285D01*
D10*
X180695600Y-108660000D02*
X180695600Y-113994000D01*
X167995600Y-108660000D02*
X180695600Y-108660000D01*
X167995600Y-113994000D02*
X167995600Y-108660000D01*
D11*
X161645600Y-112978000D02*
X161645600Y-122376000D01*
D12*
X178796600Y-110789142D02*
X178760885Y-110860571D01*
X178760885Y-110967714D01*
X178796600Y-111074857D01*
X178868028Y-111146285D01*
X178939457Y-111182000D01*
X179082314Y-111217714D01*
X179189457Y-111217714D01*
X179332314Y-111182000D01*
X179403742Y-111146285D01*
X179475171Y-111074857D01*
X179510885Y-110967714D01*
X179510885Y-110896285D01*
X179475171Y-110789142D01*
X179439457Y-110753428D01*
X179189457Y-110753428D01*
X179189457Y-110896285D01*
X179510885Y-110432000D02*
X178760885Y-110432000D01*
X178760885Y-109932000D02*
X178760885Y-109789142D01*
X178796600Y-109717714D01*
X178868028Y-109646285D01*
X179010885Y-109610571D01*
X179260885Y-109610571D01*
X179403742Y-109646285D01*
X179475171Y-109717714D01*
X179510885Y-109789142D01*
X179510885Y-109932000D01*
X179475171Y-110003428D01*
X179403742Y-110074857D01*
X179260885Y-110110571D01*
X179010885Y-110110571D01*
X178868028Y-110074857D01*
X178796600Y-110003428D01*
X178760885Y-109932000D01*
X178760885Y-109146285D02*
X178760885Y-109074857D01*
X178796600Y-109003428D01*
X178832314Y-108967714D01*
X178903742Y-108932000D01*
X179046600Y-108896285D01*
X179225171Y-108896285D01*
X179368028Y-108932000D01*
X179439457Y-108967714D01*
X179475171Y-109003428D01*
X179510885Y-109074857D01*
X179510885Y-109146285D01*
X179475171Y-109217714D01*
X179439457Y-109253428D01*
X179368028Y-109289142D01*
X179225171Y-109324857D01*
X179046600Y-109324857D01*
X178903742Y-109289142D01*
X178832314Y-109253428D01*
X178796600Y-109217714D01*
X178760885Y-109146285D01*
X176935171Y-110949857D02*
X176970885Y-110842714D01*
X176970885Y-110664142D01*
X176935171Y-110592714D01*
X176899457Y-110557000D01*
X176828028Y-110521285D01*
X176756600Y-110521285D01*
X176685171Y-110557000D01*
X176649457Y-110592714D01*
X176613742Y-110664142D01*
X176578028Y-110807000D01*
X176542314Y-110878428D01*
X176506600Y-110914142D01*
X176435171Y-110949857D01*
X176363742Y-110949857D01*
X176292314Y-110914142D01*
X176256600Y-110878428D01*
X176220885Y-110807000D01*
X176220885Y-110628428D01*
X176256600Y-110521285D01*
X176899457Y-109771285D02*
X176935171Y-109807000D01*
X176970885Y-109914142D01*
X176970885Y-109985571D01*
X176935171Y-110092714D01*
X176863742Y-110164142D01*
X176792314Y-110199857D01*
X176649457Y-110235571D01*
X176542314Y-110235571D01*
X176399457Y-110199857D01*
X176328028Y-110164142D01*
X176256600Y-110092714D01*
X176220885Y-109985571D01*
X176220885Y-109914142D01*
X176256600Y-109807000D01*
X176292314Y-109771285D01*
X176970885Y-109092714D02*
X176970885Y-109449857D01*
X176220885Y-109449857D01*
X174395171Y-110967714D02*
X174430885Y-110860571D01*
X174430885Y-110682000D01*
X174395171Y-110610571D01*
X174359457Y-110574857D01*
X174288028Y-110539142D01*
X174216600Y-110539142D01*
X174145171Y-110574857D01*
X174109457Y-110610571D01*
X174073742Y-110682000D01*
X174038028Y-110824857D01*
X174002314Y-110896285D01*
X173966600Y-110932000D01*
X173895171Y-110967714D01*
X173823742Y-110967714D01*
X173752314Y-110932000D01*
X173716600Y-110896285D01*
X173680885Y-110824857D01*
X173680885Y-110646285D01*
X173716600Y-110539142D01*
X174430885Y-110217714D02*
X173680885Y-110217714D01*
X173680885Y-110039142D01*
X173716600Y-109932000D01*
X173788028Y-109860571D01*
X173859457Y-109824857D01*
X174002314Y-109789142D01*
X174109457Y-109789142D01*
X174252314Y-109824857D01*
X174323742Y-109860571D01*
X174395171Y-109932000D01*
X174430885Y-110039142D01*
X174430885Y-110217714D01*
X174216600Y-109503428D02*
X174216600Y-109146285D01*
X174430885Y-109574857D02*
X173680885Y-109324857D01*
X174430885Y-109074857D01*
X171890885Y-110539141D02*
X171533742Y-110789141D01*
X171890885Y-110967713D02*
X171140885Y-110967713D01*
X171140885Y-110681999D01*
X171176600Y-110610570D01*
X171212314Y-110574856D01*
X171283742Y-110539141D01*
X171390885Y-110539141D01*
X171462314Y-110574856D01*
X171498028Y-110610570D01*
X171533742Y-110681999D01*
X171533742Y-110967713D01*
X171140885Y-110289141D02*
X171890885Y-109789141D01*
X171140885Y-109789141D02*
X171890885Y-110289141D01*
X171890885Y-109110570D02*
X171890885Y-109539141D01*
X171890885Y-109324856D02*
X171140885Y-109324856D01*
X171248028Y-109396284D01*
X171319457Y-109467713D01*
X171355171Y-109539141D01*
X168600885Y-110985570D02*
X168600885Y-110556999D01*
X169350885Y-110771284D02*
X168600885Y-110771284D01*
X168600885Y-110378427D02*
X169350885Y-109878427D01*
X168600885Y-109878427D02*
X169350885Y-110378427D01*
X169350885Y-109199856D02*
X169350885Y-109628427D01*
X169350885Y-109414141D02*
X168600885Y-109414141D01*
X168708028Y-109485570D01*
X168779457Y-109556999D01*
X168815171Y-109628427D01*
X166568885Y-125539143D02*
X166568885Y-125896286D01*
X166926028Y-125932000D01*
X166890314Y-125896286D01*
X166854600Y-125824857D01*
X166854600Y-125646286D01*
X166890314Y-125574857D01*
X166926028Y-125539143D01*
X166997457Y-125503428D01*
X167176028Y-125503428D01*
X167247457Y-125539143D01*
X167283171Y-125574857D01*
X167318885Y-125646286D01*
X167318885Y-125824857D01*
X167283171Y-125896286D01*
X167247457Y-125932000D01*
X166568885Y-125289143D02*
X167318885Y-125039143D01*
X166568885Y-124789143D01*
X164028885Y-127039142D02*
X164028885Y-126574857D01*
X164314600Y-126824857D01*
X164314600Y-126717714D01*
X164350314Y-126646285D01*
X164386028Y-126610571D01*
X164457457Y-126574857D01*
X164636028Y-126574857D01*
X164707457Y-126610571D01*
X164743171Y-126646285D01*
X164778885Y-126717714D01*
X164778885Y-126932000D01*
X164743171Y-127003428D01*
X164707457Y-127039142D01*
X164707457Y-126253428D02*
X164743171Y-126217714D01*
X164778885Y-126253428D01*
X164743171Y-126289142D01*
X164707457Y-126253428D01*
X164778885Y-126253428D01*
X164028885Y-125967714D02*
X164028885Y-125503428D01*
X164314600Y-125753428D01*
X164314600Y-125646285D01*
X164350314Y-125574857D01*
X164386028Y-125539142D01*
X164457457Y-125503428D01*
X164636028Y-125503428D01*
X164707457Y-125539142D01*
X164743171Y-125574857D01*
X164778885Y-125646285D01*
X164778885Y-125860571D01*
X164743171Y-125932000D01*
X164707457Y-125967714D01*
X164028885Y-125289142D02*
X164778885Y-125039142D01*
X164028885Y-124789142D01*
X161524600Y-126431999D02*
X161488885Y-126503428D01*
X161488885Y-126610571D01*
X161524600Y-126717713D01*
X161596028Y-126789142D01*
X161667457Y-126824856D01*
X161810314Y-126860571D01*
X161917457Y-126860571D01*
X162060314Y-126824856D01*
X162131742Y-126789142D01*
X162203171Y-126717713D01*
X162238885Y-126610571D01*
X162238885Y-126539142D01*
X162203171Y-126431999D01*
X162167457Y-126396285D01*
X161917457Y-126396285D01*
X161917457Y-126539142D01*
X162238885Y-126074856D02*
X161488885Y-126074856D01*
X162238885Y-125646285D01*
X161488885Y-125646285D01*
X162238885Y-125289142D02*
X161488885Y-125289142D01*
X161488885Y-125110571D01*
X161524600Y-125003428D01*
X161596028Y-124931999D01*
X161667457Y-124896285D01*
X161810314Y-124860571D01*
X161917457Y-124860571D01*
X162060314Y-124896285D01*
X162131742Y-124931999D01*
X162203171Y-125003428D01*
X162238885Y-125110571D01*
X162238885Y-125289142D01*
D14*
X152863361Y-108912523D02*
X152910980Y-108769666D01*
X152910980Y-108531571D01*
X152863361Y-108436333D01*
X152815742Y-108388714D01*
X152720504Y-108341095D01*
X152625266Y-108341095D01*
X152530028Y-108388714D01*
X152482409Y-108436333D01*
X152434790Y-108531571D01*
X152387171Y-108722047D01*
X152339552Y-108817285D01*
X152291933Y-108864904D01*
X152196695Y-108912523D01*
X152101457Y-108912523D01*
X152006219Y-108864904D01*
X151958600Y-108817285D01*
X151910980Y-108722047D01*
X151910980Y-108483952D01*
X151958600Y-108341095D01*
X152910980Y-107483952D02*
X152387171Y-107483952D01*
X152291933Y-107531571D01*
X152244314Y-107626809D01*
X152244314Y-107817285D01*
X152291933Y-107912523D01*
X152863361Y-107483952D02*
X152910980Y-107579190D01*
X152910980Y-107817285D01*
X152863361Y-107912523D01*
X152768123Y-107960142D01*
X152672885Y-107960142D01*
X152577647Y-107912523D01*
X152530028Y-107817285D01*
X152530028Y-107579190D01*
X152482409Y-107483952D01*
X152244314Y-107150619D02*
X152244314Y-106769666D01*
X152910980Y-107007761D02*
X152053838Y-107007761D01*
X151958600Y-106960142D01*
X151910980Y-106864904D01*
X151910980Y-106769666D01*
X152863361Y-106055380D02*
X152910980Y-106150619D01*
X152910980Y-106341095D01*
X152863361Y-106436333D01*
X152768123Y-106483952D01*
X152387171Y-106483952D01*
X152291933Y-106436333D01*
X152244314Y-106341095D01*
X152244314Y-106150619D01*
X152291933Y-106055380D01*
X152387171Y-106007761D01*
X152482409Y-106007761D01*
X152577647Y-106483952D01*
X152863361Y-105150619D02*
X152910980Y-105245857D01*
X152910980Y-105436333D01*
X152863361Y-105531571D01*
X152815742Y-105579190D01*
X152720504Y-105626809D01*
X152434790Y-105626809D01*
X152339552Y-105579190D01*
X152291933Y-105531571D01*
X152244314Y-105436333D01*
X152244314Y-105245857D01*
X152291933Y-105150619D01*
X152910980Y-104293476D02*
X152387171Y-104293476D01*
X152291933Y-104341095D01*
X152244314Y-104436333D01*
X152244314Y-104626809D01*
X152291933Y-104722047D01*
X152863361Y-104293476D02*
X152910980Y-104388714D01*
X152910980Y-104626809D01*
X152863361Y-104722047D01*
X152768123Y-104769666D01*
X152672885Y-104769666D01*
X152577647Y-104722047D01*
X152530028Y-104626809D01*
X152530028Y-104388714D01*
X152482409Y-104293476D01*
X152863361Y-103864904D02*
X152910980Y-103769666D01*
X152910980Y-103579190D01*
X152863361Y-103483952D01*
X152768123Y-103436333D01*
X152720504Y-103436333D01*
X152625266Y-103483952D01*
X152577647Y-103579190D01*
X152577647Y-103722047D01*
X152530028Y-103817285D01*
X152434790Y-103864904D01*
X152387171Y-103864904D01*
X152291933Y-103817285D01*
X152244314Y-103722047D01*
X152244314Y-103579190D01*
X152291933Y-103483952D01*
X152244314Y-103150619D02*
X152244314Y-102769666D01*
X151910980Y-103007761D02*
X152768123Y-103007761D01*
X152863361Y-102960142D01*
X152910980Y-102864904D01*
X152910980Y-102769666D01*
X152910980Y-101674428D02*
X151910980Y-101674428D01*
X152625266Y-101341095D01*
X151910980Y-101007761D01*
X152910980Y-101007761D01*
X151910980Y-100055380D02*
X151910980Y-100531571D01*
X152387171Y-100579190D01*
X152339552Y-100531571D01*
X152291933Y-100436333D01*
X152291933Y-100198238D01*
X152339552Y-100103000D01*
X152387171Y-100055380D01*
X152482409Y-100007761D01*
X152720504Y-100007761D01*
X152815742Y-100055380D01*
X152863361Y-100103000D01*
X152910980Y-100198238D01*
X152910980Y-100436333D01*
X152863361Y-100531571D01*
X152815742Y-100579190D01*
X152910980Y-98817285D02*
X151910980Y-98817285D01*
X152291933Y-98817285D02*
X152244314Y-98722047D01*
X152244314Y-98531571D01*
X152291933Y-98436333D01*
X152339552Y-98388714D01*
X152434790Y-98341095D01*
X152720504Y-98341095D01*
X152815742Y-98388714D01*
X152863361Y-98436333D01*
X152910980Y-98531571D01*
X152910980Y-98722047D01*
X152863361Y-98817285D01*
X152910980Y-97483952D02*
X152387171Y-97483952D01*
X152291933Y-97531571D01*
X152244314Y-97626809D01*
X152244314Y-97817285D01*
X152291933Y-97912523D01*
X152863361Y-97483952D02*
X152910980Y-97579190D01*
X152910980Y-97817285D01*
X152863361Y-97912523D01*
X152768123Y-97960142D01*
X152672885Y-97960142D01*
X152577647Y-97912523D01*
X152530028Y-97817285D01*
X152530028Y-97579190D01*
X152482409Y-97483952D01*
X152863361Y-97055380D02*
X152910980Y-96960142D01*
X152910980Y-96769666D01*
X152863361Y-96674428D01*
X152768123Y-96626809D01*
X152720504Y-96626809D01*
X152625266Y-96674428D01*
X152577647Y-96769666D01*
X152577647Y-96912523D01*
X152530028Y-97007761D01*
X152434790Y-97055380D01*
X152387171Y-97055380D01*
X152291933Y-97007761D01*
X152244314Y-96912523D01*
X152244314Y-96769666D01*
X152291933Y-96674428D01*
X152863361Y-95817285D02*
X152910980Y-95912523D01*
X152910980Y-96103000D01*
X152863361Y-96198238D01*
X152768123Y-96245857D01*
X152387171Y-96245857D01*
X152291933Y-96198238D01*
X152244314Y-96103000D01*
X152244314Y-95912523D01*
X152291933Y-95817285D01*
X152387171Y-95769666D01*
X152482409Y-95769666D01*
X152577647Y-96245857D01*
X152910980Y-94912523D02*
X151910980Y-94912523D01*
X152863361Y-94912523D02*
X152910980Y-95007761D01*
X152910980Y-95198238D01*
X152863361Y-95293476D01*
X152815742Y-95341095D01*
X152720504Y-95388714D01*
X152434790Y-95388714D01*
X152339552Y-95341095D01*
X152291933Y-95293476D01*
X152244314Y-95198238D01*
X152244314Y-95007761D01*
X152291933Y-94912523D01*
X152910980Y-93674428D02*
X151910980Y-93674428D01*
X152291933Y-93674428D02*
X152244314Y-93579190D01*
X152244314Y-93388714D01*
X152291933Y-93293476D01*
X152339552Y-93245857D01*
X152434790Y-93198238D01*
X152720504Y-93198238D01*
X152815742Y-93245857D01*
X152863361Y-93293476D01*
X152910980Y-93388714D01*
X152910980Y-93579190D01*
X152863361Y-93674428D01*
X151958600Y-92245857D02*
X151910980Y-92341095D01*
X151910980Y-92483952D01*
X151958600Y-92626809D01*
X152053838Y-92722047D01*
X152149076Y-92769666D01*
X152339552Y-92817285D01*
X152482409Y-92817285D01*
X152672885Y-92769666D01*
X152768123Y-92722047D01*
X152863361Y-92626809D01*
X152910980Y-92483952D01*
X152910980Y-92388714D01*
X152863361Y-92245857D01*
X152815742Y-92198238D01*
X152482409Y-92198238D01*
X152482409Y-92388714D01*
X152863361Y-91388714D02*
X152910980Y-91483952D01*
X152910980Y-91674428D01*
X152863361Y-91769666D01*
X152768123Y-91817285D01*
X152387171Y-91817285D01*
X152291933Y-91769666D01*
X152244314Y-91674428D01*
X152244314Y-91483952D01*
X152291933Y-91388714D01*
X152387171Y-91341095D01*
X152482409Y-91341095D01*
X152577647Y-91817285D01*
X152910980Y-90912523D02*
X152244314Y-90912523D01*
X151910980Y-90912523D02*
X151958600Y-90960142D01*
X152006219Y-90912523D01*
X151958600Y-90864904D01*
X151910980Y-90912523D01*
X152006219Y-90912523D01*
X152244314Y-90007761D02*
X153053838Y-90007761D01*
X153149076Y-90055380D01*
X153196695Y-90103000D01*
X153244314Y-90198238D01*
X153244314Y-90341095D01*
X153196695Y-90436333D01*
X152863361Y-90007761D02*
X152910980Y-90103000D01*
X152910980Y-90293476D01*
X152863361Y-90388714D01*
X152815742Y-90436333D01*
X152720504Y-90483952D01*
X152434790Y-90483952D01*
X152339552Y-90436333D01*
X152291933Y-90388714D01*
X152244314Y-90293476D01*
X152244314Y-90103000D01*
X152291933Y-90007761D01*
X152910980Y-89531571D02*
X152244314Y-89531571D01*
X151910980Y-89531571D02*
X151958600Y-89579190D01*
X152006219Y-89531571D01*
X151958600Y-89483952D01*
X151910980Y-89531571D01*
X152006219Y-89531571D01*
X152863361Y-88674428D02*
X152910980Y-88769666D01*
X152910980Y-88960142D01*
X152863361Y-89055380D01*
X152768123Y-89103000D01*
X152387171Y-89103000D01*
X152291933Y-89055380D01*
X152244314Y-88960142D01*
X152244314Y-88769666D01*
X152291933Y-88674428D01*
X152387171Y-88626809D01*
X152482409Y-88626809D01*
X152577647Y-89103000D01*
X152910980Y-87626809D02*
X152434790Y-87960142D01*
X152910980Y-88198238D02*
X151910980Y-88198238D01*
X151910980Y-87817285D01*
X151958600Y-87722047D01*
X152006219Y-87674428D01*
X152101457Y-87626809D01*
X152244314Y-87626809D01*
X152339552Y-87674428D01*
X152387171Y-87722047D01*
X152434790Y-87817285D01*
X152434790Y-88198238D01*
X152910980Y-86769666D02*
X152387171Y-86769666D01*
X152291933Y-86817285D01*
X152244314Y-86912523D01*
X152244314Y-87103000D01*
X152291933Y-87198238D01*
X152863361Y-86769666D02*
X152910980Y-86864904D01*
X152910980Y-87103000D01*
X152863361Y-87198238D01*
X152768123Y-87245857D01*
X152672885Y-87245857D01*
X152577647Y-87198238D01*
X152530028Y-87103000D01*
X152530028Y-86864904D01*
X152482409Y-86769666D01*
X152910980Y-86293476D02*
X151910980Y-86293476D01*
X152530028Y-86198238D02*
X152910980Y-85912523D01*
X152244314Y-85912523D02*
X152625266Y-86293476D01*
X152244314Y-85055380D02*
X152910980Y-85055380D01*
X152244314Y-85483952D02*
X152768123Y-85483952D01*
X152863361Y-85436333D01*
X152910980Y-85341095D01*
X152910980Y-85198238D01*
X152863361Y-85103000D01*
X152815742Y-85055380D01*
X153854314Y-108864904D02*
X154854314Y-108864904D01*
X153901933Y-108864904D02*
X153854314Y-108769666D01*
X153854314Y-108579190D01*
X153901933Y-108483952D01*
X153949552Y-108436333D01*
X154044790Y-108388714D01*
X154330504Y-108388714D01*
X154425742Y-108436333D01*
X154473361Y-108483952D01*
X154520980Y-108579190D01*
X154520980Y-108769666D01*
X154473361Y-108864904D01*
X154520980Y-107960142D02*
X153854314Y-107960142D01*
X154044790Y-107960142D02*
X153949552Y-107912523D01*
X153901933Y-107864904D01*
X153854314Y-107769666D01*
X153854314Y-107674428D01*
X154520980Y-107198238D02*
X154473361Y-107293476D01*
X154425742Y-107341095D01*
X154330504Y-107388714D01*
X154044790Y-107388714D01*
X153949552Y-107341095D01*
X153901933Y-107293476D01*
X153854314Y-107198238D01*
X153854314Y-107055380D01*
X153901933Y-106960142D01*
X153949552Y-106912523D01*
X154044790Y-106864904D01*
X154330504Y-106864904D01*
X154425742Y-106912523D01*
X154473361Y-106960142D01*
X154520980Y-107055380D01*
X154520980Y-107198238D01*
X153854314Y-106579190D02*
X153854314Y-106198238D01*
X153520980Y-106436333D02*
X154378123Y-106436333D01*
X154473361Y-106388714D01*
X154520980Y-106293476D01*
X154520980Y-106198238D01*
X154520980Y-105722047D02*
X154473361Y-105817285D01*
X154425742Y-105864904D01*
X154330504Y-105912523D01*
X154044790Y-105912523D01*
X153949552Y-105864904D01*
X153901933Y-105817285D01*
X153854314Y-105722047D01*
X153854314Y-105579190D01*
X153901933Y-105483952D01*
X153949552Y-105436333D01*
X154044790Y-105388714D01*
X154330504Y-105388714D01*
X154425742Y-105436333D01*
X154473361Y-105483952D01*
X154520980Y-105579190D01*
X154520980Y-105722047D01*
X153854314Y-105103000D02*
X153854314Y-104722047D01*
X153520980Y-104960142D02*
X154378123Y-104960142D01*
X154473361Y-104912523D01*
X154520980Y-104817285D01*
X154520980Y-104722047D01*
X153854314Y-104483952D02*
X154520980Y-104245857D01*
X153854314Y-104007761D02*
X154520980Y-104245857D01*
X154759076Y-104341095D01*
X154806695Y-104388714D01*
X154854314Y-104483952D01*
X153854314Y-103626809D02*
X154854314Y-103626809D01*
X153901933Y-103626809D02*
X153854314Y-103531571D01*
X153854314Y-103341095D01*
X153901933Y-103245857D01*
X153949552Y-103198238D01*
X154044790Y-103150619D01*
X154330504Y-103150619D01*
X154425742Y-103198238D01*
X154473361Y-103245857D01*
X154520980Y-103341095D01*
X154520980Y-103531571D01*
X154473361Y-103626809D01*
X154473361Y-102341095D02*
X154520980Y-102436333D01*
X154520980Y-102626809D01*
X154473361Y-102722047D01*
X154378123Y-102769666D01*
X153997171Y-102769666D01*
X153901933Y-102722047D01*
X153854314Y-102626809D01*
X153854314Y-102436333D01*
X153901933Y-102341095D01*
X153997171Y-102293476D01*
X154092409Y-102293476D01*
X154187647Y-102769666D01*
X154520980Y-101103000D02*
X153520980Y-101103000D01*
X153901933Y-101103000D02*
X153854314Y-101007761D01*
X153854314Y-100817285D01*
X153901933Y-100722047D01*
X153949552Y-100674428D01*
X154044790Y-100626809D01*
X154330504Y-100626809D01*
X154425742Y-100674428D01*
X154473361Y-100722047D01*
X154520980Y-100817285D01*
X154520980Y-101007761D01*
X154473361Y-101103000D01*
X154520980Y-100055380D02*
X154473361Y-100150619D01*
X154425742Y-100198238D01*
X154330504Y-100245857D01*
X154044790Y-100245857D01*
X153949552Y-100198238D01*
X153901933Y-100150619D01*
X153854314Y-100055380D01*
X153854314Y-99912523D01*
X153901933Y-99817285D01*
X153949552Y-99769666D01*
X154044790Y-99722047D01*
X154330504Y-99722047D01*
X154425742Y-99769666D01*
X154473361Y-99817285D01*
X154520980Y-99912523D01*
X154520980Y-100055380D01*
X154520980Y-98864904D02*
X153997171Y-98864904D01*
X153901933Y-98912523D01*
X153854314Y-99007761D01*
X153854314Y-99198238D01*
X153901933Y-99293476D01*
X154473361Y-98864904D02*
X154520980Y-98960142D01*
X154520980Y-99198238D01*
X154473361Y-99293476D01*
X154378123Y-99341095D01*
X154282885Y-99341095D01*
X154187647Y-99293476D01*
X154140028Y-99198238D01*
X154140028Y-98960142D01*
X154092409Y-98864904D01*
X154520980Y-98388714D02*
X153854314Y-98388714D01*
X154044790Y-98388714D02*
X153949552Y-98341095D01*
X153901933Y-98293476D01*
X153854314Y-98198238D01*
X153854314Y-98103000D01*
X154520980Y-97341095D02*
X153520980Y-97341095D01*
X154473361Y-97341095D02*
X154520980Y-97436333D01*
X154520980Y-97626809D01*
X154473361Y-97722047D01*
X154425742Y-97769666D01*
X154330504Y-97817285D01*
X154044790Y-97817285D01*
X153949552Y-97769666D01*
X153901933Y-97722047D01*
X153854314Y-97626809D01*
X153854314Y-97436333D01*
X153901933Y-97341095D01*
X153520980Y-96245857D02*
X154520980Y-95912523D01*
X153520980Y-95579190D01*
X154520980Y-94722047D02*
X154520980Y-95293476D01*
X154520980Y-95007761D02*
X153520980Y-95007761D01*
X153663838Y-95103000D01*
X153759076Y-95198238D01*
X153806695Y-95293476D01*
X154425742Y-94293476D02*
X154473361Y-94245857D01*
X154520980Y-94293476D01*
X154473361Y-94341095D01*
X154425742Y-94293476D01*
X154520980Y-94293476D01*
X154520980Y-93769666D02*
X154520980Y-93579190D01*
X154473361Y-93483952D01*
X154425742Y-93436333D01*
X154282885Y-93341095D01*
X154092409Y-93293476D01*
X153711457Y-93293476D01*
X153616219Y-93341095D01*
X153568600Y-93388714D01*
X153520980Y-93483952D01*
X153520980Y-93674428D01*
X153568600Y-93769666D01*
X153616219Y-93817285D01*
X153711457Y-93864904D01*
X153949552Y-93864904D01*
X154044790Y-93817285D01*
X154092409Y-93769666D01*
X154140028Y-93674428D01*
X154140028Y-93483952D01*
X154092409Y-93388714D01*
X154044790Y-93341095D01*
X153949552Y-93293476D01*
X154425742Y-92864904D02*
X154473361Y-92817285D01*
X154520980Y-92864904D01*
X154473361Y-92912523D01*
X154425742Y-92864904D01*
X154520980Y-92864904D01*
X153520980Y-91912523D02*
X153520980Y-92388714D01*
X153997171Y-92436333D01*
X153949552Y-92388714D01*
X153901933Y-92293476D01*
X153901933Y-92055380D01*
X153949552Y-91960142D01*
X153997171Y-91912523D01*
X154092409Y-91864904D01*
X154330504Y-91864904D01*
X154425742Y-91912523D01*
X154473361Y-91960142D01*
X154520980Y-92055380D01*
X154520980Y-92293476D01*
X154473361Y-92388714D01*
X154425742Y-92436333D01*
D12*
X210707219Y-93149904D02*
X210659600Y-93245142D01*
X210564361Y-93340380D01*
X210421504Y-93483238D01*
X210373885Y-93578476D01*
X210373885Y-93673714D01*
X210611980Y-93626095D02*
X210564361Y-93721333D01*
X210469123Y-93816571D01*
X210278647Y-93864190D01*
X209945314Y-93864190D01*
X209754838Y-93816571D01*
X209659600Y-93721333D01*
X209611980Y-93626095D01*
X209611980Y-93435619D01*
X209659600Y-93340380D01*
X209754838Y-93245142D01*
X209945314Y-93197523D01*
X210278647Y-93197523D01*
X210469123Y-93245142D01*
X210564361Y-93340380D01*
X210611980Y-93435619D01*
X210611980Y-93626095D01*
X210611980Y-92768952D02*
X209611980Y-92768952D01*
X209659600Y-91007047D02*
X209611980Y-91102285D01*
X209611980Y-91245142D01*
X209659600Y-91388000D01*
X209754838Y-91483238D01*
X209850076Y-91530857D01*
X210040552Y-91578476D01*
X210183409Y-91578476D01*
X210373885Y-91530857D01*
X210469123Y-91483238D01*
X210564361Y-91388000D01*
X210611980Y-91245142D01*
X210611980Y-91149904D01*
X210564361Y-91007047D01*
X210516742Y-90959428D01*
X210183409Y-90959428D01*
X210183409Y-91149904D01*
X210611980Y-90530857D02*
X209611980Y-90530857D01*
X210611980Y-89959428D01*
X209611980Y-89959428D01*
X210611980Y-89483238D02*
X209611980Y-89483238D01*
X209611980Y-89245142D01*
X209659600Y-89102285D01*
X209754838Y-89007047D01*
X209850076Y-88959428D01*
X210040552Y-88911809D01*
X210183409Y-88911809D01*
X210373885Y-88959428D01*
X210469123Y-89007047D01*
X210564361Y-89102285D01*
X210611980Y-89245142D01*
X210611980Y-89483238D01*
X210707219Y-107215142D02*
X210659600Y-107310380D01*
X210564361Y-107405619D01*
X210421504Y-107548476D01*
X210373885Y-107643714D01*
X210373885Y-107738952D01*
X210611980Y-107691333D02*
X210564361Y-107786571D01*
X210469123Y-107881809D01*
X210278647Y-107929428D01*
X209945314Y-107929428D01*
X209754838Y-107881809D01*
X209659600Y-107786571D01*
X209611980Y-107691333D01*
X209611980Y-107500857D01*
X209659600Y-107405619D01*
X209754838Y-107310380D01*
X209945314Y-107262761D01*
X210278647Y-107262761D01*
X210469123Y-107310380D01*
X210564361Y-107405619D01*
X210611980Y-107500857D01*
X210611980Y-107691333D01*
X210611980Y-106834190D02*
X209611980Y-106834190D01*
X210611980Y-105596095D02*
X209611980Y-105596095D01*
X209611980Y-105215142D01*
X209659600Y-105119904D01*
X209707219Y-105072285D01*
X209802457Y-105024666D01*
X209945314Y-105024666D01*
X210040552Y-105072285D01*
X210088171Y-105119904D01*
X210135790Y-105215142D01*
X210135790Y-105596095D01*
X210611980Y-104453238D02*
X210564361Y-104548476D01*
X210469123Y-104596095D01*
X209611980Y-104596095D01*
X209945314Y-103643714D02*
X210611980Y-103643714D01*
X209945314Y-104072285D02*
X210469123Y-104072285D01*
X210564361Y-104024666D01*
X210611980Y-103929428D01*
X210611980Y-103786571D01*
X210564361Y-103691333D01*
X210516742Y-103643714D01*
X210564361Y-103215142D02*
X210611980Y-103119904D01*
X210611980Y-102929428D01*
X210564361Y-102834190D01*
X210469123Y-102786571D01*
X210421504Y-102786571D01*
X210326266Y-102834190D01*
X210278647Y-102929428D01*
X210278647Y-103072285D01*
X210231028Y-103167523D01*
X210135790Y-103215142D01*
X210088171Y-103215142D01*
X209992933Y-103167523D01*
X209945314Y-103072285D01*
X209945314Y-102929428D01*
X209992933Y-102834190D01*
D15*
X178530265Y-82685279D02*
X177955741Y-83087446D01*
X178530265Y-83374708D02*
X177323765Y-83374708D01*
X177323765Y-82915089D01*
X177381218Y-82800184D01*
X177438670Y-82742732D01*
X177553575Y-82685279D01*
X177725932Y-82685279D01*
X177840837Y-82742732D01*
X177898289Y-82800184D01*
X177955741Y-82915089D01*
X177955741Y-83374708D01*
X177438670Y-82225660D02*
X177381218Y-82168208D01*
X177323765Y-82053303D01*
X177323765Y-81766041D01*
X177381218Y-81651136D01*
X177438670Y-81593684D01*
X177553575Y-81536232D01*
X177668479Y-81536232D01*
X177840837Y-81593684D01*
X178530265Y-82283112D01*
X178530265Y-81536232D01*
X185530867Y-82948547D02*
X184841439Y-82948547D01*
X185186153Y-82948547D02*
X185186153Y-81742047D01*
X185071248Y-81914404D01*
X184956344Y-82029309D01*
X184841439Y-82086761D01*
X186047939Y-82948547D02*
X186047939Y-81742047D01*
X186737367Y-82948547D02*
X186220296Y-82259119D01*
X186737367Y-81742047D02*
X186047939Y-82431476D01*
X178530265Y-85760887D02*
X177955741Y-86163053D01*
X178530265Y-86450315D02*
X177323765Y-86450315D01*
X177323765Y-85990696D01*
X177381218Y-85875791D01*
X177438670Y-85818339D01*
X177553575Y-85760887D01*
X177725932Y-85760887D01*
X177840837Y-85818339D01*
X177898289Y-85875791D01*
X177955741Y-85990696D01*
X177955741Y-86450315D01*
X178530265Y-84611839D02*
X178530265Y-85301267D01*
X178530265Y-84956553D02*
X177323765Y-84956553D01*
X177496122Y-85071458D01*
X177611027Y-85186363D01*
X177668479Y-85301267D01*
X185249260Y-86504547D02*
X184559832Y-86504547D01*
X184904546Y-86504547D02*
X184904546Y-85298047D01*
X184789641Y-85470404D01*
X184674736Y-85585309D01*
X184559832Y-85642761D01*
X185996141Y-85298047D02*
X186111046Y-85298047D01*
X186225951Y-85355500D01*
X186283403Y-85412952D01*
X186340855Y-85527857D01*
X186398308Y-85757666D01*
X186398308Y-86044928D01*
X186340855Y-86274738D01*
X186283403Y-86389642D01*
X186225951Y-86447095D01*
X186111046Y-86504547D01*
X185996141Y-86504547D01*
X185881236Y-86447095D01*
X185823784Y-86389642D01*
X185766332Y-86274738D01*
X185708879Y-86044928D01*
X185708879Y-85757666D01*
X185766332Y-85527857D01*
X185823784Y-85412952D01*
X185881236Y-85355500D01*
X185996141Y-85298047D01*
X186915379Y-86504547D02*
X186915379Y-85298047D01*
X187030284Y-86044928D02*
X187374998Y-86504547D01*
X187374998Y-85700214D02*
X186915379Y-86159833D01*
X195509242Y-86241279D02*
X195566695Y-86298732D01*
X195624147Y-86471089D01*
X195624147Y-86585993D01*
X195566695Y-86758351D01*
X195451790Y-86873255D01*
X195336885Y-86930708D01*
X195107076Y-86988160D01*
X194934719Y-86988160D01*
X194704909Y-86930708D01*
X194590004Y-86873255D01*
X194475100Y-86758351D01*
X194417647Y-86585993D01*
X194417647Y-86471089D01*
X194475100Y-86298732D01*
X194532552Y-86241279D01*
X194532552Y-85781660D02*
X194475100Y-85724208D01*
X194417647Y-85609303D01*
X194417647Y-85322041D01*
X194475100Y-85207136D01*
X194532552Y-85149684D01*
X194647457Y-85092232D01*
X194762361Y-85092232D01*
X194934719Y-85149684D01*
X195624147Y-85839112D01*
X195624147Y-85092232D01*
X203201814Y-87695732D02*
X204006147Y-87695732D01*
X202742195Y-87982993D02*
X203603980Y-88270255D01*
X203603980Y-87523374D01*
X203891242Y-87063755D02*
X203948695Y-87006303D01*
X204006147Y-87063755D01*
X203948695Y-87121208D01*
X203891242Y-87063755D01*
X204006147Y-87063755D01*
X202799647Y-86604136D02*
X202799647Y-85799803D01*
X204006147Y-86316874D01*
X203201814Y-84823112D02*
X204006147Y-84823112D01*
X203201814Y-85340184D02*
X203833790Y-85340184D01*
X203948695Y-85282732D01*
X204006147Y-85167827D01*
X204006147Y-84995470D01*
X203948695Y-84880565D01*
X203891242Y-84823112D01*
X203201814Y-84420946D02*
X203201814Y-83961327D01*
X204006147Y-84248589D02*
X202972004Y-84248589D01*
X202857100Y-84191136D01*
X202799647Y-84076232D01*
X202799647Y-83961327D01*
D16*
X175183195Y-77633452D02*
X175240647Y-77461095D01*
X175240647Y-77173833D01*
X175183195Y-77058928D01*
X175125742Y-77001476D01*
X175010838Y-76944023D01*
X174895933Y-76944023D01*
X174781028Y-77001476D01*
X174723576Y-77058928D01*
X174666123Y-77173833D01*
X174608671Y-77403642D01*
X174551219Y-77518547D01*
X174493766Y-77576000D01*
X174378861Y-77633452D01*
X174263957Y-77633452D01*
X174149052Y-77576000D01*
X174091600Y-77518547D01*
X174034147Y-77403642D01*
X174034147Y-77116381D01*
X174091600Y-76944023D01*
X174034147Y-76541857D02*
X175240647Y-76254595D01*
X174378861Y-76024785D01*
X175240647Y-75794976D01*
X174034147Y-75507714D01*
X175240647Y-74416119D02*
X175240647Y-75105547D01*
X175240647Y-74760833D02*
X174034147Y-74760833D01*
X174206504Y-74875738D01*
X174321409Y-74990642D01*
X174378861Y-75105547D01*
D12*
X177020600Y-91340285D02*
X176972980Y-91435523D01*
X176972980Y-91578380D01*
X177020600Y-91721238D01*
X177115838Y-91816476D01*
X177211076Y-91864095D01*
X177401552Y-91911714D01*
X177544409Y-91911714D01*
X177734885Y-91864095D01*
X177830123Y-91816476D01*
X177925361Y-91721238D01*
X177972980Y-91578380D01*
X177972980Y-91483142D01*
X177925361Y-91340285D01*
X177877742Y-91292666D01*
X177544409Y-91292666D01*
X177544409Y-91483142D01*
X177972980Y-90864095D02*
X176972980Y-90864095D01*
X176972980Y-90483142D01*
X177020600Y-90387904D01*
X177068219Y-90340285D01*
X177163457Y-90292666D01*
X177306314Y-90292666D01*
X177401552Y-90340285D01*
X177449171Y-90387904D01*
X177496790Y-90483142D01*
X177496790Y-90864095D01*
X177925361Y-89911714D02*
X177972980Y-89768857D01*
X177972980Y-89530761D01*
X177925361Y-89435523D01*
X177877742Y-89387904D01*
X177782504Y-89340285D01*
X177687266Y-89340285D01*
X177592028Y-89387904D01*
X177544409Y-89435523D01*
X177496790Y-89530761D01*
X177449171Y-89721238D01*
X177401552Y-89816476D01*
X177353933Y-89864095D01*
X177258695Y-89911714D01*
X177163457Y-89911714D01*
X177068219Y-89864095D01*
X177020600Y-89816476D01*
X176972980Y-89721238D01*
X176972980Y-89483142D01*
X177020600Y-89340285D01*
D17*
X206156000Y-117779000D02*
X206156000Y-115119000D01*
X162916000Y-117779000D02*
X206156000Y-117779000D01*
X162916000Y-115119000D02*
X206156000Y-115119000D01*
X162916000Y-117779000D02*
X162916000Y-115119000D01*
X161646000Y-117779000D02*
X160316000Y-117779000D01*
X160316000Y-117779000D02*
X160316000Y-116449000D01*
D18*
X174600000Y-126186000D02*
G75*
G03*
X174600000Y-126186000I-2032000J0D01*
G01*
X92303600Y-126186000D02*
G75*
G03*
X92303600Y-126186000I-2032000J0D01*
G01*
X92557600Y-72338000D02*
G75*
G03*
X92557600Y-72338000I-2032000J0D01*
G01*
X211176000Y-72338000D02*
G75*
G03*
X211176000Y-72338000I-2032000J0D01*
G01*
X211176000Y-126186000D02*
G75*
G03*
X211176000Y-126186000I-2032000J0D01*
G01*
D17*
X193456000Y-104663000D02*
X193456000Y-105993000D01*
X192126000Y-104663000D02*
X193456000Y-104663000D01*
X190856000Y-104663000D02*
X190856000Y-107323000D01*
X190856000Y-107323000D02*
X188256000Y-107323000D01*
X190856000Y-104663000D02*
X188256000Y-104663000D01*
X188256000Y-104663000D02*
X188256000Y-107323000D01*
X208442000Y-104663000D02*
X208442000Y-105993000D01*
X207112000Y-104663000D02*
X208442000Y-104663000D01*
X205842000Y-104663000D02*
X205842000Y-107323000D01*
X205842000Y-107323000D02*
X203242000Y-107323000D01*
X205842000Y-104663000D02*
X203242000Y-104663000D01*
X203242000Y-104663000D02*
X203242000Y-107323000D01*
X208442000Y-89677000D02*
X208442000Y-91007000D01*
X207112000Y-89677000D02*
X208442000Y-89677000D01*
X205842000Y-89677000D02*
X205842000Y-92337000D01*
X205842000Y-92337000D02*
X203242000Y-92337000D01*
X205842000Y-89677000D02*
X203242000Y-89677000D01*
X203242000Y-89677000D02*
X203242000Y-92337000D01*
X193456000Y-89677000D02*
X193456000Y-91007000D01*
X192126000Y-89677000D02*
X193456000Y-89677000D01*
X190856000Y-89677000D02*
X190856000Y-92337000D01*
X190856000Y-92337000D02*
X188256000Y-92337000D01*
X190856000Y-89677000D02*
X188256000Y-89677000D01*
X188256000Y-89677000D02*
X188256000Y-92337000D01*
X160316000Y-114689000D02*
X160316000Y-113359000D01*
X161646000Y-114689000D02*
X160316000Y-114689000D01*
X162916000Y-114689000D02*
X162916000Y-112029000D01*
X162916000Y-112029000D02*
X206156000Y-112029000D01*
X162916000Y-114689000D02*
X206156000Y-114689000D01*
X206156000Y-114689000D02*
X206156000Y-112029000D01*
X160316000Y-120870000D02*
X160316000Y-119540000D01*
X161646000Y-120870000D02*
X160316000Y-120870000D01*
X162916000Y-120870000D02*
X162916000Y-118210000D01*
X162916000Y-118210000D02*
X206156000Y-118210000D01*
X162916000Y-120870000D02*
X206156000Y-120870000D01*
X206156000Y-120870000D02*
X206156000Y-118210000D01*
X160316000Y-123960000D02*
X160316000Y-122630000D01*
X161646000Y-123960000D02*
X160316000Y-123960000D01*
X162916000Y-123960000D02*
X162916000Y-121300000D01*
X162916000Y-121300000D02*
X206156000Y-121300000D01*
X162916000Y-123960000D02*
X206156000Y-123960000D01*
X206156000Y-123960000D02*
X206156000Y-121300000D01*
G36*
X182728000Y-82548800D02*
G01*
X181864400Y-82548800D01*
X181864400Y-81939200D01*
X182728000Y-81939200D01*
X182728000Y-82548800D01*
G37*
G36*
X189941600Y-82548800D02*
G01*
X189078000Y-82548800D01*
X189078000Y-81939200D01*
X189941600Y-81939200D01*
X189941600Y-82548800D01*
G37*
D19*
X189078000Y-83133000D02*
X189078000Y-81355000D01*
X188824000Y-83387000D02*
X188443000Y-83387000D01*
X188824000Y-81101000D02*
X188443000Y-81101000D01*
X188316000Y-83260000D02*
X183490000Y-83260000D01*
X188316000Y-83260000D02*
X188443000Y-83387000D01*
X188316000Y-81228000D02*
X183490000Y-81228000D01*
X188316000Y-81228000D02*
X188443000Y-81101000D01*
X183490000Y-83260000D02*
X183363000Y-83387000D01*
X182982000Y-83387000D02*
X183363000Y-83387000D01*
X183490000Y-81228000D02*
X183363000Y-81101000D01*
X182982000Y-81101000D02*
X183363000Y-81101000D01*
X182728000Y-83133000D02*
X182728000Y-81355000D01*
X189078000Y-81355000D02*
G75*
G03*
X188824000Y-81101000I-254000J0D01*
G01*
X189078000Y-83133000D02*
G75*
G02*
X188824000Y-83387000I-254000J0D01*
G01*
X182982000Y-83387000D02*
G75*
G02*
X182728000Y-83133000I0J254000D01*
G01*
X182982000Y-81101000D02*
G75*
G03*
X182728000Y-81355000I0J-254000D01*
G01*
G36*
X189941600Y-86358800D02*
G01*
X189078000Y-86358800D01*
X189078000Y-85749200D01*
X189941600Y-85749200D01*
X189941600Y-86358800D01*
G37*
G36*
X182728000Y-86358800D02*
G01*
X181864400Y-86358800D01*
X181864400Y-85749200D01*
X182728000Y-85749200D01*
X182728000Y-86358800D01*
G37*
X182728000Y-85165000D02*
X182728000Y-86943000D01*
X182982000Y-84911000D02*
X183363000Y-84911000D01*
X182982000Y-87197000D02*
X183363000Y-87197000D01*
X183490000Y-85038000D02*
X188316000Y-85038000D01*
X183490000Y-85038000D02*
X183363000Y-84911000D01*
X183490000Y-87070000D02*
X188316000Y-87070000D01*
X183490000Y-87070000D02*
X183363000Y-87197000D01*
X188316000Y-85038000D02*
X188443000Y-84911000D01*
X188824000Y-84911000D02*
X188443000Y-84911000D01*
X188316000Y-87070000D02*
X188443000Y-87197000D01*
X188824000Y-87197000D02*
X188443000Y-87197000D01*
X189078000Y-85165000D02*
X189078000Y-86943000D01*
X182728000Y-86943000D02*
G75*
G03*
X182982000Y-87197000I254000J0D01*
G01*
X182728000Y-85165000D02*
G75*
G02*
X182982000Y-84911000I254000J0D01*
G01*
X188824000Y-84911000D02*
G75*
G02*
X189078000Y-85165000I0J-254000D01*
G01*
X188824000Y-87197000D02*
G75*
G03*
X189078000Y-86943000I0J254000D01*
G01*
D20*
X199161800Y-86816000D02*
X199161800Y-85292000D01*
X199796800Y-86816000D02*
X199796800Y-85292000D01*
D19*
X197333000Y-85419000D02*
G75*
G02*
X197841000Y-84911000I508000J0D01*
G01*
X197333000Y-86689000D02*
G75*
G03*
X197841000Y-87197000I508000J0D01*
G01*
X197841000Y-84911000D02*
X201143000Y-84911000D01*
X197333000Y-85419000D02*
X197333000Y-86689000D01*
X197841000Y-87197000D02*
X201143000Y-87197000D01*
X201143000Y-84911000D02*
G75*
G02*
X201651000Y-85419000I0J-508000D01*
G01*
X201143000Y-87197000D02*
G75*
G03*
X201651000Y-86689000I0J508000D01*
G01*
X201651000Y-85419000D02*
X201651000Y-86689000D01*
D21*
X190244000Y-78948000D02*
X184744000Y-78948000D01*
X184744000Y-78948000D02*
X182744000Y-78948000D01*
X182744000Y-78948000D02*
X177244000Y-78948000D01*
X177244000Y-73348000D02*
X180744000Y-73348000D01*
X180744000Y-73348000D02*
X181994000Y-73348000D01*
X181994000Y-73348000D02*
X185494000Y-73348000D01*
X185494000Y-73348000D02*
X186744000Y-73348000D01*
X186744000Y-73348000D02*
X190244000Y-73348000D01*
X184744000Y-78948000D02*
X184744000Y-77948000D01*
X184744000Y-77948000D02*
X182744000Y-77948000D01*
X182744000Y-77948000D02*
X182744000Y-78948000D01*
X186744000Y-73348000D02*
X186744000Y-74548000D01*
X186744000Y-74548000D02*
X180744000Y-74548000D01*
X180744000Y-74548000D02*
X180744000Y-73348000D01*
X185494000Y-73348000D02*
X185494000Y-70348000D01*
X185494000Y-70348000D02*
X181994000Y-70348000D01*
X181994000Y-70348000D02*
X181994000Y-73348000D01*
X190244000Y-78948000D02*
X190244000Y-77848000D01*
X190244000Y-73348000D02*
X190244000Y-74448000D01*
X177244000Y-78948000D02*
X177244000Y-77848000D01*
X177244000Y-73348000D02*
X177244000Y-74448000D01*
D17*
X175616000Y-96087000D02*
X174346000Y-96087000D01*
X175616000Y-94817000D02*
X175616000Y-96087000D01*
X173303071Y-86817000D02*
X172906000Y-86817000D01*
X173303071Y-87577000D02*
X172906000Y-87577000D01*
X164246000Y-86817000D02*
X170246000Y-86817000D01*
X164246000Y-87577000D02*
X164246000Y-86817000D01*
X170246000Y-87577000D02*
X164246000Y-87577000D01*
X172906000Y-88467000D02*
X170246000Y-88467000D01*
X173303071Y-89357000D02*
X172906000Y-89357000D01*
X173303071Y-90117000D02*
X172906000Y-90117000D01*
X164246000Y-89357000D02*
X170246000Y-89357000D01*
X164246000Y-90117000D02*
X164246000Y-89357000D01*
X170246000Y-90117000D02*
X164246000Y-90117000D01*
X172906000Y-91007000D02*
X170246000Y-91007000D01*
X173303071Y-91897000D02*
X172906000Y-91897000D01*
X173303071Y-92657000D02*
X172906000Y-92657000D01*
X164246000Y-91897000D02*
X170246000Y-91897000D01*
X164246000Y-92657000D02*
X164246000Y-91897000D01*
X170246000Y-92657000D02*
X164246000Y-92657000D01*
X172906000Y-93547000D02*
X170246000Y-93547000D01*
X173236000Y-94437000D02*
X172906000Y-94437000D01*
X173236000Y-95197000D02*
X172906000Y-95197000D01*
X170246000Y-94537000D02*
X164246000Y-94537000D01*
X170246000Y-94657000D02*
X164246000Y-94657000D01*
X170246000Y-94777000D02*
X164246000Y-94777000D01*
X170246000Y-94897000D02*
X164246000Y-94897000D01*
X170246000Y-95017000D02*
X164246000Y-95017000D01*
X170246000Y-95137000D02*
X164246000Y-95137000D01*
X164246000Y-94437000D02*
X170246000Y-94437000D01*
X164246000Y-95197000D02*
X164246000Y-94437000D01*
X170246000Y-95197000D02*
X164246000Y-95197000D01*
X170246000Y-96147000D02*
X172906000Y-96147000D01*
X170246000Y-85867000D02*
X170246000Y-96147000D01*
X172906000Y-85867000D02*
X170246000Y-85867000D01*
X172906000Y-96147000D02*
X172906000Y-85867000D01*
M02*
