G04 #@! TF.GenerationSoftware,KiCad,Pcbnew,(5.99.0-128-g6ff45b44c)*
G04 #@! TF.CreationDate,2019-09-15T18:53:50+09:00*
G04 #@! TF.ProjectId,M5_board,4d355f62-6f61-4726-942e-6b696361645f,rev?*
G04 #@! TF.SameCoordinates,Original*
G04 #@! TF.FileFunction,Copper,L1,Top*
G04 #@! TF.FilePolarity,Positive*
%FSLAX46Y46*%
G04 Gerber Fmt 4.6, Leading zero omitted, Abs format (unit mm)*
G04 Created by KiCad (PCBNEW (5.99.0-128-g6ff45b44c)) date 2019-09-15 18:53:50*
%MOMM*%
%LPD*%
G04 APERTURE LIST*
%ADD10O,1.700000X1.700000*%
%ADD11R,1.700000X1.700000*%
%ADD12C,1.676400*%
%ADD13O,1.905000X1.117600*%
%ADD14R,1.905000X1.117600*%
%ADD15O,2.438400X1.219200*%
%ADD16C,3.000000*%
%ADD17C,0.800000*%
%ADD18C,1.000000*%
%ADD19C,0.250000*%
G04 APERTURE END LIST*
D10*
X203020000Y-90500000D03*
X200480000Y-90500000D03*
X197940000Y-90500000D03*
X195400000Y-90500000D03*
X192860000Y-90500000D03*
X190320000Y-90500000D03*
X187780000Y-90500000D03*
X185240000Y-90500000D03*
X182700000Y-90500000D03*
X180160000Y-90500000D03*
X177620000Y-90500000D03*
X175080000Y-90500000D03*
X172540000Y-90500000D03*
D11*
X170000000Y-90500000D03*
D10*
X203020000Y-93700000D03*
X200480000Y-93700000D03*
X197940000Y-93700000D03*
X195400000Y-93700000D03*
X192860000Y-93700000D03*
X190320000Y-93700000D03*
X187780000Y-93700000D03*
X185240000Y-93700000D03*
X182700000Y-93700000D03*
X180160000Y-93700000D03*
X177620000Y-93700000D03*
X175080000Y-93700000D03*
X172540000Y-93700000D03*
D11*
X170000000Y-93700000D03*
D10*
X203020000Y-96750000D03*
X200480000Y-96750000D03*
X197940000Y-96750000D03*
X195400000Y-96750000D03*
X192860000Y-96750000D03*
X190320000Y-96750000D03*
X187780000Y-96750000D03*
X185240000Y-96750000D03*
X182700000Y-96750000D03*
X180160000Y-96750000D03*
X177620000Y-96750000D03*
X175080000Y-96750000D03*
X172540000Y-96750000D03*
D11*
X170000000Y-96750000D03*
D10*
X203020000Y-100000000D03*
X200480000Y-100000000D03*
X197940000Y-100000000D03*
X195400000Y-100000000D03*
X192860000Y-100000000D03*
X190320000Y-100000000D03*
X187780000Y-100000000D03*
X185240000Y-100000000D03*
X182700000Y-100000000D03*
X180160000Y-100000000D03*
X177620000Y-100000000D03*
X175080000Y-100000000D03*
X172540000Y-100000000D03*
D11*
X170000000Y-100000000D03*
D12*
X121660000Y-124000000D03*
X111500000Y-124000000D03*
X107910000Y-124000000D03*
X97750000Y-124000000D03*
X182250000Y-87080000D03*
X182250000Y-76920000D03*
X151980000Y-83250000D03*
X154520000Y-83250000D03*
X154717000Y-94990800D03*
X144557000Y-94990800D03*
X154717000Y-98420800D03*
X144557000Y-98420800D03*
X154717000Y-101850800D03*
X144557000Y-101850800D03*
D13*
X146250000Y-76230000D03*
X146250000Y-77500000D03*
D14*
X146250000Y-78770000D03*
D13*
X146250000Y-80040000D03*
D15*
X192750000Y-77210000D03*
X192750000Y-82290000D03*
X192750000Y-79750000D03*
D12*
X186500000Y-72500000D03*
X192500000Y-72500000D03*
D16*
X195750000Y-72500000D03*
X183250000Y-72500000D03*
D12*
X189500000Y-72500000D03*
X186000000Y-76920000D03*
X186000000Y-87080000D03*
X144420000Y-91250000D03*
X154580000Y-91250000D03*
X154580000Y-87500000D03*
X144420000Y-87500000D03*
D10*
X158630000Y-73250000D03*
X161170000Y-73250000D03*
X163710000Y-73250000D03*
D11*
X166250000Y-73250000D03*
D10*
X176330000Y-73250000D03*
X173790000Y-73250000D03*
D11*
X171250000Y-73250000D03*
D10*
X96290000Y-115060000D03*
X93750000Y-115060000D03*
X96290000Y-112520000D03*
X93750000Y-112520000D03*
X96290000Y-109980000D03*
X93750000Y-109980000D03*
X96290000Y-107440000D03*
X93750000Y-107440000D03*
X96290000Y-104900000D03*
X93750000Y-104900000D03*
X96290000Y-102360000D03*
X93750000Y-102360000D03*
X96290000Y-99820000D03*
X93750000Y-99820000D03*
X96290000Y-97280000D03*
X93750000Y-97280000D03*
X96290000Y-94740000D03*
X93750000Y-94740000D03*
X96290000Y-92200000D03*
X93750000Y-92200000D03*
X96290000Y-89660000D03*
X93750000Y-89660000D03*
X96290000Y-87120000D03*
X93750000Y-87120000D03*
X96290000Y-84580000D03*
X93750000Y-84580000D03*
X96290000Y-82040000D03*
X93750000Y-82040000D03*
X96290000Y-79500000D03*
D11*
X93750000Y-79500000D03*
D12*
X197500000Y-87060000D03*
X197500000Y-79440000D03*
X146250000Y-73270000D03*
X146250000Y-70730000D03*
X193000000Y-87270000D03*
X193000000Y-84730000D03*
D17*
X151667900Y-87945000D03*
D18*
X144128300Y-82161700D02*
X145961199Y-80328801D01*
X145961199Y-80328801D02*
X146250000Y-80328801D01*
D19*
X107910000Y-124000000D02*
X111500000Y-124000000D01*
X152686200Y-99820000D02*
X154717000Y-101850800D01*
X96290000Y-99820000D02*
X152686200Y-99820000D01*
X153513000Y-97216800D02*
X154717000Y-98420800D01*
X123073800Y-97216800D02*
X153513000Y-97216800D01*
X121663500Y-98627100D02*
X123073800Y-97216800D01*
X95818100Y-98627100D02*
X121663500Y-98627100D01*
X95074700Y-99370500D02*
X95818100Y-98627100D01*
X95074700Y-100336700D02*
X95074700Y-99370500D01*
X95922700Y-101184700D02*
X95074700Y-100336700D01*
X96290000Y-101184700D02*
X95922700Y-101184700D01*
X96290000Y-102360000D02*
X96290000Y-101184700D01*
X155882200Y-96156000D02*
X154717000Y-94990800D01*
X155882200Y-102396300D02*
X155882200Y-96156000D01*
X153378500Y-104900000D02*
X155882200Y-102396300D01*
X96290000Y-104900000D02*
X153378500Y-104900000D01*
X96290000Y-84580000D02*
X97465300Y-84580000D01*
X154520000Y-83900800D02*
X154520000Y-83250000D01*
X153648200Y-84772600D02*
X154520000Y-83900800D01*
X97657900Y-84772600D02*
X153648200Y-84772600D01*
X97465300Y-84580000D02*
X97657900Y-84772600D01*
X179070800Y-83900800D02*
X182250000Y-87080000D01*
X154520000Y-83900800D02*
X179070800Y-83900800D01*
X190915500Y-76920000D02*
X191205500Y-77210000D01*
X186000000Y-76920000D02*
X190915500Y-76920000D01*
X192750000Y-77210000D02*
X191205500Y-77210000D01*
D18*
X152709600Y-93120400D02*
X154580000Y-91250000D01*
X99060700Y-93120400D02*
X152709600Y-93120400D01*
X98140300Y-92200000D02*
X99060700Y-93120400D01*
X96290000Y-92200000D02*
X98140300Y-92200000D01*
D19*
X93750000Y-102360000D02*
X93750000Y-101184700D01*
X144420000Y-87945000D02*
X144420000Y-87500000D01*
X143975000Y-88390000D02*
X144420000Y-87945000D01*
X93328600Y-88390000D02*
X143975000Y-88390000D01*
X92543600Y-89175000D02*
X93328600Y-88390000D01*
X92543600Y-100345600D02*
X92543600Y-89175000D01*
X93382700Y-101184700D02*
X92543600Y-100345600D01*
X93750000Y-101184700D02*
X93382700Y-101184700D01*
X144420000Y-87945000D02*
X151667900Y-87945000D01*
D18*
X182484000Y-76920000D02*
X182250000Y-76920000D01*
X184897700Y-74506300D02*
X182484000Y-76920000D01*
X190493700Y-74506300D02*
X184897700Y-74506300D01*
X192500000Y-72500000D02*
X190493700Y-74506300D01*
D19*
X155815900Y-88735900D02*
X154580000Y-87500000D01*
X195824100Y-88735900D02*
X155815900Y-88735900D01*
X197500000Y-87060000D02*
X195824100Y-88735900D01*
X152730000Y-79750000D02*
X192750000Y-79750000D01*
X146250000Y-73270000D02*
X152730000Y-79750000D01*
X190650000Y-87080000D02*
X186000000Y-87080000D01*
X193000000Y-84730000D02*
X190650000Y-87080000D01*
D18*
X171250000Y-73250000D02*
X166250000Y-73250000D01*
X192750000Y-82290000D02*
X190530500Y-82290000D01*
X151980000Y-82161700D02*
X151980000Y-83250000D01*
X189636000Y-81395500D02*
X190530500Y-82290000D01*
X152746200Y-81395500D02*
X189636000Y-81395500D01*
X151980000Y-82161700D02*
X152746200Y-81395500D01*
X93750000Y-84580000D02*
X91899700Y-84580000D01*
X144128300Y-82161700D02*
X151980000Y-82161700D01*
X142295800Y-80329200D02*
X144128300Y-82161700D01*
X140549500Y-80329200D02*
X142295800Y-80329200D01*
X140549500Y-78582900D02*
X140549500Y-80329200D01*
X139553500Y-77586900D02*
X140549500Y-78582900D01*
X92494300Y-77586900D02*
X139553500Y-77586900D01*
X91899700Y-78181500D02*
X92494300Y-77586900D01*
X91899700Y-84580000D02*
X91899700Y-78181500D01*
M02*
