G04 #@! TF.GenerationSoftware,KiCad,Pcbnew,6.99.0-unknown-fe82f2dd40~146~ubuntu20.04.1*
G04 #@! TF.CreationDate,2022-02-10T10:32:34+09:00*
G04 #@! TF.ProjectId,bGeigieZen V2,62476569-6769-4655-9a65-6e2056322e6b,V2.0.0*
G04 #@! TF.SameCoordinates,Original*
G04 #@! TF.FileFunction,Paste,Top*
G04 #@! TF.FilePolarity,Positive*
%FSLAX46Y46*%
G04 Gerber Fmt 4.6, Leading zero omitted, Abs format (unit mm)*
G04 Created by KiCad (PCBNEW 6.99.0-unknown-fe82f2dd40~146~ubuntu20.04.1) date 2022-02-10 10:32:34*
%MOMM*%
%LPD*%
G01*
G04 APERTURE LIST*
G04 Aperture macros list*
%AMRoundRect*
0 Rectangle with rounded corners*
0 $1 Rounding radius*
0 $2 $3 $4 $5 $6 $7 $8 $9 X,Y pos of 4 corners*
0 Add a 4 corners polygon primitive as box body*
4,1,4,$2,$3,$4,$5,$6,$7,$8,$9,$2,$3,0*
0 Add four circle primitives for the rounded corners*
1,1,$1+$1,$2,$3*
1,1,$1+$1,$4,$5*
1,1,$1+$1,$6,$7*
1,1,$1+$1,$8,$9*
0 Add four rect primitives between the rounded corners*
20,1,$1+$1,$2,$3,$4,$5,0*
20,1,$1+$1,$4,$5,$6,$7,0*
20,1,$1+$1,$6,$7,$8,$9,0*
20,1,$1+$1,$8,$9,$2,$3,0*%
G04 Aperture macros list end*
%ADD10R,1.000000X3.150000*%
%ADD11RoundRect,0.150000X0.275000X-0.150000X0.275000X0.150000X-0.275000X0.150000X-0.275000X-0.150000X0*%
%ADD12RoundRect,0.187500X0.362500X-0.187500X0.362500X0.187500X-0.362500X0.187500X-0.362500X-0.187500X0*%
G04 APERTURE END LIST*
D10*
X141362999Y-115229999D03*
X141362999Y-120279999D03*
X138822999Y-115229999D03*
X138822999Y-120279999D03*
X136282999Y-115229999D03*
X136282999Y-120279999D03*
X133742999Y-115229999D03*
X133742999Y-120279999D03*
X131202999Y-115229999D03*
X131202999Y-120279999D03*
X128662999Y-115229999D03*
X128662999Y-120279999D03*
X126122999Y-115229999D03*
X126122999Y-120279999D03*
X123582999Y-115229999D03*
X123582999Y-120279999D03*
X121042999Y-115229999D03*
X121042999Y-120279999D03*
X118502999Y-115229999D03*
X118502999Y-120279999D03*
X115962999Y-115229999D03*
X115962999Y-120279999D03*
X113422999Y-115229999D03*
X113422999Y-120279999D03*
X110882999Y-115229999D03*
X110882999Y-120279999D03*
X108342999Y-115229999D03*
X108342999Y-120279999D03*
X105802999Y-115229999D03*
X105802999Y-120279999D03*
D11*
X157992600Y-114905000D03*
X157992600Y-113705000D03*
X157992600Y-112505000D03*
X157992600Y-111305000D03*
D12*
X161617600Y-116080000D03*
X161617600Y-110130000D03*
D11*
X157992600Y-123360000D03*
X157992600Y-122160000D03*
X157992600Y-120960000D03*
X157992600Y-119760000D03*
D12*
X161617600Y-124535000D03*
X161617600Y-118585000D03*
M02*
