M48
; DRILL file {KiCad 6.99.0-unknown-fe82f2dd40~146~ubuntu20.04.1} date Thu 10 Feb 2022 10:30:27 AM JST
; FORMAT={-:-/ absolute / metric / decimal}
; #@! TF.CreationDate,2022-02-10T10:30:27+09:00
; #@! TF.GenerationSoftware,Kicad,Pcbnew,6.99.0-unknown-fe82f2dd40~146~ubuntu20.04.1
; #@! TF.FileFunction,Plated,1,2,PTH
FMAT,2
METRIC
; #@! TA.AperFunction,Plated,PTH,ViaDrill
T1C0.400
; #@! TA.AperFunction,Plated,PTH,ComponentDrill
T2C0.800
; #@! TA.AperFunction,Plated,PTH,ComponentDrill
T3C0.813
; #@! TA.AperFunction,Plated,PTH,ComponentDrill
T4C1.000
; #@! TA.AperFunction,Plated,PTH,ComponentDrill
T5C1.100
; #@! TA.AperFunction,Plated,PTH,ComponentDrill
T6C1.829
; #@! TA.AperFunction,Plated,PTH,ComponentDrill
T7C2.200
%
G90
G05
T1
X147.803Y-99.135
X156.917Y-112.06
X157.39Y-112.787
X157.963Y-116.28
X176.108Y-92.218
X184.252Y-93.928
T2
X181.506Y-73.838
X184.506Y-73.838
X187.506Y-73.838
T3
X194.92Y-72.592
X194.92Y-82.752
X198.222Y-72.592
X198.222Y-82.752
X201.27Y-72.592
X201.27Y-82.752
X204.318Y-76.402
X204.318Y-78.942
T4
X152.985Y-85.8
X152.985Y-88.34
X152.985Y-90.88
X152.985Y-93.42
X152.985Y-95.96
X152.985Y-98.5
X159.478Y-104.385
X159.478Y-106.925
X165.471Y-114.253
X165.471Y-116.793
X165.486Y-119.338
X165.486Y-121.878
X168.011Y-114.253
X168.011Y-116.793
X168.026Y-119.338
X168.026Y-121.878
X170.551Y-114.253
X170.551Y-116.793
X170.566Y-119.338
X170.566Y-121.878
X173.091Y-114.253
X173.091Y-116.793
X173.106Y-119.338
X173.106Y-121.878
X175.631Y-114.253
X175.631Y-116.793
X175.646Y-119.338
X175.646Y-121.878
X178.171Y-114.253
X178.171Y-116.793
X178.186Y-119.338
X178.186Y-121.878
X180.711Y-114.253
X180.711Y-116.793
X180.726Y-119.338
X180.726Y-121.878
X182.474Y-106.247
X182.728Y-90.245
X183.251Y-114.253
X183.251Y-116.793
X183.266Y-119.338
X183.266Y-121.878
X185.014Y-106.247
X185.268Y-90.245
X185.791Y-114.253
X185.791Y-116.793
X185.806Y-119.338
X185.806Y-121.878
X188.331Y-114.253
X188.331Y-116.793
X188.346Y-119.338
X188.346Y-121.878
X190.871Y-114.253
X190.871Y-116.793
X190.886Y-119.338
X190.886Y-121.878
X191.068Y-90.47
X193.411Y-114.253
X193.411Y-116.793
X193.426Y-119.338
X193.426Y-121.878
X193.608Y-90.47
X195.951Y-114.253
X195.951Y-116.793
X195.966Y-119.338
X195.966Y-121.878
X196.148Y-90.47
X207.108Y-95.33
X207.108Y-97.87
X207.108Y-100.41
X207.493Y-90.499
X207.493Y-106.12
X210.033Y-90.499
X210.033Y-106.12
T5
X189.713Y-79.45
X189.713Y-81.74
X189.713Y-84.03
T6
X146.67Y-117.13
X153.418Y-114.59
X153.418Y-119.67
X201.178Y-114.61
X201.178Y-119.69
X207.926Y-117.15
T7
X178.256Y-73.838
X190.756Y-73.838
T0
M30
