G04 #@! TF.GenerationSoftware,KiCad,Pcbnew,6.99.0-unknown-fe82f2dd40~146~ubuntu20.04.1*
G04 #@! TF.CreationDate,2022-02-10T10:32:34+09:00*
G04 #@! TF.ProjectId,bGeigieZen V2,62476569-6769-4655-9a65-6e2056322e6b,V2.0.0*
G04 #@! TF.SameCoordinates,Original*
G04 #@! TF.FileFunction,Profile,NP*
%FSLAX46Y46*%
G04 Gerber Fmt 4.6, Leading zero omitted, Abs format (unit mm)*
G04 Created by KiCad (PCBNEW 6.99.0-unknown-fe82f2dd40~146~ubuntu20.04.1) date 2022-02-10 10:32:34*
%MOMM*%
%LPD*%
G01*
G04 APERTURE LIST*
G04 #@! TA.AperFunction,Profile*
%ADD10C,0.358429*%
G04 #@! TD*
G04 APERTURE END LIST*
D10*
X174598542Y-131255408D02*
X169939415Y-131255408D01*
X206704062Y-66820288D02*
X207136872Y-66916099D01*
X213353563Y-79125140D02*
X213276040Y-79248618D01*
X175634627Y-66829800D02*
X175778594Y-66871009D01*
X212772620Y-79987178D02*
X212336322Y-80760432D01*
X86387142Y-70198077D02*
X86662948Y-69864555D01*
X123523405Y-131212382D02*
X123375121Y-131188894D01*
X166893115Y-67811427D02*
X167669785Y-67351386D01*
X192923043Y-66665610D02*
X204922097Y-66665610D01*
X140505604Y-69061518D02*
X141391117Y-68838776D01*
X129953910Y-66916514D02*
X130094916Y-66966268D01*
X157165363Y-129026995D02*
X156301191Y-129316332D01*
X87583304Y-128980165D02*
X87261905Y-128686156D01*
X168621535Y-66924171D02*
X168762967Y-66875438D01*
X213276009Y-118578193D02*
X213354436Y-118701312D01*
X145492159Y-130955261D02*
X145352834Y-130901316D01*
X89774675Y-67507295D02*
X90177112Y-67329686D01*
X123972176Y-131255408D02*
X123822067Y-131245687D01*
X86127973Y-70543379D02*
X86387142Y-70198077D01*
X213298520Y-72028294D02*
X213463673Y-72422114D01*
X192033341Y-66790810D02*
X192178610Y-66755634D01*
X85272140Y-72028521D02*
X85457527Y-71643031D01*
X84663449Y-74066829D02*
X84740345Y-73646696D01*
X162603864Y-128641225D02*
X161693141Y-128544777D01*
X213946806Y-77504400D02*
X213922224Y-77646438D01*
X213353533Y-105249850D02*
X213276009Y-105373328D01*
X204922081Y-131255561D02*
X192923043Y-131255561D01*
X106827170Y-131049689D02*
X106683397Y-131091393D01*
X176200503Y-130899278D02*
X176061266Y-130953528D01*
X213557367Y-92962764D02*
X213621388Y-93093924D01*
X129667390Y-66829800D02*
X129811357Y-66871009D01*
X122654293Y-66924171D02*
X122795725Y-66875438D01*
X85009775Y-104866570D02*
X84950368Y-104734601D01*
X85272291Y-125893244D02*
X85107133Y-125499420D01*
X87308439Y-113725364D02*
X87409126Y-112852984D01*
X187358372Y-68838776D02*
X188224201Y-68555756D01*
X117521987Y-69061518D02*
X118407501Y-68838776D01*
X87409132Y-111098306D02*
X87308451Y-110225919D01*
X168903313Y-131091657D02*
X168759342Y-131050479D01*
X213777550Y-78204902D02*
X213730043Y-78341454D01*
X189876736Y-67811425D02*
X190653405Y-67351386D01*
X165253242Y-129316349D02*
X164389088Y-129027012D01*
X183748394Y-69361712D02*
X184662852Y-69323622D01*
X106827736Y-66871009D02*
X106970289Y-66916514D01*
X175921147Y-66916514D02*
X176062152Y-66966268D01*
X146955803Y-131255408D02*
X146805694Y-131245687D01*
X85554864Y-92088680D02*
X85798180Y-91714752D01*
X161693141Y-128544777D02*
X160777242Y-128512626D01*
X107523686Y-67140555D02*
X107657161Y-67206834D01*
X153216892Y-130899278D02*
X153077656Y-130953528D01*
X123672432Y-131231329D02*
X123523405Y-131212382D01*
X159850701Y-69336985D02*
X160764771Y-69361718D01*
X213981704Y-103343018D02*
X213966639Y-103486355D01*
X192772931Y-131245839D02*
X192623294Y-131231481D01*
X213730325Y-73231941D02*
X213830376Y-73646562D01*
X84840469Y-124689592D02*
X84740408Y-124274973D01*
X189075135Y-129670135D02*
X188236851Y-129316502D01*
X213562798Y-119084326D02*
X213623275Y-119216070D01*
X84610445Y-123429790D02*
X84581989Y-123000613D01*
X212336305Y-90941603D02*
X212772610Y-91714880D01*
X213991936Y-94627570D02*
X213991936Y-103199225D01*
X112076547Y-69096503D02*
X112974788Y-69248789D01*
X210987496Y-68941403D02*
X211308898Y-69235412D01*
X213607885Y-125097840D02*
X213463729Y-125499263D01*
X152359370Y-66760462D02*
X152505761Y-66792936D01*
X211430129Y-114587896D02*
X211665057Y-115435509D01*
X191746596Y-66875443D02*
X191889329Y-66830867D01*
X133315026Y-68597101D02*
X134177366Y-68879485D01*
X93648639Y-66665610D02*
X105647683Y-66665610D01*
X176201476Y-67020224D02*
X176338984Y-67078336D01*
X158050228Y-128801956D02*
X157165363Y-129026995D01*
X213426947Y-78999409D02*
X213353563Y-79125140D01*
X213426917Y-105124120D02*
X213353533Y-105249850D01*
X211665072Y-89310803D02*
X211967126Y-90138592D01*
X84845153Y-104465406D02*
X84799171Y-104328502D01*
X84648607Y-94055482D02*
X84677874Y-93914286D01*
X159861341Y-128544771D02*
X158950612Y-128641215D01*
X130771601Y-130643361D02*
X130640043Y-130712984D01*
X93648643Y-131255439D02*
X93197010Y-131252545D01*
X153355365Y-67078336D02*
X153490923Y-67140555D01*
X116636616Y-128641225D02*
X115725893Y-128544777D01*
X211309164Y-128685977D02*
X210987780Y-128980000D01*
X106683397Y-131091393D02*
X106538345Y-131128722D01*
X84632041Y-103627324D02*
X84610561Y-103484881D01*
X152063686Y-66708876D02*
X152211967Y-66732427D01*
X213922224Y-77646438D02*
X213892958Y-77787635D01*
X212336322Y-80760432D02*
X211967146Y-81563424D01*
X151765030Y-66675421D02*
X151914663Y-66689859D01*
X153078532Y-66966268D02*
X153217856Y-67020224D01*
X174598542Y-66665610D02*
X174748650Y-66675421D01*
X89381999Y-130218005D02*
X88999110Y-130003707D01*
X208796087Y-130414242D02*
X208393653Y-130591828D01*
X204922173Y-66665717D02*
X205373796Y-66668673D01*
X85074671Y-92830378D02*
X85143863Y-92702523D01*
X212772594Y-106111891D02*
X212336300Y-106885145D01*
X129811357Y-66871009D02*
X129953910Y-66916514D01*
X84663492Y-123854808D02*
X84610445Y-123429790D01*
X84578853Y-103199073D02*
X84578853Y-94627387D01*
X84610561Y-103484881D02*
X84592861Y-103342077D01*
X151614930Y-131255408D02*
X146955807Y-131255408D01*
X107917321Y-67351386D02*
X108688176Y-67833688D01*
X211161654Y-86728327D02*
X211262336Y-87600714D01*
X153217856Y-67020224D02*
X153355365Y-67078336D01*
X107110412Y-130953542D02*
X106969547Y-131003706D01*
X129953167Y-131003694D02*
X129810790Y-131049678D01*
X113883453Y-69336980D02*
X114797523Y-69361712D01*
X213496113Y-104996265D02*
X213426917Y-105124120D01*
X151914663Y-66689859D02*
X152063686Y-66708876D01*
X105647683Y-66665610D02*
X105797791Y-66675421D01*
X213015934Y-92088820D02*
X213276040Y-92453467D01*
X169939423Y-131255408D02*
X169789314Y-131245687D01*
X84892572Y-78478011D02*
X84843961Y-78342120D01*
X175920401Y-131003694D02*
X175778024Y-131049678D01*
X211907576Y-69864320D02*
X212183405Y-70197834D01*
X167798671Y-130644407D02*
X167669777Y-130570136D01*
X87261905Y-128686156D02*
X86954974Y-128378285D01*
X86603668Y-107688037D02*
X86234492Y-106885022D01*
X191047009Y-130781145D02*
X190913542Y-130714861D01*
X92305327Y-131174673D02*
X91866723Y-131101081D01*
X167669777Y-67351386D02*
X167934656Y-67217566D01*
X213920831Y-120180557D02*
X213945357Y-120322656D01*
X213945675Y-94051703D02*
X213968620Y-94193840D01*
X121962678Y-130714709D02*
X121831431Y-130644407D01*
X145359037Y-67032668D02*
X145497802Y-66976702D01*
X213859058Y-77927864D02*
X213820572Y-78066996D01*
X146955796Y-66665610D02*
X151614922Y-66665610D01*
X87140629Y-88463130D02*
X87308438Y-87600662D01*
X211262335Y-110225973D02*
X211161649Y-111098353D01*
X84711775Y-93774058D02*
X84750260Y-93634928D01*
X169489205Y-66701367D02*
X169638115Y-66683002D01*
X185587471Y-128641378D02*
X184676747Y-128544930D01*
X146211357Y-66755631D02*
X146357862Y-66725697D01*
X106244728Y-66732427D02*
X106392131Y-66760462D01*
X191889329Y-66830867D02*
X192033341Y-66790810D01*
X152359375Y-131161573D02*
X152212114Y-131189864D01*
X106538345Y-131128722D02*
X106392129Y-131161579D01*
X133317569Y-129316332D02*
X132479264Y-129669968D01*
X84962952Y-125097972D02*
X84840469Y-124689592D01*
X84892726Y-93225405D02*
X84949053Y-93091947D01*
X123822067Y-131245687D02*
X123672432Y-131231329D01*
X89775017Y-130414281D02*
X89381999Y-130218005D01*
X146804569Y-66670962D02*
X146955796Y-66665610D01*
X84677874Y-93914286D02*
X84711775Y-93774058D01*
X167929920Y-130714709D02*
X167798671Y-130644407D01*
X155462885Y-129669968D02*
X154655619Y-130087902D01*
X152505590Y-131128714D02*
X152359375Y-131161573D01*
X85074673Y-118955042D02*
X85143864Y-118827187D01*
X85294767Y-79248435D02*
X85213233Y-79126453D01*
X140520612Y-128801970D02*
X139620238Y-128641225D01*
X191182563Y-130843363D02*
X191047009Y-130781145D01*
X128631302Y-66665610D02*
X128781411Y-66675421D01*
X135066605Y-128801956D02*
X134181740Y-129026995D01*
X87308451Y-110225919D02*
X87140647Y-109363441D01*
X211430158Y-83238795D02*
X211262348Y-84101264D01*
X85143863Y-92702523D02*
X85217245Y-92576793D01*
X209944037Y-129771974D02*
X209572002Y-130003622D01*
X145221640Y-67091708D02*
X145359037Y-67032668D01*
X213015940Y-79613252D02*
X212772620Y-79987178D01*
X211262336Y-87600714D02*
X211430142Y-88463192D01*
X211430142Y-88463192D02*
X211665072Y-89310803D01*
X132479264Y-129669968D02*
X131671999Y-130087902D01*
X85004509Y-78744235D02*
X84945998Y-78612121D01*
X212336285Y-117066315D02*
X212772585Y-117839598D01*
X130234240Y-67020224D02*
X130371749Y-67078336D01*
X84578853Y-77074347D02*
X84578853Y-75353476D01*
X191188892Y-67091714D02*
X191326290Y-67032675D01*
X85457527Y-71643031D02*
X85662443Y-71266548D01*
X84578849Y-75353553D02*
X84581978Y-74920950D01*
X158942036Y-69248793D02*
X159850701Y-69336985D01*
X122238023Y-67091708D02*
X122375421Y-67032668D01*
X186472859Y-69061518D02*
X187358372Y-68838776D01*
X85662443Y-71266548D02*
X85886166Y-70899767D01*
X136877717Y-128544771D02*
X135966988Y-128641215D01*
X86603646Y-90138503D02*
X86905698Y-89310729D01*
X213991936Y-103199225D02*
X213981704Y-103343018D01*
X84589098Y-120608289D02*
X84604172Y-120464952D01*
X85143864Y-118827187D02*
X85217245Y-118701457D01*
X213879879Y-93771265D02*
X213915937Y-93910835D01*
X86234493Y-80760319D02*
X85798192Y-79987040D01*
X86954974Y-128378285D02*
X86663234Y-128057244D01*
X205373850Y-131252682D02*
X204922158Y-131255591D01*
X213968620Y-94193840D02*
X213984296Y-94337217D01*
X152937527Y-66916514D02*
X153078532Y-66966268D01*
X106244867Y-131189868D02*
X106096675Y-131213492D01*
X168342661Y-67032668D02*
X168481425Y-66976702D01*
X189882375Y-130088064D02*
X189075135Y-129670135D01*
X209571675Y-67917837D02*
X209943716Y-68149473D01*
X192472831Y-66701369D02*
X192621740Y-66683003D01*
X135966988Y-128641215D02*
X135066605Y-128801956D01*
X143909480Y-67811425D02*
X144686150Y-67351386D01*
X129522144Y-66792936D02*
X129667390Y-66829800D01*
X175047306Y-66708876D02*
X175195586Y-66732427D01*
X129810790Y-131049678D02*
X129667017Y-131091383D01*
X85107133Y-125499420D02*
X84962952Y-125097972D01*
X120925867Y-67811425D02*
X121702538Y-67351386D01*
X108688176Y-67833688D02*
X109494544Y-68248714D01*
X144686154Y-67351386D02*
X144951032Y-67217566D01*
X84740408Y-124274973D02*
X84663492Y-123854808D01*
X84843961Y-78342120D02*
X84799897Y-78204661D01*
X213276009Y-105373328D02*
X213015911Y-105737963D01*
X206265464Y-66746651D02*
X206704062Y-66820288D01*
X120114459Y-68213093D02*
X120925867Y-67811425D01*
X168063390Y-130780992D02*
X167929920Y-130714709D01*
X84663741Y-77643453D02*
X84638384Y-77501380D01*
X85457702Y-126278749D02*
X85272291Y-125893244D01*
X153755221Y-130643361D02*
X153623664Y-130712984D01*
X130640783Y-67206834D02*
X130772042Y-67277127D01*
X156301191Y-129316332D02*
X155462885Y-129669968D01*
X85662642Y-126655243D02*
X85457702Y-126278749D01*
X158950612Y-128641215D02*
X158050228Y-128801956D01*
X176338984Y-67078336D02*
X176474543Y-67140555D01*
X84578853Y-120752082D02*
X84589098Y-120608289D01*
X122514185Y-66976702D02*
X122654293Y-66924171D01*
X179284795Y-129316484D02*
X178446489Y-129670120D01*
X153884568Y-130570136D02*
X153755221Y-130643361D01*
X211308898Y-69235412D02*
X211615833Y-69543281D01*
X107522769Y-130778920D02*
X107387139Y-130841052D01*
X91866723Y-131101081D02*
X91433910Y-131005309D01*
X213113112Y-71642793D02*
X213298520Y-72028294D01*
X175195586Y-66732427D02*
X175342989Y-66760462D01*
X131671999Y-130087902D02*
X130900948Y-130570136D01*
X211161660Y-84973646D02*
X211128095Y-85850985D01*
X213891808Y-120039250D02*
X213920831Y-120180557D01*
X129375749Y-131161573D02*
X129228487Y-131189864D01*
X177639043Y-67833688D02*
X178445411Y-68248714D01*
X213463673Y-72422114D02*
X213607849Y-72823561D01*
X145497802Y-66976702D02*
X145637911Y-66924171D01*
X210304494Y-129523692D02*
X209944037Y-129771974D01*
X175778594Y-66871009D02*
X175921147Y-66916514D01*
X88999110Y-130003707D02*
X88627073Y-129772082D01*
X84750260Y-93634928D02*
X84793280Y-93497023D01*
X91433656Y-66916049D02*
X91866506Y-66820210D01*
X121702538Y-130570136D02*
X120931516Y-130087912D01*
X107387139Y-130841052D02*
X107249648Y-130899291D01*
X166081707Y-68213098D02*
X166893115Y-67811427D01*
X205821801Y-66695882D02*
X206265464Y-66746651D01*
X213858288Y-119898877D02*
X213891808Y-120039250D01*
X213907273Y-123854787D02*
X213830380Y-124274909D01*
X121967416Y-67217566D02*
X122238023Y-67091708D01*
X178445411Y-68248714D02*
X179282275Y-68597101D01*
X207982234Y-67171474D02*
X208393340Y-67329652D01*
X128781411Y-66675421D02*
X128931044Y-66689859D01*
X176062152Y-66966268D02*
X176201476Y-67020224D01*
X168475777Y-130955261D02*
X168336452Y-130901316D01*
X134181740Y-129026995D02*
X133317569Y-129316332D01*
X213777762Y-119621512D02*
X213820272Y-119759583D01*
X145079772Y-130780992D02*
X144946303Y-130714709D01*
X207982532Y-130750006D02*
X207563446Y-130888083D01*
X107249648Y-130899291D02*
X107110412Y-130953542D01*
X115725893Y-128544777D02*
X114809994Y-128512626D01*
X111193748Y-68879485D02*
X112076547Y-69096503D01*
X92748996Y-131225392D02*
X92305327Y-131174673D01*
X213276040Y-79248618D02*
X213015940Y-79613252D01*
X152794415Y-131049678D02*
X152650642Y-131091383D01*
X85073832Y-104996572D02*
X85009775Y-104866570D01*
X190653405Y-67351386D02*
X190918283Y-67217571D01*
X84604172Y-120464952D02*
X84624027Y-120322199D01*
X208795764Y-67507234D02*
X209188784Y-67703527D01*
X144951032Y-67217566D02*
X145221640Y-67091708D01*
X105947424Y-66689859D02*
X106096448Y-66708876D01*
X111198116Y-129026995D02*
X110333944Y-129316332D01*
X166091525Y-129669983D02*
X165253242Y-129316349D01*
X87409132Y-84973598D02*
X87308451Y-84101211D01*
X160777242Y-128512626D02*
X159861341Y-128544771D01*
X86603669Y-81563331D02*
X86234493Y-80760319D01*
X115711980Y-69323622D02*
X116621808Y-69223345D01*
X87140630Y-114587831D02*
X87308439Y-113725364D01*
X213730343Y-124689491D02*
X213607885Y-125097840D01*
X192325114Y-66725700D02*
X192472831Y-66701369D01*
X91433910Y-131005309D02*
X91007610Y-130888049D01*
X130640043Y-130712984D02*
X130506391Y-130778909D01*
X85798192Y-106111740D02*
X85554870Y-105737797D01*
X84760111Y-78065851D02*
X84724336Y-77925903D01*
X176607276Y-130712984D02*
X176473624Y-130778909D01*
X85217245Y-118701457D02*
X85294767Y-118577979D01*
X129080295Y-131213489D02*
X128931289Y-131232353D01*
X211967146Y-81563424D02*
X211665091Y-82391197D01*
X85886166Y-70899767D02*
X86127973Y-70543379D01*
X189065329Y-68213093D02*
X189876736Y-67811425D01*
X122795725Y-66875438D02*
X122938457Y-66830862D01*
X131671795Y-67833688D02*
X132478163Y-68248714D01*
X84740345Y-73646696D02*
X84840386Y-73232106D01*
X107917325Y-130570136D02*
X107787978Y-130643366D01*
X123227738Y-66755631D02*
X123374242Y-66725697D01*
X190913542Y-130714861D02*
X190782296Y-130644560D01*
X169049712Y-66790806D02*
X169194982Y-66755631D01*
X181925658Y-69248789D02*
X182834323Y-69336980D01*
X192325980Y-131189046D02*
X192178571Y-131161064D01*
X107656421Y-130712993D02*
X107522769Y-130778920D01*
X213621767Y-78609982D02*
X213561099Y-78741701D01*
X211967109Y-116263300D02*
X212336285Y-117066315D01*
X84711782Y-119898730D02*
X84750267Y-119759598D01*
X169788195Y-66670962D02*
X169939423Y-66665610D01*
X153354383Y-130841039D02*
X153216892Y-130899278D01*
X123374242Y-66725697D02*
X123521960Y-66701367D01*
X162589056Y-69223352D02*
X163489236Y-69061525D01*
X179282275Y-68597101D02*
X180144616Y-68879485D01*
X211907798Y-128057043D02*
X211616077Y-128378093D01*
X128631302Y-131255408D02*
X123972180Y-131255408D01*
X209943716Y-68149473D02*
X210304182Y-68397741D01*
X112082981Y-128801956D02*
X111198116Y-129026995D01*
X141405462Y-129027012D02*
X140520612Y-128801970D01*
X183760848Y-128512778D02*
X182844946Y-128544924D01*
X213991860Y-122568122D02*
X213988736Y-123000701D01*
X181934217Y-128641367D02*
X181033833Y-128802108D01*
X122375421Y-67032668D02*
X122514185Y-66976702D01*
X175489199Y-131128714D02*
X175342984Y-131161573D01*
X153884568Y-67351386D02*
X154655423Y-67833688D01*
X213561099Y-78741701D02*
X213496142Y-78871553D01*
X146507032Y-131212382D02*
X146358748Y-131188894D01*
X86905700Y-115435428D02*
X87140630Y-114587831D01*
X114797523Y-69361712D02*
X115711980Y-69323622D01*
X213015911Y-105737963D02*
X212772594Y-106111891D01*
X213988753Y-74920942D02*
X213991875Y-75353598D01*
X205373796Y-66668673D02*
X205821801Y-66695882D01*
X181027416Y-69096503D02*
X181925658Y-69248789D01*
X121831431Y-130644407D02*
X121702538Y-130570136D01*
X91007610Y-130888049D02*
X90588545Y-130749996D01*
X213946790Y-103629108D02*
X213922207Y-103771148D01*
X84657387Y-103769245D02*
X84632041Y-103627324D01*
X213738529Y-93360641D02*
X213790701Y-93496138D01*
X166898764Y-130087912D02*
X166091525Y-129669983D01*
X145922076Y-66830862D02*
X146066088Y-66790806D01*
X178446489Y-129670120D02*
X177639224Y-130088055D01*
X206265631Y-131174773D02*
X205821916Y-131225512D01*
X119285994Y-129316349D02*
X118421840Y-129027012D01*
X129228487Y-131189864D02*
X129080295Y-131213489D01*
X139620238Y-128641225D02*
X138709516Y-128544777D01*
X128781586Y-131246358D02*
X128631302Y-131255408D01*
X85107006Y-72422325D02*
X85272140Y-72028521D01*
X84589095Y-94483599D02*
X84604168Y-94340267D01*
X213777527Y-104329615D02*
X213730018Y-104466167D01*
X212183604Y-127723519D02*
X211907798Y-128057043D01*
X213730018Y-104466167D02*
X213678073Y-104601237D01*
X107787978Y-130643366D02*
X107656421Y-130712993D01*
X152505761Y-66792936D02*
X152651007Y-66829800D01*
X85068373Y-78874138D02*
X85004509Y-78744235D01*
X213837976Y-93633023D02*
X213879879Y-93771265D01*
X208393653Y-130591828D02*
X207982532Y-130750006D01*
X93197010Y-131252545D02*
X92748996Y-131225392D01*
X213490345Y-92833108D02*
X213557367Y-92962764D01*
X86954671Y-69543506D02*
X87261586Y-69235623D01*
X213820550Y-104191709D02*
X213777527Y-104329615D01*
X191742954Y-131050631D02*
X191600398Y-131005150D01*
X87308438Y-87600662D02*
X87409125Y-86728279D01*
X84840785Y-93360473D02*
X84892726Y-93225405D01*
X84581978Y-74920950D02*
X84610419Y-74491812D01*
X213463729Y-125499263D02*
X213298597Y-125893066D01*
X144815055Y-130644407D02*
X144686161Y-130570136D01*
X213679262Y-119349612D02*
X213730758Y-119484807D01*
X117536989Y-128801970D02*
X116636616Y-128641225D01*
X213965384Y-120465403D02*
X213980911Y-120608654D01*
X85798181Y-117839447D02*
X86234475Y-117066192D01*
X88266611Y-129523820D02*
X87918447Y-129259617D01*
X88626718Y-68149608D02*
X88998756Y-67917949D01*
X85554864Y-118213374D02*
X85798181Y-117839447D01*
X128931289Y-131232353D02*
X128781586Y-131246358D01*
X169341487Y-66725697D02*
X169489205Y-66701367D01*
X160764771Y-69361718D02*
X161679229Y-69323628D01*
X116621808Y-69223345D02*
X117521987Y-69061518D01*
X213960314Y-74491755D02*
X213988753Y-74920942D01*
X92748873Y-66695750D02*
X93196944Y-66668515D01*
X146505580Y-66701367D02*
X146654489Y-66683002D01*
X213820272Y-119759583D02*
X213858288Y-119898877D01*
X161679229Y-69323628D02*
X162589056Y-69223352D01*
X84578853Y-122567939D02*
X84578853Y-120752082D01*
X146656059Y-131231329D02*
X146507032Y-131212382D01*
X122096147Y-130780992D02*
X121962678Y-130714709D01*
X106096675Y-131213492D02*
X105947670Y-131232354D01*
X88627073Y-129772082D02*
X88266611Y-129523820D01*
X109495639Y-129669968D02*
X108688374Y-130087902D01*
X84950368Y-104734601D02*
X84895523Y-104600826D01*
X87442690Y-85850940D02*
X87409132Y-84973598D01*
X108688374Y-130087902D02*
X107917323Y-130570136D01*
X87409126Y-112852984D02*
X87442690Y-111975646D01*
X152936792Y-131003694D02*
X152794415Y-131049678D01*
X153490923Y-67140555D02*
X153624398Y-67206834D01*
X191605164Y-66924178D02*
X191746596Y-66875443D01*
X87140647Y-109363441D02*
X86905719Y-108515829D01*
X142269615Y-129316349D02*
X141405462Y-129027012D01*
X138695597Y-69323622D02*
X139605425Y-69223345D01*
X211665057Y-115435509D02*
X211967109Y-116263300D01*
X165240579Y-68555761D02*
X166081707Y-68213098D01*
X85009718Y-92960229D02*
X85074671Y-92830378D01*
X107388127Y-67078336D02*
X107523686Y-67140555D01*
X176473624Y-130778909D02*
X176337994Y-130841039D01*
X135060165Y-69096503D02*
X135958406Y-69248789D01*
X119273331Y-68555756D02*
X120114459Y-68213093D01*
X136867070Y-69336980D02*
X137781140Y-69361712D01*
X84750267Y-119759598D02*
X84793286Y-119621692D01*
X212908298Y-126655040D02*
X212684576Y-127021824D01*
X84624027Y-120322199D02*
X84648613Y-120180159D01*
X114809994Y-128512626D02*
X113894093Y-128544771D01*
X86387407Y-127723726D02*
X86128218Y-127378424D01*
X107788419Y-67277127D02*
X107917325Y-67351386D01*
X211128095Y-85850985D02*
X211161654Y-86728327D01*
X192178610Y-66755634D02*
X192325114Y-66725700D01*
X207563446Y-130888083D02*
X207137119Y-131005365D01*
X145633166Y-131004998D02*
X145492159Y-130955261D01*
X105797791Y-66675421D02*
X105947424Y-66689859D01*
X86128218Y-127378424D02*
X85886388Y-127022032D01*
X207563171Y-67033392D02*
X207982234Y-67171474D01*
X213354436Y-118701312D02*
X213428377Y-118826803D01*
X129228349Y-66732427D02*
X129375752Y-66760462D01*
X146654489Y-66683002D02*
X146804569Y-66670962D01*
X123521960Y-66701367D02*
X123670870Y-66683002D01*
X169789314Y-131245687D02*
X169639679Y-131231329D01*
X112974788Y-69248789D02*
X113883453Y-69336980D01*
X84799897Y-78204661D02*
X84760111Y-78065851D01*
X123227713Y-131160912D02*
X123081317Y-131128483D01*
X207136872Y-66916099D02*
X207563171Y-67033392D01*
X85798192Y-79987040D02*
X85554870Y-79613099D01*
X86234475Y-117066192D02*
X86603648Y-116263201D01*
X174898283Y-66689859D02*
X175047306Y-66708876D01*
X122369208Y-130901316D02*
X122231701Y-130843211D01*
X87582971Y-68941599D02*
X87918103Y-68662126D01*
X137781140Y-69361712D02*
X138695597Y-69323622D01*
X143915137Y-130087912D02*
X143107898Y-129669983D01*
X185572679Y-69223345D02*
X186472859Y-69061518D01*
X123081317Y-131128483D02*
X122936066Y-131091657D01*
X123820949Y-66670962D02*
X123972176Y-66665610D01*
X145775722Y-131050479D02*
X145633166Y-131004998D01*
X153623664Y-130712984D02*
X153490012Y-130778909D01*
X130094916Y-66966268D02*
X130234240Y-67020224D01*
X90588545Y-130749996D02*
X90177440Y-130591843D01*
X191326290Y-67032675D02*
X191465054Y-66976708D01*
X84624021Y-94197518D02*
X84648607Y-94055482D01*
X213420795Y-92704988D02*
X213490345Y-92833108D01*
X87918447Y-129259617D02*
X87583304Y-128980165D01*
X213981719Y-77218318D02*
X213966655Y-77361651D01*
X177639224Y-130088055D02*
X176868172Y-130570289D01*
X84638384Y-77501380D02*
X84615962Y-77359028D01*
X106538523Y-66792936D02*
X106683769Y-66829800D01*
X181033833Y-128802108D02*
X180148967Y-129027147D01*
X86905698Y-89310729D02*
X87140629Y-88463130D01*
X141391117Y-68838776D02*
X142256946Y-68555756D01*
X84615962Y-77359028D02*
X84578853Y-77074347D01*
X168481425Y-66976702D02*
X168621535Y-66924171D01*
X213945357Y-120322656D02*
X213965384Y-120465403D01*
X112983364Y-128641215D02*
X112082981Y-128801956D01*
X190918283Y-67217571D02*
X191188892Y-67091714D01*
X122231701Y-130843211D02*
X122096147Y-130780992D01*
X85886388Y-127022032D02*
X85662642Y-126655243D01*
X123375121Y-131188894D02*
X123227713Y-131160912D01*
X84610419Y-74491812D02*
X84663449Y-74066829D01*
X182834323Y-69336980D02*
X183748394Y-69361712D01*
X175342984Y-131161573D02*
X175195723Y-131189864D01*
X86662948Y-69864555D02*
X86954671Y-69543506D01*
X192621740Y-66683003D02*
X192771818Y-66670963D01*
X175342989Y-66760462D02*
X175489381Y-66792936D01*
X106969547Y-131003706D02*
X106827170Y-131049689D01*
X209572002Y-130003622D02*
X209189111Y-130217942D01*
X207137119Y-131005365D02*
X206704273Y-131101160D01*
X156298655Y-68597103D02*
X157160995Y-68879488D01*
X84581989Y-123000613D02*
X84578849Y-122567969D01*
X84692302Y-77785032D02*
X84663741Y-77643453D01*
X142256946Y-68555756D02*
X143098073Y-68213093D01*
X175489381Y-66792936D02*
X175634627Y-66829800D01*
X110333944Y-129316332D02*
X109495639Y-129669968D01*
X86663234Y-128057244D02*
X86387407Y-127723726D01*
X158043795Y-69096506D02*
X158942036Y-69248793D01*
X213907280Y-74066731D02*
X213960314Y-74491755D01*
X85137858Y-79001615D02*
X85068373Y-78874138D01*
X175634251Y-131091383D02*
X175489199Y-131128714D01*
X85142625Y-105124448D02*
X85073832Y-104996572D01*
X209189111Y-130217942D02*
X208796087Y-130414242D01*
X84799171Y-104328502D02*
X84757491Y-104190272D01*
X213922207Y-103771148D02*
X213892940Y-103912347D01*
X212183405Y-70197834D02*
X212442597Y-70543131D01*
X130506391Y-130778909D02*
X130370760Y-130841039D01*
X152651007Y-66829800D02*
X152794974Y-66871009D01*
X213991951Y-77074530D02*
X213981719Y-77218318D01*
X212772585Y-117839598D02*
X213015906Y-118213541D01*
X192178571Y-131161064D02*
X192032175Y-131128636D01*
X151914916Y-131232353D02*
X151765214Y-131246358D01*
X175195723Y-131189864D02*
X175047531Y-131213489D01*
X145352834Y-130901316D02*
X145215327Y-130843211D01*
X213991936Y-120752265D02*
X213991936Y-122568152D01*
X84793280Y-93497023D02*
X84840785Y-93360473D01*
X211161643Y-112853032D02*
X211262325Y-113725419D01*
X182844946Y-128544924D02*
X181934217Y-128641367D01*
X129080068Y-66708876D02*
X129228349Y-66732427D01*
X105797967Y-131246358D02*
X105647683Y-131255408D01*
X168198945Y-130843211D02*
X168063390Y-130780992D01*
X152212114Y-131189864D02*
X152063922Y-131213489D01*
X123082469Y-66790806D02*
X123227738Y-66755631D01*
X213276009Y-92453467D02*
X213420795Y-92704988D01*
X146211340Y-131160912D02*
X146064944Y-131128483D01*
X128931044Y-66689859D02*
X129080068Y-66708876D01*
X212442597Y-70543131D02*
X212684427Y-70899519D01*
X213966655Y-77361651D02*
X213946806Y-77504400D01*
X213428377Y-118826803D02*
X213497831Y-118954522D01*
X84677881Y-120038960D02*
X84711782Y-119898730D01*
X213561070Y-104866413D02*
X213496113Y-104996265D01*
X213892940Y-103912347D02*
X213859038Y-104052577D01*
X213991951Y-75353660D02*
X213991951Y-77074530D01*
X211967126Y-90138592D02*
X212336305Y-90941603D01*
X213830380Y-124274909D02*
X213730343Y-124689491D01*
X113894093Y-128544771D02*
X112983364Y-128641215D01*
X211161649Y-111098353D02*
X211128085Y-111975692D01*
X211262348Y-84101264D02*
X211161660Y-84973646D01*
X84840386Y-73232106D02*
X84962847Y-72823751D01*
X212684427Y-70899519D02*
X212908173Y-71266303D01*
X153077656Y-130953528D02*
X152936792Y-131003694D01*
X84949057Y-119216612D02*
X85009721Y-119084894D01*
X85294767Y-105373175D02*
X85216241Y-105250036D01*
X168616785Y-131004998D02*
X168475777Y-130955261D01*
X176474543Y-67140555D02*
X176608018Y-67206834D01*
X84757491Y-104190272D02*
X84720025Y-104050880D01*
X86905719Y-108515829D02*
X86603668Y-107688037D01*
X153624398Y-67206834D02*
X153755655Y-67277127D01*
X210304182Y-68397741D02*
X210652349Y-68661948D01*
X184676747Y-128544930D02*
X183760848Y-128512778D01*
X84895523Y-104600826D02*
X84845153Y-104465406D01*
X84724336Y-77925903D02*
X84692302Y-77785032D01*
X90177112Y-67329686D02*
X90588236Y-67171480D01*
X91866506Y-66820210D02*
X92305153Y-66746546D01*
X210652349Y-68661948D02*
X210987496Y-68941403D01*
X169194982Y-66755631D02*
X169341487Y-66725697D01*
X212772610Y-91714880D02*
X213015934Y-92088820D01*
X85554870Y-79613099D02*
X85294767Y-79248450D01*
X90588236Y-67171480D02*
X91007325Y-67033370D01*
X107250619Y-67020224D02*
X107388127Y-67078336D01*
X213621740Y-104734695D02*
X213561070Y-104866413D01*
X169939415Y-66665610D02*
X174598542Y-66665610D01*
X146066088Y-66790806D02*
X146211357Y-66755631D01*
X191459391Y-130955414D02*
X191320068Y-130901469D01*
X122649539Y-131004998D02*
X122508532Y-130955261D01*
X130507308Y-67140555D02*
X130640783Y-67206834D01*
X151765214Y-131246358D02*
X151614930Y-131255408D01*
X84686685Y-103910483D02*
X84657387Y-103769245D01*
X213681933Y-93226559D02*
X213738529Y-93360641D01*
X213496142Y-78871553D02*
X213426947Y-78999409D01*
X86234492Y-106885022D02*
X85798192Y-106111740D01*
X213607849Y-72823561D02*
X213730325Y-73231941D01*
X213497831Y-118954522D02*
X213562798Y-119084326D01*
X213960299Y-123429820D02*
X213907273Y-123854787D01*
X84793286Y-119621692D02*
X84840790Y-119485140D01*
X154655619Y-130087902D02*
X153884568Y-130570136D01*
X144686158Y-130570136D02*
X143915137Y-130087912D01*
X130371749Y-67078336D02*
X130507308Y-67140555D01*
X87140648Y-83238733D02*
X86905720Y-82391121D01*
X85554870Y-105737797D02*
X85294767Y-105373145D01*
X212908173Y-71266303D02*
X213113112Y-71642793D01*
X84945998Y-78612121D02*
X84892572Y-78478011D01*
X106683769Y-66829800D02*
X106827736Y-66871009D01*
X88266260Y-68397898D02*
X88626718Y-68149608D01*
X123670870Y-66683002D02*
X123820949Y-66670962D01*
X107657161Y-67206834D02*
X107788419Y-67277127D01*
X134177366Y-68879485D02*
X135060165Y-69096503D01*
X211615833Y-69543281D02*
X211907576Y-69864320D01*
X211128085Y-111975692D02*
X211161643Y-112853032D01*
X175047531Y-131213489D02*
X174898526Y-131232353D01*
X93196944Y-66668515D02*
X93648643Y-66665534D01*
X85294767Y-118578009D02*
X85554864Y-118213374D01*
X213678098Y-78476523D02*
X213621767Y-78609982D01*
X191320068Y-130901469D02*
X191182563Y-130843363D01*
X176739275Y-67277127D02*
X176868180Y-67351386D01*
X213830376Y-73646562D02*
X213907280Y-74066731D01*
X211967126Y-107688137D02*
X211665074Y-108515909D01*
X191600398Y-131005150D02*
X191459391Y-130955414D01*
X92305153Y-66746546D02*
X92748873Y-66695750D01*
X84604168Y-94340267D02*
X84624021Y-94197518D01*
X213113212Y-126278556D02*
X212908298Y-126655040D01*
X87442690Y-111975646D02*
X87409132Y-111098306D01*
X154655423Y-67833688D02*
X155461791Y-68248715D01*
X87261586Y-69235623D02*
X87582971Y-68941599D01*
X129667017Y-131091383D02*
X129521964Y-131128714D01*
X176868180Y-130570136D02*
X176738833Y-130643361D01*
X138709516Y-128544777D02*
X137793617Y-128512626D01*
X168759342Y-131050479D02*
X168616785Y-131004998D01*
X122938457Y-66830862D02*
X123082469Y-66790806D01*
X211262325Y-113725419D02*
X211430129Y-114587896D01*
X213966639Y-103486355D02*
X213946790Y-103629108D01*
X164389088Y-129027012D02*
X163504238Y-128801970D01*
X211616077Y-128378093D02*
X211309164Y-128685977D01*
X164374749Y-68838782D02*
X165240579Y-68555761D01*
X213015906Y-118213541D02*
X213276009Y-118578193D01*
X122508532Y-130955261D02*
X122369208Y-130901316D01*
X135958406Y-69248789D02*
X136867070Y-69336980D01*
X188236851Y-129316502D02*
X187372696Y-129027164D01*
X212684576Y-127021824D02*
X212442771Y-127378215D01*
X118421840Y-129027012D02*
X117536989Y-128801970D01*
X187372696Y-129027164D02*
X186487845Y-128802123D01*
X84892730Y-119350071D02*
X84949057Y-119216612D01*
X152650642Y-131091383D02*
X152505590Y-131128714D01*
X146805694Y-131245687D02*
X146656059Y-131231329D01*
X190653397Y-130570289D02*
X189882375Y-130088064D01*
X87918103Y-68662126D02*
X88266260Y-68397898D01*
X180148967Y-129027147D02*
X179284795Y-129316484D01*
X168905700Y-66830862D02*
X169049712Y-66790806D01*
X213621388Y-93093924D02*
X213681933Y-93226559D01*
X174748824Y-131246358D02*
X174598542Y-131255408D01*
X213730043Y-78341454D02*
X213678098Y-78476523D01*
X169048563Y-131128483D02*
X168903313Y-131091657D01*
X86905720Y-82391121D02*
X86603669Y-81563331D01*
X206704273Y-131101160D02*
X206265631Y-131174773D01*
X176738833Y-130643361D02*
X176607276Y-130712984D01*
X105647683Y-131255408D02*
X93648638Y-131255408D01*
X192474265Y-131212535D02*
X192325980Y-131189046D01*
X118407501Y-68838776D02*
X119273331Y-68555756D01*
X88998756Y-67917949D02*
X89381649Y-67703613D01*
X213730758Y-119484807D02*
X213777762Y-119621512D01*
X84592861Y-103342077D02*
X84578853Y-103199073D01*
X84949053Y-93091947D02*
X85009718Y-92960229D01*
X176061266Y-130953528D02*
X175920401Y-131003694D01*
X212336300Y-106885145D02*
X211967126Y-107688137D01*
X213984296Y-94337217D02*
X213992232Y-94481803D01*
X180144616Y-68879485D02*
X181027416Y-69096503D01*
X192623294Y-131231481D02*
X192474265Y-131212535D01*
X213915937Y-93910835D02*
X213945675Y-94051703D01*
X146064944Y-131128483D02*
X145919693Y-131091657D01*
X121702538Y-67351386D02*
X121967416Y-67217566D01*
X85009721Y-119084894D02*
X85074673Y-118955042D01*
X145779343Y-66875438D02*
X145922076Y-66830862D01*
X84962847Y-72823751D02*
X85107006Y-72422325D01*
X105947670Y-131232354D02*
X105797967Y-131246358D01*
X167669785Y-130570136D02*
X166898764Y-130087912D01*
X84578853Y-94627387D02*
X84589095Y-94483599D01*
X145919693Y-131091657D02*
X145775722Y-131050479D01*
X176337994Y-130841039D02*
X176200503Y-130899278D01*
X211430144Y-109363506D02*
X211262335Y-110225973D01*
X190782296Y-130644560D02*
X190653405Y-130570289D01*
X157160995Y-68879488D02*
X158043795Y-69096506D01*
X192771818Y-66670963D02*
X192923043Y-66665610D01*
X213980911Y-120608654D02*
X213991936Y-120752265D01*
X169639679Y-131231329D02*
X169490652Y-131212382D01*
X167934656Y-67217566D02*
X168205263Y-67091708D01*
X168762967Y-66875438D02*
X168905700Y-66830862D01*
X106970289Y-66916514D02*
X107111294Y-66966268D01*
X110331407Y-68597101D02*
X111193748Y-68879485D01*
X132478163Y-68248714D02*
X133315026Y-68597101D01*
X213678073Y-104601237D02*
X213621740Y-104734695D01*
X213859038Y-104052577D02*
X213820550Y-104191709D01*
X152063922Y-131213489D02*
X151914916Y-131232353D01*
X213820572Y-78066996D02*
X213777550Y-78204902D01*
X186487845Y-128802123D02*
X185587471Y-128641378D01*
X210987780Y-128980000D02*
X210652649Y-129259470D01*
X91007325Y-67033370D02*
X91433656Y-66916049D01*
X146357862Y-66725697D02*
X146505580Y-66701367D01*
X89381649Y-67703613D02*
X89774675Y-67507295D01*
X169194960Y-131160912D02*
X169048563Y-131128483D01*
X85216241Y-105250036D02*
X85142625Y-105124448D01*
X87308451Y-84101211D02*
X87140648Y-83238733D01*
X192923043Y-131255561D02*
X192772931Y-131245839D01*
X213992232Y-94481803D02*
X213991951Y-94627570D01*
X145215327Y-130843211D02*
X145079772Y-130780992D01*
X107111294Y-66966268D02*
X107250619Y-67020224D01*
X123972180Y-66665610D02*
X128631302Y-66665610D01*
X213790701Y-93496138D02*
X213837976Y-93633023D01*
X188224201Y-68555756D02*
X189065329Y-68213093D01*
X137793617Y-128512626D02*
X136877717Y-128544771D01*
X213892958Y-77787635D02*
X213859058Y-77927864D01*
X139605425Y-69223345D02*
X140505604Y-69061518D01*
X106096448Y-66708876D02*
X106244728Y-66732427D01*
X143107898Y-129669983D02*
X142269615Y-129316349D01*
X151614922Y-66665610D02*
X151765030Y-66675421D01*
X120931516Y-130087912D02*
X120124277Y-129669983D01*
X109494544Y-68248714D02*
X110331407Y-68597101D01*
X211665091Y-82391197D02*
X211430158Y-83238795D01*
X175778024Y-131049678D02*
X175634251Y-131091383D01*
X152211967Y-66732427D02*
X152359370Y-66760462D01*
X163489236Y-69061525D02*
X164374749Y-68838782D01*
X176608018Y-67206834D02*
X176739275Y-67277127D01*
X174748650Y-66675421D02*
X174898283Y-66689859D01*
X129521964Y-131128714D02*
X129375749Y-131161573D01*
X168336452Y-130901316D02*
X168198945Y-130843211D01*
X191465054Y-66976708D02*
X191605164Y-66924178D01*
X130094032Y-130953528D02*
X129953167Y-131003694D01*
X176868187Y-67351386D02*
X177639043Y-67833688D01*
X130772042Y-67277127D02*
X130900948Y-67351386D01*
X130370760Y-130841039D02*
X130233269Y-130899278D01*
X87409125Y-86728279D02*
X87442690Y-85850940D01*
X84840790Y-119485140D02*
X84892730Y-119350071D01*
X192032175Y-131128636D02*
X191886924Y-131091809D01*
X211665074Y-108515909D02*
X211430144Y-109363506D01*
X205821916Y-131225512D02*
X205373850Y-131252682D01*
X85294767Y-92453315D02*
X85554864Y-92088680D01*
X184662852Y-69323622D02*
X185572679Y-69223345D01*
X130900948Y-130570136D02*
X130771601Y-130643361D01*
X213988736Y-123000701D02*
X213960299Y-123429820D01*
X169638115Y-66683002D02*
X169788195Y-66670962D01*
X130900940Y-67351386D02*
X131671795Y-67833688D01*
X84720025Y-104050880D02*
X84686685Y-103910483D01*
X155461791Y-68248715D02*
X156298655Y-68597103D01*
X122792096Y-131050479D02*
X122649539Y-131004998D01*
X213298597Y-125893066D02*
X213113212Y-126278556D01*
X90177440Y-130591843D02*
X89775017Y-130414281D01*
X169342367Y-131188894D02*
X169194960Y-131160912D01*
X213623275Y-119216070D02*
X213679262Y-119349612D01*
X208393340Y-67329652D02*
X208795764Y-67507234D01*
X163504238Y-128801970D02*
X162603864Y-128641225D01*
X122936066Y-131091657D02*
X122792096Y-131050479D01*
X85217245Y-92576793D02*
X85294767Y-92453315D01*
X144946303Y-130714709D02*
X144815055Y-130644407D01*
X153490012Y-130778909D02*
X153354383Y-130841039D01*
X174898526Y-131232353D02*
X174748824Y-131246358D01*
X84648613Y-120180159D02*
X84677881Y-120038960D01*
X209188784Y-67703527D02*
X209571675Y-67917837D01*
X152794974Y-66871009D02*
X152937527Y-66916514D01*
X106392129Y-131161579D02*
X106244867Y-131189868D01*
X168205263Y-67091708D02*
X168342661Y-67032668D01*
X210652649Y-129259470D02*
X210304494Y-129523692D01*
X146358748Y-131188894D02*
X146211340Y-131160912D01*
X153755655Y-67277127D02*
X153884560Y-67351386D01*
X86234474Y-90941496D02*
X86603646Y-90138503D01*
X191886924Y-131091809D02*
X191742954Y-131050631D01*
X130233269Y-130899278D02*
X130094032Y-130953528D01*
X106392131Y-66760462D02*
X106538523Y-66792936D01*
X143098073Y-68213093D02*
X143909480Y-67811425D01*
X169490652Y-131212382D02*
X169342367Y-131188894D01*
X145637911Y-66924171D02*
X145779343Y-66875438D01*
X129375752Y-66760462D02*
X129522144Y-66792936D01*
X120124277Y-129669983D02*
X119285994Y-129316349D01*
X86603648Y-116263201D02*
X86905700Y-115435428D01*
X212442771Y-127378215D02*
X212183604Y-127723519D01*
X85213233Y-79126453D02*
X85137858Y-79001615D01*
X85798180Y-91714752D02*
X86234474Y-90941496D01*
M02*
