M48
INCH,TZ
T1C0.0157
T2C0.0315
T3C0.0315
T4C0.0394
T5C0.0720
T6C0.0866
%
G90
G05
T1
X57602Y-38670
X58776Y-36130
X66987Y-40409
T2
X56840Y-45739
X57160Y-46920
X58660Y-46659
T3
X62381Y-44948
X62381Y-45736
X62381Y-46523
X62381Y-47311
X71459Y-29070
X72640Y-29070
X73821Y-29070
T4
X41690Y-45830
X41690Y-46830
X42690Y-45830
X42690Y-46830
X43690Y-45830
X43690Y-46830
X44690Y-45830
X44690Y-46830
X45690Y-45830
X45690Y-46830
X46690Y-45830
X46690Y-46830
X47690Y-45830
X47690Y-46830
X48690Y-45830
X48690Y-46830
X49690Y-45830
X49690Y-46830
X50690Y-45830
X50690Y-46830
X51690Y-45830
X51690Y-46830
X52690Y-45830
X52690Y-46830
X53690Y-45830
X53690Y-46830
X54690Y-45830
X54690Y-46830
X55690Y-45830
X55690Y-46830
X60230Y-33780
X60230Y-34780
X60230Y-35780
X60230Y-36780
X60230Y-37780
X60230Y-38780
X63434Y-41096
X63434Y-42096
X72060Y-35600
X72072Y-36815
X72100Y-40112
X72100Y-41280
X75223Y-35618
X76223Y-35618
X77223Y-35618
X81414Y-35615
X81415Y-41315
X81539Y-37531
X81539Y-38531
X81539Y-39531
X82414Y-35615
X82415Y-41315
T5
X57744Y-46114
X60401Y-45114
X60401Y-47114
X78052Y-45118
X78052Y-47118
X79302Y-45118
X79302Y-47122
X80802Y-46118
X82052Y-46118
T6
X70179Y-29070
X75101Y-29070
M30
