M48
; DRILL file {KiCad 5.99.0-unknown-a61ea1f~89~ubuntu20.04.1} date Wed Jul 29 14:39:52 2020
; FORMAT={-:-/ absolute / inch / decimal}
; #@! TF.CreationDate,2020-07-29T14:39:52+09:00
; #@! TF.GenerationSoftware,Kicad,Pcbnew,5.99.0-unknown-a61ea1f~89~ubuntu20.04.1
; #@! TF.FileFunction,Plated,1,2,PTH
FMAT,2
INCH
T1C0.0315
T2C0.0320
T3C0.0394
T4C0.0720
T5C0.0866
T6C0.1181
%
G90
G05
T1
X7.1159Y-2.998
X7.234Y-2.998
X7.3521Y-2.998
T2
X7.119Y-3.388
X7.519Y-3.388
X7.119Y-3.238
X7.519Y-3.238
X7.804Y-3.388
X7.904Y-3.388
T3
X7.464Y-3.583
X7.564Y-3.583
X6.364Y-4.7063
X6.464Y-4.7063
X6.564Y-4.7063
X6.664Y-4.7063
X6.764Y-4.7063
X6.864Y-4.7063
X6.964Y-4.7063
X7.064Y-4.7063
X7.164Y-4.7063
X7.264Y-4.7063
X7.364Y-4.7063
X7.464Y-4.7063
X7.564Y-4.7063
X7.664Y-4.7063
X7.764Y-4.7063
X7.864Y-4.7063
X7.964Y-4.7063
X8.064Y-4.7063
X6.364Y-4.828
X6.464Y-4.828
X6.564Y-4.828
X6.664Y-4.828
X6.764Y-4.828
X6.864Y-4.828
X6.964Y-4.828
X7.064Y-4.828
X7.164Y-4.828
X7.264Y-4.828
X7.364Y-4.828
X7.464Y-4.828
X7.564Y-4.828
X7.664Y-4.828
X7.764Y-4.828
X7.864Y-4.828
X7.964Y-4.828
X8.064Y-4.828
X6.364Y-4.463
X6.464Y-4.463
X6.564Y-4.463
X6.664Y-4.463
X6.764Y-4.463
X6.864Y-4.463
X6.964Y-4.463
X7.064Y-4.463
X7.164Y-4.463
X7.264Y-4.463
X7.364Y-4.463
X7.464Y-4.463
X7.564Y-4.463
X7.664Y-4.463
X7.764Y-4.463
X7.864Y-4.463
X7.964Y-4.463
X8.064Y-4.463
X6.364Y-4.5846
X6.464Y-4.5846
X6.564Y-4.5846
X6.664Y-4.5846
X6.764Y-4.5846
X6.864Y-4.5846
X6.964Y-4.5846
X7.064Y-4.5846
X7.164Y-4.5846
X7.264Y-4.5846
X7.364Y-4.5846
X7.464Y-4.5846
X7.564Y-4.5846
X7.664Y-4.5846
X7.764Y-4.5846
X7.864Y-4.5846
X7.964Y-4.5846
X8.064Y-4.5846
X6.864Y-3.433
X6.864Y-3.533
X6.864Y-3.633
X6.864Y-3.733
X4.0946Y-4.5895
X4.0946Y-4.6895
X4.1946Y-4.5895
X4.1946Y-4.6895
X4.2946Y-4.5895
X4.2946Y-4.6895
X4.3946Y-4.5895
X4.3946Y-4.6895
X4.4946Y-4.5895
X4.4946Y-4.6895
X4.5946Y-4.5895
X4.5946Y-4.6895
X4.6946Y-4.5895
X4.6946Y-4.6895
X4.7946Y-4.5895
X4.7946Y-4.6895
X4.8946Y-4.5895
X4.8946Y-4.6895
X4.9946Y-4.5895
X4.9946Y-4.6895
X5.0946Y-4.5895
X5.0946Y-4.6895
X5.1946Y-4.5895
X5.1946Y-4.6895
X5.2946Y-4.5895
X5.2946Y-4.6895
X5.3946Y-4.5895
X5.3946Y-4.6895
X5.4946Y-4.5895
X5.4946Y-4.6895
X8.054Y-3.583
X8.154Y-3.583
X8.054Y-4.173
X8.154Y-4.173
X7.464Y-4.173
X7.564Y-4.173
X6.534Y-3.938
X6.534Y-4.038
X6.534Y-4.138
T4
X5.5782Y-3.0576
X5.8439Y-2.9576
X5.8439Y-3.1576
X7.7242Y-2.9583
X7.7242Y-3.1583
X7.9898Y-3.0583
T5
X6.988Y-2.998
X7.4801Y-2.998
T6
X3.554Y-4.968
X6.794Y-4.968
X3.564Y-2.848
X8.234Y-4.968
X8.234Y-2.848
T0
M30
