G04 #@! TF.GenerationSoftware,KiCad,Pcbnew,5.99.0-unknown-5127d6c77~91~ubuntu20.04.1*
G04 #@! TF.CreationDate,2020-10-08T17:45:23+09:00*
G04 #@! TF.ProjectId,M5_board_bGeigieRaku V1.9,4d355f62-6f61-4726-945f-624765696769,rev?*
G04 #@! TF.SameCoordinates,Original*
G04 #@! TF.FileFunction,Legend,Bot*
G04 #@! TF.FilePolarity,Positive*
%FSLAX46Y46*%
G04 Gerber Fmt 4.6, Leading zero omitted, Abs format (unit mm)*
G04 Created by KiCad (PCBNEW 5.99.0-unknown-5127d6c77~91~ubuntu20.04.1) date 2020-10-08 17:45:23*
%MOMM*%
%LPD*%
G01*
G04 APERTURE LIST*
%ADD10C,0.200000*%
%ADD11C,0.150000*%
%ADD12C,0.100000*%
%ADD13C,0.050000*%
%ADD14C,0.120000*%
%ADD15C,0.203200*%
G04 APERTURE END LIST*
D10*
X162661600Y-113867000D02*
X175361600Y-113867000D01*
X175361600Y-113867000D02*
X175361600Y-108152000D01*
X162661600Y-108152000D02*
X162661600Y-113867000D01*
X175361600Y-108152000D02*
X162661600Y-108152000D01*
D11*
X156317600Y-124388286D02*
X156281885Y-124316857D01*
X156281885Y-124209715D01*
X156317600Y-124102572D01*
X156389028Y-124031143D01*
X156460457Y-123995429D01*
X156603314Y-123959715D01*
X156710457Y-123959715D01*
X156853314Y-123995429D01*
X156924742Y-124031143D01*
X156996171Y-124102572D01*
X157031885Y-124209715D01*
X157031885Y-124281143D01*
X156996171Y-124388286D01*
X156960457Y-124424000D01*
X156710457Y-124424000D01*
X156710457Y-124281143D01*
X157031885Y-124745429D02*
X156281885Y-124745429D01*
X157031885Y-125174000D01*
X156281885Y-125174000D01*
X157031885Y-125531143D02*
X156281885Y-125531143D01*
X156281885Y-125709715D01*
X156317600Y-125816857D01*
X156389028Y-125888286D01*
X156460457Y-125924000D01*
X156603314Y-125959715D01*
X156710457Y-125959715D01*
X156853314Y-125924000D01*
X156924742Y-125888286D01*
X156996171Y-125816857D01*
X157031885Y-125709715D01*
X157031885Y-125531143D01*
X169188171Y-108638285D02*
X169223885Y-108745428D01*
X169223885Y-108924000D01*
X169188171Y-108995428D01*
X169152457Y-109031142D01*
X169081028Y-109066857D01*
X169009600Y-109066857D01*
X168938171Y-109031142D01*
X168902457Y-108995428D01*
X168866742Y-108924000D01*
X168831028Y-108781142D01*
X168795314Y-108709714D01*
X168759600Y-108674000D01*
X168688171Y-108638285D01*
X168616742Y-108638285D01*
X168545314Y-108674000D01*
X168509600Y-108709714D01*
X168473885Y-108781142D01*
X168473885Y-108959714D01*
X168509600Y-109066857D01*
X169223885Y-109388285D02*
X168473885Y-109388285D01*
X168473885Y-109566857D01*
X168509600Y-109674000D01*
X168581028Y-109745428D01*
X168652457Y-109781142D01*
X168795314Y-109816857D01*
X168902457Y-109816857D01*
X169045314Y-109781142D01*
X169116742Y-109745428D01*
X169188171Y-109674000D01*
X169223885Y-109566857D01*
X169223885Y-109388285D01*
X169009600Y-110102571D02*
X169009600Y-110459714D01*
X169223885Y-110031142D02*
X168473885Y-110281142D01*
X169223885Y-110531142D01*
X166683885Y-108912145D02*
X166326742Y-108662145D01*
X166683885Y-108483573D02*
X165933885Y-108483573D01*
X165933885Y-108769288D01*
X165969600Y-108840716D01*
X166005314Y-108876430D01*
X166076742Y-108912145D01*
X166183885Y-108912145D01*
X166255314Y-108876430D01*
X166291028Y-108840716D01*
X166326742Y-108769288D01*
X166326742Y-108483573D01*
X165933885Y-109162145D02*
X166683885Y-109662145D01*
X165933885Y-109662145D02*
X166683885Y-109162145D01*
X166683885Y-110340716D02*
X166683885Y-109912145D01*
X166683885Y-110126430D02*
X165933885Y-110126430D01*
X166041028Y-110055002D01*
X166112457Y-109983573D01*
X166148171Y-109912145D01*
D12*
X152736361Y-88579666D02*
X152783980Y-88722523D01*
X152783980Y-88960619D01*
X152736361Y-89055857D01*
X152688742Y-89103476D01*
X152593504Y-89151095D01*
X152498266Y-89151095D01*
X152403028Y-89103476D01*
X152355409Y-89055857D01*
X152307790Y-88960619D01*
X152260171Y-88770142D01*
X152212552Y-88674904D01*
X152164933Y-88627285D01*
X152069695Y-88579666D01*
X151974457Y-88579666D01*
X151879219Y-88627285D01*
X151831600Y-88674904D01*
X151783980Y-88770142D01*
X151783980Y-89008238D01*
X151831600Y-89151095D01*
X152783980Y-90008238D02*
X152260171Y-90008238D01*
X152164933Y-89960619D01*
X152117314Y-89865380D01*
X152117314Y-89674904D01*
X152164933Y-89579666D01*
X152736361Y-90008238D02*
X152783980Y-89913000D01*
X152783980Y-89674904D01*
X152736361Y-89579666D01*
X152641123Y-89532047D01*
X152545885Y-89532047D01*
X152450647Y-89579666D01*
X152403028Y-89674904D01*
X152403028Y-89913000D01*
X152355409Y-90008238D01*
X152117314Y-90341571D02*
X152117314Y-90722523D01*
X152783980Y-90484428D02*
X151926838Y-90484428D01*
X151831600Y-90532047D01*
X151783980Y-90627285D01*
X151783980Y-90722523D01*
X152736361Y-91436809D02*
X152783980Y-91341571D01*
X152783980Y-91151095D01*
X152736361Y-91055857D01*
X152641123Y-91008238D01*
X152260171Y-91008238D01*
X152164933Y-91055857D01*
X152117314Y-91151095D01*
X152117314Y-91341571D01*
X152164933Y-91436809D01*
X152260171Y-91484428D01*
X152355409Y-91484428D01*
X152450647Y-91008238D01*
X152736361Y-92341571D02*
X152783980Y-92246333D01*
X152783980Y-92055857D01*
X152736361Y-91960619D01*
X152688742Y-91913000D01*
X152593504Y-91865380D01*
X152307790Y-91865380D01*
X152212552Y-91913000D01*
X152164933Y-91960619D01*
X152117314Y-92055857D01*
X152117314Y-92246333D01*
X152164933Y-92341571D01*
X152783980Y-93198714D02*
X152260171Y-93198714D01*
X152164933Y-93151095D01*
X152117314Y-93055857D01*
X152117314Y-92865380D01*
X152164933Y-92770142D01*
X152736361Y-93198714D02*
X152783980Y-93103476D01*
X152783980Y-92865380D01*
X152736361Y-92770142D01*
X152641123Y-92722523D01*
X152545885Y-92722523D01*
X152450647Y-92770142D01*
X152403028Y-92865380D01*
X152403028Y-93103476D01*
X152355409Y-93198714D01*
X152736361Y-93627285D02*
X152783980Y-93722523D01*
X152783980Y-93913000D01*
X152736361Y-94008238D01*
X152641123Y-94055857D01*
X152593504Y-94055857D01*
X152498266Y-94008238D01*
X152450647Y-93913000D01*
X152450647Y-93770142D01*
X152403028Y-93674904D01*
X152307790Y-93627285D01*
X152260171Y-93627285D01*
X152164933Y-93674904D01*
X152117314Y-93770142D01*
X152117314Y-93913000D01*
X152164933Y-94008238D01*
X152117314Y-94341571D02*
X152117314Y-94722523D01*
X151783980Y-94484428D02*
X152641123Y-94484428D01*
X152736361Y-94532047D01*
X152783980Y-94627285D01*
X152783980Y-94722523D01*
X152783980Y-95817761D02*
X151783980Y-95817761D01*
X152498266Y-96151095D01*
X151783980Y-96484428D01*
X152783980Y-96484428D01*
X151783980Y-97436809D02*
X151783980Y-96960619D01*
X152260171Y-96913000D01*
X152212552Y-96960619D01*
X152164933Y-97055857D01*
X152164933Y-97293952D01*
X152212552Y-97389190D01*
X152260171Y-97436809D01*
X152355409Y-97484428D01*
X152593504Y-97484428D01*
X152688742Y-97436809D01*
X152736361Y-97389190D01*
X152783980Y-97293952D01*
X152783980Y-97055857D01*
X152736361Y-96960619D01*
X152688742Y-96913000D01*
X152783980Y-98674904D02*
X151783980Y-98674904D01*
X152164933Y-98674904D02*
X152117314Y-98770142D01*
X152117314Y-98960619D01*
X152164933Y-99055857D01*
X152212552Y-99103476D01*
X152307790Y-99151095D01*
X152593504Y-99151095D01*
X152688742Y-99103476D01*
X152736361Y-99055857D01*
X152783980Y-98960619D01*
X152783980Y-98770142D01*
X152736361Y-98674904D01*
X152783980Y-100008238D02*
X152260171Y-100008238D01*
X152164933Y-99960619D01*
X152117314Y-99865380D01*
X152117314Y-99674904D01*
X152164933Y-99579666D01*
X152736361Y-100008238D02*
X152783980Y-99913000D01*
X152783980Y-99674904D01*
X152736361Y-99579666D01*
X152641123Y-99532047D01*
X152545885Y-99532047D01*
X152450647Y-99579666D01*
X152403028Y-99674904D01*
X152403028Y-99913000D01*
X152355409Y-100008238D01*
X152736361Y-100436809D02*
X152783980Y-100532047D01*
X152783980Y-100722523D01*
X152736361Y-100817761D01*
X152641123Y-100865380D01*
X152593504Y-100865380D01*
X152498266Y-100817761D01*
X152450647Y-100722523D01*
X152450647Y-100579666D01*
X152403028Y-100484428D01*
X152307790Y-100436809D01*
X152260171Y-100436809D01*
X152164933Y-100484428D01*
X152117314Y-100579666D01*
X152117314Y-100722523D01*
X152164933Y-100817761D01*
X152736361Y-101674904D02*
X152783980Y-101579666D01*
X152783980Y-101389190D01*
X152736361Y-101293952D01*
X152641123Y-101246333D01*
X152260171Y-101246333D01*
X152164933Y-101293952D01*
X152117314Y-101389190D01*
X152117314Y-101579666D01*
X152164933Y-101674904D01*
X152260171Y-101722523D01*
X152355409Y-101722523D01*
X152450647Y-101246333D01*
X152783980Y-102579666D02*
X151783980Y-102579666D01*
X152736361Y-102579666D02*
X152783980Y-102484428D01*
X152783980Y-102293952D01*
X152736361Y-102198714D01*
X152688742Y-102151095D01*
X152593504Y-102103476D01*
X152307790Y-102103476D01*
X152212552Y-102151095D01*
X152164933Y-102198714D01*
X152117314Y-102293952D01*
X152117314Y-102484428D01*
X152164933Y-102579666D01*
X152783980Y-103817761D02*
X151783980Y-103817761D01*
X152164933Y-103817761D02*
X152117314Y-103913000D01*
X152117314Y-104103476D01*
X152164933Y-104198714D01*
X152212552Y-104246333D01*
X152307790Y-104293952D01*
X152593504Y-104293952D01*
X152688742Y-104246333D01*
X152736361Y-104198714D01*
X152783980Y-104103476D01*
X152783980Y-103913000D01*
X152736361Y-103817761D01*
X151831600Y-105246333D02*
X151783980Y-105151095D01*
X151783980Y-105008238D01*
X151831600Y-104865380D01*
X151926838Y-104770142D01*
X152022076Y-104722523D01*
X152212552Y-104674904D01*
X152355409Y-104674904D01*
X152545885Y-104722523D01*
X152641123Y-104770142D01*
X152736361Y-104865380D01*
X152783980Y-105008238D01*
X152783980Y-105103476D01*
X152736361Y-105246333D01*
X152688742Y-105293952D01*
X152355409Y-105293952D01*
X152355409Y-105103476D01*
X152736361Y-106103476D02*
X152783980Y-106008238D01*
X152783980Y-105817761D01*
X152736361Y-105722523D01*
X152641123Y-105674904D01*
X152260171Y-105674904D01*
X152164933Y-105722523D01*
X152117314Y-105817761D01*
X152117314Y-106008238D01*
X152164933Y-106103476D01*
X152260171Y-106151095D01*
X152355409Y-106151095D01*
X152450647Y-105674904D01*
X152783980Y-106579666D02*
X152117314Y-106579666D01*
X151783980Y-106579666D02*
X151831600Y-106532047D01*
X151879219Y-106579666D01*
X151831600Y-106627285D01*
X151783980Y-106579666D01*
X151879219Y-106579666D01*
X152117314Y-107484428D02*
X152926838Y-107484428D01*
X153022076Y-107436809D01*
X153069695Y-107389190D01*
X153117314Y-107293952D01*
X153117314Y-107151095D01*
X153069695Y-107055857D01*
X152736361Y-107484428D02*
X152783980Y-107389190D01*
X152783980Y-107198714D01*
X152736361Y-107103476D01*
X152688742Y-107055857D01*
X152593504Y-107008238D01*
X152307790Y-107008238D01*
X152212552Y-107055857D01*
X152164933Y-107103476D01*
X152117314Y-107198714D01*
X152117314Y-107389190D01*
X152164933Y-107484428D01*
X152783980Y-107960619D02*
X152117314Y-107960619D01*
X151783980Y-107960619D02*
X151831600Y-107913000D01*
X151879219Y-107960619D01*
X151831600Y-108008238D01*
X151783980Y-107960619D01*
X151879219Y-107960619D01*
X152736361Y-108817761D02*
X152783980Y-108722523D01*
X152783980Y-108532047D01*
X152736361Y-108436809D01*
X152641123Y-108389190D01*
X152260171Y-108389190D01*
X152164933Y-108436809D01*
X152117314Y-108532047D01*
X152117314Y-108722523D01*
X152164933Y-108817761D01*
X152260171Y-108865380D01*
X152355409Y-108865380D01*
X152450647Y-108389190D01*
X152783980Y-109865380D02*
X152307790Y-109532047D01*
X152783980Y-109293952D02*
X151783980Y-109293952D01*
X151783980Y-109674904D01*
X151831600Y-109770142D01*
X151879219Y-109817761D01*
X151974457Y-109865380D01*
X152117314Y-109865380D01*
X152212552Y-109817761D01*
X152260171Y-109770142D01*
X152307790Y-109674904D01*
X152307790Y-109293952D01*
X152783980Y-110722523D02*
X152260171Y-110722523D01*
X152164933Y-110674904D01*
X152117314Y-110579666D01*
X152117314Y-110389190D01*
X152164933Y-110293952D01*
X152736361Y-110722523D02*
X152783980Y-110627285D01*
X152783980Y-110389190D01*
X152736361Y-110293952D01*
X152641123Y-110246333D01*
X152545885Y-110246333D01*
X152450647Y-110293952D01*
X152403028Y-110389190D01*
X152403028Y-110627285D01*
X152355409Y-110722523D01*
X152783980Y-111198714D02*
X151783980Y-111198714D01*
X152403028Y-111293952D02*
X152783980Y-111579666D01*
X152117314Y-111579666D02*
X152498266Y-111198714D01*
X152117314Y-112436809D02*
X152783980Y-112436809D01*
X152117314Y-112008238D02*
X152641123Y-112008238D01*
X152736361Y-112055857D01*
X152783980Y-112151095D01*
X152783980Y-112293952D01*
X152736361Y-112389190D01*
X152688742Y-112436809D01*
X153727314Y-92436809D02*
X154727314Y-92436809D01*
X153774933Y-92436809D02*
X153727314Y-92532047D01*
X153727314Y-92722523D01*
X153774933Y-92817761D01*
X153822552Y-92865380D01*
X153917790Y-92913000D01*
X154203504Y-92913000D01*
X154298742Y-92865380D01*
X154346361Y-92817761D01*
X154393980Y-92722523D01*
X154393980Y-92532047D01*
X154346361Y-92436809D01*
X154393980Y-93341571D02*
X153727314Y-93341571D01*
X153917790Y-93341571D02*
X153822552Y-93389190D01*
X153774933Y-93436809D01*
X153727314Y-93532047D01*
X153727314Y-93627285D01*
X154393980Y-94103476D02*
X154346361Y-94008238D01*
X154298742Y-93960619D01*
X154203504Y-93913000D01*
X153917790Y-93913000D01*
X153822552Y-93960619D01*
X153774933Y-94008238D01*
X153727314Y-94103476D01*
X153727314Y-94246333D01*
X153774933Y-94341571D01*
X153822552Y-94389190D01*
X153917790Y-94436809D01*
X154203504Y-94436809D01*
X154298742Y-94389190D01*
X154346361Y-94341571D01*
X154393980Y-94246333D01*
X154393980Y-94103476D01*
X153727314Y-94722523D02*
X153727314Y-95103476D01*
X153393980Y-94865380D02*
X154251123Y-94865380D01*
X154346361Y-94913000D01*
X154393980Y-95008238D01*
X154393980Y-95103476D01*
X154393980Y-95579666D02*
X154346361Y-95484428D01*
X154298742Y-95436809D01*
X154203504Y-95389190D01*
X153917790Y-95389190D01*
X153822552Y-95436809D01*
X153774933Y-95484428D01*
X153727314Y-95579666D01*
X153727314Y-95722523D01*
X153774933Y-95817761D01*
X153822552Y-95865380D01*
X153917790Y-95913000D01*
X154203504Y-95913000D01*
X154298742Y-95865380D01*
X154346361Y-95817761D01*
X154393980Y-95722523D01*
X154393980Y-95579666D01*
X153727314Y-96198714D02*
X153727314Y-96579666D01*
X153393980Y-96341571D02*
X154251123Y-96341571D01*
X154346361Y-96389190D01*
X154393980Y-96484428D01*
X154393980Y-96579666D01*
X153727314Y-96817761D02*
X154393980Y-97055857D01*
X153727314Y-97293952D02*
X154393980Y-97055857D01*
X154632076Y-96960619D01*
X154679695Y-96913000D01*
X154727314Y-96817761D01*
X153727314Y-97674904D02*
X154727314Y-97674904D01*
X153774933Y-97674904D02*
X153727314Y-97770142D01*
X153727314Y-97960619D01*
X153774933Y-98055857D01*
X153822552Y-98103476D01*
X153917790Y-98151095D01*
X154203504Y-98151095D01*
X154298742Y-98103476D01*
X154346361Y-98055857D01*
X154393980Y-97960619D01*
X154393980Y-97770142D01*
X154346361Y-97674904D01*
X154346361Y-98960619D02*
X154393980Y-98865380D01*
X154393980Y-98674904D01*
X154346361Y-98579666D01*
X154251123Y-98532047D01*
X153870171Y-98532047D01*
X153774933Y-98579666D01*
X153727314Y-98674904D01*
X153727314Y-98865380D01*
X153774933Y-98960619D01*
X153870171Y-99008238D01*
X153965409Y-99008238D01*
X154060647Y-98532047D01*
X154393980Y-100198714D02*
X153393980Y-100198714D01*
X153774933Y-100198714D02*
X153727314Y-100293952D01*
X153727314Y-100484428D01*
X153774933Y-100579666D01*
X153822552Y-100627285D01*
X153917790Y-100674904D01*
X154203504Y-100674904D01*
X154298742Y-100627285D01*
X154346361Y-100579666D01*
X154393980Y-100484428D01*
X154393980Y-100293952D01*
X154346361Y-100198714D01*
X154393980Y-101246333D02*
X154346361Y-101151095D01*
X154298742Y-101103476D01*
X154203504Y-101055857D01*
X153917790Y-101055857D01*
X153822552Y-101103476D01*
X153774933Y-101151095D01*
X153727314Y-101246333D01*
X153727314Y-101389190D01*
X153774933Y-101484428D01*
X153822552Y-101532047D01*
X153917790Y-101579666D01*
X154203504Y-101579666D01*
X154298742Y-101532047D01*
X154346361Y-101484428D01*
X154393980Y-101389190D01*
X154393980Y-101246333D01*
X154393980Y-102436809D02*
X153870171Y-102436809D01*
X153774933Y-102389190D01*
X153727314Y-102293952D01*
X153727314Y-102103476D01*
X153774933Y-102008238D01*
X154346361Y-102436809D02*
X154393980Y-102341571D01*
X154393980Y-102103476D01*
X154346361Y-102008238D01*
X154251123Y-101960619D01*
X154155885Y-101960619D01*
X154060647Y-102008238D01*
X154013028Y-102103476D01*
X154013028Y-102341571D01*
X153965409Y-102436809D01*
X154393980Y-102913000D02*
X153727314Y-102913000D01*
X153917790Y-102913000D02*
X153822552Y-102960619D01*
X153774933Y-103008238D01*
X153727314Y-103103476D01*
X153727314Y-103198714D01*
X154393980Y-103960619D02*
X153393980Y-103960619D01*
X154346361Y-103960619D02*
X154393980Y-103865380D01*
X154393980Y-103674904D01*
X154346361Y-103579666D01*
X154298742Y-103532047D01*
X154203504Y-103484428D01*
X153917790Y-103484428D01*
X153822552Y-103532047D01*
X153774933Y-103579666D01*
X153727314Y-103674904D01*
X153727314Y-103865380D01*
X153774933Y-103960619D01*
X153393980Y-105055857D02*
X154393980Y-105389190D01*
X153393980Y-105722523D01*
X154393980Y-106579666D02*
X154393980Y-106008238D01*
X154393980Y-106293952D02*
X153393980Y-106293952D01*
X153536838Y-106198714D01*
X153632076Y-106103476D01*
X153679695Y-106008238D01*
X154298742Y-107008238D02*
X154346361Y-107055857D01*
X154393980Y-107008238D01*
X154346361Y-106960619D01*
X154298742Y-107008238D01*
X154393980Y-107008238D01*
X154393980Y-107532047D02*
X154393980Y-107722523D01*
X154346361Y-107817761D01*
X154298742Y-107865380D01*
X154155885Y-107960619D01*
X153965409Y-108008238D01*
X153584457Y-108008238D01*
X153489219Y-107960619D01*
X153441600Y-107913000D01*
X153393980Y-107817761D01*
X153393980Y-107627285D01*
X153441600Y-107532047D01*
X153489219Y-107484428D01*
X153584457Y-107436809D01*
X153822552Y-107436809D01*
X153917790Y-107484428D01*
X153965409Y-107532047D01*
X154013028Y-107627285D01*
X154013028Y-107817761D01*
X153965409Y-107913000D01*
X153917790Y-107960619D01*
X153822552Y-108008238D01*
X154298742Y-108436809D02*
X154346361Y-108484428D01*
X154393980Y-108436809D01*
X154346361Y-108389190D01*
X154298742Y-108436809D01*
X154393980Y-108436809D01*
X153393980Y-109389190D02*
X153393980Y-108913000D01*
X153870171Y-108865380D01*
X153822552Y-108913000D01*
X153774933Y-109008238D01*
X153774933Y-109246333D01*
X153822552Y-109341571D01*
X153870171Y-109389190D01*
X153965409Y-109436809D01*
X154203504Y-109436809D01*
X154298742Y-109389190D01*
X154346361Y-109341571D01*
X154393980Y-109246333D01*
X154393980Y-109008238D01*
X154346361Y-108913000D01*
X154298742Y-108865380D01*
D11*
X163393885Y-108465716D02*
X163393885Y-108894288D01*
X164143885Y-108680002D02*
X163393885Y-108680002D01*
X163393885Y-109072859D02*
X164143885Y-109572859D01*
X163393885Y-109572859D02*
X164143885Y-109072859D01*
X164143885Y-110251430D02*
X164143885Y-109822859D01*
X164143885Y-110037145D02*
X163393885Y-110037145D01*
X163501028Y-109965716D01*
X163572457Y-109894288D01*
X163608171Y-109822859D01*
X171728171Y-108501429D02*
X171763885Y-108608572D01*
X171763885Y-108787144D01*
X171728171Y-108858572D01*
X171692457Y-108894287D01*
X171621028Y-108930001D01*
X171549600Y-108930001D01*
X171478171Y-108894287D01*
X171442457Y-108858572D01*
X171406742Y-108787144D01*
X171371028Y-108644287D01*
X171335314Y-108572858D01*
X171299600Y-108537144D01*
X171228171Y-108501429D01*
X171156742Y-108501429D01*
X171085314Y-108537144D01*
X171049600Y-108572858D01*
X171013885Y-108644287D01*
X171013885Y-108822858D01*
X171049600Y-108930001D01*
X171692457Y-109680001D02*
X171728171Y-109644287D01*
X171763885Y-109537144D01*
X171763885Y-109465715D01*
X171728171Y-109358572D01*
X171656742Y-109287144D01*
X171585314Y-109251429D01*
X171442457Y-109215715D01*
X171335314Y-109215715D01*
X171192457Y-109251429D01*
X171121028Y-109287144D01*
X171049600Y-109358572D01*
X171013885Y-109465715D01*
X171013885Y-109537144D01*
X171049600Y-109644287D01*
X171085314Y-109680001D01*
X171763885Y-110358572D02*
X171763885Y-110001429D01*
X171013885Y-110001429D01*
X158821885Y-123781143D02*
X158821885Y-124245428D01*
X159107600Y-123995428D01*
X159107600Y-124102571D01*
X159143314Y-124174000D01*
X159179028Y-124209714D01*
X159250457Y-124245428D01*
X159429028Y-124245428D01*
X159500457Y-124209714D01*
X159536171Y-124174000D01*
X159571885Y-124102571D01*
X159571885Y-123888286D01*
X159536171Y-123816857D01*
X159500457Y-123781143D01*
X159500457Y-124566857D02*
X159536171Y-124602571D01*
X159571885Y-124566857D01*
X159536171Y-124531143D01*
X159500457Y-124566857D01*
X159571885Y-124566857D01*
X158821885Y-124852571D02*
X158821885Y-125316857D01*
X159107600Y-125066857D01*
X159107600Y-125174000D01*
X159143314Y-125245428D01*
X159179028Y-125281143D01*
X159250457Y-125316857D01*
X159429028Y-125316857D01*
X159500457Y-125281143D01*
X159536171Y-125245428D01*
X159571885Y-125174000D01*
X159571885Y-124959714D01*
X159536171Y-124888286D01*
X159500457Y-124852571D01*
X158821885Y-125531143D02*
X159571885Y-125781143D01*
X158821885Y-126031143D01*
X161361885Y-125281142D02*
X161361885Y-124924000D01*
X161719028Y-124888285D01*
X161683314Y-124924000D01*
X161647600Y-124995428D01*
X161647600Y-125174000D01*
X161683314Y-125245428D01*
X161719028Y-125281142D01*
X161790457Y-125316857D01*
X161969028Y-125316857D01*
X162040457Y-125281142D01*
X162076171Y-125245428D01*
X162111885Y-125174000D01*
X162111885Y-124995428D01*
X162076171Y-124924000D01*
X162040457Y-124888285D01*
X161361885Y-125531142D02*
X162111885Y-125781142D01*
X161361885Y-126031142D01*
X163621580Y-86514476D02*
X162621580Y-86514476D01*
X163335866Y-86847809D01*
X162621580Y-87181142D01*
X163621580Y-87181142D01*
X162621580Y-88133523D02*
X162621580Y-87657333D01*
X163097771Y-87609714D01*
X163050152Y-87657333D01*
X163002533Y-87752571D01*
X163002533Y-87990666D01*
X163050152Y-88085904D01*
X163097771Y-88133523D01*
X163193009Y-88181142D01*
X163431104Y-88181142D01*
X163526342Y-88133523D01*
X163573961Y-88085904D01*
X163621580Y-87990666D01*
X163621580Y-87752571D01*
X163573961Y-87657333D01*
X163526342Y-87609714D01*
X173716600Y-108816857D02*
X173680885Y-108745428D01*
X173680885Y-108638285D01*
X173716600Y-108531142D01*
X173788028Y-108459714D01*
X173859457Y-108424000D01*
X174002314Y-108388285D01*
X174109457Y-108388285D01*
X174252314Y-108424000D01*
X174323742Y-108459714D01*
X174395171Y-108531142D01*
X174430885Y-108638285D01*
X174430885Y-108709714D01*
X174395171Y-108816857D01*
X174359457Y-108852571D01*
X174109457Y-108852571D01*
X174109457Y-108709714D01*
X174430885Y-109174000D02*
X173680885Y-109174000D01*
X173680885Y-109674000D02*
X173680885Y-109816857D01*
X173716600Y-109888285D01*
X173788028Y-109959714D01*
X173930885Y-109995428D01*
X174180885Y-109995428D01*
X174323742Y-109959714D01*
X174395171Y-109888285D01*
X174430885Y-109816857D01*
X174430885Y-109674000D01*
X174395171Y-109602571D01*
X174323742Y-109531142D01*
X174180885Y-109495428D01*
X173930885Y-109495428D01*
X173788028Y-109531142D01*
X173716600Y-109602571D01*
X173680885Y-109674000D01*
X173680885Y-110459714D02*
X173680885Y-110531142D01*
X173716600Y-110602571D01*
X173752314Y-110638285D01*
X173823742Y-110674000D01*
X173966600Y-110709714D01*
X174145171Y-110709714D01*
X174288028Y-110674000D01*
X174359457Y-110638285D01*
X174395171Y-110602571D01*
X174430885Y-110531142D01*
X174430885Y-110459714D01*
X174395171Y-110388285D01*
X174359457Y-110352571D01*
X174288028Y-110316857D01*
X174145171Y-110281142D01*
X173966600Y-110281142D01*
X173823742Y-110316857D01*
X173752314Y-110352571D01*
X173716600Y-110388285D01*
X173680885Y-110459714D01*
X95549980Y-125043095D02*
X94549980Y-125043095D01*
X95026171Y-125043095D02*
X95026171Y-125614523D01*
X95549980Y-125614523D02*
X94549980Y-125614523D01*
X95549980Y-126614523D02*
X95549980Y-126043095D01*
X95549980Y-126328809D02*
X94549980Y-126328809D01*
X94692838Y-126233571D01*
X94788076Y-126138333D01*
X94835695Y-126043095D01*
X201722380Y-98246095D02*
X200722380Y-98246095D01*
X201198571Y-98246095D02*
X201198571Y-98817523D01*
X201722380Y-98817523D02*
X200722380Y-98817523D01*
X201150952Y-99436571D02*
X201103333Y-99341333D01*
X201055714Y-99293714D01*
X200960476Y-99246095D01*
X200912857Y-99246095D01*
X200817619Y-99293714D01*
X200770000Y-99341333D01*
X200722380Y-99436571D01*
X200722380Y-99627047D01*
X200770000Y-99722285D01*
X200817619Y-99769904D01*
X200912857Y-99817523D01*
X200960476Y-99817523D01*
X201055714Y-99769904D01*
X201103333Y-99722285D01*
X201150952Y-99627047D01*
X201150952Y-99436571D01*
X201198571Y-99341333D01*
X201246190Y-99293714D01*
X201341428Y-99246095D01*
X201531904Y-99246095D01*
X201627142Y-99293714D01*
X201674761Y-99341333D01*
X201722380Y-99436571D01*
X201722380Y-99627047D01*
X201674761Y-99722285D01*
X201627142Y-99769904D01*
X201531904Y-99817523D01*
X201341428Y-99817523D01*
X201246190Y-99769904D01*
X201198571Y-99722285D01*
X201150952Y-99627047D01*
X182290980Y-108279095D02*
X181290980Y-108279095D01*
X181767171Y-108279095D02*
X181767171Y-108850523D01*
X182290980Y-108850523D02*
X181290980Y-108850523D01*
X181290980Y-109231476D02*
X181290980Y-109850523D01*
X181671933Y-109517190D01*
X181671933Y-109660047D01*
X181719552Y-109755285D01*
X181767171Y-109802904D01*
X181862409Y-109850523D01*
X182100504Y-109850523D01*
X182195742Y-109802904D01*
X182243361Y-109755285D01*
X182290980Y-109660047D01*
X182290980Y-109374333D01*
X182243361Y-109279095D01*
X182195742Y-109231476D01*
X177464980Y-124408095D02*
X176464980Y-124408095D01*
X176941171Y-124408095D02*
X176941171Y-124979523D01*
X177464980Y-124979523D02*
X176464980Y-124979523D01*
X176798314Y-125884285D02*
X177464980Y-125884285D01*
X176417361Y-125646190D02*
X177131647Y-125408095D01*
X177131647Y-126027142D01*
X209215380Y-119963095D02*
X208215380Y-119963095D01*
X208691571Y-119963095D02*
X208691571Y-120534523D01*
X209215380Y-120534523D02*
X208215380Y-120534523D01*
X208215380Y-121486904D02*
X208215380Y-121010714D01*
X208691571Y-120963095D01*
X208643952Y-121010714D01*
X208596333Y-121105952D01*
X208596333Y-121344047D01*
X208643952Y-121439285D01*
X208691571Y-121486904D01*
X208786809Y-121534523D01*
X209024904Y-121534523D01*
X209120142Y-121486904D01*
X209167761Y-121439285D01*
X209215380Y-121344047D01*
X209215380Y-121105952D01*
X209167761Y-121010714D01*
X209120142Y-120963095D01*
X95549980Y-71068095D02*
X94549980Y-71068095D01*
X95026171Y-71068095D02*
X95026171Y-71639523D01*
X95549980Y-71639523D02*
X94549980Y-71639523D01*
X94645219Y-72068095D02*
X94597600Y-72115714D01*
X94549980Y-72210952D01*
X94549980Y-72449047D01*
X94597600Y-72544285D01*
X94645219Y-72591904D01*
X94740457Y-72639523D01*
X94835695Y-72639523D01*
X94978552Y-72591904D01*
X95549980Y-72020476D01*
X95549980Y-72639523D01*
X100391980Y-117510666D02*
X101106266Y-117510666D01*
X101249123Y-117463047D01*
X101344361Y-117367809D01*
X101391980Y-117224952D01*
X101391980Y-117129714D01*
X101391980Y-118510666D02*
X101391980Y-117939238D01*
X101391980Y-118224952D02*
X100391980Y-118224952D01*
X100534838Y-118129714D01*
X100630076Y-118034476D01*
X100677695Y-117939238D01*
D13*
X141690485Y-77033142D02*
X141667628Y-76964571D01*
X141644771Y-76941714D01*
X141599057Y-76918857D01*
X141530485Y-76918857D01*
X141484771Y-76941714D01*
X141461914Y-76964571D01*
X141439057Y-77010285D01*
X141439057Y-77193142D01*
X141919057Y-77193142D01*
X141919057Y-77033142D01*
X141896200Y-76987428D01*
X141873342Y-76964571D01*
X141827628Y-76941714D01*
X141781914Y-76941714D01*
X141736200Y-76964571D01*
X141713342Y-76987428D01*
X141690485Y-77033142D01*
X141690485Y-77193142D01*
X141919057Y-76781714D02*
X141919057Y-76507428D01*
X141439057Y-76644571D02*
X141919057Y-76644571D01*
X141439057Y-76096000D02*
X141439057Y-76370285D01*
X141439057Y-76233142D02*
X141919057Y-76233142D01*
X141850485Y-76278857D01*
X141804771Y-76324571D01*
X141781914Y-76370285D01*
X149005657Y-78290285D02*
X149005657Y-77993142D01*
X148822800Y-78153142D01*
X148822800Y-78084571D01*
X148799942Y-78038857D01*
X148777085Y-78016000D01*
X148731371Y-77993142D01*
X148617085Y-77993142D01*
X148571371Y-78016000D01*
X148548514Y-78038857D01*
X148525657Y-78084571D01*
X148525657Y-78221714D01*
X148548514Y-78267428D01*
X148571371Y-78290285D01*
X148571371Y-77787428D02*
X148548514Y-77764571D01*
X148525657Y-77787428D01*
X148548514Y-77810285D01*
X148571371Y-77787428D01*
X148525657Y-77787428D01*
X149005657Y-77604571D02*
X149005657Y-77284571D01*
X148525657Y-77490285D01*
X149005657Y-76804571D02*
X148525657Y-76644571D01*
X149005657Y-76484571D01*
X148525657Y-75730285D02*
X148525657Y-75958857D01*
X149005657Y-75958857D01*
X148525657Y-75570285D02*
X148845657Y-75570285D01*
X149005657Y-75570285D02*
X148982800Y-75593142D01*
X148959942Y-75570285D01*
X148982800Y-75547428D01*
X149005657Y-75570285D01*
X148959942Y-75570285D01*
X148845657Y-75341714D02*
X148365657Y-75341714D01*
X148822800Y-75341714D02*
X148845657Y-75296000D01*
X148845657Y-75204571D01*
X148822800Y-75158857D01*
X148799942Y-75136000D01*
X148754228Y-75113142D01*
X148617085Y-75113142D01*
X148571371Y-75136000D01*
X148548514Y-75158857D01*
X148525657Y-75204571D01*
X148525657Y-75296000D01*
X148548514Y-75341714D01*
X148525657Y-74838857D02*
X148548514Y-74884571D01*
X148571371Y-74907428D01*
X148617085Y-74930285D01*
X148754228Y-74930285D01*
X148799942Y-74907428D01*
X148822800Y-74884571D01*
X148845657Y-74838857D01*
X148845657Y-74770285D01*
X148822800Y-74724571D01*
X148799942Y-74701714D01*
X148754228Y-74678857D01*
X148617085Y-74678857D01*
X148571371Y-74701714D01*
X148548514Y-74724571D01*
X148525657Y-74770285D01*
X148525657Y-74838857D01*
X193268952Y-75457428D02*
X192507047Y-75457428D01*
X158216952Y-75457428D02*
X157455047Y-75457428D01*
X157836000Y-75838380D02*
X157836000Y-75076476D01*
D11*
X203818000Y-105001095D02*
X203770380Y-104905857D01*
X203770380Y-104763000D01*
X203818000Y-104620142D01*
X203913238Y-104524904D01*
X204008476Y-104477285D01*
X204198952Y-104429666D01*
X204341809Y-104429666D01*
X204532285Y-104477285D01*
X204627523Y-104524904D01*
X204722761Y-104620142D01*
X204770380Y-104763000D01*
X204770380Y-104858238D01*
X204722761Y-105001095D01*
X204675142Y-105048714D01*
X204341809Y-105048714D01*
X204341809Y-104858238D01*
X204246571Y-105477285D02*
X204246571Y-105810619D01*
X204770380Y-105953476D02*
X204770380Y-105477285D01*
X203770380Y-105477285D01*
X203770380Y-105953476D01*
X204770380Y-106382047D02*
X203770380Y-106382047D01*
X203818000Y-107382047D02*
X203770380Y-107286809D01*
X203770380Y-107143952D01*
X203818000Y-107001095D01*
X203913238Y-106905857D01*
X204008476Y-106858238D01*
X204198952Y-106810619D01*
X204341809Y-106810619D01*
X204532285Y-106858238D01*
X204627523Y-106905857D01*
X204722761Y-107001095D01*
X204770380Y-107143952D01*
X204770380Y-107239190D01*
X204722761Y-107382047D01*
X204675142Y-107429666D01*
X204341809Y-107429666D01*
X204341809Y-107239190D01*
X204246571Y-107858238D02*
X204246571Y-108191571D01*
X204770380Y-108334428D02*
X204770380Y-107858238D01*
X203770380Y-107858238D01*
X203770380Y-108334428D01*
X204770380Y-109334428D02*
X204294190Y-109001095D01*
X204770380Y-108763000D02*
X203770380Y-108763000D01*
X203770380Y-109143952D01*
X203818000Y-109239190D01*
X203865619Y-109286809D01*
X203960857Y-109334428D01*
X204103714Y-109334428D01*
X204198952Y-109286809D01*
X204246571Y-109239190D01*
X204294190Y-109143952D01*
X204294190Y-108763000D01*
D14*
X138294000Y-117844000D02*
X140894000Y-117844000D01*
X140894000Y-117844000D02*
X140894000Y-115244000D01*
X138294000Y-120444000D02*
X102674000Y-120444000D01*
X140894000Y-120444000D02*
X140894000Y-119114000D01*
X140894000Y-115244000D02*
X102674000Y-115244000D01*
X138294000Y-120444000D02*
X138294000Y-117844000D01*
X102674000Y-120444000D02*
X102674000Y-115244000D01*
X139564000Y-120444000D02*
X140894000Y-120444000D01*
D15*
X207143000Y-82228600D02*
X207143000Y-81111000D01*
X145613000Y-81091000D02*
X145613000Y-82208600D01*
X210622800Y-72221000D02*
X207143000Y-72221000D01*
X142133200Y-81091000D02*
X145613000Y-81091000D01*
X142133200Y-72201000D02*
X142133200Y-81091000D01*
X197608000Y-71103400D02*
X197608000Y-82228600D01*
X145613000Y-71083400D02*
X145613000Y-72201000D01*
X155148000Y-82208600D02*
X155148000Y-71083400D01*
X145613000Y-72201000D02*
X142133200Y-72201000D01*
X207143000Y-72221000D02*
X207143000Y-71103400D01*
X197608000Y-82228600D02*
X207143000Y-82228600D01*
X210622800Y-81111000D02*
X210622800Y-72221000D01*
X145613000Y-82208600D02*
X155148000Y-82208600D01*
X207143000Y-81111000D02*
X210622800Y-81111000D01*
X155148000Y-71083400D02*
X145613000Y-71083400D01*
X207143000Y-71103400D02*
X197608000Y-71103400D01*
D14*
X205782000Y-113232000D02*
X208442000Y-113232000D01*
X205782000Y-115832000D02*
X207112000Y-115832000D01*
X208442000Y-113232000D02*
X208442000Y-108092000D01*
X205782000Y-114502000D02*
X205782000Y-115832000D01*
X205782000Y-108092000D02*
X208442000Y-108092000D01*
X205782000Y-113232000D02*
X205782000Y-108092000D01*
M02*
