<?xml version="1.0" encoding="UTF-8" standalone="no"?>
<!-- Created with Inkscape (http://www.inkscape.org/) -->

<svg
   xmlns:dc="http://purl.org/dc/elements/1.1/"
   xmlns:cc="http://creativecommons.org/ns#"
   xmlns:rdf="http://www.w3.org/1999/02/22-rdf-syntax-ns#"
   xmlns:svg="http://www.w3.org/2000/svg"
   xmlns="http://www.w3.org/2000/svg"
   xmlns:sodipodi="http://sodipodi.sourceforge.net/DTD/sodipodi-0.dtd"
   xmlns:inkscape="http://www.inkscape.org/namespaces/inkscape"
   width="210mm"
   height="297mm"
   viewBox="0 0 210 297"
   version="1.1"
   id="svg467"
   sodipodi:docname="drawing-1.svg"
   inkscape:version="0.92.3 (2405546, 2018-03-11)">
  <defs
     id="defs461" />
  <sodipodi:namedview
     id="base"
     pagecolor="#ffffff"
     bordercolor="#666666"
     borderopacity="1.0"
     inkscape:pageopacity="0.0"
     inkscape:pageshadow="2"
     inkscape:zoom="3.959798"
     inkscape:cx="281.57185"
     inkscape:cy="121.8472"
     inkscape:document-units="mm"
     inkscape:current-layer="layer1"
     showgrid="false"
     inkscape:window-width="2880"
     inkscape:window-height="1713"
     inkscape:window-x="0"
     inkscape:window-y="44"
     inkscape:window-maximized="1"
     showguides="true"
     inkscape:guide-bbox="true">
    <sodipodi:guide
       position="-21.166666,98.462801"
       orientation="0,1"
       id="guide504"
       inkscape:locked="false" />
    <sodipodi:guide
       position="179.3497,144.76489"
       orientation="0,1"
       id="guide506"
       inkscape:locked="false" />
  </sodipodi:namedview>
  <metadata
     id="metadata464">
    <rdf:RDF>
      <cc:Work
         rdf:about="">
        <dc:format>image/svg+xml</dc:format>
        <dc:type
           rdf:resource="http://purl.org/dc/dcmitype/StillImage" />
      </cc:Work>
    </rdf:RDF>
  </metadata>
  <g
     inkscape:label="Layer 1"
     inkscape:groupmode="layer"
     id="layer1">
    <path
       style="fill:none;stroke:#000000;stroke-width:0.35842952;stroke-linecap:round;stroke-linejoin:round;stroke-miterlimit:10;stroke-dasharray:none;stroke-opacity:1"
       d="m 106.27895,296.45577 c -4.00634,-2.74332 -9.778714,-2.74339 -13.785229,0 m 16.054869,0.68526 c -0.80162,-0.0394 -1.58874,-0.27866 -2.26964,-0.68526 m 14.26868,0.68526 c -3.99968,0 -7.99936,0 -11.99904,0 m 21.06882,-8.68745 c 0.10425,4.63016 -4.23487,8.78829 -9.0697,8.68747 m 9.06978,-10.50334 c 0,0.6053 0,1.21058 0,1.81588 m -0.71593,-3.98995 c 0.43023,0.65006 0.66913,1.40744 0.71593,2.17407 m -0.71593,-15.37893 c -2.86387,3.83767 -2.86393,9.36701 0,13.20486 m 0.71593,-15.37896 c -0.0416,0.76787 -0.29152,1.52178 -0.71593,2.1741 m 0.71593,-10.74577 c 0,2.85722 0,5.71445 0,8.57167 m -0.71593,-10.74577 c 0.39368,0.66218 0.74019,1.39358 0.71594,2.1741 m -0.71591,-15.37895 c -2.86389,3.83766 -2.86396,9.36703 0,13.20485 m 0.71591,-15.37894 c -0.0416,0.76786 -0.2915,1.52177 -0.71591,2.17409 m 0.71591,-3.89496 c 0,0.57363 0,1.14723 0,1.72087 m -9.06978,-10.40881 c 4.83404,-0.10028 9.174,4.05684 9.06971,8.68788 M 108.5486,232.5511 c 3.99969,0 7.99936,0 11.99905,0 m -14.26869,0.68578 c 0.69855,-0.36488 1.46008,-0.67571 2.26964,-0.68578 m -16.05486,0.68578 c 4.007609,2.75281 9.74454,2.60806 13.78522,0 M 90.224101,232.5511 c 0.801607,0.0399 1.58865,0.27924 2.269639,0.68578 m -6.928763,-0.68578 c 1.553042,0 3.106083,0 4.659124,0 m -6.928767,0.68578 c 0.698547,-0.3649 1.460077,-0.67571 2.269643,-0.68578 m -16.054857,0.68578 c 4.007606,2.75281 9.744531,2.60808 13.785214,0 M 67.240481,232.5511 c 0.801606,0.0399 1.58865,0.27924 2.269639,0.68578 m -6.928763,-0.68578 c 1.553042,0 3.106082,0 4.659124,0 m -6.928767,0.68578 c 0.698547,-0.3649 1.460076,-0.67571 2.269643,-0.68578 m -16.054853,0.68578 c 4.007604,2.75281 9.744525,2.60806 13.78521,0 M 44.25686,232.5511 c 0.801609,0.0399 1.588652,0.27924 2.269644,0.68578 m -6.928767,-0.68578 c 1.553042,0 3.106082,0 4.659123,0 m -6.928763,0.68578 c 0.698546,-0.3649 1.460073,-0.67571 2.26964,-0.68578 m -16.054855,0.68578 c 4.007606,2.75281 9.744527,2.60806 13.785215,0 M 21.27324,232.5511 c 0.801608,0.0399 1.588653,0.27924 2.269642,0.68578 M 9.2741953,232.5511 c 3.9996817,0 7.9993637,0 11.9990447,0 M 0.20440502,241.23905 C 0.10021354,236.60861 4.439298,232.451 9.2741997,232.55103 m -9.06979029,10.40882 c 0,-0.57362 0,-1.14724 0,-1.72087 m 0.71591373,3.89496 c -0.45174529,-0.64258 -0.62927053,-1.41613 -0.71591373,-2.17409 m 0.71591373,15.37896 c 2.86385846,-3.83768 2.86393616,-9.36704 0,-13.20487 m -0.71591373,15.37894 c 0.0416561,-0.76785 0.29151064,-1.52176 0.71591373,-2.17407 m -0.71591373,10.74575 c 0,-2.85722 0,-5.71446 0,-8.57168 m 0.71591373,10.74578 c -0.43205492,-0.64994 -0.65089509,-1.41117 -0.71591373,-2.1741 m 0.71591373,15.37895 c 2.86386296,-3.83768 2.86393326,-9.36702 0,-13.20485 m -0.71591373,15.37895 c 0.0416708,-0.76787 0.29151211,-1.52178 0.71591373,-2.1741 m -0.71591373,3.98995 c 0,-0.60527 0,-1.21057 0,-1.81585 M 9.2741997,297.14092 C 4.4400389,297.2419 0.10032482,293.08434 0.20440502,288.45345 M 21.27324,297.1409 c -3.999681,0 -7.999363,0 -11.9990447,0 m 14.2686867,-0.68526 c -0.683747,0.39999 -1.466786,0.65039 -2.269642,0.68526 m 16.054857,-0.68526 c -4.006336,-2.74331 -9.778709,-2.74338 -13.785215,0 m 16.054855,0.68526 c -0.801606,-0.0394 -1.588729,-0.27865 -2.26964,-0.68526 m 6.928763,0.68526 c -1.553041,0 -3.106081,0 -4.659123,0 m 6.928767,-0.68526 c -0.683749,0.39997 -1.466788,0.65039 -2.269644,0.68526 m 16.054854,-0.68526 c -4.006334,-2.74331 -9.778706,-2.74338 -13.78521,0 m 16.054853,0.68526 c -0.801607,-0.0394 -1.588731,-0.27865 -2.269643,-0.68526 m 6.928767,0.68526 c -1.553042,0 -3.106082,0 -4.659124,0 m 6.928763,-0.68526 c -0.683747,0.39997 -1.466785,0.65039 -2.269639,0.68526 m 16.054853,-0.68526 c -4.006335,-2.74331 -9.778708,-2.74338 -13.785214,0 m 16.054857,0.68526 c -0.801608,-0.0394 -1.588731,-0.27865 -2.269643,-0.68526 m 6.928767,0.68526 c -1.553041,0 -3.106082,0 -4.659124,0 m 6.928763,-0.68526 c -0.683747,0.39997 -1.466786,0.65039 -2.269639,0.68526"
       id="path446"
       inkscape:connector-curvature="0" />
  </g>
</svg>
