# Blender v2.81 (sub 1) OBJ File: 'gps.blend'
# www.blender.org
mtllib gps.mtl
o Cube
v 1.000000 -0.939269 -0.124795
v 0.939269 -1.000000 -0.124795
v 0.997931 -0.954987 -0.124795
v 0.991864 -0.969634 -0.124795
v 0.982212 -0.982212 -0.124795
v 0.969634 -0.991864 -0.124795
v 0.954987 -0.997931 -0.124795
v 1.000000 -0.939269 0.117216
v 0.939269 -0.939269 0.124795
v 0.939269 -1.000000 0.117216
v 0.997932 -0.939269 0.119177
v 0.991861 -0.939269 0.121006
v 0.982212 -0.939269 0.122575
v 0.997932 -0.954982 0.117216
v 0.995470 -0.955476 0.119256
v 0.989329 -0.955212 0.121018
v 0.980788 -0.954886 0.122393
v 0.991861 -0.969639 0.117216
v 0.989290 -0.969749 0.119217
v 0.984144 -0.968197 0.120828
v 0.977503 -0.966925 0.121987
v 0.974332 -0.974332 0.121592
v 0.939269 -0.954982 0.124537
v 0.939269 -0.969639 0.123780
v 0.939269 -0.982212 0.122575
v 0.954982 -0.939269 0.124537
v 0.955476 -0.955610 0.124230
v 0.955212 -0.969733 0.123464
v 0.954886 -0.980749 0.122398
v 0.969639 -0.939269 0.123780
v 0.969749 -0.955303 0.123459
v 0.968197 -0.968211 0.122816
v 0.966925 -0.977499 0.121988
v 0.954982 -0.997932 0.117216
v 0.969639 -0.991861 0.117216
v 0.982212 -0.982212 0.117216
v 0.939269 -0.997932 0.119177
v 0.955610 -0.995470 0.119239
v 0.969733 -0.989329 0.119206
v 0.980749 -0.980788 0.119165
v 0.939269 -0.991861 0.121006
v 0.955303 -0.989290 0.121020
v 0.968211 -0.984144 0.120826
v 0.977499 -0.977503 0.120668
v -0.939269 -1.000000 -0.124795
v -1.000000 -0.939269 -0.124795
v -0.954987 -0.997931 -0.124795
v -0.969634 -0.991864 -0.124795
v -0.982212 -0.982212 -0.124795
v -0.991864 -0.969634 -0.124795
v -0.997931 -0.954987 -0.124795
v -0.939269 -0.939269 0.124795
v -1.000000 -0.939269 0.117216
v -0.939269 -1.000000 0.117216
v -0.954982 -0.939269 0.124537
v -0.969639 -0.939269 0.123780
v -0.982212 -0.939269 0.122575
v -0.939269 -0.954982 0.124537
v -0.955610 -0.955476 0.124230
v -0.969733 -0.955212 0.123464
v -0.980749 -0.954886 0.122398
v -0.939269 -0.969639 0.123780
v -0.955303 -0.969749 0.123459
v -0.968211 -0.968197 0.122816
v -0.977499 -0.966925 0.121988
v -0.974332 -0.974332 0.121592
v -0.997932 -0.954982 0.117216
v -0.991861 -0.969639 0.117216
v -0.982212 -0.982212 0.117216
v -0.997932 -0.939269 0.119177
v -0.995470 -0.955610 0.119239
v -0.989329 -0.969733 0.119206
v -0.980788 -0.980749 0.119165
v -0.991861 -0.939269 0.121006
v -0.989290 -0.955303 0.121020
v -0.984144 -0.968211 0.120826
v -0.977503 -0.977499 0.120668
v -0.939269 -0.997932 0.119177
v -0.939269 -0.991861 0.121006
v -0.939269 -0.982212 0.122575
v -0.954982 -0.997932 0.117216
v -0.955476 -0.995470 0.119256
v -0.955212 -0.989329 0.121018
v -0.954886 -0.980788 0.122393
v -0.969639 -0.991861 0.117216
v -0.969749 -0.989290 0.119217
v -0.968197 -0.984144 0.120828
v -0.966925 -0.977503 0.121987
v 0.939269 1.000000 -0.124795
v 1.000000 0.939269 -0.124795
v 0.954987 0.997931 -0.124795
v 0.969634 0.991864 -0.124795
v 0.982212 0.982212 -0.124795
v 0.991864 0.969634 -0.124795
v 0.997931 0.954987 -0.124795
v 0.939269 0.939269 0.124795
v 1.000000 0.939269 0.117216
v 0.939269 1.000000 0.117216
v 0.954982 0.939269 0.124537
v 0.969639 0.939269 0.123780
v 0.982212 0.939269 0.122575
v 0.939269 0.954982 0.124537
v 0.955610 0.955476 0.124230
v 0.969733 0.955212 0.123464
v 0.980749 0.954886 0.122398
v 0.939269 0.969639 0.123780
v 0.955303 0.969749 0.123459
v 0.968211 0.968197 0.122816
v 0.977499 0.966925 0.121988
v 0.974332 0.974332 0.121592
v 0.997932 0.954982 0.117216
v 0.991861 0.969639 0.117216
v 0.982212 0.982212 0.117216
v 0.997932 0.939269 0.119177
v 0.995470 0.955610 0.119239
v 0.989329 0.969733 0.119206
v 0.980788 0.980749 0.119165
v 0.991861 0.939269 0.121006
v 0.989290 0.955303 0.121020
v 0.984144 0.968211 0.120826
v 0.977503 0.977499 0.120668
v 0.939269 0.997932 0.119177
v 0.939269 0.991861 0.121006
v 0.939269 0.982212 0.122575
v 0.954982 0.997932 0.117216
v 0.955476 0.995470 0.119256
v 0.955212 0.989329 0.121018
v 0.954886 0.980788 0.122393
v 0.969639 0.991861 0.117216
v 0.969749 0.989290 0.119217
v 0.968197 0.984144 0.120828
v 0.966925 0.977503 0.121987
v -1.000000 0.939269 -0.124795
v -0.939269 1.000000 -0.124795
v -0.997931 0.954987 -0.124795
v -0.991864 0.969634 -0.124795
v -0.982212 0.982212 -0.124795
v -0.969634 0.991864 -0.124795
v -0.954987 0.997931 -0.124795
v -0.939269 0.939269 0.124795
v -0.939269 1.000000 0.117216
v -1.000000 0.939269 0.117216
v -0.939269 0.954982 0.124537
v -0.939269 0.969639 0.123780
v -0.939269 0.982212 0.122575
v -0.954982 0.939269 0.124537
v -0.955476 0.955610 0.124230
v -0.955212 0.969733 0.123464
v -0.954886 0.980749 0.122398
v -0.969639 0.939269 0.123780
v -0.969749 0.955303 0.123459
v -0.968197 0.968211 0.122816
v -0.966925 0.977499 0.121988
v -0.974332 0.974332 0.121592
v -0.954982 0.997932 0.117216
v -0.969639 0.991861 0.117216
v -0.982212 0.982212 0.117216
v -0.939269 0.997932 0.119177
v -0.955610 0.995470 0.119239
v -0.969733 0.989329 0.119206
v -0.980749 0.980788 0.119165
v -0.939269 0.991861 0.121006
v -0.955303 0.989290 0.121020
v -0.968211 0.984144 0.120826
v -0.977499 0.977503 0.120668
v -0.997932 0.939269 0.119177
v -0.991861 0.939269 0.121006
v -0.982212 0.939269 0.122575
v -0.997932 0.954982 0.117216
v -0.995470 0.955476 0.119256
v -0.989329 0.955212 0.121018
v -0.980788 0.954886 0.122393
v -0.991861 0.969639 0.117216
v -0.989290 0.969749 0.119217
v -0.984144 0.968197 0.120828
v -0.977503 0.966925 0.121987
vt -1.041318 1.042211
vt -0.043969 1.042211
vt -0.043969 2.008327
vt -1.041318 2.008327
vt -1.041318 0.013628
vt -0.043969 0.013628
vt -0.043969 0.979744
vt -1.041318 0.979744
vt 0.018498 0.013628
vt 0.984614 0.013628
vt 0.984614 0.979744
vt 0.018498 0.979744
vt -1.041318 -2.043538
vt -0.043969 -2.043538
vt -0.043969 -1.077422
vt -1.041318 -1.077422
vt -1.041318 -1.014955
vt -0.043969 -1.014955
vt -0.043969 -0.048839
vt -1.041318 -0.048839
vt -0.035888 2.008327
vt -0.035565 2.016662
vt -0.043969 2.016407
vt -0.028350 2.008327
vt -0.028302 2.016526
vt -0.012736 2.008327
vt -0.012736 2.016358
vt -0.035723 2.024002
vt -0.043969 2.023946
vt -0.029084 2.023204
vt -0.012736 2.022550
vt -0.035937 2.039560
vt -0.043969 2.039560
vt -0.029746 2.039560
vt -0.012736 2.026359
vt 0.992695 0.979744
vt 0.993018 0.988079
vt 0.984614 0.987825
vt 1.000233 0.979744
vt 1.000281 0.987943
vt 1.015847 0.979744
vt 1.015847 0.987775
vt 0.992860 0.995419
vt 0.984614 0.995363
vt 0.999499 0.994621
vt 1.015847 0.993967
vt 0.992645 1.010977
vt 0.984614 1.010977
vt 0.998837 1.010977
vt 1.015847 0.997776
vt -0.043969 -2.051619
vt -0.035634 -2.051942
vt -0.035888 -2.043538
vt -0.043969 -2.059157
vt -0.035770 -2.059205
vt -0.043969 -2.074771
vt -0.035937 -2.074771
vt -0.028294 -2.051784
vt -0.028350 -2.043538
vt -0.029091 -2.058422
vt -0.029746 -2.074771
vt -0.012736 -2.051569
vt -0.012736 -2.043538
vt -0.012736 -2.057761
vt -0.025936 -2.074771
vt 0.984614 0.005547
vt 0.992949 0.005224
vt 0.992695 0.013628
vt 0.984614 -0.001991
vt 0.992813 -0.002039
vt 0.984614 -0.017606
vt 0.992645 -0.017606
vt 1.000289 0.005382
vt 1.000233 0.013628
vt 0.999491 -0.001257
vt 0.998837 -0.017606
vt 1.015847 0.005596
vt 1.015847 0.013628
vt 1.015847 -0.000595
vt 1.002646 -0.017606
vt -0.043969 -1.023036
vt -0.035634 -1.023359
vt -0.035888 -1.014955
vt -0.043969 -1.030574
vt -0.035770 -1.030622
vt -0.043969 -1.046188
vt -0.035937 -1.046188
vt -0.028294 -1.023201
vt -0.028350 -1.014955
vt -0.029091 -1.029840
vt -0.029746 -1.046188
vt -0.012736 -1.022986
vt -0.012736 -1.014955
vt -0.012736 -1.029178
vt -0.025936 -1.046188
vt -0.035888 -1.077422
vt -0.035565 -1.069086
vt -0.043969 -1.069341
vt -0.028350 -1.077422
vt -0.028302 -1.069223
vt -0.012736 -1.077422
vt -0.012736 -1.069390
vt -0.035723 -1.061746
vt -0.043969 -1.061803
vt -0.029084 -1.062544
vt -0.012736 -1.063199
vt -0.012736 -1.059389
vt 0.018498 0.987825
vt 0.010163 0.988148
vt 0.010417 0.979744
vt 0.018498 0.995363
vt 0.010299 0.995411
vt 0.018498 1.010977
vt 0.010466 1.010977
vt 0.002822 0.987990
vt 0.002879 0.979744
vt 0.003620 0.994629
vt 0.004275 1.010977
vt -0.012736 0.987775
vt -0.012736 0.979744
vt -0.012736 0.993967
vt -0.012736 1.006577
vt -0.043969 1.034130
vt -0.035634 1.033807
vt -0.035888 1.042211
vt -0.043969 1.026591
vt -0.035770 1.026543
vt -0.043969 1.010977
vt -0.035937 1.010977
vt -0.028294 1.033965
vt -0.028350 1.042211
vt -0.029091 1.027326
vt -0.029746 1.010977
vt -0.012736 1.034179
vt -0.012736 1.042211
vt -0.012736 1.027988
vt -0.035888 0.979744
vt -0.035565 0.988079
vt -0.043969 0.987825
vt -0.028350 0.979744
vt -0.028302 0.987943
vt -0.035723 0.995419
vt -0.043969 0.995363
vt -0.029084 0.994621
vt 0.010417 0.013628
vt 0.010094 0.005293
vt 0.018498 0.005547
vt 0.002879 0.013628
vt 0.002831 0.005429
vt -0.012736 0.013628
vt -0.012736 0.005596
vt 0.010252 -0.002048
vt 0.018498 -0.001991
vt 0.003613 -0.001250
vt -0.012736 -0.000595
vt 0.010466 -0.017606
vt 0.018498 -0.017606
vt 0.004275 -0.017606
vt -0.017136 -0.017606
vt -0.043969 0.005547
vt -0.035634 0.005224
vt -0.035888 0.013628
vt -0.043969 -0.001991
vt -0.035770 -0.002039
vt -0.043969 -0.017606
vt -0.035937 -0.017606
vt -0.028294 0.005382
vt -0.028350 0.013628
vt -0.029091 -0.001257
vt -0.029746 -0.017606
vt -0.035888 -0.048839
vt -0.035565 -0.040504
vt -0.043969 -0.040758
vt -0.028350 -0.048839
vt -0.028302 -0.040640
vt -0.012736 -0.048839
vt -0.012736 -0.040807
vt -0.035723 -0.033163
vt -0.043969 -0.033220
vt -0.029084 -0.033961
vt -0.012736 -0.034616
vt -1.041318 2.016410
vt -1.041318 2.023943
vt -1.041318 2.039560
vt -1.041318 -2.074771
vt -1.041318 -2.059155
vt -1.041318 -2.051622
vt -1.376463 -0.687540
vt -1.378974 -0.691521
vt -1.381130 -0.700278
vt -1.382785 -0.708533
vt -1.383825 -0.711044
vt -1.041673 0.005544
vt -1.042713 -0.001989
vt -1.044368 -0.014556
vt -1.046524 -0.026622
vt -1.049035 -0.032684
vt -1.049035 1.026056
vt -1.046524 1.019994
vt -1.044368 1.007928
vt -1.042713 0.995361
vt -1.041673 0.987828
vt -2.069901 0.013628
vt -2.038668 -0.017606
vt -1.072552 -0.017606
vt -1.072552 1.010977
vt -2.038668 1.010977
vt -2.046751 1.009913
vt -2.054285 1.006793
vt -2.060753 1.001829
vt -2.065717 0.995360
vt -2.068837 0.987828
vt -2.069901 0.979744
vn 1.0000 0.0000 0.0000
vn 0.0000 1.0000 0.0000
vn 0.0000 0.0000 1.0000
vn 0.0000 -1.0000 0.0000
vn -1.0000 0.0000 0.0000
vn 0.6647 -0.0925 0.7413
vn 0.2811 -0.0410 0.9588
vn 0.1593 -0.0253 0.9869
vn 0.6228 -0.2647 0.7362
vn 0.2667 -0.1192 0.9564
vn 0.1563 -0.0763 0.9848
vn 0.5562 -0.4300 0.7112
vn 0.2426 -0.1911 0.9511
vn 0.1529 -0.1224 0.9806
vn 0.0174 -0.0174 0.9997
vn 0.0182 -0.0530 0.9984
vn 0.0197 -0.0960 0.9952
vn 0.0530 -0.0184 0.9984
vn 0.0556 -0.0557 0.9969
vn 0.0605 -0.0975 0.9934
vn 0.0960 -0.0198 0.9952
vn 0.0976 -0.0606 0.9934
vn 0.0989 -0.0989 0.9902
vn 0.0925 -0.6647 0.7414
vn 0.2668 -0.6268 0.7321
vn 0.4310 -0.5573 0.7097
vn 0.0415 -0.2815 0.9587
vn 0.1195 -0.2670 0.9563
vn 0.1911 -0.2430 0.9510
vn 0.0254 -0.1593 0.9869
vn 0.0764 -0.1561 0.9848
vn 0.1224 -0.1529 0.9806
vn -0.0174 -0.0174 0.9997
vn -0.0530 -0.0182 0.9984
vn -0.0960 -0.0197 0.9952
vn -0.0184 -0.0530 0.9984
vn -0.0557 -0.0556 0.9969
vn -0.0975 -0.0605 0.9934
vn -0.0198 -0.0960 0.9952
vn -0.0606 -0.0976 0.9934
vn -0.0989 -0.0989 0.9902
vn -0.6647 -0.0925 0.7413
vn -0.6268 -0.2668 0.7321
vn -0.5573 -0.4310 0.7097
vn -0.2815 -0.0415 0.9587
vn -0.2670 -0.1195 0.9563
vn -0.2430 -0.1911 0.9510
vn -0.1593 -0.0254 0.9869
vn -0.1561 -0.0764 0.9848
vn -0.1529 -0.1224 0.9806
vn -0.0925 -0.6647 0.7414
vn -0.0410 -0.2811 0.9588
vn -0.0253 -0.1593 0.9869
vn -0.2647 -0.6228 0.7362
vn -0.1192 -0.2667 0.9564
vn -0.0763 -0.1563 0.9848
vn -0.4300 -0.5562 0.7112
vn -0.1911 -0.2426 0.9511
vn -0.1224 -0.1529 0.9806
vn 0.0174 0.0174 0.9997
vn 0.0530 0.0182 0.9984
vn 0.0960 0.0197 0.9952
vn 0.0184 0.0530 0.9984
vn 0.0557 0.0556 0.9969
vn 0.0975 0.0605 0.9934
vn 0.0198 0.0960 0.9952
vn 0.0606 0.0976 0.9934
vn 0.0989 0.0989 0.9902
vn 0.6647 0.0925 0.7413
vn 0.6268 0.2668 0.7321
vn 0.5573 0.4310 0.7097
vn 0.2815 0.0415 0.9587
vn 0.2670 0.1195 0.9563
vn 0.2430 0.1911 0.9510
vn 0.1593 0.0254 0.9869
vn 0.1561 0.0764 0.9848
vn 0.1529 0.1224 0.9806
vn 0.0925 0.6647 0.7414
vn 0.0410 0.2811 0.9588
vn 0.0253 0.1593 0.9869
vn 0.2647 0.6228 0.7362
vn 0.1192 0.2667 0.9564
vn 0.0763 0.1563 0.9848
vn 0.4300 0.5562 0.7112
vn 0.1911 0.2426 0.9511
vn 0.1224 0.1529 0.9806
vn -0.0174 0.0174 0.9997
vn -0.0182 0.0530 0.9984
vn -0.0197 0.0960 0.9952
vn -0.0530 0.0184 0.9984
vn -0.0556 0.0557 0.9969
vn -0.0605 0.0975 0.9934
vn -0.0960 0.0198 0.9952
vn -0.0976 0.0606 0.9934
vn -0.0989 0.0989 0.9902
vn -0.0925 0.6647 0.7414
vn -0.2668 0.6268 0.7321
vn -0.4310 0.5573 0.7097
vn -0.0415 0.2815 0.9587
vn -0.1195 0.2670 0.9563
vn -0.1911 0.2430 0.9510
vn -0.0254 0.1593 0.9869
vn -0.0764 0.1561 0.9848
vn -0.1224 0.1529 0.9806
vn -0.6647 0.0925 0.7413
vn -0.2811 0.0410 0.9588
vn -0.1593 0.0253 0.9869
vn -0.6228 0.2647 0.7362
vn -0.2667 0.1192 0.9564
vn -0.1563 0.0763 0.9848
vn -0.5562 0.4300 0.7112
vn -0.2426 0.1911 0.9511
vn -0.1529 0.1224 0.9806
vn 0.9914 -0.1305 -0.0000
vn 0.9239 -0.3827 0.0000
vn 0.7933 -0.6088 -0.0000
vn 0.6088 -0.7933 -0.0000
vn 0.3827 -0.9239 0.0000
vn 0.1305 -0.9914 -0.0000
vn 0.0000 -0.0164 0.9999
vn 0.0000 -0.0516 0.9987
vn 0.0000 -0.0953 0.9954
vn 0.0000 -0.1605 0.9870
vn 0.0000 -0.2885 0.9575
vn 0.0000 -0.6881 0.7256
vn -0.9914 -0.1305 -0.0000
vn -0.9239 -0.3827 0.0000
vn -0.7933 -0.6088 -0.0000
vn -0.6088 -0.7933 -0.0000
vn -0.3827 -0.9239 0.0000
vn -0.1305 -0.9914 -0.0000
vn -0.0164 0.0000 0.9999
vn -0.0516 0.0000 0.9987
vn -0.0953 0.0000 0.9954
vn -0.1605 0.0000 0.9870
vn -0.2885 0.0000 0.9575
vn -0.6881 0.0000 0.7256
vn -0.1305 0.9914 -0.0000
vn -0.3827 0.9239 0.0000
vn -0.6088 0.7933 -0.0000
vn -0.7933 0.6088 -0.0000
vn -0.9239 0.3827 0.0000
vn -0.9914 0.1305 -0.0000
vn 0.0000 0.0164 0.9999
vn 0.0000 0.0516 0.9987
vn 0.0000 0.0953 0.9954
vn 0.0000 0.1605 0.9870
vn 0.0000 0.2885 0.9575
vn 0.0000 0.6881 0.7256
vn 0.9914 0.1305 -0.0000
vn 0.9239 0.3827 0.0000
vn 0.7933 0.6088 -0.0000
vn 0.6088 0.7933 -0.0000
vn 0.3827 0.9239 0.0000
vn 0.1305 0.9914 -0.0000
vn 0.0164 0.0000 0.9999
vn 0.0516 0.0000 0.9987
vn 0.0953 0.0000 0.9954
vn 0.1605 0.0000 0.9870
vn 0.2885 0.0000 0.9575
vn 0.6881 0.0000 0.7256
vn 0.0000 0.0000 -1.0000
g Cube_Cube_Material
usemtl Material
s off
f 90/1/1 97/2/1 8/3/1 1/4/1
f 134/5/2 141/6/2 98/7/2 89/8/2
f 140/9/3 52/10/3 9/11/3 96/12/3
f 2/13/4 10/14/4 54/15/4 45/16/4
f 46/17/5 53/18/5 142/19/5 133/20/5
f 8/3/6 11/21/6 15/22/6 14/23/6
f 11/21/7 12/24/7 16/25/7 15/22/7
f 12/24/8 13/26/8 17/27/8 16/25/8
f 14/23/9 15/22/9 19/28/9 18/29/9
f 15/22/10 16/25/10 20/30/10 19/28/10
f 16/25/11 17/27/11 21/31/11 20/30/11
f 18/29/12 19/28/12 40/32/12 36/33/12
f 19/28/13 20/30/13 44/34/13 40/32/13
f 20/30/14 21/31/14 22/35/14 44/34/14
f 9/11/15 23/36/15 27/37/15 26/38/15
f 23/36/16 24/39/16 28/40/16 27/37/16
f 24/39/17 25/41/17 29/42/17 28/40/17
f 26/38/18 27/37/18 31/43/18 30/44/18
f 27/37/19 28/40/19 32/45/19 31/43/19
f 28/40/20 29/42/20 33/46/20 32/45/20
f 30/44/21 31/43/21 17/47/21 13/48/21
f 31/43/22 32/45/22 21/49/22 17/47/22
f 32/45/23 33/46/23 22/50/23 21/49/23
f 10/14/24 34/51/24 38/52/24 37/53/24
f 34/51/25 35/54/25 39/55/25 38/52/25
f 35/54/26 36/56/26 40/57/26 39/55/26
f 37/53/27 38/52/27 42/58/27 41/59/27
f 38/52/28 39/55/28 43/60/28 42/58/28
f 39/55/29 40/57/29 44/61/29 43/60/29
f 41/59/30 42/58/30 29/62/30 25/63/30
f 42/58/31 43/60/31 33/64/31 29/62/31
f 43/60/32 44/61/32 22/65/32 33/64/32
f 52/10/33 55/66/33 59/67/33 58/68/33
f 55/66/34 56/69/34 60/70/34 59/67/34
f 56/69/35 57/71/35 61/72/35 60/70/35
f 58/68/36 59/67/36 63/73/36 62/74/36
f 59/67/37 60/70/37 64/75/37 63/73/37
f 60/70/38 61/72/38 65/76/38 64/75/38
f 62/74/39 63/73/39 84/77/39 80/78/39
f 63/73/40 64/75/40 88/79/40 84/77/40
f 64/75/41 65/76/41 66/80/41 88/79/41
f 53/18/42 67/81/42 71/82/42 70/83/42
f 67/81/43 68/84/43 72/85/43 71/82/43
f 68/84/44 69/86/44 73/87/44 72/85/44
f 70/83/45 71/82/45 75/88/45 74/89/45
f 71/82/46 72/85/46 76/90/46 75/88/46
f 72/85/47 73/87/47 77/91/47 76/90/47
f 74/89/48 75/88/48 61/92/48 57/93/48
f 75/88/49 76/90/49 65/94/49 61/92/49
f 76/90/50 77/91/50 66/95/50 65/94/50
f 54/15/51 78/96/51 82/97/51 81/98/51
f 78/96/52 79/99/52 83/100/52 82/97/52
f 79/99/53 80/101/53 84/102/53 83/100/53
f 81/98/54 82/97/54 86/103/54 85/104/54
f 82/97/55 83/100/55 87/105/55 86/103/55
f 83/100/56 84/102/56 88/106/56 87/105/56
f 85/104/57 86/103/57 73/87/57 69/86/57
f 86/103/58 87/105/58 77/91/58 73/87/58
f 87/105/59 88/106/59 66/107/59 77/91/59
f 96/12/60 99/108/60 103/109/60 102/110/60
f 99/108/61 100/111/61 104/112/61 103/109/61
f 100/111/62 101/113/62 105/114/62 104/112/62
f 102/110/63 103/109/63 107/115/63 106/116/63
f 103/109/64 104/112/64 108/117/64 107/115/64
f 104/112/65 105/114/65 109/118/65 108/117/65
f 106/116/66 107/115/66 128/119/66 124/120/66
f 107/115/67 108/117/67 132/121/67 128/119/67
f 108/117/68 109/118/68 110/122/68 132/121/68
f 97/2/69 111/123/69 115/124/69 114/125/69
f 111/123/70 112/126/70 116/127/70 115/124/70
f 112/126/71 113/128/71 117/129/71 116/127/71
f 114/125/72 115/124/72 119/130/72 118/131/72
f 115/124/73 116/127/73 120/132/73 119/130/73
f 116/127/74 117/129/74 121/133/74 120/132/74
f 118/131/75 119/130/75 105/134/75 101/135/75
f 119/130/76 120/132/76 109/136/76 105/134/76
f 120/132/77 121/133/77 110/122/77 109/136/77
f 98/7/78 122/137/78 126/138/78 125/139/78
f 122/137/79 123/140/79 127/141/79 126/138/79
f 123/140/80 124/120/80 128/119/80 127/141/80
f 125/139/81 126/138/81 130/142/81 129/143/81
f 126/138/82 127/141/82 131/144/82 130/142/82
f 127/141/83 128/119/83 132/121/83 131/144/83
f 129/143/84 130/142/84 117/129/84 113/128/84
f 130/142/85 131/144/85 121/133/85 117/129/85
f 131/144/86 132/121/86 110/122/86 121/133/86
f 140/9/87 143/145/87 147/146/87 146/147/87
f 143/145/88 144/148/88 148/149/88 147/146/88
f 144/148/89 145/150/89 149/151/89 148/149/89
f 146/147/90 147/146/90 151/152/90 150/153/90
f 147/146/91 148/149/91 152/154/91 151/152/91
f 148/149/92 149/151/92 153/155/92 152/154/92
f 150/153/93 151/152/93 172/156/93 168/157/93
f 151/152/94 152/154/94 176/158/94 172/156/94
f 152/154/95 153/155/95 154/159/95 176/158/95
f 141/6/96 155/160/96 159/161/96 158/162/96
f 155/160/97 156/163/97 160/164/97 159/161/97
f 156/163/98 157/165/98 161/166/98 160/164/98
f 158/162/99 159/161/99 163/167/99 162/168/99
f 159/161/100 160/164/100 164/169/100 163/167/100
f 160/164/101 161/166/101 165/170/101 164/169/101
f 162/168/102 163/167/102 149/151/102 145/150/102
f 163/167/103 164/169/103 153/155/103 149/151/103
f 164/169/104 165/170/104 154/159/104 153/155/104
f 142/19/105 166/171/105 170/172/105 169/173/105
f 166/171/106 167/174/106 171/175/106 170/172/106
f 167/174/107 168/176/107 172/177/107 171/175/107
f 169/173/108 170/172/108 174/178/108 173/179/108
f 170/172/109 171/175/109 175/180/109 174/178/109
f 171/175/110 172/177/110 176/181/110 175/180/110
f 173/179/111 174/178/111 161/166/111 157/165/111
f 174/178/112 175/180/112 165/170/112 161/166/112
f 175/180/113 176/181/113 154/159/113 165/170/113
f 1/4/114 8/3/114 14/23/114 3/182/114
f 3/182/115 14/23/115 18/29/115 4/183/115
f 4/183/116 18/29/116 36/33/116 5/184/116
f 5/185/117 36/56/117 35/54/117 6/186/117
f 6/186/118 35/54/118 34/51/118 7/187/118
f 7/187/119 34/51/119 10/14/119 2/13/119
f 9/11/120 52/10/120 58/68/120 23/36/120
f 23/36/121 58/68/121 62/74/121 24/39/121
f 24/39/122 62/74/122 80/78/122 25/41/122
f 25/63/123 80/101/123 79/99/123 41/59/123
f 41/59/124 79/99/124 78/96/124 37/53/124
f 37/53/125 78/96/125 54/15/125 10/14/125
f 53/18/126 46/17/126 51/188/126 67/81/126
f 67/81/127 51/188/127 50/189/127 68/84/127
f 68/84/128 50/189/128 49/190/128 69/86/128
f 69/86/129 49/190/129 48/191/129 85/104/129
f 85/104/130 48/191/130 47/192/130 81/98/130
f 81/98/131 47/192/131 45/16/131 54/15/131
f 52/10/132 140/9/132 146/147/132 55/66/132
f 55/66/133 146/147/133 150/153/133 56/69/133
f 56/69/134 150/153/134 168/157/134 57/71/134
f 57/93/135 168/176/135 167/174/135 74/89/135
f 74/89/136 167/174/136 166/171/136 70/83/136
f 70/83/137 166/171/137 142/19/137 53/18/137
f 141/6/138 134/5/138 139/193/138 155/160/138
f 155/160/139 139/193/139 138/194/139 156/163/139
f 156/163/140 138/194/140 137/195/140 157/165/140
f 157/165/141 137/195/141 136/196/141 173/179/141
f 173/179/142 136/196/142 135/197/142 169/173/142
f 169/173/143 135/197/143 133/20/143 142/19/143
f 140/9/144 96/12/144 102/110/144 143/145/144
f 143/145/145 102/110/145 106/116/145 144/148/145
f 144/148/146 106/116/146 124/120/146 145/150/146
f 145/150/147 124/120/147 123/140/147 162/168/147
f 162/168/148 123/140/148 122/137/148 158/162/148
f 158/162/149 122/137/149 98/7/149 141/6/149
f 97/2/150 90/1/150 95/198/150 111/123/150
f 111/123/151 95/198/151 94/199/151 112/126/151
f 112/126/152 94/199/152 93/200/152 113/128/152
f 113/128/153 93/200/153 92/201/153 129/143/153
f 129/143/154 92/201/154 91/202/154 125/139/154
f 125/139/155 91/202/155 89/8/155 98/7/155
f 96/12/156 9/11/156 26/38/156 99/108/156
f 99/108/157 26/38/157 30/44/157 100/111/157
f 100/111/158 30/44/158 13/48/158 101/113/158
f 101/135/159 13/26/159 12/24/159 118/131/159
f 118/131/160 12/24/160 11/21/160 114/125/160
f 114/125/161 11/21/161 8/3/161 97/2/161
f 45/203/162 47/192/162 48/191/162 49/190/162 50/189/162 51/188/162 46/204/162 133/205/162 135/197/162 136/196/162 137/195/162 138/194/162 139/193/162 134/5/162 89/8/162 91/202/162 92/201/162 93/200/162 94/199/162 95/198/162 90/206/162 1/207/162 3/208/162 4/209/162 5/210/162 6/211/162 7/212/162 2/213/162
