G04 #@! TF.GenerationSoftware,KiCad,Pcbnew,7.99.0-unknown-c07e9c834f~172~ubuntu22.04.1*
G04 #@! TF.CreationDate,2023-09-07T22:01:39+09:00*
G04 #@! TF.ProjectId,bGeigieZen V3.0.0,62476569-6769-4655-9a65-6e2056332e30,V2.1.2*
G04 #@! TF.SameCoordinates,Original*
G04 #@! TF.FileFunction,Legend,Bot*
G04 #@! TF.FilePolarity,Positive*
%FSLAX46Y46*%
G04 Gerber Fmt 4.6, Leading zero omitted, Abs format (unit mm)*
G04 Created by KiCad (PCBNEW 7.99.0-unknown-c07e9c834f~172~ubuntu22.04.1) date 2023-09-07 22:01:39*
%MOMM*%
%LPD*%
G01*
G04 APERTURE LIST*
%ADD10C,0.300000*%
%ADD11C,0.600000*%
%ADD12C,0.050000*%
%ADD13C,0.750000*%
%ADD14C,0.203200*%
%ADD15C,0.000000*%
%ADD16R,1.700000X1.700000*%
%ADD17O,1.700000X1.700000*%
%ADD18C,1.879600*%
%ADD19C,3.203200*%
%ADD20C,5.000000*%
%ADD21R,1.350000X1.350000*%
%ADD22O,1.350000X1.350000*%
%ADD23C,2.743200*%
%ADD24R,12.000000X12.000000*%
G04 APERTURE END LIST*
D10*
X194256500Y-92686429D02*
X194327928Y-92900715D01*
X194327928Y-92900715D02*
X194327928Y-93257857D01*
X194327928Y-93257857D02*
X194256500Y-93400715D01*
X194256500Y-93400715D02*
X194185071Y-93472143D01*
X194185071Y-93472143D02*
X194042214Y-93543572D01*
X194042214Y-93543572D02*
X193899357Y-93543572D01*
X193899357Y-93543572D02*
X193756500Y-93472143D01*
X193756500Y-93472143D02*
X193685071Y-93400715D01*
X193685071Y-93400715D02*
X193613642Y-93257857D01*
X193613642Y-93257857D02*
X193542214Y-92972143D01*
X193542214Y-92972143D02*
X193470785Y-92829286D01*
X193470785Y-92829286D02*
X193399357Y-92757857D01*
X193399357Y-92757857D02*
X193256500Y-92686429D01*
X193256500Y-92686429D02*
X193113642Y-92686429D01*
X193113642Y-92686429D02*
X192970785Y-92757857D01*
X192970785Y-92757857D02*
X192899357Y-92829286D01*
X192899357Y-92829286D02*
X192827928Y-92972143D01*
X192827928Y-92972143D02*
X192827928Y-93329286D01*
X192827928Y-93329286D02*
X192899357Y-93543572D01*
X194327928Y-94829286D02*
X193542214Y-94829286D01*
X193542214Y-94829286D02*
X193399357Y-94757857D01*
X193399357Y-94757857D02*
X193327928Y-94615000D01*
X193327928Y-94615000D02*
X193327928Y-94329286D01*
X193327928Y-94329286D02*
X193399357Y-94186428D01*
X194256500Y-94829286D02*
X194327928Y-94686428D01*
X194327928Y-94686428D02*
X194327928Y-94329286D01*
X194327928Y-94329286D02*
X194256500Y-94186428D01*
X194256500Y-94186428D02*
X194113642Y-94115000D01*
X194113642Y-94115000D02*
X193970785Y-94115000D01*
X193970785Y-94115000D02*
X193827928Y-94186428D01*
X193827928Y-94186428D02*
X193756500Y-94329286D01*
X193756500Y-94329286D02*
X193756500Y-94686428D01*
X193756500Y-94686428D02*
X193685071Y-94829286D01*
X193327928Y-95329286D02*
X193327928Y-95900714D01*
X194327928Y-95543571D02*
X193042214Y-95543571D01*
X193042214Y-95543571D02*
X192899357Y-95615000D01*
X192899357Y-95615000D02*
X192827928Y-95757857D01*
X192827928Y-95757857D02*
X192827928Y-95900714D01*
X194256500Y-96972143D02*
X194327928Y-96829286D01*
X194327928Y-96829286D02*
X194327928Y-96543572D01*
X194327928Y-96543572D02*
X194256500Y-96400714D01*
X194256500Y-96400714D02*
X194113642Y-96329286D01*
X194113642Y-96329286D02*
X193542214Y-96329286D01*
X193542214Y-96329286D02*
X193399357Y-96400714D01*
X193399357Y-96400714D02*
X193327928Y-96543572D01*
X193327928Y-96543572D02*
X193327928Y-96829286D01*
X193327928Y-96829286D02*
X193399357Y-96972143D01*
X193399357Y-96972143D02*
X193542214Y-97043572D01*
X193542214Y-97043572D02*
X193685071Y-97043572D01*
X193685071Y-97043572D02*
X193827928Y-96329286D01*
X193327928Y-97686428D02*
X194827928Y-97686428D01*
X193399357Y-97686428D02*
X193327928Y-97829286D01*
X193327928Y-97829286D02*
X193327928Y-98115000D01*
X193327928Y-98115000D02*
X193399357Y-98257857D01*
X193399357Y-98257857D02*
X193470785Y-98329286D01*
X193470785Y-98329286D02*
X193613642Y-98400714D01*
X193613642Y-98400714D02*
X194042214Y-98400714D01*
X194042214Y-98400714D02*
X194185071Y-98329286D01*
X194185071Y-98329286D02*
X194256500Y-98257857D01*
X194256500Y-98257857D02*
X194327928Y-98115000D01*
X194327928Y-98115000D02*
X194327928Y-97829286D01*
X194327928Y-97829286D02*
X194256500Y-97686428D01*
X193327928Y-99686429D02*
X194327928Y-99686429D01*
X193327928Y-99043571D02*
X194113642Y-99043571D01*
X194113642Y-99043571D02*
X194256500Y-99115000D01*
X194256500Y-99115000D02*
X194327928Y-99257857D01*
X194327928Y-99257857D02*
X194327928Y-99472143D01*
X194327928Y-99472143D02*
X194256500Y-99615000D01*
X194256500Y-99615000D02*
X194185071Y-99686429D01*
X194327928Y-100615000D02*
X194256500Y-100472143D01*
X194256500Y-100472143D02*
X194113642Y-100400714D01*
X194113642Y-100400714D02*
X192827928Y-100400714D01*
X194256500Y-101115000D02*
X194327928Y-101257857D01*
X194327928Y-101257857D02*
X194327928Y-101543571D01*
X194327928Y-101543571D02*
X194256500Y-101686428D01*
X194256500Y-101686428D02*
X194113642Y-101757857D01*
X194113642Y-101757857D02*
X194042214Y-101757857D01*
X194042214Y-101757857D02*
X193899357Y-101686428D01*
X193899357Y-101686428D02*
X193827928Y-101543571D01*
X193827928Y-101543571D02*
X193827928Y-101329286D01*
X193827928Y-101329286D02*
X193756500Y-101186428D01*
X193756500Y-101186428D02*
X193613642Y-101115000D01*
X193613642Y-101115000D02*
X193542214Y-101115000D01*
X193542214Y-101115000D02*
X193399357Y-101186428D01*
X193399357Y-101186428D02*
X193327928Y-101329286D01*
X193327928Y-101329286D02*
X193327928Y-101543571D01*
X193327928Y-101543571D02*
X193399357Y-101686428D01*
X194256500Y-102972143D02*
X194327928Y-102829286D01*
X194327928Y-102829286D02*
X194327928Y-102543572D01*
X194327928Y-102543572D02*
X194256500Y-102400714D01*
X194256500Y-102400714D02*
X194113642Y-102329286D01*
X194113642Y-102329286D02*
X193542214Y-102329286D01*
X193542214Y-102329286D02*
X193399357Y-102400714D01*
X193399357Y-102400714D02*
X193327928Y-102543572D01*
X193327928Y-102543572D02*
X193327928Y-102829286D01*
X193327928Y-102829286D02*
X193399357Y-102972143D01*
X193399357Y-102972143D02*
X193542214Y-103043572D01*
X193542214Y-103043572D02*
X193685071Y-103043572D01*
X193685071Y-103043572D02*
X193827928Y-102329286D01*
X203471928Y-95519857D02*
X201971928Y-95519857D01*
X203471928Y-97091286D02*
X202757642Y-96591286D01*
X203471928Y-96234143D02*
X201971928Y-96234143D01*
X201971928Y-96234143D02*
X201971928Y-96805572D01*
X201971928Y-96805572D02*
X202043357Y-96948429D01*
X202043357Y-96948429D02*
X202114785Y-97019858D01*
X202114785Y-97019858D02*
X202257642Y-97091286D01*
X202257642Y-97091286D02*
X202471928Y-97091286D01*
X202471928Y-97091286D02*
X202614785Y-97019858D01*
X202614785Y-97019858D02*
X202686214Y-96948429D01*
X202686214Y-96948429D02*
X202757642Y-96805572D01*
X202757642Y-96805572D02*
X202757642Y-96234143D01*
X203471928Y-97948429D02*
X203400500Y-97805572D01*
X203400500Y-97805572D02*
X203329071Y-97734143D01*
X203329071Y-97734143D02*
X203186214Y-97662715D01*
X203186214Y-97662715D02*
X202757642Y-97662715D01*
X202757642Y-97662715D02*
X202614785Y-97734143D01*
X202614785Y-97734143D02*
X202543357Y-97805572D01*
X202543357Y-97805572D02*
X202471928Y-97948429D01*
X202471928Y-97948429D02*
X202471928Y-98162715D01*
X202471928Y-98162715D02*
X202543357Y-98305572D01*
X202543357Y-98305572D02*
X202614785Y-98377001D01*
X202614785Y-98377001D02*
X202757642Y-98448429D01*
X202757642Y-98448429D02*
X203186214Y-98448429D01*
X203186214Y-98448429D02*
X203329071Y-98377001D01*
X203329071Y-98377001D02*
X203400500Y-98305572D01*
X203400500Y-98305572D02*
X203471928Y-98162715D01*
X203471928Y-98162715D02*
X203471928Y-97948429D01*
X202471928Y-98948429D02*
X203471928Y-99305572D01*
X203471928Y-99305572D02*
X202471928Y-99662715D01*
X203400500Y-100805572D02*
X203471928Y-100662715D01*
X203471928Y-100662715D02*
X203471928Y-100377001D01*
X203471928Y-100377001D02*
X203400500Y-100234143D01*
X203400500Y-100234143D02*
X203257642Y-100162715D01*
X203257642Y-100162715D02*
X202686214Y-100162715D01*
X202686214Y-100162715D02*
X202543357Y-100234143D01*
X202543357Y-100234143D02*
X202471928Y-100377001D01*
X202471928Y-100377001D02*
X202471928Y-100662715D01*
X202471928Y-100662715D02*
X202543357Y-100805572D01*
X202543357Y-100805572D02*
X202686214Y-100877001D01*
X202686214Y-100877001D02*
X202829071Y-100877001D01*
X202829071Y-100877001D02*
X202971928Y-100162715D01*
X203471928Y-101519857D02*
X202471928Y-101519857D01*
X202757642Y-101519857D02*
X202614785Y-101591286D01*
X202614785Y-101591286D02*
X202543357Y-101662715D01*
X202543357Y-101662715D02*
X202471928Y-101805572D01*
X202471928Y-101805572D02*
X202471928Y-101948429D01*
X156069357Y-90824572D02*
X155997928Y-90681715D01*
X155997928Y-90681715D02*
X155997928Y-90467429D01*
X155997928Y-90467429D02*
X156069357Y-90253143D01*
X156069357Y-90253143D02*
X156212214Y-90110286D01*
X156212214Y-90110286D02*
X156355071Y-90038857D01*
X156355071Y-90038857D02*
X156640785Y-89967429D01*
X156640785Y-89967429D02*
X156855071Y-89967429D01*
X156855071Y-89967429D02*
X157140785Y-90038857D01*
X157140785Y-90038857D02*
X157283642Y-90110286D01*
X157283642Y-90110286D02*
X157426500Y-90253143D01*
X157426500Y-90253143D02*
X157497928Y-90467429D01*
X157497928Y-90467429D02*
X157497928Y-90610286D01*
X157497928Y-90610286D02*
X157426500Y-90824572D01*
X157426500Y-90824572D02*
X157355071Y-90896000D01*
X157355071Y-90896000D02*
X156855071Y-90896000D01*
X156855071Y-90896000D02*
X156855071Y-90610286D01*
X157497928Y-91538857D02*
X155997928Y-91538857D01*
X155997928Y-91538857D02*
X155997928Y-92110286D01*
X155997928Y-92110286D02*
X156069357Y-92253143D01*
X156069357Y-92253143D02*
X156140785Y-92324572D01*
X156140785Y-92324572D02*
X156283642Y-92396000D01*
X156283642Y-92396000D02*
X156497928Y-92396000D01*
X156497928Y-92396000D02*
X156640785Y-92324572D01*
X156640785Y-92324572D02*
X156712214Y-92253143D01*
X156712214Y-92253143D02*
X156783642Y-92110286D01*
X156783642Y-92110286D02*
X156783642Y-91538857D01*
X157426500Y-92967429D02*
X157497928Y-93181715D01*
X157497928Y-93181715D02*
X157497928Y-93538857D01*
X157497928Y-93538857D02*
X157426500Y-93681715D01*
X157426500Y-93681715D02*
X157355071Y-93753143D01*
X157355071Y-93753143D02*
X157212214Y-93824572D01*
X157212214Y-93824572D02*
X157069357Y-93824572D01*
X157069357Y-93824572D02*
X156926500Y-93753143D01*
X156926500Y-93753143D02*
X156855071Y-93681715D01*
X156855071Y-93681715D02*
X156783642Y-93538857D01*
X156783642Y-93538857D02*
X156712214Y-93253143D01*
X156712214Y-93253143D02*
X156640785Y-93110286D01*
X156640785Y-93110286D02*
X156569357Y-93038857D01*
X156569357Y-93038857D02*
X156426500Y-92967429D01*
X156426500Y-92967429D02*
X156283642Y-92967429D01*
X156283642Y-92967429D02*
X156140785Y-93038857D01*
X156140785Y-93038857D02*
X156069357Y-93110286D01*
X156069357Y-93110286D02*
X155997928Y-93253143D01*
X155997928Y-93253143D02*
X155997928Y-93610286D01*
X155997928Y-93610286D02*
X156069357Y-93824572D01*
D11*
X168723621Y-117405800D02*
X171009336Y-117405800D01*
D10*
X201184012Y-70860510D02*
X199684012Y-70860510D01*
X200255441Y-70860510D02*
X200184012Y-71003368D01*
X200184012Y-71003368D02*
X200184012Y-71289082D01*
X200184012Y-71289082D02*
X200255441Y-71431939D01*
X200255441Y-71431939D02*
X200326869Y-71503368D01*
X200326869Y-71503368D02*
X200469726Y-71574796D01*
X200469726Y-71574796D02*
X200898298Y-71574796D01*
X200898298Y-71574796D02*
X201041155Y-71503368D01*
X201041155Y-71503368D02*
X201112584Y-71431939D01*
X201112584Y-71431939D02*
X201184012Y-71289082D01*
X201184012Y-71289082D02*
X201184012Y-71003368D01*
X201184012Y-71003368D02*
X201112584Y-70860510D01*
X199755441Y-73003368D02*
X199684012Y-72860511D01*
X199684012Y-72860511D02*
X199684012Y-72646225D01*
X199684012Y-72646225D02*
X199755441Y-72431939D01*
X199755441Y-72431939D02*
X199898298Y-72289082D01*
X199898298Y-72289082D02*
X200041155Y-72217653D01*
X200041155Y-72217653D02*
X200326869Y-72146225D01*
X200326869Y-72146225D02*
X200541155Y-72146225D01*
X200541155Y-72146225D02*
X200826869Y-72217653D01*
X200826869Y-72217653D02*
X200969726Y-72289082D01*
X200969726Y-72289082D02*
X201112584Y-72431939D01*
X201112584Y-72431939D02*
X201184012Y-72646225D01*
X201184012Y-72646225D02*
X201184012Y-72789082D01*
X201184012Y-72789082D02*
X201112584Y-73003368D01*
X201112584Y-73003368D02*
X201041155Y-73074796D01*
X201041155Y-73074796D02*
X200541155Y-73074796D01*
X200541155Y-73074796D02*
X200541155Y-72789082D01*
X201112584Y-74289082D02*
X201184012Y-74146225D01*
X201184012Y-74146225D02*
X201184012Y-73860511D01*
X201184012Y-73860511D02*
X201112584Y-73717653D01*
X201112584Y-73717653D02*
X200969726Y-73646225D01*
X200969726Y-73646225D02*
X200398298Y-73646225D01*
X200398298Y-73646225D02*
X200255441Y-73717653D01*
X200255441Y-73717653D02*
X200184012Y-73860511D01*
X200184012Y-73860511D02*
X200184012Y-74146225D01*
X200184012Y-74146225D02*
X200255441Y-74289082D01*
X200255441Y-74289082D02*
X200398298Y-74360511D01*
X200398298Y-74360511D02*
X200541155Y-74360511D01*
X200541155Y-74360511D02*
X200684012Y-73646225D01*
X201184012Y-75003367D02*
X200184012Y-75003367D01*
X199684012Y-75003367D02*
X199755441Y-74931939D01*
X199755441Y-74931939D02*
X199826869Y-75003367D01*
X199826869Y-75003367D02*
X199755441Y-75074796D01*
X199755441Y-75074796D02*
X199684012Y-75003367D01*
X199684012Y-75003367D02*
X199826869Y-75003367D01*
X200184012Y-76360511D02*
X201398298Y-76360511D01*
X201398298Y-76360511D02*
X201541155Y-76289082D01*
X201541155Y-76289082D02*
X201612584Y-76217653D01*
X201612584Y-76217653D02*
X201684012Y-76074796D01*
X201684012Y-76074796D02*
X201684012Y-75860511D01*
X201684012Y-75860511D02*
X201612584Y-75717653D01*
X201112584Y-76360511D02*
X201184012Y-76217653D01*
X201184012Y-76217653D02*
X201184012Y-75931939D01*
X201184012Y-75931939D02*
X201112584Y-75789082D01*
X201112584Y-75789082D02*
X201041155Y-75717653D01*
X201041155Y-75717653D02*
X200898298Y-75646225D01*
X200898298Y-75646225D02*
X200469726Y-75646225D01*
X200469726Y-75646225D02*
X200326869Y-75717653D01*
X200326869Y-75717653D02*
X200255441Y-75789082D01*
X200255441Y-75789082D02*
X200184012Y-75931939D01*
X200184012Y-75931939D02*
X200184012Y-76217653D01*
X200184012Y-76217653D02*
X200255441Y-76360511D01*
X201184012Y-77074796D02*
X200184012Y-77074796D01*
X199684012Y-77074796D02*
X199755441Y-77003368D01*
X199755441Y-77003368D02*
X199826869Y-77074796D01*
X199826869Y-77074796D02*
X199755441Y-77146225D01*
X199755441Y-77146225D02*
X199684012Y-77074796D01*
X199684012Y-77074796D02*
X199826869Y-77074796D01*
X201112584Y-78360511D02*
X201184012Y-78217654D01*
X201184012Y-78217654D02*
X201184012Y-77931940D01*
X201184012Y-77931940D02*
X201112584Y-77789082D01*
X201112584Y-77789082D02*
X200969726Y-77717654D01*
X200969726Y-77717654D02*
X200398298Y-77717654D01*
X200398298Y-77717654D02*
X200255441Y-77789082D01*
X200255441Y-77789082D02*
X200184012Y-77931940D01*
X200184012Y-77931940D02*
X200184012Y-78217654D01*
X200184012Y-78217654D02*
X200255441Y-78360511D01*
X200255441Y-78360511D02*
X200398298Y-78431940D01*
X200398298Y-78431940D02*
X200541155Y-78431940D01*
X200541155Y-78431940D02*
X200684012Y-77717654D01*
X199684012Y-78931939D02*
X199684012Y-79931939D01*
X199684012Y-79931939D02*
X201184012Y-78931939D01*
X201184012Y-78931939D02*
X201184012Y-79931939D01*
X201112584Y-81074796D02*
X201184012Y-80931939D01*
X201184012Y-80931939D02*
X201184012Y-80646225D01*
X201184012Y-80646225D02*
X201112584Y-80503367D01*
X201112584Y-80503367D02*
X200969726Y-80431939D01*
X200969726Y-80431939D02*
X200398298Y-80431939D01*
X200398298Y-80431939D02*
X200255441Y-80503367D01*
X200255441Y-80503367D02*
X200184012Y-80646225D01*
X200184012Y-80646225D02*
X200184012Y-80931939D01*
X200184012Y-80931939D02*
X200255441Y-81074796D01*
X200255441Y-81074796D02*
X200398298Y-81146225D01*
X200398298Y-81146225D02*
X200541155Y-81146225D01*
X200541155Y-81146225D02*
X200684012Y-80431939D01*
X200184012Y-81789081D02*
X201184012Y-81789081D01*
X200326869Y-81789081D02*
X200255441Y-81860510D01*
X200255441Y-81860510D02*
X200184012Y-82003367D01*
X200184012Y-82003367D02*
X200184012Y-82217653D01*
X200184012Y-82217653D02*
X200255441Y-82360510D01*
X200255441Y-82360510D02*
X200398298Y-82431939D01*
X200398298Y-82431939D02*
X201184012Y-82431939D01*
X202098928Y-70646225D02*
X203598928Y-71146225D01*
X203598928Y-71146225D02*
X202098928Y-71646225D01*
X202098928Y-72003367D02*
X202098928Y-72931939D01*
X202098928Y-72931939D02*
X202670357Y-72431939D01*
X202670357Y-72431939D02*
X202670357Y-72646224D01*
X202670357Y-72646224D02*
X202741785Y-72789082D01*
X202741785Y-72789082D02*
X202813214Y-72860510D01*
X202813214Y-72860510D02*
X202956071Y-72931939D01*
X202956071Y-72931939D02*
X203313214Y-72931939D01*
X203313214Y-72931939D02*
X203456071Y-72860510D01*
X203456071Y-72860510D02*
X203527500Y-72789082D01*
X203527500Y-72789082D02*
X203598928Y-72646224D01*
X203598928Y-72646224D02*
X203598928Y-72217653D01*
X203598928Y-72217653D02*
X203527500Y-72074796D01*
X203527500Y-72074796D02*
X203456071Y-72003367D01*
X203456071Y-73574795D02*
X203527500Y-73646224D01*
X203527500Y-73646224D02*
X203598928Y-73574795D01*
X203598928Y-73574795D02*
X203527500Y-73503367D01*
X203527500Y-73503367D02*
X203456071Y-73574795D01*
X203456071Y-73574795D02*
X203598928Y-73574795D01*
X202098928Y-74574796D02*
X202098928Y-74717653D01*
X202098928Y-74717653D02*
X202170357Y-74860510D01*
X202170357Y-74860510D02*
X202241785Y-74931939D01*
X202241785Y-74931939D02*
X202384642Y-75003367D01*
X202384642Y-75003367D02*
X202670357Y-75074796D01*
X202670357Y-75074796D02*
X203027500Y-75074796D01*
X203027500Y-75074796D02*
X203313214Y-75003367D01*
X203313214Y-75003367D02*
X203456071Y-74931939D01*
X203456071Y-74931939D02*
X203527500Y-74860510D01*
X203527500Y-74860510D02*
X203598928Y-74717653D01*
X203598928Y-74717653D02*
X203598928Y-74574796D01*
X203598928Y-74574796D02*
X203527500Y-74431939D01*
X203527500Y-74431939D02*
X203456071Y-74360510D01*
X203456071Y-74360510D02*
X203313214Y-74289081D01*
X203313214Y-74289081D02*
X203027500Y-74217653D01*
X203027500Y-74217653D02*
X202670357Y-74217653D01*
X202670357Y-74217653D02*
X202384642Y-74289081D01*
X202384642Y-74289081D02*
X202241785Y-74360510D01*
X202241785Y-74360510D02*
X202170357Y-74431939D01*
X202170357Y-74431939D02*
X202098928Y-74574796D01*
X203456071Y-75717652D02*
X203527500Y-75789081D01*
X203527500Y-75789081D02*
X203598928Y-75717652D01*
X203598928Y-75717652D02*
X203527500Y-75646224D01*
X203527500Y-75646224D02*
X203456071Y-75717652D01*
X203456071Y-75717652D02*
X203598928Y-75717652D01*
X202098928Y-76717653D02*
X202098928Y-76860510D01*
X202098928Y-76860510D02*
X202170357Y-77003367D01*
X202170357Y-77003367D02*
X202241785Y-77074796D01*
X202241785Y-77074796D02*
X202384642Y-77146224D01*
X202384642Y-77146224D02*
X202670357Y-77217653D01*
X202670357Y-77217653D02*
X203027500Y-77217653D01*
X203027500Y-77217653D02*
X203313214Y-77146224D01*
X203313214Y-77146224D02*
X203456071Y-77074796D01*
X203456071Y-77074796D02*
X203527500Y-77003367D01*
X203527500Y-77003367D02*
X203598928Y-76860510D01*
X203598928Y-76860510D02*
X203598928Y-76717653D01*
X203598928Y-76717653D02*
X203527500Y-76574796D01*
X203527500Y-76574796D02*
X203456071Y-76503367D01*
X203456071Y-76503367D02*
X203313214Y-76431938D01*
X203313214Y-76431938D02*
X203027500Y-76360510D01*
X203027500Y-76360510D02*
X202670357Y-76360510D01*
X202670357Y-76360510D02*
X202384642Y-76431938D01*
X202384642Y-76431938D02*
X202241785Y-76503367D01*
X202241785Y-76503367D02*
X202170357Y-76574796D01*
X202170357Y-76574796D02*
X202098928Y-76717653D01*
X206013844Y-70860510D02*
X204513844Y-70860510D01*
X204513844Y-70860510D02*
X204513844Y-71431939D01*
X204513844Y-71431939D02*
X204585273Y-71574796D01*
X204585273Y-71574796D02*
X204656701Y-71646225D01*
X204656701Y-71646225D02*
X204799558Y-71717653D01*
X204799558Y-71717653D02*
X205013844Y-71717653D01*
X205013844Y-71717653D02*
X205156701Y-71646225D01*
X205156701Y-71646225D02*
X205228130Y-71574796D01*
X205228130Y-71574796D02*
X205299558Y-71431939D01*
X205299558Y-71431939D02*
X205299558Y-70860510D01*
X206013844Y-72360510D02*
X205013844Y-72360510D01*
X205299558Y-72360510D02*
X205156701Y-72431939D01*
X205156701Y-72431939D02*
X205085273Y-72503368D01*
X205085273Y-72503368D02*
X205013844Y-72646225D01*
X205013844Y-72646225D02*
X205013844Y-72789082D01*
X206013844Y-73503367D02*
X205942416Y-73360510D01*
X205942416Y-73360510D02*
X205870987Y-73289081D01*
X205870987Y-73289081D02*
X205728130Y-73217653D01*
X205728130Y-73217653D02*
X205299558Y-73217653D01*
X205299558Y-73217653D02*
X205156701Y-73289081D01*
X205156701Y-73289081D02*
X205085273Y-73360510D01*
X205085273Y-73360510D02*
X205013844Y-73503367D01*
X205013844Y-73503367D02*
X205013844Y-73717653D01*
X205013844Y-73717653D02*
X205085273Y-73860510D01*
X205085273Y-73860510D02*
X205156701Y-73931939D01*
X205156701Y-73931939D02*
X205299558Y-74003367D01*
X205299558Y-74003367D02*
X205728130Y-74003367D01*
X205728130Y-74003367D02*
X205870987Y-73931939D01*
X205870987Y-73931939D02*
X205942416Y-73860510D01*
X205942416Y-73860510D02*
X206013844Y-73717653D01*
X206013844Y-73717653D02*
X206013844Y-73503367D01*
X206013844Y-75289082D02*
X204513844Y-75289082D01*
X205942416Y-75289082D02*
X206013844Y-75146224D01*
X206013844Y-75146224D02*
X206013844Y-74860510D01*
X206013844Y-74860510D02*
X205942416Y-74717653D01*
X205942416Y-74717653D02*
X205870987Y-74646224D01*
X205870987Y-74646224D02*
X205728130Y-74574796D01*
X205728130Y-74574796D02*
X205299558Y-74574796D01*
X205299558Y-74574796D02*
X205156701Y-74646224D01*
X205156701Y-74646224D02*
X205085273Y-74717653D01*
X205085273Y-74717653D02*
X205013844Y-74860510D01*
X205013844Y-74860510D02*
X205013844Y-75146224D01*
X205013844Y-75146224D02*
X205085273Y-75289082D01*
X205013844Y-76646225D02*
X206013844Y-76646225D01*
X205013844Y-76003367D02*
X205799558Y-76003367D01*
X205799558Y-76003367D02*
X205942416Y-76074796D01*
X205942416Y-76074796D02*
X206013844Y-76217653D01*
X206013844Y-76217653D02*
X206013844Y-76431939D01*
X206013844Y-76431939D02*
X205942416Y-76574796D01*
X205942416Y-76574796D02*
X205870987Y-76646225D01*
X205942416Y-78003368D02*
X206013844Y-77860510D01*
X206013844Y-77860510D02*
X206013844Y-77574796D01*
X206013844Y-77574796D02*
X205942416Y-77431939D01*
X205942416Y-77431939D02*
X205870987Y-77360510D01*
X205870987Y-77360510D02*
X205728130Y-77289082D01*
X205728130Y-77289082D02*
X205299558Y-77289082D01*
X205299558Y-77289082D02*
X205156701Y-77360510D01*
X205156701Y-77360510D02*
X205085273Y-77431939D01*
X205085273Y-77431939D02*
X205013844Y-77574796D01*
X205013844Y-77574796D02*
X205013844Y-77860510D01*
X205013844Y-77860510D02*
X205085273Y-78003368D01*
X205013844Y-78431939D02*
X205013844Y-79003367D01*
X204513844Y-78646224D02*
X205799558Y-78646224D01*
X205799558Y-78646224D02*
X205942416Y-78717653D01*
X205942416Y-78717653D02*
X206013844Y-78860510D01*
X206013844Y-78860510D02*
X206013844Y-79003367D01*
X206013844Y-79503367D02*
X205013844Y-79503367D01*
X204513844Y-79503367D02*
X204585273Y-79431939D01*
X204585273Y-79431939D02*
X204656701Y-79503367D01*
X204656701Y-79503367D02*
X204585273Y-79574796D01*
X204585273Y-79574796D02*
X204513844Y-79503367D01*
X204513844Y-79503367D02*
X204656701Y-79503367D01*
X206013844Y-80431939D02*
X205942416Y-80289082D01*
X205942416Y-80289082D02*
X205870987Y-80217653D01*
X205870987Y-80217653D02*
X205728130Y-80146225D01*
X205728130Y-80146225D02*
X205299558Y-80146225D01*
X205299558Y-80146225D02*
X205156701Y-80217653D01*
X205156701Y-80217653D02*
X205085273Y-80289082D01*
X205085273Y-80289082D02*
X205013844Y-80431939D01*
X205013844Y-80431939D02*
X205013844Y-80646225D01*
X205013844Y-80646225D02*
X205085273Y-80789082D01*
X205085273Y-80789082D02*
X205156701Y-80860511D01*
X205156701Y-80860511D02*
X205299558Y-80931939D01*
X205299558Y-80931939D02*
X205728130Y-80931939D01*
X205728130Y-80931939D02*
X205870987Y-80860511D01*
X205870987Y-80860511D02*
X205942416Y-80789082D01*
X205942416Y-80789082D02*
X206013844Y-80646225D01*
X206013844Y-80646225D02*
X206013844Y-80431939D01*
X205013844Y-81574796D02*
X206013844Y-81574796D01*
X205156701Y-81574796D02*
X205085273Y-81646225D01*
X205085273Y-81646225D02*
X205013844Y-81789082D01*
X205013844Y-81789082D02*
X205013844Y-82003368D01*
X205013844Y-82003368D02*
X205085273Y-82146225D01*
X205085273Y-82146225D02*
X205228130Y-82217654D01*
X205228130Y-82217654D02*
X206013844Y-82217654D01*
D12*
X212051371Y-117517142D02*
X212028514Y-117448570D01*
X212028514Y-117448570D02*
X212005657Y-117425713D01*
X212005657Y-117425713D02*
X211959942Y-117402856D01*
X211959942Y-117402856D02*
X211891371Y-117402856D01*
X211891371Y-117402856D02*
X211845657Y-117425713D01*
X211845657Y-117425713D02*
X211822800Y-117448570D01*
X211822800Y-117448570D02*
X211799942Y-117494285D01*
X211799942Y-117494285D02*
X211799942Y-117677142D01*
X211799942Y-117677142D02*
X212279942Y-117677142D01*
X212279942Y-117677142D02*
X212279942Y-117517142D01*
X212279942Y-117517142D02*
X212257085Y-117471428D01*
X212257085Y-117471428D02*
X212234228Y-117448570D01*
X212234228Y-117448570D02*
X212188514Y-117425713D01*
X212188514Y-117425713D02*
X212142800Y-117425713D01*
X212142800Y-117425713D02*
X212097085Y-117448570D01*
X212097085Y-117448570D02*
X212074228Y-117471428D01*
X212074228Y-117471428D02*
X212051371Y-117517142D01*
X212051371Y-117517142D02*
X212051371Y-117677142D01*
X212279942Y-117265713D02*
X212279942Y-116991428D01*
X211799942Y-117128570D02*
X212279942Y-117128570D01*
X211799942Y-116579999D02*
X211799942Y-116854285D01*
X211799942Y-116717142D02*
X212279942Y-116717142D01*
X212279942Y-116717142D02*
X212211371Y-116762856D01*
X212211371Y-116762856D02*
X212165657Y-116808571D01*
X212165657Y-116808571D02*
X212142800Y-116854285D01*
X205193342Y-118774285D02*
X205193342Y-118477142D01*
X205193342Y-118477142D02*
X205010485Y-118637142D01*
X205010485Y-118637142D02*
X205010485Y-118568571D01*
X205010485Y-118568571D02*
X204987628Y-118522857D01*
X204987628Y-118522857D02*
X204964771Y-118499999D01*
X204964771Y-118499999D02*
X204919057Y-118477142D01*
X204919057Y-118477142D02*
X204804771Y-118477142D01*
X204804771Y-118477142D02*
X204759057Y-118499999D01*
X204759057Y-118499999D02*
X204736200Y-118522857D01*
X204736200Y-118522857D02*
X204713342Y-118568571D01*
X204713342Y-118568571D02*
X204713342Y-118705714D01*
X204713342Y-118705714D02*
X204736200Y-118751428D01*
X204736200Y-118751428D02*
X204759057Y-118774285D01*
X204759057Y-118271428D02*
X204736200Y-118248571D01*
X204736200Y-118248571D02*
X204713342Y-118271428D01*
X204713342Y-118271428D02*
X204736200Y-118294285D01*
X204736200Y-118294285D02*
X204759057Y-118271428D01*
X204759057Y-118271428D02*
X204713342Y-118271428D01*
X205193342Y-118088571D02*
X205193342Y-117768571D01*
X205193342Y-117768571D02*
X204713342Y-117974285D01*
X205193342Y-117288571D02*
X204713342Y-117128571D01*
X204713342Y-117128571D02*
X205193342Y-116968571D01*
X204713342Y-116214285D02*
X204713342Y-116442857D01*
X204713342Y-116442857D02*
X205193342Y-116442857D01*
X204713342Y-116054286D02*
X205033342Y-116054286D01*
X205193342Y-116054286D02*
X205170485Y-116077143D01*
X205170485Y-116077143D02*
X205147628Y-116054286D01*
X205147628Y-116054286D02*
X205170485Y-116031429D01*
X205170485Y-116031429D02*
X205193342Y-116054286D01*
X205193342Y-116054286D02*
X205147628Y-116054286D01*
X205033342Y-115825715D02*
X204553342Y-115825715D01*
X205010485Y-115825715D02*
X205033342Y-115780001D01*
X205033342Y-115780001D02*
X205033342Y-115688572D01*
X205033342Y-115688572D02*
X205010485Y-115642858D01*
X205010485Y-115642858D02*
X204987628Y-115620001D01*
X204987628Y-115620001D02*
X204941914Y-115597143D01*
X204941914Y-115597143D02*
X204804771Y-115597143D01*
X204804771Y-115597143D02*
X204759057Y-115620001D01*
X204759057Y-115620001D02*
X204736200Y-115642858D01*
X204736200Y-115642858D02*
X204713342Y-115688572D01*
X204713342Y-115688572D02*
X204713342Y-115780001D01*
X204713342Y-115780001D02*
X204736200Y-115825715D01*
X204713342Y-115322857D02*
X204736200Y-115368572D01*
X204736200Y-115368572D02*
X204759057Y-115391429D01*
X204759057Y-115391429D02*
X204804771Y-115414286D01*
X204804771Y-115414286D02*
X204941914Y-115414286D01*
X204941914Y-115414286D02*
X204987628Y-115391429D01*
X204987628Y-115391429D02*
X205010485Y-115368572D01*
X205010485Y-115368572D02*
X205033342Y-115322857D01*
X205033342Y-115322857D02*
X205033342Y-115254286D01*
X205033342Y-115254286D02*
X205010485Y-115208572D01*
X205010485Y-115208572D02*
X204987628Y-115185715D01*
X204987628Y-115185715D02*
X204941914Y-115162857D01*
X204941914Y-115162857D02*
X204804771Y-115162857D01*
X204804771Y-115162857D02*
X204759057Y-115185715D01*
X204759057Y-115185715D02*
X204736200Y-115208572D01*
X204736200Y-115208572D02*
X204713342Y-115254286D01*
X204713342Y-115254286D02*
X204713342Y-115322857D01*
D13*
X193903457Y-117629000D02*
X191617743Y-117629000D01*
X192760600Y-118771857D02*
X192760600Y-116486142D01*
D10*
X178591031Y-115699429D02*
X178591031Y-114973715D01*
X178591031Y-114973715D02*
X177067031Y-114973715D01*
X178591031Y-116425143D02*
X178518460Y-116280000D01*
X178518460Y-116280000D02*
X178445888Y-116207429D01*
X178445888Y-116207429D02*
X178300745Y-116134857D01*
X178300745Y-116134857D02*
X177865317Y-116134857D01*
X177865317Y-116134857D02*
X177720174Y-116207429D01*
X177720174Y-116207429D02*
X177647602Y-116280000D01*
X177647602Y-116280000D02*
X177575031Y-116425143D01*
X177575031Y-116425143D02*
X177575031Y-116642857D01*
X177575031Y-116642857D02*
X177647602Y-116788000D01*
X177647602Y-116788000D02*
X177720174Y-116860572D01*
X177720174Y-116860572D02*
X177865317Y-116933143D01*
X177865317Y-116933143D02*
X178300745Y-116933143D01*
X178300745Y-116933143D02*
X178445888Y-116860572D01*
X178445888Y-116860572D02*
X178518460Y-116788000D01*
X178518460Y-116788000D02*
X178591031Y-116642857D01*
X178591031Y-116642857D02*
X178591031Y-116425143D01*
X177575031Y-118239429D02*
X178808745Y-118239429D01*
X178808745Y-118239429D02*
X178953888Y-118166857D01*
X178953888Y-118166857D02*
X179026460Y-118094286D01*
X179026460Y-118094286D02*
X179099031Y-117949143D01*
X179099031Y-117949143D02*
X179099031Y-117731429D01*
X179099031Y-117731429D02*
X179026460Y-117586286D01*
X178518460Y-118239429D02*
X178591031Y-118094286D01*
X178591031Y-118094286D02*
X178591031Y-117804000D01*
X178591031Y-117804000D02*
X178518460Y-117658857D01*
X178518460Y-117658857D02*
X178445888Y-117586286D01*
X178445888Y-117586286D02*
X178300745Y-117513714D01*
X178300745Y-117513714D02*
X177865317Y-117513714D01*
X177865317Y-117513714D02*
X177720174Y-117586286D01*
X177720174Y-117586286D02*
X177647602Y-117658857D01*
X177647602Y-117658857D02*
X177575031Y-117804000D01*
X177575031Y-117804000D02*
X177575031Y-118094286D01*
X177575031Y-118094286D02*
X177647602Y-118239429D01*
X178591031Y-119182857D02*
X178518460Y-119037714D01*
X178518460Y-119037714D02*
X178445888Y-118965143D01*
X178445888Y-118965143D02*
X178300745Y-118892571D01*
X178300745Y-118892571D02*
X177865317Y-118892571D01*
X177865317Y-118892571D02*
X177720174Y-118965143D01*
X177720174Y-118965143D02*
X177647602Y-119037714D01*
X177647602Y-119037714D02*
X177575031Y-119182857D01*
X177575031Y-119182857D02*
X177575031Y-119400571D01*
X177575031Y-119400571D02*
X177647602Y-119545714D01*
X177647602Y-119545714D02*
X177720174Y-119618286D01*
X177720174Y-119618286D02*
X177865317Y-119690857D01*
X177865317Y-119690857D02*
X178300745Y-119690857D01*
X178300745Y-119690857D02*
X178445888Y-119618286D01*
X178445888Y-119618286D02*
X178518460Y-119545714D01*
X178518460Y-119545714D02*
X178591031Y-119400571D01*
X178591031Y-119400571D02*
X178591031Y-119182857D01*
D14*
X143052800Y-112685000D02*
X143052800Y-121575000D01*
X143052800Y-121575000D02*
X146532600Y-121575000D01*
X146532600Y-111567400D02*
X146532600Y-112685000D01*
X146532600Y-112685000D02*
X143052800Y-112685000D01*
X146532600Y-121575000D02*
X146532600Y-122692600D01*
X146532600Y-122692600D02*
X156067600Y-122692600D01*
X156067600Y-111567400D02*
X146532600Y-111567400D01*
X156067600Y-122692600D02*
X156067600Y-111567400D01*
X198527600Y-111587400D02*
X198527600Y-122712600D01*
X198527600Y-122712600D02*
X208062600Y-122712600D01*
X208062600Y-111587400D02*
X198527600Y-111587400D01*
X208062600Y-112705000D02*
X208062600Y-111587400D01*
X208062600Y-121595000D02*
X211542400Y-121595000D01*
X208062600Y-122712600D02*
X208062600Y-121595000D01*
X211542400Y-112705000D02*
X208062600Y-112705000D01*
X211542400Y-121595000D02*
X211542400Y-112705000D01*
D15*
G36*
X183984025Y-116956638D02*
G01*
X183489262Y-116956638D01*
X183386943Y-116956478D01*
X183221258Y-116954611D01*
X183095338Y-116949308D01*
X183000947Y-116938920D01*
X182929844Y-116921800D01*
X182873792Y-116896300D01*
X182824553Y-116860773D01*
X182773886Y-116813571D01*
X182752681Y-116791613D01*
X182714647Y-116738388D01*
X182694808Y-116674062D01*
X182685459Y-116578118D01*
X182686363Y-116458172D01*
X182711449Y-116363731D01*
X182769021Y-116288579D01*
X182866836Y-116217283D01*
X182888415Y-116204050D01*
X182929470Y-116181092D01*
X182970938Y-116164230D01*
X183021449Y-116152215D01*
X183089633Y-116143800D01*
X183184119Y-116137735D01*
X183313536Y-116132774D01*
X183486516Y-116127667D01*
X183984025Y-116113584D01*
X183984025Y-116956638D01*
G37*
G36*
X186281250Y-117061057D02*
G01*
X185860992Y-117061057D01*
X185699741Y-117060004D01*
X185565815Y-117056031D01*
X185467782Y-117048447D01*
X185397149Y-117036573D01*
X185345422Y-117019727D01*
X185329845Y-117012957D01*
X185245283Y-116974641D01*
X185194666Y-116946210D01*
X185165344Y-116919182D01*
X185144671Y-116885071D01*
X185124138Y-116848992D01*
X185082973Y-116790023D01*
X185068702Y-116762484D01*
X185057034Y-116686060D01*
X185058766Y-116564905D01*
X185059592Y-116550616D01*
X185067802Y-116455490D01*
X185083059Y-116392246D01*
X185112142Y-116342719D01*
X185161832Y-116288745D01*
X185205041Y-116249281D01*
X185260943Y-116211796D01*
X185327845Y-116184735D01*
X185413980Y-116166462D01*
X185527579Y-116155341D01*
X185676874Y-116149736D01*
X185870099Y-116148011D01*
X186281250Y-116147388D01*
X186281250Y-117061057D01*
G37*
G36*
X178465082Y-119139598D02*
G01*
X178573041Y-119219029D01*
X178597434Y-119247462D01*
X178641279Y-119315985D01*
X178658640Y-119371653D01*
X178664314Y-119413555D01*
X178684745Y-119449649D01*
X178709500Y-119482203D01*
X178689145Y-119529269D01*
X178682450Y-119539499D01*
X178659646Y-119592326D01*
X178635474Y-119666394D01*
X178625491Y-119696526D01*
X178592996Y-119761264D01*
X178559285Y-119794360D01*
X178523792Y-119811664D01*
X178466955Y-119851430D01*
X178420857Y-119873087D01*
X178335274Y-119887881D01*
X178234568Y-119890540D01*
X178138161Y-119880739D01*
X178065476Y-119858152D01*
X178049574Y-119847985D01*
X177992889Y-119797826D01*
X177935292Y-119731957D01*
X177885221Y-119644814D01*
X177857418Y-119514836D01*
X177876794Y-119383577D01*
X177943150Y-119262812D01*
X177967424Y-119235109D01*
X178078582Y-119150854D01*
X178206288Y-119106315D01*
X178338976Y-119102295D01*
X178465082Y-119139598D01*
G37*
G36*
X178331879Y-120114282D02*
G01*
X178438271Y-120139229D01*
X178536000Y-120181083D01*
X178647406Y-120257965D01*
X178721008Y-120347823D01*
X178763818Y-120461865D01*
X178777614Y-120530119D01*
X178783900Y-120653106D01*
X178760536Y-120780995D01*
X178743854Y-120825998D01*
X178698978Y-120905243D01*
X178642183Y-120979168D01*
X178584815Y-121033782D01*
X178538223Y-121055096D01*
X178527555Y-121056627D01*
X178496629Y-121084293D01*
X178496433Y-121084803D01*
X178465889Y-121100991D01*
X178397505Y-121115467D01*
X178305194Y-121125254D01*
X178191949Y-121126353D01*
X178067692Y-121102441D01*
X177964366Y-121043766D01*
X177867411Y-120944310D01*
X177810594Y-120843529D01*
X177776965Y-120705974D01*
X177775788Y-120557508D01*
X177808953Y-120415246D01*
X177810919Y-120410232D01*
X177859399Y-120323503D01*
X177926238Y-120245498D01*
X177998187Y-120189185D01*
X178061998Y-120167532D01*
X178080072Y-120164977D01*
X178129113Y-120138415D01*
X178155850Y-120121684D01*
X178232510Y-120107885D01*
X178331879Y-120114282D01*
G37*
G36*
X167642401Y-118058862D02*
G01*
X167179041Y-118048227D01*
X167098394Y-118046215D01*
X166939010Y-118040665D01*
X166820707Y-118033447D01*
X166735640Y-118023781D01*
X166675963Y-118010886D01*
X166633828Y-117993982D01*
X166614310Y-117982408D01*
X166544170Y-117927626D01*
X166470272Y-117855180D01*
X166403730Y-117777663D01*
X166355654Y-117707670D01*
X166337160Y-117657793D01*
X166333541Y-117630995D01*
X166315539Y-117609258D01*
X166294969Y-117594477D01*
X166272906Y-117536422D01*
X166256017Y-117443212D01*
X166244341Y-117324325D01*
X166237911Y-117189240D01*
X166236766Y-117047437D01*
X166240940Y-116908395D01*
X166250471Y-116781593D01*
X166265395Y-116676510D01*
X166285747Y-116602624D01*
X166311564Y-116569416D01*
X166319960Y-116564767D01*
X166337160Y-116528431D01*
X166337226Y-116526652D01*
X166357748Y-116480721D01*
X166407252Y-116415042D01*
X166474597Y-116341792D01*
X166548640Y-116273149D01*
X166618236Y-116221288D01*
X166644798Y-116205706D01*
X166684035Y-116187853D01*
X166731453Y-116174977D01*
X166795858Y-116165980D01*
X166886054Y-116159762D01*
X167010846Y-116155223D01*
X167179041Y-116151264D01*
X167642401Y-116141566D01*
X167642401Y-118058862D01*
G37*
G36*
X176373684Y-119983530D02*
G01*
X176399495Y-120000982D01*
X176455619Y-120010903D01*
X176493504Y-120013362D01*
X176606246Y-120053624D01*
X176709434Y-120143892D01*
X176804132Y-120285004D01*
X176831550Y-120353845D01*
X176852874Y-120479506D01*
X176851440Y-120615442D01*
X176827980Y-120742232D01*
X176783225Y-120840453D01*
X176775343Y-120851769D01*
X176740878Y-120908523D01*
X176726882Y-120944711D01*
X176726403Y-120949718D01*
X176697252Y-120990966D01*
X176632634Y-121036181D01*
X176546092Y-121078579D01*
X176451171Y-121111374D01*
X176361415Y-121127783D01*
X176318730Y-121130313D01*
X176241638Y-121127087D01*
X176179362Y-121104939D01*
X176106029Y-121056664D01*
X176065879Y-121025107D01*
X175974990Y-120932298D01*
X175913991Y-120836393D01*
X175891625Y-120749905D01*
X175886487Y-120712964D01*
X175865423Y-120676576D01*
X175855567Y-120663672D01*
X175843101Y-120611175D01*
X175840063Y-120541761D01*
X175846672Y-120478143D01*
X175863152Y-120443036D01*
X175868756Y-120437302D01*
X175888293Y-120392270D01*
X175904893Y-120322310D01*
X175926272Y-120251714D01*
X175993414Y-120147055D01*
X176088664Y-120065582D01*
X176197875Y-120021806D01*
X176211706Y-120019137D01*
X176282022Y-120000323D01*
X176326460Y-119980127D01*
X176342540Y-119971230D01*
X176373684Y-119983530D01*
G37*
G36*
X172643326Y-119113111D02*
G01*
X172769988Y-119159909D01*
X172869274Y-119240210D01*
X172882645Y-119257797D01*
X172932599Y-119350475D01*
X172976647Y-119469125D01*
X173008033Y-119593059D01*
X173019996Y-119701589D01*
X173026740Y-119753446D01*
X173046101Y-119789012D01*
X173048936Y-119792421D01*
X173058642Y-119834638D01*
X173065762Y-119913156D01*
X173070219Y-120015345D01*
X173071939Y-120128573D01*
X173070848Y-120240208D01*
X173066870Y-120337621D01*
X173059930Y-120408179D01*
X173049955Y-120439251D01*
X173036799Y-120468961D01*
X173022841Y-120536411D01*
X173011509Y-120626421D01*
X172998609Y-120722179D01*
X172959636Y-120850291D01*
X172891206Y-120954496D01*
X172784686Y-121050951D01*
X172739243Y-121084427D01*
X172677380Y-121119126D01*
X172615076Y-121130900D01*
X172527303Y-121127160D01*
X172462164Y-121119921D01*
X172397528Y-121101713D01*
X172341403Y-121064164D01*
X172273104Y-120996658D01*
X172223240Y-120938267D01*
X172171236Y-120862407D01*
X172144650Y-120803360D01*
X172127248Y-120741437D01*
X172097770Y-120665930D01*
X172089527Y-120636172D01*
X172079976Y-120559538D01*
X172072821Y-120450763D01*
X172068045Y-120319215D01*
X172065631Y-120174260D01*
X172065562Y-120025265D01*
X172067822Y-119881597D01*
X172072393Y-119752622D01*
X172079257Y-119647709D01*
X172088399Y-119576223D01*
X172099801Y-119547532D01*
X172117309Y-119534030D01*
X172132432Y-119487859D01*
X172141841Y-119423901D01*
X172190846Y-119319284D01*
X172271244Y-119223285D01*
X172371155Y-119148899D01*
X172478698Y-119109120D01*
X172506058Y-119105444D01*
X172643326Y-119113111D01*
G37*
G36*
X180959086Y-116133254D02*
G01*
X181067273Y-116161911D01*
X181247551Y-116245435D01*
X181391311Y-116366260D01*
X181498405Y-116524241D01*
X181568683Y-116719238D01*
X181577535Y-116759127D01*
X181600681Y-116929602D01*
X181606213Y-117112644D01*
X181595311Y-117295561D01*
X181569158Y-117465667D01*
X181528934Y-117610271D01*
X181475821Y-117716684D01*
X181473612Y-117719811D01*
X181439736Y-117775389D01*
X181425752Y-117813022D01*
X181424377Y-117818572D01*
X181395490Y-117852399D01*
X181340911Y-117893695D01*
X181338377Y-117895328D01*
X181256595Y-117948493D01*
X181178406Y-117999974D01*
X181160399Y-118010691D01*
X181075440Y-118046001D01*
X180982620Y-118068668D01*
X180950213Y-118074129D01*
X180876179Y-118092566D01*
X180831020Y-118112442D01*
X180785779Y-118125886D01*
X180700496Y-118111568D01*
X180653407Y-118098166D01*
X180555215Y-118070167D01*
X180453347Y-118041073D01*
X180385954Y-118019306D01*
X180326242Y-117993771D01*
X180303244Y-117974816D01*
X180282252Y-117948276D01*
X180231694Y-117917177D01*
X180175638Y-117876396D01*
X180125850Y-117811333D01*
X180125762Y-117811149D01*
X180095923Y-117760740D01*
X180072282Y-117739783D01*
X180058394Y-117723380D01*
X180033689Y-117668979D01*
X180005843Y-117589680D01*
X179983825Y-117522354D01*
X179955580Y-117443167D01*
X179935175Y-117394248D01*
X179932299Y-117387362D01*
X179921794Y-117331622D01*
X179915158Y-117245427D01*
X179912329Y-117142536D01*
X179913240Y-117036706D01*
X179917828Y-116941696D01*
X179926029Y-116871263D01*
X179937777Y-116839166D01*
X179953932Y-116815890D01*
X179963881Y-116761475D01*
X179964599Y-116746095D01*
X179991028Y-116648384D01*
X180048771Y-116534733D01*
X180128567Y-116417521D01*
X180221154Y-116309126D01*
X180317274Y-116221926D01*
X180407663Y-116168299D01*
X180546657Y-116128809D01*
X180750050Y-116110822D01*
X180959086Y-116133254D01*
G37*
G36*
X170592247Y-110665374D02*
G01*
X172563162Y-110665374D01*
X173019996Y-110665374D01*
X176189623Y-110665374D01*
X177405608Y-110665374D01*
X177927705Y-110665374D01*
X180708199Y-110665374D01*
X183001953Y-110665374D01*
X182915176Y-110750214D01*
X182828398Y-110835055D01*
X183653042Y-110835857D01*
X185995326Y-110838134D01*
X189593057Y-110841631D01*
X190223080Y-110842244D01*
X196357715Y-110848207D01*
X196357715Y-114763832D01*
X197367595Y-114763832D01*
X197545672Y-114763852D01*
X197769434Y-114764082D01*
X197949593Y-114764795D01*
X198091287Y-114766264D01*
X198199657Y-114768761D01*
X198279842Y-114772558D01*
X198336982Y-114777928D01*
X198376218Y-114785144D01*
X198402688Y-114794478D01*
X198421533Y-114806203D01*
X198437893Y-114820592D01*
X198498311Y-114877352D01*
X198498311Y-119593226D01*
X196357715Y-119593226D01*
X196357715Y-123300146D01*
X176459308Y-123293602D01*
X156560901Y-123287059D01*
X156557584Y-120151731D01*
X171767549Y-120151731D01*
X171769475Y-120266193D01*
X171773763Y-120364675D01*
X171780404Y-120435118D01*
X171789389Y-120465463D01*
X171800512Y-120485370D01*
X171816223Y-120545358D01*
X171829359Y-120628606D01*
X171832894Y-120654281D01*
X171872582Y-120808547D01*
X171938985Y-120961606D01*
X172023473Y-121096461D01*
X172117418Y-121196111D01*
X172211541Y-121259710D01*
X172371397Y-121322008D01*
X172551291Y-121339878D01*
X172756341Y-121314265D01*
X172849591Y-121286588D01*
X172988688Y-121207379D01*
X173104064Y-121085923D01*
X173197632Y-120919963D01*
X173271309Y-120707243D01*
X173290245Y-120616824D01*
X173306639Y-120478063D01*
X173647351Y-120478063D01*
X173648485Y-120564144D01*
X173655635Y-120637229D01*
X173668769Y-120677881D01*
X173678797Y-120694924D01*
X173701731Y-120753691D01*
X173725740Y-120833205D01*
X173753283Y-120906366D01*
X173833026Y-121031482D01*
X173943263Y-121147349D01*
X174071067Y-121241316D01*
X174203511Y-121300732D01*
X174233177Y-121308829D01*
X174422534Y-121338223D01*
X174610671Y-121332643D01*
X174783876Y-121293567D01*
X174928441Y-121222477D01*
X174993014Y-121169807D01*
X175085103Y-121067028D01*
X175158344Y-120953024D01*
X175199438Y-120846257D01*
X175201012Y-120839110D01*
X175222031Y-120768989D01*
X175245118Y-120722259D01*
X175247797Y-120718632D01*
X175246695Y-120701148D01*
X175208588Y-120692165D01*
X175125965Y-120689628D01*
X174980526Y-120689628D01*
X174901014Y-120856229D01*
X174899885Y-120858588D01*
X174853873Y-120943758D01*
X174809306Y-121008649D01*
X174775683Y-121039380D01*
X174729559Y-121059683D01*
X174664601Y-121094286D01*
X174605952Y-121119330D01*
X174483871Y-121133946D01*
X174349045Y-121112888D01*
X174216371Y-121057381D01*
X174179493Y-121035377D01*
X174110130Y-120982525D01*
X174057425Y-120916409D01*
X174005212Y-120818761D01*
X173970242Y-120741987D01*
X173944218Y-120663149D01*
X173935896Y-120585353D01*
X173938203Y-120533822D01*
X175595557Y-120533822D01*
X175606968Y-120710042D01*
X175641879Y-120867386D01*
X175706281Y-121004608D01*
X175819635Y-121143153D01*
X175964892Y-121249685D01*
X176133363Y-121318089D01*
X176316364Y-121342249D01*
X176347084Y-121341700D01*
X176538701Y-121312758D01*
X176712606Y-121243561D01*
X176861121Y-121139292D01*
X176976571Y-121005130D01*
X177051278Y-120846257D01*
X177070531Y-120786499D01*
X177100088Y-120704779D01*
X177123355Y-120651735D01*
X177124786Y-120648738D01*
X177133961Y-120607300D01*
X177489710Y-120607300D01*
X177505524Y-120795797D01*
X177566271Y-120963250D01*
X177668032Y-121105214D01*
X177806887Y-121217249D01*
X177978917Y-121294910D01*
X178180203Y-121333757D01*
X178365123Y-121334456D01*
X178562628Y-121296344D01*
X178732750Y-121217720D01*
X178871692Y-121100433D01*
X178975658Y-120946332D01*
X179039254Y-120781594D01*
X179063191Y-120602471D01*
X179035797Y-120429902D01*
X178957021Y-120262035D01*
X178900520Y-120189332D01*
X178814561Y-120112136D01*
X178724161Y-120057647D01*
X178644784Y-120037008D01*
X178628585Y-120035778D01*
X178607669Y-120017831D01*
X178629434Y-119982874D01*
X178691271Y-119936546D01*
X178776664Y-119878097D01*
X178866550Y-119789970D01*
X178918539Y-119690114D01*
X178940789Y-119566423D01*
X178938730Y-119410399D01*
X178899743Y-119243796D01*
X178822921Y-119107418D01*
X178710685Y-119005297D01*
X178565459Y-118941468D01*
X178519806Y-118928223D01*
X178450108Y-118903825D01*
X178411949Y-118884547D01*
X178378199Y-118870172D01*
X178308082Y-118863038D01*
X178230250Y-118868516D01*
X178168820Y-118886418D01*
X178147547Y-118895860D01*
X178079142Y-118919428D01*
X177994781Y-118943340D01*
X177948999Y-118957704D01*
X177816863Y-119032411D01*
X177710755Y-119143615D01*
X177642249Y-119280257D01*
X177630562Y-119315485D01*
X177604140Y-119383830D01*
X177583803Y-119422239D01*
X177565730Y-119463862D01*
X177568261Y-119543296D01*
X177599794Y-119634898D01*
X177631736Y-119703663D01*
X177663399Y-119779827D01*
X177666711Y-119787583D01*
X177719286Y-119850616D01*
X177810484Y-119909405D01*
X177855112Y-119932590D01*
X177914880Y-119967205D01*
X177943282Y-119988884D01*
X177939439Y-119999344D01*
X177901723Y-120027151D01*
X177835986Y-120060579D01*
X177699702Y-120138371D01*
X177595425Y-120244378D01*
X177528234Y-120381105D01*
X177493450Y-120555312D01*
X177489710Y-120607300D01*
X177133961Y-120607300D01*
X177135925Y-120598432D01*
X177146039Y-120509100D01*
X177154064Y-120392444D01*
X177158939Y-120260162D01*
X177159984Y-120208055D01*
X177161556Y-120045926D01*
X177159053Y-119924274D01*
X177151839Y-119833952D01*
X177139277Y-119765810D01*
X177120732Y-119710697D01*
X177109983Y-119680267D01*
X177088259Y-119604818D01*
X177065989Y-119514911D01*
X177054743Y-119468202D01*
X177013888Y-119341292D01*
X176958238Y-119236943D01*
X176876540Y-119132440D01*
X176838444Y-119095381D01*
X176749234Y-119030306D01*
X176645775Y-118972219D01*
X176545697Y-118930492D01*
X176466630Y-118914500D01*
X176437444Y-118910434D01*
X176400572Y-118888395D01*
X176368915Y-118870496D01*
X176309205Y-118862290D01*
X179859462Y-118862290D01*
X179859462Y-121316144D01*
X180146615Y-121316144D01*
X180146615Y-120358922D01*
X180147049Y-120142006D01*
X180148251Y-119942591D01*
X180150127Y-119766462D01*
X180152579Y-119619402D01*
X180155513Y-119507197D01*
X180158831Y-119435632D01*
X180162437Y-119410492D01*
X180171524Y-119413871D01*
X180213505Y-119440244D01*
X180273383Y-119484214D01*
X180295444Y-119500432D01*
X180365457Y-119546956D01*
X180452940Y-119600998D01*
X180545597Y-119655435D01*
X180631137Y-119703140D01*
X180697266Y-119736988D01*
X180731689Y-119749854D01*
X180737251Y-119740880D01*
X180744279Y-119693373D01*
X180747026Y-119618684D01*
X180746738Y-119586081D01*
X180740608Y-119519913D01*
X180721401Y-119484227D01*
X180682457Y-119462965D01*
X180680958Y-119462391D01*
X180572389Y-119405852D01*
X180446104Y-119316740D01*
X180314061Y-119205150D01*
X180188219Y-119081175D01*
X180080538Y-118954909D01*
X180060650Y-118930222D01*
X179999772Y-118877659D01*
X179934678Y-118862290D01*
X179859462Y-118862290D01*
X176309205Y-118862290D01*
X176253203Y-118869436D01*
X176217838Y-118888395D01*
X176200023Y-118902882D01*
X176149349Y-118914500D01*
X176089374Y-118921113D01*
X175969141Y-118967984D01*
X175851371Y-119052873D01*
X175746331Y-119167540D01*
X175664288Y-119303748D01*
X175662903Y-119306734D01*
X175632332Y-119387247D01*
X175636625Y-119434623D01*
X175681326Y-119457046D01*
X175771982Y-119462701D01*
X175849978Y-119461315D01*
X175896147Y-119451907D01*
X175918602Y-119426685D01*
X175932039Y-119377861D01*
X175957282Y-119312709D01*
X176027861Y-119221644D01*
X176124074Y-119149505D01*
X176230191Y-119110404D01*
X176328059Y-119100240D01*
X176460162Y-119115234D01*
X176574230Y-119170983D01*
X176676958Y-119271291D01*
X176775043Y-119419964D01*
X176777511Y-119424361D01*
X176821307Y-119510142D01*
X176848906Y-119589048D01*
X176865482Y-119680773D01*
X176876209Y-119805011D01*
X176879003Y-119855362D01*
X176881277Y-119948501D01*
X176878744Y-120012937D01*
X176871632Y-120037008D01*
X176845091Y-120021839D01*
X176791511Y-119980130D01*
X176723205Y-119921187D01*
X176662893Y-119871979D01*
X176508887Y-119788238D01*
X176341947Y-119754722D01*
X176158943Y-119770594D01*
X176099986Y-119785319D01*
X176020002Y-119813172D01*
X175970476Y-119840648D01*
X175938640Y-119864334D01*
X175898033Y-119880379D01*
X175889440Y-119881902D01*
X175844467Y-119913333D01*
X175787769Y-119976116D01*
X175728455Y-120057986D01*
X175675632Y-120146682D01*
X175638407Y-120229941D01*
X175607769Y-120361359D01*
X175595557Y-120533822D01*
X173938203Y-120533822D01*
X173940450Y-120483640D01*
X173944689Y-120445538D01*
X173966866Y-120341059D01*
X174000946Y-120238129D01*
X174041582Y-120149196D01*
X174083425Y-120086708D01*
X174121128Y-120063112D01*
X174124426Y-120062795D01*
X174165860Y-120045182D01*
X174223625Y-120008905D01*
X174301465Y-119971051D01*
X174424723Y-119950364D01*
X174559915Y-119958602D01*
X174691789Y-119992990D01*
X174805095Y-120050755D01*
X174884581Y-120129123D01*
X174895254Y-120144655D01*
X174926845Y-120174586D01*
X174972153Y-120183375D01*
X175049899Y-120176373D01*
X175090741Y-120170827D01*
X175152595Y-120161431D01*
X175179529Y-120155795D01*
X175180603Y-120141309D01*
X175175107Y-120085915D01*
X175163315Y-120001320D01*
X175147390Y-119900464D01*
X175129492Y-119796287D01*
X175111782Y-119701728D01*
X175096421Y-119629728D01*
X175085572Y-119593226D01*
X175074101Y-119556263D01*
X175056908Y-119478014D01*
X175036831Y-119371099D01*
X175016238Y-119247337D01*
X174968257Y-118940605D01*
X173777037Y-118940605D01*
X173777037Y-119175548D01*
X174259976Y-119175548D01*
X174315733Y-119175588D01*
X174473887Y-119176461D01*
X174588418Y-119178894D01*
X174665956Y-119183428D01*
X174713131Y-119190605D01*
X174736574Y-119200968D01*
X174742915Y-119215060D01*
X174746659Y-119242020D01*
X174768798Y-119299900D01*
X174769029Y-119300310D01*
X174784957Y-119346140D01*
X174803907Y-119425294D01*
X174823469Y-119523727D01*
X174841234Y-119627394D01*
X174854792Y-119722253D01*
X174861733Y-119794258D01*
X174859647Y-119829366D01*
X174849400Y-119832891D01*
X174803465Y-119822681D01*
X174736330Y-119794206D01*
X174708924Y-119781436D01*
X174630246Y-119755779D01*
X174534200Y-119742229D01*
X174403552Y-119737868D01*
X174375883Y-119737803D01*
X174268515Y-119740404D01*
X174192102Y-119750458D01*
X174129110Y-119771519D01*
X174062006Y-119807146D01*
X174000624Y-119847033D01*
X173875831Y-119954668D01*
X173779170Y-120076179D01*
X173721960Y-120198540D01*
X173712889Y-120228638D01*
X173688254Y-120297009D01*
X173668217Y-120335908D01*
X173663253Y-120344656D01*
X173652263Y-120398421D01*
X173647351Y-120478063D01*
X173306639Y-120478063D01*
X173308812Y-120459674D01*
X173319041Y-120275893D01*
X173321128Y-120078536D01*
X173315269Y-119880663D01*
X173301658Y-119695332D01*
X173280491Y-119535601D01*
X173251964Y-119414527D01*
X173196509Y-119289287D01*
X173109888Y-119160092D01*
X173006090Y-119049760D01*
X172895200Y-118968854D01*
X172787301Y-118927932D01*
X172763556Y-118923397D01*
X172699168Y-118905100D01*
X172666177Y-118886124D01*
X172664783Y-118884289D01*
X172627171Y-118868692D01*
X172563162Y-118862290D01*
X172556324Y-118862361D01*
X172493881Y-118869912D01*
X172460146Y-118886124D01*
X172453840Y-118892107D01*
X172408006Y-118911585D01*
X172337372Y-118928211D01*
X172235393Y-118966469D01*
X172126113Y-119042496D01*
X172022260Y-119145677D01*
X171936432Y-119265414D01*
X171903956Y-119335906D01*
X171868543Y-119442922D01*
X171842697Y-119554068D01*
X171841916Y-119558509D01*
X171823018Y-119652087D01*
X171803997Y-119724931D01*
X171788857Y-119761602D01*
X171783652Y-119775260D01*
X171776037Y-119833053D01*
X171770821Y-119923102D01*
X171767995Y-120033347D01*
X171767549Y-120151731D01*
X156557584Y-120151731D01*
X156554010Y-116773904D01*
X161246718Y-116773904D01*
X161246718Y-117348210D01*
X163074056Y-117348210D01*
X163074056Y-117129438D01*
X165930298Y-117129438D01*
X165936364Y-117277659D01*
X165949864Y-117414678D01*
X165969861Y-117526893D01*
X165995416Y-117600704D01*
X166010019Y-117629610D01*
X166042335Y-117700596D01*
X166078551Y-117785739D01*
X166084403Y-117799027D01*
X166133194Y-117881531D01*
X166202703Y-117972147D01*
X166282972Y-118060581D01*
X166364042Y-118136537D01*
X166435954Y-118189718D01*
X166488751Y-118209830D01*
X166490912Y-118209887D01*
X166544880Y-118223894D01*
X166611261Y-118255059D01*
X166611288Y-118255075D01*
X166643251Y-118269766D01*
X166686422Y-118281242D01*
X166747633Y-118290030D01*
X166833720Y-118296655D01*
X166951515Y-118301644D01*
X167107852Y-118305522D01*
X167309565Y-118308815D01*
X167929555Y-118317504D01*
X167929555Y-118314089D01*
X168399441Y-118314089D01*
X170200675Y-118314089D01*
X170200675Y-115886340D01*
X170592247Y-115886340D01*
X170592247Y-116147388D01*
X171401497Y-116147388D01*
X171401497Y-118314089D01*
X171688650Y-118314089D01*
X171688650Y-117570101D01*
X172737664Y-117570101D01*
X172801127Y-117727877D01*
X172844867Y-117818255D01*
X172922067Y-117939286D01*
X173012365Y-118052559D01*
X173104743Y-118144578D01*
X173188179Y-118201850D01*
X173262900Y-118238522D01*
X173346307Y-118282009D01*
X173360617Y-118288676D01*
X173443295Y-118310697D01*
X173559192Y-118326712D01*
X173693452Y-118336005D01*
X173777037Y-118337130D01*
X173831222Y-118337859D01*
X173957649Y-118331556D01*
X174057879Y-118316378D01*
X174065891Y-118314089D01*
X175265012Y-118314089D01*
X176309205Y-118314089D01*
X177066245Y-118314089D01*
X177066245Y-115886340D01*
X177405608Y-115886340D01*
X177405608Y-116146062D01*
X178227910Y-116160440D01*
X178234726Y-117237265D01*
X178241542Y-118314089D01*
X178308082Y-118314089D01*
X178554221Y-118314089D01*
X178554221Y-117117691D01*
X179598978Y-117117691D01*
X179601604Y-117206272D01*
X179608900Y-117274599D01*
X179620873Y-117306800D01*
X179627422Y-117314636D01*
X179644756Y-117362366D01*
X179658983Y-117434867D01*
X179664755Y-117471111D01*
X179690020Y-117582384D01*
X179724008Y-117692958D01*
X179761065Y-117785881D01*
X179795534Y-117844202D01*
X179850825Y-117905827D01*
X179859462Y-117914762D01*
X179992240Y-118052105D01*
X180119200Y-118161302D01*
X180241357Y-118238800D01*
X180368364Y-118289982D01*
X180509872Y-118320231D01*
X180675533Y-118334928D01*
X180685751Y-118335395D01*
X180845022Y-118336328D01*
X180993612Y-118326236D01*
X181121195Y-118306670D01*
X181197227Y-118284955D01*
X182208897Y-118284955D01*
X182219864Y-118297161D01*
X182275831Y-118309690D01*
X182374153Y-118314089D01*
X182539409Y-118314089D01*
X182622149Y-118198876D01*
X182654773Y-118152184D01*
X182690858Y-118096307D01*
X182704889Y-118068159D01*
X182710008Y-118056630D01*
X182738713Y-118009083D01*
X182787024Y-117934907D01*
X182848465Y-117844202D01*
X182886019Y-117788935D01*
X182940577Y-117705479D01*
X182978089Y-117643847D01*
X182992042Y-117614466D01*
X182994779Y-117607572D01*
X183023572Y-117568085D01*
X183077071Y-117505012D01*
X183146957Y-117428348D01*
X183154729Y-117420105D01*
X183232996Y-117342400D01*
X183304238Y-117287789D01*
X183380287Y-117252199D01*
X183472977Y-117231557D01*
X183594140Y-117221789D01*
X183755608Y-117218823D01*
X183984025Y-117217686D01*
X183984025Y-118314089D01*
X184297283Y-118314089D01*
X184297283Y-116565065D01*
X184756791Y-116565065D01*
X184757903Y-116669920D01*
X184768856Y-116755000D01*
X184795464Y-116835906D01*
X184843414Y-116937059D01*
X184851401Y-116952576D01*
X184897910Y-117034112D01*
X184938310Y-117091544D01*
X184964619Y-117113267D01*
X184979371Y-117116645D01*
X185010347Y-117149280D01*
X185034258Y-117182004D01*
X185097113Y-117217190D01*
X185199122Y-117245332D01*
X185343499Y-117267036D01*
X185533456Y-117282912D01*
X185772206Y-117293568D01*
X186268198Y-117309053D01*
X186282378Y-118314089D01*
X186594508Y-118314089D01*
X186594508Y-117374315D01*
X188604580Y-117374315D01*
X190223080Y-117374315D01*
X190223080Y-119097234D01*
X190927910Y-119097234D01*
X190927910Y-117374315D01*
X192598619Y-117374315D01*
X192598619Y-116695589D01*
X190927910Y-116695589D01*
X190927910Y-114998775D01*
X190223080Y-114998775D01*
X190223080Y-116695589D01*
X188604580Y-116695589D01*
X188604580Y-117374315D01*
X186594508Y-117374315D01*
X186594508Y-115886340D01*
X185995326Y-115886340D01*
X185905732Y-115886619D01*
X185737205Y-115888702D01*
X185587687Y-115892555D01*
X185465476Y-115897859D01*
X185378874Y-115904298D01*
X185336179Y-115911553D01*
X185323071Y-115916740D01*
X185250777Y-115940825D01*
X185166456Y-115964449D01*
X185052878Y-116009286D01*
X184933322Y-116104042D01*
X184830344Y-116246117D01*
X184806925Y-116289321D01*
X184777064Y-116364654D01*
X184761985Y-116449491D01*
X184756791Y-116565065D01*
X184297283Y-116565065D01*
X184297283Y-115886340D01*
X183653042Y-115886340D01*
X183431007Y-115887567D01*
X183238149Y-115891284D01*
X183085241Y-115897328D01*
X182976360Y-115905537D01*
X182915581Y-115915748D01*
X182809234Y-115949826D01*
X182709852Y-115985063D01*
X182640306Y-116017425D01*
X182589280Y-116053649D01*
X182545461Y-116100471D01*
X182497532Y-116164627D01*
X182439542Y-116259209D01*
X182380279Y-116427059D01*
X182372184Y-116597434D01*
X182415187Y-116765727D01*
X182509218Y-116927332D01*
X182572047Y-117001060D01*
X182648119Y-117059865D01*
X182746922Y-117102358D01*
X182806566Y-117124595D01*
X182865014Y-117151979D01*
X182887622Y-117170882D01*
X182887628Y-117171123D01*
X182910928Y-117185580D01*
X182965937Y-117191581D01*
X182996062Y-117192848D01*
X183038079Y-117206694D01*
X183030343Y-117233881D01*
X182972654Y-117272011D01*
X182954190Y-117282625D01*
X182884395Y-117332957D01*
X182814332Y-117394716D01*
X182796612Y-117413130D01*
X182738605Y-117481120D01*
X182672938Y-117565966D01*
X182607729Y-117656196D01*
X182551098Y-117740336D01*
X182511165Y-117806914D01*
X182496050Y-117844455D01*
X182495188Y-117850966D01*
X182469385Y-117870307D01*
X182441827Y-117891035D01*
X182412033Y-117942095D01*
X182394884Y-117976627D01*
X182349627Y-118053251D01*
X182295121Y-118134852D01*
X182259749Y-118187057D01*
X182223105Y-118249049D01*
X182208897Y-118284955D01*
X181197227Y-118284955D01*
X181217444Y-118279181D01*
X181272033Y-118245320D01*
X181290796Y-118227987D01*
X181336093Y-118209669D01*
X181348462Y-118206799D01*
X181399380Y-118175489D01*
X181468999Y-118117810D01*
X181546950Y-118043922D01*
X181622860Y-117963985D01*
X181686361Y-117888159D01*
X181727080Y-117826606D01*
X181737967Y-117805484D01*
X181776526Y-117735213D01*
X181806070Y-117687573D01*
X181812072Y-117678090D01*
X181838707Y-117619339D01*
X181864464Y-117542858D01*
X181882539Y-117461969D01*
X181901585Y-117305864D01*
X181908733Y-117132087D01*
X181903408Y-116961024D01*
X181885035Y-116813061D01*
X181848875Y-116664923D01*
X181756067Y-116436239D01*
X181624662Y-116242550D01*
X181454254Y-116083309D01*
X181244432Y-115957972D01*
X181214495Y-115943977D01*
X181141872Y-115913134D01*
X181075977Y-115893412D01*
X181002076Y-115882232D01*
X180905439Y-115877018D01*
X180771330Y-115875190D01*
X180708199Y-115875045D01*
X180582861Y-115877571D01*
X180492369Y-115885361D01*
X180424419Y-115899853D01*
X180366706Y-115922485D01*
X180352437Y-115929315D01*
X180259089Y-115973628D01*
X180173353Y-116013852D01*
X180082643Y-116067370D01*
X179953565Y-116181389D01*
X179838159Y-116326089D01*
X179746092Y-116488694D01*
X179687032Y-116656432D01*
X179686461Y-116658841D01*
X179661721Y-116756172D01*
X179638258Y-116837162D01*
X179621080Y-116884495D01*
X179619040Y-116889150D01*
X179607704Y-116943257D01*
X179601014Y-117024728D01*
X179598978Y-117117691D01*
X178554221Y-117117691D01*
X178554221Y-116147388D01*
X179337365Y-116147388D01*
X179337365Y-115886340D01*
X177405608Y-115886340D01*
X177066245Y-115886340D01*
X175317222Y-115886340D01*
X175317222Y-116147388D01*
X176752987Y-116147388D01*
X176752987Y-116930533D01*
X175421641Y-116930533D01*
X175421641Y-117191581D01*
X176752987Y-117191581D01*
X176752987Y-118053041D01*
X175265012Y-118053041D01*
X175265012Y-118314089D01*
X174065891Y-118314089D01*
X174146873Y-118290954D01*
X174343009Y-118199985D01*
X174516184Y-118064024D01*
X174547358Y-118031635D01*
X174619504Y-117941919D01*
X174682105Y-117845702D01*
X174726223Y-117757639D01*
X174742915Y-117692383D01*
X174744245Y-117681984D01*
X174765624Y-117661468D01*
X174778645Y-117646039D01*
X174798486Y-117591575D01*
X174817737Y-117511365D01*
X174830833Y-117432313D01*
X174845056Y-117316844D01*
X174856325Y-117194222D01*
X174863536Y-117079156D01*
X174865584Y-116986356D01*
X174861364Y-116930533D01*
X174860966Y-116928815D01*
X174851842Y-116881574D01*
X174837623Y-116800508D01*
X174821211Y-116702116D01*
X174818851Y-116687946D01*
X174801419Y-116599200D01*
X174784577Y-116536573D01*
X174771673Y-116512856D01*
X174765478Y-116509544D01*
X174739703Y-116473777D01*
X174708192Y-116411381D01*
X174657264Y-116325796D01*
X174576456Y-116225825D01*
X174480910Y-116128506D01*
X174384469Y-116047892D01*
X174300977Y-115998035D01*
X174299640Y-115997485D01*
X174207440Y-115957874D01*
X174116399Y-115916483D01*
X174107597Y-115912639D01*
X174024460Y-115890904D01*
X173910527Y-115876791D01*
X173779544Y-115870255D01*
X173645260Y-115871250D01*
X173521422Y-115879731D01*
X173421779Y-115895653D01*
X173360077Y-115918971D01*
X173303146Y-115950046D01*
X173247043Y-115964654D01*
X173217795Y-115972125D01*
X173152334Y-116015154D01*
X173074379Y-116087606D01*
X172992154Y-116179318D01*
X172913884Y-116280127D01*
X172847795Y-116379871D01*
X172802109Y-116468386D01*
X172785053Y-116535511D01*
X172797773Y-116545395D01*
X172849422Y-116562620D01*
X172927248Y-116579886D01*
X173069444Y-116605935D01*
X173111219Y-116496549D01*
X173139937Y-116440342D01*
X173202233Y-116352534D01*
X173276267Y-116271855D01*
X173370687Y-116198317D01*
X173519933Y-116131437D01*
X173693089Y-116106245D01*
X173895506Y-116121442D01*
X173908306Y-116123540D01*
X174077097Y-116165289D01*
X174210928Y-116232355D01*
X174323042Y-116333630D01*
X174426686Y-116478005D01*
X174479642Y-116583846D01*
X174530897Y-116764171D01*
X174554475Y-116982674D01*
X174550927Y-117242735D01*
X174545781Y-117320452D01*
X174534568Y-117432641D01*
X174518055Y-117517647D01*
X174492586Y-117591715D01*
X174454506Y-117671088D01*
X174420164Y-117733939D01*
X174348095Y-117842069D01*
X174266604Y-117925714D01*
X174165098Y-117992647D01*
X174032987Y-118050637D01*
X173859676Y-118107455D01*
X173807801Y-118121210D01*
X173743919Y-118127010D01*
X173696875Y-118110155D01*
X173661873Y-118092122D01*
X173614236Y-118079000D01*
X173522161Y-118065322D01*
X173395085Y-118010725D01*
X173275134Y-117923687D01*
X173175295Y-117814145D01*
X173108557Y-117692040D01*
X173085162Y-117630323D01*
X173050582Y-117560066D01*
X173011889Y-117526768D01*
X172956619Y-117522338D01*
X172872304Y-117538682D01*
X172737664Y-117570101D01*
X171688650Y-117570101D01*
X171688650Y-116147388D01*
X172497900Y-116147388D01*
X172497900Y-115886340D01*
X170592247Y-115886340D01*
X170200675Y-115886340D01*
X168451651Y-115886340D01*
X168451651Y-116147388D01*
X169887417Y-116147388D01*
X169887417Y-116930533D01*
X168556070Y-116930533D01*
X168556070Y-117191581D01*
X169887417Y-117191581D01*
X169887417Y-118053041D01*
X168399441Y-118053041D01*
X168399441Y-118314089D01*
X167929555Y-118314089D01*
X167929555Y-115886340D01*
X167367946Y-115886340D01*
X167309316Y-115886465D01*
X167145440Y-115888190D01*
X167000305Y-115891688D01*
X166882277Y-115896637D01*
X166799723Y-115902717D01*
X166761009Y-115909607D01*
X166725084Y-115924374D01*
X166649904Y-115949927D01*
X166559051Y-115977347D01*
X166497249Y-115996901D01*
X166417858Y-116033684D01*
X166343937Y-116088351D01*
X166257067Y-116172826D01*
X166201956Y-116234207D01*
X166117650Y-116348386D01*
X166064138Y-116450975D01*
X166046098Y-116497362D01*
X166016474Y-116566225D01*
X165995956Y-116604696D01*
X165991806Y-116612956D01*
X165977381Y-116665298D01*
X165960502Y-116750630D01*
X165944019Y-116855214D01*
X165932604Y-116983614D01*
X165930298Y-117129438D01*
X163074056Y-117129438D01*
X163074056Y-116773904D01*
X161246718Y-116773904D01*
X156554010Y-116773904D01*
X156552408Y-115259824D01*
X172967787Y-115259824D01*
X173779544Y-115259824D01*
X174795125Y-115259824D01*
X174795125Y-114600587D01*
X175271843Y-114600587D01*
X175284747Y-114758066D01*
X175317222Y-114853641D01*
X175334038Y-114903131D01*
X175349181Y-114929967D01*
X175423582Y-115026141D01*
X175520726Y-115118553D01*
X175624528Y-115193275D01*
X175718899Y-115236378D01*
X175744148Y-115243835D01*
X175809681Y-115270147D01*
X175844912Y-115295156D01*
X175852752Y-115300842D01*
X175902747Y-115312078D01*
X175986574Y-115319507D01*
X176091956Y-115323229D01*
X176206613Y-115323343D01*
X176318267Y-115319950D01*
X176414640Y-115313149D01*
X176483453Y-115303041D01*
X176512427Y-115289725D01*
X176524408Y-115274223D01*
X176569110Y-115259824D01*
X176606459Y-115254742D01*
X176685671Y-115228438D01*
X176770847Y-115187974D01*
X176843236Y-115142741D01*
X176884083Y-115102127D01*
X176907654Y-115071651D01*
X176948074Y-115050985D01*
X176954164Y-115049082D01*
X176986539Y-115015558D01*
X177030268Y-114948850D01*
X177077680Y-114860249D01*
X177087410Y-114839917D01*
X177129712Y-114741813D01*
X177159439Y-114656885D01*
X177170665Y-114601616D01*
X177168547Y-114569259D01*
X177152830Y-114544345D01*
X177110604Y-114531840D01*
X177029030Y-114524778D01*
X176887396Y-114515836D01*
X176871333Y-114623241D01*
X176868214Y-114640557D01*
X176818714Y-114759038D01*
X176727264Y-114867303D01*
X176602792Y-114958590D01*
X176454225Y-115026136D01*
X176290492Y-115063179D01*
X176274913Y-115064819D01*
X176150539Y-115068296D01*
X176021182Y-115058154D01*
X175901103Y-115036824D01*
X175804565Y-115006737D01*
X175745829Y-114970326D01*
X175709618Y-114938159D01*
X175670793Y-114920461D01*
X175667307Y-114920006D01*
X175635567Y-114891760D01*
X175598407Y-114830742D01*
X175562992Y-114752498D01*
X175536487Y-114672570D01*
X175526060Y-114606505D01*
X175526060Y-114606141D01*
X175532933Y-114551569D01*
X175549335Y-114528888D01*
X175567518Y-114515802D01*
X175588673Y-114470153D01*
X175624790Y-114406948D01*
X175705367Y-114338754D01*
X175817366Y-114281276D01*
X175949751Y-114241503D01*
X176029192Y-114223597D01*
X176101693Y-114203838D01*
X176139524Y-114189078D01*
X176156611Y-114181594D01*
X176217689Y-114162560D01*
X176309642Y-114137761D01*
X176420151Y-114110640D01*
X176493726Y-114092511D01*
X176587043Y-114066484D01*
X176650963Y-114044722D01*
X176674673Y-114030624D01*
X176687892Y-114013806D01*
X176733409Y-113992469D01*
X176814038Y-113957634D01*
X176922460Y-113868947D01*
X177003025Y-113747241D01*
X177051951Y-113601403D01*
X177065454Y-113440322D01*
X177039749Y-113272885D01*
X177039671Y-113272604D01*
X176996445Y-113186379D01*
X176919249Y-113091414D01*
X176821659Y-113000380D01*
X176717253Y-112925948D01*
X176619609Y-112880789D01*
X176607787Y-112877515D01*
X176497019Y-112858179D01*
X177635935Y-112858179D01*
X177647536Y-113765322D01*
X177649317Y-113896435D01*
X177653289Y-114132441D01*
X177657837Y-114323779D01*
X177663212Y-114475538D01*
X177669666Y-114592810D01*
X177677450Y-114680682D01*
X177686815Y-114744245D01*
X177698011Y-114788589D01*
X177711195Y-114824204D01*
X177741424Y-114885855D01*
X177767033Y-114914762D01*
X177777483Y-114920328D01*
X177797180Y-114958221D01*
X177814323Y-114993339D01*
X177861989Y-115049093D01*
X177927460Y-115112560D01*
X177997944Y-115172205D01*
X178060653Y-115216491D01*
X178102794Y-115233880D01*
X178104351Y-115233907D01*
X178160196Y-115247162D01*
X178227910Y-115277276D01*
X178252498Y-115287093D01*
X178330732Y-115303297D01*
X178437071Y-115314923D01*
X178558196Y-115321661D01*
X178680789Y-115323200D01*
X178791528Y-115319229D01*
X178877096Y-115309438D01*
X178924173Y-115293515D01*
X178934014Y-115286762D01*
X178990672Y-115259830D01*
X179066146Y-115233375D01*
X179071260Y-115231819D01*
X179201041Y-115165326D01*
X179315980Y-115055448D01*
X179411045Y-114909830D01*
X179481203Y-114736113D01*
X179521421Y-114541941D01*
X179527779Y-114462033D01*
X179533652Y-114337769D01*
X179538654Y-114179697D01*
X179542541Y-113997117D01*
X179545072Y-113799331D01*
X179546006Y-113595641D01*
X179546204Y-112858179D01*
X179235994Y-112858179D01*
X179227944Y-113782198D01*
X179227361Y-113847988D01*
X179225018Y-114081975D01*
X179222466Y-114270359D01*
X179219412Y-114418431D01*
X179215564Y-114531483D01*
X179210631Y-114614807D01*
X179204321Y-114673695D01*
X179196342Y-114713438D01*
X179186403Y-114739328D01*
X179174210Y-114756658D01*
X179144597Y-114796047D01*
X179128527Y-114834971D01*
X179124970Y-114845894D01*
X179093417Y-114887971D01*
X179039834Y-114940716D01*
X179022154Y-114954942D01*
X178911105Y-115011999D01*
X178769174Y-115048417D01*
X178610775Y-115063604D01*
X178450320Y-115056970D01*
X178302222Y-115027926D01*
X178180896Y-114975881D01*
X178137717Y-114945655D01*
X178084873Y-114893741D01*
X178041359Y-114827143D01*
X178006341Y-114741178D01*
X177978985Y-114631164D01*
X177958456Y-114492419D01*
X177943919Y-114320261D01*
X177934540Y-114110007D01*
X177929485Y-113856975D01*
X177927919Y-113556483D01*
X177927705Y-112858179D01*
X177635935Y-112858179D01*
X176497019Y-112858179D01*
X176492081Y-112857317D01*
X176347319Y-112846724D01*
X176189623Y-112845459D01*
X176035115Y-112853245D01*
X175899921Y-112869805D01*
X175800161Y-112894861D01*
X175750644Y-112915722D01*
X175683434Y-112951583D01*
X175647951Y-112981149D01*
X175619665Y-113009860D01*
X175562642Y-113041892D01*
X175517682Y-113070647D01*
X175475569Y-113127761D01*
X175453459Y-113172569D01*
X175410492Y-113231066D01*
X175400189Y-113244211D01*
X175371934Y-113307408D01*
X175353018Y-113388320D01*
X175337169Y-113503949D01*
X175457643Y-113522015D01*
X175540723Y-113531470D01*
X175594698Y-113523832D01*
X175623607Y-113490522D01*
X175640881Y-113424381D01*
X175651102Y-113389238D01*
X175685894Y-113317230D01*
X175732606Y-113246581D01*
X175780356Y-113192810D01*
X175818260Y-113171437D01*
X175829578Y-113169236D01*
X175880151Y-113150623D01*
X175949902Y-113119228D01*
X176000585Y-113100265D01*
X176092137Y-113079903D01*
X176192918Y-113068139D01*
X176287921Y-113065841D01*
X176362141Y-113073879D01*
X176400572Y-113093123D01*
X176418912Y-113107796D01*
X176469956Y-113119228D01*
X176480100Y-113119537D01*
X176575379Y-113144844D01*
X176668149Y-113200903D01*
X176734556Y-113273780D01*
X176748107Y-113302193D01*
X176770177Y-113389859D01*
X176777531Y-113489433D01*
X176769554Y-113580442D01*
X176745631Y-113642412D01*
X176728291Y-113661822D01*
X176670156Y-113706724D01*
X176584214Y-113750804D01*
X176464547Y-113796442D01*
X176305238Y-113846019D01*
X176100366Y-113901915D01*
X176024188Y-113921961D01*
X175863528Y-113966580D01*
X175740355Y-114006070D01*
X175644981Y-114044704D01*
X175567715Y-114086757D01*
X175498869Y-114136505D01*
X175428753Y-114198221D01*
X175347614Y-114304829D01*
X175293430Y-114444804D01*
X175271843Y-114600587D01*
X174795125Y-114600587D01*
X174795125Y-112858179D01*
X173019996Y-112858179D01*
X173019996Y-113119228D01*
X174483227Y-113119228D01*
X174476021Y-113517326D01*
X174468815Y-113915425D01*
X173796615Y-113922392D01*
X173124416Y-113929359D01*
X173124416Y-114162539D01*
X173796615Y-114169506D01*
X174468815Y-114176473D01*
X174468815Y-115011828D01*
X173718301Y-115018754D01*
X172967787Y-115025681D01*
X172967787Y-115259824D01*
X156552408Y-115259824D01*
X156547741Y-110848211D01*
X161246718Y-110843448D01*
X163038352Y-110841633D01*
X167367946Y-110837244D01*
X168451651Y-110836146D01*
X169528964Y-110835055D01*
X169442186Y-110750214D01*
X169355409Y-110665374D01*
X170592247Y-110665374D01*
G37*
G36*
X92698136Y-90374389D02*
G01*
X91145471Y-90374389D01*
X91145471Y-92285360D01*
X90787164Y-92285360D01*
X90787164Y-90374389D01*
X89552995Y-90374389D01*
X89552995Y-92484420D01*
X89154876Y-92484420D01*
X89154876Y-89976269D01*
X92698136Y-89976269D01*
X92698136Y-90374389D01*
G37*
G36*
X92698136Y-96226740D02*
G01*
X92341108Y-96226740D01*
X92330516Y-95141865D01*
X92319923Y-94056990D01*
X91713501Y-94046004D01*
X91107080Y-94035018D01*
X91085754Y-95967962D01*
X90727446Y-95967962D01*
X90706120Y-94034964D01*
X90119604Y-94045977D01*
X89533089Y-94056990D01*
X89522486Y-95121959D01*
X89511882Y-96186928D01*
X89154876Y-96186928D01*
X89154876Y-93638965D01*
X92698136Y-93638965D01*
X92698136Y-96226740D01*
G37*
G36*
X89552995Y-109802602D02*
G01*
X91099024Y-109802602D01*
X91178613Y-109802637D01*
X91517016Y-109803589D01*
X91828296Y-109805732D01*
X92103702Y-109808918D01*
X92334485Y-109813000D01*
X92511895Y-109817830D01*
X92627182Y-109823260D01*
X92671595Y-109829143D01*
X92680156Y-109848037D01*
X92693057Y-109930170D01*
X92698136Y-110048109D01*
X92698136Y-110240533D01*
X89555124Y-110240533D01*
X89544106Y-110827759D01*
X89533089Y-111414984D01*
X89174782Y-111414984D01*
X89153844Y-108648056D01*
X89552995Y-108648056D01*
X89552995Y-109802602D01*
G37*
G36*
X91363839Y-97151303D02*
G01*
X91716564Y-97260961D01*
X92027550Y-97435116D01*
X92292424Y-97670947D01*
X92506810Y-97965631D01*
X92666336Y-98316345D01*
X92699522Y-98440699D01*
X92731007Y-98682904D01*
X92735596Y-98950784D01*
X92713344Y-99213984D01*
X92664306Y-99442152D01*
X92644825Y-99499014D01*
X92560274Y-99690047D01*
X92450333Y-99886924D01*
X92331274Y-100062329D01*
X92219371Y-100188950D01*
X92184672Y-100218937D01*
X92140389Y-100237888D01*
X92091056Y-100212600D01*
X92011372Y-100136720D01*
X91885142Y-100010491D01*
X91973178Y-99900198D01*
X92006459Y-99857567D01*
X92207194Y-99541553D01*
X92329006Y-99223557D01*
X92371730Y-98904680D01*
X92335198Y-98586024D01*
X92219245Y-98268687D01*
X92143653Y-98136348D01*
X91948078Y-97904776D01*
X91705203Y-97724877D01*
X91426379Y-97599761D01*
X91122958Y-97532542D01*
X90806291Y-97526329D01*
X90487732Y-97584234D01*
X90178630Y-97709370D01*
X90165906Y-97716200D01*
X89930863Y-97875078D01*
X89746825Y-98075250D01*
X89596832Y-98334954D01*
X89550854Y-98442087D01*
X89515219Y-98565106D01*
X89498301Y-98705466D01*
X89494428Y-98894138D01*
X89497693Y-99004050D01*
X89545548Y-99308967D01*
X89655094Y-99576924D01*
X89832290Y-99824332D01*
X89964192Y-99974560D01*
X89820724Y-100118028D01*
X89783347Y-100154673D01*
X89712350Y-100211737D01*
X89652860Y-100224589D01*
X89591443Y-100187406D01*
X89514664Y-100094366D01*
X89409087Y-99939648D01*
X89381685Y-99897491D01*
X89250597Y-99655981D01*
X89167789Y-99410408D01*
X89127390Y-99137633D01*
X89123525Y-98814514D01*
X89130949Y-98645400D01*
X89144773Y-98492458D01*
X89169185Y-98371215D01*
X89209793Y-98255439D01*
X89272204Y-98118901D01*
X89318105Y-98030065D01*
X89530983Y-97724890D01*
X89803097Y-97472205D01*
X90131728Y-97274679D01*
X90149632Y-97266213D01*
X90312201Y-97195291D01*
X90452003Y-97151480D01*
X90603157Y-97126468D01*
X90799785Y-97111942D01*
X90973751Y-97108967D01*
X91363839Y-97151303D01*
G37*
G36*
X92680067Y-85495981D02*
G01*
X92691109Y-85567013D01*
X92690404Y-85681530D01*
X92678230Y-85893653D01*
X91762556Y-86306113D01*
X91751909Y-87259149D01*
X91741263Y-88212186D01*
X92219699Y-88421666D01*
X92698136Y-88631146D01*
X92698136Y-88850130D01*
X92694425Y-88963942D01*
X92678694Y-89037114D01*
X92648371Y-89049000D01*
X92639072Y-89045178D01*
X92550345Y-89006807D01*
X92404005Y-88941831D01*
X92208730Y-88854212D01*
X91973195Y-88747915D01*
X91706078Y-88626901D01*
X91416054Y-88495134D01*
X91111801Y-88356577D01*
X90801995Y-88215192D01*
X90495313Y-88074944D01*
X90200430Y-87939794D01*
X89926025Y-87813706D01*
X89680773Y-87700643D01*
X89473351Y-87604568D01*
X89312435Y-87529443D01*
X89206702Y-87479233D01*
X89164829Y-87457899D01*
X89155835Y-87448866D01*
X89125250Y-87369226D01*
X89117205Y-87265510D01*
X89614474Y-87265510D01*
X89812653Y-87353100D01*
X89884886Y-87385126D01*
X90031405Y-87450295D01*
X90221394Y-87534937D01*
X90438273Y-87631664D01*
X90665458Y-87733087D01*
X90858569Y-87818712D01*
X91048143Y-87901386D01*
X91201739Y-87966868D01*
X91307162Y-88009966D01*
X91352214Y-88025486D01*
X91353492Y-88024876D01*
X91363261Y-87978036D01*
X91371732Y-87865162D01*
X91378404Y-87698338D01*
X91382775Y-87489651D01*
X91384343Y-87251185D01*
X91384343Y-86476884D01*
X91254954Y-86531606D01*
X91245357Y-86535704D01*
X91157323Y-86574250D01*
X91012549Y-86638437D01*
X90824258Y-86722372D01*
X90605674Y-86820163D01*
X90370020Y-86925919D01*
X89614474Y-87265510D01*
X89117205Y-87265510D01*
X89116554Y-87257114D01*
X89129747Y-87148874D01*
X89164829Y-87080847D01*
X89172783Y-87076382D01*
X89240144Y-87043668D01*
X89368054Y-86983604D01*
X89547853Y-86900141D01*
X89770881Y-86797229D01*
X90028477Y-86678819D01*
X90311979Y-86548862D01*
X90612728Y-86411310D01*
X90922062Y-86270112D01*
X91231322Y-86129221D01*
X91384343Y-86059649D01*
X91531845Y-85992586D01*
X91814973Y-85864159D01*
X92072043Y-85747890D01*
X92294395Y-85647731D01*
X92473368Y-85567632D01*
X92600303Y-85511544D01*
X92666537Y-85483418D01*
X92680067Y-85495981D01*
G37*
G36*
X92290795Y-82400549D02*
G01*
X92342786Y-82463814D01*
X92480690Y-82678835D01*
X92598976Y-82929144D01*
X92681423Y-83182282D01*
X92722571Y-83398297D01*
X92740816Y-83724655D01*
X92705326Y-84025960D01*
X92620044Y-84294103D01*
X92488914Y-84520970D01*
X92315876Y-84698449D01*
X92104873Y-84818430D01*
X91859849Y-84872798D01*
X91707408Y-84879125D01*
X91503737Y-84862911D01*
X91342143Y-84809360D01*
X91202816Y-84713673D01*
X91110520Y-84622923D01*
X91003610Y-84480475D01*
X90911601Y-84302756D01*
X90827242Y-84075081D01*
X90743284Y-83782762D01*
X90668795Y-83512820D01*
X90587280Y-83263912D01*
X90506300Y-83078656D01*
X90420225Y-82948858D01*
X90323426Y-82866325D01*
X90210272Y-82822861D01*
X90075134Y-82810274D01*
X89863415Y-82840818D01*
X89699967Y-82932841D01*
X89584525Y-83087210D01*
X89516441Y-83304793D01*
X89495067Y-83586458D01*
X89501705Y-83735146D01*
X89544367Y-83971578D01*
X89633983Y-84202084D01*
X89779223Y-84453111D01*
X89801216Y-84487345D01*
X89827886Y-84547499D01*
X89807170Y-84594762D01*
X89731868Y-84660692D01*
X89712262Y-84676202D01*
X89623897Y-84734959D01*
X89562071Y-84759477D01*
X89556548Y-84758984D01*
X89500436Y-84717703D01*
X89426450Y-84622501D01*
X89345457Y-84490824D01*
X89268326Y-84340114D01*
X89205923Y-84187817D01*
X89186062Y-84122864D01*
X89145660Y-83901911D01*
X89129978Y-83651695D01*
X89138558Y-83398596D01*
X89170945Y-83168997D01*
X89226681Y-82989279D01*
X89241060Y-82958939D01*
X89396600Y-82713789D01*
X89590047Y-82538638D01*
X89821350Y-82433520D01*
X90090456Y-82398473D01*
X90096780Y-82398486D01*
X90314892Y-82418570D01*
X90500717Y-82481030D01*
X90659408Y-82592072D01*
X90796112Y-82757901D01*
X90915980Y-82984724D01*
X91024161Y-83278747D01*
X91125807Y-83646175D01*
X91146362Y-83727534D01*
X91214507Y-83961972D01*
X91283552Y-84136275D01*
X91360215Y-84265256D01*
X91451214Y-84363730D01*
X91484299Y-84390437D01*
X91650665Y-84469768D01*
X91828877Y-84480611D01*
X92003486Y-84427076D01*
X92159047Y-84313269D01*
X92280111Y-84143299D01*
X92299432Y-84101650D01*
X92335304Y-83986963D01*
X92353313Y-83843507D01*
X92357361Y-83646175D01*
X92345299Y-83438673D01*
X92290371Y-83181206D01*
X92183324Y-82932689D01*
X92015673Y-82668854D01*
X91887125Y-82489855D01*
X92160675Y-82254699D01*
X92290795Y-82400549D01*
G37*
G36*
X92187832Y-105181298D02*
G01*
X92240485Y-105224643D01*
X92287058Y-105274238D01*
X92396336Y-105426254D01*
X92505384Y-105617869D01*
X92600375Y-105823419D01*
X92667483Y-106017238D01*
X92674112Y-106042988D01*
X92710860Y-106262381D01*
X92725072Y-106509155D01*
X92717403Y-106757191D01*
X92688506Y-106980372D01*
X92639035Y-107152580D01*
X92608875Y-107217640D01*
X92451355Y-107455728D01*
X92249569Y-107629530D01*
X92007941Y-107736025D01*
X91730897Y-107772194D01*
X91706352Y-107771993D01*
X91467591Y-107741773D01*
X91272223Y-107654761D01*
X91101977Y-107503140D01*
X91046558Y-107434710D01*
X90958314Y-107294724D01*
X90879560Y-107120463D01*
X90804003Y-106896994D01*
X90725352Y-106609388D01*
X90683434Y-106450387D01*
X90602120Y-106186824D01*
X90519226Y-105989954D01*
X90428488Y-105851406D01*
X90323647Y-105762808D01*
X90198439Y-105715788D01*
X90046602Y-105701975D01*
X89994223Y-105702535D01*
X89877858Y-105714950D01*
X89792500Y-105754230D01*
X89702093Y-105834214D01*
X89626881Y-105923596D01*
X89522724Y-106134098D01*
X89477383Y-106379298D01*
X89490925Y-106646531D01*
X89563417Y-106923131D01*
X89694925Y-107196433D01*
X89762599Y-107312182D01*
X89812459Y-107404158D01*
X89831406Y-107448569D01*
X89827054Y-107457651D01*
X89778077Y-107504396D01*
X89692234Y-107568197D01*
X89691528Y-107568678D01*
X89603114Y-107620031D01*
X89534008Y-107629716D01*
X89471741Y-107589768D01*
X89403842Y-107492226D01*
X89317841Y-107329125D01*
X89209242Y-107066784D01*
X89132523Y-106714980D01*
X89125772Y-106336073D01*
X89156570Y-106117828D01*
X89247469Y-105845661D01*
X89387324Y-105618938D01*
X89568665Y-105444324D01*
X89784024Y-105328484D01*
X90025931Y-105278086D01*
X90286918Y-105299794D01*
X90416265Y-105338878D01*
X90600466Y-105441764D01*
X90757279Y-105598995D01*
X90891067Y-105816736D01*
X91006194Y-106101150D01*
X91107023Y-106458401D01*
X91121388Y-106517266D01*
X91199449Y-106800595D01*
X91278727Y-107015080D01*
X91365392Y-107169664D01*
X91465612Y-107273290D01*
X91585557Y-107334900D01*
X91731398Y-107363436D01*
X91829266Y-107368200D01*
X91946969Y-107348696D01*
X92061145Y-107287521D01*
X92178175Y-107188592D01*
X92282236Y-107030100D01*
X92341159Y-106823783D01*
X92359735Y-106557931D01*
X92349833Y-106340218D01*
X92312023Y-106131103D01*
X92238582Y-105929832D01*
X92121849Y-105715826D01*
X91954163Y-105468507D01*
X91927769Y-105430311D01*
X91911421Y-105381428D01*
X91940465Y-105333825D01*
X92023410Y-105262141D01*
X92079842Y-105216777D01*
X92143189Y-105177138D01*
X92187832Y-105181298D01*
G37*
G36*
X92680528Y-100861697D02*
G01*
X92693082Y-100921355D01*
X92690441Y-101047039D01*
X92678230Y-101259408D01*
X91762556Y-101668346D01*
X91751852Y-102597544D01*
X91751056Y-102675628D01*
X91750168Y-102963465D01*
X91752790Y-103204517D01*
X91758689Y-103390587D01*
X91767632Y-103513475D01*
X91779385Y-103564979D01*
X91825080Y-103593214D01*
X91929432Y-103646441D01*
X92075712Y-103716045D01*
X92247926Y-103794201D01*
X92678230Y-103985186D01*
X92690279Y-104210234D01*
X92692317Y-104306505D01*
X92685627Y-104392010D01*
X92670373Y-104418275D01*
X92631559Y-104400314D01*
X92526884Y-104352758D01*
X92363809Y-104278995D01*
X92149594Y-104182300D01*
X91891498Y-104065946D01*
X91596778Y-103933207D01*
X91272695Y-103787359D01*
X90926506Y-103631675D01*
X90596694Y-103483115D01*
X90269859Y-103335286D01*
X89971509Y-103199720D01*
X89709010Y-103079793D01*
X89489726Y-102978883D01*
X89321025Y-102900366D01*
X89210270Y-102847619D01*
X89164829Y-102824019D01*
X89155602Y-102814936D01*
X89125170Y-102735952D01*
X89117909Y-102641625D01*
X89664451Y-102641625D01*
X89676656Y-102648871D01*
X89749780Y-102684614D01*
X89876818Y-102743544D01*
X90045127Y-102820060D01*
X90242059Y-102908557D01*
X90454972Y-103003434D01*
X90671220Y-103099087D01*
X90878157Y-103189912D01*
X91063139Y-103270308D01*
X91213520Y-103334670D01*
X91316657Y-103377397D01*
X91359903Y-103392884D01*
X91360986Y-103392124D01*
X91368386Y-103344237D01*
X91374800Y-103230449D01*
X91379849Y-103062813D01*
X91383156Y-102853380D01*
X91384343Y-102614202D01*
X91384309Y-102577031D01*
X91382450Y-102342976D01*
X91378078Y-102141595D01*
X91371654Y-101984626D01*
X91363636Y-101883805D01*
X91354484Y-101850868D01*
X91337763Y-101858645D01*
X91257326Y-101894954D01*
X91120793Y-101956115D01*
X90938762Y-102037395D01*
X90721830Y-102134057D01*
X90480595Y-102241366D01*
X90333636Y-102307262D01*
X90112094Y-102409005D01*
X89924681Y-102498081D01*
X89781120Y-102569722D01*
X89691136Y-102619160D01*
X89664451Y-102641625D01*
X89117909Y-102641625D01*
X89116563Y-102624132D01*
X89129783Y-102515583D01*
X89164829Y-102446412D01*
X89168010Y-102444419D01*
X89224395Y-102416349D01*
X89342794Y-102360287D01*
X89514524Y-102280197D01*
X89730907Y-102180041D01*
X89983260Y-102063781D01*
X90262905Y-101935379D01*
X90561160Y-101798798D01*
X90869344Y-101658000D01*
X91178778Y-101516948D01*
X91354484Y-101437040D01*
X91480781Y-101379603D01*
X91766671Y-101249927D01*
X92027770Y-101131885D01*
X92255395Y-101029437D01*
X92440867Y-100946545D01*
X92575506Y-100887173D01*
X92650629Y-100855283D01*
X92680528Y-100861697D01*
G37*
G36*
X89326111Y-112987555D02*
G01*
X90179773Y-112987555D01*
X92208468Y-112987555D01*
X93016631Y-112987555D01*
X93016631Y-117287241D01*
X88836381Y-117287241D01*
X88836381Y-113961057D01*
X89194688Y-113961057D01*
X89197888Y-113968927D01*
X89231479Y-114033272D01*
X89297798Y-114154668D01*
X89392054Y-114324509D01*
X89509455Y-114534187D01*
X89645208Y-114775094D01*
X89794524Y-115038621D01*
X89909329Y-115239355D01*
X90086909Y-115543383D01*
X90237006Y-115791480D01*
X90357313Y-115979967D01*
X90445523Y-116105160D01*
X90499330Y-116163378D01*
X90511604Y-116170962D01*
X90556704Y-116191222D01*
X90619599Y-116206533D01*
X90710594Y-116217563D01*
X90839992Y-116224980D01*
X91018096Y-116229450D01*
X91255212Y-116231643D01*
X91561641Y-116232226D01*
X92518982Y-116232226D01*
X92530922Y-116003307D01*
X92542862Y-115774389D01*
X91714778Y-115772978D01*
X91643738Y-115772789D01*
X91348480Y-115769977D01*
X91123457Y-115763677D01*
X90960941Y-115753439D01*
X90853206Y-115738815D01*
X90792527Y-115719356D01*
X90785033Y-115714184D01*
X90726823Y-115648019D01*
X90636298Y-115518839D01*
X90517435Y-115332827D01*
X90374216Y-115096168D01*
X90210619Y-114815045D01*
X89722878Y-113962947D01*
X89458783Y-113951175D01*
X89326111Y-113948211D01*
X89230982Y-113951753D01*
X89194688Y-113961057D01*
X88836381Y-113961057D01*
X88836381Y-113938525D01*
X90179773Y-113938525D01*
X90279606Y-114109984D01*
X90292508Y-114132239D01*
X90358187Y-114246730D01*
X90449581Y-114407158D01*
X90556377Y-114595393D01*
X90668263Y-114793305D01*
X90702818Y-114854624D01*
X90812764Y-115046424D01*
X90905397Y-115189046D01*
X90994564Y-115289545D01*
X91094115Y-115354975D01*
X91217896Y-115392392D01*
X91379757Y-115408850D01*
X91593545Y-115411404D01*
X91873108Y-115407109D01*
X92518982Y-115396175D01*
X92531224Y-115226975D01*
X92543467Y-115057774D01*
X91953952Y-115057187D01*
X91775248Y-115055667D01*
X91530397Y-115047038D01*
X91361187Y-115030912D01*
X91269445Y-115007422D01*
X91267810Y-115006537D01*
X91207920Y-114948659D01*
X91119850Y-114831106D01*
X91011175Y-114664784D01*
X90889474Y-114460595D01*
X90793794Y-114293514D01*
X91813133Y-114293514D01*
X91845103Y-114454099D01*
X91867249Y-114497937D01*
X91972074Y-114606855D01*
X92109447Y-114658203D01*
X92257865Y-114647453D01*
X92395828Y-114570078D01*
X92472466Y-114477983D01*
X92516829Y-114380972D01*
X92521367Y-114349950D01*
X92500249Y-114204070D01*
X92422881Y-114072282D01*
X92305576Y-113985155D01*
X92208468Y-113958200D01*
X92057777Y-113968859D01*
X91932783Y-114037336D01*
X91846797Y-114150074D01*
X91813133Y-114293514D01*
X90793794Y-114293514D01*
X90604494Y-113962947D01*
X90392134Y-113950736D01*
X90179773Y-113938525D01*
X88836381Y-113938525D01*
X88836381Y-112987555D01*
X89326111Y-112987555D01*
G37*
%LPC*%
D16*
X141452600Y-116407000D03*
D17*
X141452600Y-118947000D03*
X138912600Y-116407000D03*
X138912600Y-118947000D03*
X136372600Y-116407000D03*
X136372600Y-118947000D03*
X133832600Y-116407000D03*
X133832600Y-118947000D03*
X131292600Y-116407000D03*
X131292600Y-118947000D03*
X128752600Y-116407000D03*
X128752600Y-118947000D03*
X126212600Y-116407000D03*
X126212600Y-118947000D03*
X123672600Y-116407000D03*
X123672600Y-118947000D03*
X121132600Y-116407000D03*
X121132600Y-118947000D03*
X118592600Y-116407000D03*
X118592600Y-118947000D03*
X116052600Y-116407000D03*
X116052600Y-118947000D03*
X113512600Y-116407000D03*
X113512600Y-118947000D03*
X110972600Y-116407000D03*
X110972600Y-118947000D03*
X108432600Y-116407000D03*
X108432600Y-118947000D03*
X105892600Y-116407000D03*
X105892600Y-118947000D03*
D16*
X210033000Y-90499000D03*
D17*
X207493000Y-90499000D03*
D16*
X152882600Y-96087000D03*
D17*
X152882600Y-93547000D03*
X152882600Y-91007000D03*
X152882600Y-88467000D03*
X152882600Y-85927000D03*
X152882600Y-83387000D03*
D18*
X186029600Y-72592000D03*
X183029600Y-72592000D03*
X180029600Y-72592000D03*
D19*
X189279600Y-72592000D03*
X176779600Y-72592000D03*
D16*
X210037600Y-104977000D03*
D17*
X207497600Y-104977000D03*
D20*
X101608000Y-77830000D03*
D16*
X161121600Y-106925000D03*
D17*
X161121600Y-104385000D03*
D16*
X191067600Y-90470000D03*
D17*
X193607600Y-90470000D03*
X196147600Y-90470000D03*
D16*
X207108000Y-95330000D03*
D17*
X207108000Y-97870000D03*
X207108000Y-100410000D03*
D16*
X182727600Y-105104000D03*
D17*
X182632043Y-102138500D03*
D20*
X101737600Y-121560000D03*
D21*
X197078600Y-114375000D03*
D22*
X197078600Y-116375000D03*
X197078600Y-118375000D03*
X197078600Y-120375000D03*
D16*
X182727600Y-90245000D03*
D17*
X182727600Y-92785000D03*
D23*
X207925600Y-117150000D03*
D24*
X204497600Y-117150000D03*
X149697600Y-116940000D03*
D23*
X153417600Y-119670000D03*
X153417600Y-114590000D03*
X146669600Y-117130000D03*
X201177600Y-114610000D03*
X201177600Y-119690000D03*
%LPD*%
M02*
