G04 #@! TF.GenerationSoftware,KiCad,Pcbnew,7.99.0-unknown-c07e9c834f~172~ubuntu22.04.1*
G04 #@! TF.CreationDate,2023-09-07T22:01:39+09:00*
G04 #@! TF.ProjectId,bGeigieZen V3.0.0,62476569-6769-4655-9a65-6e2056332e30,V2.1.2*
G04 #@! TF.SameCoordinates,Original*
G04 #@! TF.FileFunction,Copper,L1,Top*
G04 #@! TF.FilePolarity,Positive*
%FSLAX46Y46*%
G04 Gerber Fmt 4.6, Leading zero omitted, Abs format (unit mm)*
G04 Created by KiCad (PCBNEW 7.99.0-unknown-c07e9c834f~172~ubuntu22.04.1) date 2023-09-07 22:01:39*
%MOMM*%
%LPD*%
G01*
G04 APERTURE LIST*
G04 #@! TA.AperFunction,ComponentPad*
%ADD10R,1.700000X1.700000*%
G04 #@! TD*
G04 #@! TA.AperFunction,ComponentPad*
%ADD11O,1.700000X1.700000*%
G04 #@! TD*
G04 #@! TA.AperFunction,ComponentPad*
%ADD12C,1.676400*%
G04 #@! TD*
G04 #@! TA.AperFunction,ComponentPad*
%ADD13C,3.000000*%
G04 #@! TD*
G04 #@! TA.AperFunction,ComponentPad*
%ADD14R,1.350000X1.350000*%
G04 #@! TD*
G04 #@! TA.AperFunction,ComponentPad*
%ADD15O,1.350000X1.350000*%
G04 #@! TD*
G04 #@! TA.AperFunction,ComponentPad*
%ADD16C,2.743200*%
G04 #@! TD*
G04 #@! TA.AperFunction,ViaPad*
%ADD17C,0.300000*%
G04 #@! TD*
G04 #@! TA.AperFunction,Conductor*
%ADD18C,0.250000*%
G04 #@! TD*
G04 #@! TA.AperFunction,Conductor*
%ADD19C,0.500000*%
G04 #@! TD*
G04 APERTURE END LIST*
D10*
X141452600Y-116407000D03*
D11*
X141452600Y-118947000D03*
X138912600Y-116407000D03*
X138912600Y-118947000D03*
X136372600Y-116407000D03*
X136372600Y-118947000D03*
X133832600Y-116407000D03*
X133832600Y-118947000D03*
X131292600Y-116407000D03*
X131292600Y-118947000D03*
X128752600Y-116407000D03*
X128752600Y-118947000D03*
X126212600Y-116407000D03*
X126212600Y-118947000D03*
X123672600Y-116407000D03*
X123672600Y-118947000D03*
X121132600Y-116407000D03*
X121132600Y-118947000D03*
X118592600Y-116407000D03*
X118592600Y-118947000D03*
X116052600Y-116407000D03*
X116052600Y-118947000D03*
X113512600Y-116407000D03*
X113512600Y-118947000D03*
X110972600Y-116407000D03*
X110972600Y-118947000D03*
X108432600Y-116407000D03*
X108432600Y-118947000D03*
X105892600Y-116407000D03*
X105892600Y-118947000D03*
D10*
X210033000Y-90499000D03*
D11*
X207493000Y-90499000D03*
D10*
X152882600Y-96087000D03*
D11*
X152882600Y-93547000D03*
X152882600Y-91007000D03*
X152882600Y-88467000D03*
X152882600Y-85927000D03*
X152882600Y-83387000D03*
D12*
X186029600Y-72592000D03*
X183029600Y-72592000D03*
X180029600Y-72592000D03*
D13*
X189279600Y-72592000D03*
X176779600Y-72592000D03*
D10*
X210037600Y-104977000D03*
D11*
X207497600Y-104977000D03*
D10*
X161121600Y-106925000D03*
D11*
X161121600Y-104385000D03*
D10*
X191067600Y-90470000D03*
D11*
X193607600Y-90470000D03*
X196147600Y-90470000D03*
D10*
X207108000Y-95330000D03*
D11*
X207108000Y-97870000D03*
X207108000Y-100410000D03*
D10*
X182727600Y-105104000D03*
D11*
X182632043Y-102138500D03*
D14*
X197078600Y-114375000D03*
D15*
X197078600Y-116375000D03*
X197078600Y-118375000D03*
X197078600Y-120375000D03*
D10*
X182727600Y-90245000D03*
D11*
X182727600Y-92785000D03*
D16*
X207925600Y-117150000D03*
X153417600Y-119670000D03*
X153417600Y-114590000D03*
X146669600Y-117130000D03*
X201177600Y-114610000D03*
X201177600Y-119690000D03*
D17*
X146285000Y-90835200D03*
D18*
X151706000Y-88467000D02*
X149338000Y-90835200D01*
X152882600Y-88467000D02*
X151706000Y-88467000D01*
X149338000Y-90835200D02*
X146285000Y-90835200D01*
X152883000Y-88467000D02*
X152882600Y-88467000D01*
D19*
X152883000Y-85927000D02*
X152882600Y-85927000D01*
X196148000Y-90469800D02*
X191605000Y-85927000D01*
X208744000Y-101400000D02*
X208744000Y-96966400D01*
X197079000Y-118375000D02*
X197078600Y-118375000D01*
X196148000Y-90470000D02*
X196148000Y-90469900D01*
X196148000Y-90469900D02*
X196148000Y-90469800D01*
X198505000Y-111639000D02*
X208744000Y-101400000D01*
X196147700Y-90469900D02*
X196147600Y-90470000D01*
X191605000Y-85927000D02*
X152883000Y-85927000D01*
X208744000Y-96966400D02*
X207108000Y-95330000D01*
X197079000Y-118375000D02*
X198505000Y-118375000D01*
X198505000Y-118375000D02*
X198505000Y-111639000D01*
X196148000Y-90469900D02*
X196147700Y-90469900D01*
X182632000Y-103407000D02*
X182728000Y-103502000D01*
X182632000Y-102138000D02*
X182632000Y-102138500D01*
X182728000Y-103502000D02*
X182728000Y-104303000D01*
X182632000Y-102138500D02*
X182632000Y-103407000D01*
D18*
X207108000Y-97870000D02*
X199831000Y-97870000D01*
X193607600Y-90763700D02*
X193607600Y-90470000D01*
X118593000Y-118358000D02*
X118593000Y-118652500D01*
X118960000Y-117770000D02*
X118593000Y-117770000D01*
X193608000Y-90764100D02*
X193608000Y-90470000D01*
X119769000Y-116961000D02*
X118960000Y-117770000D01*
X138494000Y-97295500D02*
X119769000Y-116020000D01*
X193608000Y-91352100D02*
X193608000Y-91058300D01*
X187959000Y-97295500D02*
X138494000Y-97295500D01*
X193608000Y-91352100D02*
X193608000Y-91058300D01*
X118593000Y-117770000D02*
X118593000Y-118064000D01*
X199831000Y-97870000D02*
X193608000Y-91646700D01*
X118593000Y-118064000D02*
X118593000Y-118358000D01*
X193608000Y-90764100D02*
X193607600Y-90763700D01*
X193608000Y-91352500D02*
X193608000Y-91352100D01*
X118593000Y-118064000D02*
X118593000Y-118358000D01*
X118592600Y-118652900D02*
X118592600Y-118947000D01*
X193608000Y-91646700D02*
X187959000Y-97295500D01*
X119769000Y-116020000D02*
X119769000Y-116961000D01*
X118593000Y-118652500D02*
X118593000Y-118947000D01*
X193608000Y-91352500D02*
X193608000Y-91352100D01*
X118593000Y-118652500D02*
X118592600Y-118652900D01*
X193608000Y-91646700D02*
X193608000Y-91352500D01*
X193608000Y-91058300D02*
X193608000Y-90764100D01*
X122309000Y-116407000D02*
X122309000Y-116039000D01*
X121133000Y-116407000D02*
X121132600Y-116407000D01*
X123434000Y-114914000D02*
X151202000Y-114914000D01*
X151202000Y-114914000D02*
X152663000Y-116375000D01*
X152663000Y-116375000D02*
X197078600Y-116375000D01*
X121133000Y-116407000D02*
X122309000Y-116407000D01*
X122309000Y-116039000D02*
X123434000Y-114914000D01*
X197078600Y-116375000D02*
X197079000Y-116375000D01*
X207498000Y-104977000D02*
X210037600Y-104977000D01*
X207498000Y-104977000D02*
X207497600Y-104977000D01*
X210037600Y-104977000D02*
X210038000Y-104977000D01*
G04 #@! TA.AperFunction,Conductor*
G36*
X138453107Y-118737156D02*
G01*
X138412600Y-118875111D01*
X138412600Y-119018889D01*
X138453107Y-119156844D01*
X138481484Y-119201000D01*
X136803716Y-119201000D01*
X136832093Y-119156844D01*
X136872600Y-119018889D01*
X136872600Y-118875111D01*
X136832093Y-118737156D01*
X136803716Y-118693000D01*
X138481484Y-118693000D01*
X138453107Y-118737156D01*
G37*
G04 #@! TD.AperFunction*
G04 #@! TA.AperFunction,Conductor*
G36*
X140993107Y-118737156D02*
G01*
X140952600Y-118875111D01*
X140952600Y-119018889D01*
X140993107Y-119156844D01*
X141021484Y-119201000D01*
X139343716Y-119201000D01*
X139372093Y-119156844D01*
X139412600Y-119018889D01*
X139412600Y-118875111D01*
X139372093Y-118737156D01*
X139343716Y-118693000D01*
X141021484Y-118693000D01*
X140993107Y-118737156D01*
G37*
G04 #@! TD.AperFunction*
G04 #@! TA.AperFunction,Conductor*
G36*
X193652012Y-92602742D02*
G01*
X193697074Y-92631703D01*
X199323754Y-98258654D01*
X199333721Y-98271096D01*
X199333947Y-98270910D01*
X199338999Y-98277017D01*
X199390095Y-98324999D01*
X199411207Y-98346113D01*
X199411215Y-98346120D01*
X199411219Y-98346124D01*
X199411223Y-98346127D01*
X199416759Y-98350422D01*
X199421273Y-98354277D01*
X199455679Y-98386586D01*
X199455682Y-98386588D01*
X199455684Y-98386589D01*
X199473421Y-98396340D01*
X199489949Y-98407197D01*
X199505946Y-98419606D01*
X199549270Y-98438354D01*
X199554583Y-98440958D01*
X199595940Y-98463695D01*
X199615554Y-98468730D01*
X199634248Y-98475131D01*
X199652840Y-98483177D01*
X199699458Y-98490560D01*
X199705255Y-98491761D01*
X199750970Y-98503500D01*
X199771219Y-98503500D01*
X199790933Y-98505051D01*
X199798179Y-98506199D01*
X199810926Y-98508219D01*
X199810927Y-98508219D01*
X199857903Y-98503780D01*
X199863833Y-98503500D01*
X205830962Y-98503500D01*
X205899083Y-98523502D01*
X205936445Y-98560585D01*
X206032275Y-98707265D01*
X206032279Y-98707270D01*
X206184762Y-98872908D01*
X206230500Y-98908507D01*
X206362424Y-99011189D01*
X206396205Y-99029470D01*
X206446596Y-99079482D01*
X206461949Y-99148799D01*
X206437389Y-99215412D01*
X206396209Y-99251096D01*
X206362704Y-99269228D01*
X206362698Y-99269232D01*
X206185097Y-99407465D01*
X206032674Y-99573041D01*
X205909580Y-99761451D01*
X205819179Y-99967543D01*
X205819176Y-99967550D01*
X205771455Y-100155999D01*
X205771456Y-100156000D01*
X206676884Y-100156000D01*
X206648507Y-100200156D01*
X206608000Y-100338111D01*
X206608000Y-100481889D01*
X206648507Y-100619844D01*
X206676884Y-100664000D01*
X205771455Y-100664000D01*
X205819176Y-100852449D01*
X205819179Y-100852456D01*
X205909580Y-101058548D01*
X206032674Y-101246958D01*
X206185097Y-101412534D01*
X206362698Y-101550767D01*
X206362699Y-101550768D01*
X206560628Y-101657882D01*
X206560630Y-101657883D01*
X206773483Y-101730955D01*
X206773490Y-101730957D01*
X206995477Y-101768000D01*
X206999128Y-101768000D01*
X207000566Y-101768422D01*
X207000670Y-101768431D01*
X207000668Y-101768452D01*
X207067249Y-101788002D01*
X207113742Y-101841658D01*
X207123846Y-101911932D01*
X207094352Y-101976512D01*
X207088223Y-101983095D01*
X198014225Y-111057092D01*
X198000376Y-111069062D01*
X197980943Y-111083530D01*
X197947007Y-111123971D01*
X197943300Y-111128017D01*
X197937421Y-111133897D01*
X197937412Y-111133907D01*
X197916863Y-111159896D01*
X197866965Y-111219364D01*
X197862935Y-111225491D01*
X197862880Y-111225455D01*
X197858825Y-111231820D01*
X197858882Y-111231855D01*
X197855028Y-111238101D01*
X197822220Y-111308458D01*
X197787391Y-111377812D01*
X197784882Y-111384707D01*
X197784820Y-111384684D01*
X197782343Y-111391810D01*
X197782404Y-111391831D01*
X197780097Y-111398790D01*
X197764392Y-111474849D01*
X197746500Y-111550345D01*
X197745648Y-111557634D01*
X197745581Y-111557626D01*
X197744814Y-111565126D01*
X197744881Y-111565132D01*
X197744241Y-111572442D01*
X197746500Y-111650079D01*
X197746500Y-113065500D01*
X197726498Y-113133621D01*
X197672842Y-113180114D01*
X197620500Y-113191500D01*
X196354950Y-113191500D01*
X196294403Y-113198009D01*
X196294395Y-113198011D01*
X196157397Y-113249110D01*
X196157392Y-113249112D01*
X196040338Y-113336738D01*
X195952712Y-113453792D01*
X195952710Y-113453797D01*
X195901611Y-113590795D01*
X195901609Y-113590803D01*
X195895100Y-113651350D01*
X195895100Y-115098649D01*
X195901609Y-115159196D01*
X195901611Y-115159204D01*
X195952710Y-115296202D01*
X195952712Y-115296207D01*
X196040338Y-115413261D01*
X196118871Y-115472050D01*
X196161418Y-115528886D01*
X196166482Y-115599702D01*
X196143914Y-115648848D01*
X196111756Y-115691431D01*
X196054746Y-115733739D01*
X196011207Y-115741500D01*
X155143322Y-115741500D01*
X155075201Y-115721498D01*
X155028708Y-115667842D01*
X155018604Y-115597568D01*
X155032735Y-115555114D01*
X155062344Y-115500889D01*
X155132168Y-115373017D01*
X155226151Y-115121039D01*
X155283317Y-114858250D01*
X155302503Y-114590000D01*
X155283317Y-114321750D01*
X155226151Y-114058961D01*
X155132168Y-113806983D01*
X155132163Y-113806973D01*
X155003287Y-113570954D01*
X155003282Y-113570948D01*
X155003281Y-113570945D01*
X154842115Y-113355651D01*
X154842111Y-113355647D01*
X154842109Y-113355644D01*
X154651955Y-113165490D01*
X154651951Y-113165487D01*
X154651949Y-113165485D01*
X154436655Y-113004319D01*
X154436652Y-113004317D01*
X154436645Y-113004312D01*
X154200626Y-112875436D01*
X154200616Y-112875431D01*
X153948639Y-112781449D01*
X153685846Y-112724282D01*
X153417600Y-112705097D01*
X153149353Y-112724282D01*
X152886560Y-112781449D01*
X152634583Y-112875431D01*
X152634573Y-112875436D01*
X152398554Y-113004312D01*
X152183244Y-113165490D01*
X151993090Y-113355644D01*
X151831912Y-113570954D01*
X151703036Y-113806973D01*
X151703031Y-113806983D01*
X151609047Y-114058966D01*
X151573902Y-114220525D01*
X151539877Y-114282837D01*
X151477565Y-114316862D01*
X151419437Y-114315780D01*
X151417428Y-114315264D01*
X151398736Y-114308864D01*
X151380145Y-114300819D01*
X151380143Y-114300818D01*
X151380142Y-114300818D01*
X151333542Y-114293437D01*
X151327729Y-114292233D01*
X151282030Y-114280500D01*
X151261776Y-114280500D01*
X151242066Y-114278949D01*
X151222057Y-114275780D01*
X151222056Y-114275780D01*
X151175083Y-114280220D01*
X151169150Y-114280500D01*
X123517853Y-114280500D01*
X123502011Y-114278750D01*
X123501984Y-114279044D01*
X123494092Y-114278298D01*
X123494091Y-114278298D01*
X123424042Y-114280500D01*
X123394144Y-114280500D01*
X123394140Y-114280500D01*
X123394130Y-114280501D01*
X123387179Y-114281379D01*
X123381267Y-114281844D01*
X123334112Y-114283326D01*
X123334110Y-114283327D01*
X123314655Y-114288978D01*
X123295302Y-114292986D01*
X123275210Y-114295524D01*
X123275202Y-114295526D01*
X123231336Y-114312893D01*
X123225721Y-114314816D01*
X123180407Y-114327982D01*
X123180402Y-114327984D01*
X123162963Y-114338297D01*
X123145218Y-114346990D01*
X123126380Y-114354449D01*
X123112704Y-114364386D01*
X123088212Y-114382180D01*
X123083261Y-114385433D01*
X123042640Y-114409455D01*
X123028307Y-114423787D01*
X123013281Y-114436620D01*
X122996895Y-114448526D01*
X122996894Y-114448526D01*
X122966818Y-114484880D01*
X122962823Y-114489271D01*
X122130110Y-115321983D01*
X122067798Y-115356009D01*
X121996983Y-115350944D01*
X121963626Y-115332321D01*
X121878176Y-115265811D01*
X121728932Y-115185044D01*
X121678542Y-115135032D01*
X121663190Y-115065715D01*
X121687751Y-114999102D01*
X121699804Y-114985138D01*
X132300225Y-104385000D01*
X159758444Y-104385000D01*
X159776804Y-104606573D01*
X159777037Y-104609375D01*
X159832302Y-104827612D01*
X159832303Y-104827613D01*
X159832304Y-104827616D01*
X159909272Y-105003086D01*
X159922741Y-105033793D01*
X160045875Y-105222265D01*
X160045878Y-105222268D01*
X160069819Y-105248275D01*
X160189075Y-105377820D01*
X160220496Y-105441485D01*
X160212509Y-105512031D01*
X160167651Y-105567060D01*
X160140407Y-105581213D01*
X160025397Y-105624110D01*
X160025392Y-105624112D01*
X159908338Y-105711738D01*
X159820712Y-105828792D01*
X159820710Y-105828797D01*
X159769611Y-105965795D01*
X159769609Y-105965803D01*
X159763100Y-106026350D01*
X159763100Y-107823649D01*
X159769609Y-107884196D01*
X159769611Y-107884204D01*
X159820710Y-108021202D01*
X159820712Y-108021207D01*
X159908338Y-108138261D01*
X160025392Y-108225887D01*
X160025394Y-108225888D01*
X160025396Y-108225889D01*
X160084475Y-108247924D01*
X160162395Y-108276988D01*
X160162403Y-108276990D01*
X160222950Y-108283499D01*
X160222955Y-108283499D01*
X160222962Y-108283500D01*
X160222968Y-108283500D01*
X162020232Y-108283500D01*
X162020238Y-108283500D01*
X162020245Y-108283499D01*
X162020249Y-108283499D01*
X162080796Y-108276990D01*
X162080799Y-108276989D01*
X162080801Y-108276989D01*
X162217804Y-108225889D01*
X162334861Y-108138261D01*
X162422489Y-108021204D01*
X162473589Y-107884201D01*
X162480100Y-107823638D01*
X162480100Y-106026362D01*
X162477551Y-106002649D01*
X162473590Y-105965803D01*
X162473588Y-105965795D01*
X162422489Y-105828797D01*
X162422487Y-105828792D01*
X162334861Y-105711738D01*
X162217807Y-105624112D01*
X162217803Y-105624110D01*
X162102792Y-105581213D01*
X162045956Y-105538667D01*
X162021146Y-105472146D01*
X162036238Y-105402772D01*
X162054125Y-105377820D01*
X162197314Y-105222277D01*
X162197324Y-105222265D01*
X162210977Y-105201368D01*
X162320460Y-105033791D01*
X162410896Y-104827616D01*
X162466164Y-104609368D01*
X162484756Y-104385000D01*
X162466164Y-104160632D01*
X162442101Y-104065611D01*
X162410897Y-103942387D01*
X162410896Y-103942386D01*
X162410896Y-103942384D01*
X162320460Y-103736209D01*
X162281196Y-103676111D01*
X162197324Y-103547734D01*
X162197320Y-103547729D01*
X162044837Y-103382091D01*
X161900304Y-103269596D01*
X161867176Y-103243811D01*
X161669174Y-103136658D01*
X161669172Y-103136657D01*
X161669171Y-103136656D01*
X161456239Y-103063557D01*
X161456230Y-103063555D01*
X161412076Y-103056187D01*
X161234169Y-103026500D01*
X161009031Y-103026500D01*
X160860811Y-103051233D01*
X160786969Y-103063555D01*
X160786960Y-103063557D01*
X160574028Y-103136656D01*
X160574026Y-103136658D01*
X160453937Y-103201647D01*
X160376026Y-103243810D01*
X160376024Y-103243811D01*
X160198362Y-103382091D01*
X160045879Y-103547729D01*
X160045875Y-103547734D01*
X159922741Y-103736206D01*
X159832303Y-103942386D01*
X159832302Y-103942387D01*
X159777037Y-104160624D01*
X159777036Y-104160630D01*
X159777036Y-104160632D01*
X159758444Y-104385000D01*
X132300225Y-104385000D01*
X134546785Y-102138500D01*
X181268887Y-102138500D01*
X181287480Y-102362875D01*
X181342745Y-102581112D01*
X181342746Y-102581113D01*
X181433184Y-102787293D01*
X181556318Y-102975765D01*
X181556322Y-102975770D01*
X181708805Y-103141408D01*
X181751983Y-103175015D01*
X181824892Y-103231762D01*
X181866362Y-103289386D01*
X181873500Y-103331193D01*
X181873500Y-103349302D01*
X181872881Y-103358116D01*
X181868552Y-103388787D01*
X181873230Y-103439203D01*
X181873500Y-103445025D01*
X181873500Y-103451180D01*
X181877380Y-103484382D01*
X181877577Y-103486068D01*
X181884932Y-103565340D01*
X181886454Y-103572522D01*
X181886130Y-103572590D01*
X181886907Y-103576052D01*
X181887230Y-103575976D01*
X181888920Y-103583106D01*
X181888921Y-103583113D01*
X181888923Y-103583119D01*
X181890614Y-103590252D01*
X181889067Y-103590618D01*
X181893018Y-103652869D01*
X181858494Y-103714906D01*
X181795911Y-103748430D01*
X181783589Y-103750377D01*
X181768401Y-103752010D01*
X181768395Y-103752011D01*
X181631397Y-103803110D01*
X181631392Y-103803112D01*
X181514338Y-103890738D01*
X181426712Y-104007792D01*
X181426710Y-104007797D01*
X181375611Y-104144795D01*
X181375609Y-104144803D01*
X181369100Y-104205350D01*
X181369100Y-106002649D01*
X181375609Y-106063196D01*
X181375611Y-106063204D01*
X181426710Y-106200202D01*
X181426712Y-106200207D01*
X181514338Y-106317261D01*
X181631392Y-106404887D01*
X181631394Y-106404888D01*
X181631396Y-106404889D01*
X181690475Y-106426924D01*
X181768395Y-106455988D01*
X181768403Y-106455990D01*
X181828950Y-106462499D01*
X181828955Y-106462499D01*
X181828962Y-106462500D01*
X181828968Y-106462500D01*
X183626232Y-106462500D01*
X183626238Y-106462500D01*
X183626245Y-106462499D01*
X183626249Y-106462499D01*
X183686796Y-106455990D01*
X183686799Y-106455989D01*
X183686801Y-106455989D01*
X183823804Y-106404889D01*
X183940861Y-106317261D01*
X184028489Y-106200204D01*
X184079589Y-106063201D01*
X184083550Y-106026362D01*
X184086099Y-106002649D01*
X184086100Y-106002632D01*
X184086100Y-104205367D01*
X184086099Y-104205350D01*
X184079590Y-104144803D01*
X184079588Y-104144795D01*
X184046428Y-104055893D01*
X184028489Y-104007796D01*
X184028488Y-104007794D01*
X184028487Y-104007792D01*
X183940861Y-103890738D01*
X183823807Y-103803112D01*
X183823802Y-103803110D01*
X183686804Y-103752011D01*
X183686796Y-103752009D01*
X183626249Y-103745500D01*
X183626238Y-103745500D01*
X183612500Y-103745500D01*
X183544379Y-103725498D01*
X183497886Y-103671842D01*
X183486500Y-103619500D01*
X183486500Y-103559690D01*
X183487118Y-103550882D01*
X183491447Y-103520214D01*
X183488615Y-103489689D01*
X183486770Y-103469796D01*
X183486500Y-103463973D01*
X183486500Y-103457820D01*
X183485724Y-103451180D01*
X183482422Y-103422931D01*
X183475068Y-103343660D01*
X183475064Y-103343650D01*
X183473546Y-103336480D01*
X183473875Y-103336410D01*
X183473098Y-103332950D01*
X183472771Y-103333028D01*
X183471078Y-103325884D01*
X183468716Y-103319396D01*
X183464210Y-103248543D01*
X183498725Y-103186501D01*
X183509713Y-103176873D01*
X183555283Y-103141406D01*
X183707765Y-102975768D01*
X183830903Y-102787291D01*
X183921339Y-102581116D01*
X183976607Y-102362868D01*
X183995199Y-102138500D01*
X183976607Y-101914132D01*
X183947934Y-101800905D01*
X183921340Y-101695887D01*
X183921339Y-101695886D01*
X183921339Y-101695884D01*
X183830903Y-101489709D01*
X183780482Y-101412534D01*
X183707767Y-101301234D01*
X183707763Y-101301229D01*
X183555280Y-101135591D01*
X183456295Y-101058548D01*
X183377619Y-100997311D01*
X183179617Y-100890158D01*
X183179615Y-100890157D01*
X183179614Y-100890156D01*
X182966682Y-100817057D01*
X182966673Y-100817055D01*
X182922519Y-100809687D01*
X182744612Y-100780000D01*
X182519474Y-100780000D01*
X182371254Y-100804733D01*
X182297412Y-100817055D01*
X182297403Y-100817057D01*
X182084471Y-100890156D01*
X182084469Y-100890158D01*
X181886469Y-100997310D01*
X181886467Y-100997311D01*
X181708805Y-101135591D01*
X181556322Y-101301229D01*
X181556318Y-101301234D01*
X181433184Y-101489706D01*
X181342746Y-101695886D01*
X181342745Y-101695887D01*
X181287480Y-101914124D01*
X181287479Y-101914130D01*
X181287479Y-101914132D01*
X181268887Y-102138500D01*
X134546785Y-102138500D01*
X138719495Y-97965902D01*
X138781807Y-97931879D01*
X138808589Y-97929000D01*
X187875138Y-97929000D01*
X187890975Y-97930748D01*
X187891003Y-97930455D01*
X187898895Y-97931201D01*
X187898896Y-97931200D01*
X187898897Y-97931201D01*
X187968956Y-97929000D01*
X187998856Y-97929000D01*
X188005816Y-97928120D01*
X188011708Y-97927656D01*
X188058878Y-97926175D01*
X188078332Y-97920523D01*
X188097686Y-97916514D01*
X188117797Y-97913974D01*
X188161670Y-97896602D01*
X188167262Y-97894688D01*
X188212583Y-97881523D01*
X188230030Y-97871205D01*
X188247774Y-97862512D01*
X188266617Y-97855052D01*
X188304794Y-97827313D01*
X188309722Y-97824076D01*
X188350353Y-97800049D01*
X188364683Y-97785718D01*
X188379712Y-97772882D01*
X188396107Y-97760972D01*
X188426177Y-97724623D01*
X188430175Y-97720229D01*
X188913921Y-97236500D01*
X193518884Y-92631698D01*
X193581196Y-92597676D01*
X193652012Y-92602742D01*
G37*
G04 #@! TD.AperFunction*
G04 #@! TA.AperFunction,Conductor*
G36*
X191306762Y-86705502D02*
G01*
X191327732Y-86722401D01*
X193492426Y-88887000D01*
X193512105Y-88906678D01*
X193546132Y-88968989D01*
X193541069Y-89039805D01*
X193498523Y-89096642D01*
X193443751Y-89120057D01*
X193272967Y-89148555D01*
X193272960Y-89148557D01*
X193060028Y-89221656D01*
X193060026Y-89221658D01*
X192901234Y-89307592D01*
X192862026Y-89328810D01*
X192862024Y-89328811D01*
X192684359Y-89467094D01*
X192622974Y-89533775D01*
X192562121Y-89570346D01*
X192491157Y-89568211D01*
X192432612Y-89528049D01*
X192412218Y-89492470D01*
X192368043Y-89374033D01*
X192280504Y-89257095D01*
X192163565Y-89169555D01*
X192026693Y-89118505D01*
X191966197Y-89112000D01*
X191321600Y-89112000D01*
X191321600Y-90036325D01*
X191209915Y-89985320D01*
X191103363Y-89970000D01*
X191031837Y-89970000D01*
X190925285Y-89985320D01*
X190813600Y-90036325D01*
X190813600Y-89112000D01*
X190169002Y-89112000D01*
X190108506Y-89118505D01*
X189971635Y-89169555D01*
X189971634Y-89169555D01*
X189854695Y-89257095D01*
X189767155Y-89374034D01*
X189767155Y-89374035D01*
X189716105Y-89510906D01*
X189709600Y-89571402D01*
X189709600Y-90216000D01*
X190636484Y-90216000D01*
X190608107Y-90260156D01*
X190567600Y-90398111D01*
X190567600Y-90541889D01*
X190608107Y-90679844D01*
X190636484Y-90724000D01*
X189709600Y-90724000D01*
X189709600Y-91368597D01*
X189716105Y-91429093D01*
X189767155Y-91565964D01*
X189767155Y-91565965D01*
X189854695Y-91682904D01*
X189971634Y-91770444D01*
X190108506Y-91821494D01*
X190169002Y-91827999D01*
X190169015Y-91828000D01*
X190813600Y-91828000D01*
X190813600Y-90903674D01*
X190925285Y-90954680D01*
X191031837Y-90970000D01*
X191103363Y-90970000D01*
X191209915Y-90954680D01*
X191321600Y-90903674D01*
X191321600Y-91828000D01*
X191966185Y-91828000D01*
X191966197Y-91827999D01*
X192026693Y-91821494D01*
X192163564Y-91770444D01*
X192163565Y-91770444D01*
X192280504Y-91682904D01*
X192368044Y-91565965D01*
X192412218Y-91447530D01*
X192454765Y-91390694D01*
X192521285Y-91365883D01*
X192590659Y-91380974D01*
X192622972Y-91406222D01*
X192682098Y-91470449D01*
X192684363Y-91472909D01*
X192685080Y-91473467D01*
X192685298Y-91473770D01*
X192688200Y-91476442D01*
X192687650Y-91477038D01*
X192726551Y-91531093D01*
X192730283Y-91601991D01*
X192696782Y-91661995D01*
X187733507Y-96625097D01*
X187671194Y-96659121D01*
X187644413Y-96662000D01*
X154367100Y-96662000D01*
X154298979Y-96641998D01*
X154252486Y-96588342D01*
X154241100Y-96536000D01*
X154241100Y-95188367D01*
X154241099Y-95188350D01*
X154234590Y-95127803D01*
X154234588Y-95127795D01*
X154183489Y-94990797D01*
X154183487Y-94990792D01*
X154095861Y-94873738D01*
X153978807Y-94786112D01*
X153978804Y-94786111D01*
X153863286Y-94743024D01*
X153806451Y-94700477D01*
X153781641Y-94633957D01*
X153796733Y-94564583D01*
X153814619Y-94539632D01*
X153957923Y-94383961D01*
X154081019Y-94195548D01*
X154171420Y-93989456D01*
X154171423Y-93989449D01*
X154219144Y-93801000D01*
X153313716Y-93801000D01*
X153342093Y-93756844D01*
X153382600Y-93618889D01*
X153382600Y-93475111D01*
X153342093Y-93337156D01*
X153313716Y-93293000D01*
X154219144Y-93293000D01*
X154219144Y-93292999D01*
X154171423Y-93104550D01*
X154171420Y-93104543D01*
X154081019Y-92898451D01*
X154006898Y-92785000D01*
X181364444Y-92785000D01*
X181378928Y-92959797D01*
X181383037Y-93009375D01*
X181438302Y-93227612D01*
X181438303Y-93227613D01*
X181438304Y-93227616D01*
X181498385Y-93364587D01*
X181528741Y-93433793D01*
X181651875Y-93622265D01*
X181651879Y-93622270D01*
X181804362Y-93787908D01*
X181821183Y-93801000D01*
X181982024Y-93926189D01*
X182180026Y-94033342D01*
X182180027Y-94033342D01*
X182180028Y-94033343D01*
X182243402Y-94055099D01*
X182392965Y-94106444D01*
X182615031Y-94143500D01*
X182615035Y-94143500D01*
X182840165Y-94143500D01*
X182840169Y-94143500D01*
X183062235Y-94106444D01*
X183275174Y-94033342D01*
X183473176Y-93926189D01*
X183650840Y-93787906D01*
X183803322Y-93622268D01*
X183926460Y-93433791D01*
X184016896Y-93227616D01*
X184072164Y-93009368D01*
X184090756Y-92785000D01*
X184072164Y-92560632D01*
X184046407Y-92458920D01*
X184016897Y-92342387D01*
X184016896Y-92342386D01*
X184016896Y-92342384D01*
X183926460Y-92136209D01*
X183900293Y-92096157D01*
X183803324Y-91947734D01*
X183803314Y-91947722D01*
X183659759Y-91791782D01*
X183628337Y-91728117D01*
X183636323Y-91657571D01*
X183681182Y-91602542D01*
X183708427Y-91588388D01*
X183823565Y-91545444D01*
X183940504Y-91457904D01*
X184028044Y-91340965D01*
X184028044Y-91340964D01*
X184079094Y-91204093D01*
X184085599Y-91143597D01*
X184085600Y-91143585D01*
X184085600Y-90499000D01*
X183158716Y-90499000D01*
X183187093Y-90454844D01*
X183227600Y-90316889D01*
X183227600Y-90173111D01*
X183187093Y-90035156D01*
X183158716Y-89991000D01*
X184085600Y-89991000D01*
X184085600Y-89346414D01*
X184085599Y-89346402D01*
X184079094Y-89285906D01*
X184028044Y-89149035D01*
X184028044Y-89149034D01*
X183940504Y-89032095D01*
X183823565Y-88944555D01*
X183686693Y-88893505D01*
X183626197Y-88887000D01*
X182981600Y-88887000D01*
X182981600Y-89811325D01*
X182869915Y-89760320D01*
X182763363Y-89745000D01*
X182691837Y-89745000D01*
X182585285Y-89760320D01*
X182473600Y-89811325D01*
X182473600Y-88887000D01*
X181829002Y-88887000D01*
X181768506Y-88893505D01*
X181631635Y-88944555D01*
X181631634Y-88944555D01*
X181514695Y-89032095D01*
X181427155Y-89149034D01*
X181427155Y-89149035D01*
X181376105Y-89285906D01*
X181369600Y-89346402D01*
X181369600Y-89991000D01*
X182296484Y-89991000D01*
X182268107Y-90035156D01*
X182227600Y-90173111D01*
X182227600Y-90316889D01*
X182268107Y-90454844D01*
X182296484Y-90499000D01*
X181369600Y-90499000D01*
X181369600Y-91143597D01*
X181376105Y-91204093D01*
X181427155Y-91340964D01*
X181427155Y-91340965D01*
X181514695Y-91457904D01*
X181631634Y-91545444D01*
X181746772Y-91588388D01*
X181803608Y-91630935D01*
X181828419Y-91697455D01*
X181813328Y-91766829D01*
X181795441Y-91791782D01*
X181651880Y-91947729D01*
X181651875Y-91947734D01*
X181528741Y-92136206D01*
X181438303Y-92342386D01*
X181438302Y-92342387D01*
X181383037Y-92560624D01*
X181383036Y-92560630D01*
X181383036Y-92560632D01*
X181364444Y-92785000D01*
X154006898Y-92785000D01*
X153957925Y-92710041D01*
X153805502Y-92544465D01*
X153627901Y-92406232D01*
X153627900Y-92406231D01*
X153594391Y-92388097D01*
X153544001Y-92338083D01*
X153528650Y-92268766D01*
X153553212Y-92202153D01*
X153594390Y-92166472D01*
X153628176Y-92148189D01*
X153805840Y-92009906D01*
X153958322Y-91844268D01*
X154081460Y-91655791D01*
X154171896Y-91449616D01*
X154227164Y-91231368D01*
X154245756Y-91007000D01*
X154227164Y-90782632D01*
X154204814Y-90694375D01*
X154171897Y-90564387D01*
X154171896Y-90564386D01*
X154171896Y-90564384D01*
X154081460Y-90358209D01*
X154054464Y-90316889D01*
X153958324Y-90169734D01*
X153958320Y-90169729D01*
X153805837Y-90004091D01*
X153690348Y-89914202D01*
X153628176Y-89865811D01*
X153594919Y-89847813D01*
X153544529Y-89797802D01*
X153529176Y-89728485D01*
X153553736Y-89661872D01*
X153594920Y-89626186D01*
X153628176Y-89608189D01*
X153805840Y-89469906D01*
X153958322Y-89304268D01*
X154081460Y-89115791D01*
X154171896Y-88909616D01*
X154227164Y-88691368D01*
X154245756Y-88467000D01*
X154227164Y-88242632D01*
X154176429Y-88042284D01*
X154171897Y-88024387D01*
X154171896Y-88024386D01*
X154171896Y-88024384D01*
X154081460Y-87818209D01*
X154056013Y-87779259D01*
X153958324Y-87629734D01*
X153958320Y-87629729D01*
X153805837Y-87464091D01*
X153723982Y-87400381D01*
X153628176Y-87325811D01*
X153594919Y-87307813D01*
X153544529Y-87257802D01*
X153529176Y-87188485D01*
X153553736Y-87121872D01*
X153594920Y-87086186D01*
X153628176Y-87068189D01*
X153805840Y-86929906D01*
X153958322Y-86764268D01*
X153972490Y-86742583D01*
X154026495Y-86696495D01*
X154077972Y-86685500D01*
X191238641Y-86685500D01*
X191306762Y-86705502D01*
G37*
G04 #@! TD.AperFunction*
G04 #@! TA.AperFunction,Conductor*
G36*
X209573507Y-90289156D02*
G01*
X209533000Y-90427111D01*
X209533000Y-90570889D01*
X209573507Y-90708844D01*
X209601884Y-90753000D01*
X207924116Y-90753000D01*
X207952493Y-90708844D01*
X207993000Y-90570889D01*
X207993000Y-90427111D01*
X207952493Y-90289156D01*
X207924116Y-90245000D01*
X209601884Y-90245000D01*
X209573507Y-90289156D01*
G37*
G04 #@! TD.AperFunction*
G04 #@! TA.AperFunction,Conductor*
G36*
X105649396Y-66676244D02*
G01*
X105784600Y-66685081D01*
X105796947Y-66685888D01*
X105946263Y-66700295D01*
X106094980Y-66719274D01*
X106242937Y-66742774D01*
X106389999Y-66770744D01*
X106536079Y-66803149D01*
X106681030Y-66839937D01*
X106824682Y-66881056D01*
X106966950Y-66926470D01*
X107107649Y-66976116D01*
X107246691Y-67029963D01*
X107383894Y-67087946D01*
X107519153Y-67150028D01*
X107652357Y-67216172D01*
X107783309Y-67286301D01*
X107911856Y-67360353D01*
X108677573Y-67839441D01*
X108680734Y-67841674D01*
X108685151Y-67844185D01*
X108688689Y-67845760D01*
X109138537Y-68077291D01*
X109484374Y-68255289D01*
X109487632Y-68257210D01*
X109487739Y-68257255D01*
X109492403Y-68259422D01*
X109492510Y-68259477D01*
X109496082Y-68260727D01*
X110321753Y-68604455D01*
X110325081Y-68606077D01*
X110325382Y-68606176D01*
X110330035Y-68607903D01*
X110330356Y-68608036D01*
X110333931Y-68608976D01*
X111184637Y-68887549D01*
X111188028Y-68888891D01*
X111188540Y-68889017D01*
X111193113Y-68890326D01*
X111193628Y-68890494D01*
X111197206Y-68891147D01*
X111848462Y-69051245D01*
X112067988Y-69105211D01*
X112071410Y-69106281D01*
X112072136Y-69106404D01*
X112076654Y-69107341D01*
X112077380Y-69107519D01*
X112080948Y-69107898D01*
X112966892Y-69258099D01*
X112970333Y-69258906D01*
X112971144Y-69258985D01*
X112975656Y-69259586D01*
X112976465Y-69259723D01*
X112979998Y-69259844D01*
X113876181Y-69346824D01*
X113879629Y-69347380D01*
X113880576Y-69347406D01*
X113885001Y-69347680D01*
X113885980Y-69347775D01*
X113889475Y-69347646D01*
X114520944Y-69364732D01*
X114790930Y-69372038D01*
X114794376Y-69372351D01*
X114795414Y-69372308D01*
X114799762Y-69372276D01*
X114800840Y-69372305D01*
X114804284Y-69371938D01*
X115706087Y-69334376D01*
X115709546Y-69334453D01*
X115710620Y-69334335D01*
X115714967Y-69334006D01*
X115716033Y-69333962D01*
X115719428Y-69333365D01*
X115902885Y-69313145D01*
X116616679Y-69234473D01*
X116620124Y-69234316D01*
X116621167Y-69234128D01*
X116625487Y-69233503D01*
X116626558Y-69233385D01*
X116629911Y-69232555D01*
X117517642Y-69072967D01*
X117521078Y-69072573D01*
X117522055Y-69072327D01*
X117526344Y-69071403D01*
X117527394Y-69071214D01*
X117530706Y-69070151D01*
X117818036Y-68997876D01*
X118403965Y-68850492D01*
X118407393Y-68849857D01*
X118408314Y-68849556D01*
X118412573Y-68848326D01*
X118413533Y-68848084D01*
X118416776Y-68846789D01*
X119270625Y-68567685D01*
X119274048Y-68566801D01*
X119274857Y-68566472D01*
X119279095Y-68564918D01*
X119279936Y-68564643D01*
X119283112Y-68563109D01*
X120112655Y-68225165D01*
X120116046Y-68224022D01*
X120116676Y-68223710D01*
X120120936Y-68221791D01*
X120121599Y-68221521D01*
X120124695Y-68219740D01*
X120925003Y-67823568D01*
X120928353Y-67822156D01*
X120928815Y-67821883D01*
X120933028Y-67819597D01*
X120933520Y-67819353D01*
X120936546Y-67817302D01*
X120936550Y-67817300D01*
X121705781Y-67361668D01*
X121709439Y-67359661D01*
X121971999Y-67227014D01*
X122012610Y-67208126D01*
X122242314Y-67101292D01*
X122379464Y-67042359D01*
X122517991Y-66986488D01*
X122657863Y-66934046D01*
X122798995Y-66885416D01*
X122941410Y-66840939D01*
X123085108Y-66800970D01*
X123230044Y-66765876D01*
X123376132Y-66736027D01*
X123523443Y-66711764D01*
X123671929Y-66693450D01*
X123821551Y-66681446D01*
X123972373Y-66676110D01*
X128628905Y-66676110D01*
X128633015Y-66676244D01*
X128780567Y-66685888D01*
X128929883Y-66700295D01*
X129078599Y-66719274D01*
X129152579Y-66731024D01*
X129226558Y-66742774D01*
X129373620Y-66770744D01*
X129519700Y-66803149D01*
X129664651Y-66839937D01*
X129808303Y-66881056D01*
X129910272Y-66913606D01*
X129950571Y-66926470D01*
X130091271Y-66976116D01*
X130230284Y-67029951D01*
X130367516Y-67087946D01*
X130502775Y-67150028D01*
X130635954Y-67216159D01*
X130766932Y-67286301D01*
X130895429Y-67360325D01*
X131323947Y-67628436D01*
X131661188Y-67839438D01*
X131664348Y-67841671D01*
X131668770Y-67844185D01*
X131672308Y-67845760D01*
X132122156Y-68077291D01*
X132467993Y-68255289D01*
X132471251Y-68257210D01*
X132471358Y-68257255D01*
X132476022Y-68259422D01*
X132476129Y-68259477D01*
X132479701Y-68260727D01*
X133305372Y-68604455D01*
X133308700Y-68606077D01*
X133309001Y-68606176D01*
X133313654Y-68607903D01*
X133313975Y-68608036D01*
X133317550Y-68608976D01*
X134168255Y-68887549D01*
X134171646Y-68888891D01*
X134172158Y-68889017D01*
X134176731Y-68890326D01*
X134177246Y-68890494D01*
X134180824Y-68891147D01*
X134832080Y-69051245D01*
X135051606Y-69105211D01*
X135055028Y-69106281D01*
X135055754Y-69106404D01*
X135060272Y-69107341D01*
X135060998Y-69107519D01*
X135064566Y-69107898D01*
X135950510Y-69258099D01*
X135953951Y-69258906D01*
X135954762Y-69258985D01*
X135959274Y-69259586D01*
X135960083Y-69259723D01*
X135963616Y-69259844D01*
X136859798Y-69346824D01*
X136863246Y-69347380D01*
X136864193Y-69347406D01*
X136868618Y-69347680D01*
X136869597Y-69347775D01*
X136873092Y-69347646D01*
X137504561Y-69364732D01*
X137774547Y-69372038D01*
X137777993Y-69372351D01*
X137779031Y-69372308D01*
X137783379Y-69372276D01*
X137784457Y-69372305D01*
X137787901Y-69371938D01*
X138689704Y-69334376D01*
X138693163Y-69334453D01*
X138694237Y-69334335D01*
X138698584Y-69334006D01*
X138699650Y-69333962D01*
X138703045Y-69333365D01*
X138886502Y-69313145D01*
X139600296Y-69234473D01*
X139603741Y-69234316D01*
X139604784Y-69234128D01*
X139609104Y-69233503D01*
X139610175Y-69233385D01*
X139613528Y-69232555D01*
X140501259Y-69072967D01*
X140504695Y-69072573D01*
X140505672Y-69072327D01*
X140509961Y-69071403D01*
X140511011Y-69071214D01*
X140514323Y-69070151D01*
X140994724Y-68949311D01*
X141387581Y-68850492D01*
X141391009Y-68849857D01*
X141391930Y-68849556D01*
X141396189Y-68848326D01*
X141397151Y-68848084D01*
X141400398Y-68846788D01*
X142254243Y-68567685D01*
X142257656Y-68566804D01*
X142258469Y-68566473D01*
X142262703Y-68564920D01*
X142263561Y-68564639D01*
X142266737Y-68563104D01*
X143012179Y-68259422D01*
X143096269Y-68225165D01*
X143099660Y-68224022D01*
X143100290Y-68223710D01*
X143104550Y-68221791D01*
X143105213Y-68221521D01*
X143108309Y-68219740D01*
X143908606Y-67823573D01*
X143911953Y-67822162D01*
X143912420Y-67821886D01*
X143916641Y-67819596D01*
X143917140Y-67819349D01*
X143920159Y-67817302D01*
X144689375Y-67361679D01*
X144693048Y-67359665D01*
X144955615Y-67227014D01*
X145225932Y-67101291D01*
X145363080Y-67042359D01*
X145393845Y-67029951D01*
X145501609Y-66986489D01*
X145641480Y-66934046D01*
X145782613Y-66885416D01*
X145925029Y-66840939D01*
X146068727Y-66800970D01*
X146213661Y-66765876D01*
X146359751Y-66736027D01*
X146507063Y-66711764D01*
X146655548Y-66693450D01*
X146805171Y-66681446D01*
X146955993Y-66676110D01*
X151612525Y-66676110D01*
X151616635Y-66676244D01*
X151751839Y-66685081D01*
X151764186Y-66685888D01*
X151913502Y-66700295D01*
X152062218Y-66719274D01*
X152210176Y-66742774D01*
X152357237Y-66770744D01*
X152503317Y-66803149D01*
X152648268Y-66839937D01*
X152791920Y-66881056D01*
X152934188Y-66926470D01*
X153046756Y-66966190D01*
X153074887Y-66976116D01*
X153213900Y-67029951D01*
X153351132Y-67087946D01*
X153486390Y-67150027D01*
X153619593Y-67216172D01*
X153716279Y-67267951D01*
X153750557Y-67286308D01*
X153879262Y-67360452D01*
X154644816Y-67839438D01*
X154647976Y-67841671D01*
X154652398Y-67844185D01*
X154655936Y-67845760D01*
X155451626Y-68255293D01*
X155454874Y-68257209D01*
X155454966Y-68257247D01*
X155459631Y-68259414D01*
X155459753Y-68259476D01*
X155463328Y-68260728D01*
X156289001Y-68604457D01*
X156292329Y-68606079D01*
X156292630Y-68606178D01*
X156297283Y-68607905D01*
X156297604Y-68608038D01*
X156301179Y-68608978D01*
X156972113Y-68828684D01*
X157151855Y-68887543D01*
X157155256Y-68888890D01*
X157155801Y-68889024D01*
X157160375Y-68890333D01*
X157160907Y-68890507D01*
X157164491Y-68891159D01*
X157766881Y-69039244D01*
X158035236Y-69105214D01*
X158038658Y-69106284D01*
X158039384Y-69106407D01*
X158043902Y-69107344D01*
X158044628Y-69107522D01*
X158048196Y-69107901D01*
X158934143Y-69258104D01*
X158937583Y-69258910D01*
X158938392Y-69258989D01*
X158942904Y-69259590D01*
X158943713Y-69259727D01*
X158947247Y-69259848D01*
X159843427Y-69346829D01*
X159846876Y-69347385D01*
X159847824Y-69347411D01*
X159852249Y-69347685D01*
X159853228Y-69347780D01*
X159856723Y-69347651D01*
X160486413Y-69364690D01*
X160758178Y-69372044D01*
X160761624Y-69372357D01*
X160762662Y-69372314D01*
X160767010Y-69372282D01*
X160768088Y-69372311D01*
X160771532Y-69371944D01*
X161673336Y-69334382D01*
X161676795Y-69334459D01*
X161677869Y-69334341D01*
X161682216Y-69334012D01*
X161683284Y-69333968D01*
X161686679Y-69333371D01*
X162016051Y-69297068D01*
X162583927Y-69234480D01*
X162587373Y-69234322D01*
X162588415Y-69234135D01*
X162592735Y-69233510D01*
X162593806Y-69233392D01*
X162597159Y-69232562D01*
X163484891Y-69072974D01*
X163488327Y-69072580D01*
X163489304Y-69072334D01*
X163493593Y-69071410D01*
X163494639Y-69071222D01*
X163497947Y-69070159D01*
X164371190Y-68850502D01*
X164374623Y-68849869D01*
X164375572Y-68849559D01*
X164379828Y-68848330D01*
X164380757Y-68848096D01*
X164383984Y-68846809D01*
X165237876Y-68567690D01*
X165241289Y-68566809D01*
X165242102Y-68566478D01*
X165246336Y-68564925D01*
X165247194Y-68564644D01*
X165250370Y-68563109D01*
X165995690Y-68259477D01*
X166079898Y-68225172D01*
X166083281Y-68224032D01*
X166083955Y-68223699D01*
X166088152Y-68221809D01*
X166088855Y-68221522D01*
X166091947Y-68219743D01*
X166892248Y-67823571D01*
X166895593Y-67822161D01*
X166896055Y-67821888D01*
X166900276Y-67819598D01*
X166900771Y-67819352D01*
X166903786Y-67817308D01*
X167673072Y-67361642D01*
X167676762Y-67359620D01*
X167939239Y-67227014D01*
X168209554Y-67101292D01*
X168346704Y-67042359D01*
X168485232Y-66986489D01*
X168625104Y-66934046D01*
X168766237Y-66885416D01*
X168908653Y-66840939D01*
X169052350Y-66800970D01*
X169197287Y-66765876D01*
X169343376Y-66736027D01*
X169490688Y-66711764D01*
X169639174Y-66693450D01*
X169788797Y-66681446D01*
X169939620Y-66676110D01*
X174596145Y-66676110D01*
X174600255Y-66676244D01*
X174735459Y-66685081D01*
X174747806Y-66685888D01*
X174897122Y-66700295D01*
X175045838Y-66719274D01*
X175193795Y-66742774D01*
X175340857Y-66770744D01*
X175486937Y-66803149D01*
X175631888Y-66839937D01*
X175775540Y-66881056D01*
X175917808Y-66926470D01*
X176030376Y-66966190D01*
X176058507Y-66976116D01*
X176197520Y-67029951D01*
X176334751Y-67087946D01*
X176470010Y-67150028D01*
X176603214Y-67216172D01*
X176734177Y-67286308D01*
X176862870Y-67360445D01*
X177628407Y-67839420D01*
X177631569Y-67841655D01*
X177636016Y-67844184D01*
X177639561Y-67845764D01*
X178435241Y-68255289D01*
X178438499Y-68257210D01*
X178438606Y-68257255D01*
X178443270Y-68259422D01*
X178443377Y-68259477D01*
X178446949Y-68260727D01*
X179272621Y-68604455D01*
X179275949Y-68606077D01*
X179276250Y-68606176D01*
X179280903Y-68607903D01*
X179281224Y-68608036D01*
X179284799Y-68608976D01*
X180135505Y-68887549D01*
X180138896Y-68888891D01*
X180139408Y-68889017D01*
X180143981Y-68890326D01*
X180144496Y-68890494D01*
X180148074Y-68891147D01*
X180799330Y-69051245D01*
X181018857Y-69105211D01*
X181022279Y-69106281D01*
X181023005Y-69106404D01*
X181027523Y-69107341D01*
X181028249Y-69107519D01*
X181031817Y-69107898D01*
X181917762Y-69258099D01*
X181921203Y-69258906D01*
X181922014Y-69258985D01*
X181926526Y-69259586D01*
X181927335Y-69259723D01*
X181930868Y-69259844D01*
X182827051Y-69346824D01*
X182830499Y-69347380D01*
X182831446Y-69347406D01*
X182835871Y-69347680D01*
X182836850Y-69347775D01*
X182840345Y-69347646D01*
X183471863Y-69364733D01*
X183741801Y-69372038D01*
X183745247Y-69372351D01*
X183746285Y-69372308D01*
X183750633Y-69372276D01*
X183751711Y-69372305D01*
X183755155Y-69371938D01*
X184656959Y-69334376D01*
X184660418Y-69334453D01*
X184661492Y-69334335D01*
X184665839Y-69334006D01*
X184666905Y-69333962D01*
X184670300Y-69333365D01*
X184853757Y-69313145D01*
X185567550Y-69234473D01*
X185570995Y-69234316D01*
X185572038Y-69234128D01*
X185576358Y-69233503D01*
X185577429Y-69233385D01*
X185580782Y-69232555D01*
X186468514Y-69072967D01*
X186471950Y-69072573D01*
X186472927Y-69072327D01*
X186477216Y-69071403D01*
X186478266Y-69071214D01*
X186481578Y-69070151D01*
X186961979Y-68949311D01*
X187354836Y-68850492D01*
X187358264Y-68849857D01*
X187359185Y-68849556D01*
X187363444Y-68848326D01*
X187364406Y-68848084D01*
X187367653Y-68846788D01*
X188221498Y-68567685D01*
X188224911Y-68566804D01*
X188225724Y-68566473D01*
X188229958Y-68564920D01*
X188230816Y-68564639D01*
X188233992Y-68563104D01*
X188979435Y-68259422D01*
X189063525Y-68225165D01*
X189066916Y-68224022D01*
X189067546Y-68223710D01*
X189071806Y-68221791D01*
X189072469Y-68221521D01*
X189075565Y-68219740D01*
X189875862Y-67823573D01*
X189879209Y-67822162D01*
X189879676Y-67821886D01*
X189883897Y-67819596D01*
X189884396Y-67819349D01*
X189887415Y-67817302D01*
X190656666Y-67361657D01*
X190660330Y-67359649D01*
X190922865Y-67227019D01*
X191193196Y-67101292D01*
X191330317Y-67042372D01*
X191468859Y-66986495D01*
X191608746Y-66934049D01*
X191749877Y-66885418D01*
X191892282Y-66840944D01*
X192035980Y-66800973D01*
X192180915Y-66765879D01*
X192327003Y-66736030D01*
X192474314Y-66711765D01*
X192622799Y-66693451D01*
X192772421Y-66681447D01*
X192923241Y-66676110D01*
X204906716Y-66676110D01*
X204907583Y-66676197D01*
X204907584Y-66676122D01*
X205044503Y-66677017D01*
X205371761Y-66679159D01*
X205375087Y-66679270D01*
X205819228Y-66706244D01*
X205822523Y-66706533D01*
X206262371Y-66756864D01*
X206265607Y-66757321D01*
X206700463Y-66830330D01*
X206703632Y-66830947D01*
X207132810Y-66925954D01*
X207135832Y-66926703D01*
X207558641Y-67043035D01*
X207561595Y-67043927D01*
X207977253Y-67180887D01*
X207980133Y-67181915D01*
X208387952Y-67338829D01*
X208390723Y-67339973D01*
X208615079Y-67438977D01*
X208789904Y-67516125D01*
X208792620Y-67517401D01*
X209182551Y-67712151D01*
X209185165Y-67713534D01*
X209341080Y-67800802D01*
X209565042Y-67926157D01*
X209567571Y-67927650D01*
X209936735Y-68157496D01*
X209939172Y-68159093D01*
X210172865Y-68320047D01*
X210273326Y-68389239D01*
X210296832Y-68405428D01*
X210299174Y-68407122D01*
X210563359Y-68607599D01*
X210644661Y-68669295D01*
X210646923Y-68671095D01*
X210909552Y-68890082D01*
X210963032Y-68934676D01*
X210979482Y-68948392D01*
X210981649Y-68950285D01*
X211300580Y-69242034D01*
X211302649Y-69244017D01*
X211607190Y-69549483D01*
X211609200Y-69551594D01*
X211898659Y-69870122D01*
X211900583Y-69872341D01*
X212174214Y-70203197D01*
X212176045Y-70205521D01*
X212426179Y-70538749D01*
X212433138Y-70548019D01*
X212434885Y-70550466D01*
X212674733Y-70903934D01*
X212676385Y-70906500D01*
X212898268Y-71270229D01*
X212899819Y-71272918D01*
X213103011Y-71646201D01*
X213104452Y-71649015D01*
X213288240Y-72031146D01*
X213289563Y-72034088D01*
X213295755Y-72048853D01*
X213450684Y-72418294D01*
X213453241Y-72424390D01*
X213454435Y-72427460D01*
X213597304Y-72825266D01*
X213598357Y-72828464D01*
X213719691Y-73233039D01*
X213720589Y-73236359D01*
X213819686Y-73647026D01*
X213820415Y-73650462D01*
X213896573Y-74066555D01*
X213897117Y-74070097D01*
X213897131Y-74070207D01*
X213949632Y-74490963D01*
X213949978Y-74494579D01*
X213978131Y-74919459D01*
X213978267Y-74923171D01*
X213981451Y-75364215D01*
X213981451Y-77071921D01*
X213981292Y-77076395D01*
X213971256Y-77217412D01*
X213956228Y-77360398D01*
X213936427Y-77502798D01*
X213936196Y-77504134D01*
X213911910Y-77644462D01*
X213882709Y-77785347D01*
X213848887Y-77925248D01*
X213810495Y-78064037D01*
X213767580Y-78201603D01*
X213720185Y-78337832D01*
X213668359Y-78472590D01*
X213612160Y-78605739D01*
X213551622Y-78737175D01*
X213486830Y-78866697D01*
X213417798Y-78994252D01*
X213344574Y-79119710D01*
X213268291Y-79241209D01*
X213266224Y-79244296D01*
X213014254Y-79597532D01*
X213011504Y-79600822D01*
X213008278Y-79605775D01*
X213008278Y-79605776D01*
X213007273Y-79607319D01*
X213006179Y-79608854D01*
X213002757Y-79613655D01*
X213000691Y-79617434D01*
X212767318Y-79976072D01*
X212765333Y-79978721D01*
X212764613Y-79979998D01*
X212762559Y-79983384D01*
X212761741Y-79984640D01*
X212760306Y-79987633D01*
X212330111Y-80750069D01*
X212328055Y-80753274D01*
X212328049Y-80753290D01*
X212325691Y-80757907D01*
X212325676Y-80757933D01*
X212324286Y-80761468D01*
X211960120Y-81553569D01*
X211958347Y-81556905D01*
X211958302Y-81557029D01*
X211956367Y-81561731D01*
X211956305Y-81561865D01*
X211955216Y-81565483D01*
X211657289Y-82381941D01*
X211655811Y-82385362D01*
X211655744Y-82385606D01*
X211654235Y-82390316D01*
X211654141Y-82390571D01*
X211653354Y-82394228D01*
X211421662Y-83230134D01*
X211420460Y-83233654D01*
X211420392Y-83234003D01*
X211419279Y-83238730D01*
X211419181Y-83239081D01*
X211418689Y-83242756D01*
X211253205Y-84093269D01*
X211252288Y-84096837D01*
X211252240Y-84097252D01*
X211251505Y-84102007D01*
X211251422Y-84102434D01*
X211251216Y-84106120D01*
X211151931Y-84966359D01*
X211151292Y-84969976D01*
X211151274Y-84970457D01*
X211150910Y-84975201D01*
X211150853Y-84975692D01*
X211150933Y-84979374D01*
X211117835Y-85844483D01*
X211117478Y-85848125D01*
X211117496Y-85848596D01*
X211117496Y-85853374D01*
X211117477Y-85853855D01*
X211117835Y-85857497D01*
X211150926Y-86722622D01*
X211150848Y-86726279D01*
X211150900Y-86726727D01*
X211151268Y-86731522D01*
X211151286Y-86731994D01*
X211151925Y-86735619D01*
X211220039Y-87325811D01*
X211251206Y-87595861D01*
X211251412Y-87599551D01*
X211251490Y-87599952D01*
X211252230Y-87604732D01*
X211252279Y-87605159D01*
X211253195Y-87608719D01*
X211418675Y-88459238D01*
X211419167Y-88462903D01*
X211419257Y-88463229D01*
X211420376Y-88467981D01*
X211420446Y-88468343D01*
X211421649Y-88471862D01*
X211653338Y-89307782D01*
X211654124Y-89311430D01*
X211654211Y-89311669D01*
X211655734Y-89316423D01*
X211655803Y-89316672D01*
X211657287Y-89320101D01*
X211687549Y-89403035D01*
X211955194Y-90136526D01*
X211956282Y-90140141D01*
X211956341Y-90140269D01*
X211958275Y-90144970D01*
X211958332Y-90145127D01*
X211960113Y-90148476D01*
X212324270Y-90940566D01*
X212325667Y-90944117D01*
X212328035Y-90948752D01*
X212328039Y-90948762D01*
X212330096Y-90951967D01*
X212718173Y-91639768D01*
X212760304Y-91714438D01*
X212761741Y-91717431D01*
X212762556Y-91718684D01*
X212764606Y-91722063D01*
X212765348Y-91723377D01*
X212767328Y-91726017D01*
X213000678Y-92084626D01*
X213002757Y-92088430D01*
X213007267Y-92094752D01*
X213011526Y-92101298D01*
X213014301Y-92104612D01*
X213265251Y-92456424D01*
X213268563Y-92461581D01*
X213405253Y-92699034D01*
X213411631Y-92710114D01*
X213481068Y-92838027D01*
X213547985Y-92967481D01*
X213611888Y-93098398D01*
X213672307Y-93230758D01*
X213728797Y-93364587D01*
X213780843Y-93499758D01*
X213821986Y-93618889D01*
X213827987Y-93636265D01*
X213869771Y-93774115D01*
X213905358Y-93911870D01*
X213906003Y-93914615D01*
X213935032Y-94052125D01*
X213935586Y-94055099D01*
X213957952Y-94193650D01*
X213958384Y-94196844D01*
X213973640Y-94336377D01*
X213973918Y-94339771D01*
X213981633Y-94480300D01*
X213981727Y-94483875D01*
X213981478Y-94613368D01*
X213981436Y-94613803D01*
X213981436Y-103196617D01*
X213981277Y-103201091D01*
X213971240Y-103342109D01*
X213956212Y-103485102D01*
X213936411Y-103627507D01*
X213911893Y-103769172D01*
X213882692Y-103910051D01*
X213848867Y-104049959D01*
X213810473Y-104188748D01*
X213775256Y-104301637D01*
X213767560Y-104326305D01*
X213720160Y-104462544D01*
X213668336Y-104597302D01*
X213612118Y-104730487D01*
X213567381Y-104827613D01*
X213551606Y-104861861D01*
X213486789Y-104991433D01*
X213417768Y-105118963D01*
X213344536Y-105244433D01*
X213268269Y-105365906D01*
X213266202Y-105368992D01*
X213014203Y-105722274D01*
X213011451Y-105725567D01*
X213008249Y-105730486D01*
X213007334Y-105731892D01*
X213007240Y-105732036D01*
X213002745Y-105738341D01*
X213000684Y-105742109D01*
X212767292Y-106100783D01*
X212765320Y-106103415D01*
X212764587Y-106104714D01*
X212762547Y-106108078D01*
X212761704Y-106109374D01*
X212760273Y-106112357D01*
X212330092Y-106874778D01*
X212328033Y-106877988D01*
X212328027Y-106878003D01*
X212325669Y-106882620D01*
X212325656Y-106882641D01*
X212324265Y-106886180D01*
X211960100Y-107678282D01*
X211958327Y-107681618D01*
X211958282Y-107681742D01*
X211956347Y-107686444D01*
X211956287Y-107686574D01*
X211955197Y-107690196D01*
X211657281Y-108506628D01*
X211655801Y-108510052D01*
X211655729Y-108510312D01*
X211654216Y-108515031D01*
X211654126Y-108515278D01*
X211653339Y-108518931D01*
X211515479Y-109016314D01*
X211421648Y-109354845D01*
X211420446Y-109358365D01*
X211420378Y-109358714D01*
X211419265Y-109363441D01*
X211419167Y-109363792D01*
X211418675Y-109367467D01*
X211253192Y-110217978D01*
X211252275Y-110221546D01*
X211252227Y-110221961D01*
X211251492Y-110226716D01*
X211251409Y-110227142D01*
X211251203Y-110230830D01*
X211151920Y-111091063D01*
X211151281Y-111094681D01*
X211151263Y-111095164D01*
X211150899Y-111099908D01*
X211150842Y-111100399D01*
X211150922Y-111104081D01*
X211117825Y-111969190D01*
X211117468Y-111972832D01*
X211117486Y-111973303D01*
X211117486Y-111978081D01*
X211117467Y-111978562D01*
X211117825Y-111982204D01*
X211150915Y-112847327D01*
X211150837Y-112850984D01*
X211150889Y-112851432D01*
X211151257Y-112856227D01*
X211151275Y-112856699D01*
X211151914Y-112860324D01*
X211243206Y-113651350D01*
X211251195Y-113720566D01*
X211251401Y-113724256D01*
X211251479Y-113724657D01*
X211252219Y-113729437D01*
X211252267Y-113729859D01*
X211253185Y-113733425D01*
X211316522Y-114058961D01*
X211387502Y-114423787D01*
X211418662Y-114583939D01*
X211419155Y-114587615D01*
X211419244Y-114587935D01*
X211420367Y-114592701D01*
X211420438Y-114593065D01*
X211421641Y-114596583D01*
X211653318Y-115432471D01*
X211654107Y-115436135D01*
X211654199Y-115436386D01*
X211655710Y-115441099D01*
X211655786Y-115441374D01*
X211657269Y-115444802D01*
X211803061Y-115844349D01*
X211954438Y-116259206D01*
X211955177Y-116261229D01*
X211956271Y-116264865D01*
X211956328Y-116264989D01*
X211958265Y-116269695D01*
X211958314Y-116269829D01*
X211960086Y-116273162D01*
X212324254Y-117065285D01*
X212325645Y-117068823D01*
X212325653Y-117068838D01*
X212328013Y-117073458D01*
X212328023Y-117073481D01*
X212330083Y-117076691D01*
X212760265Y-117839132D01*
X212761696Y-117842116D01*
X212762521Y-117843384D01*
X212764582Y-117846781D01*
X212765321Y-117848091D01*
X212767297Y-117850726D01*
X213000706Y-118209435D01*
X213002777Y-118213217D01*
X213006144Y-118217937D01*
X213006145Y-118217938D01*
X213007226Y-118219453D01*
X213008220Y-118220981D01*
X213011459Y-118225961D01*
X213014234Y-118229279D01*
X213059107Y-118292189D01*
X213258269Y-118571405D01*
X213266334Y-118582711D01*
X213268180Y-118585449D01*
X213345486Y-118706806D01*
X213419235Y-118831971D01*
X213488524Y-118959386D01*
X213553320Y-119088848D01*
X213613651Y-119220272D01*
X213669505Y-119353495D01*
X213720883Y-119488380D01*
X213767777Y-119624769D01*
X213807770Y-119754665D01*
X213810191Y-119762526D01*
X213848112Y-119901472D01*
X213881560Y-120041544D01*
X213910512Y-120182507D01*
X213934983Y-120324288D01*
X213954962Y-120466692D01*
X213970454Y-120609625D01*
X213977595Y-120702641D01*
X213981251Y-120750249D01*
X213981436Y-120755074D01*
X213981436Y-122557578D01*
X213981375Y-122565957D01*
X213981375Y-122565959D01*
X213980616Y-122670953D01*
X213978250Y-122998467D01*
X213978114Y-123002179D01*
X213949963Y-123426995D01*
X213949617Y-123430610D01*
X213897109Y-123851436D01*
X213896567Y-123854961D01*
X213820423Y-124270988D01*
X213819695Y-124274424D01*
X213720604Y-124685079D01*
X213719707Y-124688398D01*
X213598393Y-125092935D01*
X213597340Y-125096131D01*
X213454502Y-125493888D01*
X213453308Y-125496959D01*
X213289637Y-125887275D01*
X213288314Y-125890217D01*
X213104536Y-126272364D01*
X213103095Y-126275178D01*
X212899936Y-126648435D01*
X212898386Y-126651123D01*
X212676534Y-127014842D01*
X212674883Y-127017407D01*
X212435080Y-127370847D01*
X212433334Y-127373293D01*
X212176240Y-127715836D01*
X212174403Y-127718167D01*
X211900807Y-128049019D01*
X211898883Y-128051238D01*
X211609446Y-128369776D01*
X211607452Y-128371870D01*
X211328440Y-128651767D01*
X211302930Y-128677358D01*
X211300846Y-128679354D01*
X211155442Y-128812380D01*
X210981922Y-128971127D01*
X210979744Y-128973029D01*
X210647236Y-129250311D01*
X210644973Y-129252112D01*
X210299474Y-129514318D01*
X210297125Y-129516017D01*
X209939482Y-129762360D01*
X209937044Y-129763957D01*
X209567899Y-129993806D01*
X209565371Y-129995300D01*
X209185486Y-130207936D01*
X209182865Y-130209324D01*
X208984820Y-130308239D01*
X208792941Y-130404074D01*
X208790235Y-130405346D01*
X208391046Y-130581501D01*
X208388238Y-130582660D01*
X208337252Y-130602277D01*
X207980451Y-130739555D01*
X207977542Y-130740593D01*
X207561910Y-130877533D01*
X207558906Y-130878441D01*
X207136121Y-130994748D01*
X207133024Y-130995516D01*
X206703850Y-131090498D01*
X206700663Y-131091118D01*
X206633085Y-131102459D01*
X206265761Y-131164102D01*
X206262529Y-131164558D01*
X206131682Y-131179521D01*
X205822667Y-131214856D01*
X205819322Y-131215148D01*
X205375194Y-131242081D01*
X205371785Y-131242195D01*
X205328025Y-131242476D01*
X204926694Y-131245061D01*
X192925427Y-131245061D01*
X192921354Y-131244929D01*
X192773784Y-131235372D01*
X192772200Y-131235220D01*
X192624475Y-131221046D01*
X192475762Y-131202141D01*
X192455952Y-131199003D01*
X192327780Y-131178700D01*
X192180697Y-131150780D01*
X192107655Y-131134601D01*
X192034614Y-131118422D01*
X191889658Y-131081670D01*
X191746010Y-131040584D01*
X191603744Y-130995196D01*
X191463022Y-130945560D01*
X191323988Y-130891726D01*
X191186794Y-130833751D01*
X191051519Y-130771661D01*
X190918354Y-130705527D01*
X190787381Y-130635372D01*
X190658714Y-130561230D01*
X190440270Y-130424607D01*
X189893042Y-130082350D01*
X189889968Y-130080172D01*
X189889828Y-130080100D01*
X189885435Y-130077594D01*
X189885302Y-130077511D01*
X189881851Y-130075969D01*
X189085370Y-129663610D01*
X189082166Y-129661704D01*
X189081864Y-129661577D01*
X189077407Y-129659488D01*
X189077114Y-129659336D01*
X189073611Y-129658096D01*
X188737084Y-129516131D01*
X188246584Y-129309211D01*
X188243301Y-129307588D01*
X188242829Y-129307430D01*
X188238338Y-129305733D01*
X188237900Y-129305548D01*
X188234374Y-129304598D01*
X187381878Y-129019164D01*
X187378553Y-129017820D01*
X187377921Y-129017659D01*
X187373477Y-129016352D01*
X187372834Y-129016136D01*
X187369286Y-129015462D01*
X186496462Y-128793479D01*
X186493076Y-128792390D01*
X186492273Y-128792247D01*
X186487868Y-128791294D01*
X186487097Y-128791098D01*
X186483561Y-128790691D01*
X185763071Y-128662060D01*
X185595440Y-128632133D01*
X185592028Y-128631302D01*
X185591162Y-128631210D01*
X185586781Y-128630588D01*
X185585907Y-128630432D01*
X185582379Y-128630279D01*
X184684080Y-128535147D01*
X184680619Y-128534558D01*
X184679712Y-128534527D01*
X184675303Y-128534217D01*
X184674388Y-128534120D01*
X184670862Y-128534216D01*
X184170291Y-128516644D01*
X183767492Y-128502504D01*
X183764002Y-128502160D01*
X183763046Y-128502194D01*
X183758650Y-128502194D01*
X183757708Y-128502161D01*
X183754223Y-128502503D01*
X182850816Y-128534210D01*
X182847321Y-128534114D01*
X182846397Y-128534212D01*
X182842027Y-128534520D01*
X182841069Y-128534554D01*
X182837605Y-128535142D01*
X181939324Y-128630266D01*
X181935796Y-128630418D01*
X181934912Y-128630576D01*
X181930526Y-128631199D01*
X181929642Y-128631292D01*
X181926216Y-128632128D01*
X181038119Y-128790676D01*
X181034571Y-128791084D01*
X181033798Y-128791281D01*
X181029381Y-128792236D01*
X181028614Y-128792373D01*
X181025227Y-128793460D01*
X180152385Y-129015443D01*
X180148839Y-129016116D01*
X180148184Y-129016336D01*
X180143764Y-129017636D01*
X180143121Y-129017799D01*
X180139783Y-129019148D01*
X179287274Y-129304579D01*
X179283742Y-129305530D01*
X179283267Y-129305731D01*
X179278840Y-129307404D01*
X179278355Y-129307566D01*
X179275071Y-129309189D01*
X178448014Y-129658079D01*
X178444515Y-129659318D01*
X178444216Y-129659473D01*
X178439787Y-129661550D01*
X178439467Y-129661685D01*
X178436262Y-129663590D01*
X177639728Y-130075968D01*
X177636287Y-130077506D01*
X177636173Y-130077578D01*
X177631790Y-130080078D01*
X177631651Y-130080149D01*
X177628552Y-130082344D01*
X176865307Y-130559696D01*
X176790065Y-130602292D01*
X176733777Y-130634157D01*
X176602503Y-130703629D01*
X176469135Y-130769414D01*
X176423180Y-130790466D01*
X176333784Y-130831418D01*
X176196565Y-130889542D01*
X176057595Y-130943688D01*
X175917033Y-130993747D01*
X175774950Y-131039636D01*
X175631462Y-131081258D01*
X175486736Y-131118505D01*
X175340821Y-131151296D01*
X175193899Y-131179521D01*
X175046054Y-131203092D01*
X174897371Y-131221915D01*
X174748029Y-131235886D01*
X174600108Y-131244794D01*
X174596325Y-131244908D01*
X169941806Y-131244908D01*
X169937734Y-131244776D01*
X169790167Y-131235220D01*
X169640864Y-131220895D01*
X169492149Y-131201988D01*
X169344166Y-131178548D01*
X169197086Y-131150628D01*
X169051002Y-131118269D01*
X168906048Y-131081518D01*
X168762397Y-131040432D01*
X168620113Y-130995038D01*
X168479408Y-130945407D01*
X168340371Y-130891573D01*
X168307145Y-130877533D01*
X168203176Y-130833599D01*
X168160626Y-130814068D01*
X168067925Y-130771519D01*
X167934731Y-130705374D01*
X167803755Y-130635218D01*
X167675289Y-130561194D01*
X166909449Y-130082209D01*
X166906355Y-130080017D01*
X166906237Y-130079956D01*
X166901775Y-130077411D01*
X166901701Y-130077364D01*
X166898256Y-130075824D01*
X166330560Y-129781914D01*
X166101760Y-129663458D01*
X166098556Y-129661552D01*
X166098254Y-129661425D01*
X166093797Y-129659336D01*
X166093504Y-129659184D01*
X166090001Y-129657944D01*
X166089984Y-129657937D01*
X166041831Y-129637623D01*
X165262976Y-129309058D01*
X165259695Y-129307436D01*
X165259220Y-129307277D01*
X165254729Y-129305580D01*
X165254291Y-129305395D01*
X165250765Y-129304445D01*
X164398271Y-129019012D01*
X164394940Y-129017666D01*
X164394308Y-129017505D01*
X164389848Y-129016192D01*
X164389232Y-129015986D01*
X164385674Y-129015309D01*
X163512854Y-128793326D01*
X163509467Y-128792237D01*
X163508666Y-128792094D01*
X163504261Y-128791141D01*
X163503490Y-128790945D01*
X163499954Y-128790538D01*
X162779464Y-128661907D01*
X162611833Y-128631980D01*
X162608421Y-128631149D01*
X162607555Y-128631057D01*
X162603174Y-128630435D01*
X162602300Y-128630279D01*
X162598773Y-128630126D01*
X162314475Y-128600018D01*
X161700466Y-128534993D01*
X161697011Y-128534405D01*
X161696106Y-128534374D01*
X161691697Y-128534064D01*
X161690782Y-128533967D01*
X161687256Y-128534063D01*
X161187276Y-128516512D01*
X160783887Y-128502352D01*
X160780397Y-128502008D01*
X160779440Y-128502042D01*
X160775045Y-128502042D01*
X160774101Y-128502009D01*
X160770614Y-128502351D01*
X159867212Y-128534057D01*
X159863717Y-128533961D01*
X159862792Y-128534059D01*
X159858422Y-128534367D01*
X159857464Y-128534401D01*
X159854000Y-128534989D01*
X158955719Y-128630114D01*
X158952191Y-128630266D01*
X158951307Y-128630424D01*
X158946921Y-128631047D01*
X158946037Y-128631140D01*
X158942611Y-128631976D01*
X158054514Y-128790524D01*
X158050966Y-128790932D01*
X158050193Y-128791129D01*
X158045776Y-128792084D01*
X158045009Y-128792221D01*
X158041622Y-128793308D01*
X157168781Y-129015291D01*
X157165235Y-129015964D01*
X157164580Y-129016184D01*
X157160160Y-129017484D01*
X157159517Y-129017647D01*
X157156179Y-129018996D01*
X156303670Y-129304427D01*
X156300138Y-129305378D01*
X156299663Y-129305579D01*
X156295236Y-129307252D01*
X156294751Y-129307414D01*
X156291467Y-129309037D01*
X155464387Y-129657937D01*
X155460892Y-129659176D01*
X155460583Y-129659336D01*
X155456190Y-129661396D01*
X155455848Y-129661540D01*
X155452656Y-129663438D01*
X154656123Y-130075815D01*
X154652682Y-130077353D01*
X154652568Y-130077425D01*
X154648185Y-130079925D01*
X154648046Y-130079996D01*
X154644947Y-130082191D01*
X154098756Y-130423792D01*
X153879188Y-130561115D01*
X153750165Y-130634157D01*
X153618891Y-130703629D01*
X153485523Y-130769414D01*
X153350173Y-130831418D01*
X153212954Y-130889542D01*
X153073985Y-130943689D01*
X152933423Y-130993747D01*
X152791341Y-131039636D01*
X152647853Y-131081258D01*
X152503127Y-131118505D01*
X152357212Y-131151296D01*
X152210290Y-131179521D01*
X152062445Y-131203092D01*
X151913761Y-131221915D01*
X151764419Y-131235886D01*
X151616497Y-131244794D01*
X151612713Y-131244908D01*
X146958186Y-131244908D01*
X146954114Y-131244776D01*
X146806547Y-131235220D01*
X146657244Y-131220895D01*
X146508529Y-131201988D01*
X146360547Y-131178548D01*
X146213466Y-131150628D01*
X146067383Y-131118269D01*
X145922435Y-131081520D01*
X145778778Y-131040432D01*
X145636494Y-130995038D01*
X145495790Y-130945407D01*
X145356753Y-130891573D01*
X145219558Y-130833599D01*
X145214806Y-130831418D01*
X145084294Y-130771514D01*
X144951128Y-130705381D01*
X144820139Y-130635218D01*
X144691533Y-130561113D01*
X143925811Y-130082203D01*
X143922721Y-130080013D01*
X143922610Y-130079956D01*
X143918148Y-130077411D01*
X143918074Y-130077364D01*
X143914629Y-130075824D01*
X143346933Y-129781914D01*
X143118133Y-129663458D01*
X143114929Y-129661552D01*
X143114627Y-129661425D01*
X143110170Y-129659336D01*
X143109877Y-129659184D01*
X143106374Y-129657944D01*
X143106357Y-129657937D01*
X143058204Y-129637623D01*
X142279349Y-129309058D01*
X142276068Y-129307436D01*
X142275593Y-129307277D01*
X142271102Y-129305580D01*
X142270664Y-129305395D01*
X142267138Y-129304445D01*
X141414645Y-129019012D01*
X141411314Y-129017666D01*
X141410682Y-129017505D01*
X141406222Y-129016192D01*
X141405606Y-129015986D01*
X141402048Y-129015309D01*
X140529228Y-128793326D01*
X140525841Y-128792237D01*
X140525040Y-128792094D01*
X140520635Y-128791141D01*
X140519864Y-128790945D01*
X140516328Y-128790538D01*
X139795838Y-128661907D01*
X139628207Y-128631980D01*
X139624795Y-128631149D01*
X139623929Y-128631057D01*
X139619548Y-128630435D01*
X139618674Y-128630279D01*
X139615147Y-128630126D01*
X139331300Y-128600066D01*
X138716841Y-128534993D01*
X138713386Y-128534405D01*
X138712481Y-128534374D01*
X138708072Y-128534064D01*
X138707157Y-128533967D01*
X138703631Y-128534063D01*
X138203651Y-128516512D01*
X137800262Y-128502352D01*
X137796772Y-128502008D01*
X137795815Y-128502042D01*
X137791420Y-128502042D01*
X137790476Y-128502009D01*
X137786989Y-128502351D01*
X136883588Y-128534057D01*
X136880093Y-128533961D01*
X136879168Y-128534059D01*
X136874798Y-128534367D01*
X136873840Y-128534401D01*
X136870376Y-128534989D01*
X135972095Y-128630114D01*
X135968567Y-128630266D01*
X135967683Y-128630424D01*
X135963297Y-128631047D01*
X135962413Y-128631140D01*
X135958987Y-128631976D01*
X135070891Y-128790524D01*
X135067343Y-128790932D01*
X135066570Y-128791129D01*
X135062153Y-128792084D01*
X135061386Y-128792221D01*
X135057999Y-128793308D01*
X134185158Y-129015291D01*
X134181612Y-129015964D01*
X134180957Y-129016184D01*
X134176537Y-129017484D01*
X134175894Y-129017647D01*
X134172556Y-129018996D01*
X133320048Y-129304427D01*
X133316517Y-129305378D01*
X133316041Y-129305579D01*
X133311614Y-129307252D01*
X133311129Y-129307414D01*
X133307845Y-129309037D01*
X132480770Y-129657935D01*
X132477265Y-129659177D01*
X132476975Y-129659328D01*
X132472524Y-129661415D01*
X132472235Y-129661536D01*
X132469045Y-129663433D01*
X131672503Y-130075815D01*
X131669062Y-130077353D01*
X131668948Y-130077425D01*
X131664565Y-130079925D01*
X131664426Y-130079996D01*
X131661327Y-130082191D01*
X131115136Y-130423792D01*
X130895568Y-130561115D01*
X130766545Y-130634157D01*
X130635270Y-130703629D01*
X130501904Y-130769414D01*
X130366522Y-130831430D01*
X130229331Y-130889542D01*
X130090361Y-130943688D01*
X129949799Y-130993747D01*
X129807716Y-131039636D01*
X129664228Y-131081258D01*
X129519501Y-131118505D01*
X129373586Y-131151296D01*
X129226663Y-131179521D01*
X129078818Y-131203092D01*
X128930134Y-131221915D01*
X128780791Y-131235886D01*
X128632869Y-131244794D01*
X128629085Y-131244908D01*
X123974559Y-131244908D01*
X123970487Y-131244776D01*
X123822920Y-131235220D01*
X123673617Y-131220895D01*
X123524902Y-131201988D01*
X123376920Y-131178548D01*
X123229839Y-131150628D01*
X123083756Y-131118269D01*
X122938808Y-131081520D01*
X122795152Y-131040432D01*
X122652867Y-130995038D01*
X122512163Y-130945407D01*
X122373127Y-130891573D01*
X122235933Y-130833599D01*
X122193379Y-130814067D01*
X122100669Y-130771514D01*
X121967503Y-130705381D01*
X121872600Y-130654547D01*
X121836515Y-130635218D01*
X121707948Y-130561135D01*
X120942222Y-130082224D01*
X120939117Y-130080022D01*
X120938981Y-130079952D01*
X120934545Y-130077422D01*
X120934459Y-130077368D01*
X120931018Y-130075829D01*
X120809183Y-130012752D01*
X120134512Y-129663458D01*
X120131308Y-129661552D01*
X120131006Y-129661425D01*
X120126549Y-129659336D01*
X120126256Y-129659184D01*
X120122753Y-129657944D01*
X120122736Y-129657937D01*
X120074583Y-129637623D01*
X119295728Y-129309058D01*
X119292447Y-129307436D01*
X119291972Y-129307277D01*
X119287481Y-129305580D01*
X119287043Y-129305395D01*
X119283517Y-129304445D01*
X118431022Y-129019012D01*
X118427697Y-129017668D01*
X118427065Y-129017507D01*
X118422621Y-129016200D01*
X118421978Y-129015985D01*
X118418429Y-129015310D01*
X117545605Y-128793326D01*
X117542217Y-128792237D01*
X117541417Y-128792094D01*
X117537012Y-128791141D01*
X117536241Y-128790945D01*
X117532705Y-128790538D01*
X116755487Y-128651780D01*
X116644585Y-128631980D01*
X116641173Y-128631149D01*
X116640307Y-128631057D01*
X116635926Y-128630435D01*
X116635052Y-128630279D01*
X116631525Y-128630126D01*
X116347227Y-128600018D01*
X115733218Y-128534993D01*
X115729763Y-128534405D01*
X115728858Y-128534374D01*
X115724449Y-128534064D01*
X115723534Y-128533967D01*
X115720008Y-128534063D01*
X115220028Y-128516512D01*
X114816639Y-128502352D01*
X114813149Y-128502008D01*
X114812192Y-128502042D01*
X114807797Y-128502042D01*
X114806853Y-128502009D01*
X114803366Y-128502351D01*
X113899964Y-128534057D01*
X113896469Y-128533961D01*
X113895544Y-128534059D01*
X113891174Y-128534367D01*
X113890216Y-128534401D01*
X113886752Y-128534989D01*
X112988471Y-128630114D01*
X112984943Y-128630266D01*
X112984059Y-128630424D01*
X112979673Y-128631047D01*
X112978789Y-128631140D01*
X112975363Y-128631976D01*
X112087267Y-128790524D01*
X112083719Y-128790932D01*
X112082946Y-128791129D01*
X112078529Y-128792084D01*
X112077762Y-128792221D01*
X112074375Y-128793308D01*
X111201534Y-129015291D01*
X111197988Y-129015964D01*
X111197333Y-129016184D01*
X111192913Y-129017484D01*
X111192270Y-129017647D01*
X111188932Y-129018996D01*
X110336423Y-129304427D01*
X110332891Y-129305378D01*
X110332416Y-129305579D01*
X110327989Y-129307252D01*
X110327504Y-129307414D01*
X110324220Y-129309037D01*
X109497145Y-129657935D01*
X109493640Y-129659177D01*
X109493350Y-129659328D01*
X109488899Y-129661415D01*
X109488610Y-129661536D01*
X109485420Y-129663433D01*
X108688878Y-130075815D01*
X108685437Y-130077353D01*
X108685323Y-130077425D01*
X108680940Y-130079925D01*
X108680801Y-130079996D01*
X108677702Y-130082191D01*
X108130208Y-130424607D01*
X107911932Y-130561122D01*
X107782918Y-130634164D01*
X107651645Y-130703640D01*
X107518266Y-130769432D01*
X107382928Y-130831431D01*
X107245699Y-130889560D01*
X107106720Y-130943710D01*
X106966150Y-130993769D01*
X106824097Y-131039647D01*
X106680618Y-131081265D01*
X106535884Y-131118513D01*
X106389968Y-131151302D01*
X106243045Y-131179525D01*
X106095196Y-131203095D01*
X105946516Y-131221915D01*
X105797172Y-131235886D01*
X105649250Y-131244794D01*
X105645466Y-131244908D01*
X93643854Y-131244908D01*
X93508430Y-131244040D01*
X93199064Y-131242057D01*
X93195656Y-131241943D01*
X92751599Y-131215030D01*
X92748254Y-131214737D01*
X92308437Y-131164459D01*
X92305167Y-131163998D01*
X91870319Y-131091036D01*
X91867133Y-131090417D01*
X91826925Y-131081520D01*
X91805033Y-131076675D01*
X91438001Y-130995460D01*
X91434902Y-130994692D01*
X91133553Y-130911801D01*
X91012130Y-130878401D01*
X91009131Y-130877495D01*
X90593532Y-130740583D01*
X90590639Y-130739551D01*
X90182867Y-130582680D01*
X90180055Y-130581519D01*
X89930412Y-130471369D01*
X89780867Y-130405385D01*
X89778159Y-130404112D01*
X89388226Y-130209377D01*
X89385616Y-130207996D01*
X89161111Y-130082344D01*
X89005746Y-129995388D01*
X89003217Y-129993895D01*
X88634066Y-129764066D01*
X88631628Y-129762469D01*
X88273960Y-129516131D01*
X88271611Y-129514432D01*
X87926133Y-129252268D01*
X87923871Y-129250468D01*
X87591318Y-128973174D01*
X87589141Y-128971273D01*
X87286987Y-128694869D01*
X87270231Y-128679541D01*
X87268141Y-128677538D01*
X86963596Y-128372060D01*
X86961587Y-128369950D01*
X86961429Y-128369776D01*
X86672144Y-128051436D01*
X86670237Y-128049236D01*
X86396590Y-127718352D01*
X86394753Y-127716021D01*
X86137674Y-127373530D01*
X86135927Y-127371084D01*
X86108266Y-127330319D01*
X85896060Y-127017588D01*
X85894438Y-127015068D01*
X85679225Y-126662265D01*
X85672555Y-126651330D01*
X85671004Y-126648641D01*
X85473158Y-126285182D01*
X85467792Y-126275324D01*
X85466359Y-126272524D01*
X85466282Y-126272364D01*
X85282548Y-125890346D01*
X85281248Y-125887455D01*
X85120918Y-125505144D01*
X85117561Y-125497138D01*
X85116371Y-125494078D01*
X85116303Y-125493888D01*
X84973491Y-125096255D01*
X84972445Y-125093076D01*
X84851102Y-124688496D01*
X84850205Y-124685177D01*
X84752206Y-124279107D01*
X84751087Y-124274468D01*
X84750367Y-124271073D01*
X84674192Y-123854954D01*
X84673656Y-123851470D01*
X84621126Y-123430589D01*
X84620780Y-123426960D01*
X84592609Y-123002085D01*
X84592473Y-122998373D01*
X84589353Y-122568423D01*
X84589353Y-120754689D01*
X84589511Y-120750234D01*
X84599559Y-120609207D01*
X84614597Y-120466212D01*
X84634405Y-120323799D01*
X84635214Y-120319129D01*
X84658926Y-120182137D01*
X84688128Y-120041255D01*
X84721950Y-119901352D01*
X84760341Y-119762562D01*
X84762810Y-119754646D01*
X84803256Y-119624988D01*
X84850648Y-119488758D01*
X84902468Y-119354000D01*
X84958665Y-119220851D01*
X85019174Y-119089465D01*
X85046466Y-119034903D01*
X85083981Y-118959905D01*
X85090965Y-118947000D01*
X104529444Y-118947000D01*
X104546832Y-119156844D01*
X104548037Y-119171375D01*
X104603302Y-119389612D01*
X104603303Y-119389613D01*
X104603304Y-119389616D01*
X104693740Y-119595791D01*
X104693741Y-119595793D01*
X104816875Y-119784265D01*
X104816879Y-119784270D01*
X104969362Y-119949908D01*
X104980075Y-119958246D01*
X105147024Y-120088189D01*
X105345026Y-120195342D01*
X105345027Y-120195342D01*
X105345028Y-120195343D01*
X105419879Y-120221039D01*
X105557965Y-120268444D01*
X105780031Y-120305500D01*
X105780035Y-120305500D01*
X106005165Y-120305500D01*
X106005169Y-120305500D01*
X106227235Y-120268444D01*
X106440174Y-120195342D01*
X106638176Y-120088189D01*
X106815840Y-119949906D01*
X106968322Y-119784268D01*
X106968527Y-119783955D01*
X106985164Y-119758489D01*
X107057118Y-119648354D01*
X107111120Y-119602268D01*
X107181468Y-119592692D01*
X107245825Y-119622669D01*
X107268080Y-119648353D01*
X107282223Y-119670000D01*
X107356875Y-119784265D01*
X107356879Y-119784270D01*
X107509362Y-119949908D01*
X107520075Y-119958246D01*
X107687024Y-120088189D01*
X107885026Y-120195342D01*
X107885027Y-120195342D01*
X107885028Y-120195343D01*
X107959879Y-120221039D01*
X108097965Y-120268444D01*
X108320031Y-120305500D01*
X108320035Y-120305500D01*
X108545165Y-120305500D01*
X108545169Y-120305500D01*
X108767235Y-120268444D01*
X108980174Y-120195342D01*
X109178176Y-120088189D01*
X109355840Y-119949906D01*
X109508322Y-119784268D01*
X109508527Y-119783955D01*
X109525164Y-119758489D01*
X109597118Y-119648354D01*
X109651120Y-119602268D01*
X109721468Y-119592692D01*
X109785825Y-119622669D01*
X109808080Y-119648353D01*
X109822223Y-119670000D01*
X109896875Y-119784265D01*
X109896879Y-119784270D01*
X110049362Y-119949908D01*
X110060075Y-119958246D01*
X110227024Y-120088189D01*
X110425026Y-120195342D01*
X110425027Y-120195342D01*
X110425028Y-120195343D01*
X110499879Y-120221039D01*
X110637965Y-120268444D01*
X110860031Y-120305500D01*
X110860035Y-120305500D01*
X111085165Y-120305500D01*
X111085169Y-120305500D01*
X111307235Y-120268444D01*
X111520174Y-120195342D01*
X111718176Y-120088189D01*
X111895840Y-119949906D01*
X112048322Y-119784268D01*
X112048527Y-119783955D01*
X112065164Y-119758489D01*
X112137118Y-119648354D01*
X112191120Y-119602268D01*
X112261468Y-119592692D01*
X112325825Y-119622669D01*
X112348080Y-119648353D01*
X112362223Y-119670000D01*
X112436875Y-119784265D01*
X112436879Y-119784270D01*
X112589362Y-119949908D01*
X112600075Y-119958246D01*
X112767024Y-120088189D01*
X112965026Y-120195342D01*
X112965027Y-120195342D01*
X112965028Y-120195343D01*
X113039879Y-120221039D01*
X113177965Y-120268444D01*
X113400031Y-120305500D01*
X113400035Y-120305500D01*
X113625165Y-120305500D01*
X113625169Y-120305500D01*
X113847235Y-120268444D01*
X114060174Y-120195342D01*
X114258176Y-120088189D01*
X114435840Y-119949906D01*
X114588322Y-119784268D01*
X114588527Y-119783955D01*
X114605164Y-119758489D01*
X114677118Y-119648354D01*
X114731120Y-119602268D01*
X114801468Y-119592692D01*
X114865825Y-119622669D01*
X114888080Y-119648353D01*
X114902223Y-119670000D01*
X114976875Y-119784265D01*
X114976879Y-119784270D01*
X115129362Y-119949908D01*
X115140075Y-119958246D01*
X115307024Y-120088189D01*
X115505026Y-120195342D01*
X115505027Y-120195342D01*
X115505028Y-120195343D01*
X115579879Y-120221039D01*
X115717965Y-120268444D01*
X115940031Y-120305500D01*
X115940035Y-120305500D01*
X116165165Y-120305500D01*
X116165169Y-120305500D01*
X116387235Y-120268444D01*
X116600174Y-120195342D01*
X116798176Y-120088189D01*
X116975840Y-119949906D01*
X117128322Y-119784268D01*
X117128527Y-119783955D01*
X117145164Y-119758489D01*
X117217118Y-119648354D01*
X117271120Y-119602268D01*
X117341468Y-119592692D01*
X117405825Y-119622669D01*
X117428080Y-119648353D01*
X117442223Y-119670000D01*
X117516875Y-119784265D01*
X117516879Y-119784270D01*
X117669362Y-119949908D01*
X117680075Y-119958246D01*
X117847024Y-120088189D01*
X118045026Y-120195342D01*
X118045027Y-120195342D01*
X118045028Y-120195343D01*
X118119879Y-120221039D01*
X118257965Y-120268444D01*
X118480031Y-120305500D01*
X118480035Y-120305500D01*
X118705165Y-120305500D01*
X118705169Y-120305500D01*
X118927235Y-120268444D01*
X119140174Y-120195342D01*
X119338176Y-120088189D01*
X119515840Y-119949906D01*
X119668322Y-119784268D01*
X119668527Y-119783955D01*
X119685164Y-119758489D01*
X119757118Y-119648354D01*
X119811120Y-119602268D01*
X119881468Y-119592692D01*
X119945825Y-119622669D01*
X119968080Y-119648353D01*
X119982223Y-119670000D01*
X120056875Y-119784265D01*
X120056879Y-119784270D01*
X120209362Y-119949908D01*
X120220075Y-119958246D01*
X120387024Y-120088189D01*
X120585026Y-120195342D01*
X120585027Y-120195342D01*
X120585028Y-120195343D01*
X120659879Y-120221039D01*
X120797965Y-120268444D01*
X121020031Y-120305500D01*
X121020035Y-120305500D01*
X121245165Y-120305500D01*
X121245169Y-120305500D01*
X121467235Y-120268444D01*
X121680174Y-120195342D01*
X121878176Y-120088189D01*
X122055840Y-119949906D01*
X122208322Y-119784268D01*
X122208527Y-119783955D01*
X122225164Y-119758489D01*
X122297118Y-119648354D01*
X122351120Y-119602268D01*
X122421468Y-119592692D01*
X122485825Y-119622669D01*
X122508080Y-119648353D01*
X122522223Y-119670000D01*
X122596875Y-119784265D01*
X122596879Y-119784270D01*
X122749362Y-119949908D01*
X122760075Y-119958246D01*
X122927024Y-120088189D01*
X123125026Y-120195342D01*
X123125027Y-120195342D01*
X123125028Y-120195343D01*
X123199879Y-120221039D01*
X123337965Y-120268444D01*
X123560031Y-120305500D01*
X123560035Y-120305500D01*
X123785165Y-120305500D01*
X123785169Y-120305500D01*
X124007235Y-120268444D01*
X124220174Y-120195342D01*
X124418176Y-120088189D01*
X124595840Y-119949906D01*
X124748322Y-119784268D01*
X124748527Y-119783955D01*
X124765164Y-119758489D01*
X124837118Y-119648354D01*
X124891120Y-119602268D01*
X124961468Y-119592692D01*
X125025825Y-119622669D01*
X125048080Y-119648353D01*
X125062223Y-119670000D01*
X125136875Y-119784265D01*
X125136879Y-119784270D01*
X125289362Y-119949908D01*
X125300075Y-119958246D01*
X125467024Y-120088189D01*
X125665026Y-120195342D01*
X125665027Y-120195342D01*
X125665028Y-120195343D01*
X125739879Y-120221039D01*
X125877965Y-120268444D01*
X126100031Y-120305500D01*
X126100035Y-120305500D01*
X126325165Y-120305500D01*
X126325169Y-120305500D01*
X126547235Y-120268444D01*
X126760174Y-120195342D01*
X126958176Y-120088189D01*
X127135840Y-119949906D01*
X127288322Y-119784268D01*
X127288527Y-119783955D01*
X127305164Y-119758489D01*
X127377118Y-119648354D01*
X127431120Y-119602268D01*
X127501468Y-119592692D01*
X127565825Y-119622669D01*
X127588080Y-119648353D01*
X127602223Y-119670000D01*
X127676875Y-119784265D01*
X127676879Y-119784270D01*
X127829362Y-119949908D01*
X127840075Y-119958246D01*
X128007024Y-120088189D01*
X128205026Y-120195342D01*
X128205027Y-120195342D01*
X128205028Y-120195343D01*
X128279879Y-120221039D01*
X128417965Y-120268444D01*
X128640031Y-120305500D01*
X128640035Y-120305500D01*
X128865165Y-120305500D01*
X128865169Y-120305500D01*
X129087235Y-120268444D01*
X129300174Y-120195342D01*
X129498176Y-120088189D01*
X129675840Y-119949906D01*
X129828322Y-119784268D01*
X129828527Y-119783955D01*
X129845164Y-119758489D01*
X129917118Y-119648354D01*
X129971120Y-119602268D01*
X130041468Y-119592692D01*
X130105825Y-119622669D01*
X130128080Y-119648353D01*
X130142223Y-119670000D01*
X130216875Y-119784265D01*
X130216879Y-119784270D01*
X130369362Y-119949908D01*
X130380075Y-119958246D01*
X130547024Y-120088189D01*
X130745026Y-120195342D01*
X130745027Y-120195342D01*
X130745028Y-120195343D01*
X130819879Y-120221039D01*
X130957965Y-120268444D01*
X131180031Y-120305500D01*
X131180035Y-120305500D01*
X131405165Y-120305500D01*
X131405169Y-120305500D01*
X131627235Y-120268444D01*
X131840174Y-120195342D01*
X132038176Y-120088189D01*
X132215840Y-119949906D01*
X132368322Y-119784268D01*
X132368527Y-119783955D01*
X132385164Y-119758489D01*
X132457118Y-119648354D01*
X132511120Y-119602268D01*
X132581468Y-119592692D01*
X132645825Y-119622669D01*
X132668080Y-119648353D01*
X132682223Y-119670000D01*
X132756875Y-119784265D01*
X132756879Y-119784270D01*
X132909362Y-119949908D01*
X132920075Y-119958246D01*
X133087024Y-120088189D01*
X133285026Y-120195342D01*
X133285027Y-120195342D01*
X133285028Y-120195343D01*
X133359879Y-120221039D01*
X133497965Y-120268444D01*
X133720031Y-120305500D01*
X133720035Y-120305500D01*
X133945165Y-120305500D01*
X133945169Y-120305500D01*
X134167235Y-120268444D01*
X134380174Y-120195342D01*
X134578176Y-120088189D01*
X134755840Y-119949906D01*
X134908322Y-119784268D01*
X134908527Y-119783955D01*
X134982977Y-119670000D01*
X134997416Y-119647898D01*
X135051419Y-119601810D01*
X135121767Y-119592235D01*
X135186124Y-119622212D01*
X135208382Y-119647898D01*
X135297274Y-119783958D01*
X135449697Y-119949534D01*
X135627298Y-120087767D01*
X135627299Y-120087768D01*
X135825228Y-120194882D01*
X135825230Y-120194883D01*
X136038083Y-120267955D01*
X136038092Y-120267957D01*
X136118600Y-120281391D01*
X136118600Y-119380674D01*
X136230285Y-119431680D01*
X136336837Y-119447000D01*
X136408363Y-119447000D01*
X136514915Y-119431680D01*
X136626600Y-119380674D01*
X136626600Y-120281390D01*
X136707107Y-120267957D01*
X136707116Y-120267955D01*
X136919969Y-120194883D01*
X136919971Y-120194882D01*
X137117900Y-120087768D01*
X137117901Y-120087767D01*
X137295502Y-119949534D01*
X137447927Y-119783955D01*
X137537117Y-119647441D01*
X137591121Y-119601352D01*
X137661468Y-119591777D01*
X137725826Y-119621754D01*
X137748083Y-119647441D01*
X137837272Y-119783955D01*
X137989697Y-119949534D01*
X138167298Y-120087767D01*
X138167299Y-120087768D01*
X138365228Y-120194882D01*
X138365230Y-120194883D01*
X138578083Y-120267955D01*
X138578092Y-120267957D01*
X138658600Y-120281391D01*
X138658600Y-119380674D01*
X138770285Y-119431680D01*
X138876837Y-119447000D01*
X138948363Y-119447000D01*
X139054915Y-119431680D01*
X139166600Y-119380674D01*
X139166600Y-120281390D01*
X139247107Y-120267957D01*
X139247116Y-120267955D01*
X139459969Y-120194883D01*
X139459971Y-120194882D01*
X139657900Y-120087768D01*
X139657901Y-120087767D01*
X139835502Y-119949534D01*
X139987927Y-119783955D01*
X140077117Y-119647441D01*
X140131121Y-119601352D01*
X140201468Y-119591777D01*
X140265826Y-119621754D01*
X140288083Y-119647441D01*
X140377272Y-119783955D01*
X140529697Y-119949534D01*
X140707298Y-120087767D01*
X140707299Y-120087768D01*
X140905228Y-120194882D01*
X140905230Y-120194883D01*
X141118083Y-120267955D01*
X141118092Y-120267957D01*
X141198600Y-120281391D01*
X141198600Y-119380674D01*
X141310285Y-119431680D01*
X141416837Y-119447000D01*
X141488363Y-119447000D01*
X141594915Y-119431680D01*
X141706600Y-119380674D01*
X141706600Y-120281390D01*
X141787107Y-120267957D01*
X141787116Y-120267955D01*
X141999969Y-120194883D01*
X141999971Y-120194882D01*
X142197900Y-120087768D01*
X142197901Y-120087767D01*
X142375502Y-119949534D01*
X142527925Y-119783958D01*
X142602377Y-119670000D01*
X151532697Y-119670000D01*
X151551882Y-119938246D01*
X151609049Y-120201039D01*
X151703031Y-120453016D01*
X151703036Y-120453026D01*
X151831912Y-120689045D01*
X151831917Y-120689052D01*
X151831919Y-120689055D01*
X151993085Y-120904349D01*
X151993087Y-120904351D01*
X151993090Y-120904355D01*
X152183244Y-121094509D01*
X152183247Y-121094511D01*
X152183251Y-121094515D01*
X152398545Y-121255681D01*
X152398548Y-121255682D01*
X152398554Y-121255687D01*
X152634573Y-121384563D01*
X152634583Y-121384568D01*
X152886561Y-121478551D01*
X153149350Y-121535717D01*
X153417600Y-121554903D01*
X153685850Y-121535717D01*
X153948639Y-121478551D01*
X154200617Y-121384568D01*
X154232945Y-121366915D01*
X154436645Y-121255687D01*
X154436647Y-121255685D01*
X154436655Y-121255681D01*
X154651949Y-121094515D01*
X154842115Y-120904349D01*
X155003281Y-120689055D01*
X155003285Y-120689047D01*
X155003287Y-120689045D01*
X155132163Y-120453026D01*
X155132168Y-120453017D01*
X155226151Y-120201039D01*
X155283317Y-119938250D01*
X155302503Y-119670000D01*
X155283317Y-119401750D01*
X155226151Y-119138961D01*
X155132168Y-118886983D01*
X155132163Y-118886973D01*
X155003287Y-118650954D01*
X155003282Y-118650948D01*
X155003281Y-118650945D01*
X154842115Y-118435651D01*
X154842111Y-118435647D01*
X154842109Y-118435644D01*
X154651955Y-118245490D01*
X154651951Y-118245487D01*
X154651949Y-118245485D01*
X154436655Y-118084319D01*
X154436652Y-118084317D01*
X154436645Y-118084312D01*
X154200626Y-117955436D01*
X154200616Y-117955431D01*
X153948639Y-117861449D01*
X153685846Y-117804282D01*
X153417600Y-117785097D01*
X153149353Y-117804282D01*
X152886560Y-117861449D01*
X152634583Y-117955431D01*
X152634573Y-117955436D01*
X152398554Y-118084312D01*
X152183244Y-118245490D01*
X151993090Y-118435644D01*
X151831912Y-118650954D01*
X151703036Y-118886973D01*
X151703031Y-118886983D01*
X151609049Y-119138960D01*
X151551882Y-119401753D01*
X151532697Y-119670000D01*
X142602377Y-119670000D01*
X142651019Y-119595548D01*
X142741420Y-119389456D01*
X142741423Y-119389449D01*
X142789144Y-119201000D01*
X141883716Y-119201000D01*
X141912093Y-119156844D01*
X141952600Y-119018889D01*
X141952600Y-118875111D01*
X141912093Y-118737156D01*
X141883716Y-118693000D01*
X142789144Y-118693000D01*
X142789144Y-118692999D01*
X142741423Y-118504550D01*
X142741420Y-118504543D01*
X142651019Y-118298451D01*
X142527925Y-118110041D01*
X142384618Y-117954367D01*
X142353198Y-117890702D01*
X142361185Y-117820156D01*
X142406044Y-117765127D01*
X142433279Y-117750977D01*
X142548804Y-117707889D01*
X142665861Y-117620261D01*
X142753489Y-117503204D01*
X142804589Y-117366201D01*
X142806400Y-117349362D01*
X142811099Y-117305649D01*
X142811100Y-117305632D01*
X142811100Y-115673500D01*
X142831102Y-115605379D01*
X142884758Y-115558886D01*
X142937100Y-115547500D01*
X145289045Y-115547500D01*
X145357166Y-115567502D01*
X145403659Y-115621158D01*
X145413763Y-115691432D01*
X145384269Y-115756012D01*
X145378140Y-115762595D01*
X145245090Y-115895644D01*
X145083912Y-116110954D01*
X144955036Y-116346973D01*
X144955031Y-116346983D01*
X144861049Y-116598960D01*
X144803882Y-116861753D01*
X144784697Y-117130000D01*
X144803882Y-117398246D01*
X144861049Y-117661039D01*
X144955031Y-117913016D01*
X144955036Y-117913026D01*
X145083912Y-118149045D01*
X145083917Y-118149052D01*
X145083919Y-118149055D01*
X145245085Y-118364349D01*
X145245087Y-118364351D01*
X145245090Y-118364355D01*
X145435244Y-118554509D01*
X145435247Y-118554511D01*
X145435251Y-118554515D01*
X145650545Y-118715681D01*
X145650548Y-118715682D01*
X145650554Y-118715687D01*
X145886573Y-118844563D01*
X145886583Y-118844568D01*
X146138561Y-118938551D01*
X146401350Y-118995717D01*
X146669600Y-119014903D01*
X146937850Y-118995717D01*
X147200639Y-118938551D01*
X147452617Y-118844568D01*
X147495289Y-118821267D01*
X147688645Y-118715687D01*
X147688647Y-118715685D01*
X147688655Y-118715681D01*
X147903949Y-118554515D01*
X148094115Y-118364349D01*
X148255281Y-118149055D01*
X148255285Y-118149047D01*
X148255287Y-118149045D01*
X148384163Y-117913026D01*
X148384168Y-117913017D01*
X148478151Y-117661039D01*
X148535317Y-117398250D01*
X148554503Y-117130000D01*
X148535317Y-116861750D01*
X148478151Y-116598961D01*
X148384168Y-116346983D01*
X148384163Y-116346973D01*
X148255287Y-116110954D01*
X148255282Y-116110948D01*
X148255281Y-116110945D01*
X148094115Y-115895651D01*
X148094111Y-115895647D01*
X148094109Y-115895644D01*
X147961060Y-115762595D01*
X147927034Y-115700283D01*
X147932099Y-115629468D01*
X147974646Y-115572632D01*
X148041166Y-115547821D01*
X148050155Y-115547500D01*
X150887406Y-115547500D01*
X150955527Y-115567502D01*
X150976501Y-115584405D01*
X152155755Y-116763660D01*
X152165720Y-116776097D01*
X152165947Y-116775910D01*
X152170999Y-116782017D01*
X152222079Y-116829984D01*
X152243223Y-116851129D01*
X152243227Y-116851132D01*
X152243230Y-116851135D01*
X152248782Y-116855442D01*
X152253269Y-116859273D01*
X152275959Y-116880581D01*
X152287677Y-116891585D01*
X152287679Y-116891586D01*
X152305428Y-116901343D01*
X152321953Y-116912198D01*
X152337959Y-116924614D01*
X152379686Y-116942670D01*
X152381262Y-116943352D01*
X152386583Y-116945958D01*
X152427940Y-116968695D01*
X152427948Y-116968697D01*
X152447558Y-116973732D01*
X152466267Y-116980137D01*
X152484855Y-116988181D01*
X152531477Y-116995564D01*
X152537262Y-116996763D01*
X152582970Y-117008500D01*
X152603224Y-117008500D01*
X152622934Y-117010051D01*
X152625141Y-117010400D01*
X152642943Y-117013220D01*
X152676870Y-117010012D01*
X152689917Y-117008780D01*
X152695850Y-117008500D01*
X196011206Y-117008500D01*
X196079327Y-117028502D01*
X196111756Y-117058568D01*
X196200234Y-117175733D01*
X196316677Y-117281885D01*
X196353543Y-117342559D01*
X196351754Y-117413534D01*
X196316677Y-117468115D01*
X196200234Y-117574266D01*
X196068058Y-117749297D01*
X195970291Y-117945639D01*
X195970288Y-117945646D01*
X195910267Y-118156602D01*
X195910267Y-118156606D01*
X195890030Y-118374995D01*
X195890030Y-118375004D01*
X195910267Y-118593393D01*
X195910267Y-118593397D01*
X195970288Y-118804353D01*
X195970290Y-118804358D01*
X195970291Y-118804361D01*
X196068057Y-119000701D01*
X196068058Y-119000702D01*
X196200234Y-119175733D01*
X196242339Y-119214116D01*
X196317049Y-119282222D01*
X196353915Y-119342895D01*
X196352127Y-119413869D01*
X196317049Y-119468452D01*
X196200605Y-119574604D01*
X196068485Y-119749561D01*
X195970760Y-119945820D01*
X195970758Y-119945825D01*
X195920917Y-120121000D01*
X196766914Y-120121000D01*
X196750959Y-120136955D01*
X196693435Y-120249852D01*
X196673614Y-120375000D01*
X196693435Y-120500148D01*
X196750959Y-120613045D01*
X196766914Y-120629000D01*
X195920917Y-120629000D01*
X195970758Y-120804174D01*
X195970760Y-120804179D01*
X196068485Y-121000438D01*
X196200605Y-121175395D01*
X196362626Y-121323097D01*
X196549033Y-121438514D01*
X196753468Y-121517713D01*
X196824600Y-121531009D01*
X196824600Y-120686686D01*
X196840555Y-120702641D01*
X196953452Y-120760165D01*
X197047119Y-120775000D01*
X197110081Y-120775000D01*
X197203748Y-120760165D01*
X197316645Y-120702641D01*
X197332600Y-120686686D01*
X197332600Y-121531009D01*
X197403731Y-121517713D01*
X197608165Y-121438514D01*
X197608167Y-121438514D01*
X197794573Y-121323097D01*
X197956594Y-121175395D01*
X198088714Y-121000438D01*
X198186439Y-120804179D01*
X198186441Y-120804174D01*
X198236283Y-120629000D01*
X197390286Y-120629000D01*
X197406241Y-120613045D01*
X197463765Y-120500148D01*
X197483586Y-120375000D01*
X197463765Y-120249852D01*
X197406241Y-120136955D01*
X197390286Y-120121000D01*
X198236283Y-120121000D01*
X198186441Y-119945825D01*
X198186439Y-119945820D01*
X198088714Y-119749561D01*
X198043736Y-119690000D01*
X199292697Y-119690000D01*
X199311882Y-119958246D01*
X199369049Y-120221039D01*
X199463031Y-120473016D01*
X199463036Y-120473026D01*
X199591912Y-120709045D01*
X199591917Y-120709052D01*
X199591919Y-120709055D01*
X199753085Y-120924349D01*
X199753087Y-120924351D01*
X199753090Y-120924355D01*
X199943244Y-121114509D01*
X199943247Y-121114511D01*
X199943251Y-121114515D01*
X200158545Y-121275681D01*
X200158548Y-121275682D01*
X200158554Y-121275687D01*
X200394573Y-121404563D01*
X200394583Y-121404568D01*
X200646561Y-121498551D01*
X200909350Y-121555717D01*
X201177600Y-121574903D01*
X201445850Y-121555717D01*
X201708639Y-121498551D01*
X201960617Y-121404568D01*
X201997253Y-121384563D01*
X202196645Y-121275687D01*
X202196647Y-121275685D01*
X202196655Y-121275681D01*
X202411949Y-121114515D01*
X202602115Y-120924349D01*
X202763281Y-120709055D01*
X202763285Y-120709047D01*
X202763287Y-120709045D01*
X202892163Y-120473026D01*
X202892168Y-120473017D01*
X202986151Y-120221039D01*
X203043317Y-119958250D01*
X203062503Y-119690000D01*
X203043317Y-119421750D01*
X202986151Y-119158961D01*
X202892168Y-118906983D01*
X202892163Y-118906973D01*
X202763287Y-118670954D01*
X202763282Y-118670948D01*
X202763281Y-118670945D01*
X202602115Y-118455651D01*
X202602111Y-118455647D01*
X202602109Y-118455644D01*
X202411955Y-118265490D01*
X202411951Y-118265487D01*
X202411949Y-118265485D01*
X202196655Y-118104319D01*
X202196652Y-118104317D01*
X202196645Y-118104312D01*
X201960626Y-117975436D01*
X201960616Y-117975431D01*
X201708639Y-117881449D01*
X201445846Y-117824282D01*
X201177600Y-117805097D01*
X200909353Y-117824282D01*
X200646560Y-117881449D01*
X200394583Y-117975431D01*
X200394573Y-117975436D01*
X200158554Y-118104312D01*
X199943244Y-118265490D01*
X199753090Y-118455644D01*
X199591912Y-118670954D01*
X199463036Y-118906973D01*
X199463031Y-118906983D01*
X199369049Y-119158960D01*
X199311882Y-119421753D01*
X199292697Y-119690000D01*
X198043736Y-119690000D01*
X197956594Y-119574604D01*
X197840151Y-119468452D01*
X197803285Y-119407777D01*
X197805074Y-119336803D01*
X197840152Y-119282222D01*
X197856184Y-119267606D01*
X197956964Y-119175734D01*
X197956969Y-119175727D01*
X197957989Y-119174610D01*
X197958614Y-119174230D01*
X197961269Y-119171810D01*
X197961742Y-119172329D01*
X198018665Y-119137746D01*
X198051100Y-119133500D01*
X198481089Y-119133500D01*
X198484753Y-119133607D01*
X198549398Y-119137372D01*
X198549399Y-119137371D01*
X198549403Y-119137372D01*
X198613208Y-119126120D01*
X198616788Y-119125596D01*
X198681113Y-119118079D01*
X198691701Y-119114224D01*
X198712921Y-119108538D01*
X198724021Y-119106582D01*
X198783486Y-119080930D01*
X198786860Y-119079589D01*
X198847732Y-119057435D01*
X198857153Y-119051237D01*
X198876488Y-119040813D01*
X198886832Y-119036352D01*
X198938808Y-118997656D01*
X198941744Y-118995601D01*
X198995874Y-118960001D01*
X199003612Y-118951798D01*
X199020010Y-118937203D01*
X199029058Y-118930469D01*
X199070690Y-118880852D01*
X199073100Y-118878144D01*
X199117553Y-118831029D01*
X199123190Y-118821263D01*
X199135786Y-118803273D01*
X199143032Y-118794640D01*
X199172097Y-118736762D01*
X199173803Y-118733598D01*
X199206209Y-118677472D01*
X199209440Y-118666677D01*
X199217555Y-118646250D01*
X199222609Y-118636188D01*
X199237545Y-118573162D01*
X199238476Y-118569685D01*
X199257062Y-118507609D01*
X199257717Y-118496354D01*
X199260901Y-118474620D01*
X199263500Y-118463656D01*
X199263500Y-118398911D01*
X199263607Y-118395247D01*
X199267372Y-118330597D01*
X199267371Y-118330592D01*
X199265414Y-118319490D01*
X199263500Y-118297613D01*
X199263500Y-117150000D01*
X206040697Y-117150000D01*
X206059882Y-117418246D01*
X206117049Y-117681039D01*
X206211031Y-117933016D01*
X206211036Y-117933026D01*
X206339912Y-118169045D01*
X206339917Y-118169052D01*
X206339919Y-118169055D01*
X206501085Y-118384349D01*
X206501087Y-118384351D01*
X206501090Y-118384355D01*
X206691244Y-118574509D01*
X206691247Y-118574511D01*
X206691251Y-118574515D01*
X206906545Y-118735681D01*
X206906548Y-118735682D01*
X206906554Y-118735687D01*
X207142573Y-118864563D01*
X207142583Y-118864568D01*
X207394561Y-118958551D01*
X207657350Y-119015717D01*
X207925600Y-119034903D01*
X208193850Y-119015717D01*
X208456639Y-118958551D01*
X208708617Y-118864568D01*
X208805408Y-118811716D01*
X208944645Y-118735687D01*
X208944647Y-118735685D01*
X208944655Y-118735681D01*
X209159949Y-118574515D01*
X209350115Y-118384349D01*
X209511281Y-118169055D01*
X209511285Y-118169047D01*
X209511287Y-118169045D01*
X209640163Y-117933026D01*
X209640168Y-117933017D01*
X209734151Y-117681039D01*
X209791317Y-117418250D01*
X209810503Y-117150000D01*
X209791317Y-116881750D01*
X209734151Y-116618961D01*
X209640168Y-116366983D01*
X209640163Y-116366973D01*
X209511287Y-116130954D01*
X209511282Y-116130948D01*
X209511281Y-116130945D01*
X209350115Y-115915651D01*
X209350111Y-115915647D01*
X209350109Y-115915644D01*
X209159955Y-115725490D01*
X209159951Y-115725487D01*
X209159949Y-115725485D01*
X208944655Y-115564319D01*
X208944652Y-115564317D01*
X208944645Y-115564312D01*
X208708626Y-115435436D01*
X208708616Y-115435431D01*
X208456639Y-115341449D01*
X208193846Y-115284282D01*
X207925600Y-115265097D01*
X207657353Y-115284282D01*
X207394560Y-115341449D01*
X207142583Y-115435431D01*
X207142573Y-115435436D01*
X206906554Y-115564312D01*
X206691244Y-115725490D01*
X206501090Y-115915644D01*
X206339912Y-116130954D01*
X206211036Y-116366973D01*
X206211031Y-116366983D01*
X206117049Y-116618960D01*
X206059882Y-116881753D01*
X206040697Y-117150000D01*
X199263500Y-117150000D01*
X199263500Y-115521264D01*
X199283502Y-115453143D01*
X199337158Y-115406650D01*
X199407432Y-115396546D01*
X199472012Y-115426040D01*
X199500086Y-115460877D01*
X199539760Y-115533533D01*
X199591913Y-115629045D01*
X199591919Y-115629055D01*
X199753085Y-115844349D01*
X199753087Y-115844351D01*
X199753090Y-115844355D01*
X199943244Y-116034509D01*
X199943247Y-116034511D01*
X199943251Y-116034515D01*
X200158545Y-116195681D01*
X200158548Y-116195682D01*
X200158554Y-116195687D01*
X200394573Y-116324563D01*
X200394583Y-116324568D01*
X200646561Y-116418551D01*
X200909350Y-116475717D01*
X201177600Y-116494903D01*
X201445850Y-116475717D01*
X201708639Y-116418551D01*
X201960617Y-116324568D01*
X202060864Y-116269829D01*
X202196645Y-116195687D01*
X202196647Y-116195685D01*
X202196655Y-116195681D01*
X202411949Y-116034515D01*
X202602115Y-115844349D01*
X202763281Y-115629055D01*
X202763285Y-115629047D01*
X202763287Y-115629045D01*
X202892163Y-115393026D01*
X202892168Y-115393017D01*
X202986151Y-115141039D01*
X203043317Y-114878250D01*
X203062503Y-114610000D01*
X203043317Y-114341750D01*
X202986151Y-114078961D01*
X202892168Y-113826983D01*
X202892163Y-113826973D01*
X202763287Y-113590954D01*
X202763282Y-113590948D01*
X202763281Y-113590945D01*
X202602115Y-113375651D01*
X202602111Y-113375647D01*
X202602109Y-113375644D01*
X202411955Y-113185490D01*
X202411951Y-113185487D01*
X202411949Y-113185485D01*
X202196655Y-113024319D01*
X202196652Y-113024317D01*
X202196645Y-113024312D01*
X201960626Y-112895436D01*
X201960616Y-112895431D01*
X201708639Y-112801449D01*
X201445846Y-112744282D01*
X201177600Y-112725097D01*
X200909353Y-112744282D01*
X200646560Y-112801449D01*
X200394583Y-112895431D01*
X200394573Y-112895436D01*
X200158554Y-113024312D01*
X199943244Y-113185490D01*
X199753090Y-113375644D01*
X199753085Y-113375651D01*
X199592026Y-113590803D01*
X199591914Y-113590952D01*
X199500087Y-113759121D01*
X199449885Y-113809323D01*
X199380511Y-113824414D01*
X199313991Y-113799603D01*
X199271444Y-113742767D01*
X199263500Y-113698735D01*
X199263500Y-112005370D01*
X199283502Y-111937249D01*
X199300400Y-111916280D01*
X205968406Y-105248273D01*
X206030716Y-105214249D01*
X206101531Y-105219314D01*
X206158367Y-105261861D01*
X206179643Y-105306438D01*
X206208303Y-105419614D01*
X206231346Y-105472146D01*
X206279186Y-105581213D01*
X206298741Y-105625793D01*
X206421875Y-105814265D01*
X206421879Y-105814270D01*
X206513355Y-105913638D01*
X206561373Y-105965799D01*
X206574362Y-105979908D01*
X206603580Y-106002649D01*
X206752024Y-106118189D01*
X206950026Y-106225342D01*
X206950027Y-106225342D01*
X206950028Y-106225343D01*
X207061827Y-106263723D01*
X207162965Y-106298444D01*
X207385031Y-106335500D01*
X207385035Y-106335500D01*
X207610165Y-106335500D01*
X207610169Y-106335500D01*
X207832235Y-106298444D01*
X208045174Y-106225342D01*
X208243176Y-106118189D01*
X208420840Y-105979906D01*
X208481845Y-105913637D01*
X208542696Y-105877067D01*
X208613661Y-105879200D01*
X208672206Y-105919362D01*
X208692600Y-105954941D01*
X208736711Y-106073204D01*
X208736712Y-106073207D01*
X208824338Y-106190261D01*
X208941392Y-106277887D01*
X208941394Y-106277888D01*
X208941396Y-106277889D01*
X208996500Y-106298442D01*
X209078395Y-106328988D01*
X209078403Y-106328990D01*
X209138950Y-106335499D01*
X209138955Y-106335499D01*
X209138962Y-106335500D01*
X209138968Y-106335500D01*
X210936232Y-106335500D01*
X210936238Y-106335500D01*
X210936245Y-106335499D01*
X210936249Y-106335499D01*
X210996796Y-106328990D01*
X210996799Y-106328989D01*
X210996801Y-106328989D01*
X211133804Y-106277889D01*
X211203999Y-106225342D01*
X211250861Y-106190261D01*
X211338487Y-106073207D01*
X211338487Y-106073206D01*
X211338489Y-106073204D01*
X211389589Y-105936201D01*
X211391400Y-105919362D01*
X211396099Y-105875649D01*
X211396100Y-105875632D01*
X211396100Y-104078367D01*
X211396099Y-104078350D01*
X211389590Y-104017803D01*
X211389588Y-104017795D01*
X211351869Y-103916670D01*
X211338489Y-103880796D01*
X211338488Y-103880794D01*
X211338487Y-103880792D01*
X211250861Y-103763738D01*
X211133807Y-103676112D01*
X211133802Y-103676110D01*
X210996804Y-103625011D01*
X210996796Y-103625009D01*
X210936249Y-103618500D01*
X210936238Y-103618500D01*
X209138962Y-103618500D01*
X209138950Y-103618500D01*
X209078403Y-103625009D01*
X209078395Y-103625011D01*
X208941397Y-103676110D01*
X208941392Y-103676112D01*
X208824338Y-103763738D01*
X208736712Y-103880792D01*
X208736711Y-103880795D01*
X208692600Y-103999058D01*
X208650053Y-104055893D01*
X208583532Y-104080703D01*
X208514158Y-104065611D01*
X208481846Y-104040363D01*
X208420840Y-103974094D01*
X208420839Y-103974093D01*
X208420837Y-103974091D01*
X208336197Y-103908213D01*
X208243176Y-103835811D01*
X208045174Y-103728658D01*
X208045172Y-103728657D01*
X208045171Y-103728656D01*
X207832229Y-103655554D01*
X207830859Y-103655207D01*
X207830361Y-103654912D01*
X207827306Y-103653864D01*
X207827521Y-103653235D01*
X207769737Y-103619088D01*
X207737846Y-103555657D01*
X207745310Y-103485054D01*
X207772707Y-103443973D01*
X209234778Y-101981901D01*
X209248617Y-101969941D01*
X209268058Y-101955469D01*
X209302001Y-101915015D01*
X209305700Y-101910979D01*
X209311581Y-101905100D01*
X209321547Y-101892494D01*
X209332135Y-101879105D01*
X209363556Y-101841658D01*
X209382032Y-101819640D01*
X209382033Y-101819636D01*
X209382036Y-101819634D01*
X209386070Y-101813502D01*
X209386127Y-101813539D01*
X209390171Y-101807191D01*
X209390112Y-101807155D01*
X209393961Y-101800912D01*
X209393967Y-101800905D01*
X209426775Y-101730547D01*
X209461609Y-101661188D01*
X209461610Y-101661182D01*
X209464119Y-101654291D01*
X209464184Y-101654314D01*
X209466658Y-101647197D01*
X209466594Y-101647176D01*
X209468903Y-101640208D01*
X209484607Y-101564150D01*
X209502251Y-101489706D01*
X209502500Y-101488656D01*
X209502500Y-101488649D01*
X209503352Y-101481368D01*
X209503419Y-101481375D01*
X209504185Y-101473877D01*
X209504119Y-101473872D01*
X209504757Y-101466565D01*
X209504759Y-101466558D01*
X209502500Y-101388920D01*
X209502500Y-97030889D01*
X209503833Y-97012610D01*
X209507338Y-96988703D01*
X209502739Y-96936062D01*
X209502500Y-96930577D01*
X209502500Y-96922223D01*
X209498657Y-96889348D01*
X209495414Y-96852226D01*
X209491906Y-96812065D01*
X209491902Y-96812053D01*
X209490422Y-96804877D01*
X209490483Y-96804864D01*
X209488832Y-96797415D01*
X209488772Y-96797430D01*
X209487078Y-96790283D01*
X209472322Y-96749744D01*
X209460542Y-96717377D01*
X209436153Y-96643746D01*
X209436151Y-96643742D01*
X209433051Y-96637091D01*
X209433107Y-96637064D01*
X209429783Y-96630196D01*
X209429727Y-96630225D01*
X209426437Y-96623675D01*
X209426435Y-96623668D01*
X209383785Y-96558821D01*
X209369713Y-96536000D01*
X209343087Y-96492821D01*
X209338537Y-96487066D01*
X209338585Y-96487027D01*
X209333764Y-96481109D01*
X209333718Y-96481148D01*
X209328998Y-96475523D01*
X209320395Y-96467406D01*
X209272540Y-96422257D01*
X208503394Y-95652923D01*
X208469376Y-95590606D01*
X208466500Y-95563838D01*
X208466500Y-94431367D01*
X208466499Y-94431350D01*
X208459990Y-94370803D01*
X208459988Y-94370795D01*
X208408889Y-94233797D01*
X208408887Y-94233792D01*
X208321261Y-94116738D01*
X208204207Y-94029112D01*
X208204202Y-94029110D01*
X208067204Y-93978011D01*
X208067196Y-93978009D01*
X208006649Y-93971500D01*
X208006638Y-93971500D01*
X206209362Y-93971500D01*
X206209350Y-93971500D01*
X206148803Y-93978009D01*
X206148795Y-93978011D01*
X206011797Y-94029110D01*
X206011792Y-94029112D01*
X205894738Y-94116738D01*
X205807112Y-94233792D01*
X205807110Y-94233797D01*
X205756011Y-94370795D01*
X205756009Y-94370803D01*
X205749500Y-94431350D01*
X205749500Y-96228649D01*
X205756009Y-96289196D01*
X205756011Y-96289204D01*
X205807110Y-96426202D01*
X205807112Y-96426207D01*
X205894738Y-96543261D01*
X206011791Y-96630886D01*
X206011792Y-96630886D01*
X206011796Y-96630889D01*
X206126810Y-96673787D01*
X206183642Y-96716332D01*
X206208453Y-96782852D01*
X206193362Y-96852226D01*
X206175475Y-96877179D01*
X206032280Y-97032729D01*
X206032275Y-97032734D01*
X205936445Y-97179415D01*
X205882442Y-97225504D01*
X205830962Y-97236500D01*
X200145606Y-97236500D01*
X200077485Y-97216498D01*
X200056508Y-97199593D01*
X195942929Y-93085816D01*
X194518839Y-91661657D01*
X194484817Y-91599345D01*
X194489883Y-91528530D01*
X194527628Y-91477113D01*
X194527005Y-91476436D01*
X194530462Y-91473253D01*
X194530553Y-91473128D01*
X194530840Y-91472906D01*
X194683322Y-91307268D01*
X194772118Y-91171354D01*
X194826120Y-91125268D01*
X194896468Y-91115692D01*
X194960825Y-91145669D01*
X194983080Y-91171353D01*
X195004471Y-91204093D01*
X195071875Y-91307265D01*
X195071879Y-91307270D01*
X195224362Y-91472908D01*
X195261141Y-91501534D01*
X195402024Y-91611189D01*
X195600026Y-91718342D01*
X195600027Y-91718342D01*
X195600028Y-91718343D01*
X195683160Y-91746882D01*
X195812965Y-91791444D01*
X196035031Y-91828500D01*
X196035035Y-91828500D01*
X196260165Y-91828500D01*
X196260169Y-91828500D01*
X196482235Y-91791444D01*
X196695174Y-91718342D01*
X196893176Y-91611189D01*
X197070840Y-91472906D01*
X197223322Y-91307268D01*
X197346460Y-91118791D01*
X197436896Y-90912616D01*
X197477316Y-90753000D01*
X206156455Y-90753000D01*
X206204176Y-90941449D01*
X206204179Y-90941456D01*
X206294580Y-91147548D01*
X206417674Y-91335958D01*
X206570097Y-91501534D01*
X206747698Y-91639767D01*
X206747699Y-91639768D01*
X206945628Y-91746882D01*
X206945630Y-91746883D01*
X207158483Y-91819955D01*
X207158492Y-91819957D01*
X207239000Y-91833391D01*
X207239000Y-90932674D01*
X207350685Y-90983680D01*
X207457237Y-90999000D01*
X207528763Y-90999000D01*
X207635315Y-90983680D01*
X207747000Y-90932674D01*
X207747000Y-91833390D01*
X207827507Y-91819957D01*
X207827516Y-91819955D01*
X208040369Y-91746883D01*
X208040371Y-91746882D01*
X208238300Y-91639768D01*
X208238301Y-91639767D01*
X208415902Y-91501534D01*
X208477426Y-91434700D01*
X208538279Y-91398128D01*
X208609243Y-91400261D01*
X208667789Y-91440422D01*
X208688185Y-91476003D01*
X208732556Y-91594966D01*
X208820095Y-91711904D01*
X208937034Y-91799444D01*
X209073906Y-91850494D01*
X209134402Y-91856999D01*
X209134415Y-91857000D01*
X209779000Y-91857000D01*
X209779000Y-90932674D01*
X209890685Y-90983680D01*
X209997237Y-90999000D01*
X210068763Y-90999000D01*
X210175315Y-90983680D01*
X210287000Y-90932674D01*
X210287000Y-91857000D01*
X210931585Y-91857000D01*
X210931597Y-91856999D01*
X210992093Y-91850494D01*
X211128964Y-91799444D01*
X211128965Y-91799444D01*
X211245904Y-91711904D01*
X211333444Y-91594965D01*
X211333444Y-91594964D01*
X211384494Y-91458093D01*
X211390999Y-91397597D01*
X211391000Y-91397585D01*
X211391000Y-90753000D01*
X210464116Y-90753000D01*
X210492493Y-90708844D01*
X210533000Y-90570889D01*
X210533000Y-90427111D01*
X210492493Y-90289156D01*
X210464116Y-90245000D01*
X211391000Y-90245000D01*
X211391000Y-89600414D01*
X211390999Y-89600402D01*
X211384494Y-89539906D01*
X211333444Y-89403035D01*
X211333444Y-89403034D01*
X211245904Y-89286095D01*
X211128965Y-89198555D01*
X210992093Y-89147505D01*
X210931597Y-89141000D01*
X210287000Y-89141000D01*
X210287000Y-90065325D01*
X210175315Y-90014320D01*
X210068763Y-89999000D01*
X209997237Y-89999000D01*
X209890685Y-90014320D01*
X209779000Y-90065325D01*
X209779000Y-89141000D01*
X209134402Y-89141000D01*
X209073906Y-89147505D01*
X208937035Y-89198555D01*
X208937034Y-89198555D01*
X208820095Y-89286095D01*
X208732555Y-89403034D01*
X208732553Y-89403039D01*
X208688184Y-89521996D01*
X208645637Y-89578832D01*
X208579117Y-89603642D01*
X208509743Y-89588550D01*
X208477427Y-89563300D01*
X208415902Y-89496465D01*
X208238301Y-89358232D01*
X208238300Y-89358231D01*
X208040371Y-89251117D01*
X208040369Y-89251116D01*
X207827512Y-89178043D01*
X207827501Y-89178040D01*
X207747000Y-89164606D01*
X207747000Y-90065325D01*
X207635315Y-90014320D01*
X207528763Y-89999000D01*
X207457237Y-89999000D01*
X207350685Y-90014320D01*
X207239000Y-90065325D01*
X207239000Y-89164607D01*
X207238999Y-89164606D01*
X207158498Y-89178040D01*
X207158487Y-89178043D01*
X206945630Y-89251116D01*
X206945628Y-89251117D01*
X206747699Y-89358231D01*
X206747698Y-89358232D01*
X206570097Y-89496465D01*
X206417674Y-89662041D01*
X206294580Y-89850451D01*
X206204179Y-90056543D01*
X206204176Y-90056550D01*
X206156455Y-90244999D01*
X206156456Y-90245000D01*
X207061884Y-90245000D01*
X207033507Y-90289156D01*
X206993000Y-90427111D01*
X206993000Y-90570889D01*
X207033507Y-90708844D01*
X207061884Y-90753000D01*
X206156455Y-90753000D01*
X197477316Y-90753000D01*
X197492164Y-90694368D01*
X197510756Y-90470000D01*
X197492164Y-90245632D01*
X197472944Y-90169734D01*
X197436897Y-90027387D01*
X197436896Y-90027386D01*
X197436896Y-90027384D01*
X197346460Y-89821209D01*
X197339740Y-89810924D01*
X197223324Y-89632734D01*
X197223320Y-89632729D01*
X197073430Y-89469908D01*
X197070840Y-89467094D01*
X197070839Y-89467093D01*
X197070837Y-89467091D01*
X196951279Y-89374035D01*
X196893176Y-89328811D01*
X196695174Y-89221658D01*
X196695172Y-89221657D01*
X196695171Y-89221656D01*
X196482239Y-89148557D01*
X196482230Y-89148555D01*
X196436954Y-89141000D01*
X196260169Y-89111500D01*
X196035031Y-89111500D01*
X196002059Y-89117002D01*
X195951009Y-89125520D01*
X195880525Y-89117002D01*
X195841178Y-89090335D01*
X194689239Y-87938446D01*
X192186895Y-85436211D01*
X192174926Y-85422362D01*
X192160469Y-85402942D01*
X192152095Y-85395915D01*
X192120019Y-85369000D01*
X192115965Y-85365285D01*
X192110091Y-85359410D01*
X192084091Y-85338853D01*
X192024640Y-85288968D01*
X192018506Y-85284933D01*
X192018542Y-85284878D01*
X192012170Y-85280819D01*
X192012136Y-85280876D01*
X192005893Y-85277026D01*
X192005891Y-85277024D01*
X192005887Y-85277022D01*
X191935539Y-85244220D01*
X191866191Y-85209392D01*
X191859293Y-85206882D01*
X191859315Y-85206819D01*
X191852181Y-85204339D01*
X191852161Y-85204402D01*
X191845192Y-85202093D01*
X191845190Y-85202092D01*
X191829490Y-85198850D01*
X191769152Y-85186392D01*
X191693655Y-85168499D01*
X191686367Y-85167648D01*
X191686374Y-85167582D01*
X191678857Y-85166814D01*
X191678852Y-85166880D01*
X191671541Y-85166240D01*
X191593929Y-85168500D01*
X154077972Y-85168500D01*
X154009851Y-85148498D01*
X153972490Y-85111417D01*
X153958323Y-85089734D01*
X153958322Y-85089732D01*
X153805840Y-84924094D01*
X153805839Y-84924093D01*
X153805837Y-84924091D01*
X153723982Y-84860381D01*
X153628176Y-84785811D01*
X153594919Y-84767813D01*
X153544529Y-84717802D01*
X153529176Y-84648485D01*
X153553736Y-84581872D01*
X153594920Y-84546186D01*
X153628176Y-84528189D01*
X153805840Y-84389906D01*
X153958322Y-84224268D01*
X154081460Y-84035791D01*
X154171896Y-83829616D01*
X154227164Y-83611368D01*
X154245756Y-83387000D01*
X154227164Y-83162632D01*
X154171896Y-82944384D01*
X154081460Y-82738209D01*
X154074740Y-82727924D01*
X153958324Y-82549734D01*
X153958320Y-82549729D01*
X153815121Y-82394176D01*
X153805840Y-82384094D01*
X153805839Y-82384093D01*
X153805837Y-82384091D01*
X153723982Y-82320381D01*
X153628176Y-82245811D01*
X153430174Y-82138658D01*
X153430172Y-82138657D01*
X153430171Y-82138656D01*
X153217239Y-82065557D01*
X153217230Y-82065555D01*
X153173076Y-82058187D01*
X152995169Y-82028500D01*
X152770031Y-82028500D01*
X152621811Y-82053233D01*
X152547969Y-82065555D01*
X152547960Y-82065557D01*
X152335028Y-82138656D01*
X152335026Y-82138658D01*
X152137026Y-82245810D01*
X152137024Y-82245811D01*
X151959362Y-82384091D01*
X151806879Y-82549729D01*
X151806875Y-82549734D01*
X151683741Y-82738206D01*
X151593303Y-82944386D01*
X151593302Y-82944387D01*
X151538037Y-83162624D01*
X151538036Y-83162630D01*
X151538036Y-83162632D01*
X151531400Y-83242714D01*
X151519444Y-83387000D01*
X151538037Y-83611375D01*
X151593302Y-83829612D01*
X151593303Y-83829613D01*
X151683741Y-84035793D01*
X151806875Y-84224265D01*
X151806879Y-84224270D01*
X151959362Y-84389908D01*
X152013931Y-84432381D01*
X152137024Y-84528189D01*
X152170280Y-84546186D01*
X152220671Y-84596200D01*
X152236023Y-84665516D01*
X152211462Y-84732129D01*
X152170280Y-84767813D01*
X152137026Y-84785810D01*
X152137024Y-84785811D01*
X151959362Y-84924091D01*
X151806879Y-85089729D01*
X151806875Y-85089734D01*
X151683741Y-85278206D01*
X151593303Y-85484386D01*
X151593302Y-85484387D01*
X151538037Y-85702624D01*
X151538036Y-85702630D01*
X151538036Y-85702632D01*
X151525915Y-85848911D01*
X151519444Y-85927000D01*
X151538037Y-86151375D01*
X151593302Y-86369612D01*
X151593303Y-86369613D01*
X151683741Y-86575793D01*
X151806875Y-86764265D01*
X151806879Y-86764270D01*
X151959362Y-86929908D01*
X152013931Y-86972381D01*
X152137024Y-87068189D01*
X152170280Y-87086186D01*
X152220671Y-87136200D01*
X152236023Y-87205516D01*
X152211462Y-87272129D01*
X152170280Y-87307813D01*
X152137026Y-87325810D01*
X152137024Y-87325811D01*
X151959362Y-87464091D01*
X151806879Y-87629729D01*
X151709187Y-87779259D01*
X151655183Y-87825347D01*
X151613877Y-87834853D01*
X151613915Y-87835090D01*
X151610492Y-87835632D01*
X151607678Y-87836280D01*
X151606088Y-87836330D01*
X151606085Y-87836330D01*
X151586640Y-87841980D01*
X151567280Y-87845989D01*
X151547212Y-87848524D01*
X151547198Y-87848527D01*
X151503311Y-87865902D01*
X151497701Y-87867823D01*
X151452385Y-87880992D01*
X151452382Y-87880993D01*
X151452379Y-87880994D01*
X151452376Y-87880996D01*
X151434956Y-87891298D01*
X151417207Y-87899994D01*
X151398382Y-87907447D01*
X151360198Y-87935189D01*
X151355240Y-87938446D01*
X151314614Y-87962475D01*
X151314612Y-87962477D01*
X151300301Y-87976789D01*
X151285273Y-87989626D01*
X151268892Y-88001528D01*
X151238806Y-88037895D01*
X151234812Y-88042284D01*
X149128800Y-90148476D01*
X149112485Y-90164792D01*
X149050174Y-90198819D01*
X149023386Y-90201700D01*
X146633587Y-90201700D01*
X146575032Y-90187267D01*
X146538087Y-90167877D01*
X146538079Y-90167873D01*
X146371031Y-90126700D01*
X146371028Y-90126700D01*
X146198972Y-90126700D01*
X146198968Y-90126700D01*
X146031920Y-90167873D01*
X146031912Y-90167877D01*
X145879573Y-90247830D01*
X145879568Y-90247834D01*
X145750785Y-90361927D01*
X145653045Y-90503526D01*
X145592034Y-90664400D01*
X145571296Y-90835196D01*
X145571296Y-90835203D01*
X145592034Y-91005999D01*
X145645004Y-91145669D01*
X145653046Y-91166875D01*
X145750785Y-91308473D01*
X145879570Y-91422567D01*
X145879571Y-91422567D01*
X145879573Y-91422569D01*
X145946899Y-91457904D01*
X146031917Y-91502525D01*
X146031918Y-91502525D01*
X146031920Y-91502526D01*
X146137424Y-91528530D01*
X146198972Y-91543700D01*
X146198975Y-91543700D01*
X146371025Y-91543700D01*
X146371028Y-91543700D01*
X146538083Y-91502525D01*
X146564126Y-91488856D01*
X146575032Y-91483133D01*
X146633587Y-91468700D01*
X149254164Y-91468700D01*
X149270013Y-91470449D01*
X149270041Y-91470158D01*
X149277927Y-91470902D01*
X149277935Y-91470904D01*
X149347964Y-91468700D01*
X149377856Y-91468700D01*
X149384830Y-91467818D01*
X149390738Y-91467354D01*
X149402424Y-91466985D01*
X149437916Y-91465869D01*
X149457349Y-91460221D01*
X149476713Y-91456210D01*
X149496797Y-91453674D01*
X149540698Y-91436291D01*
X149546277Y-91434381D01*
X149591618Y-91421208D01*
X149609043Y-91410900D01*
X149626798Y-91402201D01*
X149645617Y-91394752D01*
X149683815Y-91366997D01*
X149688746Y-91363759D01*
X149729384Y-91339725D01*
X149743702Y-91325405D01*
X149758727Y-91312572D01*
X149775107Y-91300672D01*
X149805196Y-91264300D01*
X149809175Y-91259926D01*
X151693791Y-89375150D01*
X151756100Y-89341125D01*
X151826915Y-89346186D01*
X151875585Y-89378903D01*
X151959360Y-89469906D01*
X151959362Y-89469908D01*
X152012036Y-89510906D01*
X152137024Y-89608189D01*
X152170280Y-89626186D01*
X152220671Y-89676200D01*
X152236023Y-89745516D01*
X152211462Y-89812129D01*
X152170280Y-89847813D01*
X152137026Y-89865810D01*
X152137024Y-89865811D01*
X151959362Y-90004091D01*
X151806879Y-90169729D01*
X151806875Y-90169734D01*
X151683741Y-90358206D01*
X151593303Y-90564386D01*
X151593302Y-90564387D01*
X151538037Y-90782624D01*
X151538036Y-90782630D01*
X151538036Y-90782632D01*
X151519444Y-91007000D01*
X151531090Y-91147548D01*
X151538037Y-91231375D01*
X151593302Y-91449612D01*
X151593303Y-91449613D01*
X151593304Y-91449616D01*
X151664176Y-91611189D01*
X151683741Y-91655793D01*
X151806875Y-91844265D01*
X151806879Y-91844270D01*
X151959362Y-92009908D01*
X152013931Y-92052381D01*
X152137024Y-92148189D01*
X152170805Y-92166470D01*
X152221196Y-92216482D01*
X152236549Y-92285799D01*
X152211989Y-92352412D01*
X152170809Y-92388096D01*
X152137304Y-92406228D01*
X152137298Y-92406232D01*
X151959697Y-92544465D01*
X151807274Y-92710041D01*
X151684180Y-92898451D01*
X151593779Y-93104543D01*
X151593776Y-93104550D01*
X151546055Y-93292999D01*
X151546056Y-93293000D01*
X152451484Y-93293000D01*
X152423107Y-93337156D01*
X152382600Y-93475111D01*
X152382600Y-93618889D01*
X152423107Y-93756844D01*
X152451484Y-93801000D01*
X151546055Y-93801000D01*
X151593776Y-93989449D01*
X151593779Y-93989456D01*
X151684180Y-94195548D01*
X151807274Y-94383958D01*
X151950581Y-94539632D01*
X151982001Y-94603297D01*
X151974014Y-94673843D01*
X151929155Y-94728872D01*
X151901913Y-94743024D01*
X151786395Y-94786111D01*
X151786392Y-94786112D01*
X151669338Y-94873738D01*
X151581712Y-94990792D01*
X151581710Y-94990797D01*
X151530611Y-95127795D01*
X151530609Y-95127803D01*
X151524100Y-95188350D01*
X151524100Y-96536000D01*
X151504098Y-96604121D01*
X151450442Y-96650614D01*
X151398100Y-96662000D01*
X138577859Y-96662000D01*
X138562021Y-96660251D01*
X138561994Y-96660545D01*
X138554101Y-96659798D01*
X138484041Y-96662000D01*
X138454144Y-96662000D01*
X138454140Y-96662000D01*
X138454130Y-96662001D01*
X138447187Y-96662878D01*
X138441274Y-96663343D01*
X138394119Y-96664825D01*
X138394115Y-96664825D01*
X138374654Y-96670479D01*
X138355297Y-96674487D01*
X138335212Y-96677024D01*
X138335203Y-96677026D01*
X138291341Y-96694391D01*
X138285724Y-96696315D01*
X138240410Y-96709479D01*
X138222974Y-96719791D01*
X138205230Y-96728484D01*
X138186393Y-96735942D01*
X138186380Y-96735949D01*
X138148217Y-96763675D01*
X138143256Y-96766934D01*
X138102644Y-96790952D01*
X138088310Y-96805285D01*
X138073283Y-96818119D01*
X138056893Y-96830027D01*
X138026819Y-96866379D01*
X138022822Y-96870770D01*
X119579429Y-115313671D01*
X119517117Y-115347695D01*
X119446301Y-115342629D01*
X119412944Y-115324006D01*
X119377224Y-115296204D01*
X119338176Y-115265811D01*
X119140174Y-115158658D01*
X119140172Y-115158657D01*
X119140171Y-115158656D01*
X118927239Y-115085557D01*
X118927230Y-115085555D01*
X118883076Y-115078187D01*
X118705169Y-115048500D01*
X118480031Y-115048500D01*
X118331811Y-115073233D01*
X118257969Y-115085555D01*
X118257960Y-115085557D01*
X118045028Y-115158656D01*
X118045026Y-115158658D01*
X117848344Y-115265097D01*
X117847026Y-115265810D01*
X117847024Y-115265811D01*
X117669362Y-115404091D01*
X117516879Y-115569729D01*
X117428083Y-115705643D01*
X117374079Y-115751731D01*
X117303731Y-115761306D01*
X117239374Y-115731329D01*
X117217117Y-115705643D01*
X117128320Y-115569729D01*
X116975837Y-115404091D01*
X116893982Y-115340381D01*
X116798176Y-115265811D01*
X116600174Y-115158658D01*
X116600172Y-115158657D01*
X116600171Y-115158656D01*
X116387239Y-115085557D01*
X116387230Y-115085555D01*
X116343076Y-115078187D01*
X116165169Y-115048500D01*
X115940031Y-115048500D01*
X115791811Y-115073233D01*
X115717969Y-115085555D01*
X115717960Y-115085557D01*
X115505028Y-115158656D01*
X115505026Y-115158658D01*
X115308344Y-115265097D01*
X115307026Y-115265810D01*
X115307024Y-115265811D01*
X115129362Y-115404091D01*
X114976879Y-115569729D01*
X114888083Y-115705643D01*
X114834079Y-115751731D01*
X114763731Y-115761306D01*
X114699374Y-115731329D01*
X114677117Y-115705643D01*
X114588320Y-115569729D01*
X114435837Y-115404091D01*
X114353982Y-115340381D01*
X114258176Y-115265811D01*
X114060174Y-115158658D01*
X114060172Y-115158657D01*
X114060171Y-115158656D01*
X113847239Y-115085557D01*
X113847230Y-115085555D01*
X113803076Y-115078187D01*
X113625169Y-115048500D01*
X113400031Y-115048500D01*
X113251811Y-115073233D01*
X113177969Y-115085555D01*
X113177960Y-115085557D01*
X112965028Y-115158656D01*
X112965026Y-115158658D01*
X112768344Y-115265097D01*
X112767026Y-115265810D01*
X112767024Y-115265811D01*
X112589362Y-115404091D01*
X112436879Y-115569729D01*
X112348083Y-115705643D01*
X112294079Y-115751731D01*
X112223731Y-115761306D01*
X112159374Y-115731329D01*
X112137117Y-115705643D01*
X112048320Y-115569729D01*
X111895837Y-115404091D01*
X111813982Y-115340381D01*
X111718176Y-115265811D01*
X111520174Y-115158658D01*
X111520172Y-115158657D01*
X111520171Y-115158656D01*
X111307239Y-115085557D01*
X111307230Y-115085555D01*
X111263076Y-115078187D01*
X111085169Y-115048500D01*
X110860031Y-115048500D01*
X110711811Y-115073233D01*
X110637969Y-115085555D01*
X110637960Y-115085557D01*
X110425028Y-115158656D01*
X110425026Y-115158658D01*
X110228344Y-115265097D01*
X110227026Y-115265810D01*
X110227024Y-115265811D01*
X110049362Y-115404091D01*
X109896879Y-115569729D01*
X109808083Y-115705643D01*
X109754079Y-115751731D01*
X109683731Y-115761306D01*
X109619374Y-115731329D01*
X109597117Y-115705643D01*
X109508320Y-115569729D01*
X109355837Y-115404091D01*
X109273982Y-115340381D01*
X109178176Y-115265811D01*
X108980174Y-115158658D01*
X108980172Y-115158657D01*
X108980171Y-115158656D01*
X108767239Y-115085557D01*
X108767230Y-115085555D01*
X108723076Y-115078187D01*
X108545169Y-115048500D01*
X108320031Y-115048500D01*
X108171811Y-115073233D01*
X108097969Y-115085555D01*
X108097960Y-115085557D01*
X107885028Y-115158656D01*
X107885026Y-115158658D01*
X107688344Y-115265097D01*
X107687026Y-115265810D01*
X107687024Y-115265811D01*
X107509362Y-115404091D01*
X107356879Y-115569729D01*
X107268083Y-115705643D01*
X107214079Y-115751731D01*
X107143731Y-115761306D01*
X107079374Y-115731329D01*
X107057117Y-115705643D01*
X106968320Y-115569729D01*
X106815837Y-115404091D01*
X106733982Y-115340381D01*
X106638176Y-115265811D01*
X106440174Y-115158658D01*
X106440172Y-115158657D01*
X106440171Y-115158656D01*
X106227239Y-115085557D01*
X106227230Y-115085555D01*
X106183076Y-115078187D01*
X106005169Y-115048500D01*
X105780031Y-115048500D01*
X105631811Y-115073233D01*
X105557969Y-115085555D01*
X105557960Y-115085557D01*
X105345028Y-115158656D01*
X105345026Y-115158658D01*
X105148344Y-115265097D01*
X105147026Y-115265810D01*
X105147024Y-115265811D01*
X104969362Y-115404091D01*
X104816879Y-115569729D01*
X104816875Y-115569734D01*
X104693741Y-115758206D01*
X104603303Y-115964386D01*
X104603302Y-115964387D01*
X104548037Y-116182624D01*
X104548036Y-116182630D01*
X104548036Y-116182632D01*
X104540811Y-116269829D01*
X104529444Y-116407000D01*
X104548037Y-116631375D01*
X104603302Y-116849612D01*
X104603303Y-116849613D01*
X104603304Y-116849616D01*
X104675067Y-117013220D01*
X104693741Y-117055793D01*
X104816875Y-117244265D01*
X104816879Y-117244270D01*
X104969362Y-117409908D01*
X104973476Y-117413110D01*
X105147024Y-117548189D01*
X105180278Y-117566185D01*
X105180280Y-117566186D01*
X105230671Y-117616200D01*
X105246023Y-117685516D01*
X105221462Y-117752129D01*
X105180280Y-117787813D01*
X105147028Y-117805809D01*
X105147026Y-117805810D01*
X105147024Y-117805811D01*
X104969362Y-117944091D01*
X104816879Y-118109729D01*
X104816875Y-118109734D01*
X104693741Y-118298206D01*
X104603303Y-118504386D01*
X104603302Y-118504387D01*
X104548037Y-118722624D01*
X104548036Y-118722630D01*
X104548036Y-118722632D01*
X104529444Y-118947000D01*
X85090965Y-118947000D01*
X85153013Y-118832341D01*
X85226242Y-118706872D01*
X85297487Y-118593393D01*
X85302357Y-118585635D01*
X85304403Y-118582579D01*
X85556472Y-118229200D01*
X85559255Y-118225878D01*
X85563538Y-118219296D01*
X85568090Y-118212914D01*
X85570170Y-118209101D01*
X85762829Y-117913026D01*
X85803440Y-117850615D01*
X85805432Y-117847961D01*
X85806178Y-117846640D01*
X85808260Y-117843208D01*
X85809079Y-117841949D01*
X85810513Y-117838956D01*
X86240678Y-117076563D01*
X86242739Y-117073353D01*
X86245114Y-117068705D01*
X86246511Y-117065147D01*
X86610660Y-116273080D01*
X86612436Y-116269745D01*
X86612480Y-116269626D01*
X86614445Y-116264853D01*
X86614493Y-116264747D01*
X86615582Y-116261122D01*
X86913480Y-115444734D01*
X86914971Y-115441288D01*
X86915035Y-115441060D01*
X86916582Y-115436233D01*
X86916652Y-115436040D01*
X86917433Y-115432402D01*
X87149118Y-114596514D01*
X87150321Y-114592998D01*
X87150385Y-114592670D01*
X87151525Y-114587831D01*
X87151608Y-114587530D01*
X87152099Y-114583855D01*
X87317577Y-113733372D01*
X87318494Y-113729811D01*
X87318538Y-113729436D01*
X87319296Y-113724539D01*
X87319364Y-113724186D01*
X87319569Y-113720501D01*
X87418853Y-112860277D01*
X87419493Y-112856657D01*
X87419510Y-112856228D01*
X87419885Y-112851346D01*
X87419932Y-112850937D01*
X87419852Y-112847265D01*
X87452947Y-111982172D01*
X87453307Y-111978528D01*
X87453290Y-111978077D01*
X87453290Y-111973213D01*
X87453306Y-111972775D01*
X87452948Y-111969131D01*
X87419858Y-111104025D01*
X87419938Y-111100360D01*
X87419890Y-111099938D01*
X87419516Y-111095063D01*
X87419499Y-111094638D01*
X87418858Y-111091004D01*
X87417996Y-111083531D01*
X87319582Y-110230791D01*
X87319380Y-110227115D01*
X87319305Y-110226731D01*
X87318550Y-110221847D01*
X87318507Y-110221478D01*
X87317587Y-110217899D01*
X87274399Y-109995926D01*
X87152114Y-109367403D01*
X87151625Y-109363743D01*
X87151538Y-109363427D01*
X87150404Y-109358611D01*
X87150341Y-109358288D01*
X87149141Y-109354779D01*
X86917459Y-108518875D01*
X86916670Y-108515207D01*
X86916587Y-108514978D01*
X86915050Y-108510183D01*
X86914990Y-108509969D01*
X86913505Y-108506535D01*
X86615603Y-107690116D01*
X86614518Y-107686502D01*
X86614458Y-107686372D01*
X86612503Y-107681620D01*
X86612460Y-107681503D01*
X86610686Y-107678167D01*
X86246536Y-106886084D01*
X86245143Y-106882532D01*
X86245126Y-106882502D01*
X86242760Y-106877870D01*
X86242752Y-106877854D01*
X86240694Y-106874646D01*
X85936497Y-106335500D01*
X85810518Y-106112219D01*
X85809084Y-106109225D01*
X85808260Y-106107959D01*
X85806193Y-106104551D01*
X85805474Y-106103278D01*
X85803488Y-106100627D01*
X85570116Y-105741975D01*
X85568036Y-105738169D01*
X85563554Y-105731892D01*
X85559312Y-105725367D01*
X85556517Y-105722026D01*
X85549179Y-105711739D01*
X85304246Y-105368353D01*
X85302416Y-105365642D01*
X85225209Y-105244572D01*
X85151778Y-105119299D01*
X85105777Y-105033791D01*
X85083170Y-104991768D01*
X85019274Y-104862093D01*
X84960007Y-104730434D01*
X84905305Y-104597007D01*
X84855048Y-104461890D01*
X84809178Y-104325318D01*
X84767591Y-104187397D01*
X84730204Y-104048300D01*
X84696937Y-103908213D01*
X84667700Y-103767269D01*
X84642405Y-103625634D01*
X84620964Y-103483458D01*
X84603296Y-103340914D01*
X84589652Y-103201626D01*
X84589353Y-103195482D01*
X84589353Y-94630006D01*
X84589512Y-94625529D01*
X84599556Y-94484514D01*
X84614594Y-94341522D01*
X84634399Y-94199122D01*
X84658920Y-94057460D01*
X84688121Y-93916581D01*
X84721945Y-93776675D01*
X84760334Y-93637892D01*
X84803250Y-93500320D01*
X84850642Y-93364092D01*
X84902464Y-93229335D01*
X84958660Y-93096187D01*
X85019183Y-92964777D01*
X85083984Y-92835231D01*
X85153012Y-92707676D01*
X85226234Y-92582221D01*
X85251105Y-92542606D01*
X85302524Y-92460705D01*
X85304555Y-92457672D01*
X85556472Y-92104506D01*
X85559255Y-92101184D01*
X85563538Y-92094602D01*
X85568090Y-92088220D01*
X85570170Y-92084407D01*
X85803459Y-91725890D01*
X85805448Y-91723240D01*
X85806174Y-91721953D01*
X85808268Y-91718501D01*
X85809072Y-91717266D01*
X85810504Y-91714275D01*
X86240677Y-90951867D01*
X86242738Y-90948657D01*
X86245109Y-90944017D01*
X86246504Y-90940465D01*
X86610650Y-90148400D01*
X86612434Y-90145048D01*
X86612486Y-90144908D01*
X86614446Y-90140146D01*
X86614492Y-90140044D01*
X86615575Y-90136438D01*
X86913478Y-89320035D01*
X86914969Y-89316589D01*
X86915033Y-89316361D01*
X86916580Y-89311534D01*
X86916650Y-89311341D01*
X86917431Y-89307703D01*
X87149117Y-88471813D01*
X87150320Y-88468297D01*
X87150384Y-88467969D01*
X87151524Y-88463130D01*
X87151607Y-88462829D01*
X87152098Y-88459154D01*
X87317576Y-87608670D01*
X87318493Y-87605109D01*
X87318537Y-87604734D01*
X87319295Y-87599837D01*
X87319363Y-87599484D01*
X87319568Y-87595800D01*
X87418851Y-86735577D01*
X87419492Y-86731953D01*
X87419509Y-86731523D01*
X87419884Y-86726641D01*
X87419931Y-86726232D01*
X87419851Y-86722560D01*
X87452947Y-85857469D01*
X87453307Y-85853821D01*
X87453290Y-85853371D01*
X87453290Y-85848507D01*
X87453306Y-85848069D01*
X87452948Y-85844425D01*
X87419858Y-84979317D01*
X87419938Y-84975652D01*
X87419890Y-84975230D01*
X87419516Y-84970355D01*
X87419499Y-84969930D01*
X87418858Y-84966296D01*
X87319582Y-84106083D01*
X87319380Y-84102407D01*
X87319305Y-84102023D01*
X87318550Y-84097139D01*
X87318508Y-84096774D01*
X87317587Y-84093193D01*
X87223845Y-83611375D01*
X87152115Y-83242695D01*
X87151626Y-83239035D01*
X87151539Y-83238719D01*
X87150405Y-83233903D01*
X87150342Y-83233580D01*
X87149142Y-83230071D01*
X86917460Y-82394167D01*
X86916671Y-82390499D01*
X86916588Y-82390270D01*
X86915051Y-82385475D01*
X86914991Y-82385258D01*
X86913504Y-82381821D01*
X86615607Y-81565418D01*
X86614519Y-81561797D01*
X86614459Y-81561666D01*
X86612504Y-81556914D01*
X86612461Y-81556797D01*
X86610687Y-81553461D01*
X86246532Y-80761369D01*
X86245136Y-80757813D01*
X86242766Y-80753173D01*
X86240701Y-80749955D01*
X85810518Y-79987520D01*
X85809088Y-79984532D01*
X85808261Y-79983262D01*
X85806183Y-79979837D01*
X85805462Y-79978558D01*
X85803483Y-79975918D01*
X85570159Y-79617344D01*
X85568079Y-79613533D01*
X85564631Y-79608702D01*
X85564631Y-79608701D01*
X85563542Y-79607175D01*
X85562532Y-79605622D01*
X85562530Y-79605621D01*
X85559319Y-79600683D01*
X85556540Y-79597359D01*
X85303568Y-79242707D01*
X85222900Y-79122020D01*
X85221346Y-79119574D01*
X85146971Y-78996395D01*
X85083959Y-78880794D01*
X85077697Y-78869305D01*
X85014022Y-78739786D01*
X84960062Y-78617947D01*
X84955677Y-78608045D01*
X84902395Y-78474298D01*
X84853905Y-78338744D01*
X84809949Y-78201624D01*
X84770250Y-78063117D01*
X84734547Y-77923453D01*
X84702571Y-77782837D01*
X84674058Y-77641499D01*
X84648738Y-77499632D01*
X84626358Y-77357551D01*
X84589882Y-77077722D01*
X84589353Y-77069570D01*
X84589353Y-75353089D01*
X84592462Y-74923182D01*
X84592598Y-74919471D01*
X84592644Y-74918786D01*
X84620755Y-74494627D01*
X84621101Y-74491002D01*
X84621109Y-74490943D01*
X84673609Y-74070206D01*
X84674149Y-74066687D01*
X84750308Y-73650576D01*
X84751022Y-73647206D01*
X84837211Y-73290025D01*
X84850124Y-73236512D01*
X84851015Y-73233213D01*
X84972342Y-72828637D01*
X84973381Y-72825477D01*
X85057227Y-72592004D01*
X174766407Y-72592004D01*
X174785156Y-72866116D01*
X174785157Y-72866122D01*
X174785158Y-72866130D01*
X174813635Y-73003166D01*
X174841060Y-73135146D01*
X174841062Y-73135154D01*
X174906792Y-73320099D01*
X174933077Y-73394058D01*
X175054076Y-73627577D01*
X175059492Y-73638028D01*
X175127397Y-73734227D01*
X175217943Y-73862502D01*
X175405489Y-74063314D01*
X175618631Y-74236718D01*
X175853400Y-74379484D01*
X176105423Y-74488953D01*
X176370004Y-74563085D01*
X176465104Y-74576156D01*
X176642204Y-74600499D01*
X176642215Y-74600500D01*
X176916985Y-74600500D01*
X176916995Y-74600499D01*
X177046545Y-74582692D01*
X177189196Y-74563085D01*
X177453777Y-74488953D01*
X177705800Y-74379484D01*
X177940569Y-74236718D01*
X178153711Y-74063314D01*
X178341257Y-73862502D01*
X178499711Y-73638023D01*
X178626123Y-73394058D01*
X178652408Y-73320098D01*
X178694066Y-73262611D01*
X178760193Y-73236771D01*
X178829793Y-73250783D01*
X178874345Y-73290025D01*
X178994022Y-73460944D01*
X178994031Y-73460954D01*
X179160645Y-73627568D01*
X179160655Y-73627577D01*
X179353674Y-73762729D01*
X179353673Y-73762729D01*
X179429596Y-73798132D01*
X179567242Y-73862318D01*
X179794855Y-73923306D01*
X180029600Y-73943844D01*
X180264345Y-73923306D01*
X180491958Y-73862318D01*
X180705522Y-73762731D01*
X180865639Y-73650617D01*
X180898544Y-73627577D01*
X180898546Y-73627574D01*
X180898549Y-73627573D01*
X181065173Y-73460949D01*
X181112011Y-73394058D01*
X181200329Y-73267925D01*
X181200329Y-73267924D01*
X181200331Y-73267922D01*
X181299918Y-73054358D01*
X181360906Y-72826745D01*
X181381444Y-72592000D01*
X181677756Y-72592000D01*
X181698294Y-72826748D01*
X181759281Y-73054356D01*
X181759283Y-73054360D01*
X181858870Y-73267925D01*
X181994022Y-73460944D01*
X181994031Y-73460954D01*
X182160645Y-73627568D01*
X182160655Y-73627577D01*
X182353674Y-73762729D01*
X182353673Y-73762729D01*
X182429596Y-73798132D01*
X182567242Y-73862318D01*
X182794855Y-73923306D01*
X183029600Y-73943844D01*
X183264345Y-73923306D01*
X183491958Y-73862318D01*
X183705522Y-73762731D01*
X183865639Y-73650617D01*
X183898544Y-73627577D01*
X183898546Y-73627574D01*
X183898549Y-73627573D01*
X184065173Y-73460949D01*
X184112011Y-73394058D01*
X184200329Y-73267925D01*
X184200329Y-73267924D01*
X184200331Y-73267922D01*
X184299918Y-73054358D01*
X184360906Y-72826745D01*
X184381444Y-72592000D01*
X184677756Y-72592000D01*
X184698294Y-72826748D01*
X184759281Y-73054356D01*
X184759283Y-73054360D01*
X184858870Y-73267925D01*
X184994022Y-73460944D01*
X184994031Y-73460954D01*
X185160645Y-73627568D01*
X185160655Y-73627577D01*
X185353674Y-73762729D01*
X185353673Y-73762729D01*
X185429596Y-73798132D01*
X185567242Y-73862318D01*
X185794855Y-73923306D01*
X186029600Y-73943844D01*
X186264345Y-73923306D01*
X186491958Y-73862318D01*
X186705522Y-73762731D01*
X186865639Y-73650617D01*
X186898544Y-73627577D01*
X186898546Y-73627574D01*
X186898549Y-73627573D01*
X187065173Y-73460949D01*
X187184856Y-73290022D01*
X187240310Y-73245696D01*
X187310929Y-73238387D01*
X187374290Y-73270417D01*
X187406791Y-73320099D01*
X187433075Y-73394054D01*
X187433076Y-73394057D01*
X187433077Y-73394058D01*
X187554076Y-73627577D01*
X187559492Y-73638028D01*
X187627397Y-73734227D01*
X187717943Y-73862502D01*
X187905489Y-74063314D01*
X188118631Y-74236718D01*
X188353400Y-74379484D01*
X188605423Y-74488953D01*
X188870004Y-74563085D01*
X188965104Y-74576156D01*
X189142204Y-74600499D01*
X189142215Y-74600500D01*
X189416985Y-74600500D01*
X189416995Y-74600499D01*
X189546545Y-74582692D01*
X189689196Y-74563085D01*
X189953777Y-74488953D01*
X190205800Y-74379484D01*
X190440569Y-74236718D01*
X190653711Y-74063314D01*
X190841257Y-73862502D01*
X190999711Y-73638023D01*
X191126123Y-73394058D01*
X191218138Y-73135153D01*
X191274042Y-72866130D01*
X191277166Y-72820465D01*
X191292793Y-72592004D01*
X191292793Y-72591995D01*
X191274043Y-72317883D01*
X191274042Y-72317877D01*
X191274042Y-72317870D01*
X191218138Y-72048847D01*
X191126123Y-71789942D01*
X190999711Y-71545977D01*
X190841257Y-71321498D01*
X190653711Y-71120686D01*
X190440569Y-70947282D01*
X190205800Y-70804516D01*
X190205801Y-70804516D01*
X190205797Y-70804514D01*
X189953780Y-70695048D01*
X189953778Y-70695047D01*
X189953777Y-70695047D01*
X189821486Y-70657981D01*
X189689193Y-70620914D01*
X189416995Y-70583500D01*
X189416985Y-70583500D01*
X189142215Y-70583500D01*
X189142204Y-70583500D01*
X188870006Y-70620914D01*
X188605419Y-70695048D01*
X188353402Y-70804514D01*
X188118628Y-70947284D01*
X187905486Y-71120688D01*
X187717943Y-71321498D01*
X187559492Y-71545971D01*
X187433075Y-71789945D01*
X187406791Y-71863900D01*
X187365131Y-71921389D01*
X187299004Y-71947228D01*
X187229404Y-71933215D01*
X187184854Y-71893975D01*
X187065173Y-71723051D01*
X187065170Y-71723048D01*
X187065168Y-71723045D01*
X186898554Y-71556431D01*
X186898544Y-71556422D01*
X186705525Y-71421270D01*
X186705526Y-71421270D01*
X186491960Y-71321683D01*
X186491956Y-71321681D01*
X186264348Y-71260694D01*
X186029600Y-71240156D01*
X185794851Y-71260694D01*
X185567243Y-71321681D01*
X185567239Y-71321683D01*
X185353674Y-71421270D01*
X185160655Y-71556422D01*
X185160645Y-71556431D01*
X184994031Y-71723045D01*
X184994022Y-71723055D01*
X184858870Y-71916074D01*
X184759283Y-72129639D01*
X184759281Y-72129643D01*
X184698294Y-72357251D01*
X184677756Y-72592000D01*
X184381444Y-72592000D01*
X184360906Y-72357255D01*
X184299918Y-72129642D01*
X184200331Y-71916078D01*
X184200330Y-71916077D01*
X184200329Y-71916074D01*
X184065177Y-71723055D01*
X184065168Y-71723045D01*
X183898554Y-71556431D01*
X183898544Y-71556422D01*
X183705525Y-71421270D01*
X183705526Y-71421270D01*
X183491960Y-71321683D01*
X183491956Y-71321681D01*
X183264348Y-71260694D01*
X183029600Y-71240156D01*
X182794851Y-71260694D01*
X182567243Y-71321681D01*
X182567239Y-71321683D01*
X182353674Y-71421270D01*
X182160655Y-71556422D01*
X182160645Y-71556431D01*
X181994031Y-71723045D01*
X181994022Y-71723055D01*
X181858870Y-71916074D01*
X181759283Y-72129639D01*
X181759281Y-72129643D01*
X181698294Y-72357251D01*
X181677756Y-72592000D01*
X181381444Y-72592000D01*
X181360906Y-72357255D01*
X181299918Y-72129642D01*
X181200331Y-71916078D01*
X181200330Y-71916077D01*
X181200329Y-71916074D01*
X181065177Y-71723055D01*
X181065168Y-71723045D01*
X180898554Y-71556431D01*
X180898544Y-71556422D01*
X180705525Y-71421270D01*
X180705526Y-71421270D01*
X180491960Y-71321683D01*
X180491956Y-71321681D01*
X180264348Y-71260694D01*
X180029600Y-71240156D01*
X179794851Y-71260694D01*
X179567243Y-71321681D01*
X179567239Y-71321683D01*
X179353674Y-71421270D01*
X179160655Y-71556422D01*
X179160645Y-71556431D01*
X178994031Y-71723045D01*
X178994022Y-71723055D01*
X178874345Y-71893974D01*
X178818888Y-71938303D01*
X178748269Y-71945612D01*
X178684908Y-71913582D01*
X178652407Y-71863899D01*
X178626123Y-71789942D01*
X178499711Y-71545977D01*
X178341257Y-71321498D01*
X178153711Y-71120686D01*
X177940569Y-70947282D01*
X177705800Y-70804516D01*
X177705801Y-70804516D01*
X177705797Y-70804514D01*
X177453780Y-70695048D01*
X177453778Y-70695047D01*
X177453777Y-70695047D01*
X177321486Y-70657981D01*
X177189193Y-70620914D01*
X176916995Y-70583500D01*
X176916985Y-70583500D01*
X176642215Y-70583500D01*
X176642204Y-70583500D01*
X176370006Y-70620914D01*
X176105419Y-70695048D01*
X175853402Y-70804514D01*
X175618628Y-70947284D01*
X175405486Y-71120688D01*
X175217943Y-71321498D01*
X175059492Y-71545971D01*
X174933077Y-71789941D01*
X174841062Y-72048845D01*
X174841060Y-72048853D01*
X174785157Y-72317877D01*
X174785156Y-72317883D01*
X174766407Y-72591995D01*
X174766407Y-72592004D01*
X85057227Y-72592004D01*
X85116235Y-72427692D01*
X85117428Y-72424622D01*
X85119167Y-72420476D01*
X85281108Y-72034282D01*
X85282405Y-72031400D01*
X85466204Y-71649215D01*
X85467618Y-71646453D01*
X85670811Y-71273134D01*
X85672314Y-71270527D01*
X85894212Y-70906737D01*
X85895847Y-70904198D01*
X86135687Y-70550710D01*
X86137434Y-70548264D01*
X86145675Y-70537284D01*
X86394523Y-70205731D01*
X86396317Y-70203456D01*
X86669972Y-69872536D01*
X86671843Y-69870379D01*
X86961311Y-69551810D01*
X86963300Y-69549722D01*
X87119802Y-69392725D01*
X87267834Y-69244225D01*
X87269891Y-69242253D01*
X87588824Y-68950473D01*
X87590964Y-68948604D01*
X87923553Y-68671251D01*
X87925788Y-68669474D01*
X88271281Y-68407268D01*
X88273579Y-68405606D01*
X88631304Y-68159197D01*
X88633698Y-68157629D01*
X89002876Y-67927751D01*
X89005339Y-67926296D01*
X89385278Y-67713614D01*
X89387860Y-67712246D01*
X89777836Y-67517451D01*
X89780508Y-67516197D01*
X89780671Y-67516125D01*
X90179751Y-67339998D01*
X90182512Y-67338857D01*
X90590362Y-67181911D01*
X90593201Y-67180898D01*
X91008889Y-67043909D01*
X91011841Y-67043017D01*
X91434664Y-66926662D01*
X91437723Y-66925902D01*
X91620576Y-66885416D01*
X91866922Y-66830872D01*
X91870108Y-66830252D01*
X92079836Y-66795031D01*
X92305009Y-66757216D01*
X92308220Y-66756763D01*
X92748144Y-66706401D01*
X92751429Y-66706113D01*
X93195596Y-66679115D01*
X93198973Y-66679001D01*
X93637160Y-66676110D01*
X93646551Y-66676110D01*
X105645286Y-66676110D01*
X105649396Y-66676244D01*
G37*
G04 #@! TD.AperFunction*
M02*
