G04 #@! TF.GenerationSoftware,KiCad,Pcbnew,7.99.0-unknown-c07e9c834f~172~ubuntu22.04.1*
G04 #@! TF.CreationDate,2023-09-07T22:01:39+09:00*
G04 #@! TF.ProjectId,bGeigieZen V3.0.0,62476569-6769-4655-9a65-6e2056332e30,V2.1.2*
G04 #@! TF.SameCoordinates,Original*
G04 #@! TF.FileFunction,Copper,L2,Bot*
G04 #@! TF.FilePolarity,Positive*
%FSLAX46Y46*%
G04 Gerber Fmt 4.6, Leading zero omitted, Abs format (unit mm)*
G04 Created by KiCad (PCBNEW 7.99.0-unknown-c07e9c834f~172~ubuntu22.04.1) date 2023-09-07 22:01:39*
%MOMM*%
%LPD*%
G01*
G04 APERTURE LIST*
G04 #@! TA.AperFunction,ComponentPad*
%ADD10R,1.700000X1.700000*%
G04 #@! TD*
G04 #@! TA.AperFunction,ComponentPad*
%ADD11O,1.700000X1.700000*%
G04 #@! TD*
G04 #@! TA.AperFunction,ComponentPad*
%ADD12C,1.676400*%
G04 #@! TD*
G04 #@! TA.AperFunction,ComponentPad*
%ADD13C,3.000000*%
G04 #@! TD*
G04 #@! TA.AperFunction,ComponentPad*
%ADD14R,1.350000X1.350000*%
G04 #@! TD*
G04 #@! TA.AperFunction,ComponentPad*
%ADD15O,1.350000X1.350000*%
G04 #@! TD*
G04 #@! TA.AperFunction,ComponentPad*
%ADD16C,2.743200*%
G04 #@! TD*
G04 #@! TA.AperFunction,SMDPad,CuDef*
%ADD17R,12.000000X12.000000*%
G04 #@! TD*
G04 #@! TA.AperFunction,ViaPad*
%ADD18C,0.300000*%
G04 #@! TD*
G04 #@! TA.AperFunction,Conductor*
%ADD19C,0.250000*%
G04 #@! TD*
G04 #@! TA.AperFunction,Conductor*
%ADD20C,0.500000*%
G04 #@! TD*
G04 APERTURE END LIST*
D10*
X141452600Y-116407000D03*
D11*
X141452600Y-118947000D03*
X138912600Y-116407000D03*
X138912600Y-118947000D03*
X136372600Y-116407000D03*
X136372600Y-118947000D03*
X133832600Y-116407000D03*
X133832600Y-118947000D03*
X131292600Y-116407000D03*
X131292600Y-118947000D03*
X128752600Y-116407000D03*
X128752600Y-118947000D03*
X126212600Y-116407000D03*
X126212600Y-118947000D03*
X123672600Y-116407000D03*
X123672600Y-118947000D03*
X121132600Y-116407000D03*
X121132600Y-118947000D03*
X118592600Y-116407000D03*
X118592600Y-118947000D03*
X116052600Y-116407000D03*
X116052600Y-118947000D03*
X113512600Y-116407000D03*
X113512600Y-118947000D03*
X110972600Y-116407000D03*
X110972600Y-118947000D03*
X108432600Y-116407000D03*
X108432600Y-118947000D03*
X105892600Y-116407000D03*
X105892600Y-118947000D03*
D10*
X210033000Y-90499000D03*
D11*
X207493000Y-90499000D03*
D10*
X152882600Y-96087000D03*
D11*
X152882600Y-93547000D03*
X152882600Y-91007000D03*
X152882600Y-88467000D03*
X152882600Y-85927000D03*
X152882600Y-83387000D03*
D12*
X186029600Y-72592000D03*
X183029600Y-72592000D03*
X180029600Y-72592000D03*
D13*
X189279600Y-72592000D03*
X176779600Y-72592000D03*
D10*
X210037600Y-104977000D03*
D11*
X207497600Y-104977000D03*
D10*
X161121600Y-106925000D03*
D11*
X161121600Y-104385000D03*
D10*
X191067600Y-90470000D03*
D11*
X193607600Y-90470000D03*
X196147600Y-90470000D03*
D10*
X207108000Y-95330000D03*
D11*
X207108000Y-97870000D03*
X207108000Y-100410000D03*
D10*
X182727600Y-105104000D03*
D11*
X182632043Y-102138500D03*
D14*
X197078600Y-114375000D03*
D15*
X197078600Y-116375000D03*
X197078600Y-118375000D03*
X197078600Y-120375000D03*
D10*
X182727600Y-90245000D03*
D11*
X182727600Y-92785000D03*
D16*
X207925600Y-117150000D03*
D17*
X204497600Y-117150000D03*
X149697600Y-116940000D03*
D16*
X153417600Y-119670000D03*
X153417600Y-114590000D03*
X146669600Y-117130000D03*
X201177600Y-114610000D03*
X201177600Y-119690000D03*
D18*
X146285000Y-90835200D03*
D19*
X123673000Y-114188000D02*
X123673000Y-114928000D01*
X123673000Y-115667500D02*
X123672600Y-115667900D01*
X123673000Y-114928000D02*
X123673000Y-115667500D01*
X123673000Y-115667500D02*
X123673000Y-116407000D01*
X123673000Y-114188000D02*
X123673000Y-114928000D01*
X123672600Y-115667900D02*
X123672600Y-116407000D01*
X123673000Y-113448000D02*
X123673000Y-114188000D01*
X146285000Y-90835200D02*
X123673000Y-113448000D01*
X152882600Y-91007000D02*
X152883000Y-91007400D01*
X125985000Y-120450000D02*
X142054000Y-120450000D01*
X123673000Y-118947000D02*
X124849000Y-118947000D01*
X142054000Y-120450000D02*
X143121000Y-119383000D01*
X123673000Y-118947000D02*
X123672600Y-118947000D01*
X124849000Y-119315000D02*
X125985000Y-120450000D01*
X143121000Y-119383000D02*
X143121000Y-100769000D01*
X124849000Y-118947000D02*
X124849000Y-119315000D01*
X143121000Y-100769000D02*
X152883000Y-91007400D01*
D20*
X152883000Y-85927200D02*
X152882800Y-85927200D01*
X200646000Y-90470000D02*
X196148000Y-90470000D01*
X196148000Y-90470000D02*
X196147600Y-90470000D01*
X128753000Y-113232000D02*
X128752600Y-113232400D01*
X207108000Y-95330000D02*
X205506000Y-95330000D01*
X128753000Y-113232000D02*
X128753000Y-110057000D01*
X128753000Y-116407000D02*
X128753000Y-113232000D01*
X205506000Y-95330000D02*
X200646000Y-90470000D01*
X152883000Y-85927200D02*
X152883000Y-85927000D01*
X128753000Y-110057000D02*
X152883000Y-85927400D01*
X152882800Y-85927200D02*
X152882600Y-85927000D01*
X128752600Y-113232400D02*
X128752600Y-116407000D01*
X152883000Y-85927400D02*
X152883000Y-85927200D01*
X200711000Y-117150000D02*
X198780000Y-115219000D01*
X207926000Y-117150000D02*
X207925600Y-117150000D01*
X182728000Y-103836000D02*
X182632000Y-103740000D01*
X183528500Y-105104000D02*
X182727600Y-105104000D01*
X204497600Y-117150000D02*
X200711000Y-117150000D01*
X182632000Y-102138000D02*
X184329300Y-100440700D01*
X184329300Y-73891700D02*
X183029600Y-72592000D01*
X198780000Y-113592000D02*
X197801000Y-112614000D01*
X184329300Y-100440700D02*
X184329300Y-73891700D01*
X182728000Y-105104000D02*
X182728000Y-103836000D01*
X198780000Y-115219000D02*
X198780000Y-113592000D01*
X184329000Y-105104000D02*
X183528500Y-105104000D01*
X207925600Y-117150000D02*
X204497600Y-117150000D01*
X197801000Y-112614000D02*
X191839000Y-112614000D01*
X183528500Y-105104000D02*
X182728000Y-105104000D01*
X182632000Y-103740000D02*
X182632000Y-102138500D01*
X182632000Y-102138000D02*
X182632000Y-102138500D01*
X191839000Y-112614000D02*
X184329000Y-105104000D01*
D19*
X187185000Y-123267000D02*
X196077000Y-114375000D01*
X121133000Y-118947000D02*
X121132600Y-118947000D01*
X122309000Y-118947000D02*
X122309000Y-119315000D01*
X196077000Y-114375000D02*
X197078600Y-114375000D01*
X197078600Y-114375000D02*
X197079000Y-114375000D01*
X122309000Y-119315000D02*
X126261000Y-123267000D01*
X126261000Y-123267000D02*
X187185000Y-123267000D01*
X121133000Y-118947000D02*
X122309000Y-118947000D01*
D20*
X106613000Y-115687000D02*
X106612000Y-115687000D01*
X174263000Y-81080200D02*
X141219000Y-81080200D01*
X106072500Y-116227000D02*
X105982800Y-116317000D01*
X105893000Y-116407000D02*
X106613000Y-115687000D01*
X105892600Y-116407000D02*
X105893000Y-116407000D01*
X106612000Y-115687000D02*
X106252000Y-116047000D01*
X106252000Y-116047000D02*
X106072500Y-116227000D01*
X105982800Y-116317000D02*
X105893000Y-116407000D01*
X106252000Y-116047000D02*
X106072500Y-116227000D01*
X141219000Y-81080200D02*
X106613000Y-115687000D01*
X180029600Y-72592000D02*
X180029600Y-73790000D01*
X106072500Y-116227000D02*
X105982800Y-116317000D01*
X105982800Y-116317000D02*
X105893000Y-116407000D01*
X174263000Y-79556600D02*
X174263000Y-81080200D01*
X180029600Y-73790000D02*
X174263000Y-79556600D01*
D19*
X151068000Y-116940000D02*
X151068000Y-117320000D01*
X149508000Y-117130000D02*
X149697600Y-116940400D01*
X159746000Y-114590000D02*
X181551000Y-92785000D01*
X153417600Y-119669600D02*
X153417600Y-119670000D01*
X149698000Y-116940000D02*
X151068000Y-116940000D01*
X149697600Y-116940400D02*
X149697600Y-116940000D01*
X146669600Y-117130000D02*
X146670000Y-117130000D01*
X149697600Y-116940400D02*
X149698000Y-116940000D01*
X153418000Y-114590000D02*
X159746000Y-114590000D01*
X181551000Y-92785000D02*
X182727600Y-92785000D01*
X146670000Y-117130000D02*
X149508000Y-117130000D01*
X153417600Y-114590400D02*
X153418000Y-114590000D01*
X182727600Y-92785000D02*
X182728000Y-92785000D01*
X151068000Y-116940000D02*
X153417600Y-114590400D01*
X153417600Y-119669600D02*
X153418000Y-119670000D01*
X151068000Y-117320000D02*
X153417600Y-119669600D01*
X153417600Y-114590400D02*
X153417600Y-114590000D01*
G04 #@! TA.AperFunction,Conductor*
G36*
X209573507Y-90289156D02*
G01*
X209533000Y-90427111D01*
X209533000Y-90570889D01*
X209573507Y-90708844D01*
X209601884Y-90753000D01*
X207924116Y-90753000D01*
X207952493Y-90708844D01*
X207993000Y-90570889D01*
X207993000Y-90427111D01*
X207952493Y-90289156D01*
X207924116Y-90245000D01*
X209601884Y-90245000D01*
X209573507Y-90289156D01*
G37*
G04 #@! TD.AperFunction*
G04 #@! TA.AperFunction,Conductor*
G36*
X105649396Y-66676244D02*
G01*
X105784600Y-66685081D01*
X105796947Y-66685888D01*
X105946263Y-66700295D01*
X106094980Y-66719274D01*
X106242937Y-66742774D01*
X106389999Y-66770744D01*
X106536079Y-66803149D01*
X106681030Y-66839937D01*
X106824682Y-66881056D01*
X106966950Y-66926470D01*
X107107649Y-66976116D01*
X107246691Y-67029963D01*
X107383894Y-67087946D01*
X107519153Y-67150028D01*
X107652357Y-67216172D01*
X107783309Y-67286301D01*
X107911856Y-67360353D01*
X108677573Y-67839441D01*
X108680734Y-67841674D01*
X108685151Y-67844185D01*
X108688689Y-67845760D01*
X109138537Y-68077291D01*
X109484374Y-68255289D01*
X109487632Y-68257210D01*
X109487739Y-68257255D01*
X109492403Y-68259422D01*
X109492510Y-68259477D01*
X109496082Y-68260727D01*
X110321753Y-68604455D01*
X110325081Y-68606077D01*
X110325382Y-68606176D01*
X110330035Y-68607903D01*
X110330356Y-68608036D01*
X110333931Y-68608976D01*
X111184637Y-68887549D01*
X111188028Y-68888891D01*
X111188540Y-68889017D01*
X111193113Y-68890326D01*
X111193628Y-68890494D01*
X111197206Y-68891147D01*
X111848462Y-69051245D01*
X112067988Y-69105211D01*
X112071410Y-69106281D01*
X112072136Y-69106404D01*
X112076654Y-69107341D01*
X112077380Y-69107519D01*
X112080948Y-69107898D01*
X112966892Y-69258099D01*
X112970333Y-69258906D01*
X112971144Y-69258985D01*
X112975656Y-69259586D01*
X112976465Y-69259723D01*
X112979998Y-69259844D01*
X113876181Y-69346824D01*
X113879629Y-69347380D01*
X113880576Y-69347406D01*
X113885001Y-69347680D01*
X113885980Y-69347775D01*
X113889475Y-69347646D01*
X114520944Y-69364732D01*
X114790930Y-69372038D01*
X114794376Y-69372351D01*
X114795414Y-69372308D01*
X114799762Y-69372276D01*
X114800840Y-69372305D01*
X114804284Y-69371938D01*
X115706087Y-69334376D01*
X115709546Y-69334453D01*
X115710620Y-69334335D01*
X115714967Y-69334006D01*
X115716033Y-69333962D01*
X115719428Y-69333365D01*
X115902885Y-69313145D01*
X116616679Y-69234473D01*
X116620124Y-69234316D01*
X116621167Y-69234128D01*
X116625487Y-69233503D01*
X116626558Y-69233385D01*
X116629911Y-69232555D01*
X117517642Y-69072967D01*
X117521078Y-69072573D01*
X117522055Y-69072327D01*
X117526344Y-69071403D01*
X117527394Y-69071214D01*
X117530706Y-69070151D01*
X117818036Y-68997876D01*
X118403965Y-68850492D01*
X118407393Y-68849857D01*
X118408314Y-68849556D01*
X118412573Y-68848326D01*
X118413533Y-68848084D01*
X118416776Y-68846789D01*
X119270625Y-68567685D01*
X119274048Y-68566801D01*
X119274857Y-68566472D01*
X119279095Y-68564918D01*
X119279936Y-68564643D01*
X119283112Y-68563109D01*
X120112655Y-68225165D01*
X120116046Y-68224022D01*
X120116676Y-68223710D01*
X120120936Y-68221791D01*
X120121599Y-68221521D01*
X120124695Y-68219740D01*
X120925003Y-67823568D01*
X120928353Y-67822156D01*
X120928815Y-67821883D01*
X120933028Y-67819597D01*
X120933520Y-67819353D01*
X120936546Y-67817302D01*
X120936550Y-67817300D01*
X121705781Y-67361668D01*
X121709439Y-67359661D01*
X121971999Y-67227014D01*
X122012610Y-67208126D01*
X122242314Y-67101292D01*
X122379464Y-67042359D01*
X122517991Y-66986488D01*
X122657863Y-66934046D01*
X122798995Y-66885416D01*
X122941410Y-66840939D01*
X123085108Y-66800970D01*
X123230044Y-66765876D01*
X123376132Y-66736027D01*
X123523443Y-66711764D01*
X123671929Y-66693450D01*
X123821551Y-66681446D01*
X123972373Y-66676110D01*
X128628905Y-66676110D01*
X128633015Y-66676244D01*
X128780567Y-66685888D01*
X128929883Y-66700295D01*
X129078599Y-66719274D01*
X129152579Y-66731024D01*
X129226558Y-66742774D01*
X129373620Y-66770744D01*
X129519700Y-66803149D01*
X129664651Y-66839937D01*
X129808303Y-66881056D01*
X129910272Y-66913606D01*
X129950571Y-66926470D01*
X130091271Y-66976116D01*
X130230284Y-67029951D01*
X130367516Y-67087946D01*
X130502775Y-67150028D01*
X130635954Y-67216159D01*
X130766932Y-67286301D01*
X130895429Y-67360325D01*
X131323947Y-67628436D01*
X131661188Y-67839438D01*
X131664348Y-67841671D01*
X131668770Y-67844185D01*
X131672308Y-67845760D01*
X132122156Y-68077291D01*
X132467993Y-68255289D01*
X132471251Y-68257210D01*
X132471358Y-68257255D01*
X132476022Y-68259422D01*
X132476129Y-68259477D01*
X132479701Y-68260727D01*
X133305372Y-68604455D01*
X133308700Y-68606077D01*
X133309001Y-68606176D01*
X133313654Y-68607903D01*
X133313975Y-68608036D01*
X133317550Y-68608976D01*
X134168255Y-68887549D01*
X134171646Y-68888891D01*
X134172158Y-68889017D01*
X134176731Y-68890326D01*
X134177246Y-68890494D01*
X134180824Y-68891147D01*
X134832080Y-69051245D01*
X135051606Y-69105211D01*
X135055028Y-69106281D01*
X135055754Y-69106404D01*
X135060272Y-69107341D01*
X135060998Y-69107519D01*
X135064566Y-69107898D01*
X135950510Y-69258099D01*
X135953951Y-69258906D01*
X135954762Y-69258985D01*
X135959274Y-69259586D01*
X135960083Y-69259723D01*
X135963616Y-69259844D01*
X136859798Y-69346824D01*
X136863246Y-69347380D01*
X136864193Y-69347406D01*
X136868618Y-69347680D01*
X136869597Y-69347775D01*
X136873092Y-69347646D01*
X137504561Y-69364732D01*
X137774547Y-69372038D01*
X137777993Y-69372351D01*
X137779031Y-69372308D01*
X137783379Y-69372276D01*
X137784457Y-69372305D01*
X137787901Y-69371938D01*
X138689704Y-69334376D01*
X138693163Y-69334453D01*
X138694237Y-69334335D01*
X138698584Y-69334006D01*
X138699650Y-69333962D01*
X138703045Y-69333365D01*
X138886502Y-69313145D01*
X139600296Y-69234473D01*
X139603741Y-69234316D01*
X139604784Y-69234128D01*
X139609104Y-69233503D01*
X139610175Y-69233385D01*
X139613528Y-69232555D01*
X140501259Y-69072967D01*
X140504695Y-69072573D01*
X140505672Y-69072327D01*
X140509961Y-69071403D01*
X140511011Y-69071214D01*
X140514323Y-69070151D01*
X140994724Y-68949311D01*
X141387581Y-68850492D01*
X141391009Y-68849857D01*
X141391930Y-68849556D01*
X141396189Y-68848326D01*
X141397151Y-68848084D01*
X141400398Y-68846788D01*
X142254243Y-68567685D01*
X142257656Y-68566804D01*
X142258469Y-68566473D01*
X142262703Y-68564920D01*
X142263561Y-68564639D01*
X142266737Y-68563104D01*
X143012179Y-68259422D01*
X143096269Y-68225165D01*
X143099660Y-68224022D01*
X143100290Y-68223710D01*
X143104550Y-68221791D01*
X143105213Y-68221521D01*
X143108309Y-68219740D01*
X143908606Y-67823573D01*
X143911953Y-67822162D01*
X143912420Y-67821886D01*
X143916641Y-67819596D01*
X143917140Y-67819349D01*
X143920159Y-67817302D01*
X144689375Y-67361679D01*
X144693048Y-67359665D01*
X144955615Y-67227014D01*
X145225932Y-67101291D01*
X145363080Y-67042359D01*
X145393845Y-67029951D01*
X145501609Y-66986489D01*
X145641480Y-66934046D01*
X145782613Y-66885416D01*
X145925029Y-66840939D01*
X146068727Y-66800970D01*
X146213661Y-66765876D01*
X146359751Y-66736027D01*
X146507063Y-66711764D01*
X146655548Y-66693450D01*
X146805171Y-66681446D01*
X146955993Y-66676110D01*
X151612525Y-66676110D01*
X151616635Y-66676244D01*
X151751839Y-66685081D01*
X151764186Y-66685888D01*
X151913502Y-66700295D01*
X152062218Y-66719274D01*
X152210176Y-66742774D01*
X152357237Y-66770744D01*
X152503317Y-66803149D01*
X152648268Y-66839937D01*
X152791920Y-66881056D01*
X152934188Y-66926470D01*
X153046756Y-66966190D01*
X153074887Y-66976116D01*
X153213900Y-67029951D01*
X153351132Y-67087946D01*
X153486390Y-67150027D01*
X153619593Y-67216172D01*
X153716279Y-67267951D01*
X153750557Y-67286308D01*
X153879262Y-67360452D01*
X154644816Y-67839438D01*
X154647976Y-67841671D01*
X154652398Y-67844185D01*
X154655936Y-67845760D01*
X155451626Y-68255293D01*
X155454874Y-68257209D01*
X155454966Y-68257247D01*
X155459631Y-68259414D01*
X155459753Y-68259476D01*
X155463328Y-68260728D01*
X156289001Y-68604457D01*
X156292329Y-68606079D01*
X156292630Y-68606178D01*
X156297283Y-68607905D01*
X156297604Y-68608038D01*
X156301179Y-68608978D01*
X156972113Y-68828684D01*
X157151855Y-68887543D01*
X157155256Y-68888890D01*
X157155801Y-68889024D01*
X157160375Y-68890333D01*
X157160907Y-68890507D01*
X157164491Y-68891159D01*
X157766881Y-69039244D01*
X158035236Y-69105214D01*
X158038658Y-69106284D01*
X158039384Y-69106407D01*
X158043902Y-69107344D01*
X158044628Y-69107522D01*
X158048196Y-69107901D01*
X158934143Y-69258104D01*
X158937583Y-69258910D01*
X158938392Y-69258989D01*
X158942904Y-69259590D01*
X158943713Y-69259727D01*
X158947247Y-69259848D01*
X159843427Y-69346829D01*
X159846876Y-69347385D01*
X159847824Y-69347411D01*
X159852249Y-69347685D01*
X159853228Y-69347780D01*
X159856723Y-69347651D01*
X160486413Y-69364690D01*
X160758178Y-69372044D01*
X160761624Y-69372357D01*
X160762662Y-69372314D01*
X160767010Y-69372282D01*
X160768088Y-69372311D01*
X160771532Y-69371944D01*
X161673336Y-69334382D01*
X161676795Y-69334459D01*
X161677869Y-69334341D01*
X161682216Y-69334012D01*
X161683284Y-69333968D01*
X161686679Y-69333371D01*
X162016051Y-69297068D01*
X162583927Y-69234480D01*
X162587373Y-69234322D01*
X162588415Y-69234135D01*
X162592735Y-69233510D01*
X162593806Y-69233392D01*
X162597159Y-69232562D01*
X163484891Y-69072974D01*
X163488327Y-69072580D01*
X163489304Y-69072334D01*
X163493593Y-69071410D01*
X163494639Y-69071222D01*
X163497947Y-69070159D01*
X164371190Y-68850502D01*
X164374623Y-68849869D01*
X164375572Y-68849559D01*
X164379828Y-68848330D01*
X164380757Y-68848096D01*
X164383984Y-68846809D01*
X165237876Y-68567690D01*
X165241289Y-68566809D01*
X165242102Y-68566478D01*
X165246336Y-68564925D01*
X165247194Y-68564644D01*
X165250370Y-68563109D01*
X165995690Y-68259477D01*
X166079898Y-68225172D01*
X166083281Y-68224032D01*
X166083955Y-68223699D01*
X166088152Y-68221809D01*
X166088855Y-68221522D01*
X166091947Y-68219743D01*
X166892248Y-67823571D01*
X166895593Y-67822161D01*
X166896055Y-67821888D01*
X166900276Y-67819598D01*
X166900771Y-67819352D01*
X166903786Y-67817308D01*
X167673072Y-67361642D01*
X167676762Y-67359620D01*
X167939239Y-67227014D01*
X168209554Y-67101292D01*
X168346704Y-67042359D01*
X168485232Y-66986489D01*
X168625104Y-66934046D01*
X168766237Y-66885416D01*
X168908653Y-66840939D01*
X169052350Y-66800970D01*
X169197287Y-66765876D01*
X169343376Y-66736027D01*
X169490688Y-66711764D01*
X169639174Y-66693450D01*
X169788797Y-66681446D01*
X169939620Y-66676110D01*
X174596145Y-66676110D01*
X174600255Y-66676244D01*
X174735459Y-66685081D01*
X174747806Y-66685888D01*
X174897122Y-66700295D01*
X175045838Y-66719274D01*
X175193795Y-66742774D01*
X175340857Y-66770744D01*
X175486937Y-66803149D01*
X175631888Y-66839937D01*
X175775540Y-66881056D01*
X175917808Y-66926470D01*
X176030376Y-66966190D01*
X176058507Y-66976116D01*
X176197520Y-67029951D01*
X176334751Y-67087946D01*
X176470010Y-67150028D01*
X176603214Y-67216172D01*
X176734177Y-67286308D01*
X176862870Y-67360445D01*
X177628407Y-67839420D01*
X177631569Y-67841655D01*
X177636016Y-67844184D01*
X177639561Y-67845764D01*
X178435241Y-68255289D01*
X178438499Y-68257210D01*
X178438606Y-68257255D01*
X178443270Y-68259422D01*
X178443377Y-68259477D01*
X178446949Y-68260727D01*
X179272621Y-68604455D01*
X179275949Y-68606077D01*
X179276250Y-68606176D01*
X179280903Y-68607903D01*
X179281224Y-68608036D01*
X179284799Y-68608976D01*
X180135505Y-68887549D01*
X180138896Y-68888891D01*
X180139408Y-68889017D01*
X180143981Y-68890326D01*
X180144496Y-68890494D01*
X180148074Y-68891147D01*
X180799330Y-69051245D01*
X181018857Y-69105211D01*
X181022279Y-69106281D01*
X181023005Y-69106404D01*
X181027523Y-69107341D01*
X181028249Y-69107519D01*
X181031817Y-69107898D01*
X181917762Y-69258099D01*
X181921203Y-69258906D01*
X181922014Y-69258985D01*
X181926526Y-69259586D01*
X181927335Y-69259723D01*
X181930868Y-69259844D01*
X182827051Y-69346824D01*
X182830499Y-69347380D01*
X182831446Y-69347406D01*
X182835871Y-69347680D01*
X182836850Y-69347775D01*
X182840345Y-69347646D01*
X183471863Y-69364733D01*
X183741801Y-69372038D01*
X183745247Y-69372351D01*
X183746285Y-69372308D01*
X183750633Y-69372276D01*
X183751711Y-69372305D01*
X183755155Y-69371938D01*
X184656959Y-69334376D01*
X184660418Y-69334453D01*
X184661492Y-69334335D01*
X184665839Y-69334006D01*
X184666905Y-69333962D01*
X184670300Y-69333365D01*
X184853757Y-69313145D01*
X185567550Y-69234473D01*
X185570995Y-69234316D01*
X185572038Y-69234128D01*
X185576358Y-69233503D01*
X185577429Y-69233385D01*
X185580782Y-69232555D01*
X186468514Y-69072967D01*
X186471950Y-69072573D01*
X186472927Y-69072327D01*
X186477216Y-69071403D01*
X186478266Y-69071214D01*
X186481578Y-69070151D01*
X186961979Y-68949311D01*
X187354836Y-68850492D01*
X187358264Y-68849857D01*
X187359185Y-68849556D01*
X187363444Y-68848326D01*
X187364406Y-68848084D01*
X187367653Y-68846788D01*
X188221498Y-68567685D01*
X188224911Y-68566804D01*
X188225724Y-68566473D01*
X188229958Y-68564920D01*
X188230816Y-68564639D01*
X188233992Y-68563104D01*
X188979435Y-68259422D01*
X189063525Y-68225165D01*
X189066916Y-68224022D01*
X189067546Y-68223710D01*
X189071806Y-68221791D01*
X189072469Y-68221521D01*
X189075565Y-68219740D01*
X189875862Y-67823573D01*
X189879209Y-67822162D01*
X189879676Y-67821886D01*
X189883897Y-67819596D01*
X189884396Y-67819349D01*
X189887415Y-67817302D01*
X190656666Y-67361657D01*
X190660330Y-67359649D01*
X190922865Y-67227019D01*
X191193196Y-67101292D01*
X191330317Y-67042372D01*
X191468859Y-66986495D01*
X191608746Y-66934049D01*
X191749877Y-66885418D01*
X191892282Y-66840944D01*
X192035980Y-66800973D01*
X192180915Y-66765879D01*
X192327003Y-66736030D01*
X192474314Y-66711765D01*
X192622799Y-66693451D01*
X192772421Y-66681447D01*
X192923241Y-66676110D01*
X204906716Y-66676110D01*
X204907583Y-66676197D01*
X204907584Y-66676122D01*
X205044503Y-66677017D01*
X205371761Y-66679159D01*
X205375087Y-66679270D01*
X205819228Y-66706244D01*
X205822523Y-66706533D01*
X206262371Y-66756864D01*
X206265607Y-66757321D01*
X206700463Y-66830330D01*
X206703632Y-66830947D01*
X207132810Y-66925954D01*
X207135832Y-66926703D01*
X207558641Y-67043035D01*
X207561595Y-67043927D01*
X207977253Y-67180887D01*
X207980133Y-67181915D01*
X208387952Y-67338829D01*
X208390723Y-67339973D01*
X208615079Y-67438977D01*
X208789904Y-67516125D01*
X208792620Y-67517401D01*
X209182551Y-67712151D01*
X209185165Y-67713534D01*
X209341080Y-67800802D01*
X209565042Y-67926157D01*
X209567571Y-67927650D01*
X209936735Y-68157496D01*
X209939172Y-68159093D01*
X210172865Y-68320047D01*
X210273326Y-68389239D01*
X210296832Y-68405428D01*
X210299174Y-68407122D01*
X210563359Y-68607599D01*
X210644661Y-68669295D01*
X210646923Y-68671095D01*
X210909552Y-68890082D01*
X210963032Y-68934676D01*
X210979482Y-68948392D01*
X210981649Y-68950285D01*
X211300580Y-69242034D01*
X211302649Y-69244017D01*
X211607190Y-69549483D01*
X211609200Y-69551594D01*
X211898659Y-69870122D01*
X211900583Y-69872341D01*
X212174214Y-70203197D01*
X212176045Y-70205521D01*
X212426179Y-70538749D01*
X212433138Y-70548019D01*
X212434885Y-70550466D01*
X212674733Y-70903934D01*
X212676385Y-70906500D01*
X212898268Y-71270229D01*
X212899819Y-71272918D01*
X213103011Y-71646201D01*
X213104452Y-71649015D01*
X213288240Y-72031146D01*
X213289563Y-72034088D01*
X213295755Y-72048853D01*
X213450684Y-72418294D01*
X213453241Y-72424390D01*
X213454435Y-72427460D01*
X213597304Y-72825266D01*
X213598357Y-72828464D01*
X213719691Y-73233039D01*
X213720589Y-73236359D01*
X213819686Y-73647026D01*
X213820415Y-73650462D01*
X213896573Y-74066555D01*
X213897117Y-74070097D01*
X213921950Y-74269105D01*
X213949632Y-74490963D01*
X213949978Y-74494579D01*
X213978131Y-74919459D01*
X213978267Y-74923171D01*
X213981451Y-75364215D01*
X213981451Y-77071921D01*
X213981292Y-77076395D01*
X213971256Y-77217412D01*
X213956228Y-77360398D01*
X213936427Y-77502798D01*
X213936196Y-77504134D01*
X213911910Y-77644462D01*
X213882709Y-77785347D01*
X213848887Y-77925248D01*
X213810495Y-78064037D01*
X213767580Y-78201603D01*
X213720185Y-78337832D01*
X213668359Y-78472590D01*
X213612160Y-78605739D01*
X213551622Y-78737175D01*
X213486830Y-78866697D01*
X213417798Y-78994252D01*
X213344574Y-79119710D01*
X213268291Y-79241209D01*
X213266224Y-79244296D01*
X213014254Y-79597532D01*
X213011504Y-79600822D01*
X213008278Y-79605775D01*
X213008278Y-79605776D01*
X213007273Y-79607319D01*
X213006179Y-79608854D01*
X213002757Y-79613655D01*
X213000691Y-79617434D01*
X212801873Y-79922970D01*
X212767318Y-79976072D01*
X212765333Y-79978721D01*
X212764613Y-79979998D01*
X212762559Y-79983384D01*
X212761741Y-79984640D01*
X212760306Y-79987633D01*
X212330111Y-80750069D01*
X212328055Y-80753274D01*
X212328049Y-80753290D01*
X212325691Y-80757907D01*
X212325676Y-80757933D01*
X212324286Y-80761468D01*
X211960120Y-81553569D01*
X211958347Y-81556905D01*
X211958302Y-81557029D01*
X211956367Y-81561731D01*
X211956305Y-81561865D01*
X211955216Y-81565483D01*
X211657289Y-82381941D01*
X211655811Y-82385362D01*
X211655744Y-82385606D01*
X211654235Y-82390316D01*
X211654141Y-82390571D01*
X211653354Y-82394228D01*
X211421662Y-83230134D01*
X211420460Y-83233654D01*
X211420392Y-83234003D01*
X211419279Y-83238730D01*
X211419181Y-83239081D01*
X211418689Y-83242756D01*
X211253205Y-84093269D01*
X211252288Y-84096837D01*
X211252240Y-84097252D01*
X211251505Y-84102007D01*
X211251422Y-84102434D01*
X211251216Y-84106120D01*
X211151931Y-84966359D01*
X211151292Y-84969976D01*
X211151274Y-84970457D01*
X211150910Y-84975201D01*
X211150853Y-84975692D01*
X211150933Y-84979374D01*
X211117835Y-85844483D01*
X211117478Y-85848125D01*
X211117496Y-85848596D01*
X211117496Y-85853374D01*
X211117477Y-85853855D01*
X211117835Y-85857497D01*
X211150926Y-86722622D01*
X211150848Y-86726279D01*
X211150900Y-86726727D01*
X211151268Y-86731522D01*
X211151286Y-86731994D01*
X211151925Y-86735619D01*
X211220039Y-87325811D01*
X211251206Y-87595861D01*
X211251412Y-87599551D01*
X211251490Y-87599952D01*
X211252230Y-87604732D01*
X211252279Y-87605159D01*
X211253195Y-87608719D01*
X211418675Y-88459238D01*
X211419167Y-88462903D01*
X211419257Y-88463229D01*
X211420376Y-88467981D01*
X211420446Y-88468343D01*
X211421649Y-88471862D01*
X211653338Y-89307782D01*
X211654124Y-89311430D01*
X211654211Y-89311669D01*
X211655734Y-89316423D01*
X211655803Y-89316672D01*
X211657287Y-89320101D01*
X211687549Y-89403035D01*
X211955194Y-90136526D01*
X211956282Y-90140141D01*
X211956341Y-90140269D01*
X211958275Y-90144970D01*
X211958332Y-90145127D01*
X211960113Y-90148476D01*
X212324270Y-90940566D01*
X212325667Y-90944117D01*
X212328035Y-90948752D01*
X212328039Y-90948762D01*
X212330096Y-90951967D01*
X212718173Y-91639768D01*
X212760304Y-91714438D01*
X212761741Y-91717431D01*
X212762556Y-91718684D01*
X212764606Y-91722063D01*
X212765348Y-91723377D01*
X212767328Y-91726017D01*
X213000678Y-92084626D01*
X213002757Y-92088430D01*
X213007267Y-92094752D01*
X213011526Y-92101298D01*
X213014301Y-92104612D01*
X213265251Y-92456424D01*
X213268563Y-92461581D01*
X213405253Y-92699034D01*
X213411631Y-92710114D01*
X213481068Y-92838027D01*
X213547985Y-92967481D01*
X213611888Y-93098398D01*
X213672307Y-93230758D01*
X213728797Y-93364587D01*
X213780843Y-93499758D01*
X213814329Y-93596718D01*
X213827987Y-93636265D01*
X213869771Y-93774115D01*
X213905358Y-93911870D01*
X213906003Y-93914615D01*
X213935032Y-94052125D01*
X213935586Y-94055099D01*
X213957952Y-94193650D01*
X213958384Y-94196844D01*
X213973640Y-94336377D01*
X213973918Y-94339771D01*
X213981633Y-94480300D01*
X213981727Y-94483875D01*
X213981478Y-94613368D01*
X213981436Y-94613803D01*
X213981436Y-103196617D01*
X213981277Y-103201091D01*
X213971240Y-103342109D01*
X213956212Y-103485102D01*
X213936411Y-103627507D01*
X213911893Y-103769172D01*
X213882692Y-103910051D01*
X213848867Y-104049959D01*
X213810473Y-104188748D01*
X213784551Y-104271842D01*
X213767560Y-104326305D01*
X213720160Y-104462544D01*
X213668336Y-104597302D01*
X213612118Y-104730487D01*
X213567381Y-104827613D01*
X213551606Y-104861861D01*
X213486789Y-104991433D01*
X213417768Y-105118963D01*
X213344536Y-105244433D01*
X213268269Y-105365906D01*
X213266202Y-105368992D01*
X213014203Y-105722274D01*
X213011451Y-105725567D01*
X213008249Y-105730486D01*
X213007334Y-105731892D01*
X213007240Y-105732036D01*
X213002745Y-105738341D01*
X213000684Y-105742109D01*
X212767292Y-106100783D01*
X212765320Y-106103415D01*
X212764587Y-106104714D01*
X212762547Y-106108078D01*
X212761704Y-106109374D01*
X212760273Y-106112357D01*
X212330092Y-106874778D01*
X212328033Y-106877988D01*
X212328027Y-106878003D01*
X212325669Y-106882620D01*
X212325656Y-106882641D01*
X212324265Y-106886180D01*
X211960100Y-107678282D01*
X211958327Y-107681618D01*
X211958282Y-107681742D01*
X211956347Y-107686444D01*
X211956287Y-107686574D01*
X211955197Y-107690196D01*
X211657281Y-108506628D01*
X211655801Y-108510052D01*
X211655729Y-108510312D01*
X211654216Y-108515031D01*
X211654126Y-108515278D01*
X211653339Y-108518931D01*
X211515479Y-109016314D01*
X211421648Y-109354845D01*
X211420446Y-109358365D01*
X211420378Y-109358714D01*
X211419265Y-109363441D01*
X211419167Y-109363792D01*
X211418675Y-109367467D01*
X211253192Y-110217978D01*
X211252275Y-110221546D01*
X211252227Y-110221961D01*
X211251492Y-110226716D01*
X211251409Y-110227142D01*
X211251203Y-110230830D01*
X211179772Y-110849740D01*
X211152092Y-110915119D01*
X211093459Y-110955153D01*
X211022490Y-110957133D01*
X210961717Y-110920430D01*
X210953735Y-110910803D01*
X210860861Y-110786738D01*
X210743807Y-110699112D01*
X210743802Y-110699110D01*
X210606804Y-110648011D01*
X210606796Y-110648009D01*
X210546249Y-110641500D01*
X210546238Y-110641500D01*
X198448962Y-110641500D01*
X198448950Y-110641500D01*
X198388403Y-110648009D01*
X198388395Y-110648011D01*
X198251397Y-110699110D01*
X198251392Y-110699112D01*
X198134338Y-110786738D01*
X198046712Y-110903792D01*
X198046710Y-110903797D01*
X197995611Y-111040795D01*
X197995609Y-111040803D01*
X197989100Y-111101350D01*
X197989100Y-111727273D01*
X197969098Y-111795394D01*
X197915442Y-111841887D01*
X197866829Y-111853218D01*
X197789749Y-111855500D01*
X192205371Y-111855500D01*
X192137250Y-111835498D01*
X192116276Y-111818595D01*
X185274681Y-104977000D01*
X206134444Y-104977000D01*
X206147210Y-105131064D01*
X206153037Y-105201375D01*
X206208302Y-105419612D01*
X206208303Y-105419613D01*
X206208304Y-105419616D01*
X206298003Y-105624110D01*
X206298741Y-105625793D01*
X206421875Y-105814265D01*
X206421879Y-105814270D01*
X206534122Y-105936196D01*
X206561373Y-105965799D01*
X206574362Y-105979908D01*
X206603580Y-106002649D01*
X206752024Y-106118189D01*
X206950026Y-106225342D01*
X206950027Y-106225342D01*
X206950028Y-106225343D01*
X207061827Y-106263723D01*
X207162965Y-106298444D01*
X207385031Y-106335500D01*
X207385035Y-106335500D01*
X207610165Y-106335500D01*
X207610169Y-106335500D01*
X207832235Y-106298444D01*
X208045174Y-106225342D01*
X208243176Y-106118189D01*
X208420840Y-105979906D01*
X208481845Y-105913637D01*
X208542696Y-105877067D01*
X208613661Y-105879200D01*
X208672206Y-105919362D01*
X208692600Y-105954941D01*
X208736711Y-106073204D01*
X208736712Y-106073207D01*
X208824338Y-106190261D01*
X208941392Y-106277887D01*
X208941394Y-106277888D01*
X208941396Y-106277889D01*
X208996500Y-106298442D01*
X209078395Y-106328988D01*
X209078403Y-106328990D01*
X209138950Y-106335499D01*
X209138955Y-106335499D01*
X209138962Y-106335500D01*
X209138968Y-106335500D01*
X210936232Y-106335500D01*
X210936238Y-106335500D01*
X210936245Y-106335499D01*
X210936249Y-106335499D01*
X210996796Y-106328990D01*
X210996799Y-106328989D01*
X210996801Y-106328989D01*
X211133804Y-106277889D01*
X211203999Y-106225342D01*
X211250861Y-106190261D01*
X211338487Y-106073207D01*
X211338487Y-106073206D01*
X211338489Y-106073204D01*
X211389589Y-105936201D01*
X211389850Y-105933781D01*
X211396099Y-105875649D01*
X211396100Y-105875632D01*
X211396100Y-104078367D01*
X211396099Y-104078350D01*
X211389590Y-104017803D01*
X211389588Y-104017795D01*
X211351869Y-103916670D01*
X211338489Y-103880796D01*
X211338488Y-103880794D01*
X211338487Y-103880792D01*
X211250861Y-103763738D01*
X211133807Y-103676112D01*
X211133802Y-103676110D01*
X210996804Y-103625011D01*
X210996796Y-103625009D01*
X210936249Y-103618500D01*
X210936238Y-103618500D01*
X209138962Y-103618500D01*
X209138950Y-103618500D01*
X209078403Y-103625009D01*
X209078395Y-103625011D01*
X208941397Y-103676110D01*
X208941392Y-103676112D01*
X208824338Y-103763738D01*
X208736712Y-103880792D01*
X208736711Y-103880795D01*
X208692600Y-103999058D01*
X208650053Y-104055893D01*
X208583532Y-104080703D01*
X208514158Y-104065611D01*
X208481846Y-104040363D01*
X208420840Y-103974094D01*
X208420839Y-103974093D01*
X208420837Y-103974091D01*
X208336197Y-103908213D01*
X208243176Y-103835811D01*
X208045174Y-103728658D01*
X208045172Y-103728657D01*
X208045171Y-103728656D01*
X207832239Y-103655557D01*
X207832230Y-103655555D01*
X207788076Y-103648187D01*
X207610169Y-103618500D01*
X207385031Y-103618500D01*
X207236811Y-103643233D01*
X207162969Y-103655555D01*
X207162960Y-103655557D01*
X206950028Y-103728656D01*
X206950026Y-103728658D01*
X206812449Y-103803111D01*
X206752026Y-103835810D01*
X206752024Y-103835811D01*
X206574362Y-103974091D01*
X206421879Y-104139729D01*
X206421875Y-104139734D01*
X206298741Y-104328206D01*
X206208303Y-104534386D01*
X206208302Y-104534387D01*
X206153037Y-104752624D01*
X206153036Y-104752630D01*
X206153036Y-104752632D01*
X206134444Y-104977000D01*
X185274681Y-104977000D01*
X184910908Y-104613227D01*
X184898936Y-104599375D01*
X184897173Y-104597007D01*
X184884469Y-104579942D01*
X184884467Y-104579940D01*
X184844024Y-104546003D01*
X184839970Y-104542289D01*
X184834107Y-104536425D01*
X184831528Y-104534386D01*
X184808103Y-104515863D01*
X184748640Y-104465968D01*
X184748638Y-104465967D01*
X184748636Y-104465965D01*
X184742506Y-104461933D01*
X184742541Y-104461878D01*
X184736187Y-104457829D01*
X184736153Y-104457886D01*
X184729906Y-104454033D01*
X184659540Y-104421220D01*
X184590188Y-104386391D01*
X184590186Y-104386390D01*
X184590183Y-104386389D01*
X184583289Y-104383880D01*
X184583311Y-104383817D01*
X184576189Y-104381341D01*
X184576169Y-104381404D01*
X184569209Y-104379097D01*
X184493150Y-104363392D01*
X184417652Y-104345499D01*
X184410367Y-104344648D01*
X184410374Y-104344580D01*
X184402877Y-104343814D01*
X184402872Y-104343881D01*
X184395559Y-104343241D01*
X184395558Y-104343241D01*
X184317920Y-104345500D01*
X184212100Y-104345500D01*
X184143979Y-104325498D01*
X184097486Y-104271842D01*
X184086100Y-104219500D01*
X184086100Y-104205367D01*
X184086099Y-104205350D01*
X184079590Y-104144803D01*
X184079588Y-104144795D01*
X184046428Y-104055893D01*
X184028489Y-104007796D01*
X184028488Y-104007794D01*
X184028487Y-104007792D01*
X183940861Y-103890738D01*
X183823807Y-103803112D01*
X183823802Y-103803110D01*
X183686804Y-103752011D01*
X183686796Y-103752009D01*
X183626249Y-103745500D01*
X183626238Y-103745500D01*
X183590466Y-103745500D01*
X183522345Y-103725498D01*
X183475852Y-103671842D01*
X183472065Y-103662596D01*
X183460548Y-103630954D01*
X183444526Y-103586934D01*
X183420114Y-103513262D01*
X183420109Y-103513255D01*
X183417012Y-103506611D01*
X183417074Y-103506581D01*
X183413790Y-103499798D01*
X183413730Y-103499829D01*
X183407142Y-103486711D01*
X183408629Y-103485964D01*
X183390507Y-103426559D01*
X183390500Y-103425236D01*
X183390500Y-103331260D01*
X183410502Y-103263139D01*
X183439106Y-103231830D01*
X183555283Y-103141406D01*
X183707765Y-102975768D01*
X183830903Y-102787291D01*
X183921339Y-102581116D01*
X183976607Y-102362868D01*
X183995199Y-102138500D01*
X183977751Y-101927949D01*
X183992059Y-101858414D01*
X184014223Y-101828456D01*
X184820078Y-101022601D01*
X184833917Y-101010641D01*
X184853358Y-100996169D01*
X184887301Y-100955715D01*
X184891000Y-100951679D01*
X184896881Y-100945800D01*
X184906847Y-100933194D01*
X184917435Y-100919805D01*
X184942313Y-100890156D01*
X184967332Y-100860340D01*
X184967333Y-100860336D01*
X184967336Y-100860334D01*
X184971370Y-100854202D01*
X184971427Y-100854239D01*
X184975471Y-100847891D01*
X184975412Y-100847855D01*
X184979261Y-100841612D01*
X184979267Y-100841605D01*
X185012075Y-100771247D01*
X185046909Y-100701888D01*
X185046910Y-100701882D01*
X185049419Y-100694991D01*
X185049484Y-100695014D01*
X185051958Y-100687897D01*
X185051894Y-100687876D01*
X185054203Y-100680908D01*
X185069907Y-100604850D01*
X185079788Y-100563160D01*
X185087800Y-100529356D01*
X185087800Y-100529349D01*
X185088652Y-100522068D01*
X185088719Y-100522075D01*
X185089485Y-100514577D01*
X185089419Y-100514572D01*
X185090057Y-100507265D01*
X185090059Y-100507258D01*
X185087800Y-100429620D01*
X185087800Y-91368597D01*
X189709600Y-91368597D01*
X189716105Y-91429093D01*
X189767155Y-91565964D01*
X189767155Y-91565965D01*
X189854695Y-91682904D01*
X189971634Y-91770444D01*
X190108506Y-91821494D01*
X190169002Y-91827999D01*
X190169015Y-91828000D01*
X190813600Y-91828000D01*
X190813600Y-90903674D01*
X190925285Y-90954680D01*
X191031837Y-90970000D01*
X191103363Y-90970000D01*
X191209915Y-90954680D01*
X191321600Y-90903674D01*
X191321600Y-91828000D01*
X191966185Y-91828000D01*
X191966197Y-91827999D01*
X192026693Y-91821494D01*
X192163564Y-91770444D01*
X192163565Y-91770444D01*
X192280504Y-91682904D01*
X192368044Y-91565965D01*
X192412218Y-91447530D01*
X192454765Y-91390694D01*
X192521285Y-91365883D01*
X192590659Y-91380974D01*
X192622972Y-91406222D01*
X192675753Y-91463556D01*
X192684362Y-91472908D01*
X192721141Y-91501534D01*
X192862024Y-91611189D01*
X193060026Y-91718342D01*
X193060027Y-91718342D01*
X193060028Y-91718343D01*
X193143160Y-91746882D01*
X193272965Y-91791444D01*
X193495031Y-91828500D01*
X193495035Y-91828500D01*
X193720165Y-91828500D01*
X193720169Y-91828500D01*
X193942235Y-91791444D01*
X194155174Y-91718342D01*
X194353176Y-91611189D01*
X194530840Y-91472906D01*
X194683322Y-91307268D01*
X194772118Y-91171354D01*
X194826120Y-91125268D01*
X194896468Y-91115692D01*
X194960825Y-91145669D01*
X194983080Y-91171353D01*
X195004471Y-91204093D01*
X195071875Y-91307265D01*
X195071879Y-91307270D01*
X195224362Y-91472908D01*
X195261141Y-91501534D01*
X195402024Y-91611189D01*
X195600026Y-91718342D01*
X195600027Y-91718342D01*
X195600028Y-91718343D01*
X195683160Y-91746882D01*
X195812965Y-91791444D01*
X196035031Y-91828500D01*
X196035035Y-91828500D01*
X196260165Y-91828500D01*
X196260169Y-91828500D01*
X196482235Y-91791444D01*
X196695174Y-91718342D01*
X196893176Y-91611189D01*
X197070840Y-91472906D01*
X197223322Y-91307268D01*
X197237490Y-91285583D01*
X197291495Y-91239495D01*
X197342972Y-91228500D01*
X200279629Y-91228500D01*
X200347750Y-91248502D01*
X200368724Y-91265405D01*
X204924092Y-95820773D01*
X204936065Y-95834627D01*
X204950530Y-95854057D01*
X204990975Y-95887994D01*
X204995021Y-95891702D01*
X205000900Y-95897581D01*
X205026895Y-95918135D01*
X205086360Y-95968032D01*
X205086366Y-95968035D01*
X205092495Y-95972067D01*
X205092458Y-95972122D01*
X205098811Y-95976169D01*
X205098847Y-95976113D01*
X205105092Y-95979965D01*
X205105095Y-95979967D01*
X205175452Y-96012775D01*
X205244812Y-96047609D01*
X205244813Y-96047609D01*
X205244817Y-96047611D01*
X205251713Y-96050121D01*
X205251689Y-96050185D01*
X205258805Y-96052659D01*
X205258827Y-96052595D01*
X205265791Y-96054903D01*
X205341849Y-96070607D01*
X205375866Y-96078669D01*
X205417344Y-96088500D01*
X205417350Y-96088500D01*
X205424633Y-96089352D01*
X205424625Y-96089419D01*
X205432122Y-96090185D01*
X205432128Y-96090119D01*
X205439435Y-96090757D01*
X205439442Y-96090759D01*
X205517080Y-96088500D01*
X205623500Y-96088500D01*
X205691621Y-96108502D01*
X205738114Y-96162158D01*
X205749500Y-96214500D01*
X205749500Y-96228649D01*
X205756009Y-96289196D01*
X205756011Y-96289204D01*
X205807110Y-96426202D01*
X205807112Y-96426207D01*
X205894738Y-96543261D01*
X206011791Y-96630886D01*
X206011792Y-96630886D01*
X206011796Y-96630889D01*
X206126810Y-96673787D01*
X206183642Y-96716332D01*
X206208453Y-96782852D01*
X206193362Y-96852226D01*
X206175475Y-96877179D01*
X206032280Y-97032729D01*
X206032275Y-97032734D01*
X205909141Y-97221206D01*
X205818703Y-97427386D01*
X205818702Y-97427387D01*
X205763437Y-97645624D01*
X205744844Y-97870000D01*
X205763437Y-98094375D01*
X205818702Y-98312612D01*
X205818703Y-98312613D01*
X205909141Y-98518793D01*
X206032275Y-98707265D01*
X206032279Y-98707270D01*
X206184762Y-98872908D01*
X206239331Y-98915381D01*
X206362424Y-99011189D01*
X206396205Y-99029470D01*
X206446596Y-99079482D01*
X206461949Y-99148799D01*
X206437389Y-99215412D01*
X206396209Y-99251096D01*
X206362704Y-99269228D01*
X206362698Y-99269232D01*
X206185097Y-99407465D01*
X206032674Y-99573041D01*
X205909580Y-99761451D01*
X205819179Y-99967543D01*
X205819176Y-99967550D01*
X205771455Y-100155999D01*
X205771456Y-100156000D01*
X206676884Y-100156000D01*
X206648507Y-100200156D01*
X206608000Y-100338111D01*
X206608000Y-100481889D01*
X206648507Y-100619844D01*
X206676884Y-100664000D01*
X205771455Y-100664000D01*
X205819176Y-100852449D01*
X205819179Y-100852456D01*
X205909580Y-101058548D01*
X206032674Y-101246958D01*
X206185097Y-101412534D01*
X206362698Y-101550767D01*
X206362699Y-101550768D01*
X206560628Y-101657882D01*
X206560630Y-101657883D01*
X206773483Y-101730955D01*
X206773492Y-101730957D01*
X206854000Y-101744391D01*
X206854000Y-100843674D01*
X206965685Y-100894680D01*
X207072237Y-100910000D01*
X207143763Y-100910000D01*
X207250315Y-100894680D01*
X207362000Y-100843674D01*
X207362000Y-101744390D01*
X207442507Y-101730957D01*
X207442516Y-101730955D01*
X207655369Y-101657883D01*
X207655371Y-101657882D01*
X207853300Y-101550768D01*
X207853301Y-101550767D01*
X208030902Y-101412534D01*
X208183325Y-101246958D01*
X208306419Y-101058548D01*
X208396820Y-100852456D01*
X208396823Y-100852449D01*
X208444544Y-100664000D01*
X207539116Y-100664000D01*
X207567493Y-100619844D01*
X207608000Y-100481889D01*
X207608000Y-100338111D01*
X207567493Y-100200156D01*
X207539116Y-100156000D01*
X208444544Y-100156000D01*
X208444544Y-100155999D01*
X208396823Y-99967550D01*
X208396820Y-99967543D01*
X208306419Y-99761451D01*
X208183325Y-99573041D01*
X208030902Y-99407465D01*
X207853301Y-99269232D01*
X207853300Y-99269231D01*
X207819791Y-99251097D01*
X207769401Y-99201083D01*
X207754050Y-99131766D01*
X207778612Y-99065153D01*
X207819790Y-99029472D01*
X207853576Y-99011189D01*
X208031240Y-98872906D01*
X208183722Y-98707268D01*
X208306860Y-98518791D01*
X208397296Y-98312616D01*
X208452564Y-98094368D01*
X208471156Y-97870000D01*
X208452564Y-97645632D01*
X208401884Y-97445500D01*
X208397297Y-97427387D01*
X208397296Y-97427386D01*
X208397296Y-97427384D01*
X208306860Y-97221209D01*
X208192522Y-97046201D01*
X208183724Y-97032734D01*
X208183719Y-97032729D01*
X208140378Y-96985649D01*
X208040524Y-96877179D01*
X208009103Y-96813514D01*
X208017090Y-96742968D01*
X208061948Y-96687939D01*
X208089183Y-96673789D01*
X208204204Y-96630889D01*
X208321261Y-96543261D01*
X208408889Y-96426204D01*
X208459989Y-96289201D01*
X208466500Y-96228638D01*
X208466500Y-94431362D01*
X208466499Y-94431350D01*
X208459990Y-94370803D01*
X208459988Y-94370795D01*
X208408889Y-94233797D01*
X208408887Y-94233792D01*
X208321261Y-94116738D01*
X208204207Y-94029112D01*
X208204202Y-94029110D01*
X208067204Y-93978011D01*
X208067196Y-93978009D01*
X208006649Y-93971500D01*
X208006638Y-93971500D01*
X206209362Y-93971500D01*
X206209350Y-93971500D01*
X206148803Y-93978009D01*
X206148795Y-93978011D01*
X206011797Y-94029110D01*
X206011792Y-94029112D01*
X205894738Y-94116738D01*
X205807112Y-94233792D01*
X205807112Y-94233793D01*
X205787436Y-94286545D01*
X205744888Y-94343380D01*
X205678367Y-94368189D01*
X205608994Y-94353096D01*
X205580286Y-94331605D01*
X202001681Y-90753000D01*
X206156455Y-90753000D01*
X206204176Y-90941449D01*
X206204179Y-90941456D01*
X206294580Y-91147548D01*
X206417674Y-91335958D01*
X206570097Y-91501534D01*
X206747698Y-91639767D01*
X206747699Y-91639768D01*
X206945628Y-91746882D01*
X206945630Y-91746883D01*
X207158483Y-91819955D01*
X207158492Y-91819957D01*
X207239000Y-91833391D01*
X207239000Y-90932674D01*
X207350685Y-90983680D01*
X207457237Y-90999000D01*
X207528763Y-90999000D01*
X207635315Y-90983680D01*
X207747000Y-90932674D01*
X207747000Y-91833390D01*
X207827507Y-91819957D01*
X207827516Y-91819955D01*
X208040369Y-91746883D01*
X208040371Y-91746882D01*
X208238300Y-91639768D01*
X208238301Y-91639767D01*
X208415902Y-91501534D01*
X208477426Y-91434700D01*
X208538279Y-91398128D01*
X208609243Y-91400261D01*
X208667789Y-91440422D01*
X208688185Y-91476003D01*
X208732556Y-91594966D01*
X208820095Y-91711904D01*
X208937034Y-91799444D01*
X209073906Y-91850494D01*
X209134402Y-91856999D01*
X209134415Y-91857000D01*
X209779000Y-91857000D01*
X209779000Y-90932674D01*
X209890685Y-90983680D01*
X209997237Y-90999000D01*
X210068763Y-90999000D01*
X210175315Y-90983680D01*
X210287000Y-90932674D01*
X210287000Y-91857000D01*
X210931585Y-91857000D01*
X210931597Y-91856999D01*
X210992093Y-91850494D01*
X211128964Y-91799444D01*
X211128965Y-91799444D01*
X211245904Y-91711904D01*
X211333444Y-91594965D01*
X211333444Y-91594964D01*
X211384494Y-91458093D01*
X211390999Y-91397597D01*
X211391000Y-91397585D01*
X211391000Y-90753000D01*
X210464116Y-90753000D01*
X210492493Y-90708844D01*
X210533000Y-90570889D01*
X210533000Y-90427111D01*
X210492493Y-90289156D01*
X210464116Y-90245000D01*
X211391000Y-90245000D01*
X211391000Y-89600414D01*
X211390999Y-89600402D01*
X211384494Y-89539906D01*
X211333444Y-89403035D01*
X211333444Y-89403034D01*
X211245904Y-89286095D01*
X211128965Y-89198555D01*
X210992093Y-89147505D01*
X210931597Y-89141000D01*
X210287000Y-89141000D01*
X210287000Y-90065325D01*
X210175315Y-90014320D01*
X210068763Y-89999000D01*
X209997237Y-89999000D01*
X209890685Y-90014320D01*
X209779000Y-90065325D01*
X209779000Y-89141000D01*
X209134402Y-89141000D01*
X209073906Y-89147505D01*
X208937035Y-89198555D01*
X208937034Y-89198555D01*
X208820095Y-89286095D01*
X208732555Y-89403034D01*
X208732553Y-89403039D01*
X208688184Y-89521996D01*
X208645637Y-89578832D01*
X208579117Y-89603642D01*
X208509743Y-89588550D01*
X208477427Y-89563300D01*
X208415902Y-89496465D01*
X208238301Y-89358232D01*
X208238300Y-89358231D01*
X208040371Y-89251117D01*
X208040369Y-89251116D01*
X207827512Y-89178043D01*
X207827501Y-89178040D01*
X207747000Y-89164606D01*
X207747000Y-90065325D01*
X207635315Y-90014320D01*
X207528763Y-89999000D01*
X207457237Y-89999000D01*
X207350685Y-90014320D01*
X207239000Y-90065325D01*
X207239000Y-89164607D01*
X207238999Y-89164606D01*
X207158498Y-89178040D01*
X207158487Y-89178043D01*
X206945630Y-89251116D01*
X206945628Y-89251117D01*
X206747699Y-89358231D01*
X206747698Y-89358232D01*
X206570097Y-89496465D01*
X206417674Y-89662041D01*
X206294580Y-89850451D01*
X206204179Y-90056543D01*
X206204176Y-90056550D01*
X206156455Y-90244999D01*
X206156456Y-90245000D01*
X207061884Y-90245000D01*
X207033507Y-90289156D01*
X206993000Y-90427111D01*
X206993000Y-90570889D01*
X207033507Y-90708844D01*
X207061884Y-90753000D01*
X206156455Y-90753000D01*
X202001681Y-90753000D01*
X201227908Y-89979227D01*
X201215936Y-89965375D01*
X201201469Y-89945942D01*
X201201467Y-89945940D01*
X201161024Y-89912003D01*
X201156970Y-89908289D01*
X201151107Y-89902425D01*
X201125104Y-89881864D01*
X201105973Y-89865811D01*
X201065640Y-89831968D01*
X201065638Y-89831967D01*
X201065636Y-89831965D01*
X201059506Y-89827933D01*
X201059541Y-89827878D01*
X201053187Y-89823829D01*
X201053153Y-89823886D01*
X201046906Y-89820033D01*
X200976540Y-89787220D01*
X200922976Y-89760320D01*
X200907188Y-89752391D01*
X200907186Y-89752390D01*
X200907183Y-89752389D01*
X200900289Y-89749880D01*
X200900311Y-89749817D01*
X200893189Y-89747341D01*
X200893169Y-89747404D01*
X200886209Y-89745097D01*
X200810150Y-89729392D01*
X200734652Y-89711499D01*
X200727367Y-89710648D01*
X200727374Y-89710580D01*
X200719877Y-89709814D01*
X200719872Y-89709881D01*
X200712559Y-89709241D01*
X200712558Y-89709241D01*
X200634920Y-89711500D01*
X197342972Y-89711500D01*
X197274851Y-89691498D01*
X197237490Y-89654417D01*
X197232104Y-89646175D01*
X197223322Y-89632732D01*
X197070840Y-89467094D01*
X197070839Y-89467093D01*
X197070837Y-89467091D01*
X196951279Y-89374035D01*
X196893176Y-89328811D01*
X196695174Y-89221658D01*
X196695172Y-89221657D01*
X196695171Y-89221656D01*
X196482239Y-89148557D01*
X196482230Y-89148555D01*
X196436954Y-89141000D01*
X196260169Y-89111500D01*
X196035031Y-89111500D01*
X195886811Y-89136233D01*
X195812969Y-89148555D01*
X195812960Y-89148557D01*
X195600028Y-89221656D01*
X195600026Y-89221658D01*
X195441234Y-89307592D01*
X195402026Y-89328810D01*
X195402024Y-89328811D01*
X195224362Y-89467091D01*
X195071879Y-89632729D01*
X194983083Y-89768643D01*
X194929079Y-89814731D01*
X194858731Y-89824306D01*
X194794374Y-89794329D01*
X194772117Y-89768643D01*
X194683320Y-89632729D01*
X194533430Y-89469908D01*
X194530840Y-89467094D01*
X194530839Y-89467093D01*
X194530837Y-89467091D01*
X194411279Y-89374035D01*
X194353176Y-89328811D01*
X194155174Y-89221658D01*
X194155172Y-89221657D01*
X194155171Y-89221656D01*
X193942239Y-89148557D01*
X193942230Y-89148555D01*
X193896954Y-89141000D01*
X193720169Y-89111500D01*
X193495031Y-89111500D01*
X193346811Y-89136233D01*
X193272969Y-89148555D01*
X193272960Y-89148557D01*
X193060028Y-89221656D01*
X193060026Y-89221658D01*
X192901234Y-89307592D01*
X192862026Y-89328810D01*
X192862024Y-89328811D01*
X192684359Y-89467094D01*
X192622974Y-89533775D01*
X192562121Y-89570346D01*
X192491157Y-89568211D01*
X192432612Y-89528049D01*
X192412218Y-89492470D01*
X192368043Y-89374033D01*
X192280504Y-89257095D01*
X192163565Y-89169555D01*
X192026693Y-89118505D01*
X191966197Y-89112000D01*
X191321600Y-89112000D01*
X191321600Y-90036325D01*
X191209915Y-89985320D01*
X191103363Y-89970000D01*
X191031837Y-89970000D01*
X190925285Y-89985320D01*
X190813600Y-90036325D01*
X190813600Y-89112000D01*
X190169002Y-89112000D01*
X190108506Y-89118505D01*
X189971635Y-89169555D01*
X189971634Y-89169555D01*
X189854695Y-89257095D01*
X189767155Y-89374034D01*
X189767155Y-89374035D01*
X189716105Y-89510906D01*
X189709600Y-89571402D01*
X189709600Y-90216000D01*
X190636484Y-90216000D01*
X190608107Y-90260156D01*
X190567600Y-90398111D01*
X190567600Y-90541889D01*
X190608107Y-90679844D01*
X190636484Y-90724000D01*
X189709600Y-90724000D01*
X189709600Y-91368597D01*
X185087800Y-91368597D01*
X185087800Y-73956135D01*
X185089131Y-73937872D01*
X185092640Y-73913916D01*
X185092641Y-73913911D01*
X185088919Y-73871368D01*
X185088040Y-73861313D01*
X185087800Y-73855820D01*
X185087800Y-73847520D01*
X185085905Y-73831313D01*
X185097860Y-73761331D01*
X185145754Y-73708921D01*
X185214379Y-73690725D01*
X185281948Y-73712519D01*
X185283298Y-73713450D01*
X185353678Y-73762731D01*
X185567242Y-73862318D01*
X185746758Y-73910418D01*
X185759784Y-73913909D01*
X185794855Y-73923306D01*
X186029600Y-73943844D01*
X186264345Y-73923306D01*
X186491958Y-73862318D01*
X186705522Y-73762731D01*
X186705525Y-73762729D01*
X186898544Y-73627577D01*
X186898546Y-73627574D01*
X186898549Y-73627573D01*
X187065173Y-73460949D01*
X187184856Y-73290022D01*
X187240310Y-73245696D01*
X187310929Y-73238387D01*
X187374290Y-73270417D01*
X187406791Y-73320099D01*
X187433075Y-73394054D01*
X187433076Y-73394057D01*
X187433077Y-73394058D01*
X187554076Y-73627577D01*
X187559492Y-73638028D01*
X187568615Y-73650952D01*
X187717943Y-73862502D01*
X187905489Y-74063314D01*
X188118631Y-74236718D01*
X188353400Y-74379484D01*
X188605423Y-74488953D01*
X188870004Y-74563085D01*
X188965104Y-74576156D01*
X189142204Y-74600499D01*
X189142215Y-74600500D01*
X189416985Y-74600500D01*
X189416995Y-74600499D01*
X189546545Y-74582692D01*
X189689196Y-74563085D01*
X189953777Y-74488953D01*
X190205800Y-74379484D01*
X190440569Y-74236718D01*
X190653711Y-74063314D01*
X190841257Y-73862502D01*
X190999711Y-73638023D01*
X191126123Y-73394058D01*
X191218138Y-73135153D01*
X191274042Y-72866130D01*
X191276729Y-72826846D01*
X191292793Y-72592004D01*
X191292793Y-72591995D01*
X191274043Y-72317883D01*
X191274042Y-72317877D01*
X191274042Y-72317870D01*
X191218138Y-72048847D01*
X191126123Y-71789942D01*
X190999711Y-71545977D01*
X190841257Y-71321498D01*
X190653711Y-71120686D01*
X190440569Y-70947282D01*
X190205800Y-70804516D01*
X190205801Y-70804516D01*
X190205797Y-70804514D01*
X189953780Y-70695048D01*
X189953778Y-70695047D01*
X189953777Y-70695047D01*
X189821486Y-70657981D01*
X189689193Y-70620914D01*
X189416995Y-70583500D01*
X189416985Y-70583500D01*
X189142215Y-70583500D01*
X189142204Y-70583500D01*
X188870006Y-70620914D01*
X188605419Y-70695048D01*
X188353402Y-70804514D01*
X188118628Y-70947284D01*
X187905486Y-71120688D01*
X187717943Y-71321498D01*
X187559492Y-71545971D01*
X187433075Y-71789945D01*
X187406791Y-71863900D01*
X187365131Y-71921389D01*
X187299004Y-71947228D01*
X187229404Y-71933215D01*
X187184854Y-71893975D01*
X187065173Y-71723051D01*
X187065170Y-71723048D01*
X187065168Y-71723045D01*
X186898554Y-71556431D01*
X186898544Y-71556422D01*
X186705525Y-71421270D01*
X186705526Y-71421270D01*
X186491960Y-71321683D01*
X186491956Y-71321681D01*
X186264348Y-71260694D01*
X186029600Y-71240156D01*
X185794851Y-71260694D01*
X185567243Y-71321681D01*
X185567239Y-71321683D01*
X185353674Y-71421270D01*
X185160655Y-71556422D01*
X185160645Y-71556431D01*
X184994031Y-71723045D01*
X184994022Y-71723055D01*
X184858870Y-71916074D01*
X184759283Y-72129639D01*
X184759281Y-72129643D01*
X184698294Y-72357251D01*
X184692131Y-72427692D01*
X184677756Y-72592000D01*
X184698294Y-72826745D01*
X184698294Y-72826748D01*
X184698295Y-72826750D01*
X184698295Y-72826753D01*
X184708820Y-72866034D01*
X184707129Y-72937010D01*
X184667334Y-72995805D01*
X184602070Y-73023752D01*
X184532056Y-73011978D01*
X184498018Y-72987738D01*
X184400531Y-72890251D01*
X184366505Y-72827939D01*
X184364105Y-72790178D01*
X184381444Y-72592000D01*
X184360906Y-72357255D01*
X184299918Y-72129642D01*
X184200331Y-71916078D01*
X184200330Y-71916077D01*
X184200329Y-71916074D01*
X184065177Y-71723055D01*
X184065168Y-71723045D01*
X183898554Y-71556431D01*
X183898544Y-71556422D01*
X183705525Y-71421270D01*
X183705526Y-71421270D01*
X183491960Y-71321683D01*
X183491956Y-71321681D01*
X183264348Y-71260694D01*
X183029600Y-71240156D01*
X182794851Y-71260694D01*
X182567243Y-71321681D01*
X182567239Y-71321683D01*
X182353674Y-71421270D01*
X182160655Y-71556422D01*
X182160645Y-71556431D01*
X181994031Y-71723045D01*
X181994022Y-71723055D01*
X181858870Y-71916074D01*
X181759283Y-72129639D01*
X181759281Y-72129643D01*
X181698294Y-72357251D01*
X181677756Y-72592000D01*
X181698294Y-72826748D01*
X181759281Y-73054356D01*
X181759283Y-73054360D01*
X181858870Y-73267925D01*
X181994022Y-73460944D01*
X181994031Y-73460954D01*
X182160645Y-73627568D01*
X182160655Y-73627577D01*
X182353674Y-73762729D01*
X182353673Y-73762729D01*
X182388395Y-73778920D01*
X182567242Y-73862318D01*
X182746758Y-73910418D01*
X182759784Y-73913909D01*
X182794855Y-73923306D01*
X183029600Y-73943844D01*
X183227775Y-73926505D01*
X183297378Y-73940494D01*
X183327850Y-73962931D01*
X183533895Y-74168976D01*
X183567921Y-74231288D01*
X183570800Y-74258071D01*
X183570800Y-88761000D01*
X183550798Y-88829121D01*
X183497142Y-88875614D01*
X183444800Y-88887000D01*
X182981600Y-88887000D01*
X182981600Y-89811325D01*
X182869915Y-89760320D01*
X182763363Y-89745000D01*
X182691837Y-89745000D01*
X182585285Y-89760320D01*
X182473600Y-89811325D01*
X182473600Y-88887000D01*
X181829002Y-88887000D01*
X181768506Y-88893505D01*
X181631635Y-88944555D01*
X181631634Y-88944555D01*
X181514695Y-89032095D01*
X181427155Y-89149034D01*
X181427155Y-89149035D01*
X181376105Y-89285906D01*
X181369600Y-89346402D01*
X181369600Y-89991000D01*
X182296484Y-89991000D01*
X182268107Y-90035156D01*
X182227600Y-90173111D01*
X182227600Y-90316889D01*
X182268107Y-90454844D01*
X182296484Y-90499000D01*
X181369600Y-90499000D01*
X181369600Y-91143597D01*
X181376105Y-91204093D01*
X181427155Y-91340964D01*
X181427155Y-91340965D01*
X181514695Y-91457904D01*
X181631634Y-91545444D01*
X181746772Y-91588388D01*
X181803608Y-91630935D01*
X181828419Y-91697455D01*
X181813328Y-91766829D01*
X181795441Y-91791782D01*
X181651880Y-91947729D01*
X181651879Y-91947729D01*
X181554189Y-92097255D01*
X181500185Y-92143343D01*
X181458903Y-92152841D01*
X181458942Y-92153086D01*
X181455412Y-92153645D01*
X181452666Y-92154277D01*
X181451114Y-92154325D01*
X181451107Y-92154327D01*
X181431649Y-92159979D01*
X181412304Y-92163985D01*
X181392206Y-92166525D01*
X181392197Y-92166527D01*
X181348331Y-92183894D01*
X181342716Y-92185817D01*
X181297408Y-92198981D01*
X181279964Y-92209297D01*
X181262218Y-92217990D01*
X181243382Y-92225448D01*
X181205209Y-92253181D01*
X181200248Y-92256440D01*
X181159638Y-92280458D01*
X181145311Y-92294784D01*
X181130285Y-92307617D01*
X181113895Y-92319525D01*
X181113893Y-92319527D01*
X181083808Y-92355892D01*
X181079812Y-92360283D01*
X159520500Y-113919595D01*
X159458188Y-113953621D01*
X159431405Y-113956500D01*
X156332100Y-113956500D01*
X156263979Y-113936498D01*
X156217486Y-113882842D01*
X156206100Y-113830500D01*
X156206100Y-110891367D01*
X156206099Y-110891350D01*
X156199590Y-110830803D01*
X156199588Y-110830795D01*
X156170524Y-110752875D01*
X156148489Y-110693796D01*
X156148488Y-110693794D01*
X156148487Y-110693792D01*
X156060861Y-110576738D01*
X155943807Y-110489112D01*
X155943802Y-110489110D01*
X155806804Y-110438011D01*
X155806796Y-110438009D01*
X155746249Y-110431500D01*
X155746238Y-110431500D01*
X143880500Y-110431500D01*
X143812379Y-110411498D01*
X143765886Y-110357842D01*
X143754500Y-110305500D01*
X143754500Y-104385000D01*
X159758444Y-104385000D01*
X159776804Y-104606573D01*
X159777037Y-104609375D01*
X159832302Y-104827612D01*
X159832303Y-104827613D01*
X159832304Y-104827616D01*
X159909272Y-105003086D01*
X159922741Y-105033793D01*
X160045875Y-105222265D01*
X160045878Y-105222268D01*
X160074621Y-105253491D01*
X160189075Y-105377820D01*
X160220496Y-105441485D01*
X160212509Y-105512031D01*
X160167651Y-105567060D01*
X160140407Y-105581213D01*
X160025397Y-105624110D01*
X160025392Y-105624112D01*
X159908338Y-105711738D01*
X159820712Y-105828792D01*
X159820710Y-105828797D01*
X159769611Y-105965795D01*
X159769609Y-105965803D01*
X159763100Y-106026350D01*
X159763100Y-107823649D01*
X159769609Y-107884196D01*
X159769611Y-107884204D01*
X159820710Y-108021202D01*
X159820712Y-108021207D01*
X159908338Y-108138261D01*
X160025392Y-108225887D01*
X160025394Y-108225888D01*
X160025396Y-108225889D01*
X160084475Y-108247924D01*
X160162395Y-108276988D01*
X160162403Y-108276990D01*
X160222950Y-108283499D01*
X160222955Y-108283499D01*
X160222962Y-108283500D01*
X160222968Y-108283500D01*
X162020232Y-108283500D01*
X162020238Y-108283500D01*
X162020245Y-108283499D01*
X162020249Y-108283499D01*
X162080796Y-108276990D01*
X162080799Y-108276989D01*
X162080801Y-108276989D01*
X162217804Y-108225889D01*
X162334861Y-108138261D01*
X162422489Y-108021204D01*
X162473589Y-107884201D01*
X162480100Y-107823638D01*
X162480100Y-106026362D01*
X162477551Y-106002649D01*
X162473590Y-105965803D01*
X162473588Y-105965795D01*
X162422489Y-105828797D01*
X162422487Y-105828792D01*
X162334861Y-105711738D01*
X162217807Y-105624112D01*
X162217803Y-105624110D01*
X162102792Y-105581213D01*
X162045956Y-105538667D01*
X162021146Y-105472146D01*
X162036238Y-105402772D01*
X162054125Y-105377820D01*
X162197314Y-105222277D01*
X162197324Y-105222265D01*
X162210977Y-105201368D01*
X162320460Y-105033791D01*
X162410896Y-104827616D01*
X162466164Y-104609368D01*
X162484756Y-104385000D01*
X162466164Y-104160632D01*
X162442101Y-104065611D01*
X162410897Y-103942387D01*
X162410896Y-103942386D01*
X162410896Y-103942384D01*
X162320460Y-103736209D01*
X162281196Y-103676111D01*
X162197324Y-103547734D01*
X162197320Y-103547729D01*
X162044837Y-103382091D01*
X161892008Y-103263139D01*
X161867176Y-103243811D01*
X161669174Y-103136658D01*
X161669172Y-103136657D01*
X161669171Y-103136656D01*
X161456239Y-103063557D01*
X161456230Y-103063555D01*
X161412076Y-103056187D01*
X161234169Y-103026500D01*
X161009031Y-103026500D01*
X160860811Y-103051233D01*
X160786969Y-103063555D01*
X160786960Y-103063557D01*
X160574028Y-103136656D01*
X160574026Y-103136658D01*
X160453937Y-103201647D01*
X160376026Y-103243810D01*
X160376024Y-103243811D01*
X160198362Y-103382091D01*
X160045879Y-103547729D01*
X160045875Y-103547734D01*
X159922741Y-103736206D01*
X159832303Y-103942386D01*
X159832302Y-103942387D01*
X159777037Y-104160624D01*
X159777036Y-104160630D01*
X159777036Y-104160632D01*
X159758444Y-104385000D01*
X143754500Y-104385000D01*
X143754500Y-101083603D01*
X143774502Y-101015482D01*
X143791403Y-100994508D01*
X151456324Y-93329901D01*
X151518635Y-93295879D01*
X151545416Y-93293000D01*
X152451484Y-93293000D01*
X152423107Y-93337156D01*
X152382600Y-93475111D01*
X152382600Y-93618889D01*
X152423107Y-93756844D01*
X152451484Y-93801000D01*
X151546055Y-93801000D01*
X151593776Y-93989449D01*
X151593779Y-93989456D01*
X151684180Y-94195548D01*
X151807274Y-94383958D01*
X151950581Y-94539632D01*
X151982001Y-94603297D01*
X151974014Y-94673843D01*
X151929155Y-94728872D01*
X151901913Y-94743024D01*
X151786395Y-94786111D01*
X151786392Y-94786112D01*
X151669338Y-94873738D01*
X151581712Y-94990792D01*
X151581710Y-94990797D01*
X151530611Y-95127795D01*
X151530609Y-95127803D01*
X151524100Y-95188350D01*
X151524100Y-96985649D01*
X151530609Y-97046196D01*
X151530611Y-97046204D01*
X151581710Y-97183202D01*
X151581712Y-97183207D01*
X151669338Y-97300261D01*
X151786392Y-97387887D01*
X151786394Y-97387888D01*
X151786396Y-97387889D01*
X151845475Y-97409924D01*
X151923395Y-97438988D01*
X151923403Y-97438990D01*
X151983950Y-97445499D01*
X151983955Y-97445499D01*
X151983962Y-97445500D01*
X151983968Y-97445500D01*
X153781232Y-97445500D01*
X153781238Y-97445500D01*
X153781245Y-97445499D01*
X153781249Y-97445499D01*
X153841796Y-97438990D01*
X153841799Y-97438989D01*
X153841801Y-97438989D01*
X153978804Y-97387889D01*
X154095861Y-97300261D01*
X154183489Y-97183204D01*
X154234589Y-97046201D01*
X154236038Y-97032729D01*
X154241099Y-96985649D01*
X154241100Y-96985632D01*
X154241100Y-95188367D01*
X154241099Y-95188350D01*
X154234590Y-95127803D01*
X154234588Y-95127795D01*
X154183489Y-94990797D01*
X154183487Y-94990792D01*
X154095861Y-94873738D01*
X153978807Y-94786112D01*
X153978804Y-94786111D01*
X153863286Y-94743024D01*
X153806451Y-94700477D01*
X153781641Y-94633957D01*
X153796733Y-94564583D01*
X153814619Y-94539632D01*
X153957923Y-94383961D01*
X154081019Y-94195548D01*
X154171420Y-93989456D01*
X154171423Y-93989449D01*
X154219144Y-93801000D01*
X153313716Y-93801000D01*
X153342093Y-93756844D01*
X153382600Y-93618889D01*
X153382600Y-93475111D01*
X153342093Y-93337156D01*
X153313716Y-93293000D01*
X154219144Y-93293000D01*
X154219144Y-93292999D01*
X154171423Y-93104550D01*
X154171420Y-93104543D01*
X154081019Y-92898451D01*
X153957925Y-92710041D01*
X153805502Y-92544465D01*
X153627901Y-92406232D01*
X153627900Y-92406231D01*
X153594391Y-92388097D01*
X153544001Y-92338083D01*
X153528650Y-92268766D01*
X153553212Y-92202153D01*
X153594390Y-92166472D01*
X153628176Y-92148189D01*
X153805840Y-92009906D01*
X153958322Y-91844268D01*
X154081460Y-91655791D01*
X154171896Y-91449616D01*
X154227164Y-91231368D01*
X154245756Y-91007000D01*
X154227164Y-90782632D01*
X154208478Y-90708844D01*
X154171897Y-90564387D01*
X154171896Y-90564386D01*
X154171896Y-90564384D01*
X154081460Y-90358209D01*
X154054464Y-90316889D01*
X153958324Y-90169734D01*
X153958320Y-90169729D01*
X153805837Y-90004091D01*
X153690348Y-89914202D01*
X153628176Y-89865811D01*
X153594919Y-89847813D01*
X153544529Y-89797802D01*
X153529176Y-89728485D01*
X153553736Y-89661872D01*
X153594920Y-89626186D01*
X153628176Y-89608189D01*
X153805840Y-89469906D01*
X153958322Y-89304268D01*
X154081460Y-89115791D01*
X154171896Y-88909616D01*
X154227164Y-88691368D01*
X154245756Y-88467000D01*
X154227164Y-88242632D01*
X154171896Y-88024384D01*
X154081460Y-87818209D01*
X154074740Y-87807924D01*
X153958324Y-87629734D01*
X153958320Y-87629729D01*
X153805837Y-87464091D01*
X153723982Y-87400381D01*
X153628176Y-87325811D01*
X153594919Y-87307813D01*
X153544529Y-87257802D01*
X153529176Y-87188485D01*
X153553736Y-87121872D01*
X153594920Y-87086186D01*
X153628176Y-87068189D01*
X153805840Y-86929906D01*
X153958322Y-86764268D01*
X154081460Y-86575791D01*
X154171896Y-86369616D01*
X154227164Y-86151368D01*
X154245756Y-85927000D01*
X154227164Y-85702632D01*
X154171896Y-85484384D01*
X154081460Y-85278209D01*
X154074740Y-85267924D01*
X153958324Y-85089734D01*
X153958320Y-85089729D01*
X153805837Y-84924091D01*
X153723982Y-84860381D01*
X153628176Y-84785811D01*
X153594919Y-84767813D01*
X153544529Y-84717802D01*
X153529176Y-84648485D01*
X153553736Y-84581872D01*
X153594920Y-84546186D01*
X153628176Y-84528189D01*
X153805840Y-84389906D01*
X153958322Y-84224268D01*
X154081460Y-84035791D01*
X154171896Y-83829616D01*
X154227164Y-83611368D01*
X154245756Y-83387000D01*
X154227164Y-83162632D01*
X154171896Y-82944384D01*
X154081460Y-82738209D01*
X154074740Y-82727924D01*
X153958324Y-82549734D01*
X153958320Y-82549729D01*
X153815121Y-82394176D01*
X153805840Y-82384094D01*
X153805839Y-82384093D01*
X153805837Y-82384091D01*
X153723982Y-82320381D01*
X153628176Y-82245811D01*
X153430174Y-82138658D01*
X153430172Y-82138657D01*
X153430171Y-82138656D01*
X153299887Y-82093930D01*
X153270589Y-82083872D01*
X153212655Y-82042836D01*
X153186103Y-81976992D01*
X153199364Y-81907244D01*
X153248229Y-81855739D01*
X153311502Y-81838700D01*
X174239089Y-81838700D01*
X174242753Y-81838807D01*
X174307398Y-81842572D01*
X174307399Y-81842571D01*
X174307403Y-81842572D01*
X174371208Y-81831320D01*
X174374788Y-81830796D01*
X174439113Y-81823279D01*
X174449701Y-81819424D01*
X174470921Y-81813738D01*
X174482021Y-81811782D01*
X174541486Y-81786130D01*
X174544860Y-81784789D01*
X174605732Y-81762635D01*
X174615153Y-81756437D01*
X174634488Y-81746013D01*
X174644832Y-81741552D01*
X174696808Y-81702856D01*
X174699744Y-81700801D01*
X174753874Y-81665201D01*
X174761612Y-81656998D01*
X174778010Y-81642403D01*
X174787058Y-81635669D01*
X174828690Y-81586052D01*
X174831100Y-81583344D01*
X174875553Y-81536229D01*
X174881190Y-81526463D01*
X174893786Y-81508473D01*
X174901032Y-81499840D01*
X174930097Y-81441962D01*
X174931803Y-81438798D01*
X174964209Y-81382672D01*
X174967440Y-81371877D01*
X174975555Y-81351450D01*
X174980609Y-81341388D01*
X174995545Y-81278362D01*
X174996476Y-81274885D01*
X175015062Y-81212809D01*
X175015717Y-81201554D01*
X175018901Y-81179820D01*
X175021500Y-81168856D01*
X175021500Y-81104111D01*
X175021607Y-81100447D01*
X175025372Y-81035797D01*
X175025371Y-81035792D01*
X175023414Y-81024690D01*
X175021500Y-81002813D01*
X175021500Y-79922970D01*
X175041502Y-79854849D01*
X175058400Y-79833880D01*
X180520378Y-74371901D01*
X180534217Y-74359941D01*
X180553658Y-74345469D01*
X180587601Y-74305015D01*
X180591300Y-74300979D01*
X180597181Y-74295100D01*
X180607147Y-74282494D01*
X180617735Y-74269105D01*
X180640081Y-74242472D01*
X180667632Y-74209640D01*
X180667633Y-74209636D01*
X180667636Y-74209634D01*
X180671670Y-74203502D01*
X180671727Y-74203539D01*
X180675771Y-74197191D01*
X180675712Y-74197155D01*
X180679561Y-74190912D01*
X180679567Y-74190905D01*
X180712375Y-74120547D01*
X180747209Y-74051188D01*
X180747210Y-74051182D01*
X180749719Y-74044291D01*
X180749784Y-74044314D01*
X180752258Y-74037197D01*
X180752194Y-74037176D01*
X180754503Y-74030208D01*
X180770207Y-73954150D01*
X180777517Y-73923306D01*
X180788100Y-73878656D01*
X180788100Y-73878649D01*
X180788952Y-73871368D01*
X180789019Y-73871375D01*
X180789785Y-73863877D01*
X180789719Y-73863872D01*
X180790357Y-73856565D01*
X180790359Y-73856558D01*
X180788100Y-73778920D01*
X180788100Y-73770501D01*
X180808102Y-73702380D01*
X180841830Y-73667288D01*
X180865638Y-73650617D01*
X180898549Y-73627573D01*
X181065173Y-73460949D01*
X181107272Y-73400826D01*
X181200329Y-73267925D01*
X181200329Y-73267924D01*
X181200331Y-73267922D01*
X181299918Y-73054358D01*
X181360906Y-72826745D01*
X181381444Y-72592000D01*
X181360906Y-72357255D01*
X181299918Y-72129642D01*
X181200331Y-71916078D01*
X181200330Y-71916077D01*
X181200329Y-71916074D01*
X181065177Y-71723055D01*
X181065168Y-71723045D01*
X180898554Y-71556431D01*
X180898544Y-71556422D01*
X180705525Y-71421270D01*
X180705526Y-71421270D01*
X180491960Y-71321683D01*
X180491956Y-71321681D01*
X180264348Y-71260694D01*
X180029600Y-71240156D01*
X179794851Y-71260694D01*
X179567243Y-71321681D01*
X179567239Y-71321683D01*
X179353674Y-71421270D01*
X179160655Y-71556422D01*
X179160645Y-71556431D01*
X178994031Y-71723045D01*
X178994022Y-71723055D01*
X178874345Y-71893974D01*
X178818888Y-71938303D01*
X178748269Y-71945612D01*
X178684908Y-71913582D01*
X178652407Y-71863899D01*
X178626123Y-71789942D01*
X178499711Y-71545977D01*
X178341257Y-71321498D01*
X178153711Y-71120686D01*
X177940569Y-70947282D01*
X177705800Y-70804516D01*
X177705801Y-70804516D01*
X177705797Y-70804514D01*
X177453780Y-70695048D01*
X177453778Y-70695047D01*
X177453777Y-70695047D01*
X177321486Y-70657981D01*
X177189193Y-70620914D01*
X176916995Y-70583500D01*
X176916985Y-70583500D01*
X176642215Y-70583500D01*
X176642204Y-70583500D01*
X176370006Y-70620914D01*
X176105419Y-70695048D01*
X175853402Y-70804514D01*
X175618628Y-70947284D01*
X175405486Y-71120688D01*
X175217943Y-71321498D01*
X175059492Y-71545971D01*
X174933077Y-71789941D01*
X174841062Y-72048845D01*
X174841060Y-72048853D01*
X174785157Y-72317877D01*
X174785156Y-72317883D01*
X174766407Y-72591995D01*
X174766407Y-72592004D01*
X174785156Y-72866116D01*
X174785157Y-72866122D01*
X174785158Y-72866130D01*
X174799887Y-72937010D01*
X174841060Y-73135146D01*
X174841062Y-73135154D01*
X174906792Y-73320099D01*
X174933077Y-73394058D01*
X175054076Y-73627577D01*
X175059492Y-73638028D01*
X175068615Y-73650952D01*
X175217943Y-73862502D01*
X175405489Y-74063314D01*
X175618631Y-74236718D01*
X175853400Y-74379484D01*
X176105423Y-74488953D01*
X176370004Y-74563085D01*
X176465104Y-74576156D01*
X176642204Y-74600499D01*
X176642215Y-74600500D01*
X176916985Y-74600500D01*
X176916995Y-74600499D01*
X177046545Y-74582692D01*
X177189196Y-74563085D01*
X177453777Y-74488953D01*
X177705800Y-74379484D01*
X177940569Y-74236718D01*
X178153711Y-74063314D01*
X178341257Y-73862502D01*
X178499711Y-73638023D01*
X178626123Y-73394058D01*
X178652408Y-73320098D01*
X178694066Y-73262611D01*
X178760193Y-73236771D01*
X178829793Y-73250783D01*
X178874345Y-73290025D01*
X178994022Y-73460944D01*
X178994031Y-73460954D01*
X179050902Y-73517825D01*
X179084928Y-73580137D01*
X179079863Y-73650952D01*
X179050902Y-73696015D01*
X173772225Y-78974692D01*
X173758376Y-78986662D01*
X173748180Y-78994253D01*
X173738942Y-79001131D01*
X173734652Y-79006243D01*
X173705007Y-79041571D01*
X173701300Y-79045617D01*
X173695421Y-79051497D01*
X173695412Y-79051507D01*
X173674863Y-79077496D01*
X173630552Y-79130306D01*
X173624965Y-79136964D01*
X173620935Y-79143091D01*
X173620880Y-79143055D01*
X173616825Y-79149420D01*
X173616882Y-79149455D01*
X173613028Y-79155701D01*
X173580220Y-79226058D01*
X173545391Y-79295412D01*
X173542882Y-79302307D01*
X173542820Y-79302284D01*
X173540343Y-79309410D01*
X173540404Y-79309431D01*
X173538097Y-79316390D01*
X173522392Y-79392449D01*
X173504500Y-79467945D01*
X173503648Y-79475234D01*
X173503581Y-79475226D01*
X173502814Y-79482726D01*
X173502881Y-79482732D01*
X173502241Y-79490042D01*
X173504500Y-79567679D01*
X173504500Y-80195700D01*
X173484498Y-80263821D01*
X173430842Y-80310314D01*
X173378500Y-80321700D01*
X141283433Y-80321700D01*
X141265175Y-80320370D01*
X141241206Y-80316859D01*
X141241195Y-80316859D01*
X141205039Y-80320023D01*
X141188616Y-80321460D01*
X141183129Y-80321700D01*
X141174815Y-80321700D01*
X141141892Y-80325548D01*
X141064565Y-80332314D01*
X141057380Y-80333798D01*
X141057366Y-80333734D01*
X141050009Y-80335365D01*
X141050025Y-80335430D01*
X141042891Y-80337120D01*
X141042887Y-80337121D01*
X141042882Y-80337122D01*
X141042881Y-80337123D01*
X140969930Y-80363674D01*
X140896253Y-80388089D01*
X140889600Y-80391192D01*
X140889572Y-80391132D01*
X140882793Y-80394414D01*
X140882823Y-80394473D01*
X140876270Y-80397763D01*
X140843178Y-80419527D01*
X140811387Y-80440437D01*
X140763486Y-80469983D01*
X140745340Y-80481177D01*
X140739589Y-80485725D01*
X140739547Y-80485672D01*
X140733703Y-80490434D01*
X140733745Y-80490484D01*
X140728128Y-80495197D01*
X140674825Y-80551693D01*
X106199845Y-115027469D01*
X106137534Y-115061495D01*
X106090012Y-115062657D01*
X106046939Y-115055470D01*
X106005169Y-115048500D01*
X105780031Y-115048500D01*
X105666925Y-115067374D01*
X105557969Y-115085555D01*
X105557960Y-115085557D01*
X105345028Y-115158656D01*
X105345026Y-115158658D01*
X105147032Y-115265807D01*
X105147026Y-115265810D01*
X105147024Y-115265811D01*
X104969362Y-115404091D01*
X104816879Y-115569729D01*
X104816875Y-115569734D01*
X104693741Y-115758206D01*
X104603303Y-115964386D01*
X104603302Y-115964387D01*
X104548037Y-116182624D01*
X104548036Y-116182630D01*
X104548036Y-116182632D01*
X104529444Y-116407000D01*
X104544889Y-116593393D01*
X104548037Y-116631375D01*
X104603302Y-116849612D01*
X104603303Y-116849613D01*
X104603304Y-116849616D01*
X104669576Y-117000702D01*
X104693741Y-117055793D01*
X104816875Y-117244265D01*
X104816879Y-117244270D01*
X104969362Y-117409908D01*
X104974021Y-117413534D01*
X105147024Y-117548189D01*
X105180280Y-117566186D01*
X105230671Y-117616200D01*
X105246023Y-117685516D01*
X105221462Y-117752129D01*
X105180280Y-117787813D01*
X105147026Y-117805810D01*
X105147024Y-117805811D01*
X104969362Y-117944091D01*
X104816879Y-118109729D01*
X104816875Y-118109734D01*
X104693741Y-118298206D01*
X104603303Y-118504386D01*
X104603302Y-118504387D01*
X104548037Y-118722624D01*
X104548036Y-118722630D01*
X104548036Y-118722632D01*
X104529444Y-118947000D01*
X104546832Y-119156844D01*
X104548037Y-119171375D01*
X104603302Y-119389612D01*
X104603303Y-119389613D01*
X104603304Y-119389616D01*
X104677383Y-119558500D01*
X104693741Y-119595793D01*
X104816875Y-119784265D01*
X104816879Y-119784270D01*
X104969362Y-119949908D01*
X105001600Y-119975000D01*
X105147024Y-120088189D01*
X105345026Y-120195342D01*
X105345027Y-120195342D01*
X105345028Y-120195343D01*
X105390065Y-120210804D01*
X105557965Y-120268444D01*
X105780031Y-120305500D01*
X105780035Y-120305500D01*
X106005165Y-120305500D01*
X106005169Y-120305500D01*
X106227235Y-120268444D01*
X106440174Y-120195342D01*
X106638176Y-120088189D01*
X106815840Y-119949906D01*
X106968322Y-119784268D01*
X107057118Y-119648354D01*
X107111120Y-119602268D01*
X107181468Y-119592692D01*
X107245825Y-119622669D01*
X107268080Y-119648353D01*
X107301207Y-119699058D01*
X107356875Y-119784265D01*
X107356879Y-119784270D01*
X107509362Y-119949908D01*
X107541600Y-119975000D01*
X107687024Y-120088189D01*
X107885026Y-120195342D01*
X107885027Y-120195342D01*
X107885028Y-120195343D01*
X107930065Y-120210804D01*
X108097965Y-120268444D01*
X108320031Y-120305500D01*
X108320035Y-120305500D01*
X108545165Y-120305500D01*
X108545169Y-120305500D01*
X108767235Y-120268444D01*
X108980174Y-120195342D01*
X109178176Y-120088189D01*
X109355840Y-119949906D01*
X109508322Y-119784268D01*
X109597118Y-119648354D01*
X109651120Y-119602268D01*
X109721468Y-119592692D01*
X109785825Y-119622669D01*
X109808080Y-119648353D01*
X109841207Y-119699058D01*
X109896875Y-119784265D01*
X109896879Y-119784270D01*
X110049362Y-119949908D01*
X110081600Y-119975000D01*
X110227024Y-120088189D01*
X110425026Y-120195342D01*
X110425027Y-120195342D01*
X110425028Y-120195343D01*
X110470065Y-120210804D01*
X110637965Y-120268444D01*
X110860031Y-120305500D01*
X110860035Y-120305500D01*
X111085165Y-120305500D01*
X111085169Y-120305500D01*
X111307235Y-120268444D01*
X111520174Y-120195342D01*
X111718176Y-120088189D01*
X111895840Y-119949906D01*
X112048322Y-119784268D01*
X112137118Y-119648354D01*
X112191120Y-119602268D01*
X112261468Y-119592692D01*
X112325825Y-119622669D01*
X112348080Y-119648353D01*
X112381207Y-119699058D01*
X112436875Y-119784265D01*
X112436879Y-119784270D01*
X112589362Y-119949908D01*
X112621600Y-119975000D01*
X112767024Y-120088189D01*
X112965026Y-120195342D01*
X112965027Y-120195342D01*
X112965028Y-120195343D01*
X113010065Y-120210804D01*
X113177965Y-120268444D01*
X113400031Y-120305500D01*
X113400035Y-120305500D01*
X113625165Y-120305500D01*
X113625169Y-120305500D01*
X113847235Y-120268444D01*
X114060174Y-120195342D01*
X114258176Y-120088189D01*
X114435840Y-119949906D01*
X114588322Y-119784268D01*
X114677118Y-119648354D01*
X114731120Y-119602268D01*
X114801468Y-119592692D01*
X114865825Y-119622669D01*
X114888080Y-119648353D01*
X114921207Y-119699058D01*
X114976875Y-119784265D01*
X114976879Y-119784270D01*
X115129362Y-119949908D01*
X115161600Y-119975000D01*
X115307024Y-120088189D01*
X115505026Y-120195342D01*
X115505027Y-120195342D01*
X115505028Y-120195343D01*
X115550065Y-120210804D01*
X115717965Y-120268444D01*
X115940031Y-120305500D01*
X115940035Y-120305500D01*
X116165165Y-120305500D01*
X116165169Y-120305500D01*
X116387235Y-120268444D01*
X116600174Y-120195342D01*
X116798176Y-120088189D01*
X116975840Y-119949906D01*
X117128322Y-119784268D01*
X117217118Y-119648354D01*
X117271120Y-119602268D01*
X117341468Y-119592692D01*
X117405825Y-119622669D01*
X117428080Y-119648353D01*
X117461207Y-119699058D01*
X117516875Y-119784265D01*
X117516879Y-119784270D01*
X117669362Y-119949908D01*
X117701600Y-119975000D01*
X117847024Y-120088189D01*
X118045026Y-120195342D01*
X118045027Y-120195342D01*
X118045028Y-120195343D01*
X118090065Y-120210804D01*
X118257965Y-120268444D01*
X118480031Y-120305500D01*
X118480035Y-120305500D01*
X118705165Y-120305500D01*
X118705169Y-120305500D01*
X118927235Y-120268444D01*
X119140174Y-120195342D01*
X119338176Y-120088189D01*
X119515840Y-119949906D01*
X119668322Y-119784268D01*
X119757118Y-119648354D01*
X119811120Y-119602268D01*
X119881468Y-119592692D01*
X119945825Y-119622669D01*
X119968080Y-119648353D01*
X120001207Y-119699058D01*
X120056875Y-119784265D01*
X120056879Y-119784270D01*
X120209362Y-119949908D01*
X120241600Y-119975000D01*
X120387024Y-120088189D01*
X120585026Y-120195342D01*
X120585027Y-120195342D01*
X120585028Y-120195343D01*
X120630065Y-120210804D01*
X120797965Y-120268444D01*
X121020031Y-120305500D01*
X121020035Y-120305500D01*
X121245165Y-120305500D01*
X121245169Y-120305500D01*
X121467235Y-120268444D01*
X121680174Y-120195342D01*
X121878176Y-120088189D01*
X121963626Y-120021679D01*
X122029666Y-119995623D01*
X122099312Y-120009408D01*
X122130111Y-120032016D01*
X125753755Y-123655660D01*
X125763720Y-123668097D01*
X125763947Y-123667910D01*
X125768999Y-123674017D01*
X125820078Y-123721983D01*
X125841223Y-123743129D01*
X125841227Y-123743132D01*
X125841230Y-123743135D01*
X125846782Y-123747442D01*
X125851269Y-123751273D01*
X125872852Y-123771541D01*
X125885677Y-123783585D01*
X125885679Y-123783586D01*
X125903428Y-123793343D01*
X125919953Y-123804198D01*
X125935959Y-123816614D01*
X125976149Y-123834005D01*
X125979262Y-123835352D01*
X125984583Y-123837958D01*
X126025940Y-123860695D01*
X126025948Y-123860697D01*
X126045558Y-123865732D01*
X126064267Y-123872137D01*
X126082855Y-123880181D01*
X126129477Y-123887564D01*
X126135262Y-123888763D01*
X126180970Y-123900500D01*
X126201224Y-123900500D01*
X126220934Y-123902051D01*
X126223141Y-123902400D01*
X126240943Y-123905220D01*
X126275472Y-123901956D01*
X126287917Y-123900780D01*
X126293850Y-123900500D01*
X187101147Y-123900500D01*
X187116988Y-123902249D01*
X187117016Y-123901956D01*
X187124902Y-123902700D01*
X187124909Y-123902702D01*
X187194958Y-123900500D01*
X187224856Y-123900500D01*
X187231818Y-123899619D01*
X187237719Y-123899154D01*
X187284889Y-123897673D01*
X187304347Y-123892019D01*
X187323694Y-123888013D01*
X187343797Y-123885474D01*
X187387679Y-123868099D01*
X187393274Y-123866183D01*
X187427055Y-123856370D01*
X187438591Y-123853019D01*
X187438595Y-123853017D01*
X187456026Y-123842708D01*
X187473780Y-123834009D01*
X187492617Y-123826552D01*
X187530786Y-123798818D01*
X187535744Y-123795562D01*
X187576362Y-123771542D01*
X187590685Y-123757218D01*
X187605724Y-123744374D01*
X187622107Y-123732472D01*
X187652193Y-123696103D01*
X187656161Y-123691741D01*
X195902692Y-115445211D01*
X195965002Y-115411187D01*
X196035817Y-115416252D01*
X196067294Y-115433440D01*
X196118871Y-115472050D01*
X196161418Y-115528885D01*
X196166483Y-115599701D01*
X196143912Y-115648850D01*
X196068058Y-115749297D01*
X195970291Y-115945639D01*
X195970288Y-115945646D01*
X195910267Y-116156602D01*
X195910267Y-116156606D01*
X195890030Y-116374995D01*
X195890030Y-116375004D01*
X195910267Y-116593393D01*
X195910267Y-116593397D01*
X195970288Y-116804353D01*
X195970290Y-116804358D01*
X195970291Y-116804361D01*
X196068057Y-117000701D01*
X196068058Y-117000702D01*
X196200234Y-117175733D01*
X196316677Y-117281885D01*
X196353543Y-117342559D01*
X196351754Y-117413534D01*
X196316677Y-117468115D01*
X196200234Y-117574266D01*
X196068058Y-117749297D01*
X195970291Y-117945639D01*
X195970288Y-117945646D01*
X195910267Y-118156602D01*
X195910267Y-118156606D01*
X195890030Y-118374995D01*
X195890030Y-118375004D01*
X195910267Y-118593393D01*
X195910267Y-118593397D01*
X195970288Y-118804353D01*
X195970290Y-118804358D01*
X195970291Y-118804361D01*
X196068057Y-119000701D01*
X196068058Y-119000702D01*
X196200234Y-119175733D01*
X196242339Y-119214116D01*
X196317049Y-119282222D01*
X196353915Y-119342895D01*
X196352127Y-119413869D01*
X196317049Y-119468452D01*
X196200605Y-119574604D01*
X196068485Y-119749561D01*
X195970760Y-119945820D01*
X195970758Y-119945825D01*
X195920917Y-120121000D01*
X196766914Y-120121000D01*
X196750959Y-120136955D01*
X196693435Y-120249852D01*
X196673614Y-120375000D01*
X196693435Y-120500148D01*
X196750959Y-120613045D01*
X196766914Y-120629000D01*
X195920917Y-120629000D01*
X195970758Y-120804174D01*
X195970760Y-120804179D01*
X196068485Y-121000438D01*
X196200605Y-121175395D01*
X196362626Y-121323097D01*
X196549033Y-121438514D01*
X196753468Y-121517713D01*
X196824600Y-121531009D01*
X196824600Y-120686686D01*
X196840555Y-120702641D01*
X196953452Y-120760165D01*
X197047119Y-120775000D01*
X197110081Y-120775000D01*
X197203748Y-120760165D01*
X197316645Y-120702641D01*
X197332600Y-120686686D01*
X197332600Y-121531009D01*
X197403731Y-121517713D01*
X197608165Y-121438514D01*
X197608167Y-121438514D01*
X197796770Y-121321737D01*
X197865217Y-121302883D01*
X197932992Y-121324027D01*
X197978577Y-121378456D01*
X197989100Y-121428865D01*
X197989100Y-123198649D01*
X197995609Y-123259196D01*
X197995611Y-123259204D01*
X198046710Y-123396202D01*
X198046712Y-123396207D01*
X198134338Y-123513261D01*
X198251392Y-123600887D01*
X198251394Y-123600888D01*
X198251396Y-123600889D01*
X198310475Y-123622924D01*
X198388395Y-123651988D01*
X198388403Y-123651990D01*
X198448950Y-123658499D01*
X198448955Y-123658499D01*
X198448962Y-123658500D01*
X198448968Y-123658500D01*
X210546232Y-123658500D01*
X210546238Y-123658500D01*
X210546245Y-123658499D01*
X210546249Y-123658499D01*
X210606796Y-123651990D01*
X210606799Y-123651989D01*
X210606801Y-123651989D01*
X210743804Y-123600889D01*
X210860861Y-123513261D01*
X210948487Y-123396207D01*
X210948487Y-123396206D01*
X210948489Y-123396204D01*
X210999589Y-123259201D01*
X211006100Y-123198638D01*
X211006100Y-113770829D01*
X211026102Y-113702708D01*
X211079758Y-113656215D01*
X211150032Y-113646111D01*
X211214612Y-113675605D01*
X211252996Y-113735331D01*
X211255780Y-113746763D01*
X211287447Y-113909525D01*
X211418662Y-114583939D01*
X211419155Y-114587615D01*
X211419244Y-114587935D01*
X211420367Y-114592701D01*
X211420438Y-114593065D01*
X211421641Y-114596583D01*
X211653318Y-115432471D01*
X211654107Y-115436135D01*
X211654199Y-115436386D01*
X211655710Y-115441099D01*
X211655786Y-115441374D01*
X211657269Y-115444802D01*
X211720037Y-115616820D01*
X211954438Y-116259206D01*
X211955177Y-116261229D01*
X211956271Y-116264865D01*
X211956328Y-116264989D01*
X211958265Y-116269695D01*
X211958314Y-116269829D01*
X211960086Y-116273162D01*
X212324254Y-117065285D01*
X212325645Y-117068823D01*
X212325653Y-117068838D01*
X212328013Y-117073458D01*
X212328023Y-117073481D01*
X212330083Y-117076691D01*
X212760265Y-117839132D01*
X212761696Y-117842116D01*
X212762521Y-117843384D01*
X212764582Y-117846781D01*
X212765321Y-117848091D01*
X212767297Y-117850726D01*
X213000706Y-118209435D01*
X213002777Y-118213217D01*
X213006144Y-118217937D01*
X213006145Y-118217938D01*
X213007226Y-118219453D01*
X213008220Y-118220981D01*
X213011459Y-118225961D01*
X213014234Y-118229279D01*
X213059107Y-118292189D01*
X213257831Y-118570791D01*
X213266334Y-118582711D01*
X213268180Y-118585449D01*
X213345486Y-118706806D01*
X213419235Y-118831971D01*
X213488524Y-118959386D01*
X213553320Y-119088848D01*
X213613651Y-119220272D01*
X213669505Y-119353495D01*
X213720883Y-119488380D01*
X213767777Y-119624769D01*
X213810191Y-119762527D01*
X213846097Y-119894090D01*
X213848112Y-119901472D01*
X213881560Y-120041544D01*
X213910512Y-120182507D01*
X213934983Y-120324288D01*
X213954962Y-120466692D01*
X213970454Y-120609625D01*
X213977595Y-120702641D01*
X213981251Y-120750249D01*
X213981436Y-120755074D01*
X213981436Y-122557578D01*
X213981375Y-122565957D01*
X213981375Y-122565959D01*
X213980908Y-122630621D01*
X213978250Y-122998467D01*
X213978114Y-123002179D01*
X213965095Y-123198649D01*
X213952004Y-123396202D01*
X213949963Y-123426995D01*
X213949617Y-123430610D01*
X213897109Y-123851436D01*
X213896567Y-123854956D01*
X213888232Y-123900500D01*
X213820423Y-124270988D01*
X213819695Y-124274424D01*
X213720604Y-124685079D01*
X213719707Y-124688398D01*
X213598393Y-125092935D01*
X213597340Y-125096131D01*
X213454502Y-125493888D01*
X213453308Y-125496959D01*
X213289637Y-125887275D01*
X213288314Y-125890217D01*
X213104536Y-126272364D01*
X213103095Y-126275178D01*
X212899936Y-126648435D01*
X212898386Y-126651123D01*
X212676534Y-127014842D01*
X212674883Y-127017407D01*
X212435080Y-127370847D01*
X212433334Y-127373293D01*
X212176240Y-127715836D01*
X212174403Y-127718167D01*
X211900807Y-128049019D01*
X211898883Y-128051238D01*
X211609446Y-128369776D01*
X211607452Y-128371870D01*
X211328440Y-128651767D01*
X211302930Y-128677358D01*
X211300846Y-128679354D01*
X211155442Y-128812380D01*
X210981922Y-128971127D01*
X210979744Y-128973029D01*
X210647236Y-129250311D01*
X210644973Y-129252112D01*
X210299474Y-129514318D01*
X210297125Y-129516017D01*
X209939482Y-129762360D01*
X209937044Y-129763957D01*
X209567899Y-129993806D01*
X209565371Y-129995300D01*
X209185486Y-130207936D01*
X209182865Y-130209324D01*
X208984820Y-130308239D01*
X208792941Y-130404074D01*
X208790235Y-130405346D01*
X208391046Y-130581501D01*
X208388238Y-130582660D01*
X208337252Y-130602277D01*
X207980451Y-130739555D01*
X207977542Y-130740593D01*
X207561910Y-130877533D01*
X207558906Y-130878441D01*
X207136121Y-130994748D01*
X207133024Y-130995516D01*
X206703850Y-131090498D01*
X206700663Y-131091118D01*
X206633085Y-131102459D01*
X206265761Y-131164102D01*
X206262529Y-131164558D01*
X206131682Y-131179521D01*
X205822667Y-131214856D01*
X205819322Y-131215148D01*
X205375194Y-131242081D01*
X205371785Y-131242195D01*
X205328025Y-131242476D01*
X204926694Y-131245061D01*
X192925427Y-131245061D01*
X192921354Y-131244929D01*
X192773784Y-131235372D01*
X192772200Y-131235220D01*
X192624475Y-131221046D01*
X192475762Y-131202141D01*
X192455952Y-131199003D01*
X192327780Y-131178700D01*
X192180697Y-131150780D01*
X192107655Y-131134601D01*
X192034614Y-131118422D01*
X191889658Y-131081670D01*
X191746010Y-131040584D01*
X191603744Y-130995196D01*
X191463022Y-130945560D01*
X191323988Y-130891726D01*
X191186794Y-130833751D01*
X191051519Y-130771661D01*
X190918354Y-130705527D01*
X190787381Y-130635372D01*
X190658714Y-130561230D01*
X190440270Y-130424607D01*
X189893042Y-130082350D01*
X189889968Y-130080172D01*
X189889828Y-130080100D01*
X189885435Y-130077594D01*
X189885302Y-130077511D01*
X189881851Y-130075969D01*
X189085370Y-129663610D01*
X189082166Y-129661704D01*
X189081864Y-129661577D01*
X189077407Y-129659488D01*
X189077114Y-129659336D01*
X189073611Y-129658096D01*
X188737084Y-129516131D01*
X188246584Y-129309211D01*
X188243301Y-129307588D01*
X188242829Y-129307430D01*
X188238338Y-129305733D01*
X188237900Y-129305548D01*
X188234374Y-129304598D01*
X187381878Y-129019164D01*
X187378553Y-129017820D01*
X187377921Y-129017659D01*
X187373477Y-129016352D01*
X187372834Y-129016136D01*
X187369286Y-129015462D01*
X186496462Y-128793479D01*
X186493076Y-128792390D01*
X186492273Y-128792247D01*
X186487868Y-128791294D01*
X186487097Y-128791098D01*
X186483561Y-128790691D01*
X185763071Y-128662060D01*
X185595440Y-128632133D01*
X185592028Y-128631302D01*
X185591162Y-128631210D01*
X185586781Y-128630588D01*
X185585907Y-128630432D01*
X185582379Y-128630279D01*
X184684080Y-128535147D01*
X184680619Y-128534558D01*
X184679712Y-128534527D01*
X184675303Y-128534217D01*
X184674388Y-128534120D01*
X184670862Y-128534216D01*
X184170291Y-128516644D01*
X183767492Y-128502504D01*
X183764002Y-128502160D01*
X183763046Y-128502194D01*
X183758650Y-128502194D01*
X183757708Y-128502161D01*
X183754223Y-128502503D01*
X182850816Y-128534210D01*
X182847321Y-128534114D01*
X182846397Y-128534212D01*
X182842027Y-128534520D01*
X182841069Y-128534554D01*
X182837605Y-128535142D01*
X181939324Y-128630266D01*
X181935796Y-128630418D01*
X181934912Y-128630576D01*
X181930526Y-128631199D01*
X181929642Y-128631292D01*
X181926216Y-128632128D01*
X181038119Y-128790676D01*
X181034571Y-128791084D01*
X181033798Y-128791281D01*
X181029381Y-128792236D01*
X181028614Y-128792373D01*
X181025227Y-128793460D01*
X180152385Y-129015443D01*
X180148839Y-129016116D01*
X180148184Y-129016336D01*
X180143764Y-129017636D01*
X180143121Y-129017799D01*
X180139783Y-129019148D01*
X179287274Y-129304579D01*
X179283742Y-129305530D01*
X179283267Y-129305731D01*
X179278840Y-129307404D01*
X179278355Y-129307566D01*
X179275071Y-129309189D01*
X178448014Y-129658079D01*
X178444515Y-129659318D01*
X178444216Y-129659473D01*
X178439787Y-129661550D01*
X178439467Y-129661685D01*
X178436262Y-129663590D01*
X177639728Y-130075968D01*
X177636287Y-130077506D01*
X177636173Y-130077578D01*
X177631790Y-130080078D01*
X177631651Y-130080149D01*
X177628552Y-130082344D01*
X176865307Y-130559696D01*
X176790065Y-130602292D01*
X176733777Y-130634157D01*
X176602503Y-130703629D01*
X176469135Y-130769414D01*
X176423180Y-130790466D01*
X176333784Y-130831418D01*
X176196565Y-130889542D01*
X176057595Y-130943688D01*
X175917033Y-130993747D01*
X175774950Y-131039636D01*
X175631462Y-131081258D01*
X175486736Y-131118505D01*
X175340821Y-131151296D01*
X175193899Y-131179521D01*
X175046054Y-131203092D01*
X174897371Y-131221915D01*
X174748029Y-131235886D01*
X174600108Y-131244794D01*
X174596325Y-131244908D01*
X169941806Y-131244908D01*
X169937734Y-131244776D01*
X169790167Y-131235220D01*
X169640864Y-131220895D01*
X169492149Y-131201988D01*
X169344166Y-131178548D01*
X169197086Y-131150628D01*
X169051002Y-131118269D01*
X168906048Y-131081518D01*
X168762397Y-131040432D01*
X168620113Y-130995038D01*
X168479408Y-130945407D01*
X168340371Y-130891573D01*
X168307145Y-130877533D01*
X168203176Y-130833599D01*
X168160626Y-130814068D01*
X168067925Y-130771519D01*
X167934731Y-130705374D01*
X167803755Y-130635218D01*
X167675289Y-130561194D01*
X166909449Y-130082209D01*
X166906355Y-130080017D01*
X166906237Y-130079956D01*
X166901775Y-130077411D01*
X166901701Y-130077364D01*
X166898256Y-130075824D01*
X166330560Y-129781914D01*
X166101760Y-129663458D01*
X166098556Y-129661552D01*
X166098254Y-129661425D01*
X166093797Y-129659336D01*
X166093504Y-129659184D01*
X166090001Y-129657944D01*
X166089984Y-129657937D01*
X166041831Y-129637623D01*
X165262976Y-129309058D01*
X165259695Y-129307436D01*
X165259220Y-129307277D01*
X165254729Y-129305580D01*
X165254291Y-129305395D01*
X165250765Y-129304445D01*
X164398271Y-129019012D01*
X164394940Y-129017666D01*
X164394308Y-129017505D01*
X164389848Y-129016192D01*
X164389232Y-129015986D01*
X164385674Y-129015309D01*
X163512854Y-128793326D01*
X163509467Y-128792237D01*
X163508666Y-128792094D01*
X163504261Y-128791141D01*
X163503490Y-128790945D01*
X163499954Y-128790538D01*
X162779464Y-128661907D01*
X162611833Y-128631980D01*
X162608421Y-128631149D01*
X162607555Y-128631057D01*
X162603174Y-128630435D01*
X162602300Y-128630279D01*
X162598773Y-128630126D01*
X162314475Y-128600018D01*
X161700466Y-128534993D01*
X161697011Y-128534405D01*
X161696106Y-128534374D01*
X161691697Y-128534064D01*
X161690782Y-128533967D01*
X161687256Y-128534063D01*
X161187276Y-128516512D01*
X160783887Y-128502352D01*
X160780397Y-128502008D01*
X160779440Y-128502042D01*
X160775045Y-128502042D01*
X160774101Y-128502009D01*
X160770614Y-128502351D01*
X159867212Y-128534057D01*
X159863717Y-128533961D01*
X159862792Y-128534059D01*
X159858422Y-128534367D01*
X159857464Y-128534401D01*
X159854000Y-128534989D01*
X158955719Y-128630114D01*
X158952191Y-128630266D01*
X158951307Y-128630424D01*
X158946921Y-128631047D01*
X158946037Y-128631140D01*
X158942611Y-128631976D01*
X158054514Y-128790524D01*
X158050966Y-128790932D01*
X158050193Y-128791129D01*
X158045776Y-128792084D01*
X158045009Y-128792221D01*
X158041622Y-128793308D01*
X157168781Y-129015291D01*
X157165235Y-129015964D01*
X157164580Y-129016184D01*
X157160160Y-129017484D01*
X157159517Y-129017647D01*
X157156179Y-129018996D01*
X156303670Y-129304427D01*
X156300138Y-129305378D01*
X156299663Y-129305579D01*
X156295236Y-129307252D01*
X156294751Y-129307414D01*
X156291467Y-129309037D01*
X155464387Y-129657937D01*
X155460892Y-129659176D01*
X155460583Y-129659336D01*
X155456190Y-129661396D01*
X155455848Y-129661540D01*
X155452656Y-129663438D01*
X154656123Y-130075815D01*
X154652682Y-130077353D01*
X154652568Y-130077425D01*
X154648185Y-130079925D01*
X154648046Y-130079996D01*
X154644947Y-130082191D01*
X154098756Y-130423792D01*
X153879188Y-130561115D01*
X153750165Y-130634157D01*
X153618891Y-130703629D01*
X153485523Y-130769414D01*
X153350173Y-130831418D01*
X153212954Y-130889542D01*
X153073985Y-130943689D01*
X152933423Y-130993747D01*
X152791341Y-131039636D01*
X152647853Y-131081258D01*
X152503127Y-131118505D01*
X152357212Y-131151296D01*
X152210290Y-131179521D01*
X152062445Y-131203092D01*
X151913761Y-131221915D01*
X151764419Y-131235886D01*
X151616497Y-131244794D01*
X151612713Y-131244908D01*
X146958186Y-131244908D01*
X146954114Y-131244776D01*
X146806547Y-131235220D01*
X146657244Y-131220895D01*
X146508529Y-131201988D01*
X146360547Y-131178548D01*
X146213466Y-131150628D01*
X146067383Y-131118269D01*
X145922435Y-131081520D01*
X145778778Y-131040432D01*
X145636494Y-130995038D01*
X145495790Y-130945407D01*
X145356753Y-130891573D01*
X145219558Y-130833599D01*
X145214806Y-130831418D01*
X145084294Y-130771514D01*
X144951128Y-130705381D01*
X144820139Y-130635218D01*
X144691533Y-130561113D01*
X143925811Y-130082203D01*
X143922721Y-130080013D01*
X143922610Y-130079956D01*
X143918148Y-130077411D01*
X143918074Y-130077364D01*
X143914629Y-130075824D01*
X143346933Y-129781914D01*
X143118133Y-129663458D01*
X143114929Y-129661552D01*
X143114627Y-129661425D01*
X143110170Y-129659336D01*
X143109877Y-129659184D01*
X143106374Y-129657944D01*
X143106357Y-129657937D01*
X143058204Y-129637623D01*
X142279349Y-129309058D01*
X142276068Y-129307436D01*
X142275593Y-129307277D01*
X142271102Y-129305580D01*
X142270664Y-129305395D01*
X142267138Y-129304445D01*
X141414645Y-129019012D01*
X141411314Y-129017666D01*
X141410682Y-129017505D01*
X141406222Y-129016192D01*
X141405606Y-129015986D01*
X141402048Y-129015309D01*
X140529228Y-128793326D01*
X140525841Y-128792237D01*
X140525040Y-128792094D01*
X140520635Y-128791141D01*
X140519864Y-128790945D01*
X140516328Y-128790538D01*
X139795838Y-128661907D01*
X139628207Y-128631980D01*
X139624795Y-128631149D01*
X139623929Y-128631057D01*
X139619548Y-128630435D01*
X139618674Y-128630279D01*
X139615147Y-128630126D01*
X139331300Y-128600066D01*
X138716841Y-128534993D01*
X138713386Y-128534405D01*
X138712481Y-128534374D01*
X138708072Y-128534064D01*
X138707157Y-128533967D01*
X138703631Y-128534063D01*
X138203651Y-128516512D01*
X137800262Y-128502352D01*
X137796772Y-128502008D01*
X137795815Y-128502042D01*
X137791420Y-128502042D01*
X137790476Y-128502009D01*
X137786989Y-128502351D01*
X136883588Y-128534057D01*
X136880093Y-128533961D01*
X136879168Y-128534059D01*
X136874798Y-128534367D01*
X136873840Y-128534401D01*
X136870376Y-128534989D01*
X135972095Y-128630114D01*
X135968567Y-128630266D01*
X135967683Y-128630424D01*
X135963297Y-128631047D01*
X135962413Y-128631140D01*
X135958987Y-128631976D01*
X135070891Y-128790524D01*
X135067343Y-128790932D01*
X135066570Y-128791129D01*
X135062153Y-128792084D01*
X135061386Y-128792221D01*
X135057999Y-128793308D01*
X134185158Y-129015291D01*
X134181612Y-129015964D01*
X134180957Y-129016184D01*
X134176537Y-129017484D01*
X134175894Y-129017647D01*
X134172556Y-129018996D01*
X133320048Y-129304427D01*
X133316517Y-129305378D01*
X133316041Y-129305579D01*
X133311614Y-129307252D01*
X133311129Y-129307414D01*
X133307845Y-129309037D01*
X132480770Y-129657935D01*
X132477265Y-129659177D01*
X132476975Y-129659328D01*
X132472524Y-129661415D01*
X132472235Y-129661536D01*
X132469045Y-129663433D01*
X131672503Y-130075815D01*
X131669062Y-130077353D01*
X131668948Y-130077425D01*
X131664565Y-130079925D01*
X131664426Y-130079996D01*
X131661327Y-130082191D01*
X131115136Y-130423792D01*
X130895568Y-130561115D01*
X130766545Y-130634157D01*
X130635270Y-130703629D01*
X130501904Y-130769414D01*
X130366522Y-130831430D01*
X130229331Y-130889542D01*
X130090361Y-130943688D01*
X129949799Y-130993747D01*
X129807716Y-131039636D01*
X129664228Y-131081258D01*
X129519501Y-131118505D01*
X129373586Y-131151296D01*
X129226663Y-131179521D01*
X129078818Y-131203092D01*
X128930134Y-131221915D01*
X128780791Y-131235886D01*
X128632869Y-131244794D01*
X128629085Y-131244908D01*
X123974559Y-131244908D01*
X123970487Y-131244776D01*
X123822920Y-131235220D01*
X123673617Y-131220895D01*
X123524902Y-131201988D01*
X123376920Y-131178548D01*
X123229839Y-131150628D01*
X123083756Y-131118269D01*
X122938808Y-131081520D01*
X122795152Y-131040432D01*
X122652867Y-130995038D01*
X122512163Y-130945407D01*
X122373127Y-130891573D01*
X122235933Y-130833599D01*
X122193379Y-130814067D01*
X122100669Y-130771514D01*
X121967503Y-130705381D01*
X121872600Y-130654547D01*
X121836515Y-130635218D01*
X121707948Y-130561135D01*
X120942222Y-130082224D01*
X120939117Y-130080022D01*
X120938981Y-130079952D01*
X120934545Y-130077422D01*
X120934459Y-130077368D01*
X120931018Y-130075829D01*
X120809183Y-130012752D01*
X120134512Y-129663458D01*
X120131308Y-129661552D01*
X120131006Y-129661425D01*
X120126549Y-129659336D01*
X120126256Y-129659184D01*
X120122753Y-129657944D01*
X120122736Y-129657937D01*
X120074583Y-129637623D01*
X119295728Y-129309058D01*
X119292447Y-129307436D01*
X119291972Y-129307277D01*
X119287481Y-129305580D01*
X119287043Y-129305395D01*
X119283517Y-129304445D01*
X118431022Y-129019012D01*
X118427697Y-129017668D01*
X118427065Y-129017507D01*
X118422621Y-129016200D01*
X118421978Y-129015985D01*
X118418429Y-129015310D01*
X117545605Y-128793326D01*
X117542217Y-128792237D01*
X117541417Y-128792094D01*
X117537012Y-128791141D01*
X117536241Y-128790945D01*
X117532705Y-128790538D01*
X116755487Y-128651780D01*
X116644585Y-128631980D01*
X116641173Y-128631149D01*
X116640307Y-128631057D01*
X116635926Y-128630435D01*
X116635052Y-128630279D01*
X116631525Y-128630126D01*
X116347227Y-128600018D01*
X115733218Y-128534993D01*
X115729763Y-128534405D01*
X115728858Y-128534374D01*
X115724449Y-128534064D01*
X115723534Y-128533967D01*
X115720008Y-128534063D01*
X115220028Y-128516512D01*
X114816639Y-128502352D01*
X114813149Y-128502008D01*
X114812192Y-128502042D01*
X114807797Y-128502042D01*
X114806853Y-128502009D01*
X114803366Y-128502351D01*
X113899964Y-128534057D01*
X113896469Y-128533961D01*
X113895544Y-128534059D01*
X113891174Y-128534367D01*
X113890216Y-128534401D01*
X113886752Y-128534989D01*
X112988471Y-128630114D01*
X112984943Y-128630266D01*
X112984059Y-128630424D01*
X112979673Y-128631047D01*
X112978789Y-128631140D01*
X112975363Y-128631976D01*
X112087267Y-128790524D01*
X112083719Y-128790932D01*
X112082946Y-128791129D01*
X112078529Y-128792084D01*
X112077762Y-128792221D01*
X112074375Y-128793308D01*
X111201534Y-129015291D01*
X111197988Y-129015964D01*
X111197333Y-129016184D01*
X111192913Y-129017484D01*
X111192270Y-129017647D01*
X111188932Y-129018996D01*
X110336423Y-129304427D01*
X110332891Y-129305378D01*
X110332416Y-129305579D01*
X110327989Y-129307252D01*
X110327504Y-129307414D01*
X110324220Y-129309037D01*
X109497145Y-129657935D01*
X109493640Y-129659177D01*
X109493350Y-129659328D01*
X109488899Y-129661415D01*
X109488610Y-129661536D01*
X109485420Y-129663433D01*
X108688878Y-130075815D01*
X108685437Y-130077353D01*
X108685323Y-130077425D01*
X108680940Y-130079925D01*
X108680801Y-130079996D01*
X108677702Y-130082191D01*
X108130208Y-130424607D01*
X107911932Y-130561122D01*
X107782918Y-130634164D01*
X107651645Y-130703640D01*
X107518266Y-130769432D01*
X107382928Y-130831431D01*
X107245699Y-130889560D01*
X107106720Y-130943710D01*
X106966150Y-130993769D01*
X106824097Y-131039647D01*
X106680618Y-131081265D01*
X106535884Y-131118513D01*
X106389968Y-131151302D01*
X106243045Y-131179525D01*
X106095196Y-131203095D01*
X105946516Y-131221915D01*
X105797172Y-131235886D01*
X105649250Y-131244794D01*
X105645466Y-131244908D01*
X93643854Y-131244908D01*
X93508430Y-131244040D01*
X93199064Y-131242057D01*
X93195656Y-131241943D01*
X92751599Y-131215030D01*
X92748254Y-131214737D01*
X92308437Y-131164459D01*
X92305167Y-131163998D01*
X91870319Y-131091036D01*
X91867133Y-131090417D01*
X91826925Y-131081520D01*
X91805033Y-131076675D01*
X91438001Y-130995460D01*
X91434902Y-130994692D01*
X91133553Y-130911801D01*
X91012130Y-130878401D01*
X91009131Y-130877495D01*
X90593532Y-130740583D01*
X90590639Y-130739551D01*
X90182867Y-130582680D01*
X90180055Y-130581519D01*
X89930412Y-130471369D01*
X89780867Y-130405385D01*
X89778159Y-130404112D01*
X89388226Y-130209377D01*
X89385616Y-130207996D01*
X89161111Y-130082344D01*
X89005746Y-129995388D01*
X89003217Y-129993895D01*
X88634066Y-129764066D01*
X88631628Y-129762469D01*
X88273960Y-129516131D01*
X88271611Y-129514432D01*
X87926133Y-129252268D01*
X87923871Y-129250468D01*
X87591318Y-128973174D01*
X87589141Y-128971273D01*
X87286987Y-128694869D01*
X87270231Y-128679541D01*
X87268141Y-128677538D01*
X86963596Y-128372060D01*
X86961587Y-128369950D01*
X86961429Y-128369776D01*
X86672144Y-128051436D01*
X86670237Y-128049236D01*
X86396590Y-127718352D01*
X86394753Y-127716021D01*
X86137674Y-127373530D01*
X86135927Y-127371084D01*
X86108266Y-127330319D01*
X85896060Y-127017588D01*
X85894438Y-127015068D01*
X85679225Y-126662265D01*
X85672555Y-126651330D01*
X85671004Y-126648641D01*
X85473158Y-126285182D01*
X85467792Y-126275324D01*
X85466359Y-126272524D01*
X85466282Y-126272364D01*
X85282548Y-125890346D01*
X85281248Y-125887455D01*
X85120918Y-125505144D01*
X85117561Y-125497138D01*
X85116371Y-125494078D01*
X85116303Y-125493888D01*
X84973491Y-125096255D01*
X84972445Y-125093076D01*
X84851102Y-124688496D01*
X84850205Y-124685177D01*
X84752206Y-124279107D01*
X84751087Y-124274468D01*
X84750367Y-124271073D01*
X84674192Y-123854954D01*
X84673656Y-123851470D01*
X84621126Y-123430589D01*
X84620780Y-123426960D01*
X84592609Y-123002085D01*
X84592473Y-122998373D01*
X84589353Y-122568423D01*
X84589353Y-120754689D01*
X84589511Y-120750234D01*
X84599559Y-120609207D01*
X84614597Y-120466212D01*
X84634405Y-120323799D01*
X84635214Y-120319129D01*
X84658926Y-120182137D01*
X84688128Y-120041255D01*
X84721950Y-119901352D01*
X84760341Y-119762562D01*
X84762810Y-119754646D01*
X84803256Y-119624988D01*
X84850648Y-119488758D01*
X84902468Y-119354000D01*
X84958665Y-119220851D01*
X85019174Y-119089465D01*
X85054476Y-119018889D01*
X85083981Y-118959905D01*
X85153013Y-118832341D01*
X85226242Y-118706872D01*
X85297487Y-118593393D01*
X85302357Y-118585635D01*
X85304403Y-118582579D01*
X85556472Y-118229200D01*
X85559255Y-118225878D01*
X85563538Y-118219296D01*
X85568090Y-118212914D01*
X85570170Y-118209101D01*
X85803440Y-117850615D01*
X85805432Y-117847961D01*
X85806178Y-117846640D01*
X85808260Y-117843208D01*
X85809079Y-117841949D01*
X85810513Y-117838956D01*
X86240678Y-117076563D01*
X86242739Y-117073353D01*
X86245114Y-117068705D01*
X86246511Y-117065147D01*
X86610660Y-116273080D01*
X86612436Y-116269745D01*
X86612480Y-116269626D01*
X86614445Y-116264853D01*
X86614493Y-116264747D01*
X86615582Y-116261122D01*
X86913480Y-115444734D01*
X86914971Y-115441288D01*
X86915035Y-115441060D01*
X86916582Y-115436233D01*
X86916652Y-115436040D01*
X86917433Y-115432402D01*
X87149118Y-114596514D01*
X87150321Y-114592998D01*
X87150385Y-114592670D01*
X87151525Y-114587831D01*
X87151608Y-114587530D01*
X87152099Y-114583855D01*
X87317577Y-113733372D01*
X87318494Y-113729811D01*
X87318538Y-113729436D01*
X87319296Y-113724539D01*
X87319364Y-113724186D01*
X87319569Y-113720501D01*
X87418853Y-112860277D01*
X87419493Y-112856657D01*
X87419510Y-112856228D01*
X87419885Y-112851346D01*
X87419932Y-112850937D01*
X87419852Y-112847265D01*
X87452947Y-111982172D01*
X87453307Y-111978528D01*
X87453290Y-111978077D01*
X87453290Y-111973213D01*
X87453306Y-111972775D01*
X87452948Y-111969131D01*
X87419858Y-111104025D01*
X87419938Y-111100360D01*
X87419890Y-111099938D01*
X87419516Y-111095063D01*
X87419499Y-111094638D01*
X87418858Y-111091004D01*
X87319582Y-110230791D01*
X87319380Y-110227115D01*
X87319305Y-110226731D01*
X87318550Y-110221847D01*
X87318507Y-110221478D01*
X87317587Y-110217899D01*
X87274399Y-109995926D01*
X87152114Y-109367403D01*
X87151625Y-109363743D01*
X87151538Y-109363427D01*
X87150404Y-109358611D01*
X87150341Y-109358288D01*
X87149141Y-109354779D01*
X86917459Y-108518875D01*
X86916670Y-108515207D01*
X86916587Y-108514978D01*
X86915050Y-108510183D01*
X86914990Y-108509969D01*
X86913505Y-108506535D01*
X86615603Y-107690116D01*
X86614518Y-107686502D01*
X86614458Y-107686372D01*
X86612503Y-107681620D01*
X86612460Y-107681503D01*
X86610686Y-107678167D01*
X86246536Y-106886084D01*
X86245143Y-106882532D01*
X86245126Y-106882502D01*
X86242760Y-106877870D01*
X86242752Y-106877854D01*
X86240694Y-106874646D01*
X85936497Y-106335500D01*
X85810518Y-106112219D01*
X85809084Y-106109225D01*
X85808260Y-106107959D01*
X85806193Y-106104551D01*
X85805474Y-106103278D01*
X85803488Y-106100627D01*
X85570116Y-105741975D01*
X85568036Y-105738169D01*
X85563554Y-105731892D01*
X85559312Y-105725367D01*
X85556517Y-105722026D01*
X85549179Y-105711739D01*
X85304246Y-105368353D01*
X85302416Y-105365642D01*
X85225209Y-105244572D01*
X85151778Y-105119299D01*
X85105777Y-105033791D01*
X85083170Y-104991768D01*
X85019274Y-104862093D01*
X84960007Y-104730434D01*
X84905305Y-104597007D01*
X84855048Y-104461890D01*
X84809178Y-104325318D01*
X84767591Y-104187397D01*
X84730204Y-104048300D01*
X84696937Y-103908213D01*
X84667700Y-103767269D01*
X84642405Y-103625634D01*
X84620964Y-103483458D01*
X84603296Y-103340914D01*
X84589652Y-103201626D01*
X84589353Y-103195482D01*
X84589353Y-94630006D01*
X84589512Y-94625529D01*
X84599556Y-94484514D01*
X84614594Y-94341522D01*
X84634399Y-94199122D01*
X84658920Y-94057460D01*
X84688121Y-93916581D01*
X84721945Y-93776675D01*
X84760334Y-93637892D01*
X84803250Y-93500320D01*
X84850642Y-93364092D01*
X84902464Y-93229335D01*
X84958660Y-93096187D01*
X85019183Y-92964777D01*
X85083984Y-92835231D01*
X85153012Y-92707676D01*
X85226234Y-92582221D01*
X85249938Y-92544465D01*
X85302524Y-92460705D01*
X85304555Y-92457672D01*
X85556472Y-92104506D01*
X85559255Y-92101184D01*
X85563538Y-92094602D01*
X85568090Y-92088220D01*
X85570170Y-92084407D01*
X85803459Y-91725890D01*
X85805448Y-91723240D01*
X85806174Y-91721953D01*
X85808268Y-91718501D01*
X85809072Y-91717266D01*
X85810504Y-91714275D01*
X86240677Y-90951867D01*
X86242738Y-90948657D01*
X86245109Y-90944017D01*
X86246504Y-90940465D01*
X86610650Y-90148400D01*
X86612434Y-90145048D01*
X86612486Y-90144908D01*
X86614446Y-90140146D01*
X86614492Y-90140044D01*
X86615575Y-90136438D01*
X86913478Y-89320035D01*
X86914969Y-89316589D01*
X86915033Y-89316361D01*
X86916580Y-89311534D01*
X86916650Y-89311341D01*
X86917431Y-89307703D01*
X87149117Y-88471813D01*
X87150320Y-88468297D01*
X87150384Y-88467969D01*
X87151524Y-88463130D01*
X87151607Y-88462829D01*
X87152098Y-88459154D01*
X87317576Y-87608670D01*
X87318493Y-87605109D01*
X87318537Y-87604734D01*
X87319295Y-87599837D01*
X87319363Y-87599484D01*
X87319568Y-87595800D01*
X87418851Y-86735577D01*
X87419492Y-86731953D01*
X87419509Y-86731523D01*
X87419884Y-86726641D01*
X87419931Y-86726232D01*
X87419851Y-86722560D01*
X87452947Y-85857469D01*
X87453307Y-85853821D01*
X87453290Y-85853371D01*
X87453290Y-85848507D01*
X87453306Y-85848069D01*
X87452948Y-85844425D01*
X87419858Y-84979317D01*
X87419938Y-84975652D01*
X87419890Y-84975230D01*
X87419516Y-84970355D01*
X87419499Y-84969930D01*
X87418858Y-84966296D01*
X87319582Y-84106083D01*
X87319380Y-84102407D01*
X87319305Y-84102023D01*
X87318550Y-84097139D01*
X87318508Y-84096774D01*
X87317587Y-84093193D01*
X87223845Y-83611375D01*
X87152115Y-83242695D01*
X87151626Y-83239035D01*
X87151539Y-83238719D01*
X87150405Y-83233903D01*
X87150342Y-83233580D01*
X87149142Y-83230071D01*
X86917460Y-82394167D01*
X86916671Y-82390499D01*
X86916588Y-82390270D01*
X86915051Y-82385475D01*
X86914991Y-82385258D01*
X86913504Y-82381821D01*
X86740336Y-81907244D01*
X86615605Y-81565413D01*
X86614519Y-81561797D01*
X86614459Y-81561666D01*
X86612504Y-81556914D01*
X86612461Y-81556797D01*
X86610687Y-81553461D01*
X86246532Y-80761369D01*
X86245136Y-80757813D01*
X86242766Y-80753173D01*
X86240701Y-80749955D01*
X85810518Y-79987520D01*
X85809088Y-79984532D01*
X85808261Y-79983262D01*
X85806183Y-79979837D01*
X85805462Y-79978558D01*
X85803483Y-79975918D01*
X85570159Y-79617344D01*
X85568079Y-79613533D01*
X85564631Y-79608702D01*
X85564631Y-79608701D01*
X85563542Y-79607175D01*
X85562532Y-79605622D01*
X85562530Y-79605621D01*
X85559319Y-79600683D01*
X85556540Y-79597359D01*
X85535369Y-79567679D01*
X85303568Y-79242707D01*
X85292440Y-79226058D01*
X85222900Y-79122020D01*
X85221346Y-79119574D01*
X85146971Y-78996395D01*
X85083959Y-78880794D01*
X85077697Y-78869305D01*
X85014022Y-78739786D01*
X84960062Y-78617947D01*
X84955677Y-78608045D01*
X84902395Y-78474298D01*
X84853905Y-78338744D01*
X84809949Y-78201624D01*
X84770250Y-78063117D01*
X84734547Y-77923453D01*
X84702571Y-77782837D01*
X84674058Y-77641499D01*
X84648738Y-77499632D01*
X84626358Y-77357551D01*
X84589882Y-77077722D01*
X84589353Y-77069570D01*
X84589353Y-75353089D01*
X84592462Y-74923182D01*
X84592598Y-74919471D01*
X84592644Y-74918786D01*
X84620755Y-74494627D01*
X84621101Y-74491002D01*
X84621109Y-74490943D01*
X84673609Y-74070206D01*
X84674149Y-74066687D01*
X84750308Y-73650576D01*
X84751022Y-73647206D01*
X84837211Y-73290025D01*
X84850124Y-73236512D01*
X84851015Y-73233213D01*
X84972342Y-72828637D01*
X84973381Y-72825477D01*
X85116235Y-72427692D01*
X85117428Y-72424622D01*
X85119167Y-72420476D01*
X85281108Y-72034282D01*
X85282405Y-72031400D01*
X85466204Y-71649215D01*
X85467618Y-71646453D01*
X85670811Y-71273134D01*
X85672314Y-71270527D01*
X85894212Y-70906737D01*
X85895847Y-70904198D01*
X86135687Y-70550710D01*
X86137434Y-70548264D01*
X86145675Y-70537284D01*
X86394523Y-70205731D01*
X86396317Y-70203456D01*
X86669972Y-69872536D01*
X86671843Y-69870379D01*
X86961311Y-69551810D01*
X86963300Y-69549722D01*
X87119802Y-69392725D01*
X87267834Y-69244225D01*
X87269891Y-69242253D01*
X87588824Y-68950473D01*
X87590964Y-68948604D01*
X87923553Y-68671251D01*
X87925788Y-68669474D01*
X88271281Y-68407268D01*
X88273579Y-68405606D01*
X88631304Y-68159197D01*
X88633698Y-68157629D01*
X89002876Y-67927751D01*
X89005339Y-67926296D01*
X89385278Y-67713614D01*
X89387860Y-67712246D01*
X89777836Y-67517451D01*
X89780508Y-67516197D01*
X89780671Y-67516125D01*
X90179751Y-67339998D01*
X90182512Y-67338857D01*
X90590362Y-67181911D01*
X90593201Y-67180898D01*
X91008889Y-67043909D01*
X91011841Y-67043017D01*
X91434664Y-66926662D01*
X91437723Y-66925902D01*
X91620576Y-66885416D01*
X91866922Y-66830872D01*
X91870108Y-66830252D01*
X92079836Y-66795031D01*
X92305009Y-66757216D01*
X92308220Y-66756763D01*
X92748144Y-66706401D01*
X92751429Y-66706113D01*
X93195596Y-66679115D01*
X93198973Y-66679001D01*
X93637160Y-66676110D01*
X93646551Y-66676110D01*
X105645286Y-66676110D01*
X105649396Y-66676244D01*
G37*
G04 #@! TD.AperFunction*
G04 #@! TA.AperFunction,Conductor*
G36*
X138453107Y-118737156D02*
G01*
X138412600Y-118875111D01*
X138412600Y-119018889D01*
X138453107Y-119156844D01*
X138481484Y-119201000D01*
X136803716Y-119201000D01*
X136832093Y-119156844D01*
X136872600Y-119018889D01*
X136872600Y-118875111D01*
X136832093Y-118737156D01*
X136803716Y-118693000D01*
X138481484Y-118693000D01*
X138453107Y-118737156D01*
G37*
G04 #@! TD.AperFunction*
G04 #@! TA.AperFunction,Conductor*
G36*
X140993107Y-118737156D02*
G01*
X140952600Y-118875111D01*
X140952600Y-119018889D01*
X140993107Y-119156844D01*
X141021484Y-119201000D01*
X139343716Y-119201000D01*
X139372093Y-119156844D01*
X139412600Y-119018889D01*
X139412600Y-118875111D01*
X139372093Y-118737156D01*
X139343716Y-118693000D01*
X141021484Y-118693000D01*
X140993107Y-118737156D01*
G37*
G04 #@! TD.AperFunction*
G04 #@! TA.AperFunction,Conductor*
G36*
X152521819Y-81858702D02*
G01*
X152568312Y-81912358D01*
X152578416Y-81982632D01*
X152548922Y-82047212D01*
X152494610Y-82083872D01*
X152471879Y-82091676D01*
X152335028Y-82138656D01*
X152335026Y-82138658D01*
X152137026Y-82245810D01*
X152137024Y-82245811D01*
X151959362Y-82384091D01*
X151806879Y-82549729D01*
X151806875Y-82549734D01*
X151683741Y-82738206D01*
X151593303Y-82944386D01*
X151593302Y-82944387D01*
X151538037Y-83162624D01*
X151538036Y-83162630D01*
X151538036Y-83162632D01*
X151531400Y-83242714D01*
X151519444Y-83387000D01*
X151538037Y-83611375D01*
X151593302Y-83829612D01*
X151593303Y-83829613D01*
X151683741Y-84035793D01*
X151806875Y-84224265D01*
X151806879Y-84224270D01*
X151959362Y-84389908D01*
X152013931Y-84432381D01*
X152137024Y-84528189D01*
X152170280Y-84546186D01*
X152220671Y-84596200D01*
X152236023Y-84665516D01*
X152211462Y-84732129D01*
X152170280Y-84767813D01*
X152137026Y-84785810D01*
X152137024Y-84785811D01*
X151959362Y-84924091D01*
X151806879Y-85089729D01*
X151806875Y-85089734D01*
X151683741Y-85278206D01*
X151593303Y-85484386D01*
X151593302Y-85484387D01*
X151538037Y-85702624D01*
X151538036Y-85702630D01*
X151538036Y-85702632D01*
X151525915Y-85848911D01*
X151519444Y-85927000D01*
X151536909Y-86137768D01*
X151522600Y-86207308D01*
X151500434Y-86237269D01*
X147141961Y-90595669D01*
X147079648Y-90629694D01*
X147008833Y-90624628D01*
X146951997Y-90582081D01*
X146935056Y-90551257D01*
X146916954Y-90503525D01*
X146819215Y-90361927D01*
X146690430Y-90247833D01*
X146690429Y-90247832D01*
X146690426Y-90247830D01*
X146538087Y-90167877D01*
X146538079Y-90167873D01*
X146371031Y-90126700D01*
X146371028Y-90126700D01*
X146198972Y-90126700D01*
X146198968Y-90126700D01*
X146031920Y-90167873D01*
X146031912Y-90167877D01*
X145879573Y-90247830D01*
X145879568Y-90247834D01*
X145832926Y-90289156D01*
X145750785Y-90361927D01*
X145653046Y-90503525D01*
X145653046Y-90503526D01*
X145653042Y-90503532D01*
X145621253Y-90587351D01*
X145592539Y-90631763D01*
X123284331Y-112940761D01*
X123271898Y-112950723D01*
X123272086Y-112950950D01*
X123265982Y-112955999D01*
X123217996Y-113007099D01*
X123196860Y-113028235D01*
X123196855Y-113028241D01*
X123192558Y-113033780D01*
X123188710Y-113038285D01*
X123156414Y-113072677D01*
X123146646Y-113090445D01*
X123135800Y-113106956D01*
X123123385Y-113122963D01*
X123123378Y-113122974D01*
X123104648Y-113166256D01*
X123102038Y-113171585D01*
X123079307Y-113212935D01*
X123079304Y-113212941D01*
X123074264Y-113232572D01*
X123067863Y-113251269D01*
X123059815Y-113269867D01*
X123052436Y-113316457D01*
X123051232Y-113322271D01*
X123039500Y-113367969D01*
X123039500Y-113388234D01*
X123037949Y-113407942D01*
X123034780Y-113427952D01*
X123034780Y-113427954D01*
X123039220Y-113474920D01*
X123039500Y-113480853D01*
X123039500Y-115129862D01*
X123019498Y-115197983D01*
X122973470Y-115240675D01*
X122927030Y-115265807D01*
X122927024Y-115265811D01*
X122749362Y-115404091D01*
X122596879Y-115569729D01*
X122508083Y-115705643D01*
X122454079Y-115751731D01*
X122383731Y-115761306D01*
X122319374Y-115731329D01*
X122297117Y-115705643D01*
X122208320Y-115569729D01*
X122064279Y-115413261D01*
X122055840Y-115404094D01*
X122055839Y-115404093D01*
X122055837Y-115404091D01*
X121973982Y-115340381D01*
X121878176Y-115265811D01*
X121680174Y-115158658D01*
X121680172Y-115158657D01*
X121680171Y-115158656D01*
X121467239Y-115085557D01*
X121467230Y-115085555D01*
X121423076Y-115078187D01*
X121245169Y-115048500D01*
X121020031Y-115048500D01*
X120906925Y-115067374D01*
X120797969Y-115085555D01*
X120797960Y-115085557D01*
X120585028Y-115158656D01*
X120585026Y-115158658D01*
X120387032Y-115265807D01*
X120387026Y-115265810D01*
X120387024Y-115265811D01*
X120209362Y-115404091D01*
X120056879Y-115569729D01*
X119968083Y-115705643D01*
X119914079Y-115751731D01*
X119843731Y-115761306D01*
X119779374Y-115731329D01*
X119757117Y-115705643D01*
X119668320Y-115569729D01*
X119524279Y-115413261D01*
X119515840Y-115404094D01*
X119515839Y-115404093D01*
X119515837Y-115404091D01*
X119433982Y-115340381D01*
X119338176Y-115265811D01*
X119140174Y-115158658D01*
X119140172Y-115158657D01*
X119140171Y-115158656D01*
X118927239Y-115085557D01*
X118927230Y-115085555D01*
X118883076Y-115078187D01*
X118705169Y-115048500D01*
X118480031Y-115048500D01*
X118366925Y-115067374D01*
X118257969Y-115085555D01*
X118257960Y-115085557D01*
X118045028Y-115158656D01*
X118045026Y-115158658D01*
X117847032Y-115265807D01*
X117847026Y-115265810D01*
X117847024Y-115265811D01*
X117669362Y-115404091D01*
X117516879Y-115569729D01*
X117428083Y-115705643D01*
X117374079Y-115751731D01*
X117303731Y-115761306D01*
X117239374Y-115731329D01*
X117217117Y-115705643D01*
X117128320Y-115569729D01*
X116984279Y-115413261D01*
X116975840Y-115404094D01*
X116975839Y-115404093D01*
X116975837Y-115404091D01*
X116893982Y-115340381D01*
X116798176Y-115265811D01*
X116600174Y-115158658D01*
X116600172Y-115158657D01*
X116600171Y-115158656D01*
X116387239Y-115085557D01*
X116387230Y-115085555D01*
X116343076Y-115078187D01*
X116165169Y-115048500D01*
X115940031Y-115048500D01*
X115826925Y-115067374D01*
X115717969Y-115085555D01*
X115717960Y-115085557D01*
X115505028Y-115158656D01*
X115505026Y-115158658D01*
X115307032Y-115265807D01*
X115307026Y-115265810D01*
X115307024Y-115265811D01*
X115129362Y-115404091D01*
X114976879Y-115569729D01*
X114888083Y-115705643D01*
X114834079Y-115751731D01*
X114763731Y-115761306D01*
X114699374Y-115731329D01*
X114677117Y-115705643D01*
X114588320Y-115569729D01*
X114444279Y-115413261D01*
X114435840Y-115404094D01*
X114435839Y-115404093D01*
X114435837Y-115404091D01*
X114353982Y-115340381D01*
X114258176Y-115265811D01*
X114060174Y-115158658D01*
X114060172Y-115158657D01*
X114060171Y-115158656D01*
X113847239Y-115085557D01*
X113847230Y-115085555D01*
X113803076Y-115078187D01*
X113625169Y-115048500D01*
X113400031Y-115048500D01*
X113286925Y-115067374D01*
X113177969Y-115085555D01*
X113177960Y-115085557D01*
X112965028Y-115158656D01*
X112965026Y-115158658D01*
X112767032Y-115265807D01*
X112767026Y-115265810D01*
X112767024Y-115265811D01*
X112589362Y-115404091D01*
X112436879Y-115569729D01*
X112348083Y-115705643D01*
X112294079Y-115751731D01*
X112223731Y-115761306D01*
X112159374Y-115731329D01*
X112137117Y-115705643D01*
X112048320Y-115569729D01*
X111904279Y-115413261D01*
X111895840Y-115404094D01*
X111895839Y-115404093D01*
X111895837Y-115404091D01*
X111813982Y-115340381D01*
X111718176Y-115265811D01*
X111520174Y-115158658D01*
X111520172Y-115158657D01*
X111520171Y-115158656D01*
X111307239Y-115085557D01*
X111307230Y-115085555D01*
X111263076Y-115078187D01*
X111085169Y-115048500D01*
X110860031Y-115048500D01*
X110746925Y-115067374D01*
X110637969Y-115085555D01*
X110637960Y-115085557D01*
X110425028Y-115158656D01*
X110425026Y-115158658D01*
X110227032Y-115265807D01*
X110227026Y-115265810D01*
X110227024Y-115265811D01*
X110049362Y-115404091D01*
X109896879Y-115569729D01*
X109808083Y-115705643D01*
X109754079Y-115751731D01*
X109683731Y-115761306D01*
X109619374Y-115731329D01*
X109597117Y-115705643D01*
X109508320Y-115569729D01*
X109364279Y-115413261D01*
X109355840Y-115404094D01*
X109355839Y-115404093D01*
X109355837Y-115404091D01*
X109273982Y-115340381D01*
X109178176Y-115265811D01*
X108980174Y-115158658D01*
X108980172Y-115158657D01*
X108980171Y-115158656D01*
X108767239Y-115085557D01*
X108767232Y-115085555D01*
X108597198Y-115057182D01*
X108533299Y-115026240D01*
X108496271Y-114965664D01*
X108497872Y-114894685D01*
X108528839Y-114843809D01*
X138639824Y-84732129D01*
X141496281Y-81875606D01*
X141558592Y-81841580D01*
X141585377Y-81838700D01*
X152453698Y-81838700D01*
X152521819Y-81858702D01*
G37*
G04 #@! TD.AperFunction*
G04 #@! TA.AperFunction,Conductor*
G36*
X127912530Y-110208408D02*
G01*
X127969367Y-110250953D01*
X127994179Y-110317473D01*
X127994500Y-110326464D01*
X127994500Y-113136646D01*
X127994074Y-113143963D01*
X127993249Y-113151026D01*
X127993181Y-113151018D01*
X127992414Y-113158526D01*
X127992481Y-113158532D01*
X127991841Y-113165842D01*
X127994100Y-113243479D01*
X127994100Y-115214273D01*
X127974098Y-115282394D01*
X127945491Y-115313704D01*
X127829365Y-115404089D01*
X127829360Y-115404094D01*
X127676879Y-115569729D01*
X127588083Y-115705643D01*
X127534079Y-115751731D01*
X127463731Y-115761306D01*
X127399374Y-115731329D01*
X127377117Y-115705643D01*
X127288320Y-115569729D01*
X127144279Y-115413261D01*
X127135840Y-115404094D01*
X127135839Y-115404093D01*
X127135837Y-115404091D01*
X127053982Y-115340381D01*
X126958176Y-115265811D01*
X126760174Y-115158658D01*
X126760172Y-115158657D01*
X126760171Y-115158656D01*
X126547239Y-115085557D01*
X126547230Y-115085555D01*
X126503076Y-115078187D01*
X126325169Y-115048500D01*
X126100031Y-115048500D01*
X125986925Y-115067374D01*
X125877969Y-115085555D01*
X125877960Y-115085557D01*
X125665028Y-115158656D01*
X125665026Y-115158658D01*
X125467032Y-115265807D01*
X125467026Y-115265810D01*
X125467024Y-115265811D01*
X125289362Y-115404091D01*
X125136879Y-115569729D01*
X125048083Y-115705643D01*
X124994079Y-115751731D01*
X124923731Y-115761306D01*
X124859374Y-115731329D01*
X124837117Y-115705643D01*
X124748320Y-115569729D01*
X124604279Y-115413261D01*
X124595840Y-115404094D01*
X124595839Y-115404093D01*
X124595837Y-115404091D01*
X124513982Y-115340381D01*
X124418176Y-115265811D01*
X124418169Y-115265807D01*
X124372530Y-115241108D01*
X124322140Y-115191095D01*
X124306500Y-115130295D01*
X124306500Y-113762586D01*
X124326502Y-113694465D01*
X124343400Y-113673495D01*
X127779404Y-110237369D01*
X127841715Y-110203344D01*
X127912530Y-110208408D01*
G37*
G04 #@! TD.AperFunction*
G04 #@! TA.AperFunction,Conductor*
G36*
X151452443Y-88534770D02*
G01*
X151509279Y-88577317D01*
X151533980Y-88642418D01*
X151538037Y-88691376D01*
X151593302Y-88909612D01*
X151593303Y-88909613D01*
X151683741Y-89115793D01*
X151806875Y-89304265D01*
X151806879Y-89304270D01*
X151959362Y-89469908D01*
X152012036Y-89510906D01*
X152137024Y-89608189D01*
X152170280Y-89626186D01*
X152220671Y-89676200D01*
X152236023Y-89745516D01*
X152211462Y-89812129D01*
X152170280Y-89847813D01*
X152137026Y-89865810D01*
X152137024Y-89865811D01*
X151959362Y-90004091D01*
X151806879Y-90169729D01*
X151806875Y-90169734D01*
X151683741Y-90358206D01*
X151593303Y-90564386D01*
X151593302Y-90564387D01*
X151538037Y-90782624D01*
X151538036Y-90782630D01*
X151538036Y-90782632D01*
X151519444Y-91007000D01*
X151538036Y-91231368D01*
X151538036Y-91231371D01*
X151538037Y-91231373D01*
X151565936Y-91341542D01*
X151563269Y-91412489D01*
X151532886Y-91461571D01*
X142732341Y-100261755D01*
X142719900Y-100271725D01*
X142720086Y-100271950D01*
X142713982Y-100276999D01*
X142666002Y-100328093D01*
X142644880Y-100349214D01*
X142644869Y-100349225D01*
X142640567Y-100354771D01*
X142636719Y-100359275D01*
X142604415Y-100393676D01*
X142604412Y-100393679D01*
X142594656Y-100411426D01*
X142583805Y-100427945D01*
X142571395Y-100443944D01*
X142571392Y-100443950D01*
X142552653Y-100487249D01*
X142550042Y-100492579D01*
X142527303Y-100533943D01*
X142522267Y-100553558D01*
X142515864Y-100572260D01*
X142507822Y-100590843D01*
X142500442Y-100637437D01*
X142499238Y-100643250D01*
X142487500Y-100688969D01*
X142487500Y-100709222D01*
X142485948Y-100728938D01*
X142482780Y-100748928D01*
X142482780Y-100748930D01*
X142487220Y-100795904D01*
X142487500Y-100801835D01*
X142487500Y-114922877D01*
X142467498Y-114990998D01*
X142413842Y-115037491D01*
X142354696Y-115047079D01*
X142354611Y-115048681D01*
X142351243Y-115048500D01*
X142351238Y-115048500D01*
X140553962Y-115048500D01*
X140553950Y-115048500D01*
X140493403Y-115055009D01*
X140493395Y-115055011D01*
X140356397Y-115106110D01*
X140356392Y-115106112D01*
X140239338Y-115193738D01*
X140151712Y-115310792D01*
X140151711Y-115310795D01*
X140107600Y-115429058D01*
X140065053Y-115485893D01*
X139998532Y-115510703D01*
X139929158Y-115495611D01*
X139896846Y-115470363D01*
X139835840Y-115404094D01*
X139835839Y-115404093D01*
X139835837Y-115404091D01*
X139753982Y-115340381D01*
X139658176Y-115265811D01*
X139460174Y-115158658D01*
X139460172Y-115158657D01*
X139460171Y-115158656D01*
X139247239Y-115085557D01*
X139247230Y-115085555D01*
X139203076Y-115078187D01*
X139025169Y-115048500D01*
X138800031Y-115048500D01*
X138686925Y-115067374D01*
X138577969Y-115085555D01*
X138577960Y-115085557D01*
X138365028Y-115158656D01*
X138365026Y-115158658D01*
X138167032Y-115265807D01*
X138167026Y-115265810D01*
X138167024Y-115265811D01*
X137989362Y-115404091D01*
X137836879Y-115569729D01*
X137748083Y-115705643D01*
X137694079Y-115751731D01*
X137623731Y-115761306D01*
X137559374Y-115731329D01*
X137537117Y-115705643D01*
X137448320Y-115569729D01*
X137304279Y-115413261D01*
X137295840Y-115404094D01*
X137295839Y-115404093D01*
X137295837Y-115404091D01*
X137213982Y-115340381D01*
X137118176Y-115265811D01*
X136920174Y-115158658D01*
X136920172Y-115158657D01*
X136920171Y-115158656D01*
X136707239Y-115085557D01*
X136707230Y-115085555D01*
X136663076Y-115078187D01*
X136485169Y-115048500D01*
X136260031Y-115048500D01*
X136146925Y-115067374D01*
X136037969Y-115085555D01*
X136037960Y-115085557D01*
X135825028Y-115158656D01*
X135825026Y-115158658D01*
X135627032Y-115265807D01*
X135627026Y-115265810D01*
X135627024Y-115265811D01*
X135449362Y-115404091D01*
X135296879Y-115569729D01*
X135208083Y-115705643D01*
X135154079Y-115751731D01*
X135083731Y-115761306D01*
X135019374Y-115731329D01*
X134997117Y-115705643D01*
X134908320Y-115569729D01*
X134764279Y-115413261D01*
X134755840Y-115404094D01*
X134755839Y-115404093D01*
X134755837Y-115404091D01*
X134673982Y-115340381D01*
X134578176Y-115265811D01*
X134380174Y-115158658D01*
X134380172Y-115158657D01*
X134380171Y-115158656D01*
X134167239Y-115085557D01*
X134167230Y-115085555D01*
X134123076Y-115078187D01*
X133945169Y-115048500D01*
X133720031Y-115048500D01*
X133606925Y-115067374D01*
X133497969Y-115085555D01*
X133497960Y-115085557D01*
X133285028Y-115158656D01*
X133285026Y-115158658D01*
X133087032Y-115265807D01*
X133087026Y-115265810D01*
X133087024Y-115265811D01*
X132909362Y-115404091D01*
X132756879Y-115569729D01*
X132668083Y-115705643D01*
X132614079Y-115751731D01*
X132543731Y-115761306D01*
X132479374Y-115731329D01*
X132457117Y-115705643D01*
X132368320Y-115569729D01*
X132224279Y-115413261D01*
X132215840Y-115404094D01*
X132215839Y-115404093D01*
X132215837Y-115404091D01*
X132133982Y-115340381D01*
X132038176Y-115265811D01*
X131840174Y-115158658D01*
X131840172Y-115158657D01*
X131840171Y-115158656D01*
X131627239Y-115085557D01*
X131627230Y-115085555D01*
X131583076Y-115078187D01*
X131405169Y-115048500D01*
X131180031Y-115048500D01*
X131066925Y-115067374D01*
X130957969Y-115085555D01*
X130957960Y-115085557D01*
X130745028Y-115158656D01*
X130745026Y-115158658D01*
X130547032Y-115265807D01*
X130547026Y-115265810D01*
X130547024Y-115265811D01*
X130369362Y-115404091D01*
X130216879Y-115569729D01*
X130128083Y-115705643D01*
X130074079Y-115751731D01*
X130003731Y-115761306D01*
X129939374Y-115731329D01*
X129917117Y-115705643D01*
X129828320Y-115569729D01*
X129751142Y-115485893D01*
X129675840Y-115404094D01*
X129605699Y-115349500D01*
X129560108Y-115314014D01*
X129518637Y-115256388D01*
X129511500Y-115214583D01*
X129511500Y-113322371D01*
X129513185Y-113305877D01*
X129513119Y-113305872D01*
X129513757Y-113298565D01*
X129513759Y-113298558D01*
X129511500Y-113220920D01*
X129511500Y-113187820D01*
X129511500Y-110423375D01*
X129531502Y-110355254D01*
X129548402Y-110334282D01*
X151319318Y-88563727D01*
X151381628Y-88529704D01*
X151452443Y-88534770D01*
G37*
G04 #@! TD.AperFunction*
G04 #@! TA.AperFunction,NonConductor*
G36*
X181671901Y-93664168D02*
G01*
X181720568Y-93696884D01*
X181794020Y-93776674D01*
X181804362Y-93787908D01*
X181821183Y-93801000D01*
X181982024Y-93926189D01*
X182180026Y-94033342D01*
X182180027Y-94033342D01*
X182180028Y-94033343D01*
X182243402Y-94055099D01*
X182392965Y-94106444D01*
X182615031Y-94143500D01*
X182615035Y-94143500D01*
X182840165Y-94143500D01*
X182840169Y-94143500D01*
X183062235Y-94106444D01*
X183275174Y-94033342D01*
X183384834Y-93973997D01*
X183454261Y-93959168D01*
X183520687Y-93984228D01*
X183563020Y-94041223D01*
X183570800Y-94084812D01*
X183570800Y-100074327D01*
X183550798Y-100142448D01*
X183533895Y-100163423D01*
X182938480Y-100758837D01*
X182876168Y-100792862D01*
X182828647Y-100794022D01*
X182744612Y-100780000D01*
X182519474Y-100780000D01*
X182371466Y-100804698D01*
X182297412Y-100817055D01*
X182297403Y-100817057D01*
X182084471Y-100890156D01*
X182084469Y-100890158D01*
X181886469Y-100997310D01*
X181886467Y-100997311D01*
X181708805Y-101135591D01*
X181556322Y-101301229D01*
X181556318Y-101301234D01*
X181433184Y-101489706D01*
X181342746Y-101695886D01*
X181342745Y-101695887D01*
X181287480Y-101914124D01*
X181268887Y-102138500D01*
X181287480Y-102362875D01*
X181342745Y-102581112D01*
X181342746Y-102581113D01*
X181433184Y-102787293D01*
X181556318Y-102975765D01*
X181556322Y-102975770D01*
X181708805Y-103141408D01*
X181751983Y-103175015D01*
X181824892Y-103231762D01*
X181866362Y-103289386D01*
X181873500Y-103331193D01*
X181873500Y-103627531D01*
X181853498Y-103695652D01*
X181799842Y-103742145D01*
X181775735Y-103748765D01*
X181776074Y-103750197D01*
X181768395Y-103752011D01*
X181631397Y-103803110D01*
X181631392Y-103803112D01*
X181514338Y-103890738D01*
X181426712Y-104007792D01*
X181426710Y-104007797D01*
X181375611Y-104144795D01*
X181375609Y-104144803D01*
X181369100Y-104205350D01*
X181369100Y-106002649D01*
X181375609Y-106063196D01*
X181375611Y-106063204D01*
X181426710Y-106200202D01*
X181426712Y-106200207D01*
X181514338Y-106317261D01*
X181631392Y-106404887D01*
X181631394Y-106404888D01*
X181631396Y-106404889D01*
X181690475Y-106426924D01*
X181768395Y-106455988D01*
X181768403Y-106455990D01*
X181828950Y-106462499D01*
X181828955Y-106462499D01*
X181828962Y-106462500D01*
X181828968Y-106462500D01*
X183626232Y-106462500D01*
X183626238Y-106462500D01*
X183626245Y-106462499D01*
X183626249Y-106462499D01*
X183686796Y-106455990D01*
X183686799Y-106455989D01*
X183686801Y-106455989D01*
X183823804Y-106404889D01*
X183940861Y-106317261D01*
X184028489Y-106200204D01*
X184048000Y-106147891D01*
X184090546Y-106091058D01*
X184157066Y-106066247D01*
X184226440Y-106081338D01*
X184255150Y-106102831D01*
X191257092Y-113104773D01*
X191269065Y-113118627D01*
X191272297Y-113122969D01*
X191283531Y-113138058D01*
X191323487Y-113171585D01*
X191323975Y-113171994D01*
X191328021Y-113175702D01*
X191333900Y-113181581D01*
X191333901Y-113181582D01*
X191359895Y-113202135D01*
X191419360Y-113252032D01*
X191419366Y-113252035D01*
X191425495Y-113256067D01*
X191425458Y-113256122D01*
X191431811Y-113260169D01*
X191431847Y-113260113D01*
X191438092Y-113263965D01*
X191438095Y-113263967D01*
X191508452Y-113296775D01*
X191577812Y-113331609D01*
X191577813Y-113331609D01*
X191577817Y-113331611D01*
X191584713Y-113334121D01*
X191584689Y-113334185D01*
X191591805Y-113336659D01*
X191591827Y-113336595D01*
X191598791Y-113338903D01*
X191674849Y-113354607D01*
X191708866Y-113362669D01*
X191750344Y-113372500D01*
X191750350Y-113372500D01*
X191757633Y-113373352D01*
X191757625Y-113373419D01*
X191765122Y-113374185D01*
X191765128Y-113374119D01*
X191772435Y-113374757D01*
X191772442Y-113374759D01*
X191850080Y-113372500D01*
X195801558Y-113372500D01*
X195869679Y-113392502D01*
X195916172Y-113446158D01*
X195926276Y-113516432D01*
X195919613Y-113542533D01*
X195901611Y-113590795D01*
X195901609Y-113590803D01*
X195895100Y-113651350D01*
X195895100Y-113675191D01*
X195875098Y-113743312D01*
X195829150Y-113783126D01*
X195830228Y-113784949D01*
X195823408Y-113788981D01*
X195823407Y-113788982D01*
X195805964Y-113799297D01*
X195788218Y-113807990D01*
X195769382Y-113815448D01*
X195731209Y-113843181D01*
X195726248Y-113846440D01*
X195685638Y-113870458D01*
X195671311Y-113884784D01*
X195656285Y-113897617D01*
X195639895Y-113909525D01*
X195639893Y-113909527D01*
X195609808Y-113945892D01*
X195605812Y-113950283D01*
X186959500Y-122596595D01*
X186897188Y-122630621D01*
X186870405Y-122633500D01*
X156332100Y-122633500D01*
X156263979Y-122613498D01*
X156217486Y-122559842D01*
X156206100Y-122507500D01*
X156206100Y-115349500D01*
X156226102Y-115281379D01*
X156279758Y-115234886D01*
X156332100Y-115223500D01*
X159662147Y-115223500D01*
X159677988Y-115225249D01*
X159678016Y-115224956D01*
X159685902Y-115225700D01*
X159685909Y-115225702D01*
X159755958Y-115223500D01*
X159785856Y-115223500D01*
X159792818Y-115222619D01*
X159798719Y-115222154D01*
X159845889Y-115220673D01*
X159865347Y-115215019D01*
X159884694Y-115211013D01*
X159904797Y-115208474D01*
X159948679Y-115191099D01*
X159954274Y-115189183D01*
X159982816Y-115180891D01*
X159999591Y-115176019D01*
X159999595Y-115176017D01*
X160017026Y-115165708D01*
X160034780Y-115157009D01*
X160053617Y-115149552D01*
X160091786Y-115121818D01*
X160096744Y-115118562D01*
X160137362Y-115094542D01*
X160151685Y-115080218D01*
X160166724Y-115067374D01*
X160173217Y-115062657D01*
X160183107Y-115055472D01*
X160213193Y-115019103D01*
X160217161Y-115014741D01*
X181538776Y-93693127D01*
X181601086Y-93659103D01*
X181671901Y-93664168D01*
G37*
G04 #@! TD.AperFunction*
G04 #@! TA.AperFunction,NonConductor*
G36*
X124639445Y-120009305D02*
G01*
X124670205Y-120031873D01*
X125477809Y-120838767D01*
X125487703Y-120851111D01*
X125487947Y-120850910D01*
X125492996Y-120857012D01*
X125493000Y-120857018D01*
X125544181Y-120905080D01*
X125565440Y-120926320D01*
X125570872Y-120930530D01*
X125575391Y-120934387D01*
X125609679Y-120966586D01*
X125609681Y-120966587D01*
X125627581Y-120976428D01*
X125644060Y-120987248D01*
X125660202Y-120999757D01*
X125703391Y-121018424D01*
X125708707Y-121021026D01*
X125749940Y-121043695D01*
X125769726Y-121048775D01*
X125788372Y-121055154D01*
X125807125Y-121063260D01*
X125849480Y-121069948D01*
X125853584Y-121070597D01*
X125859420Y-121071804D01*
X125904970Y-121083500D01*
X125925394Y-121083500D01*
X125945050Y-121085042D01*
X125965224Y-121088229D01*
X126007590Y-121084205D01*
X126012050Y-121083782D01*
X126018009Y-121083500D01*
X141970147Y-121083500D01*
X141985988Y-121085249D01*
X141986016Y-121084956D01*
X141993902Y-121085700D01*
X141993909Y-121085702D01*
X142063958Y-121083500D01*
X142093856Y-121083500D01*
X142100818Y-121082619D01*
X142106719Y-121082154D01*
X142153889Y-121080673D01*
X142173347Y-121075019D01*
X142192694Y-121071013D01*
X142212797Y-121068474D01*
X142256679Y-121051099D01*
X142262274Y-121049183D01*
X142290816Y-121040891D01*
X142307591Y-121036019D01*
X142307595Y-121036017D01*
X142325026Y-121025708D01*
X142342780Y-121017009D01*
X142361617Y-121009552D01*
X142399786Y-120981818D01*
X142404744Y-120978562D01*
X142445362Y-120954542D01*
X142459685Y-120940218D01*
X142474724Y-120927374D01*
X142476175Y-120926320D01*
X142491107Y-120915472D01*
X142521188Y-120879108D01*
X142525166Y-120874736D01*
X142974006Y-120425897D01*
X143036317Y-120391873D01*
X143107133Y-120396938D01*
X143163968Y-120439485D01*
X143188779Y-120506005D01*
X143189100Y-120514994D01*
X143189100Y-122507500D01*
X143169098Y-122575621D01*
X143115442Y-122622114D01*
X143063100Y-122633500D01*
X126575594Y-122633500D01*
X126507473Y-122613498D01*
X126486499Y-122596595D01*
X124252110Y-120362205D01*
X124218084Y-120299893D01*
X124223149Y-120229077D01*
X124265696Y-120172242D01*
X124281225Y-120162302D01*
X124418176Y-120088189D01*
X124503758Y-120021576D01*
X124569799Y-119995520D01*
X124639445Y-120009305D01*
G37*
G04 #@! TD.AperFunction*
M02*
