M48
INCH,TZ
T1C0.0157
T2C0.0315
T3C0.0394
T4C0.0720
T5C0.0866
%
G90
G05
T1
X57593Y-35762
T2
X70878Y-28580
X72059Y-28580
X73240Y-28580
X77590Y-45030
X77590Y-45817
X77590Y-46604
X77590Y-47392
T3
X41690Y-45830
X41690Y-46830
X42690Y-45830
X42690Y-46830
X43690Y-45830
X43690Y-46830
X44690Y-45830
X44690Y-46830
X45690Y-45830
X45690Y-46830
X46690Y-45830
X46690Y-46830
X47690Y-45830
X47690Y-46830
X48690Y-45830
X48690Y-46830
X49690Y-45830
X49690Y-46830
X50690Y-45830
X50690Y-46830
X51690Y-45830
X51690Y-46830
X52690Y-45830
X52690Y-46830
X53690Y-45830
X53690Y-46830
X54690Y-45830
X54690Y-46830
X55690Y-45830
X55690Y-46830
X60190Y-32830
X60190Y-33830
X60190Y-34830
X60190Y-35830
X60190Y-36830
X60190Y-37830
X63434Y-41096
X63434Y-42096
X71902Y-40212
X71940Y-35530
X71940Y-36530
X71940Y-41380
X75223Y-35618
X76223Y-35618
X77223Y-35618
X81539Y-37531
X81539Y-38531
X81539Y-39531
X81690Y-35630
X81692Y-41330
X82690Y-35630
X82692Y-41330
T4
X57744Y-46114
X60401Y-45114
X60401Y-47114
X79204Y-45122
X79204Y-47122
X81860Y-46122
T5
X69598Y-28580
X74520Y-28580
T0
M30
