G04 #@! TF.GenerationSoftware,KiCad,Pcbnew,8.0.0~rc1-27482ef8a0~176~ubuntu22.04.1*
G04 #@! TF.CreationDate,2024-01-20T19:03:22+09:00*
G04 #@! TF.ProjectId,bGeigieZen V3.0.2 Production,62476569-6769-4655-9a65-6e2056332e30,V3.0.2*
G04 #@! TF.SameCoordinates,Original*
G04 #@! TF.FileFunction,Soldermask,Top*
G04 #@! TF.FilePolarity,Negative*
%FSLAX46Y46*%
G04 Gerber Fmt 4.6, Leading zero omitted, Abs format (unit mm)*
G04 Created by KiCad (PCBNEW 8.0.0~rc1-27482ef8a0~176~ubuntu22.04.1) date 2024-01-20 19:03:22*
%MOMM*%
%LPD*%
G01*
G04 APERTURE LIST*
%ADD10R,1.700000X1.700000*%
%ADD11O,1.700000X1.700000*%
%ADD12C,1.879600*%
%ADD13C,3.203200*%
%ADD14C,5.000000*%
%ADD15R,1.350000X1.350000*%
%ADD16O,1.350000X1.350000*%
%ADD17C,2.743200*%
G04 APERTURE END LIST*
D10*
X141452600Y-116407000D03*
D11*
X141452600Y-118947000D03*
X138912600Y-116407000D03*
X138912600Y-118947000D03*
X136372600Y-116407000D03*
X136372600Y-118947000D03*
X133832600Y-116407000D03*
X133832600Y-118947000D03*
X131292600Y-116407000D03*
X131292600Y-118947000D03*
X128752600Y-116407000D03*
X128752600Y-118947000D03*
X126212600Y-116407000D03*
X126212600Y-118947000D03*
X123672600Y-116407000D03*
X123672600Y-118947000D03*
X121132600Y-116407000D03*
X121132600Y-118947000D03*
X118592600Y-116407000D03*
X118592600Y-118947000D03*
X116052600Y-116407000D03*
X116052600Y-118947000D03*
X113512600Y-116407000D03*
X113512600Y-118947000D03*
X110972600Y-116407000D03*
X110972600Y-118947000D03*
X108432600Y-116407000D03*
X108432600Y-118947000D03*
X105892600Y-116407000D03*
X105892600Y-118947000D03*
D10*
X209330734Y-90462202D03*
D11*
X206790734Y-90462202D03*
D10*
X152984600Y-98500000D03*
D11*
X152984600Y-95960000D03*
X152984600Y-93420000D03*
X152984600Y-90880000D03*
X152984600Y-88340000D03*
X152984600Y-85800000D03*
D12*
X187505600Y-73838000D03*
X184505600Y-73838000D03*
X181505600Y-73838000D03*
D13*
X190755600Y-73838000D03*
X178255600Y-73838000D03*
D10*
X209335334Y-104940202D03*
D11*
X206795334Y-104940202D03*
D14*
X101608000Y-77830000D03*
D10*
X161121600Y-106925000D03*
D11*
X161121600Y-104385000D03*
D10*
X191067600Y-90470000D03*
D11*
X193607600Y-90470000D03*
X196147600Y-90470000D03*
D10*
X207108000Y-95330000D03*
D11*
X207108000Y-97870000D03*
X207108000Y-100410000D03*
D10*
X183134000Y-104850000D03*
D11*
X183134000Y-101884500D03*
D14*
X101737600Y-121560000D03*
D15*
X158447600Y-120169000D03*
D16*
X158447600Y-118169000D03*
X158447600Y-116169000D03*
X158447600Y-114169000D03*
D10*
X183032400Y-90422800D03*
D11*
X183063469Y-93510215D03*
D17*
X207925600Y-117150000D03*
X153417600Y-119670000D03*
X153417600Y-114590000D03*
X146669600Y-117130000D03*
X201177600Y-114610000D03*
X201177600Y-119690000D03*
M02*
