G04 #@! TF.GenerationSoftware,KiCad,Pcbnew,8.0.0~rc2-91e15634fc~176~ubuntu22.04.1*
G04 #@! TF.CreationDate,2024-02-10T07:00:10+09:00*
G04 #@! TF.ProjectId,bGeigieZen V3.x.x production,62476569-6769-4655-9a65-6e2056332e78,V3.0.3*
G04 #@! TF.SameCoordinates,Original*
G04 #@! TF.FileFunction,Copper,L2,Bot*
G04 #@! TF.FilePolarity,Positive*
%FSLAX46Y46*%
G04 Gerber Fmt 4.6, Leading zero omitted, Abs format (unit mm)*
G04 Created by KiCad (PCBNEW 8.0.0~rc2-91e15634fc~176~ubuntu22.04.1) date 2024-02-10 07:00:10*
%MOMM*%
%LPD*%
G01*
G04 APERTURE LIST*
G04 #@! TA.AperFunction,ComponentPad*
%ADD10R,1.700000X1.700000*%
G04 #@! TD*
G04 #@! TA.AperFunction,ComponentPad*
%ADD11O,1.700000X1.700000*%
G04 #@! TD*
G04 #@! TA.AperFunction,ComponentPad*
%ADD12C,1.676400*%
G04 #@! TD*
G04 #@! TA.AperFunction,ComponentPad*
%ADD13C,3.000000*%
G04 #@! TD*
G04 #@! TA.AperFunction,ComponentPad*
%ADD14R,1.350000X1.350000*%
G04 #@! TD*
G04 #@! TA.AperFunction,ComponentPad*
%ADD15O,1.350000X1.350000*%
G04 #@! TD*
G04 #@! TA.AperFunction,ComponentPad*
%ADD16C,2.743200*%
G04 #@! TD*
G04 #@! TA.AperFunction,ViaPad*
%ADD17C,0.300000*%
G04 #@! TD*
G04 #@! TA.AperFunction,Conductor*
%ADD18C,0.250000*%
G04 #@! TD*
G04 #@! TA.AperFunction,Conductor*
%ADD19C,0.500000*%
G04 #@! TD*
G04 APERTURE END LIST*
D10*
X141452600Y-116407000D03*
D11*
X141452600Y-118947000D03*
X138912600Y-116407000D03*
X138912600Y-118947000D03*
X136372600Y-116407000D03*
X136372600Y-118947000D03*
X133832600Y-116407000D03*
X133832600Y-118947000D03*
X131292600Y-116407000D03*
X131292600Y-118947000D03*
X128752600Y-116407000D03*
X128752600Y-118947000D03*
X126212600Y-116407000D03*
X126212600Y-118947000D03*
X123672600Y-116407000D03*
X123672600Y-118947000D03*
X121132600Y-116407000D03*
X121132600Y-118947000D03*
X118592600Y-116407000D03*
X118592600Y-118947000D03*
X116052600Y-116407000D03*
X116052600Y-118947000D03*
X113512600Y-116407000D03*
X113512600Y-118947000D03*
X110972600Y-116407000D03*
X110972600Y-118947000D03*
X108432600Y-116407000D03*
X108432600Y-118947000D03*
X105892600Y-116407000D03*
X105892600Y-118947000D03*
D10*
X209330700Y-90462200D03*
D11*
X206790700Y-90462200D03*
D10*
X152984600Y-98500000D03*
D11*
X152984600Y-95960000D03*
X152984600Y-93420000D03*
X152984600Y-90880000D03*
X152984600Y-88340000D03*
X152984600Y-85800000D03*
D12*
X187505600Y-73838000D03*
X184505600Y-73838000D03*
X181505600Y-73838000D03*
D13*
X190755600Y-73838000D03*
X178255600Y-73838000D03*
D10*
X209335300Y-104940200D03*
D11*
X206795300Y-104940200D03*
D10*
X161121600Y-106925000D03*
D11*
X161121600Y-104385000D03*
D10*
X191067600Y-90470000D03*
D11*
X193607600Y-90470000D03*
X196147600Y-90470000D03*
D10*
X207108000Y-95330000D03*
D11*
X207108000Y-97870000D03*
X207108000Y-100410000D03*
D10*
X183134000Y-104850000D03*
D11*
X183134000Y-101884500D03*
D14*
X158447600Y-120169000D03*
D15*
X158447600Y-118169000D03*
X158447600Y-116169000D03*
X158447600Y-114169000D03*
D10*
X183032400Y-90422800D03*
D11*
X183063469Y-93510215D03*
D16*
X208412600Y-117140000D03*
X205237600Y-117140000D03*
X153417600Y-119670000D03*
X153417600Y-114590000D03*
X146669600Y-117130000D03*
X201427600Y-114600000D03*
X198252600Y-114600000D03*
X201427600Y-119690000D03*
X198252600Y-119680000D03*
D17*
X148996000Y-118515000D03*
X145186000Y-119176000D03*
X144374000Y-116178000D03*
X149290000Y-91770100D03*
X146310000Y-98222500D03*
X170148000Y-102640000D03*
D18*
X149290000Y-91770100D02*
X148310000Y-91770100D01*
X123672600Y-116407000D02*
X123673000Y-116407000D01*
X148310000Y-91770100D02*
X123673000Y-116407000D01*
X123673000Y-118064000D02*
X123673000Y-118358000D01*
X146310000Y-98222500D02*
X142726000Y-98222500D01*
X123673000Y-118358000D02*
X123673000Y-118652500D01*
X142726000Y-98222500D02*
X124849000Y-116099000D01*
X123673000Y-118652500D02*
X123673000Y-118947000D01*
X124040000Y-117770000D02*
X123673000Y-117770000D01*
X123673000Y-117770000D02*
X123673000Y-118064000D01*
X124849000Y-116961000D02*
X124040000Y-117770000D01*
X124849000Y-116099000D02*
X124849000Y-116961000D01*
X123673000Y-118652500D02*
X123672600Y-118652900D01*
X123672600Y-118652900D02*
X123672600Y-118947000D01*
X123673000Y-118064000D02*
X123673000Y-118358000D01*
D19*
X158448000Y-116169000D02*
X158447600Y-116169000D01*
X151362000Y-109457000D02*
X135702000Y-109457000D01*
X128752600Y-116407000D02*
X128753000Y-116407000D01*
X151362000Y-89962600D02*
X151362000Y-109457000D01*
X158447600Y-116169000D02*
X157226000Y-116178400D01*
X196148000Y-90470000D02*
X197749000Y-90470000D01*
X135702000Y-109457000D02*
X128753000Y-116407000D01*
X202609000Y-95330000D02*
X207108000Y-95330000D01*
X157226000Y-116178400D02*
X153568400Y-109422000D01*
X152985000Y-88340000D02*
X152985000Y-88340200D01*
X153568400Y-109422000D02*
X151362000Y-109457000D01*
X196148000Y-90470000D02*
X196147600Y-90470000D01*
X152985000Y-88340200D02*
X151362000Y-89962600D01*
X152984600Y-88340000D02*
X152985000Y-88340000D01*
X197749000Y-90470000D02*
X202609000Y-95330000D01*
X185826400Y-75386000D02*
X184638000Y-73970300D01*
X197026000Y-117140000D02*
X204365600Y-117140000D01*
X185826400Y-99058800D02*
X185826400Y-75386000D01*
X204365600Y-117140000D02*
X204366000Y-117140000D01*
X184550000Y-73882100D02*
X184549700Y-73882100D01*
X184638000Y-73970300D02*
X184550000Y-73882100D01*
X183134000Y-100283000D02*
X185826400Y-99058800D01*
X183134000Y-101884500D02*
X183134000Y-100283000D01*
X183134000Y-104850000D02*
X183134000Y-101884500D01*
X184736000Y-104850000D02*
X197026000Y-117140000D01*
X184638000Y-73970300D02*
X184594000Y-73926200D01*
X184550000Y-73882100D02*
X184506000Y-73838000D01*
X184549700Y-73882100D02*
X184505600Y-73838000D01*
X183134000Y-104850000D02*
X184736000Y-104850000D01*
D18*
X152985000Y-99382500D02*
X152984600Y-99382100D01*
X158447600Y-118169000D02*
X158910000Y-117706600D01*
X159759000Y-116858000D02*
X159766000Y-109320400D01*
X159766000Y-109320400D02*
X152985000Y-99676700D01*
X158910000Y-117706600D02*
X158910000Y-117706000D01*
X158910000Y-117706000D02*
X159759000Y-116858000D01*
X152985000Y-99382500D02*
X152985000Y-99088300D01*
X152984600Y-99382100D02*
X152984600Y-98500000D01*
X152985000Y-99676700D02*
X152985000Y-99382500D01*
X158448000Y-120169000D02*
X158754000Y-119863000D01*
X158754000Y-119863000D02*
X158753600Y-119863000D01*
X159060000Y-119556000D02*
X162322000Y-116295000D01*
X158754000Y-119863000D02*
X159060000Y-119557000D01*
X159060000Y-119557000D02*
X159060000Y-119556000D01*
X162322000Y-95136900D02*
X152985000Y-85800000D01*
X158753600Y-119863000D02*
X158447600Y-120169000D01*
X152984600Y-85800000D02*
X152985000Y-85800000D01*
X162322000Y-116295000D02*
X162322000Y-95136900D01*
D19*
X140280000Y-82020000D02*
X106613000Y-115687000D01*
X105893000Y-116407000D02*
X106613000Y-115687000D01*
X105982800Y-116317000D02*
X105893000Y-116407000D01*
X106612000Y-115687000D02*
X106252000Y-116047000D01*
X105982800Y-116317000D02*
X105893000Y-116407000D01*
X181505800Y-73838200D02*
X181505600Y-73838000D01*
X106072500Y-116227000D02*
X105982800Y-116317000D01*
X181506000Y-73838200D02*
X181506000Y-73838400D01*
X181506000Y-73838200D02*
X181505800Y-73838200D01*
X106613000Y-115687000D02*
X106612000Y-115687000D01*
X106072500Y-116227000D02*
X105982800Y-116317000D01*
X173324000Y-82020000D02*
X140280000Y-82020000D01*
X105892600Y-116407000D02*
X105893000Y-116407000D01*
X181506000Y-73838400D02*
X173324000Y-82020000D01*
X181506000Y-73838000D02*
X181506000Y-73838200D01*
X106252000Y-116047000D02*
X106072500Y-116227000D01*
X106252000Y-116047000D02*
X106072500Y-116227000D01*
D18*
X146669600Y-117130000D02*
X146670000Y-117130000D01*
X153417600Y-119669600D02*
X153418000Y-119670000D01*
X181887000Y-93510200D02*
X183063500Y-93510200D01*
X170148000Y-102640000D02*
X172757000Y-102640000D01*
X153417600Y-114590400D02*
X153418000Y-114590000D01*
X150878000Y-117130000D02*
X153417600Y-119669600D01*
X153417600Y-114590400D02*
X153417600Y-114590000D01*
X172757000Y-102640000D02*
X181887000Y-93510200D01*
X146670000Y-117130000D02*
X150878000Y-117130000D01*
X183063500Y-93510200D02*
X183064000Y-93510200D01*
X153417600Y-119669600D02*
X153417600Y-119670000D01*
X150878000Y-117130000D02*
X153417600Y-114590400D01*
G04 #@! TA.AperFunction,Conductor*
G36*
X138446675Y-118754007D02*
G01*
X138412600Y-118881174D01*
X138412600Y-119012826D01*
X138446675Y-119139993D01*
X138481897Y-119201000D01*
X136803303Y-119201000D01*
X136838525Y-119139993D01*
X136872600Y-119012826D01*
X136872600Y-118881174D01*
X136838525Y-118754007D01*
X136803303Y-118693000D01*
X138481897Y-118693000D01*
X138446675Y-118754007D01*
G37*
G04 #@! TD.AperFunction*
G04 #@! TA.AperFunction,Conductor*
G36*
X140986675Y-118754007D02*
G01*
X140952600Y-118881174D01*
X140952600Y-119012826D01*
X140986675Y-119139993D01*
X141021897Y-119201000D01*
X139343303Y-119201000D01*
X139378525Y-119139993D01*
X139412600Y-119012826D01*
X139412600Y-118881174D01*
X139378525Y-118754007D01*
X139343303Y-118693000D01*
X141021897Y-118693000D01*
X140986675Y-118754007D01*
G37*
G04 #@! TD.AperFunction*
G04 #@! TA.AperFunction,Conductor*
G36*
X160061313Y-108239285D02*
G01*
X160128010Y-108264162D01*
X160162398Y-108276989D01*
X160162403Y-108276990D01*
X160222950Y-108283499D01*
X160222955Y-108283499D01*
X160222962Y-108283500D01*
X161562500Y-108283500D01*
X161630621Y-108303502D01*
X161677114Y-108357158D01*
X161688500Y-108409500D01*
X161688500Y-115980335D01*
X161668498Y-116048456D01*
X161651582Y-116069444D01*
X160584904Y-117135795D01*
X160522586Y-117169811D01*
X160451771Y-117164735D01*
X160394942Y-117122180D01*
X160370142Y-117055655D01*
X160372258Y-117022031D01*
X160380148Y-116982488D01*
X160380156Y-116982445D01*
X160385755Y-116954433D01*
X160392442Y-116920982D01*
X160392442Y-116920974D01*
X160392461Y-116920776D01*
X160392463Y-116920767D01*
X160392498Y-116860247D01*
X160399438Y-109386310D01*
X160400521Y-109373893D01*
X160400344Y-109373880D01*
X160400804Y-109367705D01*
X160400530Y-109356188D01*
X160399543Y-109314737D01*
X160399508Y-109311658D01*
X160399558Y-109258589D01*
X160398957Y-109252429D01*
X160399133Y-109252411D01*
X160398766Y-109249076D01*
X160398589Y-109249098D01*
X160397837Y-109242959D01*
X160397836Y-109242954D01*
X160386240Y-109191130D01*
X160385635Y-109188263D01*
X160375326Y-109136181D01*
X160375322Y-109136172D01*
X160373535Y-109130258D01*
X160373704Y-109130206D01*
X160372688Y-109126991D01*
X160372521Y-109127047D01*
X160370584Y-109121168D01*
X160349128Y-109072669D01*
X160347923Y-109069853D01*
X160327678Y-109020847D01*
X160324768Y-109015391D01*
X160324923Y-109015308D01*
X160323301Y-109012354D01*
X160323149Y-109012441D01*
X160320103Y-109007054D01*
X160289597Y-108963671D01*
X160287835Y-108961098D01*
X160262714Y-108923425D01*
X160258446Y-108917024D01*
X160258438Y-108917016D01*
X160254520Y-108912232D01*
X160254656Y-108912120D01*
X160246629Y-108902564D01*
X160222209Y-108867835D01*
X159914215Y-108429816D01*
X159891394Y-108362587D01*
X159908543Y-108293693D01*
X159960217Y-108245007D01*
X160030009Y-108231986D01*
X160061313Y-108239285D01*
G37*
G04 #@! TD.AperFunction*
G04 #@! TA.AperFunction,Conductor*
G36*
X152358539Y-99878502D02*
G01*
X152405032Y-99932158D01*
X152406824Y-99936274D01*
X152410209Y-99944447D01*
X152423602Y-99976779D01*
X152426516Y-99982231D01*
X152426332Y-99982329D01*
X152427670Y-99984762D01*
X152427852Y-99984660D01*
X152430896Y-99990043D01*
X152430897Y-99990045D01*
X152442574Y-100006651D01*
X152461614Y-100033729D01*
X152463291Y-100036176D01*
X152488912Y-100074521D01*
X152492930Y-100080534D01*
X152496860Y-100085323D01*
X152496696Y-100085456D01*
X152504570Y-100094821D01*
X159109345Y-109487900D01*
X159132166Y-109555129D01*
X159132275Y-109560491D01*
X159129099Y-112980523D01*
X159109034Y-113048625D01*
X159055335Y-113095068D01*
X158985052Y-113105107D01*
X158957583Y-113097898D01*
X158772733Y-113026287D01*
X158701600Y-113012989D01*
X158701600Y-113857314D01*
X158693206Y-113848920D01*
X158601994Y-113796259D01*
X158500261Y-113769000D01*
X158394939Y-113769000D01*
X158293206Y-113796259D01*
X158201994Y-113848920D01*
X158193600Y-113857314D01*
X158193600Y-113012989D01*
X158122463Y-113026287D01*
X157918039Y-113105482D01*
X157918032Y-113105485D01*
X157731626Y-113220902D01*
X157569605Y-113368604D01*
X157437485Y-113543561D01*
X157339760Y-113739820D01*
X157339758Y-113739825D01*
X157289917Y-113915000D01*
X158135914Y-113915000D01*
X158127520Y-113923394D01*
X158074859Y-114014606D01*
X158047600Y-114116339D01*
X158047600Y-114221661D01*
X158074859Y-114323394D01*
X158127520Y-114414606D01*
X158135914Y-114423000D01*
X157266598Y-114423000D01*
X157262620Y-114425952D01*
X157191784Y-114430717D01*
X157129616Y-114396429D01*
X157108282Y-114367696D01*
X157083409Y-114321750D01*
X154253886Y-109094994D01*
X154249073Y-109085091D01*
X154234791Y-109052100D01*
X154219678Y-109030240D01*
X154212516Y-109018573D01*
X154199865Y-108995204D01*
X154184929Y-108977201D01*
X154176927Y-108967555D01*
X154170256Y-108958757D01*
X154149821Y-108929199D01*
X154149818Y-108929196D01*
X154130731Y-108910704D01*
X154121430Y-108900658D01*
X154104469Y-108880213D01*
X154076572Y-108857565D01*
X154068316Y-108850239D01*
X154042516Y-108825244D01*
X154042512Y-108825241D01*
X154042511Y-108825240D01*
X154020175Y-108810823D01*
X154009094Y-108802785D01*
X153988471Y-108786042D01*
X153988470Y-108786041D01*
X153956695Y-108769272D01*
X153947173Y-108763702D01*
X153936588Y-108756870D01*
X153916978Y-108744212D01*
X153892264Y-108734431D01*
X153879830Y-108728711D01*
X153856324Y-108716307D01*
X153821879Y-108706057D01*
X153811458Y-108702452D01*
X153799155Y-108697584D01*
X153778050Y-108689232D01*
X153772897Y-108688291D01*
X153751918Y-108684463D01*
X153738606Y-108681278D01*
X153713121Y-108673695D01*
X153713123Y-108673695D01*
X153677348Y-108670363D01*
X153666419Y-108668860D01*
X153631067Y-108662409D01*
X153604487Y-108662831D01*
X153590809Y-108662304D01*
X153564357Y-108659841D01*
X153564353Y-108659841D01*
X153528621Y-108663551D01*
X153517607Y-108664209D01*
X152248498Y-108684341D01*
X152180069Y-108665422D01*
X152132731Y-108612511D01*
X152120500Y-108558357D01*
X152120500Y-99984500D01*
X152140502Y-99916379D01*
X152194158Y-99869886D01*
X152246500Y-99858500D01*
X152290418Y-99858500D01*
X152358539Y-99878502D01*
G37*
G04 #@! TD.AperFunction*
G04 #@! TA.AperFunction,Conductor*
G36*
X154561502Y-88272385D02*
G01*
X159121087Y-92831920D01*
X161246654Y-94957465D01*
X161651595Y-95362401D01*
X161685620Y-95424713D01*
X161688500Y-95451497D01*
X161688500Y-102966818D01*
X161668498Y-103034939D01*
X161614842Y-103081432D01*
X161544568Y-103091536D01*
X161521589Y-103085991D01*
X161456243Y-103063558D01*
X161456236Y-103063556D01*
X161456235Y-103063556D01*
X161456232Y-103063555D01*
X161456230Y-103063555D01*
X161412076Y-103056187D01*
X161234169Y-103026500D01*
X161009031Y-103026500D01*
X160860811Y-103051233D01*
X160786969Y-103063555D01*
X160786960Y-103063557D01*
X160574028Y-103136656D01*
X160574026Y-103136658D01*
X160376026Y-103243810D01*
X160376024Y-103243811D01*
X160198362Y-103382091D01*
X160045879Y-103547729D01*
X160045875Y-103547734D01*
X159922741Y-103736206D01*
X159832303Y-103942386D01*
X159832302Y-103942387D01*
X159777037Y-104160624D01*
X159777036Y-104160630D01*
X159777036Y-104160632D01*
X159758444Y-104385000D01*
X159777017Y-104609144D01*
X159777037Y-104609375D01*
X159832302Y-104827612D01*
X159832303Y-104827613D01*
X159832304Y-104827616D01*
X159910161Y-105005114D01*
X159922741Y-105033793D01*
X160045875Y-105222265D01*
X160045878Y-105222268D01*
X160072841Y-105251557D01*
X160189075Y-105377820D01*
X160220496Y-105441485D01*
X160212509Y-105512031D01*
X160167651Y-105567060D01*
X160140407Y-105581213D01*
X160025397Y-105624110D01*
X160025392Y-105624112D01*
X159908338Y-105711738D01*
X159820712Y-105828792D01*
X159820710Y-105828797D01*
X159769611Y-105965795D01*
X159769609Y-105965803D01*
X159763100Y-106026350D01*
X159763100Y-107816656D01*
X159743098Y-107884777D01*
X159689442Y-107931270D01*
X159619168Y-107941374D01*
X159554588Y-107911880D01*
X159534030Y-107889130D01*
X153989254Y-100003544D01*
X153966433Y-99936315D01*
X153983582Y-99867421D01*
X154035256Y-99818735D01*
X154048282Y-99813018D01*
X154080804Y-99800889D01*
X154197861Y-99713261D01*
X154258115Y-99632771D01*
X154285487Y-99596207D01*
X154285487Y-99596206D01*
X154285489Y-99596204D01*
X154332760Y-99469468D01*
X154336588Y-99459204D01*
X154336590Y-99459196D01*
X154343099Y-99398649D01*
X154343100Y-99398632D01*
X154343100Y-97601367D01*
X154343099Y-97601350D01*
X154336590Y-97540803D01*
X154336588Y-97540795D01*
X154294288Y-97427387D01*
X154285489Y-97403796D01*
X154285488Y-97403794D01*
X154285487Y-97403792D01*
X154197861Y-97286738D01*
X154080807Y-97199112D01*
X154080804Y-97199111D01*
X153965286Y-97156024D01*
X153908451Y-97113477D01*
X153883641Y-97046957D01*
X153898733Y-96977583D01*
X153916619Y-96952632D01*
X154059923Y-96796961D01*
X154183019Y-96608548D01*
X154273420Y-96402456D01*
X154273423Y-96402449D01*
X154321144Y-96214000D01*
X153415303Y-96214000D01*
X153450525Y-96152993D01*
X153484600Y-96025826D01*
X153484600Y-95894174D01*
X153450525Y-95767007D01*
X153415303Y-95706000D01*
X154321144Y-95706000D01*
X154321144Y-95705999D01*
X154273423Y-95517550D01*
X154273420Y-95517543D01*
X154183019Y-95311451D01*
X154059925Y-95123041D01*
X153907502Y-94957465D01*
X153729901Y-94819232D01*
X153729900Y-94819231D01*
X153696391Y-94801097D01*
X153646001Y-94751083D01*
X153630650Y-94681766D01*
X153655212Y-94615153D01*
X153696390Y-94579472D01*
X153730176Y-94561189D01*
X153907840Y-94422906D01*
X154060322Y-94257268D01*
X154183460Y-94068791D01*
X154273896Y-93862616D01*
X154329164Y-93644368D01*
X154347756Y-93420000D01*
X154329164Y-93195632D01*
X154329162Y-93195624D01*
X154273897Y-92977387D01*
X154273896Y-92977386D01*
X154273896Y-92977384D01*
X154183460Y-92771209D01*
X154144446Y-92711493D01*
X154060324Y-92582734D01*
X154060320Y-92582729D01*
X153907837Y-92417091D01*
X153825982Y-92353381D01*
X153730176Y-92278811D01*
X153696919Y-92260813D01*
X153646529Y-92210802D01*
X153631176Y-92141485D01*
X153655736Y-92074872D01*
X153696920Y-92039186D01*
X153730176Y-92021189D01*
X153907840Y-91882906D01*
X154060322Y-91717268D01*
X154183460Y-91528791D01*
X154273896Y-91322616D01*
X154329164Y-91104368D01*
X154347756Y-90880000D01*
X154329164Y-90655632D01*
X154273896Y-90437384D01*
X154183460Y-90231209D01*
X154173523Y-90216000D01*
X154060324Y-90042734D01*
X154060320Y-90042729D01*
X153917654Y-89887755D01*
X153907840Y-89877094D01*
X153907839Y-89877093D01*
X153907837Y-89877091D01*
X153805999Y-89797827D01*
X153730176Y-89738811D01*
X153696919Y-89720813D01*
X153646529Y-89670802D01*
X153631176Y-89601485D01*
X153655736Y-89534872D01*
X153696920Y-89499186D01*
X153709330Y-89492470D01*
X153730176Y-89481189D01*
X153907840Y-89342906D01*
X154060322Y-89177268D01*
X154183460Y-88988791D01*
X154273896Y-88782616D01*
X154329164Y-88564368D01*
X154346838Y-88351072D01*
X154372396Y-88284840D01*
X154429708Y-88242936D01*
X154500576Y-88238670D01*
X154561502Y-88272385D01*
G37*
G04 #@! TD.AperFunction*
G04 #@! TA.AperFunction,Conductor*
G36*
X208864775Y-90269207D02*
G01*
X208830700Y-90396374D01*
X208830700Y-90528026D01*
X208864775Y-90655193D01*
X208899997Y-90716200D01*
X207221403Y-90716200D01*
X207256625Y-90655193D01*
X207290700Y-90528026D01*
X207290700Y-90396374D01*
X207256625Y-90269207D01*
X207221403Y-90208200D01*
X208899997Y-90208200D01*
X208864775Y-90269207D01*
G37*
G04 #@! TD.AperFunction*
G04 #@! TA.AperFunction,Conductor*
G36*
X105651440Y-66676377D02*
G01*
X105795003Y-66685760D01*
X105798833Y-66686069D01*
X105944408Y-66700116D01*
X105948140Y-66700534D01*
X106093064Y-66719028D01*
X106096826Y-66719566D01*
X106241031Y-66742470D01*
X106244766Y-66743122D01*
X106388152Y-66770393D01*
X106391848Y-66771153D01*
X106526266Y-66800972D01*
X106534263Y-66802746D01*
X106537971Y-66803628D01*
X106679183Y-66839468D01*
X106682845Y-66840456D01*
X106822860Y-66880534D01*
X106826480Y-66881629D01*
X106899608Y-66904973D01*
X106965116Y-66925884D01*
X106968726Y-66927097D01*
X106990146Y-66934655D01*
X107105869Y-66975488D01*
X107109409Y-66976797D01*
X107244890Y-67029265D01*
X107244903Y-67029270D01*
X107248432Y-67030699D01*
X107382120Y-67087197D01*
X107385595Y-67088727D01*
X107517456Y-67149248D01*
X107520881Y-67150885D01*
X107650642Y-67215320D01*
X107654039Y-67217072D01*
X107752729Y-67269924D01*
X107781596Y-67285383D01*
X107785007Y-67287279D01*
X107909859Y-67359203D01*
X107913757Y-67361543D01*
X108653786Y-67824557D01*
X108662190Y-67829815D01*
X108668772Y-67835511D01*
X108678271Y-67840399D01*
X108687464Y-67845629D01*
X108696557Y-67851320D01*
X108704820Y-67854064D01*
X108849286Y-67928418D01*
X109468169Y-68246948D01*
X109475032Y-68251963D01*
X109485423Y-68256290D01*
X109494644Y-68260574D01*
X109504713Y-68265755D01*
X109512977Y-68267760D01*
X110280424Y-68587250D01*
X110304811Y-68597402D01*
X110311892Y-68601760D01*
X110323069Y-68605419D01*
X110332308Y-68608849D01*
X110343235Y-68613399D01*
X110351452Y-68614712D01*
X111167115Y-68881812D01*
X111174345Y-68885530D01*
X111186229Y-68888449D01*
X111195411Y-68891077D01*
X111207076Y-68894899D01*
X111215179Y-68895565D01*
X112049992Y-69100787D01*
X112057326Y-69103896D01*
X112069833Y-69106014D01*
X112078905Y-69107896D01*
X112091271Y-69110938D01*
X112099245Y-69110999D01*
X112948523Y-69254985D01*
X112955922Y-69257508D01*
X112968927Y-69258769D01*
X112977859Y-69259959D01*
X112990761Y-69262148D01*
X112998567Y-69261646D01*
X113857610Y-69345020D01*
X113865069Y-69346989D01*
X113878392Y-69347347D01*
X113887218Y-69347894D01*
X113900559Y-69349192D01*
X113908201Y-69348153D01*
X114772249Y-69371532D01*
X114779730Y-69372962D01*
X114793271Y-69372398D01*
X114801930Y-69372335D01*
X114815548Y-69372703D01*
X114823008Y-69371159D01*
X115687374Y-69335155D01*
X115694901Y-69336068D01*
X115708482Y-69334570D01*
X115717070Y-69333919D01*
X115730762Y-69333350D01*
X115738069Y-69331309D01*
X116598012Y-69236530D01*
X116605589Y-69236930D01*
X116619070Y-69234505D01*
X116627604Y-69233269D01*
X116641242Y-69231768D01*
X116648389Y-69229234D01*
X117499213Y-69076279D01*
X117506829Y-69076159D01*
X117520000Y-69072845D01*
X117528465Y-69071021D01*
X117541881Y-69068610D01*
X117548865Y-69065583D01*
X118385796Y-68855061D01*
X118393465Y-68854412D01*
X118406246Y-68850233D01*
X118414695Y-68847793D01*
X118427699Y-68844523D01*
X118434528Y-68840987D01*
X119252889Y-68573483D01*
X119260608Y-68572280D01*
X119272785Y-68567316D01*
X119281236Y-68564218D01*
X119293716Y-68560141D01*
X119300377Y-68556074D01*
X120095478Y-68232162D01*
X120103219Y-68230375D01*
X120114645Y-68224717D01*
X120123053Y-68220929D01*
X120134904Y-68216103D01*
X120141366Y-68211488D01*
X120908457Y-67831759D01*
X120916199Y-67829357D01*
X120926781Y-67823087D01*
X120935141Y-67818550D01*
X120946216Y-67813070D01*
X120952453Y-67807879D01*
X121703975Y-67362737D01*
X121711358Y-67358693D01*
X121970208Y-67227919D01*
X121973780Y-67226186D01*
X122240653Y-67102063D01*
X122244004Y-67100565D01*
X122378189Y-67042905D01*
X122380667Y-67041873D01*
X122516626Y-66987038D01*
X122519452Y-66985939D01*
X122656274Y-66934641D01*
X122659420Y-66933510D01*
X122797299Y-66886001D01*
X122800728Y-66884874D01*
X122939599Y-66841504D01*
X122943294Y-66840414D01*
X123083099Y-66801529D01*
X123087153Y-66800475D01*
X123227844Y-66766408D01*
X123232254Y-66765425D01*
X123373813Y-66736500D01*
X123378502Y-66735635D01*
X123520953Y-66712173D01*
X123525980Y-66711449D01*
X123669281Y-66693776D01*
X123674615Y-66693235D01*
X123795336Y-66683550D01*
X123818780Y-66681669D01*
X123824352Y-66681347D01*
X123966747Y-66676309D01*
X123970140Y-66676189D01*
X123974595Y-66676110D01*
X128626843Y-66676110D01*
X128635059Y-66676378D01*
X128654314Y-66677636D01*
X128778619Y-66685759D01*
X128782454Y-66686069D01*
X128928000Y-66700113D01*
X128931788Y-66700538D01*
X129076683Y-66719029D01*
X129080465Y-66719570D01*
X129224642Y-66742469D01*
X129228366Y-66743118D01*
X129371773Y-66770393D01*
X129375469Y-66771153D01*
X129509887Y-66800972D01*
X129517884Y-66802746D01*
X129521592Y-66803628D01*
X129662804Y-66839468D01*
X129666466Y-66840456D01*
X129806481Y-66880534D01*
X129810101Y-66881629D01*
X129883073Y-66904923D01*
X129948738Y-66925884D01*
X129952348Y-66927097D01*
X129973768Y-66934655D01*
X130089491Y-66975488D01*
X130093050Y-66976805D01*
X130228509Y-67029265D01*
X130232052Y-67030699D01*
X130264528Y-67044423D01*
X130365728Y-67087190D01*
X130365757Y-67087202D01*
X130369214Y-67088725D01*
X130501050Y-67149235D01*
X130504498Y-67150882D01*
X130634264Y-67215320D01*
X130637661Y-67217072D01*
X130765209Y-67285378D01*
X130768614Y-67287270D01*
X130868270Y-67344679D01*
X130893441Y-67359179D01*
X130897369Y-67361538D01*
X131637405Y-67824557D01*
X131645809Y-67829815D01*
X131652391Y-67835511D01*
X131661890Y-67840399D01*
X131671083Y-67845629D01*
X131680176Y-67851320D01*
X131688439Y-67854064D01*
X131832905Y-67928418D01*
X132451788Y-68246948D01*
X132458651Y-68251963D01*
X132469042Y-68256290D01*
X132478263Y-68260574D01*
X132488332Y-68265755D01*
X132496596Y-68267760D01*
X133264043Y-68587250D01*
X133288430Y-68597402D01*
X133295511Y-68601760D01*
X133306688Y-68605419D01*
X133315927Y-68608849D01*
X133326855Y-68613399D01*
X133335071Y-68614713D01*
X133454755Y-68653905D01*
X134150733Y-68881812D01*
X134157962Y-68885529D01*
X134169836Y-68888446D01*
X134179018Y-68891074D01*
X134190692Y-68894899D01*
X134198796Y-68895565D01*
X135033610Y-69100787D01*
X135040944Y-69103896D01*
X135053451Y-69106014D01*
X135062523Y-69107896D01*
X135074889Y-69110938D01*
X135082863Y-69110999D01*
X135932141Y-69254985D01*
X135939540Y-69257508D01*
X135952545Y-69258769D01*
X135961477Y-69259959D01*
X135974379Y-69262148D01*
X135982185Y-69261646D01*
X136841227Y-69345020D01*
X136848686Y-69346989D01*
X136862009Y-69347347D01*
X136870835Y-69347894D01*
X136884176Y-69349192D01*
X136891818Y-69348153D01*
X137755866Y-69371532D01*
X137763347Y-69372962D01*
X137776888Y-69372398D01*
X137785547Y-69372335D01*
X137799165Y-69372703D01*
X137806625Y-69371159D01*
X138670991Y-69335155D01*
X138678518Y-69336068D01*
X138692099Y-69334570D01*
X138700687Y-69333919D01*
X138714379Y-69333350D01*
X138721686Y-69331309D01*
X139581629Y-69236530D01*
X139589206Y-69236930D01*
X139602687Y-69234505D01*
X139611221Y-69233269D01*
X139624859Y-69231768D01*
X139632006Y-69229234D01*
X140482830Y-69076279D01*
X140490446Y-69076159D01*
X140503617Y-69072845D01*
X140512082Y-69071021D01*
X140525498Y-69068610D01*
X140532482Y-69065583D01*
X141369412Y-68855061D01*
X141377081Y-68854412D01*
X141389862Y-68850233D01*
X141398311Y-68847793D01*
X141411315Y-68844523D01*
X141418144Y-68840987D01*
X142236505Y-68573483D01*
X142244223Y-68572280D01*
X142256400Y-68567316D01*
X142264851Y-68564218D01*
X142277334Y-68560140D01*
X142283997Y-68556073D01*
X142647465Y-68408001D01*
X143079087Y-68232164D01*
X143086830Y-68230377D01*
X143098259Y-68224717D01*
X143106667Y-68220929D01*
X143118518Y-68216103D01*
X143124980Y-68211488D01*
X143892070Y-67831759D01*
X143899812Y-67829357D01*
X143910394Y-67823087D01*
X143918754Y-67818550D01*
X143929829Y-67813070D01*
X143936066Y-67807879D01*
X144687574Y-67362746D01*
X144694931Y-67358714D01*
X144953848Y-67227907D01*
X144957395Y-67226186D01*
X145224270Y-67102063D01*
X145227640Y-67100557D01*
X145361774Y-67042919D01*
X145364314Y-67041861D01*
X145500242Y-66987038D01*
X145503067Y-66985939D01*
X145639891Y-66934640D01*
X145642996Y-66933523D01*
X145780973Y-66885981D01*
X145784345Y-66884874D01*
X145923234Y-66841499D01*
X145926895Y-66840419D01*
X146066717Y-66801529D01*
X146070772Y-66800475D01*
X146211463Y-66766408D01*
X146215872Y-66765425D01*
X146357433Y-66736500D01*
X146362122Y-66735635D01*
X146504573Y-66712173D01*
X146509600Y-66711449D01*
X146652901Y-66693776D01*
X146658234Y-66693235D01*
X146779142Y-66683535D01*
X146802400Y-66681669D01*
X146807972Y-66681347D01*
X146950367Y-66676309D01*
X146953760Y-66676189D01*
X146958215Y-66676110D01*
X151610463Y-66676110D01*
X151618679Y-66676377D01*
X151762242Y-66685760D01*
X151766072Y-66686069D01*
X151911647Y-66700116D01*
X151915379Y-66700534D01*
X152060283Y-66719026D01*
X152064091Y-66719571D01*
X152208262Y-66742469D01*
X152211992Y-66743119D01*
X152355391Y-66770393D01*
X152359087Y-66771153D01*
X152501501Y-66802746D01*
X152505209Y-66803628D01*
X152646421Y-66839468D01*
X152650083Y-66840456D01*
X152790098Y-66880534D01*
X152793718Y-66881629D01*
X152866846Y-66904973D01*
X152932354Y-66925884D01*
X152935964Y-66927097D01*
X152954136Y-66933509D01*
X153073106Y-66975488D01*
X153076646Y-66976797D01*
X153163649Y-67010491D01*
X153212124Y-67029264D01*
X153215669Y-67030699D01*
X153245790Y-67043428D01*
X153341269Y-67083778D01*
X153349360Y-67087197D01*
X153352872Y-67088745D01*
X153484651Y-67149229D01*
X153488126Y-67150889D01*
X153617878Y-67215320D01*
X153621275Y-67217072D01*
X153748855Y-67285395D01*
X153752220Y-67287265D01*
X153877269Y-67359303D01*
X153881159Y-67361639D01*
X154621033Y-67824557D01*
X154629437Y-67829815D01*
X154636019Y-67835511D01*
X154645518Y-67840399D01*
X154654711Y-67845629D01*
X154663804Y-67851320D01*
X154672067Y-67854064D01*
X154810964Y-67925552D01*
X155406692Y-68232165D01*
X155435417Y-68246949D01*
X155442286Y-68251969D01*
X155452650Y-68256283D01*
X155461896Y-68260579D01*
X155471947Y-68265752D01*
X155480221Y-68267760D01*
X156272062Y-68597405D01*
X156279148Y-68601766D01*
X156290301Y-68605416D01*
X156299560Y-68608853D01*
X156310453Y-68613390D01*
X156318673Y-68614706D01*
X156361922Y-68628868D01*
X157134365Y-68881816D01*
X157141593Y-68885532D01*
X157153465Y-68888449D01*
X157162647Y-68891077D01*
X157174321Y-68894902D01*
X157182425Y-68895568D01*
X158017240Y-69100790D01*
X158024574Y-69103899D01*
X158037081Y-69106017D01*
X158046153Y-69107899D01*
X158058519Y-69110941D01*
X158066493Y-69111002D01*
X158915773Y-69254989D01*
X158923171Y-69257513D01*
X158936175Y-69258773D01*
X158945107Y-69259963D01*
X158958009Y-69262152D01*
X158965815Y-69261650D01*
X159824858Y-69345025D01*
X159832317Y-69346994D01*
X159845640Y-69347352D01*
X159854466Y-69347899D01*
X159867807Y-69349197D01*
X159875448Y-69348158D01*
X160739496Y-69371538D01*
X160746978Y-69372968D01*
X160760519Y-69372404D01*
X160769178Y-69372341D01*
X160782796Y-69372709D01*
X160790256Y-69371165D01*
X161654623Y-69335161D01*
X161662150Y-69336074D01*
X161675731Y-69334576D01*
X161684319Y-69333925D01*
X161698011Y-69333356D01*
X161705318Y-69331315D01*
X162565259Y-69236537D01*
X162572837Y-69236937D01*
X162586318Y-69234512D01*
X162594852Y-69233276D01*
X162608490Y-69231775D01*
X162615637Y-69229241D01*
X163466462Y-69076286D01*
X163474078Y-69076166D01*
X163487249Y-69072852D01*
X163495714Y-69071028D01*
X163509127Y-69068617D01*
X163516108Y-69065592D01*
X164353046Y-68855067D01*
X164360715Y-68854418D01*
X164373494Y-68850239D01*
X164381943Y-68847799D01*
X164394946Y-68844530D01*
X164401771Y-68840995D01*
X165220138Y-68573488D01*
X165227856Y-68572285D01*
X165240033Y-68567321D01*
X165248484Y-68564223D01*
X165260964Y-68560146D01*
X165267625Y-68556079D01*
X166062726Y-68232167D01*
X166070467Y-68230380D01*
X166081893Y-68224722D01*
X166090301Y-68220934D01*
X166102151Y-68216108D01*
X166108612Y-68211494D01*
X166875704Y-67831762D01*
X166883446Y-67829360D01*
X166894029Y-67823089D01*
X166902389Y-67818552D01*
X166913464Y-67813072D01*
X166919701Y-67807881D01*
X167671253Y-67362719D01*
X167678630Y-67358676D01*
X167937441Y-67227922D01*
X167941087Y-67226155D01*
X168207893Y-67102063D01*
X168211244Y-67100565D01*
X168345397Y-67042919D01*
X168347938Y-67041861D01*
X168483865Y-66987038D01*
X168486690Y-66985939D01*
X168623515Y-66934641D01*
X168626620Y-66933523D01*
X168764597Y-66885981D01*
X168767969Y-66884874D01*
X168906858Y-66841499D01*
X168910519Y-66840419D01*
X169050356Y-66801525D01*
X169054382Y-66800478D01*
X169195088Y-66766408D01*
X169199497Y-66765425D01*
X169341058Y-66736500D01*
X169345747Y-66735635D01*
X169488198Y-66712173D01*
X169493225Y-66711449D01*
X169636526Y-66693776D01*
X169641860Y-66693235D01*
X169762768Y-66683535D01*
X169786026Y-66681669D01*
X169791598Y-66681347D01*
X169933921Y-66676311D01*
X169937387Y-66676189D01*
X169941842Y-66676110D01*
X174594083Y-66676110D01*
X174602299Y-66676377D01*
X174745862Y-66685760D01*
X174749692Y-66686069D01*
X174895267Y-66700116D01*
X174898999Y-66700534D01*
X175043921Y-66719028D01*
X175047684Y-66719566D01*
X175191889Y-66742470D01*
X175195624Y-66743122D01*
X175339010Y-66770393D01*
X175342706Y-66771153D01*
X175477124Y-66800972D01*
X175485121Y-66802746D01*
X175488829Y-66803628D01*
X175630041Y-66839468D01*
X175633703Y-66840456D01*
X175773718Y-66880534D01*
X175777338Y-66881629D01*
X175850466Y-66904973D01*
X175915974Y-66925884D01*
X175919584Y-66927097D01*
X175937756Y-66933509D01*
X176056726Y-66975488D01*
X176060266Y-66976797D01*
X176195759Y-67029269D01*
X176199290Y-67030699D01*
X176332977Y-67087197D01*
X176336452Y-67088727D01*
X176468302Y-67149243D01*
X176471724Y-67150877D01*
X176569365Y-67199364D01*
X176601487Y-67215315D01*
X176604931Y-67217092D01*
X176732452Y-67285383D01*
X176735841Y-67287265D01*
X176860893Y-67359305D01*
X176864767Y-67361631D01*
X177604653Y-67824557D01*
X177613057Y-67829815D01*
X177619639Y-67835511D01*
X177629138Y-67840399D01*
X177638331Y-67845629D01*
X177647424Y-67851320D01*
X177655687Y-67854064D01*
X177800153Y-67928418D01*
X178419036Y-68246948D01*
X178425899Y-68251963D01*
X178436290Y-68256290D01*
X178445511Y-68260574D01*
X178455580Y-68265755D01*
X178463844Y-68267760D01*
X179231292Y-68587250D01*
X179255679Y-68597402D01*
X179262760Y-68601760D01*
X179273937Y-68605419D01*
X179283176Y-68608849D01*
X179294103Y-68613399D01*
X179302320Y-68614712D01*
X180117983Y-68881812D01*
X180125213Y-68885530D01*
X180137097Y-68888449D01*
X180146279Y-68891077D01*
X180157944Y-68894899D01*
X180166047Y-68895565D01*
X181000861Y-69100787D01*
X181008195Y-69103896D01*
X181020702Y-69106014D01*
X181029774Y-69107896D01*
X181042140Y-69110938D01*
X181050114Y-69110999D01*
X181899393Y-69254985D01*
X181906792Y-69257508D01*
X181919797Y-69258769D01*
X181928729Y-69259959D01*
X181941631Y-69262148D01*
X181949437Y-69261646D01*
X182808480Y-69345020D01*
X182815939Y-69346989D01*
X182829262Y-69347347D01*
X182838088Y-69347894D01*
X182851429Y-69349192D01*
X182859071Y-69348153D01*
X183723120Y-69371532D01*
X183730601Y-69372962D01*
X183744142Y-69372398D01*
X183752801Y-69372335D01*
X183766419Y-69372703D01*
X183773879Y-69371159D01*
X184638246Y-69335155D01*
X184645773Y-69336068D01*
X184659354Y-69334570D01*
X184667942Y-69333919D01*
X184681634Y-69333350D01*
X184688941Y-69331309D01*
X185548883Y-69236530D01*
X185556460Y-69236930D01*
X185569941Y-69234505D01*
X185578475Y-69233269D01*
X185592113Y-69231768D01*
X185599260Y-69229234D01*
X186450085Y-69076279D01*
X186457701Y-69076159D01*
X186470872Y-69072845D01*
X186479337Y-69071021D01*
X186492753Y-69068610D01*
X186499737Y-69065583D01*
X187336667Y-68855061D01*
X187344336Y-68854412D01*
X187357117Y-68850233D01*
X187365566Y-68847793D01*
X187378570Y-68844523D01*
X187385399Y-68840987D01*
X188203760Y-68573483D01*
X188211478Y-68572280D01*
X188223655Y-68567316D01*
X188232106Y-68564218D01*
X188244586Y-68560141D01*
X188251247Y-68556074D01*
X189046348Y-68232162D01*
X189054089Y-68230375D01*
X189065515Y-68224717D01*
X189073923Y-68220929D01*
X189085774Y-68216103D01*
X189092236Y-68211488D01*
X189859326Y-67831759D01*
X189867068Y-67829357D01*
X189877650Y-67823087D01*
X189886010Y-67818550D01*
X189897085Y-67813070D01*
X189903322Y-67807879D01*
X190654848Y-67362734D01*
X190662202Y-67358704D01*
X190921088Y-67227917D01*
X190924674Y-67226177D01*
X191191558Y-67102053D01*
X191194859Y-67100577D01*
X191329032Y-67042924D01*
X191331574Y-67041865D01*
X191467486Y-66987047D01*
X191470215Y-66985985D01*
X191607230Y-66934617D01*
X191610251Y-66933530D01*
X191748142Y-66886015D01*
X191751611Y-66884875D01*
X191890455Y-66841514D01*
X191894166Y-66840419D01*
X192033968Y-66801533D01*
X192038017Y-66800480D01*
X192178760Y-66766400D01*
X192183066Y-66765439D01*
X192324691Y-66736502D01*
X192329392Y-66735635D01*
X192471880Y-66712166D01*
X192476854Y-66711451D01*
X192620160Y-66693776D01*
X192625427Y-66693240D01*
X192769689Y-66681667D01*
X192775222Y-66681348D01*
X192921008Y-66676189D01*
X192925464Y-66676110D01*
X204905471Y-66676110D01*
X204906295Y-66676113D01*
X204917754Y-66676187D01*
X204917755Y-66676188D01*
X205370052Y-66679147D01*
X205376816Y-66679375D01*
X205817537Y-66706141D01*
X205824211Y-66706725D01*
X206260716Y-66756675D01*
X206267230Y-66757594D01*
X206574524Y-66809186D01*
X206698842Y-66830058D01*
X206705213Y-66831297D01*
X206751394Y-66841520D01*
X207131264Y-66925611D01*
X207137409Y-66927137D01*
X207557117Y-67042616D01*
X207563076Y-67044416D01*
X207975792Y-67180406D01*
X207981565Y-67182466D01*
X208386535Y-67338284D01*
X208392122Y-67340590D01*
X208752717Y-67499714D01*
X208788551Y-67515527D01*
X208793981Y-67518079D01*
X209181237Y-67711494D01*
X209186478Y-67714268D01*
X209563746Y-67925432D01*
X209568801Y-67928418D01*
X209935474Y-68156710D01*
X209940349Y-68159904D01*
X210295636Y-68404604D01*
X210300333Y-68408001D01*
X210643506Y-68668418D01*
X210648031Y-68672018D01*
X210978380Y-68947474D01*
X210982733Y-68951277D01*
X211119391Y-69076287D01*
X211294572Y-69236537D01*
X211299492Y-69241037D01*
X211303673Y-69245041D01*
X211392895Y-69334535D01*
X211606177Y-69548468D01*
X211610194Y-69552689D01*
X211897660Y-69869021D01*
X211901508Y-69873458D01*
X212134017Y-70154592D01*
X212167218Y-70194737D01*
X212173265Y-70202048D01*
X212176939Y-70206709D01*
X212432260Y-70546852D01*
X212435753Y-70551745D01*
X212673882Y-70902680D01*
X212677179Y-70907801D01*
X212897477Y-71268932D01*
X212900565Y-71274287D01*
X213102253Y-71644809D01*
X213105135Y-71650437D01*
X213287541Y-72029693D01*
X213290188Y-72035577D01*
X213452607Y-72422881D01*
X213454995Y-72429020D01*
X213596731Y-72823669D01*
X213598836Y-72830062D01*
X213719199Y-73231396D01*
X213720994Y-73238036D01*
X213819277Y-73645330D01*
X213820734Y-73652201D01*
X213896250Y-74064791D01*
X213897339Y-74071875D01*
X213949403Y-74489123D01*
X213950097Y-74496393D01*
X213978008Y-74917604D01*
X213978281Y-74925025D01*
X213981055Y-75309311D01*
X213981309Y-75344513D01*
X213981448Y-75363689D01*
X213981451Y-75364599D01*
X213981451Y-77069677D01*
X213981133Y-77078621D01*
X213971409Y-77215263D01*
X213971037Y-77219489D01*
X213956448Y-77358297D01*
X213955937Y-77362480D01*
X213936717Y-77500706D01*
X213936072Y-77504839D01*
X213912265Y-77642402D01*
X213911489Y-77646488D01*
X213883126Y-77783330D01*
X213882220Y-77787366D01*
X213849375Y-77923229D01*
X213848343Y-77927213D01*
X213811043Y-78062058D01*
X213809886Y-78065990D01*
X213768186Y-78199658D01*
X213766907Y-78203536D01*
X213720845Y-78335933D01*
X213719444Y-78339758D01*
X213669094Y-78470682D01*
X213667574Y-78474452D01*
X213612958Y-78603848D01*
X213611319Y-78607562D01*
X213552479Y-78735313D01*
X213550722Y-78738973D01*
X213487747Y-78864862D01*
X213485873Y-78868461D01*
X213418762Y-78992469D01*
X213416770Y-78996013D01*
X213345603Y-79117946D01*
X213343494Y-79121429D01*
X213269284Y-79239629D01*
X213265149Y-79245802D01*
X213022857Y-79585472D01*
X213019085Y-79589176D01*
X213009511Y-79603879D01*
X213009511Y-79603880D01*
X213008700Y-79605124D01*
X213005725Y-79609490D01*
X212994665Y-79625003D01*
X212992596Y-79629874D01*
X212777647Y-79960199D01*
X212772804Y-79965486D01*
X212765581Y-79978285D01*
X212761469Y-79985062D01*
X212753472Y-79997353D01*
X212751019Y-80004091D01*
X212339049Y-80734229D01*
X212333702Y-80740997D01*
X212329129Y-80750939D01*
X212324407Y-80760181D01*
X212319036Y-80769702D01*
X212316688Y-80777998D01*
X211967719Y-81537037D01*
X211963017Y-81544115D01*
X211959176Y-81554636D01*
X211955306Y-81564038D01*
X211950608Y-81574259D01*
X211948967Y-81582608D01*
X211663569Y-82364733D01*
X211659496Y-82372077D01*
X211656418Y-82383177D01*
X211653378Y-82392664D01*
X211649415Y-82403531D01*
X211648462Y-82411878D01*
X211426557Y-83212471D01*
X211423114Y-83220031D01*
X211420864Y-83231582D01*
X211418619Y-83241113D01*
X211415474Y-83252467D01*
X211415184Y-83260772D01*
X211256712Y-84075247D01*
X211253889Y-84082990D01*
X211252519Y-84094846D01*
X211251037Y-84104421D01*
X211248753Y-84116166D01*
X211249107Y-84124402D01*
X211154035Y-84948122D01*
X211151826Y-84956027D01*
X211151367Y-84968025D01*
X211150629Y-84977648D01*
X211149248Y-84989616D01*
X211150229Y-84997764D01*
X211118538Y-85826099D01*
X211116944Y-85834125D01*
X211117403Y-85846202D01*
X211117403Y-85855767D01*
X211116942Y-85867889D01*
X211118539Y-85875917D01*
X211150224Y-86704241D01*
X211149246Y-86712381D01*
X211150626Y-86724363D01*
X211151359Y-86733920D01*
X211151826Y-86746049D01*
X211154042Y-86753953D01*
X211249100Y-87577614D01*
X211248749Y-87585857D01*
X211251023Y-87597547D01*
X211252509Y-87607149D01*
X211253879Y-87619017D01*
X211256709Y-87626770D01*
X211415175Y-88441247D01*
X211415468Y-88449556D01*
X211418603Y-88460873D01*
X211420854Y-88470435D01*
X211423104Y-88481996D01*
X211426556Y-88489566D01*
X211648457Y-89290169D01*
X211649414Y-89298521D01*
X211653358Y-89309336D01*
X211656398Y-89318822D01*
X211659490Y-89329971D01*
X211663570Y-89337320D01*
X211948954Y-90119424D01*
X211950597Y-90127773D01*
X211955285Y-90137975D01*
X211959150Y-90147365D01*
X211963024Y-90157976D01*
X211967737Y-90165059D01*
X212316685Y-90924065D01*
X212319036Y-90932361D01*
X212324394Y-90941859D01*
X212329122Y-90951113D01*
X212333701Y-90961071D01*
X212339050Y-90967836D01*
X212463791Y-91188918D01*
X212742512Y-91682904D01*
X212751028Y-91697996D01*
X212753488Y-91704748D01*
X212761467Y-91717009D01*
X212765600Y-91723822D01*
X212772815Y-91736611D01*
X212777666Y-91741903D01*
X212992604Y-92072218D01*
X212994683Y-92077107D01*
X213005703Y-92092559D01*
X213008716Y-92096979D01*
X213009448Y-92098105D01*
X213019127Y-92112975D01*
X213022916Y-92116690D01*
X213263473Y-92453932D01*
X213270095Y-92464242D01*
X213410842Y-92708746D01*
X213412378Y-92711493D01*
X213480445Y-92836880D01*
X213481639Y-92839134D01*
X213547322Y-92966201D01*
X213548622Y-92968789D01*
X213611163Y-93096913D01*
X213612545Y-93099839D01*
X213671569Y-93229143D01*
X213673015Y-93232436D01*
X213728011Y-93362725D01*
X213729514Y-93366450D01*
X213780043Y-93497682D01*
X213781556Y-93501825D01*
X213827205Y-93634004D01*
X213828689Y-93638585D01*
X213869008Y-93771601D01*
X213870420Y-93776633D01*
X213905002Y-93910487D01*
X213906291Y-93915979D01*
X213934538Y-94049787D01*
X213934721Y-94050650D01*
X213935827Y-94056592D01*
X213936019Y-94057777D01*
X213957699Y-94192080D01*
X213958563Y-94198466D01*
X213973455Y-94334676D01*
X213974012Y-94341464D01*
X213981535Y-94478507D01*
X213981724Y-94485657D01*
X213981505Y-94598924D01*
X213981436Y-94599283D01*
X213981436Y-103194373D01*
X213981118Y-103203317D01*
X213971394Y-103339959D01*
X213971022Y-103344185D01*
X213956432Y-103483001D01*
X213955921Y-103487184D01*
X213936698Y-103625432D01*
X213936053Y-103629566D01*
X213912248Y-103767112D01*
X213911472Y-103771198D01*
X213883111Y-103908027D01*
X213882205Y-103912062D01*
X213849356Y-104047938D01*
X213848323Y-104051923D01*
X213811024Y-104186759D01*
X213809867Y-104190692D01*
X213768160Y-104324377D01*
X213766881Y-104328255D01*
X213720826Y-104460627D01*
X213719426Y-104464450D01*
X213669058Y-104595422D01*
X213667537Y-104599194D01*
X213612913Y-104728603D01*
X213611274Y-104732318D01*
X213552453Y-104860019D01*
X213550697Y-104863675D01*
X213487708Y-104989594D01*
X213485833Y-104993196D01*
X213418746Y-105117155D01*
X213416755Y-105120697D01*
X213345553Y-105242689D01*
X213343443Y-105246173D01*
X213269256Y-105364335D01*
X213265123Y-105370507D01*
X213022825Y-105710187D01*
X213019049Y-105713895D01*
X213008679Y-105729823D01*
X213005684Y-105734217D01*
X212994640Y-105749707D01*
X212992569Y-105754581D01*
X212777624Y-106084908D01*
X212772784Y-106090191D01*
X212765557Y-106102993D01*
X212761464Y-106109740D01*
X212753442Y-106122074D01*
X212750991Y-106128808D01*
X212339028Y-106858941D01*
X212333680Y-106865709D01*
X212329107Y-106875652D01*
X212324385Y-106884894D01*
X212319014Y-106894416D01*
X212316665Y-106902712D01*
X211967700Y-107661748D01*
X211962997Y-107668827D01*
X211959156Y-107679349D01*
X211955286Y-107688751D01*
X211950589Y-107698971D01*
X211948947Y-107707322D01*
X211663551Y-108489447D01*
X211659478Y-108496791D01*
X211656400Y-108507891D01*
X211653358Y-108517381D01*
X211649399Y-108528237D01*
X211648445Y-108536590D01*
X211426543Y-109337182D01*
X211423100Y-109344742D01*
X211420850Y-109356293D01*
X211418605Y-109365824D01*
X211415460Y-109377178D01*
X211415170Y-109385483D01*
X211256699Y-110199956D01*
X211253876Y-110207699D01*
X211252506Y-110219555D01*
X211251024Y-110229130D01*
X211248740Y-110240875D01*
X211249094Y-110249110D01*
X211154024Y-111072828D01*
X211151815Y-111080733D01*
X211151356Y-111092732D01*
X211150618Y-111102355D01*
X211149237Y-111114323D01*
X211150218Y-111122471D01*
X211118528Y-111950806D01*
X211116934Y-111958832D01*
X211117393Y-111970909D01*
X211117393Y-111980474D01*
X211116932Y-111992597D01*
X211118529Y-112000623D01*
X211150213Y-112828946D01*
X211149235Y-112837086D01*
X211150615Y-112849068D01*
X211151348Y-112858625D01*
X211151815Y-112870754D01*
X211154031Y-112878658D01*
X211249089Y-113702319D01*
X211248738Y-113710562D01*
X211251012Y-113722252D01*
X211252498Y-113731854D01*
X211253868Y-113743723D01*
X211256698Y-113751477D01*
X211415162Y-114565949D01*
X211415454Y-114574255D01*
X211418589Y-114585570D01*
X211420837Y-114595119D01*
X211423093Y-114606704D01*
X211426542Y-114614269D01*
X211496936Y-114868246D01*
X211648442Y-115414875D01*
X211649399Y-115423227D01*
X211653343Y-115434042D01*
X211656383Y-115443528D01*
X211659475Y-115454677D01*
X211663555Y-115462026D01*
X211948944Y-116244151D01*
X211950589Y-116252500D01*
X211955269Y-116262684D01*
X211959139Y-116272087D01*
X211962999Y-116282661D01*
X211967706Y-116289739D01*
X212109868Y-116598961D01*
X212316667Y-117048781D01*
X212319022Y-117057088D01*
X212324356Y-117066540D01*
X212329105Y-117075836D01*
X212333670Y-117085766D01*
X212339026Y-117092542D01*
X212750995Y-117822701D01*
X212753450Y-117829441D01*
X212761434Y-117841713D01*
X212765552Y-117848503D01*
X212772764Y-117861284D01*
X212777612Y-117866577D01*
X212835432Y-117955436D01*
X212992404Y-118196675D01*
X212992578Y-118196941D01*
X212994661Y-118201841D01*
X213005672Y-118217277D01*
X213008707Y-118221730D01*
X213019089Y-118237687D01*
X213022886Y-118241410D01*
X213265396Y-118581397D01*
X213269088Y-118586871D01*
X213344324Y-118704982D01*
X213346588Y-118708676D01*
X213415511Y-118825650D01*
X213418124Y-118830085D01*
X213420257Y-118833853D01*
X213487510Y-118957524D01*
X213489494Y-118961325D01*
X213552367Y-119086946D01*
X213554203Y-119090773D01*
X213612780Y-119218376D01*
X213614470Y-119222226D01*
X213668705Y-119351588D01*
X213670252Y-119355455D01*
X213720147Y-119486448D01*
X213721552Y-119490328D01*
X213767103Y-119622805D01*
X213768372Y-119626699D01*
X213809588Y-119760566D01*
X213810720Y-119764468D01*
X213847583Y-119899539D01*
X213848583Y-119903448D01*
X213881088Y-120039572D01*
X213881958Y-120043487D01*
X213910110Y-120180553D01*
X213910850Y-120184471D01*
X213934643Y-120322316D01*
X213935257Y-120326242D01*
X213954687Y-120464735D01*
X213955175Y-120468663D01*
X213970241Y-120607656D01*
X213970605Y-120611589D01*
X213981066Y-120747843D01*
X213981436Y-120757488D01*
X213981436Y-122557200D01*
X213981433Y-122558111D01*
X213981392Y-122563697D01*
X213981392Y-122563698D01*
X213981328Y-122572609D01*
X213978264Y-122996614D01*
X213977991Y-123004035D01*
X213950082Y-123425184D01*
X213949388Y-123432453D01*
X213897332Y-123849641D01*
X213896243Y-123856724D01*
X213820740Y-124269253D01*
X213819284Y-124276124D01*
X213721007Y-124683413D01*
X213719212Y-124690051D01*
X213598870Y-125091344D01*
X213596765Y-125097737D01*
X213455052Y-125492353D01*
X213452665Y-125498492D01*
X213290264Y-125885782D01*
X213287618Y-125891665D01*
X213105234Y-126270915D01*
X213102351Y-126276542D01*
X212900676Y-126647076D01*
X212897576Y-126652453D01*
X212677326Y-127013544D01*
X212674023Y-127018675D01*
X212435909Y-127369624D01*
X212432417Y-127374516D01*
X212177135Y-127714644D01*
X212173461Y-127719305D01*
X211901729Y-128047903D01*
X211897882Y-128052341D01*
X211610435Y-128368686D01*
X211606418Y-128372907D01*
X211303929Y-128676352D01*
X211299743Y-128680362D01*
X210983004Y-128970137D01*
X210978650Y-128973940D01*
X210648341Y-129249388D01*
X210643817Y-129252988D01*
X210300624Y-129513445D01*
X210295926Y-129516843D01*
X209940691Y-129761528D01*
X209935816Y-129764723D01*
X209569133Y-129993038D01*
X209564076Y-129996025D01*
X209186792Y-130207206D01*
X209181550Y-130209980D01*
X208794312Y-130403391D01*
X208788881Y-130405944D01*
X208392441Y-130580885D01*
X208386817Y-130583206D01*
X207981877Y-130739007D01*
X207976060Y-130741083D01*
X207563386Y-130877046D01*
X207557379Y-130878861D01*
X207137672Y-130994322D01*
X207131478Y-130995858D01*
X206705441Y-131090146D01*
X206699068Y-131091385D01*
X206267427Y-131163824D01*
X206260888Y-131164746D01*
X205824339Y-131214666D01*
X205817650Y-131215251D01*
X205376889Y-131241977D01*
X205370075Y-131242205D01*
X204927208Y-131245058D01*
X204926396Y-131245061D01*
X192927466Y-131245061D01*
X192919322Y-131244798D01*
X192896440Y-131243316D01*
X192864079Y-131241220D01*
X192775718Y-131235497D01*
X192771828Y-131235184D01*
X192626406Y-131221231D01*
X192622549Y-131220801D01*
X192477636Y-131202378D01*
X192473814Y-131201832D01*
X192329683Y-131179001D01*
X192325915Y-131178345D01*
X192253748Y-131164646D01*
X192182574Y-131151135D01*
X192178824Y-131150364D01*
X192036458Y-131118829D01*
X192032741Y-131117946D01*
X191891498Y-131082135D01*
X191887815Y-131081142D01*
X191747824Y-131041102D01*
X191744186Y-131040002D01*
X191654385Y-131011352D01*
X191605573Y-130995779D01*
X191601959Y-130994565D01*
X191464827Y-130946196D01*
X191461243Y-130944871D01*
X191325783Y-130892421D01*
X191322235Y-130890984D01*
X191188559Y-130834497D01*
X191185077Y-130832963D01*
X191053228Y-130772445D01*
X191049806Y-130770810D01*
X191047051Y-130769442D01*
X190951885Y-130722179D01*
X190920099Y-130706393D01*
X190916651Y-130704614D01*
X190825479Y-130655779D01*
X190789121Y-130636304D01*
X190785718Y-130634413D01*
X190785442Y-130634254D01*
X190693798Y-130581446D01*
X190660686Y-130562366D01*
X190656781Y-130560021D01*
X190403371Y-130401529D01*
X189908544Y-130092046D01*
X189902104Y-130086454D01*
X189892122Y-130081286D01*
X189883246Y-130076224D01*
X189873768Y-130070296D01*
X189865682Y-130067597D01*
X189101645Y-129672036D01*
X189094932Y-129667091D01*
X189084137Y-129662536D01*
X189075213Y-129658352D01*
X189064872Y-129653000D01*
X189056788Y-129650998D01*
X188263588Y-129316384D01*
X188256664Y-129312065D01*
X188245097Y-129308190D01*
X188236171Y-129304819D01*
X188224992Y-129300105D01*
X188216946Y-129298763D01*
X187399463Y-129025052D01*
X187392368Y-129021334D01*
X187380173Y-129018231D01*
X187371262Y-129015610D01*
X187359380Y-129011633D01*
X187351395Y-129010912D01*
X187020100Y-128926655D01*
X186514476Y-128798061D01*
X186507231Y-128794918D01*
X186494545Y-128792652D01*
X186485656Y-128790731D01*
X186473216Y-128787568D01*
X186465319Y-128787435D01*
X185613843Y-128635420D01*
X185606484Y-128632835D01*
X185593381Y-128631445D01*
X185584557Y-128630191D01*
X185571665Y-128627892D01*
X185563880Y-128628320D01*
X184702682Y-128537117D01*
X184695210Y-128535073D01*
X184681904Y-128534604D01*
X184673095Y-128533983D01*
X184659961Y-128532594D01*
X184652277Y-128533563D01*
X183786145Y-128503159D01*
X183778569Y-128501651D01*
X183765247Y-128502117D01*
X183756447Y-128502117D01*
X183743175Y-128501653D01*
X183735599Y-128503157D01*
X182869464Y-128533556D01*
X182861781Y-128532583D01*
X182848588Y-128533978D01*
X182839789Y-128534598D01*
X182826578Y-128535064D01*
X182819115Y-128537099D01*
X181957849Y-128628304D01*
X181950070Y-128627873D01*
X181937113Y-128630183D01*
X181928309Y-128631433D01*
X181915295Y-128632814D01*
X181907943Y-128635390D01*
X181056398Y-128787413D01*
X181048511Y-128787543D01*
X181036010Y-128790720D01*
X181027150Y-128792635D01*
X181014484Y-128794898D01*
X181007251Y-128798033D01*
X180170295Y-129010888D01*
X180162305Y-129011607D01*
X180150413Y-129015589D01*
X180141477Y-129018217D01*
X180129382Y-129021293D01*
X180122279Y-129025008D01*
X179304722Y-129298738D01*
X179296668Y-129300079D01*
X179285491Y-129304793D01*
X179276556Y-129308168D01*
X179265042Y-129312024D01*
X179258112Y-129316342D01*
X178464912Y-129650951D01*
X178456817Y-129652950D01*
X178446402Y-129658340D01*
X178437484Y-129662521D01*
X178426746Y-129667052D01*
X178420032Y-129671992D01*
X177655928Y-130067582D01*
X177647842Y-130070280D01*
X177638344Y-130076219D01*
X177629484Y-130081272D01*
X177619542Y-130086420D01*
X177613101Y-130092007D01*
X176867660Y-130558223D01*
X176862922Y-130561045D01*
X176735358Y-130633261D01*
X176732222Y-130634978D01*
X176604096Y-130702786D01*
X176600897Y-130704421D01*
X176470720Y-130768633D01*
X176467455Y-130770185D01*
X176335428Y-130830663D01*
X176332099Y-130832130D01*
X176198222Y-130888839D01*
X176194819Y-130890223D01*
X176059319Y-130943016D01*
X176055849Y-130944309D01*
X175918776Y-130993125D01*
X175915257Y-130994320D01*
X175776760Y-131039051D01*
X175773158Y-131040155D01*
X175633314Y-131080720D01*
X175629617Y-131081731D01*
X175488601Y-131118024D01*
X175484823Y-131118935D01*
X175342750Y-131150863D01*
X175338894Y-131151666D01*
X175195896Y-131179137D01*
X175191962Y-131179829D01*
X175048041Y-131202774D01*
X175044029Y-131203347D01*
X174899391Y-131221658D01*
X174895303Y-131222108D01*
X174750095Y-131235693D01*
X174745932Y-131236013D01*
X174613312Y-131243999D01*
X174602005Y-131244680D01*
X174594433Y-131244908D01*
X169943844Y-131244908D01*
X169935701Y-131244645D01*
X169792103Y-131235345D01*
X169788212Y-131235032D01*
X169642802Y-131221080D01*
X169638945Y-131220650D01*
X169494014Y-131202224D01*
X169490192Y-131201678D01*
X169346081Y-131178850D01*
X169342295Y-131178191D01*
X169198960Y-131150982D01*
X169195209Y-131150211D01*
X169052862Y-131118680D01*
X169049146Y-131117798D01*
X168907862Y-131081977D01*
X168904180Y-131080983D01*
X168764211Y-131040950D01*
X168760569Y-131039849D01*
X168621931Y-130995618D01*
X168618327Y-130994408D01*
X168481203Y-130946040D01*
X168477622Y-130944715D01*
X168342154Y-130892264D01*
X168338644Y-130890843D01*
X168204937Y-130834343D01*
X168201422Y-130832794D01*
X168069670Y-130772320D01*
X168066188Y-130770657D01*
X167936476Y-130706240D01*
X167933026Y-130704460D01*
X167805492Y-130636149D01*
X167802078Y-130634252D01*
X167748171Y-130603190D01*
X167677235Y-130562315D01*
X167673365Y-130559991D01*
X167144615Y-130229292D01*
X166924935Y-130091896D01*
X166918496Y-130086305D01*
X166908506Y-130081132D01*
X166899641Y-130076075D01*
X166890157Y-130070144D01*
X166882070Y-130067445D01*
X166118060Y-129671897D01*
X166111344Y-129666949D01*
X166100526Y-129662384D01*
X166091592Y-129658194D01*
X166081248Y-129652839D01*
X166073159Y-129650838D01*
X165279979Y-129316231D01*
X165273055Y-129311912D01*
X165261488Y-129308037D01*
X165252562Y-129304666D01*
X165241383Y-129299952D01*
X165233337Y-129298610D01*
X164415855Y-129024900D01*
X164408760Y-129021182D01*
X164396565Y-129018079D01*
X164387654Y-129015458D01*
X164375771Y-129011481D01*
X164367787Y-129010760D01*
X164277938Y-128987909D01*
X164208060Y-128970137D01*
X163530868Y-128797908D01*
X163523624Y-128794765D01*
X163510938Y-128792499D01*
X163502049Y-128790578D01*
X163489609Y-128787415D01*
X163481712Y-128787282D01*
X162630236Y-128635267D01*
X162622877Y-128632682D01*
X162609774Y-128631292D01*
X162600950Y-128630038D01*
X162588058Y-128627739D01*
X162580273Y-128628167D01*
X161719076Y-128536964D01*
X161711604Y-128534920D01*
X161698298Y-128534451D01*
X161689489Y-128533830D01*
X161676355Y-128532441D01*
X161668671Y-128533410D01*
X160802539Y-128503007D01*
X160794963Y-128501499D01*
X160781641Y-128501965D01*
X160772841Y-128501965D01*
X160759568Y-128501501D01*
X160751993Y-128503005D01*
X159885858Y-128533403D01*
X159878176Y-128532430D01*
X159864983Y-128533825D01*
X159856184Y-128534445D01*
X159842973Y-128534911D01*
X159835510Y-128536946D01*
X158974244Y-128628152D01*
X158966465Y-128627721D01*
X158953508Y-128630031D01*
X158944704Y-128631281D01*
X158931690Y-128632662D01*
X158924338Y-128635238D01*
X158072793Y-128787261D01*
X158064906Y-128787391D01*
X158052405Y-128790568D01*
X158043545Y-128792483D01*
X158030879Y-128794746D01*
X158023646Y-128797881D01*
X157186691Y-129010736D01*
X157178701Y-129011455D01*
X157166809Y-129015437D01*
X157157873Y-129018065D01*
X157145778Y-129021141D01*
X157138675Y-129024856D01*
X156321118Y-129298586D01*
X156313064Y-129299927D01*
X156301887Y-129304641D01*
X156292952Y-129308016D01*
X156281438Y-129311872D01*
X156274507Y-129316191D01*
X155481310Y-129650798D01*
X155473212Y-129652797D01*
X155462790Y-129658192D01*
X155453865Y-129662377D01*
X155443105Y-129666917D01*
X155436397Y-129671856D01*
X154672323Y-130067429D01*
X154664237Y-130070127D01*
X154654739Y-130076066D01*
X154645879Y-130081119D01*
X154635937Y-130086267D01*
X154629496Y-130091854D01*
X153881543Y-130559642D01*
X153876804Y-130562464D01*
X153751760Y-130633252D01*
X153748626Y-130634968D01*
X153620485Y-130702785D01*
X153617285Y-130704421D01*
X153487106Y-130768633D01*
X153483843Y-130770185D01*
X153439199Y-130790636D01*
X153351809Y-130830668D01*
X153348487Y-130832132D01*
X153214622Y-130888835D01*
X153211221Y-130890218D01*
X153075699Y-130943020D01*
X153072228Y-130944313D01*
X152935166Y-130993125D01*
X152931619Y-130994329D01*
X152793172Y-131039044D01*
X152789549Y-131040155D01*
X152649705Y-131080720D01*
X152646008Y-131081731D01*
X152504992Y-131118024D01*
X152501214Y-131118935D01*
X152359141Y-131150863D01*
X152355285Y-131151666D01*
X152212287Y-131179137D01*
X152208353Y-131179829D01*
X152064432Y-131202774D01*
X152060420Y-131203347D01*
X151915781Y-131221658D01*
X151911693Y-131222108D01*
X151766485Y-131235693D01*
X151762322Y-131236013D01*
X151628865Y-131244049D01*
X151618393Y-131244680D01*
X151610821Y-131244908D01*
X146960224Y-131244908D01*
X146952081Y-131244645D01*
X146808483Y-131235345D01*
X146804592Y-131235032D01*
X146659182Y-131221080D01*
X146655325Y-131220650D01*
X146510394Y-131202224D01*
X146506572Y-131201678D01*
X146362462Y-131178850D01*
X146358676Y-131178191D01*
X146215340Y-131150982D01*
X146211589Y-131150211D01*
X146069243Y-131118680D01*
X146065527Y-131117798D01*
X145924242Y-131081977D01*
X145920559Y-131080983D01*
X145780600Y-131040952D01*
X145776951Y-131039849D01*
X145638315Y-130995618D01*
X145634700Y-130994404D01*
X145497585Y-130946040D01*
X145494004Y-130944715D01*
X145358536Y-130892264D01*
X145355026Y-130890843D01*
X145221319Y-130834343D01*
X145217804Y-130832794D01*
X145086065Y-130772326D01*
X145082583Y-130770663D01*
X144952847Y-130706234D01*
X144949397Y-130704454D01*
X144821868Y-130636145D01*
X144818453Y-130634247D01*
X144693506Y-130562249D01*
X144689601Y-130559904D01*
X143941308Y-130091896D01*
X143934869Y-130086305D01*
X143924879Y-130081132D01*
X143916014Y-130076075D01*
X143906530Y-130070144D01*
X143898443Y-130067445D01*
X143134433Y-129671897D01*
X143127717Y-129666949D01*
X143116899Y-129662384D01*
X143107965Y-129658194D01*
X143097621Y-129652839D01*
X143089532Y-129650838D01*
X142296352Y-129316231D01*
X142289428Y-129311912D01*
X142277861Y-129308037D01*
X142268935Y-129304666D01*
X142257756Y-129299952D01*
X142249710Y-129298610D01*
X141432229Y-129024900D01*
X141425134Y-129021182D01*
X141412939Y-129018079D01*
X141404028Y-129015458D01*
X141392145Y-129011481D01*
X141384161Y-129010760D01*
X141294312Y-128987909D01*
X141224434Y-128970137D01*
X140547242Y-128797908D01*
X140539998Y-128794765D01*
X140527312Y-128792499D01*
X140518423Y-128790578D01*
X140505983Y-128787415D01*
X140498086Y-128787282D01*
X139646610Y-128635267D01*
X139639251Y-128632682D01*
X139626148Y-128631292D01*
X139617324Y-128630038D01*
X139604432Y-128627739D01*
X139596647Y-128628167D01*
X138735451Y-128536964D01*
X138727979Y-128534920D01*
X138714673Y-128534451D01*
X138705864Y-128533830D01*
X138692730Y-128532441D01*
X138685046Y-128533410D01*
X137818914Y-128503007D01*
X137811338Y-128501499D01*
X137798016Y-128501965D01*
X137789216Y-128501965D01*
X137775943Y-128501501D01*
X137768368Y-128503005D01*
X136902234Y-128533403D01*
X136894552Y-128532430D01*
X136881359Y-128533825D01*
X136872560Y-128534445D01*
X136859349Y-128534911D01*
X136851886Y-128536946D01*
X135990620Y-128628152D01*
X135982841Y-128627721D01*
X135969884Y-128630031D01*
X135961080Y-128631281D01*
X135948066Y-128632662D01*
X135940714Y-128635238D01*
X135089170Y-128787261D01*
X135081283Y-128787391D01*
X135068782Y-128790568D01*
X135059922Y-128792483D01*
X135047256Y-128794746D01*
X135040023Y-128797881D01*
X134203068Y-129010736D01*
X134195078Y-129011455D01*
X134183186Y-129015437D01*
X134174250Y-129018065D01*
X134162155Y-129021141D01*
X134155052Y-129024856D01*
X133337496Y-129298586D01*
X133329442Y-129299927D01*
X133318265Y-129304641D01*
X133309330Y-129308016D01*
X133297816Y-129311872D01*
X133290885Y-129316191D01*
X132497629Y-129650823D01*
X132489540Y-129652824D01*
X132479177Y-129658188D01*
X132470259Y-129662369D01*
X132459521Y-129666900D01*
X132452807Y-129671840D01*
X131688703Y-130067429D01*
X131680617Y-130070127D01*
X131671119Y-130076066D01*
X131662259Y-130081119D01*
X131652317Y-130086267D01*
X131645876Y-130091854D01*
X130897933Y-130559636D01*
X130893194Y-130562458D01*
X130768126Y-130633260D01*
X130764991Y-130634977D01*
X130636863Y-130702786D01*
X130633663Y-130704421D01*
X130503473Y-130768638D01*
X130500210Y-130770190D01*
X130455936Y-130790471D01*
X130368173Y-130830673D01*
X130364863Y-130832132D01*
X130231006Y-130888833D01*
X130227602Y-130890217D01*
X130092085Y-130943016D01*
X130088615Y-130944309D01*
X129951542Y-130993125D01*
X129948023Y-130994320D01*
X129809526Y-131039051D01*
X129805924Y-131040155D01*
X129666080Y-131080720D01*
X129662383Y-131081732D01*
X129521366Y-131118025D01*
X129517588Y-131118935D01*
X129375516Y-131150863D01*
X129371660Y-131151666D01*
X129228660Y-131179137D01*
X129224726Y-131179829D01*
X129080805Y-131202774D01*
X129076793Y-131203347D01*
X128932154Y-131221658D01*
X128928066Y-131222108D01*
X128782857Y-131235693D01*
X128778694Y-131236013D01*
X128645237Y-131244049D01*
X128634765Y-131244680D01*
X128627193Y-131244908D01*
X123976597Y-131244908D01*
X123968454Y-131244645D01*
X123824856Y-131235345D01*
X123820965Y-131235032D01*
X123675555Y-131221080D01*
X123671698Y-131220650D01*
X123526767Y-131202224D01*
X123522945Y-131201678D01*
X123378835Y-131178850D01*
X123375049Y-131178191D01*
X123231713Y-131150982D01*
X123227962Y-131150211D01*
X123085616Y-131118680D01*
X123081900Y-131117798D01*
X122940615Y-131081977D01*
X122936932Y-131080983D01*
X122796965Y-131040950D01*
X122793317Y-131039847D01*
X122654698Y-130995622D01*
X122651082Y-130994408D01*
X122513958Y-130946040D01*
X122510376Y-130944715D01*
X122374910Y-130892264D01*
X122371361Y-130890827D01*
X122281408Y-130852816D01*
X122237694Y-130834344D01*
X122234190Y-130832800D01*
X122232730Y-130832130D01*
X122204337Y-130819097D01*
X122102427Y-130772320D01*
X122098946Y-130770657D01*
X121969211Y-130706229D01*
X121965770Y-130704454D01*
X121838217Y-130636130D01*
X121834842Y-130634254D01*
X121709921Y-130562271D01*
X121706016Y-130559926D01*
X120957670Y-130091884D01*
X120951233Y-130086297D01*
X120941262Y-130081134D01*
X120932390Y-130076074D01*
X120922907Y-130070143D01*
X120914822Y-130067445D01*
X120150812Y-129671897D01*
X120144096Y-129666949D01*
X120133278Y-129662384D01*
X120124344Y-129658194D01*
X120114000Y-129652839D01*
X120105911Y-129650838D01*
X119312731Y-129316231D01*
X119305807Y-129311912D01*
X119294240Y-129308037D01*
X119285314Y-129304666D01*
X119274135Y-129299952D01*
X119266089Y-129298610D01*
X118448607Y-129024900D01*
X118441512Y-129021182D01*
X118429317Y-129018079D01*
X118420406Y-129015458D01*
X118408523Y-129011481D01*
X118400539Y-129010760D01*
X117563619Y-128797908D01*
X117556375Y-128794765D01*
X117543689Y-128792499D01*
X117534800Y-128790578D01*
X117522360Y-128787415D01*
X117514463Y-128787282D01*
X116662988Y-128635267D01*
X116655629Y-128632682D01*
X116642526Y-128631292D01*
X116633702Y-128630038D01*
X116620810Y-128627739D01*
X116613025Y-128628167D01*
X115751828Y-128536964D01*
X115744356Y-128534920D01*
X115731050Y-128534451D01*
X115722241Y-128533830D01*
X115709107Y-128532441D01*
X115701423Y-128533410D01*
X114835291Y-128503007D01*
X114827715Y-128501499D01*
X114814393Y-128501965D01*
X114805593Y-128501965D01*
X114792320Y-128501501D01*
X114784745Y-128503005D01*
X113918610Y-128533403D01*
X113910928Y-128532430D01*
X113897735Y-128533825D01*
X113888936Y-128534445D01*
X113875725Y-128534911D01*
X113868262Y-128536946D01*
X113006996Y-128628152D01*
X112999217Y-128627721D01*
X112986260Y-128630031D01*
X112977456Y-128631281D01*
X112964442Y-128632662D01*
X112957090Y-128635238D01*
X112105546Y-128787261D01*
X112097659Y-128787391D01*
X112085158Y-128790568D01*
X112076298Y-128792483D01*
X112063632Y-128794746D01*
X112056399Y-128797881D01*
X111219444Y-129010736D01*
X111211454Y-129011455D01*
X111199562Y-129015437D01*
X111190626Y-129018065D01*
X111178531Y-129021141D01*
X111171428Y-129024856D01*
X110353871Y-129298586D01*
X110345817Y-129299927D01*
X110334640Y-129304641D01*
X110325705Y-129308016D01*
X110314191Y-129311872D01*
X110307260Y-129316191D01*
X109514004Y-129650823D01*
X109505915Y-129652824D01*
X109495552Y-129658188D01*
X109486634Y-129662369D01*
X109475896Y-129666900D01*
X109469182Y-129671840D01*
X108705078Y-130067429D01*
X108696992Y-130070127D01*
X108687494Y-130076066D01*
X108678634Y-130081119D01*
X108668691Y-130086267D01*
X108662252Y-130091853D01*
X107914269Y-130559660D01*
X107909533Y-130562480D01*
X107784493Y-130633271D01*
X107781358Y-130634988D01*
X107653221Y-130702806D01*
X107650040Y-130704432D01*
X107609764Y-130724299D01*
X107519887Y-130768632D01*
X107516624Y-130770183D01*
X107384530Y-130830695D01*
X107381199Y-130832163D01*
X107247405Y-130888837D01*
X107244004Y-130890220D01*
X107108473Y-130943027D01*
X107104999Y-130944322D01*
X106967936Y-130993132D01*
X106964391Y-130994336D01*
X106825899Y-131039065D01*
X106822275Y-131040175D01*
X106682427Y-131080740D01*
X106678728Y-131081752D01*
X106537752Y-131118031D01*
X106533976Y-131118941D01*
X106418586Y-131144871D01*
X106391923Y-131150863D01*
X106388071Y-131151666D01*
X106245018Y-131179145D01*
X106241086Y-131179836D01*
X106097173Y-131202779D01*
X106093160Y-131203352D01*
X105948547Y-131221658D01*
X105944459Y-131222108D01*
X105799238Y-131235693D01*
X105795076Y-131236013D01*
X105673783Y-131243317D01*
X105651146Y-131244680D01*
X105643574Y-131244908D01*
X93644313Y-131244908D01*
X93643506Y-131244905D01*
X93641087Y-131244889D01*
X93200774Y-131242067D01*
X93193959Y-131241839D01*
X92753268Y-131215130D01*
X92746580Y-131214546D01*
X92310073Y-131164646D01*
X92303534Y-131163724D01*
X91871930Y-131091307D01*
X91865558Y-131090068D01*
X91439562Y-130995805D01*
X91433367Y-130994269D01*
X91013670Y-130878826D01*
X91007663Y-130877011D01*
X90939537Y-130854568D01*
X90594991Y-130741063D01*
X90589180Y-130738990D01*
X90555460Y-130726018D01*
X90321861Y-130636152D01*
X90184290Y-130583228D01*
X90178666Y-130580907D01*
X89782252Y-130405996D01*
X89776821Y-130403444D01*
X89389530Y-130210028D01*
X89384287Y-130207253D01*
X89007012Y-129996096D01*
X89001956Y-129993110D01*
X88635295Y-129764832D01*
X88630420Y-129761638D01*
X88511375Y-129679648D01*
X88275137Y-129516943D01*
X88270465Y-129513565D01*
X87927288Y-129253145D01*
X87922783Y-129249560D01*
X87592451Y-128974121D01*
X87588099Y-128970320D01*
X87288736Y-128696470D01*
X87271294Y-128680514D01*
X87267113Y-128676509D01*
X87266956Y-128676352D01*
X87092638Y-128501499D01*
X86964651Y-128373119D01*
X86960634Y-128368899D01*
X86878992Y-128279058D01*
X86673127Y-128052518D01*
X86669305Y-128048110D01*
X86397531Y-127719492D01*
X86393864Y-127714838D01*
X86393718Y-127714644D01*
X86148514Y-127387973D01*
X86138579Y-127374737D01*
X86135086Y-127369845D01*
X85905307Y-127031213D01*
X85896919Y-127018852D01*
X85893642Y-127013760D01*
X85673349Y-126652633D01*
X85670268Y-126647291D01*
X85468556Y-126276727D01*
X85465680Y-126271111D01*
X85283275Y-125891857D01*
X85280628Y-125885974D01*
X85118194Y-125498645D01*
X85115810Y-125492517D01*
X85115751Y-125492353D01*
X84974062Y-125097844D01*
X84971962Y-125091466D01*
X84971925Y-125091344D01*
X84853438Y-124696283D01*
X84851596Y-124690142D01*
X84849801Y-124683505D01*
X84849779Y-124683413D01*
X84751487Y-124276124D01*
X84750049Y-124269338D01*
X84674517Y-123856724D01*
X84673432Y-123849671D01*
X84621352Y-123432402D01*
X84620660Y-123425144D01*
X84592732Y-123003938D01*
X84592459Y-122996516D01*
X84589356Y-122568917D01*
X84589353Y-122568003D01*
X84589353Y-120756927D01*
X84589672Y-120747972D01*
X84592445Y-120709055D01*
X84599409Y-120611305D01*
X84599776Y-120607143D01*
X84614374Y-120468321D01*
X84614883Y-120464158D01*
X84614890Y-120464112D01*
X84634118Y-120325860D01*
X84634761Y-120321741D01*
X84658587Y-120184093D01*
X84659339Y-120180140D01*
X84687713Y-120043254D01*
X84688597Y-120039310D01*
X84721467Y-119903347D01*
X84722484Y-119899422D01*
X84759801Y-119764512D01*
X84760946Y-119760623D01*
X84802668Y-119626869D01*
X84803924Y-119623064D01*
X84849991Y-119490644D01*
X84851363Y-119486896D01*
X84901763Y-119355829D01*
X84903222Y-119352211D01*
X84957883Y-119222699D01*
X84959506Y-119219023D01*
X84961063Y-119215642D01*
X85018356Y-119091242D01*
X85020072Y-119087667D01*
X85083072Y-118961716D01*
X85084944Y-118958122D01*
X85087432Y-118953525D01*
X85090963Y-118947000D01*
X104529444Y-118947000D01*
X104546179Y-119148961D01*
X104548037Y-119171375D01*
X104603302Y-119389612D01*
X104603303Y-119389613D01*
X104603304Y-119389616D01*
X104693740Y-119595791D01*
X104693741Y-119595793D01*
X104816875Y-119784265D01*
X104816879Y-119784270D01*
X104969362Y-119949908D01*
X104980075Y-119958246D01*
X105147024Y-120088189D01*
X105345026Y-120195342D01*
X105345027Y-120195342D01*
X105345028Y-120195343D01*
X105419879Y-120221039D01*
X105557965Y-120268444D01*
X105780031Y-120305500D01*
X105780035Y-120305500D01*
X106005165Y-120305500D01*
X106005169Y-120305500D01*
X106227235Y-120268444D01*
X106440174Y-120195342D01*
X106638176Y-120088189D01*
X106815840Y-119949906D01*
X106968322Y-119784268D01*
X106968527Y-119783955D01*
X106982500Y-119762567D01*
X107057118Y-119648354D01*
X107111120Y-119602268D01*
X107181468Y-119592692D01*
X107245825Y-119622669D01*
X107268080Y-119648353D01*
X107295290Y-119690000D01*
X107356875Y-119784265D01*
X107356879Y-119784270D01*
X107509362Y-119949908D01*
X107520075Y-119958246D01*
X107687024Y-120088189D01*
X107885026Y-120195342D01*
X107885027Y-120195342D01*
X107885028Y-120195343D01*
X107959879Y-120221039D01*
X108097965Y-120268444D01*
X108320031Y-120305500D01*
X108320035Y-120305500D01*
X108545165Y-120305500D01*
X108545169Y-120305500D01*
X108767235Y-120268444D01*
X108980174Y-120195342D01*
X109178176Y-120088189D01*
X109355840Y-119949906D01*
X109508322Y-119784268D01*
X109508527Y-119783955D01*
X109522500Y-119762567D01*
X109597118Y-119648354D01*
X109651120Y-119602268D01*
X109721468Y-119592692D01*
X109785825Y-119622669D01*
X109808080Y-119648353D01*
X109835290Y-119690000D01*
X109896875Y-119784265D01*
X109896879Y-119784270D01*
X110049362Y-119949908D01*
X110060075Y-119958246D01*
X110227024Y-120088189D01*
X110425026Y-120195342D01*
X110425027Y-120195342D01*
X110425028Y-120195343D01*
X110499879Y-120221039D01*
X110637965Y-120268444D01*
X110860031Y-120305500D01*
X110860035Y-120305500D01*
X111085165Y-120305500D01*
X111085169Y-120305500D01*
X111307235Y-120268444D01*
X111520174Y-120195342D01*
X111718176Y-120088189D01*
X111895840Y-119949906D01*
X112048322Y-119784268D01*
X112048527Y-119783955D01*
X112062500Y-119762567D01*
X112137118Y-119648354D01*
X112191120Y-119602268D01*
X112261468Y-119592692D01*
X112325825Y-119622669D01*
X112348080Y-119648353D01*
X112375290Y-119690000D01*
X112436875Y-119784265D01*
X112436879Y-119784270D01*
X112589362Y-119949908D01*
X112600075Y-119958246D01*
X112767024Y-120088189D01*
X112965026Y-120195342D01*
X112965027Y-120195342D01*
X112965028Y-120195343D01*
X113039879Y-120221039D01*
X113177965Y-120268444D01*
X113400031Y-120305500D01*
X113400035Y-120305500D01*
X113625165Y-120305500D01*
X113625169Y-120305500D01*
X113847235Y-120268444D01*
X114060174Y-120195342D01*
X114258176Y-120088189D01*
X114435840Y-119949906D01*
X114588322Y-119784268D01*
X114588527Y-119783955D01*
X114602500Y-119762567D01*
X114677118Y-119648354D01*
X114731120Y-119602268D01*
X114801468Y-119592692D01*
X114865825Y-119622669D01*
X114888080Y-119648353D01*
X114915290Y-119690000D01*
X114976875Y-119784265D01*
X114976879Y-119784270D01*
X115129362Y-119949908D01*
X115140075Y-119958246D01*
X115307024Y-120088189D01*
X115505026Y-120195342D01*
X115505027Y-120195342D01*
X115505028Y-120195343D01*
X115579879Y-120221039D01*
X115717965Y-120268444D01*
X115940031Y-120305500D01*
X115940035Y-120305500D01*
X116165165Y-120305500D01*
X116165169Y-120305500D01*
X116387235Y-120268444D01*
X116600174Y-120195342D01*
X116798176Y-120088189D01*
X116975840Y-119949906D01*
X117128322Y-119784268D01*
X117128527Y-119783955D01*
X117142500Y-119762567D01*
X117217118Y-119648354D01*
X117271120Y-119602268D01*
X117341468Y-119592692D01*
X117405825Y-119622669D01*
X117428080Y-119648353D01*
X117455290Y-119690000D01*
X117516875Y-119784265D01*
X117516879Y-119784270D01*
X117669362Y-119949908D01*
X117680075Y-119958246D01*
X117847024Y-120088189D01*
X118045026Y-120195342D01*
X118045027Y-120195342D01*
X118045028Y-120195343D01*
X118119879Y-120221039D01*
X118257965Y-120268444D01*
X118480031Y-120305500D01*
X118480035Y-120305500D01*
X118705165Y-120305500D01*
X118705169Y-120305500D01*
X118927235Y-120268444D01*
X119140174Y-120195342D01*
X119338176Y-120088189D01*
X119515840Y-119949906D01*
X119668322Y-119784268D01*
X119668527Y-119783955D01*
X119682500Y-119762567D01*
X119757118Y-119648354D01*
X119811120Y-119602268D01*
X119881468Y-119592692D01*
X119945825Y-119622669D01*
X119968080Y-119648353D01*
X119995290Y-119690000D01*
X120056875Y-119784265D01*
X120056879Y-119784270D01*
X120209362Y-119949908D01*
X120220075Y-119958246D01*
X120387024Y-120088189D01*
X120585026Y-120195342D01*
X120585027Y-120195342D01*
X120585028Y-120195343D01*
X120659879Y-120221039D01*
X120797965Y-120268444D01*
X121020031Y-120305500D01*
X121020035Y-120305500D01*
X121245165Y-120305500D01*
X121245169Y-120305500D01*
X121467235Y-120268444D01*
X121680174Y-120195342D01*
X121878176Y-120088189D01*
X122055840Y-119949906D01*
X122208322Y-119784268D01*
X122208527Y-119783955D01*
X122222500Y-119762567D01*
X122297118Y-119648354D01*
X122351120Y-119602268D01*
X122421468Y-119592692D01*
X122485825Y-119622669D01*
X122508080Y-119648353D01*
X122535290Y-119690000D01*
X122596875Y-119784265D01*
X122596879Y-119784270D01*
X122749362Y-119949908D01*
X122760075Y-119958246D01*
X122927024Y-120088189D01*
X123125026Y-120195342D01*
X123125027Y-120195342D01*
X123125028Y-120195343D01*
X123199879Y-120221039D01*
X123337965Y-120268444D01*
X123560031Y-120305500D01*
X123560035Y-120305500D01*
X123785165Y-120305500D01*
X123785169Y-120305500D01*
X124007235Y-120268444D01*
X124220174Y-120195342D01*
X124418176Y-120088189D01*
X124595840Y-119949906D01*
X124748322Y-119784268D01*
X124748527Y-119783955D01*
X124762500Y-119762567D01*
X124837118Y-119648354D01*
X124891120Y-119602268D01*
X124961468Y-119592692D01*
X125025825Y-119622669D01*
X125048080Y-119648353D01*
X125075290Y-119690000D01*
X125136875Y-119784265D01*
X125136879Y-119784270D01*
X125289362Y-119949908D01*
X125300075Y-119958246D01*
X125467024Y-120088189D01*
X125665026Y-120195342D01*
X125665027Y-120195342D01*
X125665028Y-120195343D01*
X125739879Y-120221039D01*
X125877965Y-120268444D01*
X126100031Y-120305500D01*
X126100035Y-120305500D01*
X126325165Y-120305500D01*
X126325169Y-120305500D01*
X126547235Y-120268444D01*
X126760174Y-120195342D01*
X126958176Y-120088189D01*
X127135840Y-119949906D01*
X127288322Y-119784268D01*
X127288527Y-119783955D01*
X127302500Y-119762567D01*
X127377118Y-119648354D01*
X127431120Y-119602268D01*
X127501468Y-119592692D01*
X127565825Y-119622669D01*
X127588080Y-119648353D01*
X127615290Y-119690000D01*
X127676875Y-119784265D01*
X127676879Y-119784270D01*
X127829362Y-119949908D01*
X127840075Y-119958246D01*
X128007024Y-120088189D01*
X128205026Y-120195342D01*
X128205027Y-120195342D01*
X128205028Y-120195343D01*
X128279879Y-120221039D01*
X128417965Y-120268444D01*
X128640031Y-120305500D01*
X128640035Y-120305500D01*
X128865165Y-120305500D01*
X128865169Y-120305500D01*
X129087235Y-120268444D01*
X129300174Y-120195342D01*
X129498176Y-120088189D01*
X129675840Y-119949906D01*
X129828322Y-119784268D01*
X129828527Y-119783955D01*
X129842500Y-119762567D01*
X129917118Y-119648354D01*
X129971120Y-119602268D01*
X130041468Y-119592692D01*
X130105825Y-119622669D01*
X130128080Y-119648353D01*
X130155290Y-119690000D01*
X130216875Y-119784265D01*
X130216879Y-119784270D01*
X130369362Y-119949908D01*
X130380075Y-119958246D01*
X130547024Y-120088189D01*
X130745026Y-120195342D01*
X130745027Y-120195342D01*
X130745028Y-120195343D01*
X130819879Y-120221039D01*
X130957965Y-120268444D01*
X131180031Y-120305500D01*
X131180035Y-120305500D01*
X131405165Y-120305500D01*
X131405169Y-120305500D01*
X131627235Y-120268444D01*
X131840174Y-120195342D01*
X132038176Y-120088189D01*
X132215840Y-119949906D01*
X132368322Y-119784268D01*
X132368527Y-119783955D01*
X132382500Y-119762567D01*
X132457118Y-119648354D01*
X132511120Y-119602268D01*
X132581468Y-119592692D01*
X132645825Y-119622669D01*
X132668080Y-119648353D01*
X132695290Y-119690000D01*
X132756875Y-119784265D01*
X132756879Y-119784270D01*
X132909362Y-119949908D01*
X132920075Y-119958246D01*
X133087024Y-120088189D01*
X133285026Y-120195342D01*
X133285027Y-120195342D01*
X133285028Y-120195343D01*
X133359879Y-120221039D01*
X133497965Y-120268444D01*
X133720031Y-120305500D01*
X133720035Y-120305500D01*
X133945165Y-120305500D01*
X133945169Y-120305500D01*
X134167235Y-120268444D01*
X134380174Y-120195342D01*
X134578176Y-120088189D01*
X134755840Y-119949906D01*
X134908322Y-119784268D01*
X134908527Y-119783955D01*
X134969910Y-119690000D01*
X134997416Y-119647898D01*
X135051419Y-119601810D01*
X135121767Y-119592235D01*
X135186124Y-119622212D01*
X135208382Y-119647898D01*
X135297274Y-119783958D01*
X135449697Y-119949534D01*
X135627298Y-120087767D01*
X135627299Y-120087768D01*
X135825228Y-120194882D01*
X135825230Y-120194883D01*
X136038083Y-120267955D01*
X136038092Y-120267957D01*
X136118600Y-120281391D01*
X136118600Y-119377702D01*
X136179607Y-119412925D01*
X136306774Y-119447000D01*
X136438426Y-119447000D01*
X136565593Y-119412925D01*
X136626600Y-119377702D01*
X136626600Y-120281390D01*
X136707107Y-120267957D01*
X136707116Y-120267955D01*
X136919969Y-120194883D01*
X136919971Y-120194882D01*
X137117900Y-120087768D01*
X137117901Y-120087767D01*
X137295502Y-119949534D01*
X137447927Y-119783955D01*
X137537117Y-119647441D01*
X137591121Y-119601352D01*
X137661468Y-119591777D01*
X137725826Y-119621754D01*
X137748083Y-119647441D01*
X137837272Y-119783955D01*
X137989697Y-119949534D01*
X138167298Y-120087767D01*
X138167299Y-120087768D01*
X138365228Y-120194882D01*
X138365230Y-120194883D01*
X138578083Y-120267955D01*
X138578092Y-120267957D01*
X138658600Y-120281391D01*
X138658600Y-119377702D01*
X138719607Y-119412925D01*
X138846774Y-119447000D01*
X138978426Y-119447000D01*
X139105593Y-119412925D01*
X139166600Y-119377702D01*
X139166600Y-120281390D01*
X139247107Y-120267957D01*
X139247116Y-120267955D01*
X139459969Y-120194883D01*
X139459971Y-120194882D01*
X139657900Y-120087768D01*
X139657901Y-120087767D01*
X139835502Y-119949534D01*
X139987927Y-119783955D01*
X140077117Y-119647441D01*
X140131121Y-119601352D01*
X140201468Y-119591777D01*
X140265826Y-119621754D01*
X140288083Y-119647441D01*
X140377272Y-119783955D01*
X140529697Y-119949534D01*
X140707298Y-120087767D01*
X140707299Y-120087768D01*
X140905228Y-120194882D01*
X140905230Y-120194883D01*
X141118083Y-120267955D01*
X141118092Y-120267957D01*
X141198600Y-120281391D01*
X141198600Y-119377702D01*
X141259607Y-119412925D01*
X141386774Y-119447000D01*
X141518426Y-119447000D01*
X141645593Y-119412925D01*
X141706600Y-119377702D01*
X141706600Y-120281390D01*
X141787107Y-120267957D01*
X141787116Y-120267955D01*
X141999969Y-120194883D01*
X141999971Y-120194882D01*
X142197900Y-120087768D01*
X142197901Y-120087767D01*
X142375502Y-119949534D01*
X142527925Y-119783958D01*
X142651019Y-119595548D01*
X142741420Y-119389456D01*
X142741423Y-119389449D01*
X142789144Y-119201000D01*
X141883303Y-119201000D01*
X141918525Y-119139993D01*
X141952600Y-119012826D01*
X141952600Y-118881174D01*
X141918525Y-118754007D01*
X141883303Y-118693000D01*
X142789144Y-118693000D01*
X142789144Y-118692999D01*
X142741423Y-118504550D01*
X142741420Y-118504543D01*
X142651019Y-118298451D01*
X142527925Y-118110041D01*
X142384618Y-117954367D01*
X142353198Y-117890702D01*
X142361185Y-117820156D01*
X142406044Y-117765127D01*
X142433279Y-117750977D01*
X142548804Y-117707889D01*
X142665861Y-117620261D01*
X142753489Y-117503204D01*
X142804589Y-117366201D01*
X142806400Y-117349362D01*
X142811099Y-117305649D01*
X142811100Y-117305632D01*
X142811100Y-115508367D01*
X142811099Y-115508350D01*
X142804590Y-115447803D01*
X142804588Y-115447795D01*
X142757146Y-115320601D01*
X142753489Y-115310796D01*
X142753488Y-115310794D01*
X142753487Y-115310792D01*
X142665861Y-115193738D01*
X142548807Y-115106112D01*
X142548802Y-115106110D01*
X142411804Y-115055011D01*
X142411796Y-115055009D01*
X142351249Y-115048500D01*
X142351238Y-115048500D01*
X140553962Y-115048500D01*
X140553950Y-115048500D01*
X140493403Y-115055009D01*
X140493395Y-115055011D01*
X140356397Y-115106110D01*
X140356392Y-115106112D01*
X140239338Y-115193738D01*
X140151712Y-115310792D01*
X140151711Y-115310795D01*
X140107600Y-115429058D01*
X140065053Y-115485893D01*
X139998532Y-115510703D01*
X139929158Y-115495611D01*
X139896846Y-115470363D01*
X139835840Y-115404094D01*
X139835839Y-115404093D01*
X139835837Y-115404091D01*
X139726515Y-115319002D01*
X139658176Y-115265811D01*
X139460174Y-115158658D01*
X139460172Y-115158657D01*
X139460171Y-115158656D01*
X139247239Y-115085557D01*
X139247230Y-115085555D01*
X139203076Y-115078187D01*
X139025169Y-115048500D01*
X138800031Y-115048500D01*
X138651811Y-115073233D01*
X138577969Y-115085555D01*
X138577960Y-115085557D01*
X138365028Y-115158656D01*
X138365026Y-115158658D01*
X138169850Y-115264282D01*
X138167026Y-115265810D01*
X138167024Y-115265811D01*
X137989362Y-115404091D01*
X137836879Y-115569729D01*
X137748083Y-115705643D01*
X137694079Y-115751731D01*
X137623731Y-115761306D01*
X137559374Y-115731329D01*
X137537117Y-115705643D01*
X137448320Y-115569729D01*
X137323286Y-115433908D01*
X137295840Y-115404094D01*
X137295839Y-115404093D01*
X137295837Y-115404091D01*
X137186515Y-115319002D01*
X137118176Y-115265811D01*
X136920174Y-115158658D01*
X136920172Y-115158657D01*
X136920171Y-115158656D01*
X136707239Y-115085557D01*
X136707230Y-115085555D01*
X136663076Y-115078187D01*
X136485169Y-115048500D01*
X136260031Y-115048500D01*
X136111811Y-115073233D01*
X136037969Y-115085555D01*
X136037960Y-115085557D01*
X135825028Y-115158656D01*
X135825026Y-115158658D01*
X135629850Y-115264282D01*
X135627026Y-115265810D01*
X135627024Y-115265811D01*
X135449362Y-115404091D01*
X135296879Y-115569729D01*
X135208083Y-115705643D01*
X135154079Y-115751731D01*
X135083731Y-115761306D01*
X135019374Y-115731329D01*
X134997117Y-115705643D01*
X134908320Y-115569729D01*
X134783286Y-115433908D01*
X134755840Y-115404094D01*
X134755839Y-115404093D01*
X134755837Y-115404091D01*
X134646515Y-115319002D01*
X134578176Y-115265811D01*
X134380174Y-115158658D01*
X134380172Y-115158657D01*
X134380171Y-115158656D01*
X134167239Y-115085557D01*
X134167230Y-115085555D01*
X134123076Y-115078187D01*
X133945169Y-115048500D01*
X133720031Y-115048500D01*
X133571811Y-115073233D01*
X133497969Y-115085555D01*
X133497960Y-115085557D01*
X133285028Y-115158656D01*
X133285026Y-115158658D01*
X133089850Y-115264282D01*
X133087026Y-115265810D01*
X133087024Y-115265811D01*
X132909362Y-115404091D01*
X132756879Y-115569729D01*
X132668083Y-115705643D01*
X132614079Y-115751731D01*
X132543731Y-115761306D01*
X132479374Y-115731329D01*
X132457117Y-115705643D01*
X132368320Y-115569729D01*
X132243286Y-115433908D01*
X132215840Y-115404094D01*
X132215839Y-115404093D01*
X132215837Y-115404091D01*
X132106515Y-115319002D01*
X132038176Y-115265811D01*
X131840174Y-115158658D01*
X131840172Y-115158657D01*
X131840171Y-115158656D01*
X131627239Y-115085557D01*
X131627232Y-115085555D01*
X131525529Y-115068584D01*
X131456966Y-115057143D01*
X131393069Y-115026202D01*
X131356041Y-114965626D01*
X131357642Y-114894647D01*
X131388602Y-114843776D01*
X135979307Y-110252410D01*
X136041617Y-110218381D01*
X136068409Y-110215500D01*
X151281966Y-110215500D01*
X151293130Y-110216509D01*
X151293166Y-110216080D01*
X151299324Y-110216587D01*
X151299334Y-110216589D01*
X151366977Y-110215515D01*
X151368975Y-110215500D01*
X151436710Y-110215500D01*
X151442869Y-110214893D01*
X151442911Y-110215324D01*
X151454066Y-110214134D01*
X153043984Y-110188914D01*
X153112413Y-110207833D01*
X153156787Y-110254913D01*
X154529767Y-112791112D01*
X154544608Y-112860540D01*
X154519556Y-112926970D01*
X154462567Y-112969311D01*
X154391733Y-112974120D01*
X154358577Y-112961685D01*
X154218938Y-112885436D01*
X154200617Y-112875432D01*
X154200616Y-112875431D01*
X153948639Y-112781449D01*
X153685846Y-112724282D01*
X153417600Y-112705097D01*
X153149353Y-112724282D01*
X152886560Y-112781449D01*
X152634583Y-112875431D01*
X152634573Y-112875436D01*
X152398554Y-113004312D01*
X152183244Y-113165490D01*
X151993090Y-113355644D01*
X151831912Y-113570954D01*
X151703036Y-113806973D01*
X151703031Y-113806983D01*
X151609049Y-114058960D01*
X151551882Y-114321753D01*
X151532697Y-114590000D01*
X151551882Y-114858246D01*
X151609049Y-115121039D01*
X151684526Y-115323402D01*
X151689590Y-115394218D01*
X151655565Y-115456529D01*
X150652499Y-116459596D01*
X150590189Y-116493620D01*
X150563406Y-116496500D01*
X148527419Y-116496500D01*
X148459298Y-116476498D01*
X148412805Y-116422842D01*
X148409364Y-116414533D01*
X148384171Y-116346991D01*
X148384170Y-116346990D01*
X148384168Y-116346983D01*
X148384163Y-116346973D01*
X148255287Y-116110954D01*
X148255282Y-116110948D01*
X148255281Y-116110945D01*
X148094115Y-115895651D01*
X148094111Y-115895647D01*
X148094109Y-115895644D01*
X147903955Y-115705490D01*
X147903951Y-115705487D01*
X147903949Y-115705485D01*
X147688655Y-115544319D01*
X147688652Y-115544317D01*
X147688645Y-115544312D01*
X147452626Y-115415436D01*
X147452616Y-115415431D01*
X147200639Y-115321449D01*
X146937846Y-115264282D01*
X146669600Y-115245097D01*
X146401353Y-115264282D01*
X146138560Y-115321449D01*
X145886583Y-115415431D01*
X145886573Y-115415436D01*
X145650554Y-115544312D01*
X145435244Y-115705490D01*
X145245090Y-115895644D01*
X145083912Y-116110954D01*
X144955036Y-116346973D01*
X144955031Y-116346983D01*
X144861049Y-116598960D01*
X144803882Y-116861753D01*
X144784697Y-117130000D01*
X144803882Y-117398246D01*
X144861049Y-117661039D01*
X144955031Y-117913016D01*
X144955036Y-117913026D01*
X145083912Y-118149045D01*
X145083917Y-118149052D01*
X145083919Y-118149055D01*
X145245085Y-118364349D01*
X145245087Y-118364351D01*
X145245090Y-118364355D01*
X145435244Y-118554509D01*
X145435247Y-118554511D01*
X145435251Y-118554515D01*
X145650545Y-118715681D01*
X145650548Y-118715682D01*
X145650554Y-118715687D01*
X145886573Y-118844563D01*
X145886583Y-118844568D01*
X146138561Y-118938551D01*
X146401350Y-118995717D01*
X146669600Y-119014903D01*
X146937850Y-118995717D01*
X147200639Y-118938551D01*
X147452617Y-118844568D01*
X147527882Y-118803470D01*
X147688645Y-118715687D01*
X147688647Y-118715685D01*
X147688655Y-118715681D01*
X147903949Y-118554515D01*
X148094115Y-118364349D01*
X148255281Y-118149055D01*
X148255285Y-118149047D01*
X148255287Y-118149045D01*
X148384163Y-117913026D01*
X148384162Y-117913026D01*
X148384168Y-117913017D01*
X148400455Y-117869351D01*
X148409364Y-117845467D01*
X148451911Y-117788631D01*
X148518431Y-117763821D01*
X148527419Y-117763500D01*
X150563406Y-117763500D01*
X150631527Y-117783502D01*
X150652501Y-117800405D01*
X151655566Y-118803470D01*
X151689592Y-118865782D01*
X151684527Y-118936596D01*
X151678287Y-118953326D01*
X151609049Y-119138960D01*
X151551882Y-119401753D01*
X151532697Y-119670000D01*
X151551882Y-119938246D01*
X151609049Y-120201039D01*
X151703031Y-120453016D01*
X151703036Y-120453026D01*
X151831912Y-120689045D01*
X151831917Y-120689052D01*
X151831919Y-120689055D01*
X151993085Y-120904349D01*
X151993087Y-120904351D01*
X151993090Y-120904355D01*
X152183244Y-121094509D01*
X152183247Y-121094511D01*
X152183251Y-121094515D01*
X152398545Y-121255681D01*
X152398548Y-121255682D01*
X152398554Y-121255687D01*
X152634573Y-121384563D01*
X152634583Y-121384568D01*
X152886561Y-121478551D01*
X153149350Y-121535717D01*
X153417600Y-121554903D01*
X153685850Y-121535717D01*
X153948639Y-121478551D01*
X154200617Y-121384568D01*
X154271271Y-121345988D01*
X154436645Y-121255687D01*
X154436647Y-121255685D01*
X154436655Y-121255681D01*
X154651949Y-121094515D01*
X154842115Y-120904349D01*
X155003281Y-120689055D01*
X155003285Y-120689047D01*
X155003287Y-120689045D01*
X155125769Y-120464735D01*
X155132168Y-120453017D01*
X155226151Y-120201039D01*
X155283317Y-119938250D01*
X155302503Y-119670000D01*
X155283317Y-119401750D01*
X155226151Y-119138961D01*
X155132168Y-118886983D01*
X155132163Y-118886973D01*
X155003287Y-118650954D01*
X155003282Y-118650948D01*
X155003281Y-118650945D01*
X154842115Y-118435651D01*
X154842111Y-118435647D01*
X154842109Y-118435644D01*
X154651955Y-118245490D01*
X154651951Y-118245487D01*
X154651949Y-118245485D01*
X154436655Y-118084319D01*
X154436652Y-118084317D01*
X154436645Y-118084312D01*
X154200626Y-117955436D01*
X154200616Y-117955431D01*
X153948639Y-117861449D01*
X153685846Y-117804282D01*
X153417600Y-117785097D01*
X153149353Y-117804282D01*
X152886560Y-117861449D01*
X152684781Y-117936709D01*
X152613965Y-117941773D01*
X152551654Y-117907749D01*
X151862999Y-117219095D01*
X151828974Y-117156782D01*
X151834038Y-117085967D01*
X151862997Y-117040906D01*
X152551654Y-116352249D01*
X152613964Y-116318225D01*
X152684778Y-116323289D01*
X152886561Y-116398551D01*
X153149350Y-116455717D01*
X153417600Y-116474903D01*
X153685850Y-116455717D01*
X153948639Y-116398551D01*
X154200617Y-116304568D01*
X154261744Y-116271190D01*
X154436645Y-116175687D01*
X154436647Y-116175685D01*
X154436655Y-116175681D01*
X154651949Y-116014515D01*
X154842115Y-115824349D01*
X155003281Y-115609055D01*
X155003285Y-115609047D01*
X155003287Y-115609045D01*
X155132163Y-115373026D01*
X155132168Y-115373017D01*
X155226151Y-115121039D01*
X155283317Y-114858250D01*
X155295151Y-114692779D01*
X155319962Y-114626261D01*
X155376797Y-114583714D01*
X155447613Y-114578649D01*
X155509925Y-114612674D01*
X155531635Y-114641785D01*
X156538786Y-116502216D01*
X156544015Y-116513089D01*
X156556605Y-116542836D01*
X156556613Y-116542850D01*
X156573581Y-116567828D01*
X156580159Y-116578643D01*
X156594530Y-116605189D01*
X156594533Y-116605193D01*
X156594535Y-116605196D01*
X156615174Y-116630075D01*
X156622408Y-116639698D01*
X156640572Y-116666434D01*
X156640576Y-116666438D01*
X156662081Y-116687614D01*
X156670648Y-116696942D01*
X156689932Y-116720188D01*
X156715026Y-116740561D01*
X156724001Y-116748590D01*
X156747032Y-116771268D01*
X156772267Y-116787850D01*
X156782481Y-116795322D01*
X156805930Y-116814359D01*
X156834509Y-116829440D01*
X156844892Y-116835572D01*
X156871899Y-116853319D01*
X156871901Y-116853320D01*
X156899876Y-116864656D01*
X156911363Y-116869998D01*
X156938063Y-116884088D01*
X156938072Y-116884092D01*
X156969054Y-116893310D01*
X156980432Y-116897299D01*
X157010371Y-116909432D01*
X157022092Y-116911669D01*
X157040027Y-116915093D01*
X157052323Y-116918088D01*
X157081276Y-116926704D01*
X157113452Y-116929699D01*
X157125388Y-116931390D01*
X157157133Y-116937452D01*
X157157134Y-116937451D01*
X157157135Y-116937452D01*
X157184069Y-116937244D01*
X157187317Y-116937219D01*
X157199976Y-116937758D01*
X157203482Y-116938084D01*
X157230045Y-116940559D01*
X157262198Y-116937219D01*
X157274222Y-116936550D01*
X157481303Y-116934956D01*
X157549573Y-116954433D01*
X157567156Y-116967837D01*
X157569233Y-116969731D01*
X157569236Y-116969734D01*
X157685678Y-117075885D01*
X157722544Y-117136558D01*
X157720755Y-117207532D01*
X157685678Y-117262114D01*
X157569234Y-117368266D01*
X157437058Y-117543297D01*
X157339291Y-117739639D01*
X157339288Y-117739646D01*
X157279267Y-117950602D01*
X157279267Y-117950606D01*
X157259030Y-118168995D01*
X157259030Y-118169004D01*
X157279267Y-118387393D01*
X157279267Y-118387397D01*
X157339288Y-118598353D01*
X157339290Y-118598358D01*
X157339291Y-118598361D01*
X157437057Y-118794701D01*
X157437058Y-118794702D01*
X157512912Y-118895150D01*
X157538002Y-118961566D01*
X157523202Y-119031003D01*
X157487871Y-119071950D01*
X157409338Y-119130738D01*
X157321712Y-119247792D01*
X157321710Y-119247797D01*
X157270611Y-119384795D01*
X157270609Y-119384803D01*
X157264100Y-119445350D01*
X157264100Y-120892649D01*
X157270609Y-120953196D01*
X157270611Y-120953204D01*
X157321710Y-121090202D01*
X157321712Y-121090207D01*
X157409338Y-121207261D01*
X157526392Y-121294887D01*
X157526394Y-121294888D01*
X157526396Y-121294889D01*
X157585475Y-121316924D01*
X157663395Y-121345988D01*
X157663403Y-121345990D01*
X157723950Y-121352499D01*
X157723955Y-121352499D01*
X157723962Y-121352500D01*
X157723968Y-121352500D01*
X159171232Y-121352500D01*
X159171238Y-121352500D01*
X159171245Y-121352499D01*
X159171249Y-121352499D01*
X159231796Y-121345990D01*
X159231799Y-121345989D01*
X159231801Y-121345989D01*
X159368804Y-121294889D01*
X159485861Y-121207261D01*
X159555290Y-121114515D01*
X159573487Y-121090207D01*
X159573487Y-121090206D01*
X159573489Y-121090204D01*
X159624589Y-120953201D01*
X159627691Y-120924355D01*
X159631099Y-120892649D01*
X159631100Y-120892632D01*
X159631100Y-119933043D01*
X159651102Y-119864922D01*
X159668018Y-119843934D01*
X162721120Y-116791768D01*
X162721260Y-116791643D01*
X162725830Y-116787072D01*
X162725833Y-116787071D01*
X162768383Y-116744520D01*
X162814010Y-116698908D01*
X162814010Y-116698907D01*
X162814038Y-116698880D01*
X162814066Y-116698837D01*
X162814071Y-116698833D01*
X162836857Y-116664728D01*
X162846342Y-116650535D01*
X162846343Y-116650535D01*
X162846350Y-116650520D01*
X162883107Y-116595530D01*
X162883364Y-116595154D01*
X162883373Y-116595138D01*
X162883378Y-116595126D01*
X162883397Y-116595078D01*
X162883400Y-116595075D01*
X162906435Y-116539464D01*
X162931127Y-116479878D01*
X162931146Y-116479834D01*
X162931165Y-116479733D01*
X162942816Y-116421153D01*
X162942824Y-116421137D01*
X162942820Y-116421137D01*
X162947316Y-116398551D01*
X162955491Y-116357491D01*
X162955491Y-116357478D01*
X162955500Y-116357397D01*
X162955500Y-116296423D01*
X162955502Y-116282283D01*
X162955510Y-116232703D01*
X162955509Y-116232698D01*
X162955510Y-116226727D01*
X162955500Y-116226500D01*
X162955500Y-102640003D01*
X169434296Y-102640003D01*
X169455034Y-102810799D01*
X169455035Y-102810801D01*
X169516046Y-102971675D01*
X169613785Y-103113273D01*
X169742570Y-103227367D01*
X169894917Y-103307325D01*
X169894918Y-103307325D01*
X169894920Y-103307326D01*
X170040599Y-103343232D01*
X170061972Y-103348500D01*
X170061975Y-103348500D01*
X170234025Y-103348500D01*
X170234028Y-103348500D01*
X170401083Y-103307325D01*
X170427126Y-103293656D01*
X170438032Y-103287933D01*
X170496587Y-103273500D01*
X172819389Y-103273500D01*
X172819394Y-103273500D01*
X172890136Y-103259427D01*
X172904590Y-103256553D01*
X172904594Y-103256552D01*
X172941778Y-103249157D01*
X172941778Y-103249156D01*
X172941784Y-103249155D01*
X172941785Y-103249155D01*
X172941785Y-103249154D01*
X172943001Y-103248913D01*
X172947467Y-103246801D01*
X172994386Y-103227367D01*
X173052197Y-103203422D01*
X173057067Y-103201405D01*
X173057067Y-103201404D01*
X173057069Y-103201404D01*
X173160828Y-103132076D01*
X174408431Y-101884500D01*
X181770844Y-101884500D01*
X181784776Y-102052634D01*
X181789437Y-102108875D01*
X181844702Y-102327112D01*
X181844703Y-102327113D01*
X181935141Y-102533293D01*
X182058275Y-102721765D01*
X182058279Y-102721770D01*
X182131082Y-102800853D01*
X182210760Y-102887406D01*
X182326892Y-102977796D01*
X182368362Y-103035419D01*
X182375500Y-103077226D01*
X182375500Y-103365500D01*
X182355498Y-103433621D01*
X182301842Y-103480114D01*
X182249500Y-103491500D01*
X182235350Y-103491500D01*
X182174803Y-103498009D01*
X182174795Y-103498011D01*
X182037797Y-103549110D01*
X182037792Y-103549112D01*
X181920738Y-103636738D01*
X181833112Y-103753792D01*
X181833110Y-103753797D01*
X181782011Y-103890795D01*
X181782009Y-103890803D01*
X181775500Y-103951350D01*
X181775500Y-105748649D01*
X181782009Y-105809196D01*
X181782011Y-105809204D01*
X181833110Y-105946202D01*
X181833112Y-105946207D01*
X181920738Y-106063261D01*
X182037792Y-106150887D01*
X182037794Y-106150888D01*
X182037796Y-106150889D01*
X182096875Y-106172924D01*
X182174795Y-106201988D01*
X182174803Y-106201990D01*
X182235350Y-106208499D01*
X182235355Y-106208499D01*
X182235362Y-106208500D01*
X182235368Y-106208500D01*
X184032632Y-106208500D01*
X184032638Y-106208500D01*
X184032645Y-106208499D01*
X184032649Y-106208499D01*
X184093196Y-106201990D01*
X184093199Y-106201989D01*
X184093201Y-106201989D01*
X184230204Y-106150889D01*
X184284580Y-106110184D01*
X184347261Y-106063261D01*
X184434887Y-105946207D01*
X184434887Y-105946206D01*
X184434889Y-105946204D01*
X184454563Y-105893454D01*
X184497109Y-105836621D01*
X184563629Y-105811810D01*
X184633003Y-105826901D01*
X184661713Y-105848394D01*
X196542485Y-117729166D01*
X196602092Y-117768994D01*
X196666716Y-117812174D01*
X196804754Y-117869351D01*
X196951294Y-117898500D01*
X196951295Y-117898500D01*
X197100705Y-117898500D01*
X197116559Y-117898500D01*
X197184680Y-117918502D01*
X197231173Y-117972158D01*
X197241277Y-118042432D01*
X197211783Y-118107012D01*
X197192073Y-118125364D01*
X197061915Y-118222799D01*
X197018244Y-118255490D01*
X196828090Y-118445644D01*
X196666912Y-118660954D01*
X196538036Y-118896973D01*
X196538031Y-118896983D01*
X196444049Y-119148960D01*
X196386882Y-119411753D01*
X196367697Y-119680000D01*
X196386882Y-119948246D01*
X196444049Y-120211039D01*
X196538031Y-120463016D01*
X196538036Y-120463026D01*
X196666912Y-120699045D01*
X196666917Y-120699052D01*
X196666919Y-120699055D01*
X196828085Y-120914349D01*
X196828087Y-120914351D01*
X196828090Y-120914355D01*
X197018244Y-121104509D01*
X197018247Y-121104511D01*
X197018251Y-121104515D01*
X197233545Y-121265681D01*
X197233548Y-121265682D01*
X197233554Y-121265687D01*
X197469573Y-121394563D01*
X197469583Y-121394568D01*
X197721561Y-121488551D01*
X197984350Y-121545717D01*
X198252600Y-121564903D01*
X198520850Y-121545717D01*
X198783639Y-121488551D01*
X199035617Y-121394568D01*
X199067945Y-121376915D01*
X199271645Y-121265687D01*
X199271647Y-121265685D01*
X199271655Y-121265681D01*
X199486949Y-121104515D01*
X199677115Y-120914349D01*
X199735489Y-120836370D01*
X199792324Y-120793824D01*
X199863139Y-120788758D01*
X199925452Y-120822783D01*
X199937219Y-120836363D01*
X200003085Y-120924349D01*
X200003087Y-120924351D01*
X200003090Y-120924355D01*
X200193244Y-121114509D01*
X200193247Y-121114511D01*
X200193251Y-121114515D01*
X200408545Y-121275681D01*
X200408548Y-121275682D01*
X200408554Y-121275687D01*
X200644573Y-121404563D01*
X200644583Y-121404568D01*
X200896561Y-121498551D01*
X201159350Y-121555717D01*
X201427600Y-121574903D01*
X201695850Y-121555717D01*
X201958639Y-121498551D01*
X202210617Y-121404568D01*
X202305974Y-121352499D01*
X202446645Y-121275687D01*
X202446647Y-121275685D01*
X202446655Y-121275681D01*
X202661949Y-121114515D01*
X202852115Y-120924349D01*
X203013281Y-120709055D01*
X203013285Y-120709047D01*
X203013287Y-120709045D01*
X203142163Y-120473026D01*
X203142168Y-120473017D01*
X203236151Y-120221039D01*
X203293317Y-119958250D01*
X203312503Y-119690000D01*
X203293317Y-119421750D01*
X203236151Y-119158961D01*
X203142168Y-118906983D01*
X203136708Y-118896983D01*
X203013287Y-118670954D01*
X203013282Y-118670948D01*
X203013281Y-118670945D01*
X202852115Y-118455651D01*
X202852111Y-118455647D01*
X202852109Y-118455644D01*
X202661955Y-118265490D01*
X202661948Y-118265484D01*
X202595631Y-118215840D01*
X202474773Y-118125367D01*
X202432227Y-118068533D01*
X202427161Y-117997717D01*
X202461186Y-117935405D01*
X202523498Y-117901380D01*
X202550282Y-117898500D01*
X203434886Y-117898500D01*
X203503007Y-117918502D01*
X203545472Y-117964113D01*
X203588238Y-118042432D01*
X203651913Y-118159045D01*
X203651919Y-118159055D01*
X203813085Y-118374349D01*
X203813087Y-118374351D01*
X203813090Y-118374355D01*
X204003244Y-118564509D01*
X204003247Y-118564511D01*
X204003251Y-118564515D01*
X204218545Y-118725681D01*
X204218548Y-118725682D01*
X204218554Y-118725687D01*
X204454573Y-118854563D01*
X204454583Y-118854568D01*
X204706561Y-118948551D01*
X204969350Y-119005717D01*
X205237600Y-119024903D01*
X205505850Y-119005717D01*
X205768639Y-118948551D01*
X206020617Y-118854568D01*
X206130255Y-118794701D01*
X206256645Y-118725687D01*
X206256647Y-118725685D01*
X206256655Y-118725681D01*
X206471949Y-118564515D01*
X206662115Y-118374349D01*
X206724231Y-118291370D01*
X206781067Y-118248824D01*
X206851883Y-118243758D01*
X206914195Y-118277783D01*
X206925967Y-118291369D01*
X206931088Y-118298209D01*
X206988084Y-118374348D01*
X206988090Y-118374355D01*
X207178244Y-118564509D01*
X207178247Y-118564511D01*
X207178251Y-118564515D01*
X207393545Y-118725681D01*
X207393548Y-118725682D01*
X207393554Y-118725687D01*
X207629573Y-118854563D01*
X207629583Y-118854568D01*
X207881561Y-118948551D01*
X208144350Y-119005717D01*
X208412600Y-119024903D01*
X208680850Y-119005717D01*
X208943639Y-118948551D01*
X209195617Y-118854568D01*
X209305255Y-118794701D01*
X209431645Y-118725687D01*
X209431647Y-118725685D01*
X209431655Y-118725681D01*
X209646949Y-118564515D01*
X209837115Y-118374349D01*
X209998281Y-118159055D01*
X209998285Y-118159047D01*
X209998287Y-118159045D01*
X210127163Y-117923026D01*
X210127168Y-117923017D01*
X210221151Y-117671039D01*
X210278317Y-117408250D01*
X210297503Y-117140000D01*
X210278317Y-116871750D01*
X210221151Y-116608961D01*
X210127168Y-116356983D01*
X210127163Y-116356973D01*
X209998287Y-116120954D01*
X209998282Y-116120948D01*
X209998281Y-116120945D01*
X209837115Y-115905651D01*
X209837111Y-115905647D01*
X209837109Y-115905644D01*
X209646955Y-115715490D01*
X209646951Y-115715487D01*
X209646949Y-115715485D01*
X209431655Y-115554319D01*
X209431652Y-115554317D01*
X209431645Y-115554312D01*
X209195626Y-115425436D01*
X209195616Y-115425431D01*
X208943639Y-115331449D01*
X208680846Y-115274282D01*
X208412600Y-115255097D01*
X208144353Y-115274282D01*
X207881560Y-115331449D01*
X207629583Y-115425431D01*
X207629573Y-115425436D01*
X207393554Y-115554312D01*
X207178244Y-115715490D01*
X206988090Y-115905644D01*
X206988082Y-115905653D01*
X206925968Y-115988629D01*
X206869132Y-116031176D01*
X206798317Y-116036241D01*
X206736005Y-116002215D01*
X206724232Y-115988629D01*
X206662117Y-115905653D01*
X206662109Y-115905644D01*
X206471955Y-115715490D01*
X206471951Y-115715487D01*
X206471949Y-115715485D01*
X206256655Y-115554319D01*
X206256652Y-115554317D01*
X206256645Y-115554312D01*
X206020626Y-115425436D01*
X206020616Y-115425431D01*
X205768639Y-115331449D01*
X205505846Y-115274282D01*
X205237600Y-115255097D01*
X204969353Y-115274282D01*
X204706560Y-115331449D01*
X204454583Y-115425431D01*
X204454573Y-115425436D01*
X204218554Y-115554312D01*
X204003244Y-115715490D01*
X203813090Y-115905644D01*
X203651916Y-116120949D01*
X203618235Y-116182632D01*
X203545472Y-116315886D01*
X203495271Y-116366088D01*
X203434886Y-116381500D01*
X202563641Y-116381500D01*
X202495520Y-116361498D01*
X202449027Y-116307842D01*
X202438923Y-116237568D01*
X202468417Y-116172988D01*
X202488126Y-116154635D01*
X202661949Y-116024515D01*
X202852115Y-115834349D01*
X203013281Y-115619055D01*
X203013285Y-115619047D01*
X203013287Y-115619045D01*
X203142163Y-115383026D01*
X203142168Y-115383017D01*
X203236151Y-115131039D01*
X203293317Y-114868250D01*
X203312503Y-114600000D01*
X203293317Y-114331750D01*
X203236151Y-114068961D01*
X203142168Y-113816983D01*
X203136708Y-113806983D01*
X203013287Y-113580954D01*
X203013282Y-113580948D01*
X203013281Y-113580945D01*
X202852115Y-113365651D01*
X202852111Y-113365647D01*
X202852109Y-113365644D01*
X202661955Y-113175490D01*
X202661951Y-113175487D01*
X202661949Y-113175485D01*
X202446655Y-113014319D01*
X202446652Y-113014317D01*
X202446645Y-113014312D01*
X202210626Y-112885436D01*
X202210616Y-112885431D01*
X201958639Y-112791449D01*
X201695846Y-112734282D01*
X201427600Y-112715097D01*
X201159353Y-112734282D01*
X200896560Y-112791449D01*
X200644583Y-112885431D01*
X200644573Y-112885436D01*
X200408554Y-113014312D01*
X200193244Y-113175490D01*
X200003090Y-113365644D01*
X200003082Y-113365653D01*
X199940968Y-113448629D01*
X199884132Y-113491176D01*
X199813317Y-113496241D01*
X199751005Y-113462215D01*
X199739232Y-113448629D01*
X199677117Y-113365653D01*
X199677109Y-113365644D01*
X199486955Y-113175490D01*
X199486951Y-113175487D01*
X199486949Y-113175485D01*
X199271655Y-113014319D01*
X199271652Y-113014317D01*
X199271645Y-113014312D01*
X199035626Y-112885436D01*
X199035616Y-112885431D01*
X198783639Y-112791449D01*
X198520846Y-112734282D01*
X198252600Y-112715097D01*
X197984353Y-112734282D01*
X197721560Y-112791449D01*
X197469583Y-112885431D01*
X197469573Y-112885436D01*
X197233554Y-113014312D01*
X197018244Y-113175490D01*
X196828090Y-113365644D01*
X196666912Y-113580954D01*
X196538036Y-113816973D01*
X196538031Y-113816983D01*
X196444049Y-114068960D01*
X196386882Y-114331753D01*
X196367697Y-114600000D01*
X196386882Y-114868246D01*
X196386883Y-114868250D01*
X196438626Y-115106112D01*
X196444049Y-115131038D01*
X196452408Y-115153450D01*
X196457471Y-115224266D01*
X196423445Y-115286577D01*
X196361132Y-115320601D01*
X196290316Y-115315535D01*
X196245256Y-115286575D01*
X185898881Y-104940200D01*
X205432144Y-104940200D01*
X205448146Y-105133317D01*
X205450737Y-105164575D01*
X205506002Y-105382812D01*
X205506003Y-105382813D01*
X205506004Y-105382816D01*
X205568893Y-105526189D01*
X205596441Y-105588993D01*
X205719575Y-105777465D01*
X205719579Y-105777470D01*
X205872062Y-105943108D01*
X205901221Y-105965803D01*
X206049724Y-106081389D01*
X206247726Y-106188542D01*
X206247727Y-106188542D01*
X206247728Y-106188543D01*
X206359527Y-106226923D01*
X206460665Y-106261644D01*
X206682731Y-106298700D01*
X206682735Y-106298700D01*
X206907865Y-106298700D01*
X206907869Y-106298700D01*
X207129935Y-106261644D01*
X207342874Y-106188542D01*
X207540876Y-106081389D01*
X207718540Y-105943106D01*
X207779545Y-105876837D01*
X207840396Y-105840267D01*
X207911361Y-105842400D01*
X207969906Y-105882562D01*
X207990300Y-105918141D01*
X208034411Y-106036404D01*
X208034412Y-106036407D01*
X208122038Y-106153461D01*
X208239092Y-106241087D01*
X208239094Y-106241088D01*
X208239096Y-106241089D01*
X208294200Y-106261642D01*
X208376095Y-106292188D01*
X208376103Y-106292190D01*
X208436650Y-106298699D01*
X208436655Y-106298699D01*
X208436662Y-106298700D01*
X208436668Y-106298700D01*
X210233932Y-106298700D01*
X210233938Y-106298700D01*
X210233945Y-106298699D01*
X210233949Y-106298699D01*
X210294496Y-106292190D01*
X210294499Y-106292189D01*
X210294501Y-106292189D01*
X210431504Y-106241089D01*
X210483736Y-106201989D01*
X210548561Y-106153461D01*
X210636187Y-106036407D01*
X210636187Y-106036406D01*
X210636189Y-106036404D01*
X210687289Y-105899401D01*
X210689100Y-105882562D01*
X210693799Y-105838849D01*
X210693800Y-105838832D01*
X210693800Y-104041567D01*
X210693799Y-104041550D01*
X210687290Y-103981003D01*
X210687288Y-103980995D01*
X210636189Y-103843997D01*
X210636187Y-103843992D01*
X210548561Y-103726938D01*
X210431507Y-103639312D01*
X210431502Y-103639310D01*
X210294504Y-103588211D01*
X210294496Y-103588209D01*
X210233949Y-103581700D01*
X210233938Y-103581700D01*
X208436662Y-103581700D01*
X208436650Y-103581700D01*
X208376103Y-103588209D01*
X208376095Y-103588211D01*
X208239097Y-103639310D01*
X208239092Y-103639312D01*
X208122038Y-103726938D01*
X208034412Y-103843992D01*
X208034411Y-103843995D01*
X207990300Y-103962258D01*
X207947753Y-104019093D01*
X207881232Y-104043903D01*
X207811858Y-104028811D01*
X207779546Y-104003563D01*
X207718540Y-103937294D01*
X207718539Y-103937293D01*
X207718537Y-103937291D01*
X207598672Y-103843996D01*
X207540876Y-103799011D01*
X207342874Y-103691858D01*
X207342872Y-103691857D01*
X207342871Y-103691856D01*
X207129939Y-103618757D01*
X207129930Y-103618755D01*
X207085776Y-103611387D01*
X206907869Y-103581700D01*
X206682731Y-103581700D01*
X206534511Y-103606433D01*
X206460669Y-103618755D01*
X206460660Y-103618757D01*
X206247728Y-103691856D01*
X206247726Y-103691858D01*
X206101102Y-103771207D01*
X206049726Y-103799010D01*
X206049724Y-103799011D01*
X205872062Y-103937291D01*
X205719579Y-104102929D01*
X205719578Y-104102932D01*
X205596441Y-104291406D01*
X205506003Y-104497586D01*
X205506002Y-104497587D01*
X205450737Y-104715824D01*
X205450736Y-104715830D01*
X205450736Y-104715832D01*
X205432144Y-104940200D01*
X185898881Y-104940200D01*
X185219519Y-104260838D01*
X185219515Y-104260834D01*
X185095284Y-104177826D01*
X185008239Y-104141770D01*
X184957250Y-104120650D01*
X184957247Y-104120649D01*
X184868178Y-104102932D01*
X184868176Y-104102931D01*
X184810709Y-104091500D01*
X184810706Y-104091500D01*
X184618500Y-104091500D01*
X184550379Y-104071498D01*
X184503886Y-104017842D01*
X184492500Y-103965500D01*
X184492500Y-103951367D01*
X184492499Y-103951350D01*
X184485990Y-103890803D01*
X184485988Y-103890795D01*
X184451753Y-103799010D01*
X184434889Y-103753796D01*
X184434888Y-103753794D01*
X184434887Y-103753792D01*
X184347261Y-103636738D01*
X184230207Y-103549112D01*
X184230202Y-103549110D01*
X184093204Y-103498011D01*
X184093196Y-103498009D01*
X184032649Y-103491500D01*
X184032638Y-103491500D01*
X184018500Y-103491500D01*
X183950379Y-103471498D01*
X183903886Y-103417842D01*
X183892500Y-103365500D01*
X183892500Y-103077226D01*
X183912502Y-103009105D01*
X183941106Y-102977797D01*
X184057240Y-102887406D01*
X184209722Y-102721768D01*
X184332860Y-102533291D01*
X184423296Y-102327116D01*
X184478564Y-102108868D01*
X184497156Y-101884500D01*
X184478564Y-101660132D01*
X184478562Y-101660124D01*
X184423297Y-101441887D01*
X184423296Y-101441886D01*
X184423296Y-101441884D01*
X184332860Y-101235709D01*
X184326140Y-101225424D01*
X184209724Y-101047234D01*
X184209714Y-101047222D01*
X184054934Y-100879089D01*
X184023512Y-100815425D01*
X184031498Y-100744879D01*
X184076357Y-100689849D01*
X184095475Y-100679053D01*
X186126690Y-99755486D01*
X186130555Y-99753807D01*
X186185684Y-99730974D01*
X186187980Y-99729439D01*
X186205832Y-99719502D01*
X186208357Y-99718355D01*
X186256878Y-99683485D01*
X186260261Y-99681141D01*
X186309916Y-99647965D01*
X186311869Y-99646012D01*
X186327449Y-99632774D01*
X186329690Y-99631165D01*
X186370435Y-99587545D01*
X186373329Y-99584550D01*
X186415565Y-99542316D01*
X186417100Y-99540017D01*
X186429799Y-99523995D01*
X186431682Y-99521981D01*
X186463119Y-99471273D01*
X186465434Y-99467680D01*
X186498571Y-99418088D01*
X186498574Y-99418084D01*
X186499630Y-99415533D01*
X186508959Y-99397341D01*
X186510414Y-99394995D01*
X186531371Y-99339086D01*
X186532894Y-99335224D01*
X186555751Y-99280046D01*
X186556288Y-99277343D01*
X186561891Y-99257672D01*
X186562859Y-99255092D01*
X186572506Y-99196172D01*
X186573246Y-99192090D01*
X186584900Y-99133506D01*
X186584900Y-99130732D01*
X186586556Y-99110371D01*
X186587003Y-99107643D01*
X186584973Y-99048042D01*
X186584900Y-99043752D01*
X186584900Y-91368597D01*
X189709600Y-91368597D01*
X189716105Y-91429093D01*
X189767155Y-91565964D01*
X189767155Y-91565965D01*
X189854695Y-91682904D01*
X189971634Y-91770444D01*
X190108506Y-91821494D01*
X190169002Y-91827999D01*
X190169015Y-91828000D01*
X190813600Y-91828000D01*
X190813600Y-90900702D01*
X190874607Y-90935925D01*
X191001774Y-90970000D01*
X191133426Y-90970000D01*
X191260593Y-90935925D01*
X191321600Y-90900702D01*
X191321600Y-91828000D01*
X191966185Y-91828000D01*
X191966197Y-91827999D01*
X192026693Y-91821494D01*
X192163564Y-91770444D01*
X192163565Y-91770444D01*
X192280504Y-91682904D01*
X192368044Y-91565965D01*
X192412218Y-91447530D01*
X192454765Y-91390694D01*
X192521285Y-91365883D01*
X192590659Y-91380974D01*
X192622972Y-91406222D01*
X192644027Y-91429093D01*
X192684362Y-91472908D01*
X192738931Y-91515381D01*
X192862024Y-91611189D01*
X193060026Y-91718342D01*
X193060027Y-91718342D01*
X193060028Y-91718343D01*
X193128657Y-91741903D01*
X193272965Y-91791444D01*
X193495031Y-91828500D01*
X193495035Y-91828500D01*
X193720165Y-91828500D01*
X193720169Y-91828500D01*
X193942235Y-91791444D01*
X194155174Y-91718342D01*
X194353176Y-91611189D01*
X194530840Y-91472906D01*
X194683322Y-91307268D01*
X194772118Y-91171354D01*
X194826120Y-91125268D01*
X194896468Y-91115692D01*
X194960825Y-91145669D01*
X194983080Y-91171353D01*
X195007480Y-91208699D01*
X195071875Y-91307265D01*
X195071879Y-91307270D01*
X195224362Y-91472908D01*
X195278931Y-91515381D01*
X195402024Y-91611189D01*
X195600026Y-91718342D01*
X195600027Y-91718342D01*
X195600028Y-91718343D01*
X195668657Y-91741903D01*
X195812965Y-91791444D01*
X196035031Y-91828500D01*
X196035035Y-91828500D01*
X196260165Y-91828500D01*
X196260169Y-91828500D01*
X196482235Y-91791444D01*
X196695174Y-91718342D01*
X196893176Y-91611189D01*
X197070840Y-91472906D01*
X197223322Y-91307268D01*
X197237490Y-91285583D01*
X197291495Y-91239495D01*
X197342972Y-91228500D01*
X197382629Y-91228500D01*
X197450750Y-91248502D01*
X197471724Y-91265405D01*
X202125485Y-95919166D01*
X202249716Y-96002174D01*
X202387753Y-96059351D01*
X202461022Y-96073924D01*
X202461023Y-96073925D01*
X202475598Y-96076824D01*
X202534294Y-96088500D01*
X202534295Y-96088500D01*
X202683705Y-96088500D01*
X205623500Y-96088500D01*
X205691621Y-96108502D01*
X205738114Y-96162158D01*
X205749500Y-96214500D01*
X205749500Y-96228649D01*
X205756009Y-96289196D01*
X205756011Y-96289204D01*
X205807110Y-96426202D01*
X205807112Y-96426207D01*
X205894738Y-96543261D01*
X206011791Y-96630886D01*
X206011792Y-96630886D01*
X206011796Y-96630889D01*
X206126810Y-96673787D01*
X206183642Y-96716332D01*
X206208453Y-96782852D01*
X206193362Y-96852226D01*
X206175475Y-96877179D01*
X206032280Y-97032729D01*
X206032275Y-97032734D01*
X205909141Y-97221206D01*
X205818703Y-97427386D01*
X205818702Y-97427387D01*
X205763437Y-97645624D01*
X205763436Y-97645630D01*
X205763436Y-97645632D01*
X205744844Y-97870000D01*
X205759900Y-98051700D01*
X205763437Y-98094375D01*
X205818702Y-98312612D01*
X205818703Y-98312613D01*
X205818704Y-98312616D01*
X205896218Y-98489331D01*
X205909141Y-98518793D01*
X206032275Y-98707265D01*
X206032279Y-98707270D01*
X206126726Y-98809865D01*
X206182483Y-98870433D01*
X206184762Y-98872908D01*
X206210452Y-98892903D01*
X206362424Y-99011189D01*
X206396205Y-99029470D01*
X206446596Y-99079482D01*
X206461949Y-99148799D01*
X206437389Y-99215412D01*
X206396209Y-99251096D01*
X206362704Y-99269228D01*
X206362698Y-99269232D01*
X206185097Y-99407465D01*
X206032674Y-99573041D01*
X205909580Y-99761451D01*
X205819179Y-99967543D01*
X205819176Y-99967550D01*
X205771455Y-100155999D01*
X205771456Y-100156000D01*
X206677297Y-100156000D01*
X206642075Y-100217007D01*
X206608000Y-100344174D01*
X206608000Y-100475826D01*
X206642075Y-100602993D01*
X206677297Y-100664000D01*
X205771455Y-100664000D01*
X205819176Y-100852449D01*
X205819179Y-100852456D01*
X205909580Y-101058548D01*
X206032674Y-101246958D01*
X206185097Y-101412534D01*
X206362698Y-101550767D01*
X206362699Y-101550768D01*
X206560628Y-101657882D01*
X206560630Y-101657883D01*
X206773483Y-101730955D01*
X206773492Y-101730957D01*
X206854000Y-101744391D01*
X206854000Y-100840702D01*
X206915007Y-100875925D01*
X207042174Y-100910000D01*
X207173826Y-100910000D01*
X207300993Y-100875925D01*
X207362000Y-100840702D01*
X207362000Y-101744390D01*
X207442507Y-101730957D01*
X207442516Y-101730955D01*
X207655369Y-101657883D01*
X207655371Y-101657882D01*
X207853300Y-101550768D01*
X207853301Y-101550767D01*
X208030902Y-101412534D01*
X208183325Y-101246958D01*
X208306419Y-101058548D01*
X208396820Y-100852456D01*
X208396823Y-100852449D01*
X208444544Y-100664000D01*
X207538703Y-100664000D01*
X207573925Y-100602993D01*
X207608000Y-100475826D01*
X207608000Y-100344174D01*
X207573925Y-100217007D01*
X207538703Y-100156000D01*
X208444544Y-100156000D01*
X208444544Y-100155999D01*
X208396823Y-99967550D01*
X208396820Y-99967543D01*
X208306419Y-99761451D01*
X208183325Y-99573041D01*
X208030902Y-99407465D01*
X207853301Y-99269232D01*
X207853300Y-99269231D01*
X207819791Y-99251097D01*
X207769401Y-99201083D01*
X207754050Y-99131766D01*
X207778612Y-99065153D01*
X207819790Y-99029472D01*
X207853576Y-99011189D01*
X208031240Y-98872906D01*
X208183722Y-98707268D01*
X208306860Y-98518791D01*
X208397296Y-98312616D01*
X208452564Y-98094368D01*
X208471156Y-97870000D01*
X208452564Y-97645632D01*
X208397296Y-97427384D01*
X208306860Y-97221209D01*
X208264273Y-97156024D01*
X208183724Y-97032734D01*
X208183719Y-97032729D01*
X208040524Y-96877179D01*
X208009103Y-96813514D01*
X208017090Y-96742968D01*
X208061948Y-96687939D01*
X208089183Y-96673789D01*
X208204204Y-96630889D01*
X208321261Y-96543261D01*
X208408889Y-96426204D01*
X208459989Y-96289201D01*
X208466500Y-96228638D01*
X208466500Y-94431362D01*
X208465591Y-94422906D01*
X208459990Y-94370803D01*
X208459988Y-94370795D01*
X208417644Y-94257270D01*
X208408889Y-94233796D01*
X208408888Y-94233794D01*
X208408887Y-94233792D01*
X208321261Y-94116738D01*
X208204207Y-94029112D01*
X208204202Y-94029110D01*
X208067204Y-93978011D01*
X208067196Y-93978009D01*
X208006649Y-93971500D01*
X208006638Y-93971500D01*
X206209362Y-93971500D01*
X206209350Y-93971500D01*
X206148803Y-93978009D01*
X206148795Y-93978011D01*
X206011797Y-94029110D01*
X206011792Y-94029112D01*
X205894738Y-94116738D01*
X205807112Y-94233792D01*
X205807110Y-94233797D01*
X205756011Y-94370795D01*
X205756009Y-94370803D01*
X205749500Y-94431350D01*
X205749500Y-94445500D01*
X205729498Y-94513621D01*
X205675842Y-94560114D01*
X205623500Y-94571500D01*
X202975371Y-94571500D01*
X202907250Y-94551498D01*
X202886276Y-94534595D01*
X199067881Y-90716200D01*
X205454155Y-90716200D01*
X205501876Y-90904649D01*
X205501879Y-90904656D01*
X205592280Y-91110748D01*
X205715374Y-91299158D01*
X205867797Y-91464734D01*
X206045398Y-91602967D01*
X206045399Y-91602968D01*
X206243328Y-91710082D01*
X206243330Y-91710083D01*
X206456183Y-91783155D01*
X206456192Y-91783157D01*
X206536700Y-91796591D01*
X206536700Y-90892902D01*
X206597707Y-90928125D01*
X206724874Y-90962200D01*
X206856526Y-90962200D01*
X206983693Y-90928125D01*
X207044700Y-90892902D01*
X207044700Y-91796590D01*
X207125207Y-91783157D01*
X207125216Y-91783155D01*
X207338069Y-91710083D01*
X207338071Y-91710082D01*
X207536000Y-91602968D01*
X207536001Y-91602967D01*
X207713602Y-91464734D01*
X207775126Y-91397900D01*
X207835979Y-91361328D01*
X207906943Y-91363461D01*
X207965489Y-91403622D01*
X207985885Y-91439203D01*
X208030256Y-91558166D01*
X208117795Y-91675104D01*
X208234734Y-91762644D01*
X208371606Y-91813694D01*
X208432102Y-91820199D01*
X208432115Y-91820200D01*
X209076700Y-91820200D01*
X209076700Y-90892902D01*
X209137707Y-90928125D01*
X209264874Y-90962200D01*
X209396526Y-90962200D01*
X209523693Y-90928125D01*
X209584700Y-90892902D01*
X209584700Y-91820200D01*
X210229285Y-91820200D01*
X210229297Y-91820199D01*
X210289793Y-91813694D01*
X210426664Y-91762644D01*
X210426665Y-91762644D01*
X210543604Y-91675104D01*
X210631144Y-91558165D01*
X210631144Y-91558164D01*
X210682194Y-91421293D01*
X210688699Y-91360797D01*
X210688700Y-91360785D01*
X210688700Y-90716200D01*
X209761403Y-90716200D01*
X209796625Y-90655193D01*
X209830700Y-90528026D01*
X209830700Y-90396374D01*
X209796625Y-90269207D01*
X209761403Y-90208200D01*
X210688700Y-90208200D01*
X210688700Y-89563614D01*
X210688699Y-89563602D01*
X210682194Y-89503106D01*
X210631144Y-89366235D01*
X210631144Y-89366234D01*
X210543604Y-89249295D01*
X210426665Y-89161755D01*
X210289793Y-89110705D01*
X210229297Y-89104200D01*
X209584700Y-89104200D01*
X209584700Y-90031497D01*
X209523693Y-89996275D01*
X209396526Y-89962200D01*
X209264874Y-89962200D01*
X209137707Y-89996275D01*
X209076700Y-90031497D01*
X209076700Y-89104200D01*
X208432102Y-89104200D01*
X208371606Y-89110705D01*
X208234735Y-89161755D01*
X208234734Y-89161755D01*
X208117795Y-89249295D01*
X208030255Y-89366234D01*
X208030253Y-89366239D01*
X207985884Y-89485196D01*
X207943337Y-89542032D01*
X207876817Y-89566842D01*
X207807443Y-89551750D01*
X207775127Y-89526500D01*
X207713602Y-89459665D01*
X207536001Y-89321432D01*
X207536000Y-89321431D01*
X207338071Y-89214317D01*
X207338069Y-89214316D01*
X207125212Y-89141243D01*
X207125201Y-89141240D01*
X207044700Y-89127806D01*
X207044700Y-90031497D01*
X206983693Y-89996275D01*
X206856526Y-89962200D01*
X206724874Y-89962200D01*
X206597707Y-89996275D01*
X206536700Y-90031497D01*
X206536700Y-89127807D01*
X206536699Y-89127806D01*
X206456198Y-89141240D01*
X206456187Y-89141243D01*
X206243330Y-89214316D01*
X206243328Y-89214317D01*
X206045399Y-89321431D01*
X206045398Y-89321432D01*
X205867797Y-89459665D01*
X205715374Y-89625241D01*
X205592280Y-89813651D01*
X205501879Y-90019743D01*
X205501876Y-90019750D01*
X205454155Y-90208199D01*
X205454156Y-90208200D01*
X206359997Y-90208200D01*
X206324775Y-90269207D01*
X206290700Y-90396374D01*
X206290700Y-90528026D01*
X206324775Y-90655193D01*
X206359997Y-90716200D01*
X205454155Y-90716200D01*
X199067881Y-90716200D01*
X198232519Y-89880838D01*
X198232515Y-89880834D01*
X198108284Y-89797826D01*
X197970247Y-89740649D01*
X197896976Y-89726074D01*
X197896975Y-89726073D01*
X197823711Y-89711500D01*
X197823706Y-89711500D01*
X197342972Y-89711500D01*
X197274851Y-89691498D01*
X197237490Y-89654417D01*
X197232104Y-89646175D01*
X197223322Y-89632732D01*
X197070840Y-89467094D01*
X197070839Y-89467093D01*
X197070837Y-89467091D01*
X196951279Y-89374035D01*
X196893176Y-89328811D01*
X196695174Y-89221658D01*
X196695172Y-89221657D01*
X196695171Y-89221656D01*
X196482239Y-89148557D01*
X196482230Y-89148555D01*
X196438076Y-89141187D01*
X196260169Y-89111500D01*
X196035031Y-89111500D01*
X195886811Y-89136233D01*
X195812969Y-89148555D01*
X195812960Y-89148557D01*
X195600028Y-89221656D01*
X195600026Y-89221658D01*
X195437008Y-89309879D01*
X195402026Y-89328810D01*
X195402024Y-89328811D01*
X195224362Y-89467091D01*
X195071879Y-89632729D01*
X194983083Y-89768643D01*
X194929079Y-89814731D01*
X194858731Y-89824306D01*
X194794374Y-89794329D01*
X194772117Y-89768643D01*
X194683320Y-89632729D01*
X194543815Y-89481189D01*
X194530840Y-89467094D01*
X194530839Y-89467093D01*
X194530837Y-89467091D01*
X194411279Y-89374035D01*
X194353176Y-89328811D01*
X194155174Y-89221658D01*
X194155172Y-89221657D01*
X194155171Y-89221656D01*
X193942239Y-89148557D01*
X193942230Y-89148555D01*
X193898076Y-89141187D01*
X193720169Y-89111500D01*
X193495031Y-89111500D01*
X193346811Y-89136233D01*
X193272969Y-89148555D01*
X193272960Y-89148557D01*
X193060028Y-89221656D01*
X193060026Y-89221658D01*
X192897008Y-89309879D01*
X192862026Y-89328810D01*
X192862024Y-89328811D01*
X192684359Y-89467094D01*
X192622974Y-89533775D01*
X192562121Y-89570346D01*
X192491157Y-89568211D01*
X192432612Y-89528049D01*
X192412218Y-89492470D01*
X192368043Y-89374033D01*
X192280504Y-89257095D01*
X192163565Y-89169555D01*
X192026693Y-89118505D01*
X191966197Y-89112000D01*
X191321600Y-89112000D01*
X191321600Y-90039297D01*
X191260593Y-90004075D01*
X191133426Y-89970000D01*
X191001774Y-89970000D01*
X190874607Y-90004075D01*
X190813600Y-90039297D01*
X190813600Y-89112000D01*
X190169002Y-89112000D01*
X190108506Y-89118505D01*
X189971635Y-89169555D01*
X189971634Y-89169555D01*
X189854695Y-89257095D01*
X189767155Y-89374034D01*
X189767155Y-89374035D01*
X189716105Y-89510906D01*
X189709600Y-89571402D01*
X189709600Y-90216000D01*
X190636897Y-90216000D01*
X190601675Y-90277007D01*
X190567600Y-90404174D01*
X190567600Y-90535826D01*
X190601675Y-90662993D01*
X190636897Y-90724000D01*
X189709600Y-90724000D01*
X189709600Y-91368597D01*
X186584900Y-91368597D01*
X186584900Y-75424530D01*
X186585377Y-75413574D01*
X186588523Y-75377533D01*
X186585652Y-75351366D01*
X186584900Y-75337624D01*
X186584900Y-75311298D01*
X186584900Y-75311294D01*
X186577839Y-75275802D01*
X186576174Y-75264988D01*
X186572227Y-75229012D01*
X186564302Y-75203896D01*
X186560886Y-75190572D01*
X186555751Y-75164754D01*
X186541905Y-75131327D01*
X186538154Y-75121022D01*
X186527270Y-75086527D01*
X186524838Y-75080836D01*
X186527019Y-75079903D01*
X186514022Y-75020871D01*
X186538664Y-74954288D01*
X186595392Y-74911598D01*
X186666195Y-74906354D01*
X186711993Y-74926328D01*
X186753723Y-74955547D01*
X186829678Y-75008731D01*
X187043242Y-75108318D01*
X187129114Y-75131327D01*
X187253866Y-75164754D01*
X187270855Y-75169306D01*
X187505600Y-75189844D01*
X187740345Y-75169306D01*
X187967958Y-75108318D01*
X188181522Y-75008731D01*
X188205314Y-74992072D01*
X188374544Y-74873577D01*
X188374546Y-74873574D01*
X188374549Y-74873573D01*
X188541173Y-74706949D01*
X188660856Y-74536022D01*
X188716310Y-74491696D01*
X188786929Y-74484387D01*
X188850290Y-74516417D01*
X188882791Y-74566099D01*
X188909075Y-74640054D01*
X188909076Y-74640057D01*
X188909077Y-74640058D01*
X189030076Y-74873577D01*
X189035492Y-74884028D01*
X189064318Y-74924865D01*
X189193943Y-75108502D01*
X189381489Y-75309314D01*
X189594631Y-75482718D01*
X189829400Y-75625484D01*
X189829402Y-75625485D01*
X189913407Y-75661973D01*
X190081423Y-75734953D01*
X190346004Y-75809085D01*
X190441104Y-75822156D01*
X190618204Y-75846499D01*
X190618215Y-75846500D01*
X190892985Y-75846500D01*
X190892995Y-75846499D01*
X191022545Y-75828692D01*
X191165196Y-75809085D01*
X191429777Y-75734953D01*
X191681800Y-75625484D01*
X191916569Y-75482718D01*
X192129711Y-75309314D01*
X192317257Y-75108502D01*
X192475711Y-74884023D01*
X192602123Y-74640058D01*
X192694138Y-74381153D01*
X192750042Y-74112130D01*
X192753532Y-74061115D01*
X192768793Y-73838004D01*
X192768793Y-73837995D01*
X192750043Y-73563883D01*
X192750042Y-73563877D01*
X192750042Y-73563870D01*
X192694138Y-73294847D01*
X192602123Y-73035942D01*
X192475711Y-72791977D01*
X192317257Y-72567498D01*
X192129711Y-72366686D01*
X191916569Y-72193282D01*
X191681800Y-72050516D01*
X191681801Y-72050516D01*
X191681797Y-72050514D01*
X191429780Y-71941048D01*
X191429778Y-71941047D01*
X191429777Y-71941047D01*
X191297486Y-71903981D01*
X191165193Y-71866914D01*
X190892995Y-71829500D01*
X190892985Y-71829500D01*
X190618215Y-71829500D01*
X190618204Y-71829500D01*
X190346006Y-71866914D01*
X190081419Y-71941048D01*
X189829402Y-72050514D01*
X189594628Y-72193284D01*
X189381486Y-72366688D01*
X189193943Y-72567498D01*
X189035492Y-72791971D01*
X188909075Y-73035945D01*
X188882791Y-73109900D01*
X188841131Y-73167389D01*
X188775004Y-73193228D01*
X188705404Y-73179215D01*
X188660854Y-73139975D01*
X188541173Y-72969051D01*
X188541170Y-72969048D01*
X188541168Y-72969045D01*
X188374554Y-72802431D01*
X188374544Y-72802422D01*
X188181525Y-72667270D01*
X188181526Y-72667270D01*
X187967960Y-72567683D01*
X187967956Y-72567681D01*
X187740348Y-72506694D01*
X187505600Y-72486156D01*
X187270851Y-72506694D01*
X187043243Y-72567681D01*
X187043239Y-72567683D01*
X186829674Y-72667270D01*
X186636655Y-72802422D01*
X186636645Y-72802431D01*
X186470031Y-72969045D01*
X186470022Y-72969055D01*
X186334870Y-73162074D01*
X186235283Y-73375639D01*
X186235281Y-73375643D01*
X186174294Y-73603251D01*
X186153756Y-73838000D01*
X186174294Y-74072748D01*
X186235281Y-74300356D01*
X186235285Y-74300365D01*
X186243396Y-74317759D01*
X186254058Y-74387950D01*
X186225079Y-74452763D01*
X186165660Y-74491620D01*
X186094665Y-74492184D01*
X186034636Y-74454276D01*
X186032697Y-74452021D01*
X185849425Y-74233696D01*
X185820947Y-74168661D01*
X185824224Y-74120072D01*
X185836906Y-74072745D01*
X185857444Y-73838000D01*
X185836906Y-73603255D01*
X185775918Y-73375642D01*
X185676331Y-73162078D01*
X185676330Y-73162077D01*
X185676329Y-73162074D01*
X185541177Y-72969055D01*
X185541168Y-72969045D01*
X185374554Y-72802431D01*
X185374544Y-72802422D01*
X185181525Y-72667270D01*
X185181526Y-72667270D01*
X184967960Y-72567683D01*
X184967956Y-72567681D01*
X184740348Y-72506694D01*
X184505600Y-72486156D01*
X184270851Y-72506694D01*
X184043243Y-72567681D01*
X184043239Y-72567683D01*
X183829674Y-72667270D01*
X183636655Y-72802422D01*
X183636645Y-72802431D01*
X183470031Y-72969045D01*
X183470022Y-72969055D01*
X183334870Y-73162074D01*
X183235283Y-73375639D01*
X183235281Y-73375643D01*
X183174294Y-73603251D01*
X183153756Y-73838000D01*
X183174294Y-74072748D01*
X183235281Y-74300356D01*
X183235283Y-74300360D01*
X183334870Y-74513925D01*
X183470022Y-74706944D01*
X183470031Y-74706954D01*
X183636645Y-74873568D01*
X183636655Y-74873577D01*
X183829674Y-75008729D01*
X183829673Y-75008729D01*
X183905596Y-75044132D01*
X184043242Y-75108318D01*
X184129114Y-75131327D01*
X184253866Y-75164754D01*
X184270855Y-75169306D01*
X184505600Y-75189844D01*
X184587286Y-75182696D01*
X184594746Y-75182044D01*
X184664351Y-75196032D01*
X184702234Y-75226553D01*
X185038405Y-75627022D01*
X185066883Y-75692056D01*
X185067900Y-75708032D01*
X185067900Y-98489331D01*
X185047898Y-98557452D01*
X184994242Y-98603945D01*
X184994053Y-98604031D01*
X182833722Y-99586305D01*
X182829789Y-99588013D01*
X182774712Y-99610827D01*
X182774711Y-99610828D01*
X182772405Y-99612369D01*
X182754584Y-99622289D01*
X182752044Y-99623444D01*
X182703580Y-99658269D01*
X182700057Y-99660711D01*
X182650478Y-99693838D01*
X182648514Y-99695803D01*
X182632962Y-99709016D01*
X182630714Y-99710631D01*
X182630711Y-99710633D01*
X182589995Y-99754220D01*
X182587016Y-99757301D01*
X182544842Y-99799475D01*
X182544828Y-99799491D01*
X182543289Y-99801796D01*
X182530619Y-99817783D01*
X182528723Y-99819812D01*
X182528714Y-99819824D01*
X182497296Y-99870497D01*
X182494977Y-99874099D01*
X182461825Y-99923717D01*
X182460762Y-99926284D01*
X182451447Y-99944447D01*
X182449988Y-99946799D01*
X182429045Y-100002665D01*
X182427472Y-100006651D01*
X182404648Y-100061753D01*
X182404107Y-100064476D01*
X182398515Y-100084108D01*
X182397542Y-100086703D01*
X182397541Y-100086706D01*
X182387901Y-100145572D01*
X182387136Y-100149787D01*
X182375501Y-100208284D01*
X182375500Y-100208296D01*
X182375500Y-100211068D01*
X182373844Y-100231426D01*
X182373397Y-100234151D01*
X182373396Y-100234164D01*
X182375427Y-100293756D01*
X182375500Y-100298046D01*
X182375500Y-100691773D01*
X182355498Y-100759894D01*
X182326891Y-100791204D01*
X182210765Y-100881589D01*
X182210760Y-100881594D01*
X182058279Y-101047229D01*
X182058275Y-101047234D01*
X181935141Y-101235706D01*
X181844703Y-101441886D01*
X181844702Y-101441887D01*
X181789437Y-101660124D01*
X181789436Y-101660130D01*
X181789436Y-101660132D01*
X181770844Y-101884500D01*
X174408431Y-101884500D01*
X181874696Y-94418396D01*
X181937007Y-94384373D01*
X182007823Y-94389439D01*
X182056487Y-94422154D01*
X182115103Y-94485827D01*
X182140231Y-94513123D01*
X182140871Y-94513621D01*
X182317893Y-94651404D01*
X182515895Y-94758557D01*
X182515896Y-94758557D01*
X182515897Y-94758558D01*
X182573987Y-94778500D01*
X182728834Y-94831659D01*
X182950900Y-94868715D01*
X182950904Y-94868715D01*
X183176034Y-94868715D01*
X183176038Y-94868715D01*
X183398104Y-94831659D01*
X183611043Y-94758557D01*
X183809045Y-94651404D01*
X183986709Y-94513121D01*
X184139191Y-94347483D01*
X184144426Y-94339471D01*
X184149256Y-94332078D01*
X184262329Y-94159006D01*
X184352765Y-93952831D01*
X184408033Y-93734583D01*
X184426625Y-93510215D01*
X184408033Y-93285847D01*
X184408031Y-93285839D01*
X184352766Y-93067602D01*
X184352765Y-93067601D01*
X184352765Y-93067599D01*
X184262329Y-92861424D01*
X184203387Y-92771206D01*
X184139193Y-92672949D01*
X184139189Y-92672944D01*
X183986706Y-92507306D01*
X183853465Y-92403600D01*
X183809045Y-92369026D01*
X183611043Y-92261873D01*
X183611041Y-92261872D01*
X183611040Y-92261871D01*
X183398108Y-92188772D01*
X183398099Y-92188770D01*
X183353945Y-92181402D01*
X183176038Y-92151715D01*
X182950900Y-92151715D01*
X182802680Y-92176448D01*
X182728838Y-92188770D01*
X182728829Y-92188772D01*
X182515897Y-92261871D01*
X182515895Y-92261873D01*
X182317895Y-92369025D01*
X182317893Y-92369026D01*
X182140231Y-92507306D01*
X181987748Y-92672944D01*
X181888077Y-92825503D01*
X181834073Y-92871591D01*
X181807177Y-92880166D01*
X181763212Y-92888911D01*
X181739405Y-92893647D01*
X181702215Y-92901044D01*
X181628889Y-92931416D01*
X181591055Y-92947087D01*
X181588399Y-92948078D01*
X181586928Y-92948797D01*
X181586879Y-92948830D01*
X181552855Y-92971565D01*
X181552854Y-92971565D01*
X181552853Y-92971566D01*
X181483176Y-93018121D01*
X181483167Y-93018128D01*
X172531505Y-101969596D01*
X172469193Y-102003621D01*
X172442411Y-102006500D01*
X170496587Y-102006500D01*
X170438032Y-101992067D01*
X170401087Y-101972677D01*
X170401079Y-101972673D01*
X170234031Y-101931500D01*
X170234028Y-101931500D01*
X170061972Y-101931500D01*
X170061968Y-101931500D01*
X169894920Y-101972673D01*
X169894912Y-101972677D01*
X169742573Y-102052630D01*
X169742568Y-102052634D01*
X169613785Y-102166727D01*
X169516045Y-102308326D01*
X169455034Y-102469200D01*
X169434296Y-102639996D01*
X169434296Y-102640003D01*
X162955500Y-102640003D01*
X162955500Y-95074507D01*
X162955499Y-95074503D01*
X162931155Y-94952115D01*
X162931151Y-94952105D01*
X162896612Y-94868718D01*
X162883399Y-94836822D01*
X162879948Y-94831657D01*
X162814069Y-94733064D01*
X159402366Y-91321397D01*
X181674400Y-91321397D01*
X181680905Y-91381893D01*
X181731955Y-91518764D01*
X181731955Y-91518765D01*
X181819495Y-91635704D01*
X181936434Y-91723244D01*
X182073306Y-91774294D01*
X182133802Y-91780799D01*
X182133815Y-91780800D01*
X182778400Y-91780800D01*
X182778400Y-90853502D01*
X182839407Y-90888725D01*
X182966574Y-90922800D01*
X183098226Y-90922800D01*
X183225393Y-90888725D01*
X183286400Y-90853502D01*
X183286400Y-91780800D01*
X183930985Y-91780800D01*
X183930997Y-91780799D01*
X183991493Y-91774294D01*
X184128364Y-91723244D01*
X184128365Y-91723244D01*
X184245304Y-91635704D01*
X184332844Y-91518765D01*
X184332844Y-91518764D01*
X184383894Y-91381893D01*
X184390399Y-91321397D01*
X184390400Y-91321385D01*
X184390400Y-90676800D01*
X183463103Y-90676800D01*
X183498325Y-90615793D01*
X183532400Y-90488626D01*
X183532400Y-90356974D01*
X183498325Y-90229807D01*
X183463103Y-90168800D01*
X184390400Y-90168800D01*
X184390400Y-89524214D01*
X184390399Y-89524202D01*
X184383894Y-89463706D01*
X184332844Y-89326835D01*
X184332844Y-89326834D01*
X184245304Y-89209895D01*
X184128365Y-89122355D01*
X183991493Y-89071305D01*
X183930997Y-89064800D01*
X183286400Y-89064800D01*
X183286400Y-89992097D01*
X183225393Y-89956875D01*
X183098226Y-89922800D01*
X182966574Y-89922800D01*
X182839407Y-89956875D01*
X182778400Y-89992097D01*
X182778400Y-89064800D01*
X182133802Y-89064800D01*
X182073306Y-89071305D01*
X181936435Y-89122355D01*
X181936434Y-89122355D01*
X181819495Y-89209895D01*
X181731955Y-89326834D01*
X181731955Y-89326835D01*
X181680905Y-89463706D01*
X181674400Y-89524202D01*
X181674400Y-90168800D01*
X182601697Y-90168800D01*
X182566475Y-90229807D01*
X182532400Y-90356974D01*
X182532400Y-90488626D01*
X182566475Y-90615793D01*
X182601697Y-90676800D01*
X181674400Y-90676800D01*
X181674400Y-91321397D01*
X159402366Y-91321397D01*
X154334548Y-86253633D01*
X154300524Y-86191323D01*
X154301499Y-86133609D01*
X154329164Y-86024368D01*
X154347756Y-85800000D01*
X154329164Y-85575632D01*
X154273896Y-85357384D01*
X154183460Y-85151209D01*
X154083210Y-84997764D01*
X154060324Y-84962734D01*
X154060320Y-84962729D01*
X153907837Y-84797091D01*
X153825982Y-84733381D01*
X153730176Y-84658811D01*
X153532174Y-84551658D01*
X153532172Y-84551657D01*
X153532171Y-84551656D01*
X153319239Y-84478557D01*
X153319230Y-84478555D01*
X153275076Y-84471187D01*
X153097169Y-84441500D01*
X152872031Y-84441500D01*
X152723811Y-84466233D01*
X152649969Y-84478555D01*
X152649960Y-84478557D01*
X152437028Y-84551656D01*
X152437026Y-84551658D01*
X152239026Y-84658810D01*
X152239024Y-84658811D01*
X152061362Y-84797091D01*
X151908879Y-84962729D01*
X151908875Y-84962734D01*
X151785741Y-85151206D01*
X151695303Y-85357386D01*
X151695302Y-85357387D01*
X151640037Y-85575624D01*
X151640036Y-85575630D01*
X151640036Y-85575632D01*
X151621444Y-85800000D01*
X151625272Y-85846202D01*
X151640037Y-86024375D01*
X151695302Y-86242612D01*
X151695303Y-86242613D01*
X151695304Y-86242616D01*
X151785740Y-86448791D01*
X151785741Y-86448793D01*
X151908875Y-86637265D01*
X151908879Y-86637270D01*
X152061362Y-86802908D01*
X152115931Y-86845381D01*
X152239024Y-86941189D01*
X152272280Y-86959186D01*
X152322671Y-87009200D01*
X152338023Y-87078516D01*
X152313462Y-87145129D01*
X152272280Y-87180814D01*
X152239026Y-87198810D01*
X152239024Y-87198811D01*
X152061362Y-87337091D01*
X151908879Y-87502729D01*
X151908875Y-87502734D01*
X151785741Y-87691206D01*
X151695303Y-87897386D01*
X151695302Y-87897387D01*
X151640037Y-88115624D01*
X151640036Y-88115630D01*
X151640036Y-88115632D01*
X151621444Y-88340000D01*
X151631846Y-88465537D01*
X151638871Y-88550307D01*
X151624562Y-88619847D01*
X151602380Y-88649824D01*
X150882733Y-89369206D01*
X150882503Y-89369415D01*
X150824404Y-89427514D01*
X150772889Y-89479010D01*
X150772856Y-89479051D01*
X150731027Y-89541652D01*
X150731016Y-89541669D01*
X150691033Y-89601485D01*
X150689881Y-89603209D01*
X150689826Y-89603312D01*
X150661011Y-89672881D01*
X150661002Y-89672904D01*
X150632684Y-89741232D01*
X150632653Y-89741336D01*
X150632649Y-89741352D01*
X150632649Y-89741354D01*
X150621416Y-89797826D01*
X150617841Y-89815798D01*
X150617836Y-89815819D01*
X150603500Y-89887821D01*
X150603500Y-89962483D01*
X150603485Y-90043218D01*
X150603500Y-90043521D01*
X150603500Y-108572500D01*
X150583498Y-108640621D01*
X150529842Y-108687114D01*
X150477500Y-108698500D01*
X135782918Y-108698500D01*
X135782815Y-108698495D01*
X135776651Y-108698495D01*
X135776650Y-108698495D01*
X135701945Y-108698500D01*
X135627263Y-108698500D01*
X135552120Y-108713452D01*
X135552114Y-108713453D01*
X135480727Y-108727654D01*
X135410206Y-108756870D01*
X135410200Y-108756872D01*
X135342689Y-108784836D01*
X135291763Y-108818869D01*
X135278170Y-108827954D01*
X135218461Y-108867850D01*
X135162898Y-108923420D01*
X135109199Y-108977119D01*
X135109123Y-108977201D01*
X129059748Y-115027447D01*
X128997438Y-115061477D01*
X128949909Y-115062640D01*
X128922641Y-115058090D01*
X128865169Y-115048500D01*
X128640031Y-115048500D01*
X128491811Y-115073233D01*
X128417969Y-115085555D01*
X128417960Y-115085557D01*
X128205028Y-115158656D01*
X128205026Y-115158658D01*
X128009850Y-115264282D01*
X128007026Y-115265810D01*
X128007024Y-115265811D01*
X127829362Y-115404091D01*
X127676879Y-115569729D01*
X127588083Y-115705643D01*
X127534079Y-115751731D01*
X127463731Y-115761306D01*
X127399374Y-115731329D01*
X127377117Y-115705643D01*
X127288320Y-115569729D01*
X127163286Y-115433908D01*
X127135840Y-115404094D01*
X127135839Y-115404093D01*
X127135837Y-115404091D01*
X127026515Y-115319002D01*
X126958176Y-115265811D01*
X126860193Y-115212785D01*
X126809804Y-115162774D01*
X126794452Y-115093457D01*
X126819013Y-115026844D01*
X126831066Y-115012880D01*
X142220934Y-99623444D01*
X142951496Y-98892903D01*
X143013809Y-98858879D01*
X143040590Y-98856000D01*
X145961413Y-98856000D01*
X146019968Y-98870433D01*
X146024684Y-98872908D01*
X146056917Y-98889825D01*
X146056918Y-98889825D01*
X146056920Y-98889826D01*
X146215394Y-98928885D01*
X146223972Y-98931000D01*
X146223975Y-98931000D01*
X146396025Y-98931000D01*
X146396028Y-98931000D01*
X146563083Y-98889825D01*
X146715430Y-98809867D01*
X146844215Y-98695773D01*
X146941954Y-98554175D01*
X147002965Y-98393301D01*
X147023704Y-98222500D01*
X147002965Y-98051699D01*
X146941954Y-97890825D01*
X146844215Y-97749227D01*
X146715430Y-97635133D01*
X146715429Y-97635132D01*
X146715426Y-97635130D01*
X146563087Y-97555177D01*
X146563079Y-97555173D01*
X146396031Y-97514000D01*
X146396028Y-97514000D01*
X146223972Y-97514000D01*
X146223968Y-97514000D01*
X146056920Y-97555173D01*
X146056912Y-97555177D01*
X146019968Y-97574567D01*
X145961413Y-97589000D01*
X143691175Y-97589000D01*
X143623054Y-97568998D01*
X143576561Y-97515342D01*
X143566457Y-97445068D01*
X143595951Y-97380488D01*
X143602080Y-97373904D01*
X148535500Y-92440504D01*
X148597812Y-92406479D01*
X148624595Y-92403600D01*
X148941413Y-92403600D01*
X148999968Y-92418033D01*
X149018474Y-92427745D01*
X149036917Y-92437425D01*
X149036918Y-92437425D01*
X149036920Y-92437426D01*
X149195394Y-92476485D01*
X149203972Y-92478600D01*
X149203975Y-92478600D01*
X149376025Y-92478600D01*
X149376028Y-92478600D01*
X149543083Y-92437425D01*
X149695430Y-92357467D01*
X149824215Y-92243373D01*
X149921954Y-92101775D01*
X149982965Y-91940901D01*
X149998411Y-91813694D01*
X150003704Y-91770103D01*
X150003704Y-91770096D01*
X149982965Y-91599300D01*
X149970323Y-91565964D01*
X149921954Y-91438425D01*
X149824215Y-91296827D01*
X149695430Y-91182733D01*
X149695429Y-91182732D01*
X149695426Y-91182730D01*
X149543087Y-91102777D01*
X149543079Y-91102773D01*
X149376031Y-91061600D01*
X149376028Y-91061600D01*
X149203972Y-91061600D01*
X149203968Y-91061600D01*
X149036920Y-91102773D01*
X149036912Y-91102777D01*
X148999968Y-91122167D01*
X148941413Y-91136600D01*
X148247603Y-91136600D01*
X148125215Y-91160945D01*
X148125213Y-91160946D01*
X148057680Y-91188917D01*
X148057680Y-91188918D01*
X148009926Y-91208699D01*
X147906169Y-91278027D01*
X147906167Y-91278028D01*
X124130715Y-115053382D01*
X124068403Y-115087407D01*
X124010689Y-115086430D01*
X124007244Y-115085557D01*
X123911935Y-115069653D01*
X123785169Y-115048500D01*
X123560031Y-115048500D01*
X123411811Y-115073233D01*
X123337969Y-115085555D01*
X123337960Y-115085557D01*
X123125028Y-115158656D01*
X123125026Y-115158658D01*
X122929850Y-115264282D01*
X122927026Y-115265810D01*
X122927024Y-115265811D01*
X122749362Y-115404091D01*
X122596879Y-115569729D01*
X122508083Y-115705643D01*
X122454079Y-115751731D01*
X122383731Y-115761306D01*
X122319374Y-115731329D01*
X122297117Y-115705643D01*
X122208320Y-115569729D01*
X122083286Y-115433908D01*
X122055840Y-115404094D01*
X122055839Y-115404093D01*
X122055837Y-115404091D01*
X121946515Y-115319002D01*
X121878176Y-115265811D01*
X121680174Y-115158658D01*
X121680172Y-115158657D01*
X121680171Y-115158656D01*
X121467239Y-115085557D01*
X121467230Y-115085555D01*
X121423076Y-115078187D01*
X121245169Y-115048500D01*
X121020031Y-115048500D01*
X120871811Y-115073233D01*
X120797969Y-115085555D01*
X120797960Y-115085557D01*
X120585028Y-115158656D01*
X120585026Y-115158658D01*
X120389850Y-115264282D01*
X120387026Y-115265810D01*
X120387024Y-115265811D01*
X120209362Y-115404091D01*
X120056879Y-115569729D01*
X119968083Y-115705643D01*
X119914079Y-115751731D01*
X119843731Y-115761306D01*
X119779374Y-115731329D01*
X119757117Y-115705643D01*
X119668320Y-115569729D01*
X119543286Y-115433908D01*
X119515840Y-115404094D01*
X119515839Y-115404093D01*
X119515837Y-115404091D01*
X119406515Y-115319002D01*
X119338176Y-115265811D01*
X119140174Y-115158658D01*
X119140172Y-115158657D01*
X119140171Y-115158656D01*
X118927239Y-115085557D01*
X118927230Y-115085555D01*
X118883076Y-115078187D01*
X118705169Y-115048500D01*
X118480031Y-115048500D01*
X118331811Y-115073233D01*
X118257969Y-115085555D01*
X118257960Y-115085557D01*
X118045028Y-115158656D01*
X118045026Y-115158658D01*
X117849850Y-115264282D01*
X117847026Y-115265810D01*
X117847024Y-115265811D01*
X117669362Y-115404091D01*
X117516879Y-115569729D01*
X117428083Y-115705643D01*
X117374079Y-115751731D01*
X117303731Y-115761306D01*
X117239374Y-115731329D01*
X117217117Y-115705643D01*
X117128320Y-115569729D01*
X117003286Y-115433908D01*
X116975840Y-115404094D01*
X116975839Y-115404093D01*
X116975837Y-115404091D01*
X116866515Y-115319002D01*
X116798176Y-115265811D01*
X116600174Y-115158658D01*
X116600172Y-115158657D01*
X116600171Y-115158656D01*
X116387239Y-115085557D01*
X116387230Y-115085555D01*
X116343076Y-115078187D01*
X116165169Y-115048500D01*
X115940031Y-115048500D01*
X115791811Y-115073233D01*
X115717969Y-115085555D01*
X115717960Y-115085557D01*
X115505028Y-115158656D01*
X115505026Y-115158658D01*
X115309850Y-115264282D01*
X115307026Y-115265810D01*
X115307024Y-115265811D01*
X115129362Y-115404091D01*
X114976879Y-115569729D01*
X114888083Y-115705643D01*
X114834079Y-115751731D01*
X114763731Y-115761306D01*
X114699374Y-115731329D01*
X114677117Y-115705643D01*
X114588320Y-115569729D01*
X114463286Y-115433908D01*
X114435840Y-115404094D01*
X114435839Y-115404093D01*
X114435837Y-115404091D01*
X114326515Y-115319002D01*
X114258176Y-115265811D01*
X114060174Y-115158658D01*
X114060172Y-115158657D01*
X114060171Y-115158656D01*
X113847239Y-115085557D01*
X113847230Y-115085555D01*
X113803076Y-115078187D01*
X113625169Y-115048500D01*
X113400031Y-115048500D01*
X113251811Y-115073233D01*
X113177969Y-115085555D01*
X113177960Y-115085557D01*
X112965028Y-115158656D01*
X112965026Y-115158658D01*
X112769850Y-115264282D01*
X112767026Y-115265810D01*
X112767024Y-115265811D01*
X112589362Y-115404091D01*
X112436879Y-115569729D01*
X112348083Y-115705643D01*
X112294079Y-115751731D01*
X112223731Y-115761306D01*
X112159374Y-115731329D01*
X112137117Y-115705643D01*
X112048320Y-115569729D01*
X111923286Y-115433908D01*
X111895840Y-115404094D01*
X111895839Y-115404093D01*
X111895837Y-115404091D01*
X111786515Y-115319002D01*
X111718176Y-115265811D01*
X111520174Y-115158658D01*
X111520172Y-115158657D01*
X111520171Y-115158656D01*
X111307239Y-115085557D01*
X111307230Y-115085555D01*
X111263076Y-115078187D01*
X111085169Y-115048500D01*
X110860031Y-115048500D01*
X110711811Y-115073233D01*
X110637969Y-115085555D01*
X110637960Y-115085557D01*
X110425028Y-115158656D01*
X110425026Y-115158658D01*
X110229850Y-115264282D01*
X110227026Y-115265810D01*
X110227024Y-115265811D01*
X110049362Y-115404091D01*
X109896879Y-115569729D01*
X109808083Y-115705643D01*
X109754079Y-115751731D01*
X109683731Y-115761306D01*
X109619374Y-115731329D01*
X109597117Y-115705643D01*
X109508320Y-115569729D01*
X109383286Y-115433908D01*
X109355840Y-115404094D01*
X109355839Y-115404093D01*
X109355837Y-115404091D01*
X109246515Y-115319002D01*
X109178176Y-115265811D01*
X108980174Y-115158658D01*
X108980172Y-115158657D01*
X108980171Y-115158656D01*
X108767239Y-115085557D01*
X108767232Y-115085555D01*
X108658909Y-115067479D01*
X108597225Y-115057186D01*
X108533327Y-115026245D01*
X108496299Y-114965669D01*
X108497900Y-114894690D01*
X108528868Y-114843812D01*
X140557276Y-82815405D01*
X140619588Y-82781379D01*
X140646371Y-82778500D01*
X173323981Y-82778500D01*
X173398687Y-82778502D01*
X173398697Y-82778500D01*
X173398706Y-82778500D01*
X173467776Y-82764759D01*
X173475429Y-82763238D01*
X173475429Y-82763237D01*
X173539287Y-82750537D01*
X173542374Y-82750077D01*
X173545006Y-82749485D01*
X173547339Y-82748567D01*
X173550054Y-82747552D01*
X173552577Y-82746314D01*
X173627772Y-82715167D01*
X173680796Y-82693205D01*
X173683484Y-82692160D01*
X173684941Y-82691244D01*
X173687726Y-82689205D01*
X173754875Y-82644338D01*
X173754876Y-82644338D01*
X173779988Y-82627558D01*
X173805018Y-82610835D01*
X173807613Y-82609191D01*
X173809301Y-82607590D01*
X173811525Y-82605156D01*
X173868889Y-82547792D01*
X173868891Y-82547789D01*
X174022283Y-82394404D01*
X181208050Y-75208988D01*
X181270362Y-75174966D01*
X181308119Y-75172566D01*
X181505600Y-75189844D01*
X181740345Y-75169306D01*
X181967958Y-75108318D01*
X182181522Y-75008731D01*
X182205314Y-74992072D01*
X182374544Y-74873577D01*
X182374546Y-74873574D01*
X182374549Y-74873573D01*
X182541173Y-74706949D01*
X182588011Y-74640058D01*
X182676329Y-74513925D01*
X182676329Y-74513924D01*
X182676331Y-74513922D01*
X182775918Y-74300358D01*
X182836906Y-74072745D01*
X182857444Y-73838000D01*
X182836906Y-73603255D01*
X182775918Y-73375642D01*
X182676331Y-73162078D01*
X182676330Y-73162077D01*
X182676329Y-73162074D01*
X182541177Y-72969055D01*
X182541168Y-72969045D01*
X182374554Y-72802431D01*
X182374544Y-72802422D01*
X182181525Y-72667270D01*
X182181526Y-72667270D01*
X181967960Y-72567683D01*
X181967956Y-72567681D01*
X181740348Y-72506694D01*
X181505600Y-72486156D01*
X181270851Y-72506694D01*
X181043243Y-72567681D01*
X181043239Y-72567683D01*
X180829674Y-72667270D01*
X180636655Y-72802422D01*
X180636645Y-72802431D01*
X180470031Y-72969045D01*
X180470022Y-72969055D01*
X180350345Y-73139974D01*
X180294888Y-73184303D01*
X180224269Y-73191612D01*
X180160908Y-73159582D01*
X180128407Y-73109899D01*
X180102123Y-73035942D01*
X179975711Y-72791977D01*
X179817257Y-72567498D01*
X179629711Y-72366686D01*
X179416569Y-72193282D01*
X179181800Y-72050516D01*
X179181801Y-72050516D01*
X179181797Y-72050514D01*
X178929780Y-71941048D01*
X178929778Y-71941047D01*
X178929777Y-71941047D01*
X178797486Y-71903981D01*
X178665193Y-71866914D01*
X178392995Y-71829500D01*
X178392985Y-71829500D01*
X178118215Y-71829500D01*
X178118204Y-71829500D01*
X177846006Y-71866914D01*
X177581419Y-71941048D01*
X177329402Y-72050514D01*
X177094628Y-72193284D01*
X176881486Y-72366688D01*
X176693943Y-72567498D01*
X176535492Y-72791971D01*
X176409077Y-73035941D01*
X176317062Y-73294845D01*
X176317060Y-73294853D01*
X176261157Y-73563877D01*
X176261156Y-73563883D01*
X176242407Y-73837995D01*
X176242407Y-73838004D01*
X176261156Y-74112116D01*
X176261157Y-74112122D01*
X176261158Y-74112130D01*
X176275978Y-74183446D01*
X176317060Y-74381146D01*
X176317062Y-74381154D01*
X176382792Y-74566099D01*
X176409077Y-74640058D01*
X176530076Y-74873577D01*
X176535492Y-74884028D01*
X176564318Y-74924865D01*
X176693943Y-75108502D01*
X176881489Y-75309314D01*
X177094631Y-75482718D01*
X177329400Y-75625484D01*
X177329402Y-75625485D01*
X177413407Y-75661973D01*
X177581423Y-75734953D01*
X177846004Y-75809085D01*
X177941104Y-75822156D01*
X178118204Y-75846499D01*
X178118215Y-75846500D01*
X178120891Y-75846500D01*
X178121702Y-75846738D01*
X178122502Y-75846793D01*
X178122489Y-75846969D01*
X178189012Y-75866502D01*
X178235505Y-75920158D01*
X178245609Y-75990432D01*
X178216115Y-76055012D01*
X178209984Y-76061598D01*
X175522748Y-78748703D01*
X173511173Y-80760181D01*
X173046733Y-81224598D01*
X172984420Y-81258621D01*
X172957640Y-81261500D01*
X140205288Y-81261500D01*
X140132024Y-81276073D01*
X140132024Y-81276074D01*
X140058753Y-81290649D01*
X140058751Y-81290649D01*
X140058750Y-81290650D01*
X139920714Y-81347827D01*
X139796486Y-81430833D01*
X139796480Y-81430838D01*
X106199847Y-115027470D01*
X106137535Y-115061496D01*
X106090016Y-115062657D01*
X106030235Y-115052682D01*
X106005169Y-115048500D01*
X105780031Y-115048500D01*
X105631811Y-115073233D01*
X105557969Y-115085555D01*
X105557960Y-115085557D01*
X105345028Y-115158656D01*
X105345026Y-115158658D01*
X105149850Y-115264282D01*
X105147026Y-115265810D01*
X105147024Y-115265811D01*
X104969362Y-115404091D01*
X104816879Y-115569729D01*
X104816875Y-115569734D01*
X104693741Y-115758206D01*
X104603303Y-115964386D01*
X104603302Y-115964387D01*
X104548037Y-116182624D01*
X104548036Y-116182630D01*
X104548036Y-116182632D01*
X104529444Y-116407000D01*
X104547927Y-116630056D01*
X104548037Y-116631375D01*
X104603302Y-116849612D01*
X104603303Y-116849613D01*
X104603304Y-116849616D01*
X104690665Y-117048781D01*
X104693741Y-117055793D01*
X104816875Y-117244265D01*
X104816879Y-117244270D01*
X104969362Y-117409908D01*
X104973092Y-117412811D01*
X105147024Y-117548189D01*
X105180278Y-117566185D01*
X105180280Y-117566186D01*
X105230671Y-117616200D01*
X105246023Y-117685516D01*
X105221462Y-117752129D01*
X105180280Y-117787813D01*
X105147028Y-117805809D01*
X105147026Y-117805810D01*
X105147024Y-117805811D01*
X104969362Y-117944091D01*
X104816879Y-118109729D01*
X104816875Y-118109734D01*
X104693741Y-118298206D01*
X104603303Y-118504386D01*
X104603302Y-118504387D01*
X104548037Y-118722624D01*
X104548036Y-118722630D01*
X104548036Y-118722632D01*
X104529444Y-118947000D01*
X85090963Y-118947000D01*
X85152078Y-118834068D01*
X85154000Y-118830647D01*
X85225238Y-118708589D01*
X85227280Y-118705218D01*
X85301367Y-118587212D01*
X85305486Y-118581063D01*
X85410883Y-118433304D01*
X85547868Y-118241261D01*
X85551672Y-118237533D01*
X85561291Y-118222746D01*
X85561293Y-118222746D01*
X85562070Y-118221550D01*
X85565090Y-118217119D01*
X85565938Y-118215931D01*
X85565937Y-118215930D01*
X85576174Y-118201584D01*
X85578256Y-118196675D01*
X85596262Y-118169004D01*
X85793146Y-117866435D01*
X85797999Y-117861138D01*
X85805202Y-117848371D01*
X85809326Y-117841570D01*
X85809354Y-117841528D01*
X85809353Y-117841526D01*
X85817353Y-117829235D01*
X85819807Y-117822483D01*
X86231736Y-117092411D01*
X86237097Y-117085629D01*
X86241637Y-117075749D01*
X86246413Y-117066400D01*
X86251749Y-117056947D01*
X86254105Y-117048627D01*
X86603028Y-116289683D01*
X86607753Y-116282585D01*
X86611607Y-116272019D01*
X86615509Y-116262537D01*
X86620192Y-116252355D01*
X86621834Y-116243989D01*
X86907193Y-115461965D01*
X86911284Y-115454600D01*
X86914363Y-115443485D01*
X86917433Y-115433908D01*
X86921379Y-115423099D01*
X86922333Y-115414724D01*
X87144207Y-114614231D01*
X87147665Y-114606653D01*
X87149913Y-114595095D01*
X87152178Y-114585476D01*
X87155315Y-114574162D01*
X87155604Y-114565838D01*
X87314057Y-113751460D01*
X87316894Y-113743697D01*
X87318263Y-113731825D01*
X87319758Y-113722166D01*
X87322034Y-113710475D01*
X87321679Y-113702218D01*
X87416739Y-112878589D01*
X87418960Y-112870668D01*
X87419417Y-112858643D01*
X87420161Y-112848946D01*
X87421539Y-112837032D01*
X87420555Y-112828865D01*
X87452242Y-112000619D01*
X87453845Y-111992579D01*
X87453382Y-111980467D01*
X87453382Y-111970825D01*
X87453844Y-111958757D01*
X87452244Y-111950713D01*
X87420563Y-111122472D01*
X87421550Y-111114301D01*
X87420166Y-111102331D01*
X87419423Y-111092643D01*
X87418966Y-111080626D01*
X87416745Y-111072698D01*
X87321696Y-110249105D01*
X87322053Y-110240857D01*
X87319763Y-110229085D01*
X87318274Y-110219459D01*
X87316908Y-110207619D01*
X87314078Y-110199863D01*
X87175558Y-109487900D01*
X87155628Y-109385470D01*
X87155341Y-109377144D01*
X87152194Y-109365792D01*
X87149932Y-109356188D01*
X87147690Y-109344663D01*
X87144238Y-109337087D01*
X87120334Y-109250844D01*
X86922360Y-108536560D01*
X86921409Y-108528197D01*
X86917444Y-108517330D01*
X86914385Y-108507785D01*
X86911311Y-108496694D01*
X86907229Y-108489336D01*
X86839420Y-108303502D01*
X86621865Y-107707278D01*
X86620225Y-107698916D01*
X86615517Y-107688674D01*
X86611633Y-107679237D01*
X86607783Y-107668688D01*
X86603068Y-107661596D01*
X86254135Y-106902613D01*
X86251782Y-106894300D01*
X86246409Y-106884776D01*
X86241662Y-106875483D01*
X86237127Y-106865617D01*
X86231778Y-106858844D01*
X85912060Y-106292189D01*
X85819826Y-106128716D01*
X85817373Y-106121965D01*
X85809345Y-106109627D01*
X85805214Y-106102818D01*
X85798042Y-106090106D01*
X85793196Y-106084809D01*
X85703008Y-105946207D01*
X85578216Y-105754423D01*
X85576143Y-105749542D01*
X85565942Y-105735241D01*
X85565943Y-105735240D01*
X85565089Y-105734043D01*
X85562092Y-105729644D01*
X85551785Y-105713805D01*
X85547995Y-105710077D01*
X85305185Y-105369668D01*
X85301527Y-105364247D01*
X85226463Y-105246536D01*
X85223999Y-105242507D01*
X85152956Y-105121310D01*
X85150694Y-105117285D01*
X85084236Y-104993748D01*
X85082175Y-104989747D01*
X85020244Y-104864062D01*
X85018373Y-104860092D01*
X85018340Y-104860019D01*
X84960889Y-104732396D01*
X84959218Y-104728507D01*
X84906095Y-104598934D01*
X84904581Y-104595062D01*
X84868324Y-104497584D01*
X84855745Y-104463764D01*
X84854413Y-104460001D01*
X84809774Y-104327096D01*
X84808615Y-104323455D01*
X84768128Y-104189183D01*
X84767109Y-104185605D01*
X84730695Y-104050129D01*
X84729785Y-104046536D01*
X84714221Y-103980995D01*
X84697350Y-103909949D01*
X84696574Y-103906461D01*
X84693325Y-103890799D01*
X84668046Y-103768933D01*
X84667383Y-103765494D01*
X84654232Y-103691858D01*
X84642698Y-103627278D01*
X84642146Y-103623923D01*
X84621212Y-103485096D01*
X84620760Y-103481808D01*
X84604204Y-103348235D01*
X84603497Y-103342533D01*
X84603142Y-103339331D01*
X84598107Y-103287933D01*
X84589953Y-103204684D01*
X84589353Y-103192401D01*
X84589353Y-94632240D01*
X84589671Y-94623289D01*
X84594094Y-94561188D01*
X84599404Y-94486630D01*
X84599776Y-94482421D01*
X84599813Y-94482076D01*
X84614370Y-94343633D01*
X84614879Y-94339471D01*
X84615075Y-94338064D01*
X84634115Y-94201151D01*
X84634744Y-94197120D01*
X84658583Y-94059401D01*
X84659332Y-94055468D01*
X84687701Y-93918600D01*
X84688600Y-93914598D01*
X84721451Y-93778714D01*
X84722483Y-93774731D01*
X84725369Y-93764299D01*
X84759806Y-93639800D01*
X84760934Y-93635966D01*
X84802659Y-93502213D01*
X84803926Y-93498375D01*
X84804168Y-93497680D01*
X84849994Y-93365957D01*
X84851368Y-93362204D01*
X84901752Y-93231185D01*
X84903214Y-93227558D01*
X84957883Y-93098026D01*
X84959491Y-93094382D01*
X85018370Y-92966539D01*
X85020049Y-92963044D01*
X85083076Y-92837044D01*
X85084918Y-92833503D01*
X85152073Y-92709410D01*
X85154055Y-92705889D01*
X85225237Y-92583929D01*
X85227280Y-92580553D01*
X85301529Y-92462289D01*
X85305632Y-92456163D01*
X85547871Y-92116564D01*
X85551674Y-92112837D01*
X85561292Y-92098052D01*
X85561293Y-92098052D01*
X85562070Y-92096856D01*
X85565090Y-92092425D01*
X85565938Y-92091237D01*
X85565937Y-92091236D01*
X85576173Y-92076890D01*
X85578254Y-92071983D01*
X85793145Y-91741739D01*
X85797998Y-91736443D01*
X85805201Y-91723676D01*
X85809325Y-91716875D01*
X85809353Y-91716833D01*
X85809352Y-91716831D01*
X85817352Y-91704540D01*
X85819806Y-91697788D01*
X86231735Y-90967715D01*
X86237096Y-90960933D01*
X86241636Y-90951053D01*
X86246412Y-90941704D01*
X86251748Y-90932251D01*
X86254104Y-90923931D01*
X86603025Y-90164987D01*
X86607750Y-90157889D01*
X86611610Y-90147308D01*
X86615507Y-90137839D01*
X86620190Y-90127656D01*
X86621832Y-90119290D01*
X86907191Y-89337266D01*
X86911282Y-89329901D01*
X86914361Y-89318786D01*
X86917431Y-89309209D01*
X86921377Y-89298400D01*
X86922331Y-89290025D01*
X87144206Y-88489530D01*
X87147664Y-88481952D01*
X87149912Y-88470394D01*
X87152177Y-88460775D01*
X87155314Y-88449461D01*
X87155603Y-88441137D01*
X87314056Y-87626758D01*
X87316893Y-87618995D01*
X87318262Y-87607123D01*
X87319757Y-87597464D01*
X87322033Y-87585773D01*
X87321678Y-87577516D01*
X87416738Y-86753884D01*
X87418959Y-86745963D01*
X87419416Y-86733938D01*
X87420160Y-86724241D01*
X87421538Y-86712327D01*
X87420554Y-86704160D01*
X87452242Y-85875913D01*
X87453845Y-85867873D01*
X87453382Y-85855761D01*
X87453382Y-85846119D01*
X87453844Y-85834051D01*
X87452244Y-85826007D01*
X87434319Y-85357384D01*
X87420563Y-84997762D01*
X87421550Y-84989593D01*
X87420166Y-84977623D01*
X87419423Y-84967935D01*
X87418966Y-84955917D01*
X87416745Y-84947992D01*
X87321696Y-84124398D01*
X87322053Y-84116146D01*
X87319767Y-84104399D01*
X87318276Y-84094759D01*
X87316910Y-84082919D01*
X87314078Y-84075157D01*
X87155630Y-83260763D01*
X87155342Y-83252436D01*
X87152195Y-83241084D01*
X87149933Y-83231480D01*
X87147691Y-83219955D01*
X87144239Y-83212379D01*
X87024781Y-82781379D01*
X86922361Y-82411852D01*
X86921410Y-82403489D01*
X86917445Y-82392622D01*
X86914386Y-82383077D01*
X86911312Y-82371986D01*
X86907230Y-82364628D01*
X86621867Y-81582571D01*
X86620227Y-81574212D01*
X86615518Y-81563968D01*
X86611634Y-81554531D01*
X86607785Y-81543983D01*
X86603070Y-81536892D01*
X86554310Y-81430833D01*
X86254133Y-80777905D01*
X86251779Y-80769585D01*
X86246424Y-80760097D01*
X86241663Y-80750779D01*
X86237133Y-80740921D01*
X86231780Y-80734143D01*
X85819828Y-80004019D01*
X85817375Y-79997267D01*
X85809364Y-79984959D01*
X85809365Y-79984958D01*
X85809329Y-79984903D01*
X85805207Y-79978106D01*
X85798018Y-79965362D01*
X85793167Y-79960066D01*
X85578273Y-79629814D01*
X85576195Y-79624912D01*
X85565105Y-79609365D01*
X85562082Y-79604931D01*
X85561299Y-79603727D01*
X85561298Y-79603726D01*
X85551737Y-79589031D01*
X85547941Y-79585304D01*
X85304637Y-79244206D01*
X85302546Y-79241179D01*
X85223682Y-79123191D01*
X85220597Y-79118336D01*
X85155508Y-79010534D01*
X85148390Y-78998746D01*
X85145634Y-78993943D01*
X85078971Y-78871641D01*
X85076531Y-78866930D01*
X85015140Y-78742060D01*
X85013017Y-78737516D01*
X84956645Y-78610236D01*
X84954802Y-78605851D01*
X84903212Y-78476349D01*
X84901636Y-78472178D01*
X84854608Y-78340710D01*
X84853260Y-78336734D01*
X84810547Y-78203489D01*
X84809410Y-78199743D01*
X84773393Y-78074085D01*
X84770735Y-78064812D01*
X84769810Y-78061397D01*
X84735509Y-77927213D01*
X84734953Y-77925038D01*
X84734165Y-77921773D01*
X84702918Y-77784367D01*
X84702269Y-77781343D01*
X84674336Y-77642878D01*
X84673808Y-77640100D01*
X84648948Y-77500810D01*
X84648544Y-77498403D01*
X84626617Y-77359201D01*
X84626141Y-77355891D01*
X84590410Y-77081771D01*
X84589353Y-77065485D01*
X84589353Y-75353496D01*
X84589356Y-75352585D01*
X84590250Y-75229008D01*
X84592448Y-74925025D01*
X84592721Y-74917617D01*
X84592722Y-74917604D01*
X84620636Y-74496429D01*
X84621325Y-74489205D01*
X84673389Y-74071963D01*
X84674478Y-74064887D01*
X84674496Y-74064791D01*
X84749988Y-73652320D01*
X84751439Y-73645480D01*
X84849721Y-73238183D01*
X84851515Y-73231546D01*
X84853403Y-73225250D01*
X84971862Y-72830238D01*
X84973958Y-72823872D01*
X85115682Y-72429229D01*
X85118068Y-72423095D01*
X85120077Y-72418304D01*
X85280483Y-72035773D01*
X85283111Y-72029932D01*
X85465503Y-71650669D01*
X85468366Y-71645078D01*
X85670063Y-71274508D01*
X85673157Y-71269145D01*
X85673301Y-71268909D01*
X85893417Y-70908040D01*
X85896692Y-70902951D01*
X86134844Y-70551950D01*
X86138331Y-70547068D01*
X86143220Y-70540554D01*
X86393630Y-70206921D01*
X86397253Y-70202323D01*
X86669027Y-69873679D01*
X86672854Y-69869266D01*
X86960331Y-69552891D01*
X86964347Y-69548671D01*
X86964550Y-69548468D01*
X87266806Y-69245257D01*
X87270949Y-69241286D01*
X87587782Y-68951427D01*
X87592061Y-68947688D01*
X87922459Y-68672163D01*
X87926951Y-68668589D01*
X88270141Y-68408132D01*
X88274777Y-68404779D01*
X88630110Y-68160020D01*
X88634877Y-68156895D01*
X89001672Y-67928502D01*
X89006657Y-67925558D01*
X89383984Y-67714339D01*
X89389214Y-67711570D01*
X89776467Y-67518135D01*
X89781853Y-67515603D01*
X90178368Y-67340607D01*
X90183937Y-67338309D01*
X90588900Y-67182474D01*
X90594680Y-67180411D01*
X91007390Y-67044403D01*
X91013346Y-67042603D01*
X91433126Y-66927084D01*
X91439272Y-66925559D01*
X91865374Y-66831214D01*
X91871720Y-66829980D01*
X92303419Y-66757484D01*
X92309884Y-66756571D01*
X92746461Y-66706593D01*
X92753087Y-66706012D01*
X93193929Y-66679217D01*
X93200707Y-66678989D01*
X93636665Y-66676112D01*
X93637496Y-66676110D01*
X93644290Y-66676110D01*
X105643224Y-66676110D01*
X105651440Y-66676377D01*
G37*
G04 #@! TD.AperFunction*
M02*
