G04 #@! TF.GenerationSoftware,KiCad,Pcbnew,(5.99.0-128-g6ff45b44c)*
G04 #@! TF.CreationDate,2019-09-15T18:53:50+09:00*
G04 #@! TF.ProjectId,M5_board,4d355f62-6f61-4726-942e-6b696361645f,rev?*
G04 #@! TF.SameCoordinates,Original*
G04 #@! TF.FileFunction,Legend,Bot*
G04 #@! TF.FilePolarity,Positive*
%FSLAX46Y46*%
G04 Gerber Fmt 4.6, Leading zero omitted, Abs format (unit mm)*
G04 Created by KiCad (PCBNEW (5.99.0-128-g6ff45b44c)) date 2019-09-15 18:53:50*
%MOMM*%
%LPD*%
G04 APERTURE LIST*
%ADD10C,0.100000*%
%ADD11C,0.150000*%
%ADD12C,0.010000*%
%ADD13C,0.120000*%
G04 APERTURE END LIST*
D10*
X138599761Y-85505476D02*
X138647380Y-85648333D01*
X138647380Y-85886428D01*
X138599761Y-85981666D01*
X138552142Y-86029285D01*
X138456904Y-86076904D01*
X138361666Y-86076904D01*
X138266428Y-86029285D01*
X138218809Y-85981666D01*
X138171190Y-85886428D01*
X138123571Y-85695952D01*
X138075952Y-85600714D01*
X138028333Y-85553095D01*
X137933095Y-85505476D01*
X137837857Y-85505476D01*
X137742619Y-85553095D01*
X137695000Y-85600714D01*
X137647380Y-85695952D01*
X137647380Y-85934047D01*
X137695000Y-86076904D01*
X138647380Y-86934047D02*
X138123571Y-86934047D01*
X138028333Y-86886428D01*
X137980714Y-86791190D01*
X137980714Y-86600714D01*
X138028333Y-86505476D01*
X138599761Y-86934047D02*
X138647380Y-86838809D01*
X138647380Y-86600714D01*
X138599761Y-86505476D01*
X138504523Y-86457857D01*
X138409285Y-86457857D01*
X138314047Y-86505476D01*
X138266428Y-86600714D01*
X138266428Y-86838809D01*
X138218809Y-86934047D01*
X137980714Y-87267380D02*
X137980714Y-87648333D01*
X138647380Y-87410238D02*
X137790238Y-87410238D01*
X137695000Y-87457857D01*
X137647380Y-87553095D01*
X137647380Y-87648333D01*
X138599761Y-88362619D02*
X138647380Y-88267380D01*
X138647380Y-88076904D01*
X138599761Y-87981666D01*
X138504523Y-87934047D01*
X138123571Y-87934047D01*
X138028333Y-87981666D01*
X137980714Y-88076904D01*
X137980714Y-88267380D01*
X138028333Y-88362619D01*
X138123571Y-88410238D01*
X138218809Y-88410238D01*
X138314047Y-87934047D01*
X138599761Y-89267380D02*
X138647380Y-89172142D01*
X138647380Y-88981666D01*
X138599761Y-88886428D01*
X138552142Y-88838809D01*
X138456904Y-88791190D01*
X138171190Y-88791190D01*
X138075952Y-88838809D01*
X138028333Y-88886428D01*
X137980714Y-88981666D01*
X137980714Y-89172142D01*
X138028333Y-89267380D01*
X138647380Y-90124523D02*
X138123571Y-90124523D01*
X138028333Y-90076904D01*
X137980714Y-89981666D01*
X137980714Y-89791190D01*
X138028333Y-89695952D01*
X138599761Y-90124523D02*
X138647380Y-90029285D01*
X138647380Y-89791190D01*
X138599761Y-89695952D01*
X138504523Y-89648333D01*
X138409285Y-89648333D01*
X138314047Y-89695952D01*
X138266428Y-89791190D01*
X138266428Y-90029285D01*
X138218809Y-90124523D01*
X138599761Y-90553095D02*
X138647380Y-90648333D01*
X138647380Y-90838809D01*
X138599761Y-90934047D01*
X138504523Y-90981666D01*
X138456904Y-90981666D01*
X138361666Y-90934047D01*
X138314047Y-90838809D01*
X138314047Y-90695952D01*
X138266428Y-90600714D01*
X138171190Y-90553095D01*
X138123571Y-90553095D01*
X138028333Y-90600714D01*
X137980714Y-90695952D01*
X137980714Y-90838809D01*
X138028333Y-90934047D01*
X137980714Y-91267380D02*
X137980714Y-91648333D01*
X137647380Y-91410238D02*
X138504523Y-91410238D01*
X138599761Y-91457857D01*
X138647380Y-91553095D01*
X138647380Y-91648333D01*
X138647380Y-92743571D02*
X137647380Y-92743571D01*
X138361666Y-93076904D01*
X137647380Y-93410238D01*
X138647380Y-93410238D01*
X137647380Y-94362619D02*
X137647380Y-93886428D01*
X138123571Y-93838809D01*
X138075952Y-93886428D01*
X138028333Y-93981666D01*
X138028333Y-94219761D01*
X138075952Y-94314999D01*
X138123571Y-94362619D01*
X138218809Y-94410238D01*
X138456904Y-94410238D01*
X138552142Y-94362619D01*
X138599761Y-94314999D01*
X138647380Y-94219761D01*
X138647380Y-93981666D01*
X138599761Y-93886428D01*
X138552142Y-93838809D01*
X138647380Y-95600714D02*
X137647380Y-95600714D01*
X138028333Y-95600714D02*
X137980714Y-95695952D01*
X137980714Y-95886428D01*
X138028333Y-95981666D01*
X138075952Y-96029285D01*
X138171190Y-96076904D01*
X138456904Y-96076904D01*
X138552142Y-96029285D01*
X138599761Y-95981666D01*
X138647380Y-95886428D01*
X138647380Y-95695952D01*
X138599761Y-95600714D01*
X138647380Y-96934047D02*
X138123571Y-96934047D01*
X138028333Y-96886428D01*
X137980714Y-96791190D01*
X137980714Y-96600714D01*
X138028333Y-96505476D01*
X138599761Y-96934047D02*
X138647380Y-96838809D01*
X138647380Y-96600714D01*
X138599761Y-96505476D01*
X138504523Y-96457857D01*
X138409285Y-96457857D01*
X138314047Y-96505476D01*
X138266428Y-96600714D01*
X138266428Y-96838809D01*
X138218809Y-96934047D01*
X138599761Y-97362619D02*
X138647380Y-97457857D01*
X138647380Y-97648333D01*
X138599761Y-97743571D01*
X138504523Y-97791190D01*
X138456904Y-97791190D01*
X138361666Y-97743571D01*
X138314047Y-97648333D01*
X138314047Y-97505476D01*
X138266428Y-97410238D01*
X138171190Y-97362619D01*
X138123571Y-97362619D01*
X138028333Y-97410238D01*
X137980714Y-97505476D01*
X137980714Y-97648333D01*
X138028333Y-97743571D01*
X138599761Y-98600714D02*
X138647380Y-98505476D01*
X138647380Y-98314999D01*
X138599761Y-98219761D01*
X138504523Y-98172142D01*
X138123571Y-98172142D01*
X138028333Y-98219761D01*
X137980714Y-98314999D01*
X137980714Y-98505476D01*
X138028333Y-98600714D01*
X138123571Y-98648333D01*
X138218809Y-98648333D01*
X138314047Y-98172142D01*
X138647380Y-99505476D02*
X137647380Y-99505476D01*
X138599761Y-99505476D02*
X138647380Y-99410238D01*
X138647380Y-99219761D01*
X138599761Y-99124523D01*
X138552142Y-99076904D01*
X138456904Y-99029285D01*
X138171190Y-99029285D01*
X138075952Y-99076904D01*
X138028333Y-99124523D01*
X137980714Y-99219761D01*
X137980714Y-99410238D01*
X138028333Y-99505476D01*
X138647380Y-100743571D02*
X137647380Y-100743571D01*
X138028333Y-100743571D02*
X137980714Y-100838809D01*
X137980714Y-101029285D01*
X138028333Y-101124523D01*
X138075952Y-101172142D01*
X138171190Y-101219761D01*
X138456904Y-101219761D01*
X138552142Y-101172142D01*
X138599761Y-101124523D01*
X138647380Y-101029285D01*
X138647380Y-100838809D01*
X138599761Y-100743571D01*
X137695000Y-102172142D02*
X137647380Y-102076904D01*
X137647380Y-101934047D01*
X137695000Y-101791190D01*
X137790238Y-101695952D01*
X137885476Y-101648333D01*
X138075952Y-101600714D01*
X138218809Y-101600714D01*
X138409285Y-101648333D01*
X138504523Y-101695952D01*
X138599761Y-101791190D01*
X138647380Y-101934047D01*
X138647380Y-102029285D01*
X138599761Y-102172142D01*
X138552142Y-102219761D01*
X138218809Y-102219761D01*
X138218809Y-102029285D01*
X138599761Y-103029285D02*
X138647380Y-102934047D01*
X138647380Y-102743571D01*
X138599761Y-102648333D01*
X138504523Y-102600714D01*
X138123571Y-102600714D01*
X138028333Y-102648333D01*
X137980714Y-102743571D01*
X137980714Y-102934047D01*
X138028333Y-103029285D01*
X138123571Y-103076904D01*
X138218809Y-103076904D01*
X138314047Y-102600714D01*
X138647380Y-103505476D02*
X137980714Y-103505476D01*
X137647380Y-103505476D02*
X137695000Y-103457857D01*
X137742619Y-103505476D01*
X137695000Y-103553095D01*
X137647380Y-103505476D01*
X137742619Y-103505476D01*
X137980714Y-104410238D02*
X138790238Y-104410238D01*
X138885476Y-104362619D01*
X138933095Y-104314999D01*
X138980714Y-104219761D01*
X138980714Y-104076904D01*
X138933095Y-103981666D01*
X138599761Y-104410238D02*
X138647380Y-104314999D01*
X138647380Y-104124523D01*
X138599761Y-104029285D01*
X138552142Y-103981666D01*
X138456904Y-103934047D01*
X138171190Y-103934047D01*
X138075952Y-103981666D01*
X138028333Y-104029285D01*
X137980714Y-104124523D01*
X137980714Y-104314999D01*
X138028333Y-104410238D01*
X138647380Y-104886428D02*
X137980714Y-104886428D01*
X137647380Y-104886428D02*
X137695000Y-104838809D01*
X137742619Y-104886428D01*
X137695000Y-104934047D01*
X137647380Y-104886428D01*
X137742619Y-104886428D01*
X138599761Y-105743571D02*
X138647380Y-105648333D01*
X138647380Y-105457857D01*
X138599761Y-105362619D01*
X138504523Y-105314999D01*
X138123571Y-105314999D01*
X138028333Y-105362619D01*
X137980714Y-105457857D01*
X137980714Y-105648333D01*
X138028333Y-105743571D01*
X138123571Y-105791190D01*
X138218809Y-105791190D01*
X138314047Y-105314999D01*
X138647380Y-106791190D02*
X138171190Y-106457857D01*
X138647380Y-106219761D02*
X137647380Y-106219761D01*
X137647380Y-106600714D01*
X137695000Y-106695952D01*
X137742619Y-106743571D01*
X137837857Y-106791190D01*
X137980714Y-106791190D01*
X138075952Y-106743571D01*
X138123571Y-106695952D01*
X138171190Y-106600714D01*
X138171190Y-106219761D01*
X138647380Y-107648333D02*
X138123571Y-107648333D01*
X138028333Y-107600714D01*
X137980714Y-107505476D01*
X137980714Y-107314999D01*
X138028333Y-107219761D01*
X138599761Y-107648333D02*
X138647380Y-107553095D01*
X138647380Y-107314999D01*
X138599761Y-107219761D01*
X138504523Y-107172142D01*
X138409285Y-107172142D01*
X138314047Y-107219761D01*
X138266428Y-107314999D01*
X138266428Y-107553095D01*
X138218809Y-107648333D01*
X138647380Y-108124523D02*
X137647380Y-108124523D01*
X138266428Y-108219761D02*
X138647380Y-108505476D01*
X137980714Y-108505476D02*
X138361666Y-108124523D01*
X137980714Y-109362619D02*
X138647380Y-109362619D01*
X137980714Y-108934047D02*
X138504523Y-108934047D01*
X138599761Y-108981666D01*
X138647380Y-109076904D01*
X138647380Y-109219761D01*
X138599761Y-109314999D01*
X138552142Y-109362619D01*
X139590714Y-85553095D02*
X140590714Y-85553095D01*
X139638333Y-85553095D02*
X139590714Y-85648333D01*
X139590714Y-85838809D01*
X139638333Y-85934047D01*
X139685952Y-85981666D01*
X139781190Y-86029285D01*
X140066904Y-86029285D01*
X140162142Y-85981666D01*
X140209761Y-85934047D01*
X140257380Y-85838809D01*
X140257380Y-85648333D01*
X140209761Y-85553095D01*
X140257380Y-86457857D02*
X139590714Y-86457857D01*
X139781190Y-86457857D02*
X139685952Y-86505476D01*
X139638333Y-86553095D01*
X139590714Y-86648333D01*
X139590714Y-86743571D01*
X140257380Y-87219761D02*
X140209761Y-87124523D01*
X140162142Y-87076904D01*
X140066904Y-87029285D01*
X139781190Y-87029285D01*
X139685952Y-87076904D01*
X139638333Y-87124523D01*
X139590714Y-87219761D01*
X139590714Y-87362619D01*
X139638333Y-87457857D01*
X139685952Y-87505476D01*
X139781190Y-87553095D01*
X140066904Y-87553095D01*
X140162142Y-87505476D01*
X140209761Y-87457857D01*
X140257380Y-87362619D01*
X140257380Y-87219761D01*
X139590714Y-87838809D02*
X139590714Y-88219761D01*
X139257380Y-87981666D02*
X140114523Y-87981666D01*
X140209761Y-88029285D01*
X140257380Y-88124523D01*
X140257380Y-88219761D01*
X140257380Y-88695952D02*
X140209761Y-88600714D01*
X140162142Y-88553095D01*
X140066904Y-88505476D01*
X139781190Y-88505476D01*
X139685952Y-88553095D01*
X139638333Y-88600714D01*
X139590714Y-88695952D01*
X139590714Y-88838809D01*
X139638333Y-88934047D01*
X139685952Y-88981666D01*
X139781190Y-89029285D01*
X140066904Y-89029285D01*
X140162142Y-88981666D01*
X140209761Y-88934047D01*
X140257380Y-88838809D01*
X140257380Y-88695952D01*
X139590714Y-89315000D02*
X139590714Y-89695952D01*
X139257380Y-89457857D02*
X140114523Y-89457857D01*
X140209761Y-89505476D01*
X140257380Y-89600714D01*
X140257380Y-89695952D01*
X139590714Y-89934047D02*
X140257380Y-90172142D01*
X139590714Y-90410238D02*
X140257380Y-90172142D01*
X140495476Y-90076904D01*
X140543095Y-90029285D01*
X140590714Y-89934047D01*
X139590714Y-90791190D02*
X140590714Y-90791190D01*
X139638333Y-90791190D02*
X139590714Y-90886428D01*
X139590714Y-91076904D01*
X139638333Y-91172142D01*
X139685952Y-91219761D01*
X139781190Y-91267380D01*
X140066904Y-91267380D01*
X140162142Y-91219761D01*
X140209761Y-91172142D01*
X140257380Y-91076904D01*
X140257380Y-90886428D01*
X140209761Y-90791190D01*
X140209761Y-92076904D02*
X140257380Y-91981666D01*
X140257380Y-91791190D01*
X140209761Y-91695952D01*
X140114523Y-91648333D01*
X139733571Y-91648333D01*
X139638333Y-91695952D01*
X139590714Y-91791190D01*
X139590714Y-91981666D01*
X139638333Y-92076904D01*
X139733571Y-92124523D01*
X139828809Y-92124523D01*
X139924047Y-91648333D01*
X140257380Y-93315000D02*
X139257380Y-93315000D01*
X139638333Y-93315000D02*
X139590714Y-93410238D01*
X139590714Y-93600714D01*
X139638333Y-93695952D01*
X139685952Y-93743571D01*
X139781190Y-93791190D01*
X140066904Y-93791190D01*
X140162142Y-93743571D01*
X140209761Y-93695952D01*
X140257380Y-93600714D01*
X140257380Y-93410238D01*
X140209761Y-93315000D01*
X140257380Y-94362619D02*
X140209761Y-94267380D01*
X140162142Y-94219761D01*
X140066904Y-94172142D01*
X139781190Y-94172142D01*
X139685952Y-94219761D01*
X139638333Y-94267380D01*
X139590714Y-94362619D01*
X139590714Y-94505476D01*
X139638333Y-94600714D01*
X139685952Y-94648333D01*
X139781190Y-94695952D01*
X140066904Y-94695952D01*
X140162142Y-94648333D01*
X140209761Y-94600714D01*
X140257380Y-94505476D01*
X140257380Y-94362619D01*
X140257380Y-95553095D02*
X139733571Y-95553095D01*
X139638333Y-95505476D01*
X139590714Y-95410238D01*
X139590714Y-95219761D01*
X139638333Y-95124523D01*
X140209761Y-95553095D02*
X140257380Y-95457857D01*
X140257380Y-95219761D01*
X140209761Y-95124523D01*
X140114523Y-95076904D01*
X140019285Y-95076904D01*
X139924047Y-95124523D01*
X139876428Y-95219761D01*
X139876428Y-95457857D01*
X139828809Y-95553095D01*
X140257380Y-96029285D02*
X139590714Y-96029285D01*
X139781190Y-96029285D02*
X139685952Y-96076904D01*
X139638333Y-96124523D01*
X139590714Y-96219761D01*
X139590714Y-96315000D01*
X140257380Y-97076904D02*
X139257380Y-97076904D01*
X140209761Y-97076904D02*
X140257380Y-96981666D01*
X140257380Y-96791190D01*
X140209761Y-96695952D01*
X140162142Y-96648333D01*
X140066904Y-96600714D01*
X139781190Y-96600714D01*
X139685952Y-96648333D01*
X139638333Y-96695952D01*
X139590714Y-96791190D01*
X139590714Y-96981666D01*
X139638333Y-97076904D01*
X139257380Y-98172142D02*
X140257380Y-98505476D01*
X139257380Y-98838809D01*
X139257380Y-99362619D02*
X139257380Y-99457857D01*
X139305000Y-99553095D01*
X139352619Y-99600714D01*
X139447857Y-99648333D01*
X139638333Y-99695952D01*
X139876428Y-99695952D01*
X140066904Y-99648333D01*
X140162142Y-99600714D01*
X140209761Y-99553095D01*
X140257380Y-99457857D01*
X140257380Y-99362619D01*
X140209761Y-99267380D01*
X140162142Y-99219761D01*
X140066904Y-99172142D01*
X139876428Y-99124523D01*
X139638333Y-99124523D01*
X139447857Y-99172142D01*
X139352619Y-99219761D01*
X139305000Y-99267380D01*
X139257380Y-99362619D01*
X140162142Y-100124523D02*
X140209761Y-100172142D01*
X140257380Y-100124523D01*
X140209761Y-100076904D01*
X140162142Y-100124523D01*
X140257380Y-100124523D01*
X140257380Y-100648333D02*
X140257380Y-100838809D01*
X140209761Y-100934047D01*
X140162142Y-100981666D01*
X140019285Y-101076904D01*
X139828809Y-101124523D01*
X139447857Y-101124523D01*
X139352619Y-101076904D01*
X139305000Y-101029285D01*
X139257380Y-100934047D01*
X139257380Y-100743571D01*
X139305000Y-100648333D01*
X139352619Y-100600714D01*
X139447857Y-100553095D01*
X139685952Y-100553095D01*
X139781190Y-100600714D01*
X139828809Y-100648333D01*
X139876428Y-100743571D01*
X139876428Y-100934047D01*
X139828809Y-101029285D01*
X139781190Y-101076904D01*
X139685952Y-101124523D01*
X140162142Y-101553095D02*
X140209761Y-101600714D01*
X140257380Y-101553095D01*
X140209761Y-101505476D01*
X140162142Y-101553095D01*
X140257380Y-101553095D01*
X139257380Y-102219761D02*
X139257380Y-102315000D01*
X139305000Y-102410238D01*
X139352619Y-102457857D01*
X139447857Y-102505476D01*
X139638333Y-102553095D01*
X139876428Y-102553095D01*
X140066904Y-102505476D01*
X140162142Y-102457857D01*
X140209761Y-102410238D01*
X140257380Y-102315000D01*
X140257380Y-102219761D01*
X140209761Y-102124523D01*
X140162142Y-102076904D01*
X140066904Y-102029285D01*
X139876428Y-101981666D01*
X139638333Y-101981666D01*
X139447857Y-102029285D01*
X139352619Y-102076904D01*
X139305000Y-102124523D01*
X139257380Y-102219761D01*
D11*
G36*
X175872636Y-120210945D02*
G01*
X175959414Y-120295786D01*
X176046191Y-120380626D01*
X162399647Y-120380626D01*
X162486424Y-120295786D01*
X162573202Y-120210945D01*
X161748558Y-120210143D01*
X159406274Y-120207866D01*
X155808543Y-120204369D01*
X155178520Y-120203756D01*
X149043885Y-120197793D01*
X149043885Y-118187821D01*
X165855396Y-118187821D01*
X166165606Y-118187821D01*
X166173656Y-117263802D01*
X166174239Y-117198012D01*
X166176582Y-116964025D01*
X166179134Y-116775641D01*
X166182188Y-116627569D01*
X166186036Y-116514517D01*
X166190969Y-116431193D01*
X166197279Y-116372305D01*
X166205258Y-116332562D01*
X166215197Y-116306672D01*
X166227390Y-116289342D01*
X166257003Y-116249953D01*
X166273073Y-116211029D01*
X166276630Y-116200106D01*
X166308183Y-116158029D01*
X166361766Y-116105284D01*
X166379446Y-116091058D01*
X166490495Y-116034001D01*
X166632426Y-115997583D01*
X166790825Y-115982396D01*
X166951280Y-115989030D01*
X167099378Y-116018074D01*
X167220704Y-116070119D01*
X167263883Y-116100345D01*
X167316727Y-116152259D01*
X167360241Y-116218857D01*
X167395259Y-116304822D01*
X167422615Y-116414836D01*
X167443144Y-116553581D01*
X167457681Y-116725739D01*
X167467060Y-116935993D01*
X167472115Y-117189025D01*
X167473681Y-117489517D01*
X167473895Y-118187821D01*
X167765665Y-118187821D01*
X167754064Y-117280678D01*
X167752283Y-117149565D01*
X167748311Y-116913559D01*
X167743763Y-116722221D01*
X167738388Y-116570462D01*
X167731934Y-116453190D01*
X167731154Y-116444384D01*
X168230935Y-116444384D01*
X168233053Y-116476741D01*
X168248770Y-116501655D01*
X168290996Y-116514160D01*
X168372570Y-116521222D01*
X168514204Y-116530164D01*
X168530267Y-116422759D01*
X168533386Y-116405443D01*
X168582886Y-116286962D01*
X168674336Y-116178697D01*
X168798808Y-116087410D01*
X168947375Y-116019864D01*
X169111108Y-115982821D01*
X169126687Y-115981181D01*
X169251061Y-115977704D01*
X169380418Y-115987846D01*
X169500497Y-116009176D01*
X169597035Y-116039263D01*
X169655771Y-116075674D01*
X169691982Y-116107841D01*
X169730807Y-116125539D01*
X169734293Y-116125994D01*
X169766033Y-116154240D01*
X169803193Y-116215258D01*
X169838608Y-116293502D01*
X169865113Y-116373430D01*
X169875540Y-116439495D01*
X169875540Y-116439859D01*
X169868667Y-116494431D01*
X169852265Y-116517112D01*
X169834082Y-116530198D01*
X169812927Y-116575847D01*
X169776810Y-116639052D01*
X169696233Y-116707246D01*
X169584234Y-116764724D01*
X169451849Y-116804497D01*
X169372408Y-116822403D01*
X169299907Y-116842162D01*
X169262076Y-116856922D01*
X169244989Y-116864406D01*
X169183911Y-116883440D01*
X169091958Y-116908239D01*
X168981449Y-116935360D01*
X168907874Y-116953489D01*
X168814557Y-116979516D01*
X168750637Y-117001278D01*
X168726927Y-117015376D01*
X168713708Y-117032194D01*
X168668191Y-117053531D01*
X168587562Y-117088366D01*
X168479140Y-117177053D01*
X168398575Y-117298759D01*
X168349649Y-117444597D01*
X168336146Y-117605678D01*
X168361851Y-117773115D01*
X168361929Y-117773396D01*
X168405155Y-117859621D01*
X168482351Y-117954586D01*
X168579941Y-118045620D01*
X168684347Y-118120052D01*
X168781991Y-118165211D01*
X168793813Y-118168485D01*
X168909519Y-118188683D01*
X169054281Y-118199276D01*
X169211977Y-118200541D01*
X169366485Y-118192755D01*
X169406765Y-118187821D01*
X170606475Y-118187821D01*
X172381604Y-118187821D01*
X172381604Y-117926772D01*
X170918373Y-117926772D01*
X170925579Y-117528674D01*
X170932785Y-117130575D01*
X171604985Y-117123608D01*
X172277184Y-117116641D01*
X172277184Y-116883461D01*
X171604985Y-116876494D01*
X170932785Y-116869527D01*
X170932785Y-116034172D01*
X171683299Y-116027246D01*
X172433813Y-116020319D01*
X172433813Y-115786176D01*
X170606475Y-115786176D01*
X170606475Y-118187821D01*
X169406765Y-118187821D01*
X169501679Y-118176195D01*
X169601439Y-118151139D01*
X169650956Y-118130278D01*
X169718166Y-118094417D01*
X169753649Y-118064851D01*
X169781935Y-118036140D01*
X169838958Y-118004108D01*
X169883918Y-117975353D01*
X169926031Y-117918239D01*
X169948141Y-117873431D01*
X169991108Y-117814934D01*
X170001411Y-117801789D01*
X170029666Y-117738592D01*
X170048582Y-117657680D01*
X170064431Y-117542051D01*
X169943957Y-117523985D01*
X169860877Y-117514530D01*
X169806902Y-117522168D01*
X169777993Y-117555478D01*
X169760719Y-117621619D01*
X169750498Y-117656762D01*
X169715706Y-117728770D01*
X169668994Y-117799419D01*
X169621244Y-117853190D01*
X169583340Y-117874563D01*
X169572022Y-117876764D01*
X169521449Y-117895377D01*
X169451698Y-117926772D01*
X169401015Y-117945735D01*
X169309463Y-117966097D01*
X169208682Y-117977861D01*
X169113679Y-117980159D01*
X169039459Y-117972121D01*
X169001028Y-117952877D01*
X168982688Y-117938204D01*
X168931644Y-117926772D01*
X168921500Y-117926463D01*
X168826221Y-117901156D01*
X168733451Y-117845097D01*
X168667044Y-117772220D01*
X168653493Y-117743807D01*
X168631423Y-117656141D01*
X168624069Y-117556567D01*
X168632046Y-117465558D01*
X168655969Y-117403588D01*
X168673309Y-117384178D01*
X168731444Y-117339276D01*
X168817386Y-117295196D01*
X168937053Y-117249558D01*
X169096362Y-117199981D01*
X169301234Y-117144085D01*
X169377412Y-117124039D01*
X169538072Y-117079420D01*
X169661245Y-117039930D01*
X169756619Y-117001296D01*
X169833885Y-116959243D01*
X169902731Y-116909495D01*
X169972847Y-116847779D01*
X170053986Y-116741171D01*
X170108170Y-116601196D01*
X170129757Y-116445413D01*
X170116853Y-116287934D01*
X170084378Y-116192359D01*
X170067562Y-116142869D01*
X170052419Y-116116033D01*
X169978018Y-116019859D01*
X169880874Y-115927447D01*
X169777072Y-115852725D01*
X169682701Y-115809622D01*
X169657452Y-115802165D01*
X169591919Y-115775853D01*
X169556688Y-115750844D01*
X169548848Y-115745158D01*
X169498853Y-115733922D01*
X169415026Y-115726493D01*
X169309644Y-115722771D01*
X169194987Y-115722657D01*
X169083333Y-115726050D01*
X168986960Y-115732851D01*
X168918147Y-115742959D01*
X168889173Y-115756275D01*
X168877192Y-115771777D01*
X168832490Y-115786176D01*
X168795141Y-115791258D01*
X168715929Y-115817562D01*
X168630753Y-115858026D01*
X168558364Y-115903259D01*
X168517517Y-115943873D01*
X168493946Y-115974349D01*
X168453526Y-115995015D01*
X168447436Y-115996918D01*
X168415061Y-116030442D01*
X168371332Y-116097150D01*
X168323920Y-116185751D01*
X168314190Y-116206083D01*
X168271888Y-116304187D01*
X168242161Y-116389115D01*
X168230935Y-116444384D01*
X167731154Y-116444384D01*
X167724150Y-116365318D01*
X167714785Y-116301755D01*
X167703589Y-116257411D01*
X167690405Y-116221796D01*
X167660176Y-116160145D01*
X167634567Y-116131238D01*
X167624117Y-116125672D01*
X167604420Y-116087779D01*
X167587277Y-116052661D01*
X167539611Y-115996907D01*
X167474140Y-115933440D01*
X167403656Y-115873795D01*
X167340947Y-115829509D01*
X167298806Y-115812120D01*
X167297249Y-115812093D01*
X167241404Y-115798838D01*
X167173690Y-115768724D01*
X167149102Y-115758907D01*
X167070868Y-115742703D01*
X166964529Y-115731077D01*
X166843404Y-115724339D01*
X166720811Y-115722800D01*
X166610072Y-115726771D01*
X166524504Y-115736562D01*
X166477427Y-115752485D01*
X166467586Y-115759238D01*
X166410928Y-115786170D01*
X166335454Y-115812625D01*
X166330340Y-115814181D01*
X166200559Y-115880674D01*
X166085620Y-115990552D01*
X165990555Y-116136170D01*
X165920397Y-116309887D01*
X165880179Y-116504059D01*
X165873821Y-116583967D01*
X165867948Y-116708231D01*
X165862946Y-116866303D01*
X165859059Y-117048883D01*
X165856528Y-117246669D01*
X165855594Y-117450359D01*
X165855396Y-118187821D01*
X149043885Y-118187821D01*
X149043885Y-116282168D01*
X148034005Y-116282168D01*
X147855928Y-116282148D01*
X147632166Y-116281918D01*
X147452007Y-116281205D01*
X147310313Y-116279736D01*
X147201943Y-116277239D01*
X147121758Y-116273442D01*
X147064618Y-116268072D01*
X147025382Y-116260856D01*
X146998912Y-116251522D01*
X146980067Y-116239797D01*
X146963707Y-116225408D01*
X146903289Y-116168648D01*
X146903289Y-113671685D01*
X152802981Y-113671685D01*
X152802981Y-114350411D01*
X154473690Y-114350411D01*
X154473690Y-116047225D01*
X155178520Y-116047225D01*
X155178520Y-114350411D01*
X156797020Y-114350411D01*
X156797020Y-113671685D01*
X155178520Y-113671685D01*
X155178520Y-112731911D01*
X158807092Y-112731911D01*
X158807092Y-115159660D01*
X159406274Y-115159660D01*
X159495868Y-115159381D01*
X159664395Y-115157298D01*
X159813913Y-115153445D01*
X159936124Y-115148141D01*
X160022726Y-115141702D01*
X160065421Y-115134447D01*
X160078529Y-115129260D01*
X160150823Y-115105175D01*
X160235144Y-115081551D01*
X160348722Y-115036714D01*
X160468278Y-114941958D01*
X160571256Y-114799883D01*
X160594675Y-114756679D01*
X160624536Y-114681346D01*
X160639615Y-114596509D01*
X160644809Y-114480935D01*
X160643697Y-114376080D01*
X160632744Y-114291000D01*
X160606136Y-114210094D01*
X160558186Y-114108941D01*
X160550199Y-114093424D01*
X160503690Y-114011888D01*
X160463290Y-113954456D01*
X160436981Y-113932733D01*
X160422229Y-113929355D01*
X160391253Y-113896720D01*
X160367342Y-113863996D01*
X160304487Y-113828810D01*
X160202478Y-113800668D01*
X160058101Y-113778964D01*
X159868144Y-113763088D01*
X159629394Y-113752432D01*
X159133402Y-113736947D01*
X159119222Y-112731911D01*
X161104317Y-112731911D01*
X161104317Y-115159660D01*
X161748558Y-115159660D01*
X161970593Y-115158433D01*
X162163451Y-115154716D01*
X162316359Y-115148672D01*
X162425240Y-115140463D01*
X162486019Y-115130252D01*
X162592366Y-115096174D01*
X162691748Y-115060937D01*
X162761294Y-115028575D01*
X162812320Y-114992351D01*
X162856139Y-114945529D01*
X162904068Y-114881373D01*
X162962058Y-114786791D01*
X163021321Y-114618941D01*
X163029416Y-114448566D01*
X162986413Y-114280273D01*
X162892382Y-114118668D01*
X162829553Y-114044940D01*
X162753481Y-113986135D01*
X162654678Y-113943642D01*
X162595034Y-113921405D01*
X162579044Y-113913913D01*
X163492867Y-113913913D01*
X163498192Y-114084976D01*
X163516565Y-114232939D01*
X163552725Y-114381077D01*
X163645533Y-114609761D01*
X163776938Y-114803450D01*
X163947346Y-114962691D01*
X164157168Y-115088028D01*
X164187105Y-115102023D01*
X164259728Y-115132866D01*
X164325623Y-115152588D01*
X164399524Y-115163768D01*
X164496161Y-115168982D01*
X164630270Y-115170810D01*
X164693401Y-115170955D01*
X164818739Y-115168429D01*
X164909231Y-115160639D01*
X164977181Y-115146147D01*
X165034894Y-115123515D01*
X165049163Y-115116685D01*
X165142511Y-115072372D01*
X165228247Y-115032148D01*
X165318957Y-114978630D01*
X165409543Y-114898612D01*
X166064235Y-114898612D01*
X166064235Y-115159660D01*
X167995992Y-115159660D01*
X168335355Y-115159660D01*
X170084378Y-115159660D01*
X170084378Y-114898612D01*
X168648613Y-114898612D01*
X168648613Y-114115467D01*
X169979959Y-114115467D01*
X169979959Y-114059644D01*
X170536016Y-114059644D01*
X170540236Y-114115467D01*
X170540634Y-114117185D01*
X170549758Y-114164426D01*
X170563977Y-114245492D01*
X170580389Y-114343884D01*
X170582749Y-114358054D01*
X170600181Y-114446800D01*
X170617023Y-114509427D01*
X170629927Y-114533144D01*
X170636122Y-114536456D01*
X170661897Y-114572223D01*
X170693408Y-114634619D01*
X170744336Y-114720204D01*
X170825144Y-114820175D01*
X170920690Y-114917494D01*
X171017131Y-114998108D01*
X171100623Y-115047965D01*
X171101960Y-115048515D01*
X171194160Y-115088126D01*
X171285201Y-115129517D01*
X171294003Y-115133361D01*
X171377140Y-115155096D01*
X171491073Y-115169209D01*
X171622056Y-115175745D01*
X171756340Y-115174750D01*
X171880178Y-115166269D01*
X171979821Y-115150347D01*
X172041523Y-115127029D01*
X172098454Y-115095954D01*
X172154557Y-115081346D01*
X172183805Y-115073875D01*
X172249266Y-115030846D01*
X172327221Y-114958394D01*
X172380818Y-114898612D01*
X172903700Y-114898612D01*
X172903700Y-115159660D01*
X174809353Y-115159660D01*
X174809353Y-114898612D01*
X174000103Y-114898612D01*
X174000103Y-112731911D01*
X175200925Y-112731911D01*
X175200925Y-115159660D01*
X176949949Y-115159660D01*
X176949949Y-114898612D01*
X175514183Y-114898612D01*
X175514183Y-114115467D01*
X176845530Y-114115467D01*
X176845530Y-113854419D01*
X175514183Y-113854419D01*
X175514183Y-112992959D01*
X177002159Y-112992959D01*
X177002159Y-112731911D01*
X175200925Y-112731911D01*
X174000103Y-112731911D01*
X173712950Y-112731911D01*
X173712950Y-114898612D01*
X172903700Y-114898612D01*
X172380818Y-114898612D01*
X172409446Y-114866682D01*
X172487716Y-114765873D01*
X172553805Y-114666129D01*
X172599491Y-114577614D01*
X172616547Y-114510489D01*
X172603827Y-114500605D01*
X172552178Y-114483380D01*
X172474352Y-114466114D01*
X172332156Y-114440065D01*
X172290381Y-114549451D01*
X172261663Y-114605658D01*
X172199367Y-114693466D01*
X172125333Y-114774145D01*
X172030913Y-114847683D01*
X171881667Y-114914563D01*
X171708511Y-114939755D01*
X171506094Y-114924558D01*
X171493294Y-114922460D01*
X171324503Y-114880711D01*
X171190672Y-114813645D01*
X171078558Y-114712370D01*
X170974914Y-114567995D01*
X170921958Y-114462154D01*
X170870703Y-114281829D01*
X170847125Y-114063326D01*
X170850673Y-113803265D01*
X170855819Y-113725548D01*
X170867032Y-113613359D01*
X170883545Y-113528353D01*
X170909014Y-113454285D01*
X170947094Y-113374912D01*
X170981436Y-113312061D01*
X171053505Y-113203931D01*
X171134996Y-113120286D01*
X171236502Y-113053353D01*
X171368613Y-112995363D01*
X171541924Y-112938545D01*
X171593799Y-112924790D01*
X171657681Y-112918990D01*
X171704725Y-112935845D01*
X171739727Y-112953878D01*
X171787364Y-112967000D01*
X171879439Y-112980678D01*
X172006515Y-113035275D01*
X172126466Y-113122313D01*
X172226305Y-113231855D01*
X172293043Y-113353960D01*
X172316438Y-113415677D01*
X172351018Y-113485934D01*
X172389711Y-113519232D01*
X172444981Y-113523662D01*
X172529296Y-113507318D01*
X172663936Y-113475899D01*
X172600473Y-113318123D01*
X172556733Y-113227745D01*
X172479533Y-113106714D01*
X172389235Y-112993441D01*
X172296857Y-112901422D01*
X172213421Y-112844150D01*
X172138700Y-112807478D01*
X172055293Y-112763991D01*
X172040983Y-112757324D01*
X171958305Y-112735303D01*
X171909045Y-112728496D01*
X177472045Y-112728496D01*
X177472045Y-115159660D01*
X178033654Y-115159660D01*
X178092284Y-115159535D01*
X178256160Y-115157810D01*
X178401295Y-115154312D01*
X178519323Y-115149363D01*
X178601877Y-115143283D01*
X178640591Y-115136393D01*
X178676516Y-115121626D01*
X178751696Y-115096073D01*
X178842549Y-115068653D01*
X178904351Y-115049099D01*
X178983742Y-115012316D01*
X179057663Y-114957649D01*
X179144533Y-114873174D01*
X179199644Y-114811793D01*
X179283950Y-114697614D01*
X179337462Y-114595025D01*
X179355502Y-114548638D01*
X179385126Y-114479775D01*
X179405644Y-114441304D01*
X179409794Y-114433044D01*
X179424219Y-114380702D01*
X179441098Y-114295370D01*
X179457581Y-114190786D01*
X179468996Y-114062386D01*
X179471302Y-113916562D01*
X179465236Y-113768341D01*
X179458285Y-113697790D01*
X182327544Y-113697790D01*
X182327544Y-114272096D01*
X184154882Y-114272096D01*
X184154882Y-113697790D01*
X182327544Y-113697790D01*
X179458285Y-113697790D01*
X179451736Y-113631322D01*
X179431739Y-113519107D01*
X179406184Y-113445296D01*
X179391581Y-113416390D01*
X179359265Y-113345404D01*
X179323049Y-113260261D01*
X179317197Y-113246973D01*
X179268406Y-113164469D01*
X179198897Y-113073853D01*
X179118628Y-112985419D01*
X179037558Y-112909463D01*
X178965646Y-112856282D01*
X178912849Y-112836170D01*
X178910688Y-112836113D01*
X178856720Y-112822106D01*
X178790339Y-112790941D01*
X178790312Y-112790925D01*
X178758349Y-112776234D01*
X178715178Y-112764758D01*
X178653967Y-112755970D01*
X178567880Y-112749345D01*
X178450085Y-112744356D01*
X178293748Y-112740478D01*
X178092035Y-112737185D01*
X177472045Y-112728496D01*
X171909045Y-112728496D01*
X171842408Y-112719288D01*
X171708148Y-112709995D01*
X171624563Y-112708870D01*
X171570378Y-112708141D01*
X171443951Y-112714444D01*
X171343721Y-112729622D01*
X171254727Y-112755046D01*
X171058591Y-112846015D01*
X170885416Y-112981976D01*
X170854242Y-113014365D01*
X170782096Y-113104081D01*
X170719495Y-113200298D01*
X170675377Y-113288361D01*
X170658685Y-113353617D01*
X170657355Y-113364016D01*
X170635976Y-113384532D01*
X170622955Y-113399961D01*
X170603114Y-113454425D01*
X170583863Y-113534635D01*
X170570767Y-113613687D01*
X170556544Y-113729156D01*
X170545275Y-113851778D01*
X170538064Y-113966844D01*
X170536016Y-114059644D01*
X169979959Y-114059644D01*
X169979959Y-113854419D01*
X168648613Y-113854419D01*
X168648613Y-112992959D01*
X170136588Y-112992959D01*
X170136588Y-112731911D01*
X168335355Y-112731911D01*
X168335355Y-115159660D01*
X167995992Y-115159660D01*
X167995992Y-114899938D01*
X167173690Y-114885560D01*
X167166874Y-113808735D01*
X167160058Y-112731911D01*
X166847379Y-112731911D01*
X166847379Y-114898612D01*
X166064235Y-114898612D01*
X165409543Y-114898612D01*
X165448035Y-114864611D01*
X165563441Y-114719911D01*
X165655508Y-114557306D01*
X165714568Y-114389568D01*
X165715139Y-114387159D01*
X165739879Y-114289828D01*
X165763342Y-114208838D01*
X165780520Y-114161505D01*
X165782560Y-114156850D01*
X165793896Y-114102743D01*
X165800586Y-114021272D01*
X165802622Y-113928309D01*
X165799996Y-113839728D01*
X165792700Y-113771401D01*
X165780727Y-113739200D01*
X165774178Y-113731364D01*
X165756844Y-113683634D01*
X165742617Y-113611133D01*
X165736845Y-113574889D01*
X165711580Y-113463616D01*
X165677592Y-113353042D01*
X165640535Y-113260119D01*
X165606066Y-113201798D01*
X165550775Y-113140173D01*
X165542138Y-113131238D01*
X165409360Y-112993895D01*
X165282400Y-112884698D01*
X165160243Y-112807200D01*
X165033236Y-112756018D01*
X164891728Y-112725769D01*
X164726067Y-112711072D01*
X164715849Y-112710605D01*
X164556578Y-112709672D01*
X164407988Y-112719764D01*
X164280405Y-112739330D01*
X164184156Y-112766819D01*
X164129567Y-112800680D01*
X164110804Y-112818013D01*
X164065507Y-112836331D01*
X164053138Y-112839201D01*
X164002220Y-112870511D01*
X163932601Y-112928190D01*
X163854650Y-113002078D01*
X163778740Y-113082015D01*
X163715239Y-113157841D01*
X163674520Y-113219394D01*
X163663633Y-113240516D01*
X163625074Y-113310787D01*
X163595530Y-113358427D01*
X163589528Y-113367910D01*
X163562893Y-113426661D01*
X163537136Y-113503142D01*
X163519061Y-113584031D01*
X163500015Y-113740136D01*
X163492867Y-113913913D01*
X162579044Y-113913913D01*
X162536586Y-113894021D01*
X162513978Y-113875118D01*
X162513972Y-113874877D01*
X162490672Y-113860420D01*
X162435663Y-113854419D01*
X162405538Y-113853152D01*
X162363521Y-113839306D01*
X162371257Y-113812119D01*
X162428946Y-113773989D01*
X162447410Y-113763375D01*
X162517205Y-113713043D01*
X162587268Y-113651284D01*
X162604988Y-113632870D01*
X162662995Y-113564880D01*
X162728662Y-113480034D01*
X162793871Y-113389804D01*
X162850502Y-113305664D01*
X162890435Y-113239086D01*
X162905550Y-113201545D01*
X162906412Y-113195034D01*
X162932215Y-113175693D01*
X162959773Y-113154965D01*
X162989567Y-113103905D01*
X163006716Y-113069373D01*
X163051973Y-112992749D01*
X163106479Y-112911148D01*
X163141851Y-112858943D01*
X163178495Y-112796951D01*
X163192703Y-112761045D01*
X163181736Y-112748839D01*
X163125769Y-112736310D01*
X163027447Y-112731911D01*
X162862191Y-112731911D01*
X162779451Y-112847124D01*
X162746827Y-112893816D01*
X162710742Y-112949693D01*
X162696711Y-112977841D01*
X162691592Y-112989370D01*
X162662887Y-113036917D01*
X162614576Y-113111093D01*
X162553135Y-113201798D01*
X162515581Y-113257065D01*
X162461023Y-113340521D01*
X162423511Y-113402153D01*
X162409558Y-113431534D01*
X162406821Y-113438428D01*
X162378028Y-113477915D01*
X162324529Y-113540988D01*
X162254643Y-113617652D01*
X162246871Y-113625895D01*
X162168604Y-113703600D01*
X162097362Y-113758211D01*
X162021313Y-113793801D01*
X161928623Y-113814443D01*
X161807460Y-113824211D01*
X161645992Y-113827177D01*
X161417575Y-113828314D01*
X161417575Y-112731911D01*
X161104317Y-112731911D01*
X159119222Y-112731911D01*
X158807092Y-112731911D01*
X155178520Y-112731911D01*
X155178520Y-111948766D01*
X154473690Y-111948766D01*
X154473690Y-113671685D01*
X152802981Y-113671685D01*
X146903289Y-113671685D01*
X146903289Y-111452774D01*
X149043885Y-111452774D01*
X149043885Y-111427316D01*
X164654574Y-111427316D01*
X164654862Y-111459919D01*
X164660992Y-111526087D01*
X164680199Y-111561773D01*
X164719143Y-111583035D01*
X164720642Y-111583609D01*
X164829211Y-111640148D01*
X164955496Y-111729260D01*
X165087539Y-111840850D01*
X165213381Y-111964825D01*
X165321062Y-112091091D01*
X165340950Y-112115778D01*
X165401828Y-112168341D01*
X165466922Y-112183710D01*
X165542138Y-112183710D01*
X165542138Y-110443529D01*
X166338409Y-110443529D01*
X166365803Y-110616098D01*
X166444579Y-110783965D01*
X166501080Y-110856668D01*
X166587039Y-110933864D01*
X166677439Y-110988353D01*
X166756816Y-111008992D01*
X166773015Y-111010222D01*
X166793931Y-111028169D01*
X166772166Y-111063126D01*
X166710329Y-111109454D01*
X166624936Y-111167903D01*
X166535050Y-111256030D01*
X166483061Y-111355886D01*
X166460811Y-111479577D01*
X166462870Y-111635601D01*
X166501857Y-111802204D01*
X166578679Y-111938582D01*
X166690915Y-112040703D01*
X166836141Y-112104532D01*
X166881794Y-112117777D01*
X166951492Y-112142175D01*
X166989651Y-112161453D01*
X167023401Y-112175828D01*
X167093518Y-112182962D01*
X167171350Y-112177484D01*
X167232780Y-112159582D01*
X167254053Y-112150140D01*
X167322458Y-112126572D01*
X167406819Y-112102660D01*
X167452601Y-112088296D01*
X167584737Y-112013589D01*
X167690845Y-111902385D01*
X167759351Y-111765743D01*
X167771038Y-111730515D01*
X167797460Y-111662170D01*
X167817797Y-111623761D01*
X167835870Y-111582138D01*
X167833339Y-111502704D01*
X167801806Y-111411102D01*
X167769864Y-111342337D01*
X167738201Y-111266173D01*
X167734889Y-111258417D01*
X167682314Y-111195384D01*
X167591116Y-111136595D01*
X167546488Y-111113410D01*
X167486720Y-111078795D01*
X167458318Y-111057116D01*
X167462161Y-111046656D01*
X167499877Y-111018849D01*
X167536798Y-111000074D01*
X168240044Y-111000074D01*
X168242547Y-111121726D01*
X168249761Y-111212048D01*
X168262323Y-111280190D01*
X168280868Y-111335303D01*
X168291617Y-111365733D01*
X168313341Y-111441182D01*
X168335611Y-111531089D01*
X168346857Y-111577798D01*
X168387712Y-111704708D01*
X168443362Y-111809057D01*
X168525060Y-111913560D01*
X168563156Y-111950619D01*
X168652366Y-112015694D01*
X168755825Y-112073781D01*
X168855903Y-112115508D01*
X168934970Y-112131500D01*
X168964156Y-112135566D01*
X169001028Y-112157605D01*
X169032685Y-112175504D01*
X169092395Y-112183710D01*
X169148397Y-112176564D01*
X169183762Y-112157605D01*
X169201577Y-112143118D01*
X169252251Y-112131500D01*
X169312226Y-112124887D01*
X169432459Y-112078016D01*
X169550229Y-111993127D01*
X169655269Y-111878460D01*
X169737312Y-111742252D01*
X169738697Y-111739266D01*
X169769268Y-111658753D01*
X169764975Y-111611377D01*
X169720274Y-111588954D01*
X169629618Y-111583299D01*
X169551622Y-111584685D01*
X169505453Y-111594093D01*
X169482998Y-111619315D01*
X169469561Y-111668139D01*
X169444318Y-111733291D01*
X169373739Y-111824356D01*
X169277526Y-111896495D01*
X169171409Y-111935596D01*
X169073541Y-111945760D01*
X168941438Y-111930766D01*
X168827370Y-111875017D01*
X168724642Y-111774709D01*
X168626557Y-111626036D01*
X168624089Y-111621639D01*
X168580293Y-111535858D01*
X168552694Y-111456952D01*
X168536118Y-111365227D01*
X168525391Y-111240989D01*
X168522597Y-111190638D01*
X168520323Y-111097499D01*
X168522856Y-111033063D01*
X168529968Y-111008992D01*
X168556509Y-111024161D01*
X168610089Y-111065870D01*
X168678395Y-111124813D01*
X168738707Y-111174021D01*
X168892713Y-111257762D01*
X169059653Y-111291278D01*
X169242657Y-111275406D01*
X169301614Y-111260681D01*
X169381598Y-111232828D01*
X169431124Y-111205352D01*
X169462960Y-111181666D01*
X169503567Y-111165621D01*
X169512160Y-111164098D01*
X169557133Y-111132667D01*
X169613831Y-111069884D01*
X169673145Y-110988014D01*
X169725968Y-110899318D01*
X169763193Y-110816059D01*
X169793831Y-110684641D01*
X169806043Y-110512178D01*
X169794632Y-110335958D01*
X169792727Y-110327368D01*
X170153803Y-110327368D01*
X170154905Y-110344852D01*
X170193012Y-110353835D01*
X170275635Y-110356372D01*
X170421074Y-110356372D01*
X170500586Y-110189771D01*
X170501715Y-110187412D01*
X170547727Y-110102242D01*
X170592294Y-110037351D01*
X170625917Y-110006620D01*
X170672041Y-109986317D01*
X170736999Y-109951714D01*
X170795648Y-109926670D01*
X170917729Y-109912054D01*
X171052555Y-109933112D01*
X171185229Y-109988619D01*
X171222107Y-110010623D01*
X171291470Y-110063475D01*
X171344175Y-110129591D01*
X171396388Y-110227239D01*
X171431358Y-110304013D01*
X171457382Y-110382851D01*
X171465704Y-110460647D01*
X171461150Y-110562360D01*
X171456911Y-110600462D01*
X171434734Y-110704941D01*
X171400654Y-110807871D01*
X171360018Y-110896804D01*
X171318175Y-110959292D01*
X171280472Y-110982888D01*
X171277174Y-110983205D01*
X171235740Y-111000818D01*
X171177975Y-111037095D01*
X171100135Y-111074949D01*
X170976877Y-111095636D01*
X170841685Y-111087398D01*
X170709811Y-111053010D01*
X170596505Y-110995245D01*
X170517019Y-110916877D01*
X170506346Y-110901345D01*
X170474755Y-110871414D01*
X170429447Y-110862625D01*
X170351701Y-110869627D01*
X170310859Y-110875173D01*
X170249005Y-110884569D01*
X170222071Y-110890205D01*
X170220997Y-110904691D01*
X170226493Y-110960085D01*
X170238285Y-111044680D01*
X170254210Y-111145536D01*
X170272108Y-111249713D01*
X170289818Y-111344272D01*
X170305179Y-111416272D01*
X170316028Y-111452774D01*
X170327499Y-111489737D01*
X170344692Y-111567986D01*
X170364769Y-111674901D01*
X170385362Y-111798663D01*
X170433343Y-112105395D01*
X171624563Y-112105395D01*
X171624563Y-111870452D01*
X171141624Y-111870452D01*
X171085867Y-111870412D01*
X170927713Y-111869539D01*
X170813182Y-111867106D01*
X170735644Y-111862572D01*
X170688469Y-111855395D01*
X170665026Y-111845032D01*
X170658685Y-111830940D01*
X170654941Y-111803980D01*
X170632802Y-111746100D01*
X170632571Y-111745690D01*
X170616643Y-111699860D01*
X170597693Y-111620706D01*
X170578131Y-111522273D01*
X170560366Y-111418606D01*
X170546808Y-111323747D01*
X170539867Y-111251742D01*
X170541953Y-111216634D01*
X170552200Y-111213109D01*
X170598135Y-111223319D01*
X170665270Y-111251794D01*
X170692676Y-111264564D01*
X170771354Y-111290221D01*
X170867400Y-111303771D01*
X170998048Y-111308132D01*
X171025717Y-111308197D01*
X171133085Y-111305596D01*
X171209498Y-111295542D01*
X171272490Y-111274481D01*
X171339594Y-111238854D01*
X171400976Y-111198967D01*
X171525769Y-111091332D01*
X171622430Y-110969821D01*
X171623532Y-110967464D01*
X172080472Y-110967464D01*
X172086331Y-111165337D01*
X172099942Y-111350668D01*
X172121109Y-111510399D01*
X172149636Y-111631473D01*
X172205091Y-111756713D01*
X172291712Y-111885908D01*
X172395510Y-111996240D01*
X172506400Y-112077146D01*
X172614299Y-112118068D01*
X172638044Y-112122603D01*
X172702432Y-112140900D01*
X172735423Y-112159876D01*
X172736817Y-112161711D01*
X172774429Y-112177308D01*
X172838438Y-112183710D01*
X172845276Y-112183639D01*
X172907719Y-112176088D01*
X172941454Y-112159876D01*
X172947760Y-112153893D01*
X172993594Y-112134415D01*
X173064228Y-112117789D01*
X173166207Y-112079531D01*
X173275487Y-112003504D01*
X173379340Y-111900323D01*
X173465168Y-111780586D01*
X173497644Y-111710094D01*
X173533057Y-111603078D01*
X173558903Y-111491932D01*
X173559684Y-111487491D01*
X173578582Y-111393913D01*
X173597603Y-111321069D01*
X173612743Y-111284398D01*
X173617948Y-111270740D01*
X173625563Y-111212947D01*
X173630779Y-111122898D01*
X173633605Y-111012653D01*
X173634051Y-110894269D01*
X173632125Y-110779807D01*
X173627837Y-110681325D01*
X173621196Y-110610882D01*
X173612211Y-110580537D01*
X173601088Y-110560630D01*
X173585377Y-110500642D01*
X173572241Y-110417394D01*
X173568706Y-110391719D01*
X173529018Y-110237453D01*
X173462615Y-110084394D01*
X173378127Y-109949539D01*
X173284182Y-109849889D01*
X173190059Y-109786290D01*
X173030203Y-109723992D01*
X172850309Y-109706122D01*
X172645259Y-109731735D01*
X172552009Y-109759412D01*
X172412912Y-109838621D01*
X172297536Y-109960077D01*
X172203968Y-110126037D01*
X172130291Y-110338757D01*
X172111355Y-110429176D01*
X172092788Y-110586326D01*
X172082559Y-110770107D01*
X172080472Y-110967464D01*
X171623532Y-110967464D01*
X171679640Y-110847460D01*
X171688711Y-110817362D01*
X171713346Y-110748991D01*
X171733383Y-110710092D01*
X171738347Y-110701344D01*
X171749337Y-110647579D01*
X171754249Y-110567937D01*
X171753115Y-110481856D01*
X171745965Y-110408771D01*
X171732831Y-110368119D01*
X171722803Y-110351076D01*
X171699869Y-110292309D01*
X171675860Y-110212795D01*
X171648317Y-110139634D01*
X171568574Y-110014518D01*
X171458337Y-109898651D01*
X171330533Y-109804684D01*
X171198089Y-109745268D01*
X171168423Y-109737171D01*
X170979066Y-109707777D01*
X170790929Y-109713357D01*
X170617724Y-109752433D01*
X170473159Y-109823523D01*
X170408586Y-109876193D01*
X170316497Y-109978972D01*
X170243256Y-110092976D01*
X170202162Y-110199743D01*
X170200588Y-110206890D01*
X170179569Y-110277011D01*
X170156482Y-110323741D01*
X170153803Y-110327368D01*
X169792727Y-110327368D01*
X169759721Y-110178614D01*
X169695319Y-110041392D01*
X169581965Y-109902847D01*
X169436708Y-109796315D01*
X169268237Y-109727911D01*
X169085236Y-109703751D01*
X169054516Y-109704300D01*
X168862899Y-109733242D01*
X168688994Y-109802439D01*
X168540479Y-109906708D01*
X168425029Y-110040870D01*
X168350322Y-110199743D01*
X168331069Y-110259501D01*
X168301512Y-110341221D01*
X168278245Y-110394265D01*
X168276814Y-110397262D01*
X168265675Y-110447568D01*
X168255561Y-110536900D01*
X168247536Y-110653556D01*
X168242661Y-110785838D01*
X168241616Y-110837945D01*
X168240044Y-111000074D01*
X167536798Y-111000074D01*
X167565614Y-110985421D01*
X167701898Y-110907629D01*
X167806175Y-110801622D01*
X167873366Y-110664895D01*
X167908150Y-110490688D01*
X167911890Y-110438700D01*
X167896076Y-110250203D01*
X167835329Y-110082750D01*
X167733568Y-109940786D01*
X167594713Y-109828751D01*
X167422683Y-109751090D01*
X167221397Y-109712243D01*
X167036477Y-109711544D01*
X166838972Y-109749656D01*
X166668850Y-109828280D01*
X166529908Y-109945567D01*
X166425942Y-110099668D01*
X166362346Y-110264406D01*
X166338409Y-110443529D01*
X165542138Y-110443529D01*
X165542138Y-109729856D01*
X165254985Y-109729856D01*
X165254985Y-110687078D01*
X165254551Y-110903994D01*
X165253349Y-111103409D01*
X165251473Y-111279538D01*
X165249021Y-111426598D01*
X165246087Y-111538803D01*
X165242769Y-111610368D01*
X165239163Y-111635508D01*
X165230076Y-111632129D01*
X165188095Y-111605756D01*
X165128217Y-111561786D01*
X165106156Y-111545568D01*
X165036143Y-111499044D01*
X164948660Y-111445002D01*
X164856003Y-111390565D01*
X164770463Y-111342860D01*
X164704334Y-111309012D01*
X164669911Y-111296146D01*
X164664349Y-111305120D01*
X164657321Y-111352627D01*
X164654574Y-111427316D01*
X149043885Y-111427316D01*
X149043885Y-107745854D01*
X168942292Y-107752398D01*
X188840699Y-107758941D01*
X188853859Y-120197789D01*
X184154882Y-120202552D01*
X182363248Y-120204367D01*
X178033654Y-120208756D01*
X176949949Y-120209854D01*
X175872636Y-120210945D01*
X175872636Y-120210945D01*
G37*
G36*
X159701859Y-113985996D02*
G01*
X159835785Y-113989969D01*
X159933818Y-113997553D01*
X160004451Y-114009427D01*
X160056178Y-114026273D01*
X160071755Y-114033043D01*
X160156317Y-114071359D01*
X160206934Y-114099790D01*
X160236256Y-114126818D01*
X160256929Y-114160929D01*
X160277462Y-114197008D01*
X160318627Y-114255977D01*
X160332898Y-114283516D01*
X160344566Y-114359940D01*
X160342834Y-114481095D01*
X160342008Y-114495384D01*
X160333798Y-114590510D01*
X160318541Y-114653754D01*
X160289458Y-114703281D01*
X160239768Y-114757255D01*
X160196559Y-114796719D01*
X160140657Y-114834204D01*
X160073755Y-114861265D01*
X159987620Y-114879538D01*
X159874021Y-114890659D01*
X159724726Y-114896264D01*
X159531501Y-114897989D01*
X159120350Y-114898612D01*
X159120350Y-113984943D01*
X159540608Y-113984943D01*
X159701859Y-113985996D01*
X159701859Y-113985996D01*
G37*
G36*
X162014657Y-114089522D02*
G01*
X162180342Y-114091389D01*
X162306262Y-114096692D01*
X162400653Y-114107080D01*
X162471756Y-114124200D01*
X162527808Y-114149700D01*
X162577047Y-114185227D01*
X162627714Y-114232429D01*
X162648919Y-114254387D01*
X162686953Y-114307612D01*
X162706792Y-114371938D01*
X162716141Y-114467882D01*
X162715237Y-114587828D01*
X162690151Y-114682269D01*
X162632579Y-114757421D01*
X162534764Y-114828717D01*
X162513185Y-114841950D01*
X162472130Y-114864908D01*
X162430662Y-114881770D01*
X162380151Y-114893785D01*
X162311967Y-114902200D01*
X162217481Y-114908265D01*
X162088064Y-114913226D01*
X161915084Y-114918333D01*
X161417575Y-114932416D01*
X161417575Y-114089362D01*
X161912338Y-114089362D01*
X162014657Y-114089522D01*
X162014657Y-114089522D01*
G37*
G36*
X164701104Y-112934432D02*
G01*
X164748193Y-112947834D01*
X164846385Y-112975833D01*
X164948253Y-113004927D01*
X165015646Y-113026694D01*
X165075358Y-113052229D01*
X165098356Y-113071184D01*
X165119348Y-113097724D01*
X165169906Y-113128823D01*
X165225962Y-113169604D01*
X165275750Y-113234667D01*
X165275838Y-113234851D01*
X165305677Y-113285260D01*
X165329318Y-113306217D01*
X165343206Y-113322620D01*
X165367911Y-113377021D01*
X165395757Y-113456320D01*
X165417775Y-113523646D01*
X165446020Y-113602833D01*
X165466425Y-113651752D01*
X165469301Y-113658638D01*
X165479806Y-113714378D01*
X165486442Y-113800573D01*
X165489271Y-113903464D01*
X165488360Y-114009294D01*
X165483772Y-114104304D01*
X165475571Y-114174737D01*
X165463823Y-114206834D01*
X165447668Y-114230110D01*
X165437719Y-114284525D01*
X165437001Y-114299905D01*
X165410572Y-114397616D01*
X165352829Y-114511267D01*
X165273033Y-114628479D01*
X165180446Y-114736874D01*
X165084326Y-114824074D01*
X164993937Y-114877701D01*
X164854943Y-114917191D01*
X164651550Y-114935178D01*
X164442514Y-114912746D01*
X164334327Y-114884089D01*
X164154049Y-114800565D01*
X164010289Y-114679740D01*
X163903195Y-114521759D01*
X163832917Y-114326762D01*
X163824065Y-114286873D01*
X163800919Y-114116398D01*
X163795387Y-113933356D01*
X163806289Y-113750439D01*
X163832442Y-113580333D01*
X163872666Y-113435729D01*
X163925779Y-113329316D01*
X163927988Y-113326189D01*
X163961864Y-113270611D01*
X163975848Y-113232978D01*
X163977223Y-113227428D01*
X164006110Y-113193601D01*
X164060689Y-113152305D01*
X164063223Y-113150672D01*
X164145005Y-113097507D01*
X164223194Y-113046026D01*
X164241201Y-113035309D01*
X164326160Y-112999999D01*
X164418980Y-112977332D01*
X164451387Y-112971871D01*
X164525421Y-112953434D01*
X164570580Y-112933558D01*
X164615821Y-112920114D01*
X164701104Y-112934432D01*
X164701104Y-112934432D01*
G37*
G36*
X167333908Y-109943559D02*
G01*
X167437234Y-110002234D01*
X167534189Y-110101690D01*
X167591006Y-110202471D01*
X167624635Y-110340026D01*
X167625812Y-110488492D01*
X167592647Y-110630754D01*
X167590681Y-110635768D01*
X167542201Y-110722497D01*
X167475362Y-110800502D01*
X167403413Y-110856815D01*
X167339602Y-110878468D01*
X167321528Y-110881023D01*
X167272487Y-110907585D01*
X167245750Y-110924316D01*
X167169090Y-110938115D01*
X167069721Y-110931718D01*
X166963329Y-110906771D01*
X166865600Y-110864917D01*
X166754194Y-110788035D01*
X166680592Y-110698177D01*
X166637782Y-110584135D01*
X166623986Y-110515881D01*
X166617700Y-110392894D01*
X166641064Y-110265005D01*
X166657746Y-110220002D01*
X166702622Y-110140757D01*
X166759417Y-110066832D01*
X166816785Y-110012218D01*
X166863377Y-109990904D01*
X166874045Y-109989373D01*
X166904971Y-109961707D01*
X166905167Y-109961197D01*
X166935711Y-109945009D01*
X167004095Y-109930533D01*
X167096406Y-109920746D01*
X167209651Y-109919647D01*
X167333908Y-109943559D01*
X167333908Y-109943559D01*
G37*
G36*
X167263439Y-111165261D02*
G01*
X167336124Y-111187848D01*
X167352026Y-111198015D01*
X167408711Y-111248174D01*
X167466308Y-111314043D01*
X167516379Y-111401186D01*
X167544182Y-111531164D01*
X167524806Y-111662423D01*
X167458450Y-111783188D01*
X167434176Y-111810891D01*
X167323018Y-111895146D01*
X167195312Y-111939685D01*
X167062624Y-111943705D01*
X166936518Y-111906402D01*
X166828559Y-111826971D01*
X166804166Y-111798538D01*
X166760321Y-111730015D01*
X166742960Y-111674347D01*
X166737286Y-111632445D01*
X166716855Y-111596351D01*
X166692100Y-111563797D01*
X166712455Y-111516731D01*
X166719150Y-111506501D01*
X166741954Y-111453674D01*
X166766126Y-111379606D01*
X166776109Y-111349474D01*
X166808604Y-111284736D01*
X166842315Y-111251640D01*
X166877808Y-111234336D01*
X166934645Y-111194570D01*
X166980743Y-111172913D01*
X167066326Y-111158119D01*
X167167032Y-111155460D01*
X167263439Y-111165261D01*
X167263439Y-111165261D01*
G37*
G36*
X169159962Y-109918913D02*
G01*
X169222238Y-109941061D01*
X169295571Y-109989336D01*
X169335721Y-110020893D01*
X169426610Y-110113702D01*
X169487609Y-110209607D01*
X169509975Y-110296095D01*
X169515113Y-110333036D01*
X169536177Y-110369424D01*
X169546033Y-110382328D01*
X169558499Y-110434825D01*
X169561537Y-110504239D01*
X169554928Y-110567857D01*
X169538448Y-110602964D01*
X169532844Y-110608698D01*
X169513307Y-110653730D01*
X169496707Y-110723690D01*
X169475328Y-110794286D01*
X169408186Y-110898945D01*
X169312936Y-110980418D01*
X169203725Y-111024194D01*
X169189894Y-111026863D01*
X169119578Y-111045677D01*
X169075140Y-111065873D01*
X169059060Y-111074770D01*
X169027916Y-111062470D01*
X169002105Y-111045018D01*
X168945981Y-111035097D01*
X168908096Y-111032638D01*
X168795354Y-110992376D01*
X168692166Y-110902108D01*
X168597468Y-110760996D01*
X168570050Y-110692155D01*
X168548726Y-110566494D01*
X168550160Y-110430558D01*
X168573620Y-110303768D01*
X168618375Y-110205547D01*
X168626257Y-110194231D01*
X168660722Y-110137477D01*
X168674718Y-110101289D01*
X168675197Y-110096282D01*
X168704348Y-110055034D01*
X168768966Y-110009819D01*
X168855508Y-109967421D01*
X168950429Y-109934626D01*
X169040185Y-109918217D01*
X169082870Y-109915687D01*
X169159962Y-109918913D01*
X169159962Y-109918913D01*
G37*
G36*
X172874297Y-109918840D02*
G01*
X172939436Y-109926079D01*
X173004072Y-109944287D01*
X173060197Y-109981836D01*
X173128496Y-110049342D01*
X173178360Y-110107733D01*
X173230364Y-110183593D01*
X173256950Y-110242640D01*
X173274352Y-110304563D01*
X173303830Y-110380070D01*
X173312073Y-110409828D01*
X173321624Y-110486462D01*
X173328779Y-110595237D01*
X173333555Y-110726785D01*
X173335969Y-110871740D01*
X173336038Y-111020735D01*
X173333778Y-111164403D01*
X173329207Y-111293378D01*
X173322343Y-111398291D01*
X173313201Y-111469777D01*
X173301799Y-111498468D01*
X173284291Y-111511970D01*
X173269168Y-111558141D01*
X173259759Y-111622099D01*
X173210754Y-111726716D01*
X173130356Y-111822715D01*
X173030445Y-111897101D01*
X172922902Y-111936880D01*
X172895542Y-111940556D01*
X172758274Y-111932889D01*
X172631612Y-111886091D01*
X172532326Y-111805790D01*
X172518955Y-111788203D01*
X172469001Y-111695525D01*
X172424953Y-111576875D01*
X172393567Y-111452941D01*
X172381604Y-111344411D01*
X172374860Y-111292554D01*
X172355499Y-111256988D01*
X172352664Y-111253579D01*
X172342958Y-111211362D01*
X172335838Y-111132844D01*
X172331381Y-111030655D01*
X172329661Y-110917427D01*
X172330752Y-110805792D01*
X172334730Y-110708379D01*
X172341670Y-110637821D01*
X172351645Y-110606749D01*
X172364801Y-110577039D01*
X172378759Y-110509589D01*
X172390091Y-110419579D01*
X172402991Y-110323821D01*
X172441964Y-110195709D01*
X172510394Y-110091504D01*
X172616914Y-109995049D01*
X172662357Y-109961573D01*
X172724220Y-109926874D01*
X172786524Y-109915100D01*
X172874297Y-109918840D01*
X172874297Y-109918840D01*
G37*
G36*
X178222559Y-112997773D02*
G01*
X178303206Y-112999785D01*
X178462590Y-113005335D01*
X178580893Y-113012553D01*
X178665960Y-113022219D01*
X178725637Y-113035114D01*
X178767772Y-113052018D01*
X178787290Y-113063592D01*
X178857430Y-113118374D01*
X178931328Y-113190820D01*
X178997870Y-113268337D01*
X179045946Y-113338330D01*
X179064440Y-113388207D01*
X179068059Y-113415005D01*
X179086061Y-113436742D01*
X179106631Y-113451523D01*
X179128694Y-113509578D01*
X179145583Y-113602788D01*
X179157259Y-113721675D01*
X179163689Y-113856760D01*
X179164834Y-113998563D01*
X179160660Y-114137605D01*
X179151129Y-114264407D01*
X179136205Y-114369490D01*
X179115853Y-114443376D01*
X179090036Y-114476584D01*
X179081640Y-114481233D01*
X179064440Y-114517569D01*
X179064374Y-114519348D01*
X179043852Y-114565279D01*
X178994348Y-114630958D01*
X178927003Y-114704208D01*
X178852960Y-114772851D01*
X178783364Y-114824712D01*
X178756802Y-114840294D01*
X178717565Y-114858147D01*
X178670147Y-114871023D01*
X178605742Y-114880020D01*
X178515546Y-114886238D01*
X178390754Y-114890777D01*
X178222559Y-114894736D01*
X177759199Y-114904434D01*
X177759199Y-112987138D01*
X178222559Y-112997773D01*
X178222559Y-112997773D01*
G37*
D12*
G36*
X146225333Y-79394667D02*
G01*
X138774667Y-79394667D01*
X138774667Y-73427277D01*
X139452000Y-73427277D01*
X139452237Y-73429907D01*
X139499826Y-73538412D01*
X139620350Y-73765911D01*
X139799754Y-74088500D01*
X140023982Y-74482276D01*
X140278980Y-74923335D01*
X140550692Y-75387772D01*
X140825062Y-75851683D01*
X141088036Y-76291165D01*
X141325557Y-76682314D01*
X141523570Y-77001225D01*
X141668020Y-77223996D01*
X141744851Y-77326721D01*
X141752454Y-77333500D01*
X141827890Y-77386986D01*
X141931397Y-77427512D01*
X142086518Y-77457359D01*
X142316797Y-77478809D01*
X142645777Y-77494142D01*
X143097003Y-77505641D01*
X143694016Y-77515586D01*
X145463333Y-77541505D01*
X145463333Y-76685334D01*
X143958172Y-76685334D01*
X143699078Y-76684845D01*
X143187161Y-76679116D01*
X142811891Y-76665589D01*
X142550256Y-76642566D01*
X142379244Y-76608348D01*
X142275843Y-76561240D01*
X142261167Y-76548672D01*
X142150530Y-76409326D01*
X141976894Y-76151514D01*
X141755623Y-75799530D01*
X141502087Y-75377673D01*
X141231650Y-74910240D01*
X140364626Y-73383334D01*
X141239509Y-73383334D01*
X141819441Y-74420500D01*
X141866035Y-74503295D01*
X142099934Y-74904531D01*
X142324107Y-75267942D01*
X142515083Y-75556415D01*
X142649390Y-75732834D01*
X142899407Y-76008000D01*
X145463333Y-76008000D01*
X145463333Y-75330667D01*
X143104197Y-75330667D01*
X142943948Y-75097834D01*
X142892799Y-75019219D01*
X142749737Y-74783150D01*
X142567335Y-74469399D01*
X142372700Y-74124167D01*
X142287157Y-73969972D01*
X144181457Y-73969972D01*
X144226536Y-74266170D01*
X144364497Y-74473670D01*
X144604647Y-74617541D01*
X144878816Y-74640998D01*
X145138399Y-74541786D01*
X145334793Y-74317645D01*
X145341325Y-74304912D01*
X145425935Y-74116908D01*
X145457603Y-74001371D01*
X145422016Y-73863343D01*
X145259736Y-73625853D01*
X145018132Y-73458942D01*
X145008056Y-73454865D01*
X144716544Y-73415707D01*
X144459549Y-73511000D01*
X144270157Y-73707002D01*
X144181457Y-73969972D01*
X142287157Y-73969972D01*
X141961702Y-73383333D01*
X141600605Y-73383333D01*
X141239509Y-73383334D01*
X140364626Y-73383334D01*
X139908313Y-73383334D01*
X139725509Y-73387035D01*
X139528512Y-73402994D01*
X139452000Y-73427277D01*
X138774667Y-73427277D01*
X138774667Y-71605334D01*
X146225333Y-71605334D01*
X146225333Y-79394667D01*
X146225333Y-79394667D01*
G37*
X146225333Y-79394667D02*
X138774667Y-79394667D01*
X138774667Y-73427277D01*
X139452000Y-73427277D01*
X139452237Y-73429907D01*
X139499826Y-73538412D01*
X139620350Y-73765911D01*
X139799754Y-74088500D01*
X140023982Y-74482276D01*
X140278980Y-74923335D01*
X140550692Y-75387772D01*
X140825062Y-75851683D01*
X141088036Y-76291165D01*
X141325557Y-76682314D01*
X141523570Y-77001225D01*
X141668020Y-77223996D01*
X141744851Y-77326721D01*
X141752454Y-77333500D01*
X141827890Y-77386986D01*
X141931397Y-77427512D01*
X142086518Y-77457359D01*
X142316797Y-77478809D01*
X142645777Y-77494142D01*
X143097003Y-77505641D01*
X143694016Y-77515586D01*
X145463333Y-77541505D01*
X145463333Y-76685334D01*
X143958172Y-76685334D01*
X143699078Y-76684845D01*
X143187161Y-76679116D01*
X142811891Y-76665589D01*
X142550256Y-76642566D01*
X142379244Y-76608348D01*
X142275843Y-76561240D01*
X142261167Y-76548672D01*
X142150530Y-76409326D01*
X141976894Y-76151514D01*
X141755623Y-75799530D01*
X141502087Y-75377673D01*
X141231650Y-74910240D01*
X140364626Y-73383334D01*
X141239509Y-73383334D01*
X141819441Y-74420500D01*
X141866035Y-74503295D01*
X142099934Y-74904531D01*
X142324107Y-75267942D01*
X142515083Y-75556415D01*
X142649390Y-75732834D01*
X142899407Y-76008000D01*
X145463333Y-76008000D01*
X145463333Y-75330667D01*
X143104197Y-75330667D01*
X142943948Y-75097834D01*
X142892799Y-75019219D01*
X142749737Y-74783150D01*
X142567335Y-74469399D01*
X142372700Y-74124167D01*
X142287157Y-73969972D01*
X144181457Y-73969972D01*
X144226536Y-74266170D01*
X144364497Y-74473670D01*
X144604647Y-74617541D01*
X144878816Y-74640998D01*
X145138399Y-74541786D01*
X145334793Y-74317645D01*
X145341325Y-74304912D01*
X145425935Y-74116908D01*
X145457603Y-74001371D01*
X145422016Y-73863343D01*
X145259736Y-73625853D01*
X145018132Y-73458942D01*
X145008056Y-73454865D01*
X144716544Y-73415707D01*
X144459549Y-73511000D01*
X144270157Y-73707002D01*
X144181457Y-73969972D01*
X142287157Y-73969972D01*
X141961702Y-73383333D01*
X141600605Y-73383333D01*
X141239509Y-73383334D01*
X140364626Y-73383334D01*
X139908313Y-73383334D01*
X139725509Y-73387035D01*
X139528512Y-73402994D01*
X139452000Y-73427277D01*
X138774667Y-73427277D01*
X138774667Y-71605334D01*
X146225333Y-71605334D01*
X146225333Y-79394667D01*
D13*
X169980000Y-71980000D02*
X169980000Y-73250000D01*
X171250000Y-71980000D02*
X169980000Y-71980000D01*
X176710000Y-74292929D02*
X176710000Y-74690000D01*
X175950000Y-74292929D02*
X175950000Y-74690000D01*
X176710000Y-83350000D02*
X176710000Y-77350000D01*
X175950000Y-83350000D02*
X176710000Y-83350000D01*
X175950000Y-77350000D02*
X175950000Y-83350000D01*
X175060000Y-74690000D02*
X175060000Y-77350000D01*
X174170000Y-74292929D02*
X174170000Y-74690000D01*
X173410000Y-74292929D02*
X173410000Y-74690000D01*
X174170000Y-83350000D02*
X174170000Y-77350000D01*
X173410000Y-83350000D02*
X174170000Y-83350000D01*
X173410000Y-77350000D02*
X173410000Y-83350000D01*
X172520000Y-74690000D02*
X172520000Y-77350000D01*
X171630000Y-74360000D02*
X171630000Y-74690000D01*
X170870000Y-74360000D02*
X170870000Y-74690000D01*
X171530000Y-77350000D02*
X171530000Y-83350000D01*
X171410000Y-77350000D02*
X171410000Y-83350000D01*
X171290000Y-77350000D02*
X171290000Y-83350000D01*
X171170000Y-77350000D02*
X171170000Y-83350000D01*
X171050000Y-77350000D02*
X171050000Y-83350000D01*
X170930000Y-77350000D02*
X170930000Y-83350000D01*
X171630000Y-83350000D02*
X171630000Y-77350000D01*
X170870000Y-83350000D02*
X171630000Y-83350000D01*
X170870000Y-77350000D02*
X170870000Y-83350000D01*
X169920000Y-77350000D02*
X169920000Y-74690000D01*
X177660000Y-77350000D02*
X169920000Y-77350000D01*
X177660000Y-74690000D02*
X177660000Y-77350000D01*
X169920000Y-74690000D02*
X177660000Y-74690000D01*
X120500000Y-120395000D02*
X120500000Y-122895000D01*
X119250000Y-121645000D02*
X121750000Y-121645000D01*
X206750000Y-121645000D02*
X204250000Y-121645000D01*
X201640000Y-119085000D02*
X201640000Y-126065000D01*
X201640000Y-126085000D02*
X124360000Y-126085000D01*
X124360000Y-126085000D02*
X124360000Y-119085000D01*
X201640000Y-112205000D02*
X201640000Y-105205000D01*
X201640000Y-105205000D02*
X124360000Y-105205000D01*
X124360000Y-105205000D02*
X124360000Y-112205000D01*
X124360000Y-119085000D02*
X120000000Y-119085000D01*
D11*
X168432380Y-77301666D02*
X169146666Y-77301666D01*
X169289523Y-77254047D01*
X169384761Y-77158809D01*
X169432380Y-77015952D01*
X169432380Y-76920714D01*
X168527619Y-77730238D02*
X168480000Y-77777857D01*
X168432380Y-77873095D01*
X168432380Y-78111190D01*
X168480000Y-78206428D01*
X168527619Y-78254047D01*
X168622857Y-78301666D01*
X168718095Y-78301666D01*
X168860952Y-78254047D01*
X169432380Y-77682619D01*
X169432380Y-78301666D01*
X163785714Y-127073571D02*
X163642857Y-127121190D01*
X163595238Y-127168809D01*
X163547619Y-127264047D01*
X163547619Y-127406904D01*
X163595238Y-127502142D01*
X163642857Y-127549761D01*
X163738095Y-127597380D01*
X164119047Y-127597380D01*
X164119047Y-126597380D01*
X163785714Y-126597380D01*
X163690476Y-126645000D01*
X163642857Y-126692619D01*
X163595238Y-126787857D01*
X163595238Y-126883095D01*
X163642857Y-126978333D01*
X163690476Y-127025952D01*
X163785714Y-127073571D01*
X164119047Y-127073571D01*
X163261904Y-126597380D02*
X162690476Y-126597380D01*
X162976190Y-127597380D02*
X162976190Y-126597380D01*
X161833333Y-127597380D02*
X162404761Y-127597380D01*
X162119047Y-127597380D02*
X162119047Y-126597380D01*
X162214285Y-126740238D01*
X162309523Y-126835476D01*
X162404761Y-126883095D01*
M02*
