M48
; DRILL file {KiCad (5.99.0-128-g6ff45b44c)} date 2019 September 15, Sunday 18:53:56
; FORMAT={-:-/ absolute / inch / decimal}
; #@! TF.CreationDate,2019-09-15T18:53:56+09:00
; #@! TF.GenerationSoftware,Kicad,Pcbnew,(5.99.0-128-g6ff45b44c)
FMAT,2
INCH
T1C0.0157
T2C0.0300
T3C0.0315
T4C0.0320
T5C0.0394
T6C0.0866
T7C0.0941
T8C0.1358
%
G90
G05
T1
X5.9712Y-3.4624
T2
X5.7579Y-3.0012
X5.7579Y-3.0512
X5.7579Y-3.1012
X5.7579Y-3.1512
T3
X7.3425Y-2.8543
X7.4606Y-2.8543
X7.5787Y-2.8543
T4
X4.3898Y-4.8819
X4.7898Y-4.8819
X3.8484Y-4.8819
X4.2484Y-4.8819
X7.1752Y-3.0283
X7.1752Y-3.4283
X5.9835Y-3.2776
X6.0835Y-3.2776
X5.6912Y-3.7398
X6.0912Y-3.7398
X5.6912Y-3.8748
X6.0912Y-3.8748
X5.6912Y-4.0099
X6.0912Y-4.0099
X7.5886Y-3.0398
X7.5886Y-3.1398
X7.5886Y-3.2398
X7.3228Y-3.0283
X7.3228Y-3.4283
X5.6858Y-3.5925
X6.0858Y-3.5925
X7.7756Y-3.1276
X7.7756Y-3.4276
X5.7579Y-2.7846
X5.7579Y-2.8846
X7.5984Y-3.3358
X7.5984Y-3.4358
X5.6858Y-3.4449
X6.0858Y-3.4449
T5
X6.6929Y-3.689
X6.7929Y-3.689
X6.8929Y-3.689
X6.9929Y-3.689
X7.0929Y-3.689
X7.1929Y-3.689
X7.2929Y-3.689
X7.3929Y-3.689
X7.4929Y-3.689
X7.5929Y-3.689
X7.6929Y-3.689
X7.7929Y-3.689
X7.8929Y-3.689
X7.9929Y-3.689
X6.6929Y-3.8091
X6.7929Y-3.8091
X6.8929Y-3.8091
X6.9929Y-3.8091
X7.0929Y-3.8091
X7.1929Y-3.8091
X7.2929Y-3.8091
X7.3929Y-3.8091
X7.4929Y-3.8091
X7.5929Y-3.8091
X7.6929Y-3.8091
X7.7929Y-3.8091
X7.8929Y-3.8091
X7.9929Y-3.8091
X6.6929Y-3.937
X6.7929Y-3.937
X6.8929Y-3.937
X6.9929Y-3.937
X7.0929Y-3.937
X7.1929Y-3.937
X7.2929Y-3.937
X7.3929Y-3.937
X7.4929Y-3.937
X7.5929Y-3.937
X7.6929Y-3.937
X7.7929Y-3.937
X7.8929Y-3.937
X7.9929Y-3.937
X6.2453Y-2.8839
X6.3453Y-2.8839
X6.4453Y-2.8839
X6.5453Y-2.8839
X6.6929Y-3.563
X6.7929Y-3.563
X6.8929Y-3.563
X6.9929Y-3.563
X7.0929Y-3.563
X7.1929Y-3.563
X7.2929Y-3.563
X7.3929Y-3.563
X7.4929Y-3.563
X7.5929Y-3.563
X7.6929Y-3.563
X7.7929Y-3.563
X7.8929Y-3.563
X7.9929Y-3.563
X6.7421Y-2.8839
X6.8421Y-2.8839
X6.9421Y-2.8839
X3.6909Y-3.1299
X3.6909Y-3.2299
X3.6909Y-3.3299
X3.6909Y-3.4299
X3.6909Y-3.5299
X3.6909Y-3.6299
X3.6909Y-3.7299
X3.6909Y-3.8299
X3.6909Y-3.9299
X3.6909Y-4.0299
X3.6909Y-4.1299
X3.6909Y-4.2299
X3.6909Y-4.3299
X3.6909Y-4.4299
X3.6909Y-4.5299
X3.7909Y-3.1299
X3.7909Y-3.2299
X3.7909Y-3.3299
X3.7909Y-3.4299
X3.7909Y-3.5299
X3.7909Y-3.6299
X3.7909Y-3.7299
X3.7909Y-3.8299
X3.7909Y-3.9299
X3.7909Y-4.0299
X3.7909Y-4.1299
X3.7909Y-4.2299
X3.7909Y-4.3299
X3.7909Y-4.4299
X3.7909Y-4.5299
T6
X7.2146Y-2.8543
X7.7067Y-2.8543
T7
X5.0028Y-4.8679
T8
X5.3307Y-4.238
X7.5039Y-4.8679
T0
M30
