%TF.GenerationSoftware,KiCad,Pcbnew,8.99.0-unknown-05b2b3c26e~178~ubuntu22.04.1*%
%TF.CreationDate,2024-05-07T20:45:26+09:00*%
%TF.ProjectId,bGeigieZen V4.x.x dual batteries 18500,62476569-6769-4655-9a65-6e2056342e78,V4.0.4*%
%TF.SameCoordinates,Original*%
%TF.FileFunction,Legend,Top*%
%TF.FilePolarity,Positive*%
%FSLAX46Y46*%
G04 Gerber Fmt 4.6, Leading zero omitted, Abs format (unit mm)*
G04 Created by KiCad (PCBNEW 8.99.0-unknown-05b2b3c26e~178~ubuntu22.04.1) date 2024-05-07 20:45:26*
%MOMM*%
%LPD*%
G01*
G04 APERTURE LIST*
%ADD10C,0.078091*%
%ADD11C,0.150176*%
%ADD12C,0.120000*%
%ADD13C,0.300000*%
%ADD14C,0.150000*%
%ADD15C,0.000000*%
%ADD16R,1.700000X1.700000*%
%ADD17O,1.700000X1.700000*%
%ADD18C,5.000000*%
%ADD19C,2.743200*%
G04 APERTURE END LIST*
D10*
X91320910Y-6656081D02*
X91320910Y-6656081D01*
X67043283Y-7004750D02*
X67043283Y-7004750D01*
X93766424Y-32084642D02*
X93766424Y-32084642D01*
X93161103Y-7737595D02*
X93119129Y-7684330D01*
D11*
X59875375Y-1167008D02*
X59875375Y-1167008D01*
X60642114Y-1340851D02*
X60642114Y-1340851D01*
D10*
X92655853Y-34196015D02*
X92709126Y-34154049D01*
D11*
X11294046Y-3622468D02*
X11294046Y-3622468D01*
X10778756Y-51790925D02*
X10937051Y-52154130D01*
D10*
X66421815Y-33947433D02*
X66421815Y-33947433D01*
X67412938Y-6825580D02*
X67224064Y-6907901D01*
D11*
X15360604Y-55270783D02*
X15490976Y-55283204D01*
D10*
X92194196Y-34489800D02*
X92194196Y-34489800D01*
D11*
X61613748Y-1741288D02*
X61377816Y-1623337D01*
X64568978Y-50198456D02*
X64568978Y-50198456D01*
X62743692Y-53876984D02*
X62936151Y-53696931D01*
D10*
X66077995Y-33524504D02*
X66116731Y-33581006D01*
X66546102Y-7363099D02*
X66546102Y-7363099D01*
D11*
X61728601Y-1803391D02*
X61613748Y-1741288D01*
X64243035Y-4733781D02*
X64243035Y-4733781D01*
X59614617Y-1132859D02*
X59484231Y-1120438D01*
D10*
X91785796Y-6767467D02*
X91719614Y-6746480D01*
D11*
X12690957Y-54246384D02*
X12690957Y-54246384D01*
D10*
X67380661Y-34589879D02*
X67445216Y-34614095D01*
D11*
X11089181Y-3960831D02*
X11027078Y-4075684D01*
X59484231Y-1120438D02*
X59484231Y-1120438D01*
X10558358Y-5298752D02*
X10527291Y-5426026D01*
D10*
X66520268Y-34041053D02*
X66520268Y-34041053D01*
X67014226Y-34407479D02*
X67014226Y-34407479D01*
D11*
X63494912Y-3352402D02*
X63494912Y-3352402D01*
D10*
X67133673Y-34473661D02*
X67133673Y-34473661D01*
X93625990Y-32820716D02*
X93625990Y-32820716D01*
X91522686Y-6694826D02*
X91522686Y-6694826D01*
X68274918Y-6628644D02*
X68139332Y-6641561D01*
D11*
X62694024Y-2483201D02*
X62594690Y-2399399D01*
X64581399Y-6400757D02*
X64575189Y-6270371D01*
D10*
X93769653Y-32015230D02*
X93771272Y-31913533D01*
D11*
X63979180Y-4134659D02*
X63979180Y-4134659D01*
X15754831Y-55298722D02*
X15754831Y-55298722D01*
D10*
X65587273Y-31981325D02*
X65590495Y-32050737D01*
X67869747Y-6686756D02*
X67869747Y-6686756D01*
D11*
X12638192Y-2194504D02*
X12638192Y-2194504D01*
D10*
X66841507Y-34297712D02*
X66898001Y-34334838D01*
X93500084Y-33137099D02*
X93500084Y-33137099D01*
X66399218Y-7506770D02*
X66352404Y-7555195D01*
X92959327Y-33921606D02*
X92959327Y-33921606D01*
D11*
X13361459Y-54662354D02*
X13597390Y-54780320D01*
X10396920Y-6335572D02*
X10390695Y-6469041D01*
D10*
X66328187Y-33847346D02*
X66421815Y-33947433D01*
X66927057Y-7074162D02*
X66868944Y-7112906D01*
D11*
X62122842Y-54358140D02*
X62122842Y-54358140D01*
D10*
X91354806Y-34767447D02*
X91354806Y-34767447D01*
D11*
X14081643Y-54978989D02*
X14081643Y-54978989D01*
D10*
X65952089Y-8108869D02*
X65919795Y-8168593D01*
X65684122Y-32656065D02*
X65684122Y-32656065D01*
X91388703Y-6667380D02*
X91388703Y-6667380D01*
D11*
X15034646Y-1176316D02*
X15034646Y-1176316D01*
D10*
X93075545Y-7632676D02*
X93075545Y-7632676D01*
D11*
X13019998Y-54466782D02*
X13131753Y-54535081D01*
D10*
X66546102Y-7363099D02*
X66446032Y-7456727D01*
X91083618Y-34799732D02*
X91083618Y-34799732D01*
X67133673Y-34473661D02*
X67256358Y-34535003D01*
D11*
X61439904Y-54752381D02*
X61554773Y-54693391D01*
X59614617Y-1132859D02*
X59614617Y-1132859D01*
D10*
X92959327Y-33921606D02*
X93006141Y-33873173D01*
X93500084Y-33137099D02*
X93527522Y-33075757D01*
D11*
X12088723Y-53740388D02*
X12088723Y-53740388D01*
D10*
X67317692Y-34562441D02*
X67380661Y-34589879D01*
D11*
X62231485Y-54283631D02*
X62337030Y-54209138D01*
X14584542Y-55131089D02*
X14584542Y-55131089D01*
X62644357Y-53963898D02*
X62743692Y-53876984D01*
D10*
X68139332Y-6641561D02*
X68139332Y-6641561D01*
X65638927Y-32457519D02*
X65638927Y-32457519D01*
X91977892Y-6838489D02*
X91913320Y-6814281D01*
D11*
X64066095Y-52092042D02*
X64066095Y-52092042D01*
D10*
X68173229Y-34790044D02*
X68241022Y-34796503D01*
X92912513Y-33971641D02*
X92912513Y-33971641D01*
X66282992Y-33795692D02*
X66328187Y-33847346D01*
X65969831Y-33350174D02*
X66003727Y-33408287D01*
X66155468Y-33635890D02*
X66197442Y-33690773D01*
D11*
X63609765Y-52889832D02*
X63609765Y-52889832D01*
D10*
X68412123Y-6622185D02*
X68412123Y-6622185D01*
D11*
X63886041Y-52442826D02*
X63948129Y-52327958D01*
D10*
X91882653Y-34627013D02*
X91945606Y-34602796D01*
D11*
X10732186Y-51669861D02*
X10732186Y-51669861D01*
X10390695Y-6469041D02*
X10390695Y-6469041D01*
X62793359Y-2573228D02*
X62793359Y-2573228D01*
D10*
X67835851Y-34733550D02*
X67903644Y-34748070D01*
D11*
X63643914Y-3566590D02*
X63643914Y-3566590D01*
D10*
X65743854Y-32853002D02*
X65743854Y-32853002D01*
X65596953Y-9275934D02*
X65592113Y-9343735D01*
D11*
X14333078Y-55062791D02*
X14457284Y-55096940D01*
X64584497Y-49934601D02*
X64584497Y-49934601D01*
D10*
X67737399Y-6719034D02*
X67737399Y-6719034D01*
D11*
X62594690Y-2399399D02*
X62492242Y-2315583D01*
X10400033Y-50133271D02*
X10424874Y-50394028D01*
D10*
X93119129Y-7684330D02*
X93119129Y-7684330D01*
X92517030Y-7130664D02*
X92517030Y-7130664D01*
X93769653Y-32015230D02*
X93769653Y-32015230D01*
X93603392Y-32885279D02*
X93625990Y-32820716D01*
X66649411Y-7274327D02*
X66597772Y-7317904D01*
X93222437Y-33608444D02*
X93222437Y-33608444D01*
D11*
X12380532Y-54004258D02*
X12482980Y-54088074D01*
X61439904Y-54752381D02*
X61439904Y-54752381D01*
X10996041Y-52268983D02*
X10996041Y-52268983D01*
X62337030Y-54209138D02*
X62337030Y-54209138D01*
X63532159Y-52998475D02*
X63609765Y-52889832D01*
X12330880Y-2439744D02*
X12231515Y-2526658D01*
D10*
X93567877Y-8447850D02*
X93485556Y-8258992D01*
X92786607Y-7340502D02*
X92734953Y-7296925D01*
D11*
X61014627Y-1471238D02*
X60893563Y-1424668D01*
X63886041Y-52442826D02*
X63886041Y-52442826D01*
D10*
X93732527Y-9038650D02*
X93719617Y-8970849D01*
D11*
X60517953Y-1306702D02*
X60517953Y-1306702D01*
X64522424Y-50589585D02*
X64522424Y-50589585D01*
D10*
X93682492Y-32623780D02*
X93698631Y-32557597D01*
D11*
X13898507Y-1492966D02*
X13898507Y-1492966D01*
D10*
X66116731Y-33581006D02*
X66116731Y-33581006D01*
D11*
X15686532Y-1108033D02*
X15556161Y-1114243D01*
X10486947Y-50785157D02*
X10511789Y-50912430D01*
D10*
X92681680Y-7253340D02*
X92628416Y-7211374D01*
X66597772Y-7317904D02*
X66546102Y-7363099D01*
X92886686Y-7434129D02*
X92838261Y-7387315D01*
X65903656Y-33229108D02*
X65935934Y-33290450D01*
D11*
X12743722Y-2120011D02*
X12743722Y-2120011D01*
X62545022Y-54047715D02*
X62545022Y-54047715D01*
X13019998Y-54466782D02*
X13019998Y-54466782D01*
X13836435Y-54885850D02*
X13836435Y-54885850D01*
D10*
X65611474Y-9140348D02*
X65611474Y-9140348D01*
D11*
X14711801Y-55162141D02*
X14711801Y-55162141D01*
X64578286Y-50068085D02*
X64584497Y-49934601D01*
X59484231Y-1120438D02*
X59353860Y-1111130D01*
D10*
X93372559Y-33379230D02*
X93372559Y-33379230D01*
X91850368Y-6790065D02*
X91785796Y-6767467D01*
D11*
X15950387Y-55301819D02*
X59155191Y-55301819D01*
D10*
X91753518Y-34670589D02*
X91753518Y-34670589D01*
X93764813Y-9309830D02*
X93764813Y-9309830D01*
D11*
X11641732Y-53259232D02*
X11641732Y-53259232D01*
X60452768Y-55115571D02*
X60452768Y-55115571D01*
X59155191Y-55301819D02*
X59288674Y-55295609D01*
D10*
X68139332Y-6641561D02*
X68003731Y-6660921D01*
X91977892Y-6838489D02*
X91977892Y-6838489D01*
X93319295Y-7961969D02*
X93280550Y-7903864D01*
D11*
X63206216Y-53408234D02*
X63206216Y-53408234D01*
D10*
X92912513Y-33971641D02*
X92959327Y-33921606D01*
D11*
X59288674Y-55295609D02*
X59288674Y-55295609D01*
X10511789Y-50912430D02*
X10511789Y-50912430D01*
X63373849Y-53206467D02*
X63454553Y-53104020D01*
X11365426Y-3513810D02*
X11365426Y-3513810D01*
D10*
X66039242Y-33466399D02*
X66039242Y-33466399D01*
X91117515Y-6631865D02*
X91049722Y-6627025D01*
X67380661Y-34589879D02*
X67380661Y-34589879D01*
D11*
X12482980Y-54088074D02*
X12585397Y-54168778D01*
D10*
X91388703Y-6667380D02*
X91320910Y-6656081D01*
X91882653Y-34627013D02*
X91882653Y-34627013D01*
D11*
X64171640Y-51853013D02*
X64171640Y-51853013D01*
D10*
X66702683Y-7232353D02*
X66702683Y-7232353D01*
X67572741Y-34660909D02*
X67638915Y-34681888D01*
X93485556Y-8258992D02*
X93485556Y-8258992D01*
X92431480Y-34354206D02*
X92431480Y-34354206D01*
X66176447Y-7765041D02*
X66176447Y-7765041D01*
X93674414Y-8772311D02*
X93674414Y-8772311D01*
X93646977Y-32754534D02*
X93646977Y-32754534D01*
D11*
X12690957Y-54246384D02*
X12799600Y-54323990D01*
D10*
X65743854Y-32853002D02*
X65766452Y-32917565D01*
X66305590Y-7606849D02*
X66305590Y-7606849D01*
X66471851Y-33994239D02*
X66471851Y-33994239D01*
D11*
X15099832Y-55236634D02*
X15099832Y-55236634D01*
D10*
X91117515Y-6631865D02*
X91117515Y-6631865D01*
D11*
X62982721Y-2753281D02*
X62886483Y-2663254D01*
D10*
X93222437Y-33608444D02*
X93262793Y-33551950D01*
D11*
X12380532Y-54004258D02*
X12380532Y-54004258D01*
X14584542Y-55131089D02*
X14711801Y-55162141D01*
X14143747Y-1402939D02*
X14143747Y-1402939D01*
X10667001Y-4920029D02*
X10667001Y-4920029D01*
D10*
X67703502Y-34699646D02*
X67769677Y-34717403D01*
D11*
X10418649Y-6074814D02*
X10418649Y-6074814D01*
X63851907Y-3901841D02*
X63786706Y-3790085D01*
X61554773Y-54693391D02*
X61672723Y-54631302D01*
X64118859Y-51974076D02*
X64171640Y-51853013D01*
D10*
X91913320Y-6814281D02*
X91850368Y-6790065D01*
X93140116Y-33716600D02*
X93140116Y-33716600D01*
X67164348Y-6938568D02*
X67164348Y-6938568D01*
X66218421Y-7711776D02*
X66218421Y-7711776D01*
D11*
X64348581Y-51356339D02*
X64348581Y-51356339D01*
X63290033Y-53308900D02*
X63373849Y-53206467D01*
D10*
X91488789Y-34741620D02*
X91621154Y-34709334D01*
D11*
X62284265Y-2157273D02*
X62284265Y-2157273D01*
D10*
X93422603Y-8137926D02*
X93388706Y-8078194D01*
X65919795Y-8168593D02*
X65919795Y-8168593D01*
D11*
X62442575Y-54128419D02*
X62442575Y-54128419D01*
X64326852Y-4982133D02*
X64286492Y-4857957D01*
X10393808Y-50002885D02*
X10400033Y-50133271D01*
X11601358Y-3197190D02*
X11601358Y-3197190D01*
D10*
X93698631Y-32557597D02*
X93713159Y-32489804D01*
X68241022Y-34796503D02*
X68308815Y-34801343D01*
D11*
X64475854Y-50847245D02*
X64500680Y-50719971D01*
D10*
X66785012Y-34257357D02*
X66785012Y-34257357D01*
D11*
X60831475Y-55000718D02*
X60955651Y-54957261D01*
X60642114Y-1340851D02*
X60517953Y-1306702D01*
X64264764Y-51607773D02*
X64264764Y-51607773D01*
X63609765Y-52889832D02*
X63681161Y-52781190D01*
X12281198Y-53920441D02*
X12380532Y-54004258D01*
D10*
X66812450Y-7151643D02*
X66757575Y-7190379D01*
D11*
X14842172Y-55190064D02*
X14842172Y-55190064D01*
D10*
X91320910Y-6656081D02*
X91253109Y-6646401D01*
X93726068Y-32423622D02*
X93726068Y-32423622D01*
D11*
X11992501Y-53650376D02*
X11992501Y-53650376D01*
X13361459Y-54662354D02*
X13361459Y-54662354D01*
D10*
X92709126Y-34154049D02*
X92709126Y-34154049D01*
X68342711Y-6625414D02*
X68274918Y-6628644D01*
X65626010Y-32389726D02*
X65638927Y-32457519D01*
X67605018Y-6757779D02*
X67540463Y-6778766D01*
D11*
X14904275Y-1201157D02*
X14904275Y-1201157D01*
X11949044Y-2802949D02*
X11859018Y-2896073D01*
D10*
X67737399Y-6719034D02*
X67605018Y-6757779D01*
X91049722Y-6627025D02*
X90980310Y-6623804D01*
D11*
X59679803Y-55264573D02*
X59679803Y-55264573D01*
D10*
X93438742Y-33259775D02*
X93438742Y-33259775D01*
D11*
X14205819Y-55022446D02*
X14205819Y-55022446D01*
X11154367Y-3845963D02*
X11154367Y-3845963D01*
X11859018Y-2896073D02*
X11768991Y-2995408D01*
D10*
X67412938Y-6825580D02*
X67412938Y-6825580D01*
D11*
X63333490Y-3144410D02*
X63249673Y-3045075D01*
D10*
X67935938Y-6673839D02*
X67869747Y-6686756D01*
D11*
X12330880Y-2439744D02*
X12330880Y-2439744D01*
X62644357Y-53963898D02*
X62644357Y-53963898D01*
X12585397Y-54168778D02*
X12585397Y-54168778D01*
X10996041Y-52268983D02*
X11058114Y-52386948D01*
X64556558Y-50328828D02*
X64556558Y-50328828D01*
X13246591Y-54600266D02*
X13246591Y-54600266D01*
D10*
X93527522Y-33075757D02*
X93554967Y-33012804D01*
D11*
X63494912Y-3352402D02*
X63414209Y-3246842D01*
X63979180Y-4134659D02*
X63917092Y-4016709D01*
X10732186Y-51669861D02*
X10778756Y-51790925D01*
D10*
X67638915Y-34681888D02*
X67638915Y-34681888D01*
D11*
X14267892Y-1362580D02*
X14143747Y-1402939D01*
X64587609Y-6534241D02*
X64581399Y-6400757D01*
X13075875Y-1902726D02*
X13075875Y-1902726D01*
D10*
X65632468Y-9004746D02*
X65621170Y-9072547D01*
X91454885Y-6680298D02*
X91454885Y-6680298D01*
X66197442Y-33690773D02*
X66239415Y-33744038D01*
D11*
X64522424Y-50589585D02*
X64541040Y-50459214D01*
X10390695Y-6469041D02*
X10387612Y-6664628D01*
D10*
X93761583Y-32152435D02*
X93761583Y-32152435D01*
X93140116Y-33716600D02*
X93182082Y-33663327D01*
D11*
X12532632Y-2275223D02*
X12430185Y-2355942D01*
X60070932Y-55202485D02*
X60070932Y-55202485D01*
X63454553Y-53104020D02*
X63454553Y-53104020D01*
X63718423Y-3678330D02*
X63643914Y-3566590D01*
X63851907Y-3901841D02*
X63851907Y-3901841D01*
D10*
X92344310Y-7020897D02*
X92344310Y-7020897D01*
D11*
X10573861Y-51166978D02*
X10648355Y-51421525D01*
X62793359Y-2573228D02*
X62694024Y-2483201D01*
X62011087Y-54432633D02*
X62011087Y-54432633D01*
X10511789Y-50912430D02*
X10573861Y-51166978D01*
X11405801Y-52945710D02*
X11480294Y-53051255D01*
D10*
X93698631Y-32557597D02*
X93698631Y-32557597D01*
X93485556Y-8258992D02*
X93454888Y-8199260D01*
X93388706Y-8078194D02*
X93354802Y-8020082D01*
X66021500Y-7991025D02*
X65985985Y-8049138D01*
D11*
X10573861Y-51166978D02*
X10573861Y-51166978D01*
X64550347Y-6009629D02*
X64513101Y-5748871D01*
D10*
X93664734Y-32689962D02*
X93664734Y-32689962D01*
X91219212Y-34786815D02*
X91219212Y-34786815D01*
D11*
X10387612Y-49869401D02*
X10393808Y-50002885D01*
X64475854Y-50847245D02*
X64475854Y-50847245D01*
X64513101Y-5748871D02*
X64513101Y-5748871D01*
D10*
X91753518Y-34670589D02*
X91818082Y-34649610D01*
X93119129Y-7684330D02*
X93075545Y-7632676D01*
X93262793Y-33551950D02*
X93262793Y-33551950D01*
X67014226Y-34407479D02*
X67073942Y-34441376D01*
D11*
X62066964Y-2008256D02*
X61955209Y-1936860D01*
D10*
X65779369Y-8480136D02*
X65755153Y-8543089D01*
X93030349Y-7581022D02*
X93030349Y-7581022D01*
X66520268Y-34041053D02*
X66571937Y-34087867D01*
D11*
X64488275Y-5618485D02*
X64488275Y-5618485D01*
D10*
X65588876Y-9413138D02*
X65587273Y-9514844D01*
D11*
X11331308Y-52837052D02*
X11405801Y-52945710D01*
D10*
X92546087Y-34276725D02*
X92546087Y-34276725D01*
X68308815Y-34801343D02*
X68308815Y-34801343D01*
D11*
X14019570Y-1446396D02*
X14019570Y-1446396D01*
X63454553Y-53104020D02*
X63532159Y-52998475D01*
X63643914Y-3566590D02*
X63569421Y-3457932D01*
D10*
X93625990Y-32820716D02*
X93646977Y-32754534D01*
X93319295Y-7961969D02*
X93319295Y-7961969D01*
D11*
X10387612Y-6664628D02*
X10387612Y-6664628D01*
D10*
X67969834Y-34760988D02*
X67969834Y-34760988D01*
D11*
X62175607Y-2079667D02*
X62175607Y-2079667D01*
D10*
X67224064Y-6907901D02*
X67224064Y-6907901D01*
D11*
X13960580Y-54932419D02*
X14081643Y-54978989D01*
X63414209Y-3246842D02*
X63333490Y-3144410D01*
X61955209Y-1936860D02*
X61843454Y-1868577D01*
D10*
X65606649Y-32254132D02*
X65626010Y-32389726D01*
D11*
X11222665Y-3734208D02*
X11222665Y-3734208D01*
X10393808Y-50002885D02*
X10393808Y-50002885D01*
D10*
X65603412Y-9208141D02*
X65596953Y-9275934D01*
D11*
X10688729Y-51545701D02*
X10732186Y-51669861D01*
D10*
X93614691Y-8575375D02*
X93592093Y-8510803D01*
X93764813Y-9309830D02*
X93751895Y-9174244D01*
D11*
X10648355Y-51421525D02*
X10688729Y-51545701D01*
X14711801Y-55162141D02*
X14842172Y-55190064D01*
D10*
X93454888Y-8199260D02*
X93422603Y-8137926D01*
D11*
X60452768Y-55115571D02*
X60707315Y-55041062D01*
X14842172Y-55190064D02*
X14969461Y-55214905D01*
D10*
X65651845Y-32523701D02*
X65684122Y-32656065D01*
D11*
X63948129Y-52327958D02*
X64066095Y-52092042D01*
X60955651Y-54957261D02*
X61076715Y-54910691D01*
X12181832Y-53830414D02*
X12181832Y-53830414D01*
X12430185Y-2355942D02*
X12430185Y-2355942D01*
X64578286Y-50068085D02*
X64578286Y-50068085D01*
D10*
X93579176Y-32948240D02*
X93603392Y-32885279D01*
D11*
X12088723Y-53740388D02*
X12181832Y-53830414D01*
X64581399Y-6400757D02*
X64581399Y-6400757D01*
X64575189Y-6270371D02*
X64550347Y-6009629D01*
X15099832Y-55236634D02*
X15230233Y-55255265D01*
X64382730Y-51232163D02*
X64382730Y-51232163D01*
X11256784Y-52725312D02*
X11331308Y-52837052D01*
X61014627Y-1471238D02*
X61014627Y-1471238D01*
X12585397Y-54168778D02*
X12690957Y-54246384D01*
D10*
X65638927Y-32457519D02*
X65651845Y-32523701D01*
X93052947Y-33821519D02*
X93052947Y-33821519D01*
X93372559Y-33379230D02*
X93406456Y-33319507D01*
X68003731Y-6660921D02*
X68003731Y-6660921D01*
D11*
X59419046Y-55289414D02*
X59679803Y-55264573D01*
X11859018Y-2896073D02*
X11859018Y-2896073D01*
D10*
X66136107Y-7819924D02*
X66136107Y-7819924D01*
X92134465Y-34520475D02*
X92134465Y-34520475D01*
X91219212Y-34786815D02*
X91354806Y-34767447D01*
X66868944Y-7112906D02*
X66812450Y-7151643D01*
X93751895Y-9174244D02*
X93751895Y-9174244D01*
X65831007Y-8352612D02*
X65831007Y-8352612D01*
X93771272Y-31913533D02*
X93771272Y-9447043D01*
D11*
X62284265Y-2157273D02*
X62175607Y-2079667D01*
D10*
X65722859Y-32788430D02*
X65722859Y-32788430D01*
D11*
X61787576Y-54566117D02*
X61787576Y-54566117D01*
X10406228Y-6205186D02*
X10406228Y-6205186D01*
D10*
X92838261Y-7387315D02*
X92838261Y-7387315D01*
D11*
X64587609Y-49739030D02*
X64587609Y-6534241D01*
D10*
X65919795Y-8168593D02*
X65858461Y-8291269D01*
D11*
X12039071Y-2706711D02*
X11949044Y-2802949D01*
D10*
X68105436Y-34781975D02*
X68105436Y-34781975D01*
D11*
X60198220Y-55177659D02*
X60452768Y-55115571D01*
D10*
X67224064Y-6907901D02*
X67164348Y-6938568D01*
X92760780Y-34110464D02*
X92812434Y-34065269D01*
D11*
X60769387Y-1381211D02*
X60642114Y-1340851D01*
X14969461Y-55214905D02*
X14969461Y-55214905D01*
D10*
X92489592Y-34315470D02*
X92546087Y-34276725D01*
D11*
X60707315Y-55041062D02*
X60707315Y-55041062D01*
D10*
X92431480Y-34354206D02*
X92489592Y-34315470D01*
X66282992Y-33795692D02*
X66282992Y-33795692D01*
D11*
X10462106Y-50654786D02*
X10486947Y-50785157D01*
X10592477Y-5171479D02*
X10592477Y-5171479D01*
X14457284Y-55096940D02*
X14457284Y-55096940D01*
D10*
X65596953Y-9275934D02*
X65596953Y-9275934D01*
X68037627Y-34772287D02*
X68037627Y-34772287D01*
X66623591Y-34131451D02*
X66676864Y-34175036D01*
D11*
X11188485Y-52613557D02*
X11256784Y-52725312D01*
D10*
X65592113Y-9343735D02*
X65588876Y-9413138D01*
D11*
X60263406Y-1241517D02*
X60263406Y-1241517D01*
D10*
X93771272Y-9447043D02*
X93771272Y-9447043D01*
X66352404Y-7555195D02*
X66352404Y-7555195D01*
D11*
X12281198Y-53920441D02*
X12281198Y-53920441D01*
X61076715Y-54910691D02*
X61439904Y-54752381D01*
D10*
X92255531Y-34457514D02*
X92315254Y-34423618D01*
D11*
X63569421Y-3457932D02*
X63494912Y-3352402D01*
D10*
X67540463Y-6778766D02*
X67540463Y-6778766D01*
D11*
X15295419Y-1139084D02*
X15295419Y-1139084D01*
D10*
X93406456Y-33319507D02*
X93406456Y-33319507D01*
D11*
X10856332Y-4429566D02*
X10803567Y-4550629D01*
X11188485Y-52613557D02*
X11188485Y-52613557D01*
X14522470Y-1288071D02*
X14522470Y-1288071D01*
D10*
X68479916Y-34806183D02*
X68479916Y-34806183D01*
X66262013Y-7658503D02*
X66262013Y-7658503D01*
X93454888Y-8199260D02*
X93454888Y-8199260D01*
X93337052Y-33437343D02*
X93372559Y-33379230D01*
X93406456Y-33319507D02*
X93438742Y-33259775D01*
D11*
X61076715Y-54910691D02*
X61076715Y-54910691D01*
D10*
X65952089Y-8108869D02*
X65952089Y-8108869D01*
X66058618Y-7932920D02*
X66058618Y-7932920D01*
D11*
X15754831Y-55298722D02*
X15950387Y-55301819D01*
D10*
X93241814Y-7847362D02*
X93241814Y-7847362D01*
X66898001Y-34334838D02*
X66956113Y-34371964D01*
D11*
X15556161Y-1114243D02*
X15556161Y-1114243D01*
X11405801Y-52945710D02*
X11405801Y-52945710D01*
D10*
X93706700Y-8904675D02*
X93706700Y-8904675D01*
D11*
X10387612Y-6664628D02*
X10387612Y-49869401D01*
D12*
X69880644Y-30309529D02*
X78262644Y-30309529D01*
X78262644Y-39199529D01*
X69880644Y-39199529D01*
X69880644Y-30309529D01*
G36*
X69880644Y-30309529D02*
G01*
X78262644Y-30309529D01*
X78262644Y-39199529D01*
X69880644Y-39199529D01*
X69880644Y-30309529D01*
G37*
D10*
X91488789Y-34741620D02*
X91488789Y-34741620D01*
D11*
X11058114Y-52386948D02*
X11058114Y-52386948D01*
D10*
X66868944Y-7112906D02*
X66868944Y-7112906D01*
D11*
X60955651Y-54957261D02*
X60955651Y-54957261D01*
X62694024Y-2483201D02*
X62694024Y-2483201D01*
D10*
X91454885Y-6680298D02*
X91388703Y-6667380D01*
X65684122Y-32656065D02*
X65722859Y-32788430D01*
D11*
X10424874Y-50394028D02*
X10462106Y-50654786D01*
D10*
X93592093Y-8510803D02*
X93592093Y-8510803D01*
D11*
X63752572Y-52669434D02*
X63752572Y-52669434D01*
X61259866Y-1570573D02*
X61259866Y-1570573D01*
D10*
X90878613Y-6622185D02*
X68412123Y-6622185D01*
D11*
X63917092Y-4016709D02*
X63917092Y-4016709D01*
D10*
X65903656Y-33229108D02*
X65903656Y-33229108D01*
X92600970Y-34237989D02*
X92600970Y-34237989D01*
X65803570Y-8415564D02*
X65779369Y-8480136D01*
D11*
X10688729Y-51545701D02*
X10688729Y-51545701D01*
D10*
X65779369Y-8480136D02*
X65779369Y-8480136D01*
D11*
X10803567Y-4550629D02*
X10757028Y-4674805D01*
D10*
X65593732Y-32118538D02*
X65593732Y-32118538D01*
D11*
X11812448Y-53457902D02*
X11992501Y-53650376D01*
D10*
X92402423Y-7056404D02*
X92402423Y-7056404D01*
D11*
X64038156Y-4249528D02*
X63979180Y-4134659D01*
X10462106Y-50654786D02*
X10462106Y-50654786D01*
D10*
X92134465Y-34520475D02*
X92194196Y-34489800D01*
D11*
X61377816Y-1623337D02*
X61377816Y-1623337D01*
X63752572Y-52669434D02*
X63820855Y-52557679D01*
D10*
X92489592Y-34315470D02*
X92489592Y-34315470D01*
D11*
X62337030Y-54209138D02*
X62442575Y-54128419D01*
D10*
X91818082Y-34649610D02*
X91818082Y-34649610D01*
X91621154Y-34709334D02*
X91753518Y-34670589D01*
X66597772Y-7317904D02*
X66597772Y-7317904D01*
X65626010Y-32389726D02*
X65626010Y-32389726D01*
X92102179Y-6893373D02*
X92040845Y-6865935D01*
X92402423Y-7056404D02*
X92344310Y-7020897D01*
D11*
X62492242Y-2315583D02*
X62389810Y-2234879D01*
X11089181Y-3960831D02*
X11089181Y-3960831D01*
D10*
X90980310Y-6623804D02*
X90980310Y-6623804D01*
X93096532Y-33769865D02*
X93140116Y-33716600D01*
D11*
X64463433Y-5491227D02*
X64463433Y-5491227D01*
X64587609Y-6534241D02*
X64587609Y-6534241D01*
X64500680Y-50719971D02*
X64500680Y-50719971D01*
D10*
X67969834Y-34760988D02*
X68037627Y-34772287D01*
D11*
X64308221Y-51483613D02*
X64348581Y-51356339D01*
D10*
X66446032Y-7456727D02*
X66399218Y-7506770D01*
X92812434Y-34065269D02*
X92812434Y-34065269D01*
X93592093Y-8510803D02*
X93567877Y-8447850D01*
X65803570Y-8415564D02*
X65803570Y-8415564D01*
D11*
X13836435Y-54885850D02*
X13960580Y-54932419D01*
X10648355Y-51421525D02*
X10648355Y-51421525D01*
D10*
X66927057Y-7074162D02*
X66927057Y-7074162D01*
X66155468Y-33635890D02*
X66155468Y-33635890D01*
D11*
X11685189Y-3094742D02*
X11601358Y-3197190D01*
X10474527Y-5683671D02*
X10452798Y-5814057D01*
X12532632Y-2275223D02*
X12532632Y-2275223D01*
X61613748Y-1741288D02*
X61613748Y-1741288D01*
D10*
X67769677Y-34717403D02*
X67835851Y-34733550D01*
D11*
X11768991Y-2995408D02*
X11685189Y-3094742D01*
X10527291Y-5426026D02*
X10499337Y-5556412D01*
X61728601Y-1803391D02*
X61728601Y-1803391D01*
D10*
X92255531Y-34457514D02*
X92255531Y-34457514D01*
D11*
X64382730Y-51232163D02*
X64416879Y-51104890D01*
D10*
X66077995Y-33524504D02*
X66077995Y-33524504D01*
D11*
X64500680Y-50719971D02*
X64522424Y-50589585D01*
D10*
X65790668Y-32980518D02*
X65790668Y-32980518D01*
D11*
X64550347Y-6009629D02*
X64550347Y-6009629D01*
D10*
X91621154Y-34709334D02*
X91621154Y-34709334D01*
D11*
X64196466Y-4612717D02*
X64196466Y-4612717D01*
D10*
X68037627Y-34772287D02*
X68105436Y-34781975D01*
X91785796Y-6767467D02*
X91785796Y-6767467D01*
X66623591Y-34131451D02*
X66623591Y-34131451D01*
D11*
X64513101Y-5748871D02*
X64488275Y-5618485D01*
X59419046Y-55289414D02*
X59419046Y-55289414D01*
D10*
X66985170Y-7038655D02*
X66985170Y-7038655D01*
X65676061Y-8804588D02*
X65676061Y-8804588D01*
D11*
X10434152Y-5944443D02*
X10418649Y-6074814D01*
D10*
X92373367Y-34389721D02*
X92431480Y-34354206D01*
X65603412Y-9208141D02*
X65603412Y-9208141D01*
X91185316Y-6638324D02*
X91117515Y-6631865D01*
D11*
X11027078Y-4075684D02*
X11027078Y-4075684D01*
D10*
X93422603Y-8137926D02*
X93422603Y-8137926D01*
D11*
X14019570Y-1446396D02*
X13898507Y-1492966D01*
X60390679Y-1272553D02*
X60390679Y-1272553D01*
X10474527Y-5683671D02*
X10474527Y-5683671D01*
D10*
X68003731Y-6660921D02*
X67935938Y-6673839D01*
X92344310Y-7020897D02*
X92284587Y-6987001D01*
X66095736Y-7876418D02*
X66095736Y-7876418D01*
X93579176Y-32948240D02*
X93579176Y-32948240D01*
X92373367Y-34389721D02*
X92373367Y-34389721D01*
X92315254Y-34423618D02*
X92315254Y-34423618D01*
X92460536Y-7093530D02*
X92460536Y-7093530D01*
X91422599Y-34754529D02*
X91422599Y-34754529D01*
X66239415Y-33744038D02*
X66239415Y-33744038D01*
X65592113Y-9343735D02*
X65592113Y-9343735D01*
D11*
X11058114Y-52386948D02*
X11123300Y-52501801D01*
D10*
X68342711Y-6625414D02*
X68342711Y-6625414D01*
X65985985Y-8049138D02*
X65952089Y-8108869D01*
X65593732Y-32118538D02*
X65606649Y-32254132D01*
X91945606Y-34602796D02*
X92134465Y-34520475D01*
D11*
X60005746Y-1188737D02*
X60005746Y-1188737D01*
D10*
X91083618Y-34799732D02*
X91219212Y-34786815D01*
D11*
X10406228Y-6205186D02*
X10396920Y-6335572D01*
X59353860Y-1111130D02*
X59353860Y-1111130D01*
X61899331Y-54500931D02*
X61899331Y-54500931D01*
D10*
X93603392Y-32885279D02*
X93603392Y-32885279D01*
D11*
X61787576Y-54566117D02*
X61899331Y-54500931D01*
D10*
X92936729Y-7480943D02*
X92886686Y-7434129D01*
X66676864Y-34175036D02*
X66676864Y-34175036D01*
X93755125Y-32220227D02*
X93761583Y-32152435D01*
D11*
X10558358Y-5298752D02*
X10558358Y-5298752D01*
X11027078Y-4075684D02*
X10909127Y-4311600D01*
X13131753Y-54535081D02*
X13131753Y-54535081D01*
D10*
X66730121Y-34217002D02*
X66730121Y-34217002D01*
X93614691Y-8575375D02*
X93614691Y-8575375D01*
X67256358Y-34535003D02*
X67317692Y-34562441D01*
D11*
X62886483Y-2663254D02*
X62793359Y-2573228D01*
X11331308Y-52837052D02*
X11331308Y-52837052D01*
X10499337Y-5556412D02*
X10474527Y-5683671D01*
D10*
X91185316Y-6638324D02*
X91185316Y-6638324D01*
D11*
X15820016Y-1101823D02*
X15820016Y-1101823D01*
D10*
X93719617Y-8970849D02*
X93719617Y-8970849D01*
D11*
X63249673Y-3045075D02*
X63162759Y-2945740D01*
X10434152Y-5944443D02*
X10434152Y-5944443D01*
D10*
X67043283Y-7004750D02*
X66985170Y-7038655D01*
D11*
X60263406Y-1241517D02*
X60133020Y-1213578D01*
D10*
X92936729Y-7480943D02*
X92936729Y-7480943D01*
X93755125Y-32220227D02*
X93755125Y-32220227D01*
D11*
X10803567Y-4550629D02*
X10803567Y-4550629D01*
D10*
X68173229Y-34790044D02*
X68173229Y-34790044D01*
D11*
X62743692Y-53876984D02*
X62743692Y-53876984D01*
X11812448Y-53457902D02*
X11812448Y-53457902D01*
D10*
X92681680Y-7253340D02*
X92681680Y-7253340D01*
X91588868Y-6710965D02*
X91522686Y-6694826D01*
X67164348Y-6938568D02*
X67103014Y-6970854D01*
D11*
X12852365Y-2045518D02*
X12743722Y-2120011D01*
D10*
X93006141Y-33873173D02*
X93052947Y-33821519D01*
X66239415Y-33744038D02*
X66282992Y-33795692D01*
D11*
X61955209Y-1936860D02*
X61955209Y-1936860D01*
D10*
X65606649Y-32254132D02*
X65606649Y-32254132D01*
D11*
X63116204Y-53507569D02*
X63206216Y-53408234D01*
X10592477Y-5171479D02*
X10558358Y-5298752D01*
D10*
X67317692Y-34562441D02*
X67317692Y-34562441D01*
D11*
X11480294Y-53051255D02*
X11480294Y-53051255D01*
X60198220Y-55177659D02*
X60198220Y-55177659D01*
X63162759Y-2945740D02*
X62982721Y-2753281D01*
D10*
X66446032Y-7456727D02*
X66446032Y-7456727D01*
X68479916Y-34806183D02*
X90946414Y-34806183D01*
X66649411Y-7274327D02*
X66649411Y-7274327D01*
D11*
X64218194Y-51728852D02*
X64264764Y-51607773D01*
D10*
X92760780Y-34110464D02*
X92760780Y-34110464D01*
D11*
X60133020Y-1213578D02*
X60133020Y-1213578D01*
X62982721Y-2753281D02*
X62982721Y-2753281D01*
D10*
X91655050Y-6728722D02*
X91588868Y-6710965D01*
D11*
X10667001Y-4920029D02*
X10626626Y-5047318D01*
D10*
X91913320Y-6814281D02*
X91913320Y-6814281D01*
X65722859Y-32788430D02*
X65743854Y-32853002D01*
D11*
X63718423Y-3678330D02*
X63718423Y-3678330D01*
D10*
X67475891Y-6801363D02*
X67412938Y-6825580D01*
D11*
X10418649Y-6074814D02*
X10406228Y-6205186D01*
X12799600Y-54323990D02*
X12799600Y-54323990D01*
D10*
X91850368Y-6790065D02*
X91850368Y-6790065D01*
D11*
X61843454Y-1868577D02*
X61843454Y-1868577D01*
X63373849Y-53206467D02*
X63373849Y-53206467D01*
D10*
X92734953Y-7296925D02*
X92681680Y-7253340D01*
X92709126Y-34154049D02*
X92760780Y-34110464D01*
D11*
X14969461Y-55214905D02*
X15099832Y-55236634D01*
D10*
X66757575Y-7190379D02*
X66702683Y-7232353D01*
X93682492Y-32623780D02*
X93682492Y-32623780D01*
D11*
X13597390Y-54780320D02*
X13597390Y-54780320D01*
X64401345Y-5236680D02*
X64326852Y-4982133D01*
D10*
X91253109Y-6646401D02*
X91253109Y-6646401D01*
X92194196Y-34489800D02*
X92255531Y-34457514D01*
D11*
X13960580Y-54932419D02*
X13960580Y-54932419D01*
D10*
X92284587Y-6987001D02*
X92224863Y-6954707D01*
D11*
X12231515Y-2526658D02*
X12231515Y-2526658D01*
D10*
X66262013Y-7658503D02*
X66218421Y-7711776D01*
D11*
X11520639Y-3299622D02*
X11520639Y-3299622D01*
D10*
X65632468Y-9004746D02*
X65632468Y-9004746D01*
D11*
X63116204Y-53507569D02*
X63116204Y-53507569D01*
X10424874Y-50394028D02*
X10424874Y-50394028D01*
X63569421Y-3457932D02*
X63569421Y-3457932D01*
X15230233Y-55255265D02*
X15360604Y-55270783D01*
D10*
X66399218Y-7506770D02*
X66399218Y-7506770D01*
X65831007Y-8352612D02*
X65803570Y-8415564D01*
X92284587Y-6987001D02*
X92284587Y-6987001D01*
X67475891Y-6801363D02*
X67475891Y-6801363D01*
X93438742Y-33259775D02*
X93500084Y-33137099D01*
D11*
X11222665Y-3734208D02*
X11154367Y-3845963D01*
X12852365Y-2045518D02*
X12852365Y-2045518D01*
D10*
X65766452Y-32917565D02*
X65766452Y-32917565D01*
D11*
X60707315Y-55041062D02*
X60831475Y-55000718D01*
D10*
X66985170Y-7038655D02*
X66927057Y-7074162D01*
D11*
X13535287Y-1651276D02*
X13535287Y-1651276D01*
D10*
X67073942Y-34441376D02*
X67133673Y-34473661D01*
D11*
X12638192Y-2194504D02*
X12532632Y-2275223D01*
X64066095Y-52092042D02*
X64118859Y-51974076D01*
D10*
X93761583Y-32152435D02*
X93766424Y-32084642D01*
X65755153Y-8543089D02*
X65732555Y-8607652D01*
X66305590Y-7606849D02*
X66262013Y-7658503D01*
X93674414Y-8772311D02*
X93635678Y-8639946D01*
D11*
X61259866Y-1570573D02*
X61138803Y-1517792D01*
X64447915Y-50977616D02*
X64475854Y-50847245D01*
D10*
X65985985Y-8049138D02*
X65985985Y-8049138D01*
D11*
X63206216Y-53408234D02*
X63290033Y-53308900D01*
X10486947Y-50785157D02*
X10486947Y-50785157D01*
D10*
X65676061Y-8804588D02*
X65659906Y-8870771D01*
X93713159Y-32489804D02*
X93726068Y-32423622D01*
X66956113Y-34371964D02*
X67014226Y-34407479D01*
X66571937Y-34087867D02*
X66571937Y-34087867D01*
X66571937Y-34087867D02*
X66623591Y-34131451D01*
D11*
X61138803Y-1517792D02*
X61014627Y-1471238D01*
D10*
X92102179Y-6893373D02*
X92102179Y-6893373D01*
X91015825Y-34802954D02*
X91015825Y-34802954D01*
X93241814Y-7847362D02*
X93203069Y-7792486D01*
X66116731Y-33581006D02*
X66155468Y-33635890D01*
D11*
X10757028Y-4674805D02*
X10757028Y-4674805D01*
D10*
X68105436Y-34781975D02*
X68173229Y-34790044D01*
X67572741Y-34660909D02*
X67572741Y-34660909D01*
D11*
X11256784Y-52725312D02*
X11256784Y-52725312D01*
X10400033Y-50133271D02*
X10400033Y-50133271D01*
D10*
X93096532Y-33769865D02*
X93096532Y-33769865D01*
X93161103Y-7737595D02*
X93161103Y-7737595D01*
X66218421Y-7711776D02*
X66176447Y-7765041D01*
X92517030Y-7130664D02*
X92460536Y-7093530D01*
D11*
X63249673Y-3045075D02*
X63249673Y-3045075D01*
D10*
X93388706Y-8078194D02*
X93388706Y-8078194D01*
X93635678Y-8639946D02*
X93635678Y-8639946D01*
D11*
X64218194Y-51728852D02*
X64218194Y-51728852D01*
D10*
X66328187Y-33847346D02*
X66328187Y-33847346D01*
D11*
X10937051Y-52154130D02*
X10937051Y-52154130D01*
D10*
X93771272Y-9447043D02*
X93768042Y-9377631D01*
X91049722Y-6627025D02*
X91049722Y-6627025D01*
D11*
X11725534Y-53358567D02*
X11725534Y-53358567D01*
D10*
X93262793Y-33551950D02*
X93299918Y-33495456D01*
D11*
X11949044Y-2802949D02*
X11949044Y-2802949D01*
X13715341Y-54833085D02*
X13836435Y-54885850D01*
X11154367Y-3845963D02*
X11089181Y-3960831D01*
D10*
X93554967Y-33012804D02*
X93579176Y-32948240D01*
D11*
X11992501Y-53650376D02*
X12088723Y-53740388D01*
D10*
X65858461Y-8291269D02*
X65858461Y-8291269D01*
X65766452Y-32917565D02*
X65790668Y-32980518D01*
X91655050Y-6728722D02*
X91655050Y-6728722D01*
X67445216Y-34614095D02*
X67445216Y-34614095D01*
D11*
X62492242Y-2315583D02*
X62492242Y-2315583D01*
D10*
X93664734Y-32689962D02*
X93682492Y-32623780D01*
X67508169Y-34638312D02*
X67508169Y-34638312D01*
D11*
X11480294Y-53051255D02*
X11561013Y-53156800D01*
X64264764Y-51607773D02*
X64308221Y-51483613D01*
D10*
X65711560Y-8673843D02*
X65693803Y-8738406D01*
X92838261Y-7387315D02*
X92786607Y-7340502D01*
X66136107Y-7819924D02*
X66095736Y-7876418D01*
X92460536Y-7093530D02*
X92402423Y-7056404D01*
D11*
X15360604Y-55270783D02*
X15360604Y-55270783D01*
X62389810Y-2234879D02*
X62284265Y-2157273D01*
X64488275Y-5618485D02*
X64463433Y-5491227D01*
X60893563Y-1424668D02*
X60769387Y-1381211D01*
D10*
X68274918Y-6628644D02*
X68274918Y-6628644D01*
X66676864Y-34175036D02*
X66730121Y-34217002D01*
D11*
X59288674Y-55295609D02*
X59419046Y-55289414D01*
X10710458Y-4795869D02*
X10667001Y-4920029D01*
X60133020Y-1213578D02*
X60005746Y-1188737D01*
D10*
X93006141Y-33873173D02*
X93006141Y-33873173D01*
D11*
X64463433Y-5491227D02*
X64401345Y-5236680D01*
X60831475Y-55000718D02*
X60831475Y-55000718D01*
D10*
X93737375Y-32355821D02*
X93737375Y-32355821D01*
X92734953Y-7296925D02*
X92734953Y-7296925D01*
X67445216Y-34614095D02*
X67508169Y-34638312D01*
D11*
X60769387Y-1381211D02*
X60769387Y-1381211D01*
X62545022Y-54047715D02*
X62644357Y-53963898D01*
D10*
X67508169Y-34638312D02*
X67572741Y-34660909D01*
X91522686Y-6694826D02*
X91454885Y-6680298D01*
D11*
X59220376Y-1104935D02*
X59024804Y-1101823D01*
X10387612Y-49869401D02*
X10387612Y-49869401D01*
X63162759Y-2945740D02*
X63162759Y-2945740D01*
X64243035Y-4733781D02*
X64196466Y-4612717D01*
D10*
X92573532Y-7171019D02*
X92573532Y-7171019D01*
X67703502Y-34699646D02*
X67703502Y-34699646D01*
D11*
X64401345Y-5236680D02*
X64401345Y-5236680D01*
D10*
X92812434Y-34065269D02*
X92912513Y-33971641D01*
X92628416Y-7211374D02*
X92573532Y-7171019D01*
X65651845Y-32523701D02*
X65651845Y-32523701D01*
X66352404Y-7555195D02*
X66305590Y-7606849D01*
X92315254Y-34423618D02*
X92373367Y-34389721D01*
X65693803Y-8738406D02*
X65676061Y-8804588D01*
D11*
X12181832Y-53830414D02*
X12281198Y-53920441D01*
D10*
X67103014Y-6970854D02*
X67043283Y-7004750D01*
D11*
X60070932Y-55202485D02*
X60198220Y-55177659D01*
D10*
X93737375Y-32355821D02*
X93747055Y-32288028D01*
D11*
X64556558Y-50328828D02*
X64568978Y-50198456D01*
D10*
X92655853Y-34196015D02*
X92655853Y-34196015D01*
D11*
X59744989Y-1148392D02*
X59614617Y-1132859D01*
D10*
X93203069Y-7792486D02*
X93203069Y-7792486D01*
X90878613Y-6622185D02*
X90878613Y-6622185D01*
D11*
X13535287Y-1651276D02*
X13420449Y-1710251D01*
D10*
X93751895Y-9174244D02*
X93732527Y-9038650D01*
X91253109Y-6646401D02*
X91185316Y-6638324D01*
D11*
X63026178Y-53600709D02*
X63116204Y-53507569D01*
X61554773Y-54693391D02*
X61554773Y-54693391D01*
D10*
X65969831Y-33350174D02*
X65969831Y-33350174D01*
X66730121Y-34217002D02*
X66785012Y-34257357D01*
X65935934Y-33290450D02*
X65969831Y-33350174D01*
D11*
X15556161Y-1114243D02*
X15295419Y-1139084D01*
X12908242Y-54395386D02*
X12908242Y-54395386D01*
D10*
X93732527Y-9038650D02*
X93732527Y-9038650D01*
D11*
X15820016Y-1101823D02*
X15686532Y-1108033D01*
X64038156Y-4249528D02*
X64038156Y-4249528D01*
D10*
X93203069Y-7792486D02*
X93161103Y-7737595D01*
D11*
X11443063Y-3405167D02*
X11365426Y-3513810D01*
D10*
X93354802Y-8020082D02*
X93354802Y-8020082D01*
D11*
X64541040Y-50459214D02*
X64556558Y-50328828D01*
D10*
X65590495Y-32050737D02*
X65590495Y-32050737D01*
D11*
X64348581Y-51356339D02*
X64382730Y-51232163D01*
D10*
X93706700Y-8904675D02*
X93674414Y-8772311D01*
D11*
X61899331Y-54500931D02*
X62011087Y-54432633D01*
X15490976Y-55283204D02*
X15490976Y-55283204D01*
X15621347Y-55292512D02*
X15754831Y-55298722D01*
X13131753Y-54535081D02*
X13246591Y-54600266D01*
X64575189Y-6270371D02*
X64575189Y-6270371D01*
D10*
X65588876Y-9413138D02*
X65588876Y-9413138D01*
D11*
X59875375Y-1167008D02*
X59744989Y-1148392D01*
X11561013Y-53156800D02*
X11641732Y-53259232D01*
D10*
X65611474Y-9140348D02*
X65603412Y-9208141D01*
D11*
X60390679Y-1272553D02*
X60263406Y-1241517D01*
D10*
X93527522Y-33075757D02*
X93527522Y-33075757D01*
X66003727Y-33408287D02*
X66039242Y-33466399D01*
D11*
X11365426Y-3513810D02*
X11294046Y-3622468D01*
D10*
X93299918Y-33495456D02*
X93337052Y-33437343D01*
D11*
X14904275Y-1201157D02*
X14776986Y-1225999D01*
D10*
X91719614Y-6746480D02*
X91655050Y-6728722D01*
X68412123Y-6622185D02*
X68342711Y-6625414D01*
X65587273Y-31981325D02*
X65587273Y-31981325D01*
D11*
X12231515Y-2526658D02*
X12039071Y-2706711D01*
D10*
X65621170Y-9072547D02*
X65621170Y-9072547D01*
D11*
X64118859Y-51974076D02*
X64118859Y-51974076D01*
X64171640Y-51853013D02*
X64218194Y-51728852D01*
D10*
X92886686Y-7434129D02*
X92886686Y-7434129D01*
D11*
X63786706Y-3790085D02*
X63718423Y-3678330D01*
X63786706Y-3790085D02*
X63786706Y-3790085D01*
X11123300Y-52501801D02*
X11188485Y-52613557D01*
D10*
X93182082Y-33663327D02*
X93182082Y-33663327D01*
X66785012Y-34257357D02*
X66841507Y-34297712D01*
X93713159Y-32489804D02*
X93713159Y-32489804D01*
X65935934Y-33290450D02*
X65935934Y-33290450D01*
D11*
X64416879Y-51104890D02*
X64416879Y-51104890D01*
D10*
X93299918Y-33495456D02*
X93299918Y-33495456D01*
X66702683Y-7232353D02*
X66649411Y-7274327D01*
X67835851Y-34733550D02*
X67835851Y-34733550D01*
D11*
X10909127Y-4311600D02*
X10909127Y-4311600D01*
D10*
X65645370Y-8938572D02*
X65645370Y-8938572D01*
X66956113Y-34371964D02*
X66956113Y-34371964D01*
X93719617Y-8970849D02*
X93706700Y-8904675D01*
D11*
X59220376Y-1104935D02*
X59220376Y-1104935D01*
X13597390Y-54780320D02*
X13715341Y-54833085D01*
X63820855Y-52557679D02*
X63886041Y-52442826D01*
D10*
X65621170Y-9072547D02*
X65611474Y-9140348D01*
D11*
X10452798Y-5814057D02*
X10452798Y-5814057D01*
X10909127Y-4311600D02*
X10856332Y-4429566D01*
X63333490Y-3144410D02*
X63333490Y-3144410D01*
X10396920Y-6335572D02*
X10396920Y-6335572D01*
X62011087Y-54432633D02*
X62122842Y-54358140D01*
D10*
X65790668Y-32980518D02*
X65872981Y-33169385D01*
X91719614Y-6746480D02*
X91719614Y-6746480D01*
D11*
X60005746Y-1188737D02*
X59875375Y-1167008D01*
D10*
X68378227Y-34804573D02*
X68479916Y-34806183D01*
D11*
X59024804Y-1101823D02*
X59024804Y-1101823D01*
X59744989Y-1148392D02*
X59744989Y-1148392D01*
D10*
X67903644Y-34748070D02*
X67903644Y-34748070D01*
D11*
X10626626Y-5047318D02*
X10626626Y-5047318D01*
X10527291Y-5426026D02*
X10527291Y-5426026D01*
D10*
X93030349Y-7581022D02*
X92936729Y-7480943D01*
X91945606Y-34602796D02*
X91945606Y-34602796D01*
X65858461Y-8291269D02*
X65831007Y-8352612D01*
X66197442Y-33690773D02*
X66197442Y-33690773D01*
D11*
X60517953Y-1306702D02*
X60390679Y-1272553D01*
X14522470Y-1288071D02*
X14267892Y-1362580D01*
X15490976Y-55283204D02*
X15621347Y-55292512D01*
X14143747Y-1402939D02*
X14019570Y-1446396D01*
X13898507Y-1492966D02*
X13535287Y-1651276D01*
X13187631Y-1837525D02*
X13187631Y-1837525D01*
D10*
X68241022Y-34796503D02*
X68241022Y-34796503D01*
D11*
X15295419Y-1139084D02*
X15034646Y-1176316D01*
D10*
X93766424Y-32084642D02*
X93769653Y-32015230D01*
X92224863Y-6954707D02*
X92102179Y-6893373D01*
X92040845Y-6865935D02*
X92040845Y-6865935D01*
D11*
X62936151Y-53696931D02*
X62936151Y-53696931D01*
X62886483Y-2663254D02*
X62886483Y-2663254D01*
D10*
X90980310Y-6623804D02*
X90878613Y-6622185D01*
X92573532Y-7171019D02*
X92517030Y-7130664D01*
D11*
X61672723Y-54631302D02*
X61787576Y-54566117D01*
D10*
X92546087Y-34276725D02*
X92600970Y-34237989D01*
D11*
X10710458Y-4795869D02*
X10710458Y-4795869D01*
D10*
X67935938Y-6673839D02*
X67935938Y-6673839D01*
D11*
X59679803Y-55264573D02*
X59940560Y-55227326D01*
D10*
X92600970Y-34237989D02*
X92655853Y-34196015D01*
D11*
X62175607Y-2079667D02*
X62066964Y-2008256D01*
D10*
X93052947Y-33821519D02*
X93096532Y-33769865D01*
D11*
X64541040Y-50459214D02*
X64541040Y-50459214D01*
D10*
X66039242Y-33466399D02*
X66077995Y-33524504D01*
X65645370Y-8938572D02*
X65632468Y-9004746D01*
D11*
X15621347Y-55292512D02*
X15621347Y-55292512D01*
D10*
X67073942Y-34441376D02*
X67073942Y-34441376D01*
D11*
X11601358Y-3197190D02*
X11520639Y-3299622D01*
X10856332Y-4429566D02*
X10856332Y-4429566D01*
D10*
X67256358Y-34535003D02*
X67256358Y-34535003D01*
X92786607Y-7340502D02*
X92786607Y-7340502D01*
D11*
X15950387Y-55301819D02*
X15950387Y-55301819D01*
X10499337Y-5556412D02*
X10499337Y-5556412D01*
X11641732Y-53259232D02*
X11725534Y-53358567D01*
X62066964Y-2008256D02*
X62066964Y-2008256D01*
D10*
X65755153Y-8543089D02*
X65755153Y-8543089D01*
D11*
X14333078Y-55062791D02*
X14333078Y-55062791D01*
X12908242Y-54395386D02*
X13019998Y-54466782D01*
D10*
X66021500Y-7991025D02*
X66021500Y-7991025D01*
D11*
X64286492Y-4857957D02*
X64243035Y-4733781D01*
X61843454Y-1868577D02*
X61728601Y-1803391D01*
X63681161Y-52781190D02*
X63752572Y-52669434D01*
X60893563Y-1424668D02*
X60893563Y-1424668D01*
X62389810Y-2234879D02*
X62389810Y-2234879D01*
D10*
X93646977Y-32754534D02*
X93664734Y-32689962D01*
D11*
X10626626Y-5047318D02*
X10592477Y-5171479D01*
X11443063Y-3405167D02*
X11443063Y-3405167D01*
D10*
X65693803Y-8738406D02*
X65693803Y-8738406D01*
D11*
X11685189Y-3094742D02*
X11685189Y-3094742D01*
X13075875Y-1902726D02*
X12964120Y-1971009D01*
D10*
X93554967Y-33012804D02*
X93554967Y-33012804D01*
X65732555Y-8607652D02*
X65732555Y-8607652D01*
X91015825Y-34802954D02*
X91083618Y-34799732D01*
D11*
X59940560Y-55227326D02*
X60070932Y-55202485D01*
D10*
X91588868Y-6710965D02*
X91588868Y-6710965D01*
X67605018Y-6757779D02*
X67605018Y-6757779D01*
X66471851Y-33994239D02*
X66520268Y-34041053D01*
X66898001Y-34334838D02*
X66898001Y-34334838D01*
X65732555Y-8607652D02*
X65711560Y-8673843D01*
D11*
X63948129Y-52327958D02*
X63948129Y-52327958D01*
X11123300Y-52501801D02*
X11123300Y-52501801D01*
X62122842Y-54358140D02*
X62231485Y-54283631D01*
D10*
X66003727Y-33408287D02*
X66003727Y-33408287D01*
D11*
X64308221Y-51483613D02*
X64308221Y-51483613D01*
X63026178Y-53600709D02*
X63026178Y-53600709D01*
X12743722Y-2120011D02*
X12638192Y-2194504D01*
X12964120Y-1971009D02*
X12964120Y-1971009D01*
X13187631Y-1837525D02*
X13075875Y-1902726D01*
D10*
X93567877Y-8447850D02*
X93567877Y-8447850D01*
D11*
X63681161Y-52781190D02*
X63681161Y-52781190D01*
D10*
X65659906Y-8870771D02*
X65645370Y-8938572D01*
D11*
X13302499Y-1772339D02*
X13187631Y-1837525D01*
X11294046Y-3622468D02*
X11222665Y-3734208D01*
X62442575Y-54128419D02*
X62545022Y-54047715D01*
X63917092Y-4016709D02*
X63851907Y-3901841D01*
D10*
X65590495Y-32050737D02*
X65593732Y-32118538D01*
D11*
X11520639Y-3299622D02*
X11443063Y-3405167D01*
X13302499Y-1772339D02*
X13302499Y-1772339D01*
X64568978Y-50198456D02*
X64578286Y-50068085D01*
X12964120Y-1971009D02*
X12852365Y-2045518D01*
X14776986Y-1225999D02*
X14522470Y-1288071D01*
D10*
X66421815Y-33947433D02*
X66471851Y-33994239D01*
D11*
X64447915Y-50977616D02*
X64447915Y-50977616D01*
X10757028Y-4674805D02*
X10710458Y-4795869D01*
D10*
X93354802Y-8020082D02*
X93319295Y-7961969D01*
D11*
X11725534Y-53358567D02*
X11812448Y-53457902D01*
X64584497Y-49934601D02*
X64587609Y-49739030D01*
X64326852Y-4982133D02*
X64326852Y-4982133D01*
X12039071Y-2706711D02*
X12039071Y-2706711D01*
D10*
X93768042Y-9377631D02*
X93764813Y-9309830D01*
D11*
X11561013Y-53156800D02*
X11561013Y-53156800D01*
D10*
X65587273Y-9514844D02*
X65587273Y-31981325D01*
X66176447Y-7765041D02*
X66136107Y-7819924D01*
X90946414Y-34806183D02*
X91015825Y-34802954D01*
D11*
X61377816Y-1623337D02*
X61259866Y-1570573D01*
X59155191Y-55301819D02*
X59155191Y-55301819D01*
X64286492Y-4857957D02*
X64286492Y-4857957D01*
D10*
X66058618Y-7932920D02*
X66021500Y-7991025D01*
X93182082Y-33663327D02*
X93222437Y-33608444D01*
D11*
X15034646Y-1176316D02*
X14904275Y-1201157D01*
D10*
X93771272Y-31913533D02*
X93771272Y-31913533D01*
X93747055Y-32288028D02*
X93755125Y-32220227D01*
D11*
X13420449Y-1710251D02*
X13420449Y-1710251D01*
X10452798Y-5814057D02*
X10434152Y-5944443D01*
D10*
X92040845Y-6865935D02*
X91977892Y-6838489D01*
D11*
X59353860Y-1111130D02*
X59220376Y-1104935D01*
D10*
X91354806Y-34767447D02*
X91422599Y-34754529D01*
D11*
X61138803Y-1517792D02*
X61138803Y-1517792D01*
D10*
X92628416Y-7211374D02*
X92628416Y-7211374D01*
X65659906Y-8870771D02*
X65659906Y-8870771D01*
D11*
X59940560Y-55227326D02*
X59940560Y-55227326D01*
D10*
X93768042Y-9377631D02*
X93768042Y-9377631D01*
X68342711Y-6625414D02*
X68342711Y-6625414D01*
X67540463Y-6778766D02*
X67475891Y-6801363D01*
D11*
X10778756Y-51790925D02*
X10778756Y-51790925D01*
D10*
X91818082Y-34649610D02*
X91882653Y-34627013D01*
D11*
X15230233Y-55255265D02*
X15230233Y-55255265D01*
D10*
X66841507Y-34297712D02*
X66841507Y-34297712D01*
X93280550Y-7903864D02*
X93280550Y-7903864D01*
X93075545Y-7632676D02*
X93030349Y-7581022D01*
D11*
X14457284Y-55096940D02*
X14584542Y-55131089D01*
D10*
X90946414Y-34806183D02*
X90946414Y-34806183D01*
D11*
X62231485Y-54283631D02*
X62231485Y-54283631D01*
D10*
X65872981Y-33169385D02*
X65872981Y-33169385D01*
X65711560Y-8673843D02*
X65711560Y-8673843D01*
D11*
X11768991Y-2995408D02*
X11768991Y-2995408D01*
X64196466Y-4612717D02*
X64038156Y-4249528D01*
X63820855Y-52557679D02*
X63820855Y-52557679D01*
X12430185Y-2355942D02*
X12330880Y-2439744D01*
X14205819Y-55022446D02*
X14333078Y-55062791D01*
X13420449Y-1710251D02*
X13302499Y-1772339D01*
D10*
X66095736Y-7876418D02*
X66058618Y-7932920D01*
X65872981Y-33169385D02*
X65903656Y-33229108D01*
D11*
X63414209Y-3246842D02*
X63414209Y-3246842D01*
X64416879Y-51104890D02*
X64447915Y-50977616D01*
X15686532Y-1108033D02*
X15686532Y-1108033D01*
D10*
X92224863Y-6954707D02*
X92224863Y-6954707D01*
X68308815Y-34801343D02*
X68378227Y-34804573D01*
D11*
X63290033Y-53308900D02*
X63290033Y-53308900D01*
X59024804Y-1101823D02*
X15820016Y-1101823D01*
X62936151Y-53696931D02*
X63026178Y-53600709D01*
D10*
X66812450Y-7151643D02*
X66812450Y-7151643D01*
X65587273Y-9514844D02*
X65587273Y-9514844D01*
X67103014Y-6970854D02*
X67103014Y-6970854D01*
D11*
X12799600Y-54323990D02*
X12908242Y-54395386D01*
D10*
X67769677Y-34717403D02*
X67769677Y-34717403D01*
D11*
X14776986Y-1225999D02*
X14776986Y-1225999D01*
X14267892Y-1362580D02*
X14267892Y-1362580D01*
X15686532Y-1108033D02*
X15686532Y-1108033D01*
D10*
X68378227Y-34804573D02*
X68378227Y-34804573D01*
D11*
X64587609Y-49739030D02*
X64587609Y-49739030D01*
D10*
X91422599Y-34754529D02*
X91488789Y-34741620D01*
X93337052Y-33437343D02*
X93337052Y-33437343D01*
D11*
X10937051Y-52154130D02*
X10996041Y-52268983D01*
X61672723Y-54631302D02*
X61672723Y-54631302D01*
D10*
X93280550Y-7903864D02*
X93241814Y-7847362D01*
D11*
X13246591Y-54600266D02*
X13361459Y-54662354D01*
X13715341Y-54833085D02*
X13715341Y-54833085D01*
D10*
X67869747Y-6686756D02*
X67737399Y-6719034D01*
D11*
X63532159Y-52998475D02*
X63532159Y-52998475D01*
X62594690Y-2399399D02*
X62594690Y-2399399D01*
D10*
X67638915Y-34681888D02*
X67703502Y-34699646D01*
D11*
X14081643Y-54978989D02*
X14205819Y-55022446D01*
D10*
X67903644Y-34748070D02*
X67969834Y-34760988D01*
X93726068Y-32423622D02*
X93737375Y-32355821D01*
X93635678Y-8639946D02*
X93614691Y-8575375D01*
X66757575Y-7190379D02*
X66757575Y-7190379D01*
D11*
X12482980Y-54088074D02*
X12482980Y-54088074D01*
D10*
X93747055Y-32288028D02*
X93747055Y-32288028D01*
D13*
X20728980Y-310483D02*
X20871838Y-381912D01*
X20871838Y-381912D02*
X21086123Y-381912D01*
X21086123Y-381912D02*
X21300409Y-310483D01*
X21300409Y-310483D02*
X21443266Y-167626D01*
X21443266Y-167626D02*
X21514695Y-24769D01*
X21514695Y-24769D02*
X21586123Y260945D01*
X21586123Y260945D02*
X21586123Y475231D01*
X21586123Y475231D02*
X21514695Y760945D01*
X21514695Y760945D02*
X21443266Y903802D01*
X21443266Y903802D02*
X21300409Y1046659D01*
X21300409Y1046659D02*
X21086123Y1118088D01*
X21086123Y1118088D02*
X20943266Y1118088D01*
X20943266Y1118088D02*
X20728980Y1046659D01*
X20728980Y1046659D02*
X20657552Y975231D01*
X20657552Y975231D02*
X20657552Y475231D01*
X20657552Y475231D02*
X20943266Y475231D01*
X19157552Y1118088D02*
X19657552Y403802D01*
X20014695Y1118088D02*
X20014695Y-381912D01*
X20014695Y-381912D02*
X19443266Y-381912D01*
X19443266Y-381912D02*
X19300409Y-310483D01*
X19300409Y-310483D02*
X19228980Y-239055D01*
X19228980Y-239055D02*
X19157552Y-96198D01*
X19157552Y-96198D02*
X19157552Y118088D01*
X19157552Y118088D02*
X19228980Y260945D01*
X19228980Y260945D02*
X19300409Y332374D01*
X19300409Y332374D02*
X19443266Y403802D01*
X19443266Y403802D02*
X20014695Y403802D01*
X18228980Y-381912D02*
X17943266Y-381912D01*
X17943266Y-381912D02*
X17800409Y-310483D01*
X17800409Y-310483D02*
X17657552Y-167626D01*
X17657552Y-167626D02*
X17586123Y118088D01*
X17586123Y118088D02*
X17586123Y618088D01*
X17586123Y618088D02*
X17657552Y903802D01*
X17657552Y903802D02*
X17800409Y1046659D01*
X17800409Y1046659D02*
X17943266Y1118088D01*
X17943266Y1118088D02*
X18228980Y1118088D01*
X18228980Y1118088D02*
X18371838Y1046659D01*
X18371838Y1046659D02*
X18514695Y903802D01*
X18514695Y903802D02*
X18586123Y618088D01*
X18586123Y618088D02*
X18586123Y118088D01*
X18586123Y118088D02*
X18514695Y-167626D01*
X18514695Y-167626D02*
X18371838Y-310483D01*
X18371838Y-310483D02*
X18228980Y-381912D01*
X17157551Y-381912D02*
X16657551Y1118088D01*
X16657551Y1118088D02*
X16157551Y-381912D01*
X15657552Y332374D02*
X15157552Y332374D01*
X14943266Y1118088D02*
X15657552Y1118088D01*
X15657552Y1118088D02*
X15657552Y-381912D01*
X15657552Y-381912D02*
X14943266Y-381912D01*
X38293152Y-381912D02*
X38293152Y832374D01*
X38293152Y832374D02*
X38221723Y975231D01*
X38221723Y975231D02*
X38150295Y1046659D01*
X38150295Y1046659D02*
X38007437Y1118088D01*
X38007437Y1118088D02*
X37721723Y1118088D01*
X37721723Y1118088D02*
X37578866Y1046659D01*
X37578866Y1046659D02*
X37507437Y975231D01*
X37507437Y975231D02*
X37436009Y832374D01*
X37436009Y832374D02*
X37436009Y-381912D01*
X36793151Y1046659D02*
X36578866Y1118088D01*
X36578866Y1118088D02*
X36221723Y1118088D01*
X36221723Y1118088D02*
X36078866Y1046659D01*
X36078866Y1046659D02*
X36007437Y975231D01*
X36007437Y975231D02*
X35936008Y832374D01*
X35936008Y832374D02*
X35936008Y689517D01*
X35936008Y689517D02*
X36007437Y546659D01*
X36007437Y546659D02*
X36078866Y475231D01*
X36078866Y475231D02*
X36221723Y403802D01*
X36221723Y403802D02*
X36507437Y332374D01*
X36507437Y332374D02*
X36650294Y260945D01*
X36650294Y260945D02*
X36721723Y189517D01*
X36721723Y189517D02*
X36793151Y46659D01*
X36793151Y46659D02*
X36793151Y-96198D01*
X36793151Y-96198D02*
X36721723Y-239055D01*
X36721723Y-239055D02*
X36650294Y-310483D01*
X36650294Y-310483D02*
X36507437Y-381912D01*
X36507437Y-381912D02*
X36150294Y-381912D01*
X36150294Y-381912D02*
X35936008Y-310483D01*
X34793152Y332374D02*
X34578866Y403802D01*
X34578866Y403802D02*
X34507437Y475231D01*
X34507437Y475231D02*
X34436009Y618088D01*
X34436009Y618088D02*
X34436009Y832374D01*
X34436009Y832374D02*
X34507437Y975231D01*
X34507437Y975231D02*
X34578866Y1046659D01*
X34578866Y1046659D02*
X34721723Y1118088D01*
X34721723Y1118088D02*
X35293152Y1118088D01*
X35293152Y1118088D02*
X35293152Y-381912D01*
X35293152Y-381912D02*
X34793152Y-381912D01*
X34793152Y-381912D02*
X34650295Y-310483D01*
X34650295Y-310483D02*
X34578866Y-239055D01*
X34578866Y-239055D02*
X34507437Y-96198D01*
X34507437Y-96198D02*
X34507437Y46659D01*
X34507437Y46659D02*
X34578866Y189517D01*
X34578866Y189517D02*
X34650295Y260945D01*
X34650295Y260945D02*
X34793152Y332374D01*
X34793152Y332374D02*
X35293152Y332374D01*
X101276012Y-37407589D02*
X99776012Y-37407589D01*
X100347441Y-37407589D02*
X100276012Y-37264732D01*
X100276012Y-37264732D02*
X100276012Y-36979017D01*
X100276012Y-36979017D02*
X100347441Y-36836160D01*
X100347441Y-36836160D02*
X100418869Y-36764732D01*
X100418869Y-36764732D02*
X100561726Y-36693303D01*
X100561726Y-36693303D02*
X100990298Y-36693303D01*
X100990298Y-36693303D02*
X101133155Y-36764732D01*
X101133155Y-36764732D02*
X101204584Y-36836160D01*
X101204584Y-36836160D02*
X101276012Y-36979017D01*
X101276012Y-36979017D02*
X101276012Y-37264732D01*
X101276012Y-37264732D02*
X101204584Y-37407589D01*
X99847441Y-35264731D02*
X99776012Y-35407589D01*
X99776012Y-35407589D02*
X99776012Y-35621874D01*
X99776012Y-35621874D02*
X99847441Y-35836160D01*
X99847441Y-35836160D02*
X99990298Y-35979017D01*
X99990298Y-35979017D02*
X100133155Y-36050446D01*
X100133155Y-36050446D02*
X100418869Y-36121874D01*
X100418869Y-36121874D02*
X100633155Y-36121874D01*
X100633155Y-36121874D02*
X100918869Y-36050446D01*
X100918869Y-36050446D02*
X101061726Y-35979017D01*
X101061726Y-35979017D02*
X101204584Y-35836160D01*
X101204584Y-35836160D02*
X101276012Y-35621874D01*
X101276012Y-35621874D02*
X101276012Y-35479017D01*
X101276012Y-35479017D02*
X101204584Y-35264731D01*
X101204584Y-35264731D02*
X101133155Y-35193303D01*
X101133155Y-35193303D02*
X100633155Y-35193303D01*
X100633155Y-35193303D02*
X100633155Y-35479017D01*
X101204584Y-33979017D02*
X101276012Y-34121874D01*
X101276012Y-34121874D02*
X101276012Y-34407589D01*
X101276012Y-34407589D02*
X101204584Y-34550446D01*
X101204584Y-34550446D02*
X101061726Y-34621874D01*
X101061726Y-34621874D02*
X100490298Y-34621874D01*
X100490298Y-34621874D02*
X100347441Y-34550446D01*
X100347441Y-34550446D02*
X100276012Y-34407589D01*
X100276012Y-34407589D02*
X100276012Y-34121874D01*
X100276012Y-34121874D02*
X100347441Y-33979017D01*
X100347441Y-33979017D02*
X100490298Y-33907589D01*
X100490298Y-33907589D02*
X100633155Y-33907589D01*
X100633155Y-33907589D02*
X100776012Y-34621874D01*
X101276012Y-33264732D02*
X100276012Y-33264732D01*
X99776012Y-33264732D02*
X99847441Y-33336160D01*
X99847441Y-33336160D02*
X99918869Y-33264732D01*
X99918869Y-33264732D02*
X99847441Y-33193303D01*
X99847441Y-33193303D02*
X99776012Y-33264732D01*
X99776012Y-33264732D02*
X99918869Y-33264732D01*
X100276012Y-31907589D02*
X101490298Y-31907589D01*
X101490298Y-31907589D02*
X101633155Y-31979017D01*
X101633155Y-31979017D02*
X101704584Y-32050446D01*
X101704584Y-32050446D02*
X101776012Y-32193303D01*
X101776012Y-32193303D02*
X101776012Y-32407589D01*
X101776012Y-32407589D02*
X101704584Y-32550446D01*
X101204584Y-31907589D02*
X101276012Y-32050446D01*
X101276012Y-32050446D02*
X101276012Y-32336160D01*
X101276012Y-32336160D02*
X101204584Y-32479017D01*
X101204584Y-32479017D02*
X101133155Y-32550446D01*
X101133155Y-32550446D02*
X100990298Y-32621874D01*
X100990298Y-32621874D02*
X100561726Y-32621874D01*
X100561726Y-32621874D02*
X100418869Y-32550446D01*
X100418869Y-32550446D02*
X100347441Y-32479017D01*
X100347441Y-32479017D02*
X100276012Y-32336160D01*
X100276012Y-32336160D02*
X100276012Y-32050446D01*
X100276012Y-32050446D02*
X100347441Y-31907589D01*
X101276012Y-31193303D02*
X100276012Y-31193303D01*
X99776012Y-31193303D02*
X99847441Y-31264731D01*
X99847441Y-31264731D02*
X99918869Y-31193303D01*
X99918869Y-31193303D02*
X99847441Y-31121874D01*
X99847441Y-31121874D02*
X99776012Y-31193303D01*
X99776012Y-31193303D02*
X99918869Y-31193303D01*
X101204584Y-29907588D02*
X101276012Y-30050445D01*
X101276012Y-30050445D02*
X101276012Y-30336160D01*
X101276012Y-30336160D02*
X101204584Y-30479017D01*
X101204584Y-30479017D02*
X101061726Y-30550445D01*
X101061726Y-30550445D02*
X100490298Y-30550445D01*
X100490298Y-30550445D02*
X100347441Y-30479017D01*
X100347441Y-30479017D02*
X100276012Y-30336160D01*
X100276012Y-30336160D02*
X100276012Y-30050445D01*
X100276012Y-30050445D02*
X100347441Y-29907588D01*
X100347441Y-29907588D02*
X100490298Y-29836160D01*
X100490298Y-29836160D02*
X100633155Y-29836160D01*
X100633155Y-29836160D02*
X100776012Y-30550445D01*
X99776012Y-29336160D02*
X99776012Y-28336160D01*
X99776012Y-28336160D02*
X101276012Y-29336160D01*
X101276012Y-29336160D02*
X101276012Y-28336160D01*
X101204584Y-27193303D02*
X101276012Y-27336160D01*
X101276012Y-27336160D02*
X101276012Y-27621875D01*
X101276012Y-27621875D02*
X101204584Y-27764732D01*
X101204584Y-27764732D02*
X101061726Y-27836160D01*
X101061726Y-27836160D02*
X100490298Y-27836160D01*
X100490298Y-27836160D02*
X100347441Y-27764732D01*
X100347441Y-27764732D02*
X100276012Y-27621875D01*
X100276012Y-27621875D02*
X100276012Y-27336160D01*
X100276012Y-27336160D02*
X100347441Y-27193303D01*
X100347441Y-27193303D02*
X100490298Y-27121875D01*
X100490298Y-27121875D02*
X100633155Y-27121875D01*
X100633155Y-27121875D02*
X100776012Y-27836160D01*
X100276012Y-26479018D02*
X101276012Y-26479018D01*
X100418869Y-26479018D02*
X100347441Y-26407589D01*
X100347441Y-26407589D02*
X100276012Y-26264732D01*
X100276012Y-26264732D02*
X100276012Y-26050446D01*
X100276012Y-26050446D02*
X100347441Y-25907589D01*
X100347441Y-25907589D02*
X100490298Y-25836161D01*
X100490298Y-25836161D02*
X101276012Y-25836161D01*
X102190928Y-37621874D02*
X103690928Y-37121874D01*
X103690928Y-37121874D02*
X102190928Y-36621874D01*
X102690928Y-35479018D02*
X103690928Y-35479018D01*
X102119500Y-35836160D02*
X103190928Y-36193303D01*
X103190928Y-36193303D02*
X103190928Y-35264732D01*
X103548071Y-34693304D02*
X103619500Y-34621875D01*
X103619500Y-34621875D02*
X103690928Y-34693304D01*
X103690928Y-34693304D02*
X103619500Y-34764732D01*
X103619500Y-34764732D02*
X103548071Y-34693304D01*
X103548071Y-34693304D02*
X103690928Y-34693304D01*
X102190928Y-33693303D02*
X102190928Y-33550446D01*
X102190928Y-33550446D02*
X102262357Y-33407589D01*
X102262357Y-33407589D02*
X102333785Y-33336161D01*
X102333785Y-33336161D02*
X102476642Y-33264732D01*
X102476642Y-33264732D02*
X102762357Y-33193303D01*
X102762357Y-33193303D02*
X103119500Y-33193303D01*
X103119500Y-33193303D02*
X103405214Y-33264732D01*
X103405214Y-33264732D02*
X103548071Y-33336161D01*
X103548071Y-33336161D02*
X103619500Y-33407589D01*
X103619500Y-33407589D02*
X103690928Y-33550446D01*
X103690928Y-33550446D02*
X103690928Y-33693303D01*
X103690928Y-33693303D02*
X103619500Y-33836161D01*
X103619500Y-33836161D02*
X103548071Y-33907589D01*
X103548071Y-33907589D02*
X103405214Y-33979018D01*
X103405214Y-33979018D02*
X103119500Y-34050446D01*
X103119500Y-34050446D02*
X102762357Y-34050446D01*
X102762357Y-34050446D02*
X102476642Y-33979018D01*
X102476642Y-33979018D02*
X102333785Y-33907589D01*
X102333785Y-33907589D02*
X102262357Y-33836161D01*
X102262357Y-33836161D02*
X102190928Y-33693303D01*
X103548071Y-32550447D02*
X103619500Y-32479018D01*
X103619500Y-32479018D02*
X103690928Y-32550447D01*
X103690928Y-32550447D02*
X103619500Y-32621875D01*
X103619500Y-32621875D02*
X103548071Y-32550447D01*
X103548071Y-32550447D02*
X103690928Y-32550447D01*
X102690928Y-31193304D02*
X103690928Y-31193304D01*
X102119500Y-31550446D02*
X103190928Y-31907589D01*
X103190928Y-31907589D02*
X103190928Y-30979018D01*
X106105844Y-37407589D02*
X104605844Y-37407589D01*
X104605844Y-37407589D02*
X104605844Y-36836160D01*
X104605844Y-36836160D02*
X104677273Y-36693303D01*
X104677273Y-36693303D02*
X104748701Y-36621874D01*
X104748701Y-36621874D02*
X104891558Y-36550446D01*
X104891558Y-36550446D02*
X105105844Y-36550446D01*
X105105844Y-36550446D02*
X105248701Y-36621874D01*
X105248701Y-36621874D02*
X105320130Y-36693303D01*
X105320130Y-36693303D02*
X105391558Y-36836160D01*
X105391558Y-36836160D02*
X105391558Y-37407589D01*
X106105844Y-35907589D02*
X105105844Y-35907589D01*
X105391558Y-35907589D02*
X105248701Y-35836160D01*
X105248701Y-35836160D02*
X105177273Y-35764732D01*
X105177273Y-35764732D02*
X105105844Y-35621874D01*
X105105844Y-35621874D02*
X105105844Y-35479017D01*
X106105844Y-34764732D02*
X106034416Y-34907589D01*
X106034416Y-34907589D02*
X105962987Y-34979018D01*
X105962987Y-34979018D02*
X105820130Y-35050446D01*
X105820130Y-35050446D02*
X105391558Y-35050446D01*
X105391558Y-35050446D02*
X105248701Y-34979018D01*
X105248701Y-34979018D02*
X105177273Y-34907589D01*
X105177273Y-34907589D02*
X105105844Y-34764732D01*
X105105844Y-34764732D02*
X105105844Y-34550446D01*
X105105844Y-34550446D02*
X105177273Y-34407589D01*
X105177273Y-34407589D02*
X105248701Y-34336161D01*
X105248701Y-34336161D02*
X105391558Y-34264732D01*
X105391558Y-34264732D02*
X105820130Y-34264732D01*
X105820130Y-34264732D02*
X105962987Y-34336161D01*
X105962987Y-34336161D02*
X106034416Y-34407589D01*
X106034416Y-34407589D02*
X106105844Y-34550446D01*
X106105844Y-34550446D02*
X106105844Y-34764732D01*
X106105844Y-32979018D02*
X104605844Y-32979018D01*
X106034416Y-32979018D02*
X106105844Y-33121875D01*
X106105844Y-33121875D02*
X106105844Y-33407589D01*
X106105844Y-33407589D02*
X106034416Y-33550446D01*
X106034416Y-33550446D02*
X105962987Y-33621875D01*
X105962987Y-33621875D02*
X105820130Y-33693303D01*
X105820130Y-33693303D02*
X105391558Y-33693303D01*
X105391558Y-33693303D02*
X105248701Y-33621875D01*
X105248701Y-33621875D02*
X105177273Y-33550446D01*
X105177273Y-33550446D02*
X105105844Y-33407589D01*
X105105844Y-33407589D02*
X105105844Y-33121875D01*
X105105844Y-33121875D02*
X105177273Y-32979018D01*
X105105844Y-31621875D02*
X106105844Y-31621875D01*
X105105844Y-32264732D02*
X105891558Y-32264732D01*
X105891558Y-32264732D02*
X106034416Y-32193303D01*
X106034416Y-32193303D02*
X106105844Y-32050446D01*
X106105844Y-32050446D02*
X106105844Y-31836160D01*
X106105844Y-31836160D02*
X106034416Y-31693303D01*
X106034416Y-31693303D02*
X105962987Y-31621875D01*
X106034416Y-30264732D02*
X106105844Y-30407589D01*
X106105844Y-30407589D02*
X106105844Y-30693303D01*
X106105844Y-30693303D02*
X106034416Y-30836160D01*
X106034416Y-30836160D02*
X105962987Y-30907589D01*
X105962987Y-30907589D02*
X105820130Y-30979017D01*
X105820130Y-30979017D02*
X105391558Y-30979017D01*
X105391558Y-30979017D02*
X105248701Y-30907589D01*
X105248701Y-30907589D02*
X105177273Y-30836160D01*
X105177273Y-30836160D02*
X105105844Y-30693303D01*
X105105844Y-30693303D02*
X105105844Y-30407589D01*
X105105844Y-30407589D02*
X105177273Y-30264732D01*
X105105844Y-29836160D02*
X105105844Y-29264732D01*
X104605844Y-29621875D02*
X105891558Y-29621875D01*
X105891558Y-29621875D02*
X106034416Y-29550446D01*
X106034416Y-29550446D02*
X106105844Y-29407589D01*
X106105844Y-29407589D02*
X106105844Y-29264732D01*
X106105844Y-28764732D02*
X105105844Y-28764732D01*
X104605844Y-28764732D02*
X104677273Y-28836160D01*
X104677273Y-28836160D02*
X104748701Y-28764732D01*
X104748701Y-28764732D02*
X104677273Y-28693303D01*
X104677273Y-28693303D02*
X104605844Y-28764732D01*
X104605844Y-28764732D02*
X104748701Y-28764732D01*
X106105844Y-27836160D02*
X106034416Y-27979017D01*
X106034416Y-27979017D02*
X105962987Y-28050446D01*
X105962987Y-28050446D02*
X105820130Y-28121874D01*
X105820130Y-28121874D02*
X105391558Y-28121874D01*
X105391558Y-28121874D02*
X105248701Y-28050446D01*
X105248701Y-28050446D02*
X105177273Y-27979017D01*
X105177273Y-27979017D02*
X105105844Y-27836160D01*
X105105844Y-27836160D02*
X105105844Y-27621874D01*
X105105844Y-27621874D02*
X105177273Y-27479017D01*
X105177273Y-27479017D02*
X105248701Y-27407589D01*
X105248701Y-27407589D02*
X105391558Y-27336160D01*
X105391558Y-27336160D02*
X105820130Y-27336160D01*
X105820130Y-27336160D02*
X105962987Y-27407589D01*
X105962987Y-27407589D02*
X106034416Y-27479017D01*
X106034416Y-27479017D02*
X106105844Y-27621874D01*
X106105844Y-27621874D02*
X106105844Y-27836160D01*
X105105844Y-26693303D02*
X106105844Y-26693303D01*
X105248701Y-26693303D02*
X105177273Y-26621874D01*
X105177273Y-26621874D02*
X105105844Y-26479017D01*
X105105844Y-26479017D02*
X105105844Y-26264731D01*
X105105844Y-26264731D02*
X105177273Y-26121874D01*
X105177273Y-26121874D02*
X105320130Y-26050446D01*
X105320130Y-26050446D02*
X106105844Y-26050446D01*
X56391209Y-381912D02*
X56105495Y-381912D01*
X56105495Y-381912D02*
X55962638Y-310483D01*
X55962638Y-310483D02*
X55819781Y-167626D01*
X55819781Y-167626D02*
X55748352Y118088D01*
X55748352Y118088D02*
X55748352Y618088D01*
X55748352Y618088D02*
X55819781Y903802D01*
X55819781Y903802D02*
X55962638Y1046659D01*
X55962638Y1046659D02*
X56105495Y1118088D01*
X56105495Y1118088D02*
X56391209Y1118088D01*
X56391209Y1118088D02*
X56534067Y1046659D01*
X56534067Y1046659D02*
X56676924Y903802D01*
X56676924Y903802D02*
X56748352Y618088D01*
X56748352Y618088D02*
X56748352Y118088D01*
X56748352Y118088D02*
X56676924Y-167626D01*
X56676924Y-167626D02*
X56534067Y-310483D01*
X56534067Y-310483D02*
X56391209Y-381912D01*
X55105495Y1118088D02*
X55105495Y-381912D01*
X55105495Y-381912D02*
X54248352Y1118088D01*
X54248352Y1118088D02*
X54248352Y-381912D01*
X52462637Y-453341D02*
X53748351Y1475231D01*
X51676922Y-381912D02*
X51391208Y-381912D01*
X51391208Y-381912D02*
X51248351Y-310483D01*
X51248351Y-310483D02*
X51105494Y-167626D01*
X51105494Y-167626D02*
X51034065Y118088D01*
X51034065Y118088D02*
X51034065Y618088D01*
X51034065Y618088D02*
X51105494Y903802D01*
X51105494Y903802D02*
X51248351Y1046659D01*
X51248351Y1046659D02*
X51391208Y1118088D01*
X51391208Y1118088D02*
X51676922Y1118088D01*
X51676922Y1118088D02*
X51819780Y1046659D01*
X51819780Y1046659D02*
X51962637Y903802D01*
X51962637Y903802D02*
X52034065Y618088D01*
X52034065Y618088D02*
X52034065Y118088D01*
X52034065Y118088D02*
X51962637Y-167626D01*
X51962637Y-167626D02*
X51819780Y-310483D01*
X51819780Y-310483D02*
X51676922Y-381912D01*
X49891208Y332374D02*
X50391208Y332374D01*
X50391208Y1118088D02*
X50391208Y-381912D01*
X50391208Y-381912D02*
X49676922Y-381912D01*
X48605494Y332374D02*
X49105494Y332374D01*
X49105494Y1118088D02*
X49105494Y-381912D01*
X49105494Y-381912D02*
X48391208Y-381912D01*
X95455157Y-29635527D02*
X95383728Y-29778385D01*
X95383728Y-29778385D02*
X95383728Y-29992670D01*
X95383728Y-29992670D02*
X95455157Y-30206956D01*
X95455157Y-30206956D02*
X95598014Y-30349813D01*
X95598014Y-30349813D02*
X95740871Y-30421242D01*
X95740871Y-30421242D02*
X96026585Y-30492670D01*
X96026585Y-30492670D02*
X96240871Y-30492670D01*
X96240871Y-30492670D02*
X96526585Y-30421242D01*
X96526585Y-30421242D02*
X96669442Y-30349813D01*
X96669442Y-30349813D02*
X96812300Y-30206956D01*
X96812300Y-30206956D02*
X96883728Y-29992670D01*
X96883728Y-29992670D02*
X96883728Y-29849813D01*
X96883728Y-29849813D02*
X96812300Y-29635527D01*
X96812300Y-29635527D02*
X96740871Y-29564099D01*
X96740871Y-29564099D02*
X96240871Y-29564099D01*
X96240871Y-29564099D02*
X96240871Y-29849813D01*
X96883728Y-28921242D02*
X95383728Y-28921242D01*
X95383728Y-28921242D02*
X95383728Y-28349813D01*
X95383728Y-28349813D02*
X95455157Y-28206956D01*
X95455157Y-28206956D02*
X95526585Y-28135527D01*
X95526585Y-28135527D02*
X95669442Y-28064099D01*
X95669442Y-28064099D02*
X95883728Y-28064099D01*
X95883728Y-28064099D02*
X96026585Y-28135527D01*
X96026585Y-28135527D02*
X96098014Y-28206956D01*
X96098014Y-28206956D02*
X96169442Y-28349813D01*
X96169442Y-28349813D02*
X96169442Y-28921242D01*
X96812300Y-27492670D02*
X96883728Y-27278385D01*
X96883728Y-27278385D02*
X96883728Y-26921242D01*
X96883728Y-26921242D02*
X96812300Y-26778385D01*
X96812300Y-26778385D02*
X96740871Y-26706956D01*
X96740871Y-26706956D02*
X96598014Y-26635527D01*
X96598014Y-26635527D02*
X96455157Y-26635527D01*
X96455157Y-26635527D02*
X96312300Y-26706956D01*
X96312300Y-26706956D02*
X96240871Y-26778385D01*
X96240871Y-26778385D02*
X96169442Y-26921242D01*
X96169442Y-26921242D02*
X96098014Y-27206956D01*
X96098014Y-27206956D02*
X96026585Y-27349813D01*
X96026585Y-27349813D02*
X95955157Y-27421242D01*
X95955157Y-27421242D02*
X95812300Y-27492670D01*
X95812300Y-27492670D02*
X95669442Y-27492670D01*
X95669442Y-27492670D02*
X95526585Y-27421242D01*
X95526585Y-27421242D02*
X95455157Y-27349813D01*
X95455157Y-27349813D02*
X95383728Y-27206956D01*
X95383728Y-27206956D02*
X95383728Y-26849813D01*
X95383728Y-26849813D02*
X95455157Y-26635527D01*
D14*
X56981119Y-45054733D02*
X57695404Y-45054733D01*
X57695404Y-45054733D02*
X57838261Y-45102352D01*
X57838261Y-45102352D02*
X57933500Y-45197590D01*
X57933500Y-45197590D02*
X57981119Y-45340447D01*
X57981119Y-45340447D02*
X57981119Y-45435685D01*
X57981119Y-44054733D02*
X57981119Y-44626161D01*
X57981119Y-44340447D02*
X56981119Y-44340447D01*
X56981119Y-44340447D02*
X57123976Y-44435685D01*
X57123976Y-44435685D02*
X57219214Y-44530923D01*
X57219214Y-44530923D02*
X57266833Y-44626161D01*
X66498966Y-29903919D02*
X66498966Y-30618204D01*
X66498966Y-30618204D02*
X66451347Y-30761061D01*
X66451347Y-30761061D02*
X66356109Y-30856300D01*
X66356109Y-30856300D02*
X66213252Y-30903919D01*
X66213252Y-30903919D02*
X66118014Y-30903919D01*
X66879919Y-29903919D02*
X67498966Y-29903919D01*
X67498966Y-29903919D02*
X67165633Y-30284871D01*
X67165633Y-30284871D02*
X67308490Y-30284871D01*
X67308490Y-30284871D02*
X67403728Y-30332490D01*
X67403728Y-30332490D02*
X67451347Y-30380109D01*
X67451347Y-30380109D02*
X67498966Y-30475347D01*
X67498966Y-30475347D02*
X67498966Y-30713442D01*
X67498966Y-30713442D02*
X67451347Y-30808680D01*
X67451347Y-30808680D02*
X67403728Y-30856300D01*
X67403728Y-30856300D02*
X67308490Y-30903919D01*
X67308490Y-30903919D02*
X67022776Y-30903919D01*
X67022776Y-30903919D02*
X66927538Y-30856300D01*
X66927538Y-30856300D02*
X66879919Y-30808680D01*
X19763395Y-5171219D02*
X19763395Y-4171219D01*
X19763395Y-4647409D02*
X20334823Y-4647409D01*
X20334823Y-5171219D02*
X20334823Y-4171219D01*
X21239585Y-4504552D02*
X21239585Y-5171219D01*
X21001490Y-4123600D02*
X20763395Y-4837885D01*
X20763395Y-4837885D02*
X21382442Y-4837885D01*
X100729219Y-44060633D02*
X101443504Y-44060633D01*
X101443504Y-44060633D02*
X101586361Y-44108252D01*
X101586361Y-44108252D02*
X101681600Y-44203490D01*
X101681600Y-44203490D02*
X101729219Y-44346347D01*
X101729219Y-44346347D02*
X101729219Y-44441585D01*
X100729219Y-43108252D02*
X100729219Y-43584442D01*
X100729219Y-43584442D02*
X101205409Y-43632061D01*
X101205409Y-43632061D02*
X101157790Y-43584442D01*
X101157790Y-43584442D02*
X101110171Y-43489204D01*
X101110171Y-43489204D02*
X101110171Y-43251109D01*
X101110171Y-43251109D02*
X101157790Y-43155871D01*
X101157790Y-43155871D02*
X101205409Y-43108252D01*
X101205409Y-43108252D02*
X101300647Y-43060633D01*
X101300647Y-43060633D02*
X101538742Y-43060633D01*
X101538742Y-43060633D02*
X101633980Y-43108252D01*
X101633980Y-43108252D02*
X101681600Y-43155871D01*
X101681600Y-43155871D02*
X101729219Y-43251109D01*
X101729219Y-43251109D02*
X101729219Y-43489204D01*
X101729219Y-43489204D02*
X101681600Y-43584442D01*
X101681600Y-43584442D02*
X101633980Y-43632061D01*
X81944219Y-16444633D02*
X82658504Y-16444633D01*
X82658504Y-16444633D02*
X82801361Y-16492252D01*
X82801361Y-16492252D02*
X82896600Y-16587490D01*
X82896600Y-16587490D02*
X82944219Y-16730347D01*
X82944219Y-16730347D02*
X82944219Y-16825585D01*
X82277552Y-15539871D02*
X82944219Y-15539871D01*
X81896600Y-15777966D02*
X82610885Y-16016061D01*
X82610885Y-16016061D02*
X82610885Y-15397014D01*
X113550466Y-25885319D02*
X113550466Y-26599604D01*
X113550466Y-26599604D02*
X113502847Y-26742461D01*
X113502847Y-26742461D02*
X113407609Y-26837700D01*
X113407609Y-26837700D02*
X113264752Y-26885319D01*
X113264752Y-26885319D02*
X113169514Y-26885319D01*
X113979038Y-25980557D02*
X114026657Y-25932938D01*
X114026657Y-25932938D02*
X114121895Y-25885319D01*
X114121895Y-25885319D02*
X114359990Y-25885319D01*
X114359990Y-25885319D02*
X114455228Y-25932938D01*
X114455228Y-25932938D02*
X114502847Y-25980557D01*
X114502847Y-25980557D02*
X114550466Y-26075795D01*
X114550466Y-26075795D02*
X114550466Y-26171033D01*
X114550466Y-26171033D02*
X114502847Y-26313890D01*
X114502847Y-26313890D02*
X113931419Y-26885319D01*
X113931419Y-26885319D02*
X114550466Y-26885319D01*
X14429395Y-44541219D02*
X14429395Y-43541219D01*
X14429395Y-44017409D02*
X15000823Y-44017409D01*
X15000823Y-44541219D02*
X15000823Y-43541219D01*
X15905585Y-43541219D02*
X15715109Y-43541219D01*
X15715109Y-43541219D02*
X15619871Y-43588838D01*
X15619871Y-43588838D02*
X15572252Y-43636457D01*
X15572252Y-43636457D02*
X15477014Y-43779314D01*
X15477014Y-43779314D02*
X15429395Y-43969790D01*
X15429395Y-43969790D02*
X15429395Y-44350742D01*
X15429395Y-44350742D02*
X15477014Y-44445980D01*
X15477014Y-44445980D02*
X15524633Y-44493600D01*
X15524633Y-44493600D02*
X15619871Y-44541219D01*
X15619871Y-44541219D02*
X15810347Y-44541219D01*
X15810347Y-44541219D02*
X15905585Y-44493600D01*
X15905585Y-44493600D02*
X15953204Y-44445980D01*
X15953204Y-44445980D02*
X16000823Y-44350742D01*
X16000823Y-44350742D02*
X16000823Y-44112647D01*
X16000823Y-44112647D02*
X15953204Y-44017409D01*
X15953204Y-44017409D02*
X15905585Y-43969790D01*
X15905585Y-43969790D02*
X15810347Y-43922171D01*
X15810347Y-43922171D02*
X15619871Y-43922171D01*
X15619871Y-43922171D02*
X15524633Y-43969790D01*
X15524633Y-43969790D02*
X15477014Y-44017409D01*
X15477014Y-44017409D02*
X15429395Y-44112647D01*
D15*
%TO.C,G front*%
G36*
X97769531Y-55614224D02*
G01*
X95261380Y-55614224D01*
X95261380Y-55216105D01*
X97371411Y-55216105D01*
X97371411Y-53981936D01*
X95460440Y-53981936D01*
X95460440Y-53623629D01*
X97371411Y-53623629D01*
X97371411Y-52070964D01*
X97769531Y-52070964D01*
X97769531Y-55614224D01*
G37*
G36*
X94106835Y-55614224D02*
G01*
X91558872Y-55614224D01*
X91558872Y-55257218D01*
X92623841Y-55246614D01*
X93688810Y-55236011D01*
X93699823Y-54649496D01*
X93710836Y-54062980D01*
X91777838Y-54041654D01*
X91777838Y-53683346D01*
X93710782Y-53662020D01*
X93699796Y-53055599D01*
X93688810Y-52449177D01*
X92603935Y-52438584D01*
X91519060Y-52427992D01*
X91519060Y-52070964D01*
X94106835Y-52070964D01*
X94106835Y-55614224D01*
G37*
G36*
X77815630Y-52076043D02*
G01*
X77897763Y-52088944D01*
X77916657Y-52097505D01*
X77922540Y-52141918D01*
X77927970Y-52257205D01*
X77932800Y-52434615D01*
X77936882Y-52665398D01*
X77940068Y-52940804D01*
X77942211Y-53252084D01*
X77943163Y-53590487D01*
X77943198Y-53670076D01*
X77943198Y-55216105D01*
X79097744Y-55216105D01*
X79097744Y-55615256D01*
X76330816Y-55594318D01*
X76330816Y-55236011D01*
X76918041Y-55224994D01*
X77505267Y-55213976D01*
X77505267Y-52070964D01*
X77697691Y-52070964D01*
X77815630Y-52076043D01*
G37*
G36*
X89062896Y-52038093D02*
G01*
X89305101Y-52069578D01*
X89429455Y-52102764D01*
X89780169Y-52262290D01*
X90074853Y-52476676D01*
X90310684Y-52741550D01*
X90484839Y-53052536D01*
X90594497Y-53405261D01*
X90636833Y-53795349D01*
X90633858Y-53969315D01*
X90619332Y-54165943D01*
X90594320Y-54317097D01*
X90550509Y-54456899D01*
X90479587Y-54619468D01*
X90471121Y-54637372D01*
X90273595Y-54966003D01*
X90020910Y-55238117D01*
X89715735Y-55450995D01*
X89626899Y-55496896D01*
X89490361Y-55559307D01*
X89374585Y-55599915D01*
X89253342Y-55624327D01*
X89100400Y-55638151D01*
X88931286Y-55645575D01*
X88608167Y-55641710D01*
X88335392Y-55601311D01*
X88089819Y-55518503D01*
X87848309Y-55387415D01*
X87806152Y-55360013D01*
X87651434Y-55254436D01*
X87558394Y-55177657D01*
X87521211Y-55116240D01*
X87534063Y-55056750D01*
X87591127Y-54985753D01*
X87627772Y-54948376D01*
X87771240Y-54804908D01*
X87921468Y-54936810D01*
X88168876Y-55114006D01*
X88436833Y-55223552D01*
X88741750Y-55271407D01*
X88851662Y-55274672D01*
X89040334Y-55270799D01*
X89180694Y-55253881D01*
X89303713Y-55218246D01*
X89410846Y-55172268D01*
X89670550Y-55022275D01*
X89870722Y-54838237D01*
X90029600Y-54603194D01*
X90036430Y-54590470D01*
X90161566Y-54281368D01*
X90219471Y-53962809D01*
X90213258Y-53646142D01*
X90146039Y-53342721D01*
X90020923Y-53063897D01*
X89841024Y-52821022D01*
X89609452Y-52625447D01*
X89477113Y-52549855D01*
X89159776Y-52433902D01*
X88841120Y-52397370D01*
X88522243Y-52440094D01*
X88204247Y-52561906D01*
X87888233Y-52762641D01*
X87845602Y-52795922D01*
X87735309Y-52883958D01*
X87609080Y-52757728D01*
X87533200Y-52678044D01*
X87507912Y-52628711D01*
X87526863Y-52584428D01*
X87556850Y-52549729D01*
X87683471Y-52437826D01*
X87858876Y-52318767D01*
X88055753Y-52208826D01*
X88246786Y-52124275D01*
X88303648Y-52104794D01*
X88531816Y-52055756D01*
X88795016Y-52033504D01*
X89062896Y-52038093D01*
G37*
G36*
X101616579Y-53537778D02*
G01*
X101475688Y-53847038D01*
X101334490Y-54156372D01*
X101196938Y-54457121D01*
X101066981Y-54740623D01*
X100948571Y-54998219D01*
X100845659Y-55221247D01*
X100762196Y-55401046D01*
X100702132Y-55528956D01*
X100669418Y-55596317D01*
X100664953Y-55604271D01*
X100596926Y-55639353D01*
X100488686Y-55652546D01*
X100376574Y-55643850D01*
X100296934Y-55613265D01*
X100287901Y-55604271D01*
X100266567Y-55562398D01*
X100216357Y-55456665D01*
X100141232Y-55295749D01*
X100045157Y-55088327D01*
X99932094Y-54843075D01*
X99806006Y-54568670D01*
X99670856Y-54273787D01*
X99530608Y-53967105D01*
X99389223Y-53657299D01*
X99279739Y-53416886D01*
X99720314Y-53416886D01*
X99735834Y-53461938D01*
X99778932Y-53567361D01*
X99844414Y-53720957D01*
X99927088Y-53910531D01*
X100012713Y-54103642D01*
X100114136Y-54330827D01*
X100210863Y-54547706D01*
X100295505Y-54737695D01*
X100360674Y-54884214D01*
X100392700Y-54956447D01*
X100480290Y-55154626D01*
X100819881Y-54399080D01*
X100925637Y-54163426D01*
X101023428Y-53944842D01*
X101107363Y-53756551D01*
X101171550Y-53611777D01*
X101210096Y-53523743D01*
X101214194Y-53514146D01*
X101268916Y-53384757D01*
X100494615Y-53384757D01*
X100256149Y-53386325D01*
X100047462Y-53390696D01*
X99880638Y-53397368D01*
X99767764Y-53405839D01*
X99720924Y-53415608D01*
X99720314Y-53416886D01*
X99279739Y-53416886D01*
X99250666Y-53353046D01*
X99118899Y-53063022D01*
X98997885Y-52795905D01*
X98891588Y-52560370D01*
X98803969Y-52365095D01*
X98738993Y-52218755D01*
X98700622Y-52130028D01*
X98696800Y-52120729D01*
X98708686Y-52090406D01*
X98781858Y-52074675D01*
X98895670Y-52070964D01*
X99114654Y-52070964D01*
X99324134Y-52549401D01*
X99533614Y-53027837D01*
X100486651Y-53017191D01*
X101439687Y-53006544D01*
X101852147Y-52090870D01*
X102064270Y-52078696D01*
X102178787Y-52077991D01*
X102249819Y-52089033D01*
X102262382Y-52102563D01*
X102234256Y-52168797D01*
X102178168Y-52295732D01*
X102098069Y-52474705D01*
X101997910Y-52697057D01*
X101881641Y-52954127D01*
X101753214Y-53237255D01*
X101686151Y-53384757D01*
X101616579Y-53537778D01*
G37*
G36*
X104347503Y-52046529D02*
G01*
X104563518Y-52087677D01*
X104816656Y-52170124D01*
X105066965Y-52288410D01*
X105281986Y-52426314D01*
X105345251Y-52478305D01*
X105491101Y-52608425D01*
X105255945Y-52881975D01*
X105076946Y-52753427D01*
X104813111Y-52585776D01*
X104564594Y-52478729D01*
X104307127Y-52423801D01*
X104099625Y-52411739D01*
X103902293Y-52415787D01*
X103758837Y-52433796D01*
X103644150Y-52469668D01*
X103602501Y-52488989D01*
X103432531Y-52610053D01*
X103318724Y-52765614D01*
X103265189Y-52940223D01*
X103276032Y-53118435D01*
X103355363Y-53284801D01*
X103382070Y-53317886D01*
X103480544Y-53408885D01*
X103609525Y-53485548D01*
X103783828Y-53554593D01*
X104018266Y-53622738D01*
X104099625Y-53643293D01*
X104467053Y-53744939D01*
X104761076Y-53853120D01*
X104987899Y-53972988D01*
X105153728Y-54109692D01*
X105264770Y-54268383D01*
X105327230Y-54454208D01*
X105347314Y-54672320D01*
X105347327Y-54678644D01*
X105312280Y-54947750D01*
X105207162Y-55179053D01*
X105032011Y-55372500D01*
X104786861Y-55528040D01*
X104756521Y-55542419D01*
X104576803Y-55598155D01*
X104347204Y-55630542D01*
X104094105Y-55639122D01*
X103843889Y-55623440D01*
X103622936Y-55583038D01*
X103557983Y-55563177D01*
X103405686Y-55500774D01*
X103254976Y-55423643D01*
X103123299Y-55342650D01*
X103028097Y-55268664D01*
X102986816Y-55212552D01*
X102986323Y-55207029D01*
X103010841Y-55145203D01*
X103069598Y-55056838D01*
X103085108Y-55037232D01*
X103151038Y-54961930D01*
X103198301Y-54941214D01*
X103258455Y-54967884D01*
X103292689Y-54989877D01*
X103543716Y-55135117D01*
X103774222Y-55224733D01*
X104010654Y-55267395D01*
X104159342Y-55274033D01*
X104441007Y-55252659D01*
X104658590Y-55184575D01*
X104812959Y-55069133D01*
X104904982Y-54905685D01*
X104935526Y-54693966D01*
X104922939Y-54558828D01*
X104879475Y-54445674D01*
X104796942Y-54348875D01*
X104667144Y-54262800D01*
X104481888Y-54181820D01*
X104232980Y-54100305D01*
X103963038Y-54025816D01*
X103670719Y-53941858D01*
X103443044Y-53857499D01*
X103265325Y-53765490D01*
X103122877Y-53658580D01*
X103032127Y-53566284D01*
X102936440Y-53426957D01*
X102882889Y-53265363D01*
X102866675Y-53061692D01*
X102873002Y-52909251D01*
X102927370Y-52664227D01*
X103047351Y-52453224D01*
X103224830Y-52280186D01*
X103451697Y-52149056D01*
X103719840Y-52063774D01*
X104021145Y-52028284D01*
X104347503Y-52046529D01*
G37*
G36*
X81483419Y-52058240D02*
G01*
X81702812Y-52094988D01*
X81728562Y-52101617D01*
X81922381Y-52168725D01*
X82127931Y-52263716D01*
X82319546Y-52372764D01*
X82471562Y-52482042D01*
X82521157Y-52528615D01*
X82564502Y-52581268D01*
X82568662Y-52625911D01*
X82529023Y-52689258D01*
X82483659Y-52745690D01*
X82411975Y-52828635D01*
X82364372Y-52857679D01*
X82315489Y-52841331D01*
X82277293Y-52814937D01*
X82029974Y-52647251D01*
X81815968Y-52530518D01*
X81614697Y-52457077D01*
X81405582Y-52419267D01*
X81187869Y-52409365D01*
X80922017Y-52427941D01*
X80715700Y-52486864D01*
X80557208Y-52590925D01*
X80458279Y-52707955D01*
X80397104Y-52822131D01*
X80377600Y-52939834D01*
X80382364Y-53037702D01*
X80410900Y-53183543D01*
X80472510Y-53303488D01*
X80576136Y-53403708D01*
X80730720Y-53490373D01*
X80945205Y-53569651D01*
X81228534Y-53647712D01*
X81287399Y-53662077D01*
X81644650Y-53762906D01*
X81929064Y-53878033D01*
X82146805Y-54011821D01*
X82304036Y-54168634D01*
X82406922Y-54352835D01*
X82446006Y-54482182D01*
X82467714Y-54743169D01*
X82417316Y-54985076D01*
X82301476Y-55200435D01*
X82126862Y-55381776D01*
X81900139Y-55521631D01*
X81627972Y-55612530D01*
X81409727Y-55643328D01*
X81030820Y-55636577D01*
X80679016Y-55559858D01*
X80416675Y-55451259D01*
X80253574Y-55365258D01*
X80156032Y-55297359D01*
X80116084Y-55235092D01*
X80125769Y-55165986D01*
X80177122Y-55077572D01*
X80177603Y-55076866D01*
X80241404Y-54991023D01*
X80288149Y-54942046D01*
X80297231Y-54937694D01*
X80341642Y-54956641D01*
X80433618Y-55006501D01*
X80549367Y-55074175D01*
X80822669Y-55205683D01*
X81099269Y-55278175D01*
X81366502Y-55291717D01*
X81611702Y-55246376D01*
X81822204Y-55142219D01*
X81911586Y-55067007D01*
X81991570Y-54976600D01*
X82030850Y-54891242D01*
X82043265Y-54774877D01*
X82043825Y-54722498D01*
X82030012Y-54570661D01*
X81982992Y-54445453D01*
X81894394Y-54340612D01*
X81755846Y-54249874D01*
X81558976Y-54166980D01*
X81295413Y-54085666D01*
X81136412Y-54043748D01*
X80848806Y-53965097D01*
X80625337Y-53889540D01*
X80451076Y-53810786D01*
X80311090Y-53722542D01*
X80242660Y-53667123D01*
X80091039Y-53496877D01*
X80004027Y-53301509D01*
X79973807Y-53062748D01*
X79973606Y-53038203D01*
X80009775Y-52761159D01*
X80116270Y-52519531D01*
X80290072Y-52317745D01*
X80528160Y-52160225D01*
X80593220Y-52130065D01*
X80765428Y-52080594D01*
X80988609Y-52051697D01*
X81236645Y-52044028D01*
X81483419Y-52058240D01*
G37*
G36*
X86228852Y-53590322D02*
G01*
X86087800Y-53899756D01*
X85947002Y-54207940D01*
X85810421Y-54506195D01*
X85682019Y-54785840D01*
X85565759Y-55038193D01*
X85465603Y-55254576D01*
X85385513Y-55426306D01*
X85329451Y-55544705D01*
X85301381Y-55601090D01*
X85299388Y-55604271D01*
X85230217Y-55639317D01*
X85121668Y-55652537D01*
X85009848Y-55643930D01*
X84930864Y-55613498D01*
X84921781Y-55604271D01*
X84898181Y-55558830D01*
X84845434Y-55448075D01*
X84766917Y-55279374D01*
X84666007Y-55060090D01*
X84546080Y-54797591D01*
X84410514Y-54499241D01*
X84262685Y-54172406D01*
X84114125Y-53842594D01*
X83958441Y-53496405D01*
X83919195Y-53409197D01*
X84352916Y-53409197D01*
X84368403Y-53452443D01*
X84411130Y-53555580D01*
X84475492Y-53705961D01*
X84555888Y-53890943D01*
X84646713Y-54097880D01*
X84742366Y-54314128D01*
X84837243Y-54527041D01*
X84925740Y-54723973D01*
X85002256Y-54892282D01*
X85061186Y-55019320D01*
X85096929Y-55092444D01*
X85104175Y-55104649D01*
X85126640Y-55077964D01*
X85176078Y-54987980D01*
X85247719Y-54844419D01*
X85336795Y-54657006D01*
X85438538Y-54435464D01*
X85504434Y-54288505D01*
X85611743Y-54047270D01*
X85708405Y-53830338D01*
X85789685Y-53648307D01*
X85850846Y-53511774D01*
X85887155Y-53431337D01*
X85894932Y-53414616D01*
X85861995Y-53405464D01*
X85761174Y-53397446D01*
X85604205Y-53391022D01*
X85402824Y-53386650D01*
X85168769Y-53384791D01*
X85131598Y-53384757D01*
X84892420Y-53385944D01*
X84682987Y-53389251D01*
X84515351Y-53394300D01*
X84401563Y-53400714D01*
X84353676Y-53408114D01*
X84352916Y-53409197D01*
X83919195Y-53409197D01*
X83812593Y-53172322D01*
X83679854Y-52877602D01*
X83563500Y-52619506D01*
X83466805Y-52405291D01*
X83393042Y-52242216D01*
X83345486Y-52137541D01*
X83327525Y-52098727D01*
X83353790Y-52083473D01*
X83439295Y-52076783D01*
X83535566Y-52078821D01*
X83760614Y-52090870D01*
X83951599Y-52521174D01*
X84029755Y-52693388D01*
X84099359Y-52839668D01*
X84152586Y-52944020D01*
X84180821Y-52989715D01*
X84232325Y-53001468D01*
X84355213Y-53010411D01*
X84541283Y-53016310D01*
X84782335Y-53018932D01*
X85070172Y-53018044D01*
X85148256Y-53017248D01*
X86077454Y-53006544D01*
X86486392Y-52090870D01*
X86698761Y-52078659D01*
X86824445Y-52076018D01*
X86884103Y-52088572D01*
X86890517Y-52118471D01*
X86858627Y-52193594D01*
X86799255Y-52328233D01*
X86716363Y-52513705D01*
X86613915Y-52741330D01*
X86495873Y-53002429D01*
X86366197Y-53288319D01*
X86308760Y-53414616D01*
X86228852Y-53590322D01*
G37*
G36*
X74758245Y-54589327D02*
G01*
X74758245Y-55442989D01*
X74758245Y-55932719D01*
X70458559Y-55932719D01*
X70458559Y-52250118D01*
X71513574Y-52250118D01*
X71513574Y-53207459D01*
X71514157Y-53513888D01*
X71516350Y-53751004D01*
X71520820Y-53929108D01*
X71528237Y-54058506D01*
X71539267Y-54149501D01*
X71554578Y-54212396D01*
X71574838Y-54257496D01*
X71582422Y-54269770D01*
X71640640Y-54323577D01*
X71765833Y-54411787D01*
X71954320Y-54532094D01*
X72202417Y-54682191D01*
X72506445Y-54859771D01*
X72707179Y-54974576D01*
X72970706Y-55123892D01*
X73211613Y-55259645D01*
X73421291Y-55377046D01*
X73591132Y-55471302D01*
X73712528Y-55537621D01*
X73776873Y-55571212D01*
X73784743Y-55574412D01*
X73794047Y-55538118D01*
X73797589Y-55442989D01*
X73794625Y-55310317D01*
X73782853Y-55046222D01*
X72930755Y-54558481D01*
X72649632Y-54394884D01*
X72412973Y-54251665D01*
X72226961Y-54132802D01*
X72097781Y-54042277D01*
X72031616Y-53984067D01*
X72026444Y-53976573D01*
X72006985Y-53915894D01*
X71992361Y-53808159D01*
X71982123Y-53645643D01*
X71975823Y-53420620D01*
X71973489Y-53175555D01*
X72334396Y-53175555D01*
X72336950Y-53389343D01*
X72353408Y-53551204D01*
X72390825Y-53674985D01*
X72456255Y-53774536D01*
X72556754Y-53863703D01*
X72699376Y-53956336D01*
X72891176Y-54066282D01*
X72952495Y-54100837D01*
X73150407Y-54212723D01*
X73338642Y-54319519D01*
X73499070Y-54410913D01*
X73613561Y-54476592D01*
X73635816Y-54489494D01*
X73807275Y-54589327D01*
X73795064Y-54376966D01*
X73782853Y-54164606D01*
X73285205Y-53879626D01*
X73081016Y-53757925D01*
X72914694Y-53649250D01*
X72797141Y-53561180D01*
X72739263Y-53501290D01*
X72738378Y-53499655D01*
X72714888Y-53407913D01*
X72698762Y-53238703D01*
X72690133Y-52993852D01*
X72688613Y-52815148D01*
X72688458Y-52659653D01*
X73087597Y-52659653D01*
X73138945Y-52797026D01*
X73247863Y-52901851D01*
X73291701Y-52923997D01*
X73452286Y-52955967D01*
X73595726Y-52922303D01*
X73708464Y-52836317D01*
X73776941Y-52711323D01*
X73787600Y-52560632D01*
X73760645Y-52463524D01*
X73673518Y-52346219D01*
X73541730Y-52268851D01*
X73395850Y-52247733D01*
X73364828Y-52252271D01*
X73267817Y-52296634D01*
X73175722Y-52373272D01*
X73098347Y-52511235D01*
X73087597Y-52659653D01*
X72688458Y-52659653D01*
X72688026Y-52225633D01*
X72518825Y-52237876D01*
X72349625Y-52250118D01*
X72338691Y-52895992D01*
X72334396Y-53175555D01*
X71973489Y-53175555D01*
X71973011Y-53125362D01*
X71972822Y-53054322D01*
X71971411Y-52226238D01*
X71742493Y-52238178D01*
X71513574Y-52250118D01*
X70458559Y-52250118D01*
X70458559Y-51752469D01*
X74758245Y-51752469D01*
X74758245Y-52560632D01*
X74758245Y-54589327D01*
G37*
D12*
%TO.C,J1*%
X18306300Y-42121400D02*
X18306300Y-47321400D01*
X53926300Y-42121400D02*
X18306300Y-42121400D01*
X53926300Y-42121400D02*
X53926300Y-44721400D01*
X53926300Y-44721400D02*
X56526300Y-44721400D01*
X55196300Y-42121400D02*
X56526300Y-42121400D01*
X56526300Y-42121400D02*
X56526300Y-43451400D01*
X56526300Y-44721400D02*
X56526300Y-47321400D01*
X56526300Y-47321400D02*
X18306300Y-47321400D01*
%TO.C,J3*%
X65502300Y-26409100D02*
X65502300Y-13649100D01*
X65502300Y-29009100D02*
X65502300Y-27679100D01*
X66832300Y-29009100D02*
X65502300Y-29009100D01*
X68162300Y-13649100D02*
X65502300Y-13649100D01*
X68162300Y-26409100D02*
X65502300Y-26409100D01*
X68162300Y-26409100D02*
X68162300Y-13649100D01*
%TO.C,J5*%
X95074400Y-42397300D02*
X95074400Y-45057300D01*
X97674400Y-42397300D02*
X95074400Y-42397300D01*
X97674400Y-42397300D02*
X97674400Y-45057300D01*
X97674400Y-45057300D02*
X95074400Y-45057300D01*
X98944400Y-42397300D02*
X100274400Y-42397300D01*
X100274400Y-42397300D02*
X100274400Y-43727300D01*
%TO.C,J4*%
X81159400Y-12511300D02*
X81159400Y-7371300D01*
X83819400Y-7371300D02*
X81159400Y-7371300D01*
X83819400Y-12511300D02*
X81159400Y-12511300D01*
X83819400Y-12511300D02*
X83819400Y-7371300D01*
X83819400Y-13781300D02*
X83819400Y-15111300D01*
X83819400Y-15111300D02*
X82489400Y-15111300D01*
%TO.C,J2*%
X115344200Y-22184500D02*
X116674200Y-22184500D01*
X115344200Y-23514500D02*
X115344200Y-22184500D01*
X115344200Y-24784500D02*
X115344200Y-29924500D01*
X115344200Y-24784500D02*
X118004200Y-24784500D01*
X115344200Y-29924500D02*
X118004200Y-29924500D01*
X118004200Y-24784500D02*
X118004200Y-29924500D01*
%TD*%
%LPC*%
D16*
%TO.C,J1*%
X55196300Y-43451400D03*
D17*
X55196300Y-45991400D03*
X52656300Y-43451400D03*
X52656300Y-45991400D03*
X50116300Y-43451400D03*
X50116300Y-45991400D03*
X47576300Y-43451400D03*
X47576300Y-45991400D03*
X45036300Y-43451400D03*
X45036300Y-45991400D03*
X42496300Y-43451400D03*
X42496300Y-45991400D03*
X39956300Y-43451400D03*
X39956300Y-45991400D03*
X37416300Y-43451400D03*
X37416300Y-45991400D03*
X34876300Y-43451400D03*
X34876300Y-45991400D03*
X32336300Y-43451400D03*
X32336300Y-45991400D03*
X29796300Y-43451400D03*
X29796300Y-45991400D03*
X27256300Y-43451400D03*
X27256300Y-45991400D03*
X24716300Y-43451400D03*
X24716300Y-45991400D03*
X22176300Y-43451400D03*
X22176300Y-45991400D03*
X19636300Y-43451400D03*
X19636300Y-45991400D03*
%TD*%
D16*
%TO.C,J3*%
X66832300Y-27679100D03*
D17*
X66832300Y-25139100D03*
X66832300Y-22599100D03*
X66832300Y-20059100D03*
X66832300Y-17519100D03*
X66832300Y-14979100D03*
%TD*%
D18*
%TO.C,H4*%
X15351700Y-4874400D03*
%TD*%
D16*
%TO.C,J5*%
X98944400Y-43727300D03*
D17*
X96404400Y-43727300D03*
%TD*%
D16*
%TO.C,J4*%
X82489400Y-13781300D03*
D17*
X82489400Y-11241300D03*
X82489400Y-8701300D03*
%TD*%
D16*
%TO.C,J2*%
X116674200Y-23514500D03*
D17*
X116674200Y-26054500D03*
X116674200Y-28594500D03*
%TD*%
D18*
%TO.C,H6*%
X15481300Y-48604400D03*
%TD*%
D19*
%TO.C,BT2*%
X113528189Y-2097300D03*
X113508189Y-48793500D03*
X110968189Y-42045500D03*
X116048189Y-42045500D03*
X110988189Y-8845300D03*
X116068189Y-8845300D03*
%TD*%
%TO.C,BT1*%
X3698600Y-3223300D03*
X3678600Y-49919500D03*
X1138600Y-43171500D03*
X6218600Y-43171500D03*
X1158600Y-9971300D03*
X6238600Y-9971300D03*
%TD*%
%LPD*%
M02*
