%TF.GenerationSoftware,KiCad,Pcbnew,8.99.0-unknown-05b2b3c26e~178~ubuntu22.04.1*%
%TF.CreationDate,2024-05-07T20:45:26+09:00*%
%TF.ProjectId,bGeigieZen V4.x.x dual batteries 18500,62476569-6769-4655-9a65-6e2056342e78,V4.0.4*%
%TF.SameCoordinates,Original*%
%TF.FileFunction,Legend,Bot*%
%TF.FilePolarity,Positive*%
%FSLAX46Y46*%
G04 Gerber Fmt 4.6, Leading zero omitted, Abs format (unit mm)*
G04 Created by KiCad (PCBNEW 8.99.0-unknown-05b2b3c26e~178~ubuntu22.04.1) date 2024-05-07 20:45:26*
%MOMM*%
%LPD*%
G01*
G04 APERTURE LIST*
%ADD10C,0.120000*%
%ADD11C,0.300000*%
%ADD12C,0.050000*%
%ADD13C,0.203200*%
%ADD14C,0.000000*%
%ADD15R,1.700000X1.700000*%
%ADD16O,1.700000X1.700000*%
%ADD17C,5.000000*%
%ADD18C,2.743200*%
G04 APERTURE END LIST*
D10*
X79492200Y-7246900D02*
G75*
G02*
X81492200Y-5246900I2000000J0D01*
G01*
X102149000Y-7246900D02*
X102149000Y-43836100D01*
X100149000Y-45836100D02*
X81492200Y-45836100D01*
X100149000Y-5246900D02*
G75*
G02*
X102149000Y-7246900I0J-2000000D01*
G01*
X102149000Y-43836100D02*
G75*
G02*
X100149000Y-45836100I-2000000J0D01*
G01*
X81492200Y-5246900D02*
X100149000Y-5246900D01*
X79492200Y-43836100D02*
X79492200Y-7246900D01*
X81492200Y-45836100D02*
G75*
G02*
X79492200Y-43836100I0J2000000D01*
G01*
D11*
X94932370Y-26783400D02*
X94718085Y-26854828D01*
X94718085Y-26854828D02*
X94360942Y-26854828D01*
X94360942Y-26854828D02*
X94218085Y-26783400D01*
X94218085Y-26783400D02*
X94146656Y-26711971D01*
X94146656Y-26711971D02*
X94075227Y-26569114D01*
X94075227Y-26569114D02*
X94075227Y-26426257D01*
X94075227Y-26426257D02*
X94146656Y-26283400D01*
X94146656Y-26283400D02*
X94218085Y-26211971D01*
X94218085Y-26211971D02*
X94360942Y-26140542D01*
X94360942Y-26140542D02*
X94646656Y-26069114D01*
X94646656Y-26069114D02*
X94789513Y-25997685D01*
X94789513Y-25997685D02*
X94860942Y-25926257D01*
X94860942Y-25926257D02*
X94932370Y-25783400D01*
X94932370Y-25783400D02*
X94932370Y-25640542D01*
X94932370Y-25640542D02*
X94860942Y-25497685D01*
X94860942Y-25497685D02*
X94789513Y-25426257D01*
X94789513Y-25426257D02*
X94646656Y-25354828D01*
X94646656Y-25354828D02*
X94289513Y-25354828D01*
X94289513Y-25354828D02*
X94075227Y-25426257D01*
X92789514Y-26854828D02*
X92789514Y-26069114D01*
X92789514Y-26069114D02*
X92860942Y-25926257D01*
X92860942Y-25926257D02*
X93003799Y-25854828D01*
X93003799Y-25854828D02*
X93289514Y-25854828D01*
X93289514Y-25854828D02*
X93432371Y-25926257D01*
X92789514Y-26783400D02*
X92932371Y-26854828D01*
X92932371Y-26854828D02*
X93289514Y-26854828D01*
X93289514Y-26854828D02*
X93432371Y-26783400D01*
X93432371Y-26783400D02*
X93503799Y-26640542D01*
X93503799Y-26640542D02*
X93503799Y-26497685D01*
X93503799Y-26497685D02*
X93432371Y-26354828D01*
X93432371Y-26354828D02*
X93289514Y-26283400D01*
X93289514Y-26283400D02*
X92932371Y-26283400D01*
X92932371Y-26283400D02*
X92789514Y-26211971D01*
X92289513Y-25854828D02*
X91718085Y-25854828D01*
X92075228Y-26854828D02*
X92075228Y-25569114D01*
X92075228Y-25569114D02*
X92003799Y-25426257D01*
X92003799Y-25426257D02*
X91860942Y-25354828D01*
X91860942Y-25354828D02*
X91718085Y-25354828D01*
X90646656Y-26783400D02*
X90789513Y-26854828D01*
X90789513Y-26854828D02*
X91075228Y-26854828D01*
X91075228Y-26854828D02*
X91218085Y-26783400D01*
X91218085Y-26783400D02*
X91289513Y-26640542D01*
X91289513Y-26640542D02*
X91289513Y-26069114D01*
X91289513Y-26069114D02*
X91218085Y-25926257D01*
X91218085Y-25926257D02*
X91075228Y-25854828D01*
X91075228Y-25854828D02*
X90789513Y-25854828D01*
X90789513Y-25854828D02*
X90646656Y-25926257D01*
X90646656Y-25926257D02*
X90575228Y-26069114D01*
X90575228Y-26069114D02*
X90575228Y-26211971D01*
X90575228Y-26211971D02*
X91289513Y-26354828D01*
X89932371Y-25854828D02*
X89932371Y-27354828D01*
X89932371Y-25926257D02*
X89789514Y-25854828D01*
X89789514Y-25854828D02*
X89503799Y-25854828D01*
X89503799Y-25854828D02*
X89360942Y-25926257D01*
X89360942Y-25926257D02*
X89289514Y-25997685D01*
X89289514Y-25997685D02*
X89218085Y-26140542D01*
X89218085Y-26140542D02*
X89218085Y-26569114D01*
X89218085Y-26569114D02*
X89289514Y-26711971D01*
X89289514Y-26711971D02*
X89360942Y-26783400D01*
X89360942Y-26783400D02*
X89503799Y-26854828D01*
X89503799Y-26854828D02*
X89789514Y-26854828D01*
X89789514Y-26854828D02*
X89932371Y-26783400D01*
X87932371Y-25854828D02*
X87932371Y-26854828D01*
X88575228Y-25854828D02*
X88575228Y-26640542D01*
X88575228Y-26640542D02*
X88503799Y-26783400D01*
X88503799Y-26783400D02*
X88360942Y-26854828D01*
X88360942Y-26854828D02*
X88146656Y-26854828D01*
X88146656Y-26854828D02*
X88003799Y-26783400D01*
X88003799Y-26783400D02*
X87932371Y-26711971D01*
X87003799Y-26854828D02*
X87146656Y-26783400D01*
X87146656Y-26783400D02*
X87218085Y-26640542D01*
X87218085Y-26640542D02*
X87218085Y-25354828D01*
X86503799Y-26783400D02*
X86360942Y-26854828D01*
X86360942Y-26854828D02*
X86075228Y-26854828D01*
X86075228Y-26854828D02*
X85932371Y-26783400D01*
X85932371Y-26783400D02*
X85860942Y-26640542D01*
X85860942Y-26640542D02*
X85860942Y-26569114D01*
X85860942Y-26569114D02*
X85932371Y-26426257D01*
X85932371Y-26426257D02*
X86075228Y-26354828D01*
X86075228Y-26354828D02*
X86289514Y-26354828D01*
X86289514Y-26354828D02*
X86432371Y-26283400D01*
X86432371Y-26283400D02*
X86503799Y-26140542D01*
X86503799Y-26140542D02*
X86503799Y-26069114D01*
X86503799Y-26069114D02*
X86432371Y-25926257D01*
X86432371Y-25926257D02*
X86289514Y-25854828D01*
X86289514Y-25854828D02*
X86075228Y-25854828D01*
X86075228Y-25854828D02*
X85932371Y-25926257D01*
X84646656Y-26783400D02*
X84789513Y-26854828D01*
X84789513Y-26854828D02*
X85075228Y-26854828D01*
X85075228Y-26854828D02*
X85218085Y-26783400D01*
X85218085Y-26783400D02*
X85289513Y-26640542D01*
X85289513Y-26640542D02*
X85289513Y-26069114D01*
X85289513Y-26069114D02*
X85218085Y-25926257D01*
X85218085Y-25926257D02*
X85075228Y-25854828D01*
X85075228Y-25854828D02*
X84789513Y-25854828D01*
X84789513Y-25854828D02*
X84646656Y-25926257D01*
X84646656Y-25926257D02*
X84575228Y-26069114D01*
X84575228Y-26069114D02*
X84575228Y-26211971D01*
X84575228Y-26211971D02*
X85289513Y-26354828D01*
X81011910Y-53680429D02*
X81011910Y-55180429D01*
X81011910Y-54609000D02*
X81154768Y-54680429D01*
X81154768Y-54680429D02*
X81440482Y-54680429D01*
X81440482Y-54680429D02*
X81583339Y-54609000D01*
X81583339Y-54609000D02*
X81654768Y-54537572D01*
X81654768Y-54537572D02*
X81726196Y-54394715D01*
X81726196Y-54394715D02*
X81726196Y-53966143D01*
X81726196Y-53966143D02*
X81654768Y-53823286D01*
X81654768Y-53823286D02*
X81583339Y-53751858D01*
X81583339Y-53751858D02*
X81440482Y-53680429D01*
X81440482Y-53680429D02*
X81154768Y-53680429D01*
X81154768Y-53680429D02*
X81011910Y-53751858D01*
X83154768Y-55109000D02*
X83011911Y-55180429D01*
X83011911Y-55180429D02*
X82797625Y-55180429D01*
X82797625Y-55180429D02*
X82583339Y-55109000D01*
X82583339Y-55109000D02*
X82440482Y-54966143D01*
X82440482Y-54966143D02*
X82369053Y-54823286D01*
X82369053Y-54823286D02*
X82297625Y-54537572D01*
X82297625Y-54537572D02*
X82297625Y-54323286D01*
X82297625Y-54323286D02*
X82369053Y-54037572D01*
X82369053Y-54037572D02*
X82440482Y-53894715D01*
X82440482Y-53894715D02*
X82583339Y-53751858D01*
X82583339Y-53751858D02*
X82797625Y-53680429D01*
X82797625Y-53680429D02*
X82940482Y-53680429D01*
X82940482Y-53680429D02*
X83154768Y-53751858D01*
X83154768Y-53751858D02*
X83226196Y-53823286D01*
X83226196Y-53823286D02*
X83226196Y-54323286D01*
X83226196Y-54323286D02*
X82940482Y-54323286D01*
X84440482Y-53751858D02*
X84297625Y-53680429D01*
X84297625Y-53680429D02*
X84011911Y-53680429D01*
X84011911Y-53680429D02*
X83869053Y-53751858D01*
X83869053Y-53751858D02*
X83797625Y-53894715D01*
X83797625Y-53894715D02*
X83797625Y-54466143D01*
X83797625Y-54466143D02*
X83869053Y-54609000D01*
X83869053Y-54609000D02*
X84011911Y-54680429D01*
X84011911Y-54680429D02*
X84297625Y-54680429D01*
X84297625Y-54680429D02*
X84440482Y-54609000D01*
X84440482Y-54609000D02*
X84511911Y-54466143D01*
X84511911Y-54466143D02*
X84511911Y-54323286D01*
X84511911Y-54323286D02*
X83797625Y-54180429D01*
X85154767Y-53680429D02*
X85154767Y-54680429D01*
X85154767Y-55180429D02*
X85083339Y-55109000D01*
X85083339Y-55109000D02*
X85154767Y-55037572D01*
X85154767Y-55037572D02*
X85226196Y-55109000D01*
X85226196Y-55109000D02*
X85154767Y-55180429D01*
X85154767Y-55180429D02*
X85154767Y-55037572D01*
X86511911Y-54680429D02*
X86511911Y-53466143D01*
X86511911Y-53466143D02*
X86440482Y-53323286D01*
X86440482Y-53323286D02*
X86369053Y-53251858D01*
X86369053Y-53251858D02*
X86226196Y-53180429D01*
X86226196Y-53180429D02*
X86011911Y-53180429D01*
X86011911Y-53180429D02*
X85869053Y-53251858D01*
X86511911Y-53751858D02*
X86369053Y-53680429D01*
X86369053Y-53680429D02*
X86083339Y-53680429D01*
X86083339Y-53680429D02*
X85940482Y-53751858D01*
X85940482Y-53751858D02*
X85869053Y-53823286D01*
X85869053Y-53823286D02*
X85797625Y-53966143D01*
X85797625Y-53966143D02*
X85797625Y-54394715D01*
X85797625Y-54394715D02*
X85869053Y-54537572D01*
X85869053Y-54537572D02*
X85940482Y-54609000D01*
X85940482Y-54609000D02*
X86083339Y-54680429D01*
X86083339Y-54680429D02*
X86369053Y-54680429D01*
X86369053Y-54680429D02*
X86511911Y-54609000D01*
X87226196Y-53680429D02*
X87226196Y-54680429D01*
X87226196Y-55180429D02*
X87154768Y-55109000D01*
X87154768Y-55109000D02*
X87226196Y-55037572D01*
X87226196Y-55037572D02*
X87297625Y-55109000D01*
X87297625Y-55109000D02*
X87226196Y-55180429D01*
X87226196Y-55180429D02*
X87226196Y-55037572D01*
X88511911Y-53751858D02*
X88369054Y-53680429D01*
X88369054Y-53680429D02*
X88083340Y-53680429D01*
X88083340Y-53680429D02*
X87940482Y-53751858D01*
X87940482Y-53751858D02*
X87869054Y-53894715D01*
X87869054Y-53894715D02*
X87869054Y-54466143D01*
X87869054Y-54466143D02*
X87940482Y-54609000D01*
X87940482Y-54609000D02*
X88083340Y-54680429D01*
X88083340Y-54680429D02*
X88369054Y-54680429D01*
X88369054Y-54680429D02*
X88511911Y-54609000D01*
X88511911Y-54609000D02*
X88583340Y-54466143D01*
X88583340Y-54466143D02*
X88583340Y-54323286D01*
X88583340Y-54323286D02*
X87869054Y-54180429D01*
X89083339Y-55180429D02*
X90083339Y-55180429D01*
X90083339Y-55180429D02*
X89083339Y-53680429D01*
X89083339Y-53680429D02*
X90083339Y-53680429D01*
X91226196Y-53751858D02*
X91083339Y-53680429D01*
X91083339Y-53680429D02*
X90797625Y-53680429D01*
X90797625Y-53680429D02*
X90654767Y-53751858D01*
X90654767Y-53751858D02*
X90583339Y-53894715D01*
X90583339Y-53894715D02*
X90583339Y-54466143D01*
X90583339Y-54466143D02*
X90654767Y-54609000D01*
X90654767Y-54609000D02*
X90797625Y-54680429D01*
X90797625Y-54680429D02*
X91083339Y-54680429D01*
X91083339Y-54680429D02*
X91226196Y-54609000D01*
X91226196Y-54609000D02*
X91297625Y-54466143D01*
X91297625Y-54466143D02*
X91297625Y-54323286D01*
X91297625Y-54323286D02*
X90583339Y-54180429D01*
X91940481Y-54680429D02*
X91940481Y-53680429D01*
X91940481Y-54537572D02*
X92011910Y-54609000D01*
X92011910Y-54609000D02*
X92154767Y-54680429D01*
X92154767Y-54680429D02*
X92369053Y-54680429D01*
X92369053Y-54680429D02*
X92511910Y-54609000D01*
X92511910Y-54609000D02*
X92583339Y-54466143D01*
X92583339Y-54466143D02*
X92583339Y-53680429D01*
X80797625Y-52765513D02*
X81297625Y-51265513D01*
X81297625Y-51265513D02*
X81797625Y-52765513D01*
X82940482Y-52265513D02*
X82940482Y-51265513D01*
X82583339Y-52836942D02*
X82226196Y-51765513D01*
X82226196Y-51765513D02*
X83154767Y-51765513D01*
X83726195Y-51408370D02*
X83797624Y-51336942D01*
X83797624Y-51336942D02*
X83726195Y-51265513D01*
X83726195Y-51265513D02*
X83654767Y-51336942D01*
X83654767Y-51336942D02*
X83726195Y-51408370D01*
X83726195Y-51408370D02*
X83726195Y-51265513D01*
X84726196Y-52765513D02*
X84869053Y-52765513D01*
X84869053Y-52765513D02*
X85011910Y-52694084D01*
X85011910Y-52694084D02*
X85083339Y-52622656D01*
X85083339Y-52622656D02*
X85154767Y-52479799D01*
X85154767Y-52479799D02*
X85226196Y-52194084D01*
X85226196Y-52194084D02*
X85226196Y-51836942D01*
X85226196Y-51836942D02*
X85154767Y-51551227D01*
X85154767Y-51551227D02*
X85083339Y-51408370D01*
X85083339Y-51408370D02*
X85011910Y-51336942D01*
X85011910Y-51336942D02*
X84869053Y-51265513D01*
X84869053Y-51265513D02*
X84726196Y-51265513D01*
X84726196Y-51265513D02*
X84583339Y-51336942D01*
X84583339Y-51336942D02*
X84511910Y-51408370D01*
X84511910Y-51408370D02*
X84440481Y-51551227D01*
X84440481Y-51551227D02*
X84369053Y-51836942D01*
X84369053Y-51836942D02*
X84369053Y-52194084D01*
X84369053Y-52194084D02*
X84440481Y-52479799D01*
X84440481Y-52479799D02*
X84511910Y-52622656D01*
X84511910Y-52622656D02*
X84583339Y-52694084D01*
X84583339Y-52694084D02*
X84726196Y-52765513D01*
X85869052Y-51408370D02*
X85940481Y-51336942D01*
X85940481Y-51336942D02*
X85869052Y-51265513D01*
X85869052Y-51265513D02*
X85797624Y-51336942D01*
X85797624Y-51336942D02*
X85869052Y-51408370D01*
X85869052Y-51408370D02*
X85869052Y-51265513D01*
X87226196Y-52265513D02*
X87226196Y-51265513D01*
X86869053Y-52836942D02*
X86511910Y-51765513D01*
X86511910Y-51765513D02*
X87440481Y-51765513D01*
X89154766Y-51265513D02*
X89154766Y-52765513D01*
X89154766Y-52765513D02*
X89726195Y-52765513D01*
X89726195Y-52765513D02*
X89869052Y-52694084D01*
X89869052Y-52694084D02*
X89940481Y-52622656D01*
X89940481Y-52622656D02*
X90011909Y-52479799D01*
X90011909Y-52479799D02*
X90011909Y-52265513D01*
X90011909Y-52265513D02*
X89940481Y-52122656D01*
X89940481Y-52122656D02*
X89869052Y-52051227D01*
X89869052Y-52051227D02*
X89726195Y-51979799D01*
X89726195Y-51979799D02*
X89154766Y-51979799D01*
X90654766Y-51265513D02*
X90654766Y-52265513D01*
X90654766Y-51979799D02*
X90726195Y-52122656D01*
X90726195Y-52122656D02*
X90797624Y-52194084D01*
X90797624Y-52194084D02*
X90940481Y-52265513D01*
X90940481Y-52265513D02*
X91083338Y-52265513D01*
X91797623Y-51265513D02*
X91654766Y-51336942D01*
X91654766Y-51336942D02*
X91583337Y-51408370D01*
X91583337Y-51408370D02*
X91511909Y-51551227D01*
X91511909Y-51551227D02*
X91511909Y-51979799D01*
X91511909Y-51979799D02*
X91583337Y-52122656D01*
X91583337Y-52122656D02*
X91654766Y-52194084D01*
X91654766Y-52194084D02*
X91797623Y-52265513D01*
X91797623Y-52265513D02*
X92011909Y-52265513D01*
X92011909Y-52265513D02*
X92154766Y-52194084D01*
X92154766Y-52194084D02*
X92226195Y-52122656D01*
X92226195Y-52122656D02*
X92297623Y-51979799D01*
X92297623Y-51979799D02*
X92297623Y-51551227D01*
X92297623Y-51551227D02*
X92226195Y-51408370D01*
X92226195Y-51408370D02*
X92154766Y-51336942D01*
X92154766Y-51336942D02*
X92011909Y-51265513D01*
X92011909Y-51265513D02*
X91797623Y-51265513D01*
X93583338Y-51265513D02*
X93583338Y-52765513D01*
X93583338Y-51336942D02*
X93440480Y-51265513D01*
X93440480Y-51265513D02*
X93154766Y-51265513D01*
X93154766Y-51265513D02*
X93011909Y-51336942D01*
X93011909Y-51336942D02*
X92940480Y-51408370D01*
X92940480Y-51408370D02*
X92869052Y-51551227D01*
X92869052Y-51551227D02*
X92869052Y-51979799D01*
X92869052Y-51979799D02*
X92940480Y-52122656D01*
X92940480Y-52122656D02*
X93011909Y-52194084D01*
X93011909Y-52194084D02*
X93154766Y-52265513D01*
X93154766Y-52265513D02*
X93440480Y-52265513D01*
X93440480Y-52265513D02*
X93583338Y-52194084D01*
X94940481Y-52265513D02*
X94940481Y-51265513D01*
X94297623Y-52265513D02*
X94297623Y-51479799D01*
X94297623Y-51479799D02*
X94369052Y-51336942D01*
X94369052Y-51336942D02*
X94511909Y-51265513D01*
X94511909Y-51265513D02*
X94726195Y-51265513D01*
X94726195Y-51265513D02*
X94869052Y-51336942D01*
X94869052Y-51336942D02*
X94940481Y-51408370D01*
X96297624Y-51336942D02*
X96154766Y-51265513D01*
X96154766Y-51265513D02*
X95869052Y-51265513D01*
X95869052Y-51265513D02*
X95726195Y-51336942D01*
X95726195Y-51336942D02*
X95654766Y-51408370D01*
X95654766Y-51408370D02*
X95583338Y-51551227D01*
X95583338Y-51551227D02*
X95583338Y-51979799D01*
X95583338Y-51979799D02*
X95654766Y-52122656D01*
X95654766Y-52122656D02*
X95726195Y-52194084D01*
X95726195Y-52194084D02*
X95869052Y-52265513D01*
X95869052Y-52265513D02*
X96154766Y-52265513D01*
X96154766Y-52265513D02*
X96297624Y-52194084D01*
X96726195Y-52265513D02*
X97297623Y-52265513D01*
X96940480Y-52765513D02*
X96940480Y-51479799D01*
X96940480Y-51479799D02*
X97011909Y-51336942D01*
X97011909Y-51336942D02*
X97154766Y-51265513D01*
X97154766Y-51265513D02*
X97297623Y-51265513D01*
X97797623Y-51265513D02*
X97797623Y-52265513D01*
X97797623Y-52765513D02*
X97726195Y-52694084D01*
X97726195Y-52694084D02*
X97797623Y-52622656D01*
X97797623Y-52622656D02*
X97869052Y-52694084D01*
X97869052Y-52694084D02*
X97797623Y-52765513D01*
X97797623Y-52765513D02*
X97797623Y-52622656D01*
X98726195Y-51265513D02*
X98583338Y-51336942D01*
X98583338Y-51336942D02*
X98511909Y-51408370D01*
X98511909Y-51408370D02*
X98440481Y-51551227D01*
X98440481Y-51551227D02*
X98440481Y-51979799D01*
X98440481Y-51979799D02*
X98511909Y-52122656D01*
X98511909Y-52122656D02*
X98583338Y-52194084D01*
X98583338Y-52194084D02*
X98726195Y-52265513D01*
X98726195Y-52265513D02*
X98940481Y-52265513D01*
X98940481Y-52265513D02*
X99083338Y-52194084D01*
X99083338Y-52194084D02*
X99154767Y-52122656D01*
X99154767Y-52122656D02*
X99226195Y-51979799D01*
X99226195Y-51979799D02*
X99226195Y-51551227D01*
X99226195Y-51551227D02*
X99154767Y-51408370D01*
X99154767Y-51408370D02*
X99083338Y-51336942D01*
X99083338Y-51336942D02*
X98940481Y-51265513D01*
X98940481Y-51265513D02*
X98726195Y-51265513D01*
X99869052Y-52265513D02*
X99869052Y-51265513D01*
X99869052Y-52122656D02*
X99940481Y-52194084D01*
X99940481Y-52194084D02*
X100083338Y-52265513D01*
X100083338Y-52265513D02*
X100297624Y-52265513D01*
X100297624Y-52265513D02*
X100440481Y-52194084D01*
X100440481Y-52194084D02*
X100511910Y-52051227D01*
X100511910Y-52051227D02*
X100511910Y-51265513D01*
D12*
X114867255Y-38067048D02*
X114867255Y-38828953D01*
X114867255Y-13802348D02*
X114867255Y-14564253D01*
X115248208Y-14183300D02*
X114486303Y-14183300D01*
X4065742Y902472D02*
X3997170Y879615D01*
X3997170Y879615D02*
X3974313Y856758D01*
X3974313Y856758D02*
X3951456Y811043D01*
X3951456Y811043D02*
X3951456Y742472D01*
X3951456Y742472D02*
X3974313Y696758D01*
X3974313Y696758D02*
X3997170Y673900D01*
X3997170Y673900D02*
X4042885Y651043D01*
X4042885Y651043D02*
X4225742Y651043D01*
X4225742Y651043D02*
X4225742Y1131043D01*
X4225742Y1131043D02*
X4065742Y1131043D01*
X4065742Y1131043D02*
X4020028Y1108186D01*
X4020028Y1108186D02*
X3997170Y1085329D01*
X3997170Y1085329D02*
X3974313Y1039615D01*
X3974313Y1039615D02*
X3974313Y993900D01*
X3974313Y993900D02*
X3997170Y948186D01*
X3997170Y948186D02*
X4020028Y925329D01*
X4020028Y925329D02*
X4065742Y902472D01*
X4065742Y902472D02*
X4225742Y902472D01*
X3814313Y1131043D02*
X3540028Y1131043D01*
X3677170Y651043D02*
X3677170Y1131043D01*
X3128599Y651043D02*
X3402885Y651043D01*
X3265742Y651043D02*
X3265742Y1131043D01*
X3265742Y1131043D02*
X3311456Y1062472D01*
X3311456Y1062472D02*
X3357171Y1016758D01*
X3357171Y1016758D02*
X3402885Y993900D01*
X5322885Y-5955557D02*
X5025742Y-5955557D01*
X5025742Y-5955557D02*
X5185742Y-6138414D01*
X5185742Y-6138414D02*
X5117171Y-6138414D01*
X5117171Y-6138414D02*
X5071457Y-6161271D01*
X5071457Y-6161271D02*
X5048599Y-6184128D01*
X5048599Y-6184128D02*
X5025742Y-6229842D01*
X5025742Y-6229842D02*
X5025742Y-6344128D01*
X5025742Y-6344128D02*
X5048599Y-6389842D01*
X5048599Y-6389842D02*
X5071457Y-6412700D01*
X5071457Y-6412700D02*
X5117171Y-6435557D01*
X5117171Y-6435557D02*
X5254314Y-6435557D01*
X5254314Y-6435557D02*
X5300028Y-6412700D01*
X5300028Y-6412700D02*
X5322885Y-6389842D01*
X4820028Y-6389842D02*
X4797171Y-6412700D01*
X4797171Y-6412700D02*
X4820028Y-6435557D01*
X4820028Y-6435557D02*
X4842885Y-6412700D01*
X4842885Y-6412700D02*
X4820028Y-6389842D01*
X4820028Y-6389842D02*
X4820028Y-6435557D01*
X4637171Y-5955557D02*
X4317171Y-5955557D01*
X4317171Y-5955557D02*
X4522885Y-6435557D01*
X3837171Y-5955557D02*
X3677171Y-6435557D01*
X3677171Y-6435557D02*
X3517171Y-5955557D01*
X2762885Y-6435557D02*
X2991457Y-6435557D01*
X2991457Y-6435557D02*
X2991457Y-5955557D01*
X2602886Y-6435557D02*
X2602886Y-6115557D01*
X2602886Y-5955557D02*
X2625743Y-5978414D01*
X2625743Y-5978414D02*
X2602886Y-6001271D01*
X2602886Y-6001271D02*
X2580029Y-5978414D01*
X2580029Y-5978414D02*
X2602886Y-5955557D01*
X2602886Y-5955557D02*
X2602886Y-6001271D01*
X2374315Y-6115557D02*
X2374315Y-6595557D01*
X2374315Y-6138414D02*
X2328601Y-6115557D01*
X2328601Y-6115557D02*
X2237172Y-6115557D01*
X2237172Y-6115557D02*
X2191458Y-6138414D01*
X2191458Y-6138414D02*
X2168601Y-6161271D01*
X2168601Y-6161271D02*
X2145743Y-6206985D01*
X2145743Y-6206985D02*
X2145743Y-6344128D01*
X2145743Y-6344128D02*
X2168601Y-6389842D01*
X2168601Y-6389842D02*
X2191458Y-6412700D01*
X2191458Y-6412700D02*
X2237172Y-6435557D01*
X2237172Y-6435557D02*
X2328601Y-6435557D01*
X2328601Y-6435557D02*
X2374315Y-6412700D01*
X1871457Y-6435557D02*
X1917172Y-6412700D01*
X1917172Y-6412700D02*
X1940029Y-6389842D01*
X1940029Y-6389842D02*
X1962886Y-6344128D01*
X1962886Y-6344128D02*
X1962886Y-6206985D01*
X1962886Y-6206985D02*
X1940029Y-6161271D01*
X1940029Y-6161271D02*
X1917172Y-6138414D01*
X1917172Y-6138414D02*
X1871457Y-6115557D01*
X1871457Y-6115557D02*
X1802886Y-6115557D01*
X1802886Y-6115557D02*
X1757172Y-6138414D01*
X1757172Y-6138414D02*
X1734315Y-6161271D01*
X1734315Y-6161271D02*
X1711457Y-6206985D01*
X1711457Y-6206985D02*
X1711457Y-6344128D01*
X1711457Y-6344128D02*
X1734315Y-6389842D01*
X1734315Y-6389842D02*
X1757172Y-6412700D01*
X1757172Y-6412700D02*
X1802886Y-6435557D01*
X1802886Y-6435557D02*
X1871457Y-6435557D01*
X5037666Y-14928348D02*
X5037666Y-15690253D01*
X5418619Y-15309300D02*
X4656714Y-15309300D01*
X5037666Y-39193048D02*
X5037666Y-39954953D01*
D13*
%TO.C,BT2*%
X107945589Y-39395500D02*
X119070789Y-39395500D01*
X107945589Y-48930500D02*
X107945589Y-39395500D01*
X107965589Y-1960300D02*
X109083189Y-1960300D01*
X107965589Y-11495300D02*
X107965589Y-1960300D01*
X109063189Y-48930500D02*
X107945589Y-48930500D01*
X109063189Y-52410300D02*
X109063189Y-48930500D01*
X109083189Y1519500D02*
X117973189Y1519500D01*
X109083189Y-1960300D02*
X109083189Y1519500D01*
X117953189Y-48930500D02*
X117953189Y-52410300D01*
X117953189Y-52410300D02*
X109063189Y-52410300D01*
X117973189Y1519500D02*
X117973189Y-1960300D01*
X117973189Y-1960300D02*
X119090789Y-1960300D01*
X119070789Y-39395500D02*
X119070789Y-48930500D01*
X119070789Y-48930500D02*
X117953189Y-48930500D01*
X119090789Y-1960300D02*
X119090789Y-11495300D01*
X119090789Y-11495300D02*
X107965589Y-11495300D01*
%TO.C,BT1*%
X-1884000Y-40521500D02*
X9241200Y-40521500D01*
X-1884000Y-50056500D02*
X-1884000Y-40521500D01*
X-1864000Y-3086300D02*
X-746400Y-3086300D01*
X-1864000Y-12621300D02*
X-1864000Y-3086300D01*
X-766400Y-50056500D02*
X-1884000Y-50056500D01*
X-766400Y-53536300D02*
X-766400Y-50056500D01*
X-746400Y393500D02*
X8143600Y393500D01*
X-746400Y-3086300D02*
X-746400Y393500D01*
X8123600Y-50056500D02*
X8123600Y-53536300D01*
X8123600Y-53536300D02*
X-766400Y-53536300D01*
X8143600Y393500D02*
X8143600Y-3086300D01*
X8143600Y-3086300D02*
X9261200Y-3086300D01*
X9241200Y-40521500D02*
X9241200Y-50056500D01*
X9241200Y-50056500D02*
X8123600Y-50056500D01*
X9261200Y-3086300D02*
X9261200Y-12621300D01*
X9261200Y-12621300D02*
X-1864000Y-12621300D01*
D14*
%TO.C,G back*%
G36*
X76294189Y-232829D02*
G01*
X78205160Y-232829D01*
X78205160Y-591136D01*
X76294189Y-591136D01*
X76294189Y-1825305D01*
X78404220Y-1825305D01*
X78404220Y-2223424D01*
X75896069Y-2223424D01*
X75896069Y1319836D01*
X76294189Y1319836D01*
X76294189Y-232829D01*
G37*
G36*
X82146540Y962808D02*
G01*
X81061665Y952216D01*
X79976790Y941623D01*
X79965804Y335201D01*
X79954818Y-271220D01*
X81887762Y-292546D01*
X81887762Y-650854D01*
X79954764Y-672180D01*
X79965777Y-1258696D01*
X79976790Y-1845211D01*
X81041759Y-1855814D01*
X82106728Y-1866418D01*
X82106728Y-2223424D01*
X79558765Y-2223424D01*
X79558765Y1319836D01*
X82146540Y1319836D01*
X82146540Y962808D01*
G37*
G36*
X96160333Y-1823176D02*
G01*
X96747559Y-1834194D01*
X97334784Y-1845211D01*
X97334784Y-2203518D01*
X94567856Y-2224456D01*
X94567856Y-1825305D01*
X95722402Y-1825305D01*
X95722402Y-279276D01*
X95722437Y-199687D01*
X95723389Y138716D01*
X95725532Y449996D01*
X95728718Y725402D01*
X95732800Y956185D01*
X95737630Y1133595D01*
X95743060Y1248882D01*
X95748943Y1293295D01*
X95767837Y1301856D01*
X95849970Y1314757D01*
X95967909Y1319836D01*
X96160333Y1319836D01*
X96160333Y-1823176D01*
G37*
G36*
X85133784Y1335044D02*
G01*
X85361952Y1286006D01*
X85418814Y1266525D01*
X85609847Y1181974D01*
X85806724Y1072033D01*
X85982129Y952974D01*
X86108750Y841071D01*
X86138737Y806372D01*
X86157688Y762089D01*
X86132400Y712756D01*
X86056520Y633072D01*
X85930291Y506842D01*
X85819998Y594878D01*
X85777367Y628159D01*
X85461353Y828894D01*
X85143357Y950706D01*
X84824480Y993430D01*
X84505824Y956898D01*
X84188487Y840945D01*
X84056148Y765353D01*
X83824576Y569778D01*
X83644677Y326903D01*
X83519561Y48079D01*
X83452342Y-255342D01*
X83446129Y-572009D01*
X83504034Y-890568D01*
X83629170Y-1199670D01*
X83636000Y-1212394D01*
X83794878Y-1447437D01*
X83995050Y-1631475D01*
X84254754Y-1781468D01*
X84361887Y-1827446D01*
X84484906Y-1863081D01*
X84625266Y-1879999D01*
X84813938Y-1883872D01*
X84923850Y-1880607D01*
X85228767Y-1832752D01*
X85496724Y-1723206D01*
X85744132Y-1546010D01*
X85894360Y-1414108D01*
X86037828Y-1557576D01*
X86074473Y-1594953D01*
X86131537Y-1665950D01*
X86144389Y-1725440D01*
X86107206Y-1786857D01*
X86014166Y-1863636D01*
X85859448Y-1969213D01*
X85817291Y-1996615D01*
X85575781Y-2127703D01*
X85330208Y-2210511D01*
X85057433Y-2250910D01*
X84734314Y-2254775D01*
X84565200Y-2247351D01*
X84412258Y-2233527D01*
X84291015Y-2209115D01*
X84175239Y-2168507D01*
X84038701Y-2106096D01*
X83949865Y-2060195D01*
X83644690Y-1847317D01*
X83392005Y-1575203D01*
X83194479Y-1246572D01*
X83186013Y-1228668D01*
X83115091Y-1066099D01*
X83071280Y-926297D01*
X83046268Y-775143D01*
X83031742Y-578515D01*
X83028767Y-404549D01*
X83071103Y-14461D01*
X83180761Y338264D01*
X83354916Y649250D01*
X83590747Y914124D01*
X83885431Y1128510D01*
X84236145Y1288036D01*
X84360499Y1321222D01*
X84602704Y1352707D01*
X84870584Y1357296D01*
X85133784Y1335044D01*
G37*
G36*
X74883742Y1316125D02*
G01*
X74956914Y1300394D01*
X74968800Y1270071D01*
X74964978Y1260772D01*
X74926607Y1172045D01*
X74861631Y1025705D01*
X74774012Y830430D01*
X74667715Y594895D01*
X74546701Y327778D01*
X74414934Y37754D01*
X74276377Y-266499D01*
X74134992Y-576305D01*
X73994744Y-882987D01*
X73859594Y-1177870D01*
X73733506Y-1452275D01*
X73620443Y-1697527D01*
X73524368Y-1904949D01*
X73449243Y-2065865D01*
X73399033Y-2171598D01*
X73377699Y-2213471D01*
X73368666Y-2222465D01*
X73289026Y-2253050D01*
X73176914Y-2261746D01*
X73068674Y-2248553D01*
X73000647Y-2213471D01*
X72996182Y-2205517D01*
X72963468Y-2138156D01*
X72903404Y-2010246D01*
X72819941Y-1830447D01*
X72717029Y-1607419D01*
X72598619Y-1349823D01*
X72468662Y-1066321D01*
X72331110Y-765572D01*
X72189912Y-456238D01*
X72049021Y-146978D01*
X71979449Y6043D01*
X72396684Y6043D01*
X72451406Y-123346D01*
X72455504Y-132943D01*
X72494050Y-220977D01*
X72558237Y-365751D01*
X72642172Y-554042D01*
X72739963Y-772626D01*
X72845719Y-1008280D01*
X73185310Y-1763826D01*
X73272900Y-1565647D01*
X73304926Y-1493414D01*
X73370095Y-1346895D01*
X73454737Y-1156906D01*
X73551464Y-940027D01*
X73652887Y-712842D01*
X73738512Y-519731D01*
X73821186Y-330157D01*
X73886668Y-176561D01*
X73929766Y-71138D01*
X73945286Y-26086D01*
X73944676Y-24808D01*
X73897836Y-15039D01*
X73784962Y-6568D01*
X73618138Y104D01*
X73409451Y4475D01*
X73170985Y6043D01*
X72396684Y6043D01*
X71979449Y6043D01*
X71912386Y153545D01*
X71783959Y436673D01*
X71667690Y693743D01*
X71567531Y916095D01*
X71487432Y1095068D01*
X71431344Y1222003D01*
X71403218Y1288237D01*
X71415781Y1301767D01*
X71486813Y1312809D01*
X71601330Y1312104D01*
X71813453Y1299930D01*
X72225913Y384256D01*
X73178949Y373609D01*
X74131986Y362963D01*
X74341466Y841399D01*
X74550946Y1319836D01*
X74769930Y1319836D01*
X74883742Y1316125D01*
G37*
G36*
X69945760Y1327026D02*
G01*
X70213903Y1241744D01*
X70440770Y1110614D01*
X70618249Y937576D01*
X70738230Y726573D01*
X70792598Y481549D01*
X70798925Y329108D01*
X70782711Y125437D01*
X70729160Y-36157D01*
X70633473Y-175484D01*
X70542723Y-267780D01*
X70400275Y-374690D01*
X70222556Y-466699D01*
X69994881Y-551058D01*
X69702562Y-635016D01*
X69432620Y-709505D01*
X69183712Y-791020D01*
X68998456Y-872000D01*
X68868658Y-958075D01*
X68786125Y-1054874D01*
X68742661Y-1168028D01*
X68730074Y-1303166D01*
X68760618Y-1514885D01*
X68852641Y-1678333D01*
X69007010Y-1793775D01*
X69224593Y-1861859D01*
X69506258Y-1883233D01*
X69654946Y-1876595D01*
X69891378Y-1833933D01*
X70121884Y-1744317D01*
X70372911Y-1599077D01*
X70407145Y-1577084D01*
X70467299Y-1550414D01*
X70514562Y-1571130D01*
X70580492Y-1646432D01*
X70596002Y-1666038D01*
X70654759Y-1754403D01*
X70679277Y-1816229D01*
X70678784Y-1821752D01*
X70637503Y-1877864D01*
X70542301Y-1951850D01*
X70410624Y-2032843D01*
X70259914Y-2109974D01*
X70107617Y-2172377D01*
X70042664Y-2192238D01*
X69821711Y-2232640D01*
X69571495Y-2248322D01*
X69318396Y-2239742D01*
X69088797Y-2207355D01*
X68909079Y-2151619D01*
X68878739Y-2137240D01*
X68633589Y-1981700D01*
X68458438Y-1788253D01*
X68353320Y-1556950D01*
X68318273Y-1287844D01*
X68318286Y-1281520D01*
X68338370Y-1063408D01*
X68400830Y-877583D01*
X68511872Y-718892D01*
X68677701Y-582188D01*
X68904524Y-462320D01*
X69198547Y-354139D01*
X69565975Y-252493D01*
X69647334Y-231938D01*
X69881772Y-163793D01*
X70056075Y-94748D01*
X70185056Y-18085D01*
X70283530Y72914D01*
X70310237Y105999D01*
X70389568Y272365D01*
X70400411Y450577D01*
X70346876Y625186D01*
X70233069Y780747D01*
X70063099Y901811D01*
X70021450Y921132D01*
X69906763Y957004D01*
X69763307Y975013D01*
X69565975Y979061D01*
X69358473Y966999D01*
X69101006Y912071D01*
X68852489Y805024D01*
X68588654Y637373D01*
X68409655Y508825D01*
X68174499Y782375D01*
X68320349Y912495D01*
X68383614Y964486D01*
X68598635Y1102390D01*
X68848944Y1220676D01*
X69102082Y1303123D01*
X69318097Y1344271D01*
X69644455Y1362516D01*
X69945760Y1327026D01*
G37*
G36*
X92676991Y1339103D02*
G01*
X92900172Y1310206D01*
X93072380Y1260735D01*
X93137440Y1230575D01*
X93375528Y1073055D01*
X93549330Y871269D01*
X93655825Y629641D01*
X93691994Y352597D01*
X93691793Y328052D01*
X93661573Y89291D01*
X93574561Y-106077D01*
X93422940Y-276323D01*
X93354510Y-331742D01*
X93214524Y-419986D01*
X93040263Y-498740D01*
X92816794Y-574297D01*
X92529188Y-652948D01*
X92370187Y-694866D01*
X92106624Y-776180D01*
X91909754Y-859074D01*
X91771206Y-949812D01*
X91682608Y-1054653D01*
X91635588Y-1179861D01*
X91621775Y-1331698D01*
X91622335Y-1384077D01*
X91634750Y-1500442D01*
X91674030Y-1585800D01*
X91754014Y-1676207D01*
X91843396Y-1751419D01*
X92053898Y-1855576D01*
X92299098Y-1900917D01*
X92566331Y-1887375D01*
X92842931Y-1814883D01*
X93116233Y-1683375D01*
X93231982Y-1615701D01*
X93323958Y-1565841D01*
X93368369Y-1546894D01*
X93377451Y-1551246D01*
X93424196Y-1600223D01*
X93487997Y-1686066D01*
X93488478Y-1686772D01*
X93539831Y-1775186D01*
X93549516Y-1844292D01*
X93509568Y-1906559D01*
X93412026Y-1974458D01*
X93248925Y-2060459D01*
X92986584Y-2169058D01*
X92634780Y-2245777D01*
X92255873Y-2252528D01*
X92037628Y-2221730D01*
X91765461Y-2130831D01*
X91538738Y-1990976D01*
X91364124Y-1809635D01*
X91248284Y-1594276D01*
X91197886Y-1352369D01*
X91219594Y-1091382D01*
X91258678Y-962035D01*
X91361564Y-777834D01*
X91518795Y-621021D01*
X91736536Y-487233D01*
X92020950Y-372106D01*
X92378201Y-271277D01*
X92437066Y-256912D01*
X92720395Y-178851D01*
X92934880Y-99573D01*
X93089464Y-12908D01*
X93193090Y87312D01*
X93254700Y207257D01*
X93283236Y353098D01*
X93288000Y450966D01*
X93268496Y568669D01*
X93207321Y682845D01*
X93108392Y799875D01*
X92949900Y903936D01*
X92743583Y962859D01*
X92477731Y981435D01*
X92260018Y971533D01*
X92050903Y933723D01*
X91849632Y860282D01*
X91635626Y743549D01*
X91388307Y575863D01*
X91350111Y549469D01*
X91301228Y533121D01*
X91253625Y562165D01*
X91181941Y645110D01*
X91136577Y701542D01*
X91096938Y764889D01*
X91101098Y809532D01*
X91144443Y862185D01*
X91194038Y908758D01*
X91346054Y1018036D01*
X91537669Y1127084D01*
X91743219Y1222075D01*
X91937038Y1289183D01*
X91962788Y1295812D01*
X92182181Y1332560D01*
X92428955Y1346772D01*
X92676991Y1339103D01*
G37*
G36*
X86966839Y1312141D02*
G01*
X87179208Y1299930D01*
X87588146Y384256D01*
X88517344Y373552D01*
X88595428Y372756D01*
X88883265Y371868D01*
X89124317Y374490D01*
X89310387Y380389D01*
X89433275Y389332D01*
X89484779Y401085D01*
X89513014Y446780D01*
X89566241Y551132D01*
X89635845Y697412D01*
X89714001Y869626D01*
X89904986Y1299930D01*
X90130034Y1311979D01*
X90226305Y1314017D01*
X90311810Y1307327D01*
X90338075Y1292073D01*
X90320114Y1253259D01*
X90272558Y1148584D01*
X90198795Y985509D01*
X90102100Y771294D01*
X89985746Y513198D01*
X89853007Y218478D01*
X89707159Y-105605D01*
X89551475Y-451794D01*
X89402915Y-781606D01*
X89255086Y-1108441D01*
X89119520Y-1406791D01*
X88999593Y-1669290D01*
X88898683Y-1888574D01*
X88820166Y-2057275D01*
X88767419Y-2168030D01*
X88743819Y-2213471D01*
X88734736Y-2222698D01*
X88655752Y-2253130D01*
X88543932Y-2261737D01*
X88435383Y-2248517D01*
X88366212Y-2213471D01*
X88364219Y-2210290D01*
X88336149Y-2153905D01*
X88280087Y-2035506D01*
X88199997Y-1863776D01*
X88099841Y-1647393D01*
X87983581Y-1395040D01*
X87855179Y-1115395D01*
X87718598Y-817140D01*
X87577800Y-508956D01*
X87436748Y-199522D01*
X87356840Y-23816D01*
X87770668Y-23816D01*
X87778445Y-40537D01*
X87814754Y-120974D01*
X87875915Y-257507D01*
X87957195Y-439538D01*
X88053857Y-656470D01*
X88161166Y-897705D01*
X88227062Y-1044664D01*
X88328805Y-1266206D01*
X88417881Y-1453619D01*
X88489522Y-1597180D01*
X88538960Y-1687164D01*
X88561425Y-1713849D01*
X88568671Y-1701644D01*
X88604414Y-1628520D01*
X88663344Y-1501482D01*
X88739860Y-1333173D01*
X88828357Y-1136241D01*
X88923234Y-923328D01*
X89018887Y-707080D01*
X89109712Y-500143D01*
X89190108Y-315161D01*
X89254470Y-164780D01*
X89297197Y-61643D01*
X89312684Y-18397D01*
X89311924Y-17314D01*
X89264037Y-9914D01*
X89150249Y-3500D01*
X88982613Y1549D01*
X88773180Y4856D01*
X88534002Y6043D01*
X88496831Y6009D01*
X88262776Y4150D01*
X88061395Y-222D01*
X87904426Y-6646D01*
X87803605Y-14664D01*
X87770668Y-23816D01*
X87356840Y-23816D01*
X87299403Y102481D01*
X87169727Y388371D01*
X87051685Y649470D01*
X86949237Y877095D01*
X86866345Y1062567D01*
X86806973Y1197206D01*
X86775083Y1272329D01*
X86781497Y1302228D01*
X86841155Y1314782D01*
X86966839Y1312141D01*
G37*
G36*
X103207041Y-2541919D02*
G01*
X98907355Y-2541919D01*
X98907355Y-2052189D01*
X99868011Y-2052189D01*
X99871553Y-2147318D01*
X99880857Y-2183612D01*
X99888727Y-2180412D01*
X99953072Y-2146821D01*
X100074468Y-2080502D01*
X100244309Y-1986246D01*
X100453987Y-1868845D01*
X100694894Y-1733092D01*
X100958421Y-1583776D01*
X101159155Y-1468971D01*
X101463183Y-1291391D01*
X101711280Y-1141294D01*
X101899767Y-1020987D01*
X102024960Y-932777D01*
X102083178Y-878970D01*
X102090762Y-866696D01*
X102111022Y-821596D01*
X102126333Y-758701D01*
X102137363Y-667706D01*
X102144780Y-538308D01*
X102149250Y-360204D01*
X102151443Y-123088D01*
X102152026Y183341D01*
X102152026Y1140682D01*
X101923107Y1152622D01*
X101694189Y1164562D01*
X101692778Y336478D01*
X101692589Y265438D01*
X101689777Y-29820D01*
X101683477Y-254843D01*
X101673239Y-417359D01*
X101658615Y-525094D01*
X101639156Y-585773D01*
X101633984Y-593267D01*
X101567819Y-651477D01*
X101438639Y-742002D01*
X101252627Y-860865D01*
X101015968Y-1004084D01*
X100734845Y-1167681D01*
X99882747Y-1655422D01*
X99870975Y-1919517D01*
X99868011Y-2052189D01*
X98907355Y-2052189D01*
X98907355Y-1198527D01*
X99858325Y-1198527D01*
X100029784Y-1098694D01*
X100052039Y-1085792D01*
X100166530Y-1020113D01*
X100326958Y-928719D01*
X100515193Y-821923D01*
X100713105Y-710037D01*
X100774424Y-675482D01*
X100966224Y-565536D01*
X101108846Y-472903D01*
X101209345Y-383736D01*
X101274775Y-284185D01*
X101312192Y-160404D01*
X101328650Y1457D01*
X101331204Y215245D01*
X101326909Y494808D01*
X101315975Y1140682D01*
X101146775Y1152924D01*
X100977574Y1165167D01*
X100976987Y575652D01*
X100975467Y396948D01*
X100966838Y152097D01*
X100950712Y-17113D01*
X100927222Y-108855D01*
X100926337Y-110490D01*
X100868459Y-170380D01*
X100750906Y-258450D01*
X100584584Y-367125D01*
X100380395Y-488826D01*
X99882747Y-773806D01*
X99870536Y-986166D01*
X99858325Y-1198527D01*
X98907355Y-1198527D01*
X98907355Y830168D01*
X99878000Y830168D01*
X99888659Y679477D01*
X99957136Y554483D01*
X100069874Y468497D01*
X100213314Y434833D01*
X100373899Y466803D01*
X100417737Y488949D01*
X100526655Y593774D01*
X100578003Y731147D01*
X100567253Y879565D01*
X100489878Y1017528D01*
X100397783Y1094166D01*
X100300772Y1138529D01*
X100269750Y1143067D01*
X100123870Y1121949D01*
X99992082Y1044581D01*
X99904955Y927276D01*
X99878000Y830168D01*
X98907355Y830168D01*
X98907355Y1638331D01*
X103207041Y1638331D01*
X103207041Y-2541919D01*
G37*
%TD*%
%LPC*%
D15*
%TO.C,J1*%
X55196300Y-43451400D03*
D16*
X55196300Y-45991400D03*
X52656300Y-43451400D03*
X52656300Y-45991400D03*
X50116300Y-43451400D03*
X50116300Y-45991400D03*
X47576300Y-43451400D03*
X47576300Y-45991400D03*
X45036300Y-43451400D03*
X45036300Y-45991400D03*
X42496300Y-43451400D03*
X42496300Y-45991400D03*
X39956300Y-43451400D03*
X39956300Y-45991400D03*
X37416300Y-43451400D03*
X37416300Y-45991400D03*
X34876300Y-43451400D03*
X34876300Y-45991400D03*
X32336300Y-43451400D03*
X32336300Y-45991400D03*
X29796300Y-43451400D03*
X29796300Y-45991400D03*
X27256300Y-43451400D03*
X27256300Y-45991400D03*
X24716300Y-43451400D03*
X24716300Y-45991400D03*
X22176300Y-43451400D03*
X22176300Y-45991400D03*
X19636300Y-43451400D03*
X19636300Y-45991400D03*
%TD*%
D15*
%TO.C,J3*%
X66832300Y-27679100D03*
D16*
X66832300Y-25139100D03*
X66832300Y-22599100D03*
X66832300Y-20059100D03*
X66832300Y-17519100D03*
X66832300Y-14979100D03*
%TD*%
D17*
%TO.C,H4*%
X15351700Y-4874400D03*
%TD*%
D15*
%TO.C,J5*%
X98944400Y-43727300D03*
D16*
X96404400Y-43727300D03*
%TD*%
D15*
%TO.C,J4*%
X82489400Y-13781300D03*
D16*
X82489400Y-11241300D03*
X82489400Y-8701300D03*
%TD*%
D15*
%TO.C,J2*%
X116674200Y-23514500D03*
D16*
X116674200Y-26054500D03*
X116674200Y-28594500D03*
%TD*%
D17*
%TO.C,H6*%
X15481300Y-48604400D03*
%TD*%
D18*
%TO.C,BT2*%
X113528189Y-2097300D03*
X113508189Y-48793500D03*
X110968189Y-42045500D03*
X116048189Y-42045500D03*
X110988189Y-8845300D03*
X116068189Y-8845300D03*
%TD*%
%TO.C,BT1*%
X3698600Y-3223300D03*
X3678600Y-49919500D03*
X1138600Y-43171500D03*
X6218600Y-43171500D03*
X1158600Y-9971300D03*
X6238600Y-9971300D03*
%TD*%
%LPD*%
M02*
