M48
; DRILL file {KiCad 8.99.0-unknown-05b2b3c26e~178~ubuntu22.04.1} date 2024-05-07T20:45:26+0900
; FORMAT={-:-/ absolute / inch / decimal}
; #@! TF.CreationDate,2024-05-07T20:45:26+09:00
; #@! TF.GenerationSoftware,Kicad,Pcbnew,8.99.0-unknown-05b2b3c26e~178~ubuntu22.04.1
; #@! TF.FileFunction,Plated,1,2,PTH
FMAT,2
INCH
; #@! TA.AperFunction,Plated,PTH,ComponentDrill
T1C0.0394
; #@! TA.AperFunction,Plated,PTH,ComponentDrill
T2C0.0720
%
G90
G05
T1
X0.7731Y-1.7107
X0.7731Y-1.8107
X0.8731Y-1.7107
X0.8731Y-1.8107
X0.9731Y-1.7107
X0.9731Y-1.8107
X1.0731Y-1.7107
X1.0731Y-1.8107
X1.1731Y-1.7107
X1.1731Y-1.8107
X1.2731Y-1.7107
X1.2731Y-1.8107
X1.3731Y-1.7107
X1.3731Y-1.8107
X1.4731Y-1.7107
X1.4731Y-1.8107
X1.5731Y-1.7107
X1.5731Y-1.8107
X1.6731Y-1.7107
X1.6731Y-1.8107
X1.7731Y-1.7107
X1.7731Y-1.8107
X1.8731Y-1.7107
X1.8731Y-1.8107
X1.9731Y-1.7107
X1.9731Y-1.8107
X2.0731Y-1.7107
X2.0731Y-1.8107
X2.1731Y-1.7107
X2.1731Y-1.8107
X2.6312Y-0.5897
X2.6312Y-0.6897
X2.6312Y-0.7897
X2.6312Y-0.8897
X2.6312Y-0.9897
X2.6312Y-1.0897
X3.2476Y-0.3426
X3.2476Y-0.4426
X3.2476Y-0.5426
X3.7954Y-1.7215
X3.8954Y-1.7215
X4.5935Y-0.9258
X4.5935Y-1.0258
X4.5935Y-1.1258
T2
X0.0448Y-1.6997
X0.0456Y-0.3926
X0.1448Y-1.9653
X0.1456Y-0.1269
X0.2448Y-1.6997
X0.2456Y-0.3926
X4.3688Y-1.6553
X4.3696Y-0.3482
X4.4688Y-1.921
X4.4696Y-0.0826
X4.5688Y-1.6553
X4.5696Y-0.3482
M30
