G04 #@! TF.GenerationSoftware,KiCad,Pcbnew,8.0.0~rc1-27482ef8a0~176~ubuntu22.04.1*
G04 #@! TF.CreationDate,2024-01-20T19:03:22+09:00*
G04 #@! TF.ProjectId,bGeigieZen V3.0.2 Production,62476569-6769-4655-9a65-6e2056332e30,V3.0.2*
G04 #@! TF.SameCoordinates,Original*
G04 #@! TF.FileFunction,Copper,L2,Bot*
G04 #@! TF.FilePolarity,Positive*
%FSLAX46Y46*%
G04 Gerber Fmt 4.6, Leading zero omitted, Abs format (unit mm)*
G04 Created by KiCad (PCBNEW 8.0.0~rc1-27482ef8a0~176~ubuntu22.04.1) date 2024-01-20 19:03:22*
%MOMM*%
%LPD*%
G01*
G04 APERTURE LIST*
G04 #@! TA.AperFunction,ComponentPad*
%ADD10R,1.700000X1.700000*%
G04 #@! TD*
G04 #@! TA.AperFunction,ComponentPad*
%ADD11O,1.700000X1.700000*%
G04 #@! TD*
G04 #@! TA.AperFunction,ComponentPad*
%ADD12C,1.676400*%
G04 #@! TD*
G04 #@! TA.AperFunction,ComponentPad*
%ADD13C,3.000000*%
G04 #@! TD*
G04 #@! TA.AperFunction,ComponentPad*
%ADD14R,1.350000X1.350000*%
G04 #@! TD*
G04 #@! TA.AperFunction,ComponentPad*
%ADD15O,1.350000X1.350000*%
G04 #@! TD*
G04 #@! TA.AperFunction,ComponentPad*
%ADD16C,2.743200*%
G04 #@! TD*
G04 #@! TA.AperFunction,ViaPad*
%ADD17C,0.300000*%
G04 #@! TD*
G04 #@! TA.AperFunction,Conductor*
%ADD18C,0.250000*%
G04 #@! TD*
G04 #@! TA.AperFunction,Conductor*
%ADD19C,0.500000*%
G04 #@! TD*
G04 APERTURE END LIST*
D10*
X141452600Y-116407000D03*
D11*
X141452600Y-118947000D03*
X138912600Y-116407000D03*
X138912600Y-118947000D03*
X136372600Y-116407000D03*
X136372600Y-118947000D03*
X133832600Y-116407000D03*
X133832600Y-118947000D03*
X131292600Y-116407000D03*
X131292600Y-118947000D03*
X128752600Y-116407000D03*
X128752600Y-118947000D03*
X126212600Y-116407000D03*
X126212600Y-118947000D03*
X123672600Y-116407000D03*
X123672600Y-118947000D03*
X121132600Y-116407000D03*
X121132600Y-118947000D03*
X118592600Y-116407000D03*
X118592600Y-118947000D03*
X116052600Y-116407000D03*
X116052600Y-118947000D03*
X113512600Y-116407000D03*
X113512600Y-118947000D03*
X110972600Y-116407000D03*
X110972600Y-118947000D03*
X108432600Y-116407000D03*
X108432600Y-118947000D03*
X105892600Y-116407000D03*
X105892600Y-118947000D03*
D10*
X209330734Y-90462202D03*
D11*
X206790734Y-90462202D03*
D10*
X152984600Y-98500000D03*
D11*
X152984600Y-95960000D03*
X152984600Y-93420000D03*
X152984600Y-90880000D03*
X152984600Y-88340000D03*
X152984600Y-85800000D03*
D12*
X187505600Y-73838000D03*
X184505600Y-73838000D03*
X181505600Y-73838000D03*
D13*
X190755600Y-73838000D03*
X178255600Y-73838000D03*
D10*
X209335334Y-104940202D03*
D11*
X206795334Y-104940202D03*
D10*
X161121600Y-106925000D03*
D11*
X161121600Y-104385000D03*
D10*
X191067600Y-90470000D03*
D11*
X193607600Y-90470000D03*
X196147600Y-90470000D03*
D10*
X207108000Y-95330000D03*
D11*
X207108000Y-97870000D03*
X207108000Y-100410000D03*
D10*
X183134000Y-104850000D03*
D11*
X183134000Y-101884500D03*
D14*
X158447600Y-120169000D03*
D15*
X158447600Y-118169000D03*
X158447600Y-116169000D03*
X158447600Y-114169000D03*
D10*
X183032400Y-90422800D03*
D11*
X183063469Y-93510215D03*
D16*
X207925600Y-117150000D03*
X153417600Y-119670000D03*
X153417600Y-114590000D03*
X146669600Y-117130000D03*
X201177600Y-114610000D03*
X201177600Y-119690000D03*
D17*
X125451000Y-112470000D03*
X123038000Y-108660000D03*
X155249000Y-110003000D03*
X173128000Y-99695100D03*
D18*
X152984600Y-90880000D02*
X152985000Y-90880000D01*
X129388000Y-112470000D02*
X151810000Y-90880000D01*
X151810000Y-90880000D02*
X152984600Y-90880000D01*
X125451000Y-112470000D02*
X129388000Y-112470000D01*
X123722000Y-118996000D02*
X123698000Y-118972000D01*
X125273000Y-120547000D02*
X124468000Y-119742000D01*
X143053000Y-102615000D02*
X143053000Y-119610000D01*
X123697000Y-118972000D02*
X123685000Y-118960000D01*
X123679000Y-118953500D02*
X123676000Y-118950200D01*
X152984600Y-93420000D02*
X152248000Y-93420000D01*
X123772000Y-119046000D02*
X123872000Y-119146000D01*
X124468000Y-119742000D02*
X124467000Y-119742000D01*
X123676000Y-118950200D02*
X123673000Y-118947000D01*
X124070000Y-119344000D02*
X123872000Y-119146000D01*
X123673000Y-118947000D02*
X123698000Y-118972000D01*
X123872000Y-119146000D02*
X123871000Y-119146000D01*
X123676000Y-118950200D02*
X123673000Y-118947000D01*
X123698000Y-118972000D02*
X123697000Y-118972000D01*
X143053000Y-119610000D02*
X142115000Y-120547000D01*
X123772000Y-119046000D02*
X123747000Y-119021000D01*
X123747000Y-119021000D02*
X123722000Y-118996000D01*
X123685000Y-118960000D02*
X123679000Y-118953500D01*
X123672600Y-118947000D02*
X123673000Y-118947000D01*
X123679000Y-118953500D02*
X123676000Y-118950200D01*
X123747000Y-119021000D02*
X123722000Y-118996000D01*
X123685000Y-118960000D02*
X123679000Y-118953500D01*
X152985000Y-93420000D02*
X152984600Y-93420000D01*
X152248000Y-93420000D02*
X143053000Y-102615000D01*
X142115000Y-120547000D02*
X125273000Y-120547000D01*
X124070000Y-119344000D02*
X124468000Y-119742000D01*
X124467000Y-119742000D02*
X124070000Y-119344000D01*
X123871000Y-119146000D02*
X123772000Y-119046000D01*
D19*
X196148000Y-90470000D02*
X196147600Y-90470000D01*
X158448000Y-116169000D02*
X158447600Y-116169000D01*
X158447600Y-116169000D02*
X157021000Y-116169000D01*
X152984600Y-88340000D02*
X152985000Y-88340000D01*
X202608000Y-95330000D02*
X197748000Y-90470000D01*
X157021000Y-116169000D02*
X157021000Y-92376300D01*
X157021000Y-92376300D02*
X152985000Y-88340000D01*
X197748000Y-90470000D02*
X196148000Y-90470000D01*
X207108000Y-95330000D02*
X202608000Y-95330000D01*
X185462000Y-74793800D02*
X185461000Y-74793800D01*
X207925600Y-117150000D02*
X207926000Y-117150000D01*
X183134000Y-101884000D02*
X183134000Y-101884500D01*
X186325000Y-98693300D02*
X183134000Y-101884000D01*
X184075000Y-104850000D02*
X183134000Y-104850000D01*
X207925600Y-117150000D02*
X204497600Y-117150000D01*
X184745000Y-74076900D02*
X184506000Y-73838000D01*
X186878000Y-76210300D02*
X186878000Y-98693300D01*
X204497600Y-117150000D02*
X196375000Y-117150000D01*
X186878000Y-98693300D02*
X186325000Y-98693300D01*
X184984000Y-74315900D02*
X185462000Y-74793800D01*
X196375000Y-117150000D02*
X184075000Y-104850000D01*
X183134000Y-101884500D02*
X183134000Y-104850000D01*
X184984000Y-74315900D02*
X184745000Y-74076900D01*
X184505600Y-73838000D02*
X184506000Y-73838000D01*
X185462000Y-74793800D02*
X186878000Y-76210300D01*
X185461000Y-74793800D02*
X184984000Y-74315900D01*
D18*
X193608000Y-90470000D02*
X194253000Y-91114800D01*
X118592600Y-118947400D02*
X118593000Y-118947000D01*
X123038000Y-108660000D02*
X119492000Y-112206000D01*
X104242000Y-115795000D02*
X104242000Y-119134000D01*
X118592600Y-118947400D02*
X118592600Y-118947000D01*
X194252000Y-91114800D02*
X193608000Y-90470000D01*
X107831000Y-112206000D02*
X104242000Y-115795000D01*
X105451000Y-120344000D02*
X117196000Y-120344000D01*
X117196000Y-120344000D02*
X118592600Y-118947400D01*
X193607600Y-90470000D02*
X193608000Y-90470000D01*
X119492000Y-112206000D02*
X107831000Y-112206000D01*
X194253000Y-91114800D02*
X194252000Y-91114800D01*
X104242000Y-119134000D02*
X105451000Y-120344000D01*
X149697600Y-116940400D02*
X149697600Y-116940000D01*
X174641000Y-99695100D02*
X181551000Y-92785000D01*
X149888000Y-117130000D02*
X149698000Y-116940000D01*
X151412000Y-116596000D02*
X150878000Y-117130000D01*
X173128000Y-99695100D02*
X174641000Y-99695100D01*
X150878000Y-117130000D02*
X149888000Y-117130000D01*
X153418000Y-119670000D02*
X150878000Y-117130000D01*
X151412000Y-113840000D02*
X155249000Y-110003000D01*
X149508000Y-117130000D02*
X146670000Y-117130000D01*
X182728000Y-92785000D02*
X182905400Y-92785000D01*
X149697600Y-116940400D02*
X149508000Y-117130000D01*
X151412000Y-116596000D02*
X151412000Y-113840000D01*
X149698000Y-116940000D02*
X149697600Y-116940400D01*
X181551000Y-92785000D02*
X182728000Y-92785000D01*
X153418000Y-114590000D02*
X151412000Y-116596000D01*
X182905400Y-92785000D02*
X183083200Y-92962800D01*
G04 #@! TA.AperFunction,Conductor*
G36*
X138446675Y-118754007D02*
G01*
X138412600Y-118881174D01*
X138412600Y-119012826D01*
X138446675Y-119139993D01*
X138481897Y-119201000D01*
X136803303Y-119201000D01*
X136838525Y-119139993D01*
X136872600Y-119012826D01*
X136872600Y-118881174D01*
X136838525Y-118754007D01*
X136803303Y-118693000D01*
X138481897Y-118693000D01*
X138446675Y-118754007D01*
G37*
G04 #@! TD.AperFunction*
G04 #@! TA.AperFunction,Conductor*
G36*
X140986675Y-118754007D02*
G01*
X140952600Y-118881174D01*
X140952600Y-119012826D01*
X140986675Y-119139993D01*
X141021897Y-119201000D01*
X139343303Y-119201000D01*
X139378525Y-119139993D01*
X139412600Y-119012826D01*
X139412600Y-118881174D01*
X139378525Y-118754007D01*
X139343303Y-118693000D01*
X141021897Y-118693000D01*
X140986675Y-118754007D01*
G37*
G04 #@! TD.AperFunction*
G04 #@! TA.AperFunction,Conductor*
G36*
X208864809Y-90269209D02*
G01*
X208830734Y-90396376D01*
X208830734Y-90528028D01*
X208864809Y-90655195D01*
X208900031Y-90716202D01*
X207221437Y-90716202D01*
X207256659Y-90655195D01*
X207290734Y-90528028D01*
X207290734Y-90396376D01*
X207256659Y-90269209D01*
X207221437Y-90208202D01*
X208900031Y-90208202D01*
X208864809Y-90269209D01*
G37*
G04 #@! TD.AperFunction*
G04 #@! TA.AperFunction,Conductor*
G36*
X105651440Y-66676377D02*
G01*
X105795003Y-66685760D01*
X105798833Y-66686069D01*
X105944408Y-66700116D01*
X105948140Y-66700534D01*
X106093064Y-66719028D01*
X106096826Y-66719566D01*
X106241031Y-66742470D01*
X106244766Y-66743122D01*
X106388152Y-66770393D01*
X106391848Y-66771153D01*
X106526266Y-66800972D01*
X106534263Y-66802746D01*
X106537971Y-66803628D01*
X106679183Y-66839468D01*
X106682845Y-66840456D01*
X106822860Y-66880534D01*
X106826480Y-66881629D01*
X106899608Y-66904973D01*
X106965116Y-66925884D01*
X106968726Y-66927097D01*
X106990146Y-66934655D01*
X107105869Y-66975488D01*
X107109409Y-66976797D01*
X107244890Y-67029265D01*
X107244903Y-67029270D01*
X107248432Y-67030699D01*
X107382120Y-67087197D01*
X107385595Y-67088727D01*
X107517456Y-67149248D01*
X107520881Y-67150885D01*
X107650642Y-67215320D01*
X107654039Y-67217072D01*
X107752729Y-67269924D01*
X107781596Y-67285383D01*
X107785007Y-67287279D01*
X107909859Y-67359203D01*
X107913757Y-67361543D01*
X108653786Y-67824557D01*
X108662190Y-67829815D01*
X108668772Y-67835511D01*
X108678271Y-67840399D01*
X108687464Y-67845629D01*
X108696557Y-67851320D01*
X108704820Y-67854064D01*
X108849286Y-67928418D01*
X109468169Y-68246948D01*
X109475032Y-68251963D01*
X109485423Y-68256290D01*
X109494644Y-68260574D01*
X109504713Y-68265755D01*
X109512977Y-68267760D01*
X110280424Y-68587250D01*
X110304811Y-68597402D01*
X110311892Y-68601760D01*
X110323069Y-68605419D01*
X110332308Y-68608849D01*
X110343235Y-68613399D01*
X110351452Y-68614712D01*
X111167115Y-68881812D01*
X111174345Y-68885530D01*
X111186229Y-68888449D01*
X111195411Y-68891077D01*
X111207076Y-68894899D01*
X111215179Y-68895565D01*
X112049992Y-69100787D01*
X112057326Y-69103896D01*
X112069833Y-69106014D01*
X112078905Y-69107896D01*
X112091271Y-69110938D01*
X112099245Y-69110999D01*
X112948523Y-69254985D01*
X112955922Y-69257508D01*
X112968927Y-69258769D01*
X112977859Y-69259959D01*
X112990761Y-69262148D01*
X112998567Y-69261646D01*
X113857610Y-69345020D01*
X113865069Y-69346989D01*
X113878392Y-69347347D01*
X113887218Y-69347894D01*
X113900559Y-69349192D01*
X113908201Y-69348153D01*
X114772249Y-69371532D01*
X114779730Y-69372962D01*
X114793271Y-69372398D01*
X114801930Y-69372335D01*
X114815548Y-69372703D01*
X114823008Y-69371159D01*
X115687374Y-69335155D01*
X115694901Y-69336068D01*
X115708482Y-69334570D01*
X115717070Y-69333919D01*
X115730762Y-69333350D01*
X115738069Y-69331309D01*
X116598012Y-69236530D01*
X116605589Y-69236930D01*
X116619070Y-69234505D01*
X116627604Y-69233269D01*
X116641242Y-69231768D01*
X116648389Y-69229234D01*
X117499213Y-69076279D01*
X117506829Y-69076159D01*
X117520000Y-69072845D01*
X117528465Y-69071021D01*
X117541881Y-69068610D01*
X117548865Y-69065583D01*
X118385796Y-68855061D01*
X118393465Y-68854412D01*
X118406246Y-68850233D01*
X118414695Y-68847793D01*
X118427699Y-68844523D01*
X118434528Y-68840987D01*
X119252889Y-68573483D01*
X119260608Y-68572280D01*
X119272785Y-68567316D01*
X119281236Y-68564218D01*
X119293716Y-68560141D01*
X119300377Y-68556074D01*
X120095478Y-68232162D01*
X120103219Y-68230375D01*
X120114645Y-68224717D01*
X120123053Y-68220929D01*
X120134904Y-68216103D01*
X120141366Y-68211488D01*
X120908457Y-67831759D01*
X120916199Y-67829357D01*
X120926781Y-67823087D01*
X120935141Y-67818550D01*
X120946216Y-67813070D01*
X120952453Y-67807879D01*
X121703975Y-67362737D01*
X121711358Y-67358693D01*
X121970208Y-67227919D01*
X121973780Y-67226186D01*
X122240653Y-67102063D01*
X122244004Y-67100565D01*
X122378189Y-67042905D01*
X122380667Y-67041873D01*
X122516626Y-66987038D01*
X122519452Y-66985939D01*
X122656274Y-66934641D01*
X122659420Y-66933510D01*
X122797299Y-66886001D01*
X122800728Y-66884874D01*
X122939599Y-66841504D01*
X122943294Y-66840414D01*
X123083099Y-66801529D01*
X123087153Y-66800475D01*
X123227844Y-66766408D01*
X123232254Y-66765425D01*
X123373813Y-66736500D01*
X123378502Y-66735635D01*
X123520953Y-66712173D01*
X123525980Y-66711449D01*
X123669281Y-66693776D01*
X123674615Y-66693235D01*
X123795336Y-66683550D01*
X123818780Y-66681669D01*
X123824352Y-66681347D01*
X123966747Y-66676309D01*
X123970140Y-66676189D01*
X123974595Y-66676110D01*
X128626843Y-66676110D01*
X128635059Y-66676378D01*
X128654314Y-66677636D01*
X128778619Y-66685759D01*
X128782454Y-66686069D01*
X128928000Y-66700113D01*
X128931788Y-66700538D01*
X129076683Y-66719029D01*
X129080465Y-66719570D01*
X129224642Y-66742469D01*
X129228366Y-66743118D01*
X129371773Y-66770393D01*
X129375469Y-66771153D01*
X129509887Y-66800972D01*
X129517884Y-66802746D01*
X129521592Y-66803628D01*
X129662804Y-66839468D01*
X129666466Y-66840456D01*
X129806481Y-66880534D01*
X129810101Y-66881629D01*
X129883073Y-66904923D01*
X129948738Y-66925884D01*
X129952348Y-66927097D01*
X129973768Y-66934655D01*
X130089491Y-66975488D01*
X130093050Y-66976805D01*
X130228509Y-67029265D01*
X130232052Y-67030699D01*
X130264528Y-67044423D01*
X130365728Y-67087190D01*
X130365757Y-67087202D01*
X130369214Y-67088725D01*
X130501050Y-67149235D01*
X130504498Y-67150882D01*
X130634264Y-67215320D01*
X130637661Y-67217072D01*
X130765209Y-67285378D01*
X130768614Y-67287270D01*
X130868270Y-67344679D01*
X130893441Y-67359179D01*
X130897369Y-67361538D01*
X131637405Y-67824557D01*
X131645809Y-67829815D01*
X131652391Y-67835511D01*
X131661890Y-67840399D01*
X131671083Y-67845629D01*
X131680176Y-67851320D01*
X131688439Y-67854064D01*
X131832905Y-67928418D01*
X132451788Y-68246948D01*
X132458651Y-68251963D01*
X132469042Y-68256290D01*
X132478263Y-68260574D01*
X132488332Y-68265755D01*
X132496596Y-68267760D01*
X133264043Y-68587250D01*
X133288430Y-68597402D01*
X133295511Y-68601760D01*
X133306688Y-68605419D01*
X133315927Y-68608849D01*
X133326855Y-68613399D01*
X133335071Y-68614713D01*
X133454755Y-68653905D01*
X134150733Y-68881812D01*
X134157962Y-68885529D01*
X134169836Y-68888446D01*
X134179018Y-68891074D01*
X134190692Y-68894899D01*
X134198796Y-68895565D01*
X135033610Y-69100787D01*
X135040944Y-69103896D01*
X135053451Y-69106014D01*
X135062523Y-69107896D01*
X135074889Y-69110938D01*
X135082863Y-69110999D01*
X135932141Y-69254985D01*
X135939540Y-69257508D01*
X135952545Y-69258769D01*
X135961477Y-69259959D01*
X135974379Y-69262148D01*
X135982185Y-69261646D01*
X136841227Y-69345020D01*
X136848686Y-69346989D01*
X136862009Y-69347347D01*
X136870835Y-69347894D01*
X136884176Y-69349192D01*
X136891818Y-69348153D01*
X137755866Y-69371532D01*
X137763347Y-69372962D01*
X137776888Y-69372398D01*
X137785547Y-69372335D01*
X137799165Y-69372703D01*
X137806625Y-69371159D01*
X138670991Y-69335155D01*
X138678518Y-69336068D01*
X138692099Y-69334570D01*
X138700687Y-69333919D01*
X138714379Y-69333350D01*
X138721686Y-69331309D01*
X139581629Y-69236530D01*
X139589206Y-69236930D01*
X139602687Y-69234505D01*
X139611221Y-69233269D01*
X139624859Y-69231768D01*
X139632006Y-69229234D01*
X140482830Y-69076279D01*
X140490446Y-69076159D01*
X140503617Y-69072845D01*
X140512082Y-69071021D01*
X140525498Y-69068610D01*
X140532482Y-69065583D01*
X141369412Y-68855061D01*
X141377081Y-68854412D01*
X141389862Y-68850233D01*
X141398311Y-68847793D01*
X141411315Y-68844523D01*
X141418144Y-68840987D01*
X142236505Y-68573483D01*
X142244223Y-68572280D01*
X142256400Y-68567316D01*
X142264851Y-68564218D01*
X142277334Y-68560140D01*
X142283997Y-68556073D01*
X142647465Y-68408001D01*
X143079087Y-68232164D01*
X143086830Y-68230377D01*
X143098259Y-68224717D01*
X143106667Y-68220929D01*
X143118518Y-68216103D01*
X143124980Y-68211488D01*
X143892070Y-67831759D01*
X143899812Y-67829357D01*
X143910394Y-67823087D01*
X143918754Y-67818550D01*
X143929829Y-67813070D01*
X143936066Y-67807879D01*
X144687574Y-67362746D01*
X144694931Y-67358714D01*
X144953848Y-67227907D01*
X144957395Y-67226186D01*
X145224270Y-67102063D01*
X145227640Y-67100557D01*
X145361774Y-67042919D01*
X145364314Y-67041861D01*
X145500242Y-66987038D01*
X145503067Y-66985939D01*
X145639891Y-66934640D01*
X145642996Y-66933523D01*
X145780973Y-66885981D01*
X145784345Y-66884874D01*
X145923234Y-66841499D01*
X145926895Y-66840419D01*
X146066717Y-66801529D01*
X146070772Y-66800475D01*
X146211463Y-66766408D01*
X146215872Y-66765425D01*
X146357433Y-66736500D01*
X146362122Y-66735635D01*
X146504573Y-66712173D01*
X146509600Y-66711449D01*
X146652901Y-66693776D01*
X146658234Y-66693235D01*
X146779142Y-66683535D01*
X146802400Y-66681669D01*
X146807972Y-66681347D01*
X146950367Y-66676309D01*
X146953760Y-66676189D01*
X146958215Y-66676110D01*
X151610463Y-66676110D01*
X151618679Y-66676377D01*
X151762242Y-66685760D01*
X151766072Y-66686069D01*
X151911647Y-66700116D01*
X151915379Y-66700534D01*
X152060283Y-66719026D01*
X152064091Y-66719571D01*
X152208262Y-66742469D01*
X152211992Y-66743119D01*
X152355391Y-66770393D01*
X152359087Y-66771153D01*
X152501501Y-66802746D01*
X152505209Y-66803628D01*
X152646421Y-66839468D01*
X152650083Y-66840456D01*
X152790098Y-66880534D01*
X152793718Y-66881629D01*
X152866846Y-66904973D01*
X152932354Y-66925884D01*
X152935964Y-66927097D01*
X152954136Y-66933509D01*
X153073106Y-66975488D01*
X153076646Y-66976797D01*
X153163649Y-67010491D01*
X153212124Y-67029264D01*
X153215669Y-67030699D01*
X153245790Y-67043428D01*
X153341269Y-67083778D01*
X153349360Y-67087197D01*
X153352872Y-67088745D01*
X153484651Y-67149229D01*
X153488126Y-67150889D01*
X153617878Y-67215320D01*
X153621275Y-67217072D01*
X153748855Y-67285395D01*
X153752220Y-67287265D01*
X153877269Y-67359303D01*
X153881159Y-67361639D01*
X154621033Y-67824557D01*
X154629437Y-67829815D01*
X154636019Y-67835511D01*
X154645518Y-67840399D01*
X154654711Y-67845629D01*
X154663804Y-67851320D01*
X154672067Y-67854064D01*
X154810964Y-67925552D01*
X155406692Y-68232165D01*
X155435417Y-68246949D01*
X155442286Y-68251969D01*
X155452650Y-68256283D01*
X155461896Y-68260579D01*
X155471947Y-68265752D01*
X155480221Y-68267760D01*
X156272062Y-68597405D01*
X156279148Y-68601766D01*
X156290301Y-68605416D01*
X156299560Y-68608853D01*
X156310453Y-68613390D01*
X156318673Y-68614706D01*
X156361922Y-68628868D01*
X157134365Y-68881816D01*
X157141593Y-68885532D01*
X157153465Y-68888449D01*
X157162647Y-68891077D01*
X157174321Y-68894902D01*
X157182425Y-68895568D01*
X158017240Y-69100790D01*
X158024574Y-69103899D01*
X158037081Y-69106017D01*
X158046153Y-69107899D01*
X158058519Y-69110941D01*
X158066493Y-69111002D01*
X158915773Y-69254989D01*
X158923171Y-69257513D01*
X158936175Y-69258773D01*
X158945107Y-69259963D01*
X158958009Y-69262152D01*
X158965815Y-69261650D01*
X159824858Y-69345025D01*
X159832317Y-69346994D01*
X159845640Y-69347352D01*
X159854466Y-69347899D01*
X159867807Y-69349197D01*
X159875448Y-69348158D01*
X160739496Y-69371538D01*
X160746978Y-69372968D01*
X160760519Y-69372404D01*
X160769178Y-69372341D01*
X160782796Y-69372709D01*
X160790256Y-69371165D01*
X161654623Y-69335161D01*
X161662150Y-69336074D01*
X161675731Y-69334576D01*
X161684319Y-69333925D01*
X161698011Y-69333356D01*
X161705318Y-69331315D01*
X162565259Y-69236537D01*
X162572837Y-69236937D01*
X162586318Y-69234512D01*
X162594852Y-69233276D01*
X162608490Y-69231775D01*
X162615637Y-69229241D01*
X163466462Y-69076286D01*
X163474078Y-69076166D01*
X163487249Y-69072852D01*
X163495714Y-69071028D01*
X163509127Y-69068617D01*
X163516108Y-69065592D01*
X164353046Y-68855067D01*
X164360715Y-68854418D01*
X164373494Y-68850239D01*
X164381943Y-68847799D01*
X164394946Y-68844530D01*
X164401771Y-68840995D01*
X165220138Y-68573488D01*
X165227856Y-68572285D01*
X165240033Y-68567321D01*
X165248484Y-68564223D01*
X165260964Y-68560146D01*
X165267625Y-68556079D01*
X166062726Y-68232167D01*
X166070467Y-68230380D01*
X166081893Y-68224722D01*
X166090301Y-68220934D01*
X166102151Y-68216108D01*
X166108612Y-68211494D01*
X166875704Y-67831762D01*
X166883446Y-67829360D01*
X166894029Y-67823089D01*
X166902389Y-67818552D01*
X166913464Y-67813072D01*
X166919701Y-67807881D01*
X167671253Y-67362719D01*
X167678630Y-67358676D01*
X167937441Y-67227922D01*
X167941087Y-67226155D01*
X168207893Y-67102063D01*
X168211244Y-67100565D01*
X168345397Y-67042919D01*
X168347938Y-67041861D01*
X168483865Y-66987038D01*
X168486690Y-66985939D01*
X168623515Y-66934641D01*
X168626620Y-66933523D01*
X168764597Y-66885981D01*
X168767969Y-66884874D01*
X168906858Y-66841499D01*
X168910519Y-66840419D01*
X169050356Y-66801525D01*
X169054382Y-66800478D01*
X169195088Y-66766408D01*
X169199497Y-66765425D01*
X169341058Y-66736500D01*
X169345747Y-66735635D01*
X169488198Y-66712173D01*
X169493225Y-66711449D01*
X169636526Y-66693776D01*
X169641860Y-66693235D01*
X169762768Y-66683535D01*
X169786026Y-66681669D01*
X169791598Y-66681347D01*
X169933921Y-66676311D01*
X169937387Y-66676189D01*
X169941842Y-66676110D01*
X174594083Y-66676110D01*
X174602299Y-66676377D01*
X174745862Y-66685760D01*
X174749692Y-66686069D01*
X174895267Y-66700116D01*
X174898999Y-66700534D01*
X175043921Y-66719028D01*
X175047684Y-66719566D01*
X175191889Y-66742470D01*
X175195624Y-66743122D01*
X175339010Y-66770393D01*
X175342706Y-66771153D01*
X175477124Y-66800972D01*
X175485121Y-66802746D01*
X175488829Y-66803628D01*
X175630041Y-66839468D01*
X175633703Y-66840456D01*
X175773718Y-66880534D01*
X175777338Y-66881629D01*
X175850466Y-66904973D01*
X175915974Y-66925884D01*
X175919584Y-66927097D01*
X175937756Y-66933509D01*
X176056726Y-66975488D01*
X176060266Y-66976797D01*
X176195759Y-67029269D01*
X176199290Y-67030699D01*
X176332977Y-67087197D01*
X176336452Y-67088727D01*
X176468302Y-67149243D01*
X176471724Y-67150877D01*
X176569365Y-67199364D01*
X176601487Y-67215315D01*
X176604931Y-67217092D01*
X176732452Y-67285383D01*
X176735841Y-67287265D01*
X176860893Y-67359305D01*
X176864767Y-67361631D01*
X177604653Y-67824557D01*
X177613057Y-67829815D01*
X177619639Y-67835511D01*
X177629138Y-67840399D01*
X177638331Y-67845629D01*
X177647424Y-67851320D01*
X177655687Y-67854064D01*
X177800153Y-67928418D01*
X178419036Y-68246948D01*
X178425899Y-68251963D01*
X178436290Y-68256290D01*
X178445511Y-68260574D01*
X178455580Y-68265755D01*
X178463844Y-68267760D01*
X179231292Y-68587250D01*
X179255679Y-68597402D01*
X179262760Y-68601760D01*
X179273937Y-68605419D01*
X179283176Y-68608849D01*
X179294103Y-68613399D01*
X179302320Y-68614712D01*
X180117983Y-68881812D01*
X180125213Y-68885530D01*
X180137097Y-68888449D01*
X180146279Y-68891077D01*
X180157944Y-68894899D01*
X180166047Y-68895565D01*
X181000861Y-69100787D01*
X181008195Y-69103896D01*
X181020702Y-69106014D01*
X181029774Y-69107896D01*
X181042140Y-69110938D01*
X181050114Y-69110999D01*
X181899393Y-69254985D01*
X181906792Y-69257508D01*
X181919797Y-69258769D01*
X181928729Y-69259959D01*
X181941631Y-69262148D01*
X181949437Y-69261646D01*
X182808480Y-69345020D01*
X182815939Y-69346989D01*
X182829262Y-69347347D01*
X182838088Y-69347894D01*
X182851429Y-69349192D01*
X182859071Y-69348153D01*
X183723120Y-69371532D01*
X183730601Y-69372962D01*
X183744142Y-69372398D01*
X183752801Y-69372335D01*
X183766419Y-69372703D01*
X183773879Y-69371159D01*
X184638246Y-69335155D01*
X184645773Y-69336068D01*
X184659354Y-69334570D01*
X184667942Y-69333919D01*
X184681634Y-69333350D01*
X184688941Y-69331309D01*
X185548883Y-69236530D01*
X185556460Y-69236930D01*
X185569941Y-69234505D01*
X185578475Y-69233269D01*
X185592113Y-69231768D01*
X185599260Y-69229234D01*
X186450085Y-69076279D01*
X186457701Y-69076159D01*
X186470872Y-69072845D01*
X186479337Y-69071021D01*
X186492753Y-69068610D01*
X186499737Y-69065583D01*
X187336667Y-68855061D01*
X187344336Y-68854412D01*
X187357117Y-68850233D01*
X187365566Y-68847793D01*
X187378570Y-68844523D01*
X187385399Y-68840987D01*
X188203760Y-68573483D01*
X188211478Y-68572280D01*
X188223655Y-68567316D01*
X188232106Y-68564218D01*
X188244586Y-68560141D01*
X188251247Y-68556074D01*
X189046348Y-68232162D01*
X189054089Y-68230375D01*
X189065515Y-68224717D01*
X189073923Y-68220929D01*
X189085774Y-68216103D01*
X189092236Y-68211488D01*
X189859326Y-67831759D01*
X189867068Y-67829357D01*
X189877650Y-67823087D01*
X189886010Y-67818550D01*
X189897085Y-67813070D01*
X189903322Y-67807879D01*
X190654848Y-67362734D01*
X190662202Y-67358704D01*
X190921088Y-67227917D01*
X190924674Y-67226177D01*
X191191558Y-67102053D01*
X191194859Y-67100577D01*
X191329032Y-67042924D01*
X191331574Y-67041865D01*
X191467486Y-66987047D01*
X191470215Y-66985985D01*
X191607230Y-66934617D01*
X191610251Y-66933530D01*
X191748142Y-66886015D01*
X191751611Y-66884875D01*
X191890455Y-66841514D01*
X191894166Y-66840419D01*
X192033968Y-66801533D01*
X192038017Y-66800480D01*
X192178760Y-66766400D01*
X192183066Y-66765439D01*
X192324691Y-66736502D01*
X192329392Y-66735635D01*
X192471880Y-66712166D01*
X192476854Y-66711451D01*
X192620160Y-66693776D01*
X192625427Y-66693240D01*
X192769689Y-66681667D01*
X192775222Y-66681348D01*
X192921008Y-66676189D01*
X192925464Y-66676110D01*
X204905471Y-66676110D01*
X204906295Y-66676113D01*
X204917754Y-66676187D01*
X204917755Y-66676188D01*
X205370052Y-66679147D01*
X205376816Y-66679375D01*
X205817537Y-66706141D01*
X205824211Y-66706725D01*
X206260716Y-66756675D01*
X206267230Y-66757594D01*
X206574524Y-66809186D01*
X206698842Y-66830058D01*
X206705213Y-66831297D01*
X206751394Y-66841520D01*
X207131264Y-66925611D01*
X207137409Y-66927137D01*
X207557117Y-67042616D01*
X207563076Y-67044416D01*
X207975792Y-67180406D01*
X207981565Y-67182466D01*
X208386535Y-67338284D01*
X208392122Y-67340590D01*
X208752717Y-67499714D01*
X208788551Y-67515527D01*
X208793981Y-67518079D01*
X209181237Y-67711494D01*
X209186478Y-67714268D01*
X209563746Y-67925432D01*
X209568801Y-67928418D01*
X209935474Y-68156710D01*
X209940349Y-68159904D01*
X210295636Y-68404604D01*
X210300333Y-68408001D01*
X210643506Y-68668418D01*
X210648031Y-68672018D01*
X210978380Y-68947474D01*
X210982733Y-68951277D01*
X211119391Y-69076287D01*
X211294572Y-69236537D01*
X211299492Y-69241037D01*
X211303673Y-69245041D01*
X211392895Y-69334535D01*
X211606177Y-69548468D01*
X211610194Y-69552689D01*
X211897660Y-69869021D01*
X211901508Y-69873458D01*
X212134017Y-70154592D01*
X212167218Y-70194737D01*
X212173265Y-70202048D01*
X212176939Y-70206709D01*
X212432260Y-70546852D01*
X212435753Y-70551745D01*
X212673882Y-70902680D01*
X212677179Y-70907801D01*
X212897477Y-71268932D01*
X212900565Y-71274287D01*
X213102253Y-71644809D01*
X213105135Y-71650437D01*
X213287541Y-72029693D01*
X213290188Y-72035577D01*
X213452607Y-72422881D01*
X213454995Y-72429020D01*
X213596731Y-72823669D01*
X213598836Y-72830062D01*
X213719199Y-73231396D01*
X213720994Y-73238036D01*
X213819277Y-73645330D01*
X213820734Y-73652201D01*
X213896250Y-74064791D01*
X213897339Y-74071875D01*
X213949403Y-74489123D01*
X213950097Y-74496393D01*
X213978008Y-74917604D01*
X213978281Y-74925025D01*
X213981448Y-75363689D01*
X213981451Y-75364599D01*
X213981451Y-77069677D01*
X213981133Y-77078621D01*
X213971409Y-77215263D01*
X213971037Y-77219489D01*
X213956448Y-77358297D01*
X213955937Y-77362480D01*
X213936717Y-77500706D01*
X213936072Y-77504839D01*
X213912265Y-77642402D01*
X213911489Y-77646488D01*
X213883126Y-77783330D01*
X213882220Y-77787366D01*
X213849375Y-77923229D01*
X213848343Y-77927213D01*
X213811043Y-78062058D01*
X213809886Y-78065990D01*
X213768186Y-78199658D01*
X213766907Y-78203536D01*
X213720845Y-78335933D01*
X213719444Y-78339758D01*
X213669094Y-78470682D01*
X213667574Y-78474452D01*
X213612958Y-78603848D01*
X213611319Y-78607562D01*
X213552479Y-78735313D01*
X213550722Y-78738973D01*
X213487747Y-78864862D01*
X213485873Y-78868461D01*
X213418762Y-78992469D01*
X213416770Y-78996013D01*
X213345603Y-79117946D01*
X213343494Y-79121429D01*
X213269284Y-79239629D01*
X213265149Y-79245802D01*
X213022857Y-79585472D01*
X213019085Y-79589176D01*
X213009511Y-79603879D01*
X213009511Y-79603880D01*
X213008700Y-79605124D01*
X213005725Y-79609490D01*
X212994665Y-79625003D01*
X212992596Y-79629874D01*
X212777647Y-79960199D01*
X212772804Y-79965486D01*
X212765581Y-79978285D01*
X212761469Y-79985062D01*
X212753472Y-79997353D01*
X212751019Y-80004091D01*
X212339049Y-80734229D01*
X212333702Y-80740997D01*
X212329129Y-80750939D01*
X212324407Y-80760181D01*
X212319036Y-80769702D01*
X212316688Y-80777998D01*
X211967719Y-81537037D01*
X211963017Y-81544115D01*
X211959176Y-81554636D01*
X211955306Y-81564038D01*
X211950608Y-81574259D01*
X211948967Y-81582608D01*
X211663569Y-82364733D01*
X211659496Y-82372077D01*
X211656418Y-82383177D01*
X211653378Y-82392664D01*
X211649415Y-82403531D01*
X211648462Y-82411878D01*
X211426557Y-83212471D01*
X211423114Y-83220031D01*
X211420864Y-83231582D01*
X211418619Y-83241113D01*
X211415474Y-83252467D01*
X211415184Y-83260772D01*
X211256712Y-84075247D01*
X211253889Y-84082990D01*
X211252519Y-84094846D01*
X211251037Y-84104421D01*
X211248753Y-84116166D01*
X211249107Y-84124402D01*
X211154035Y-84948122D01*
X211151826Y-84956027D01*
X211151367Y-84968025D01*
X211150629Y-84977648D01*
X211149248Y-84989616D01*
X211150229Y-84997764D01*
X211118538Y-85826099D01*
X211116944Y-85834125D01*
X211117403Y-85846202D01*
X211117403Y-85855767D01*
X211116942Y-85867889D01*
X211118539Y-85875917D01*
X211150224Y-86704241D01*
X211149246Y-86712381D01*
X211150626Y-86724363D01*
X211151359Y-86733920D01*
X211151826Y-86746049D01*
X211154042Y-86753953D01*
X211249100Y-87577614D01*
X211248749Y-87585857D01*
X211251023Y-87597547D01*
X211252509Y-87607149D01*
X211253879Y-87619017D01*
X211256709Y-87626770D01*
X211415175Y-88441247D01*
X211415468Y-88449556D01*
X211418603Y-88460873D01*
X211420854Y-88470435D01*
X211423104Y-88481996D01*
X211426555Y-88489565D01*
X211470809Y-88649228D01*
X211648457Y-89290169D01*
X211649414Y-89298521D01*
X211653358Y-89309336D01*
X211656398Y-89318822D01*
X211659490Y-89329971D01*
X211663570Y-89337320D01*
X211948954Y-90119424D01*
X211950597Y-90127773D01*
X211955285Y-90137975D01*
X211959150Y-90147365D01*
X211963024Y-90157976D01*
X211967737Y-90165059D01*
X212316685Y-90924065D01*
X212319036Y-90932361D01*
X212324394Y-90941859D01*
X212329122Y-90951113D01*
X212333701Y-90961071D01*
X212339050Y-90967836D01*
X212416089Y-91104375D01*
X212742512Y-91682904D01*
X212751028Y-91697996D01*
X212753488Y-91704748D01*
X212761467Y-91717009D01*
X212765600Y-91723822D01*
X212772815Y-91736611D01*
X212777666Y-91741903D01*
X212992604Y-92072218D01*
X212994683Y-92077107D01*
X213005703Y-92092559D01*
X213008716Y-92096979D01*
X213009448Y-92098105D01*
X213019127Y-92112975D01*
X213022916Y-92116690D01*
X213263473Y-92453932D01*
X213270095Y-92464242D01*
X213410842Y-92708746D01*
X213412378Y-92711493D01*
X213480445Y-92836880D01*
X213481639Y-92839134D01*
X213547322Y-92966201D01*
X213548622Y-92968789D01*
X213611163Y-93096913D01*
X213612545Y-93099839D01*
X213671569Y-93229143D01*
X213673015Y-93232436D01*
X213728011Y-93362725D01*
X213729514Y-93366450D01*
X213780043Y-93497682D01*
X213781556Y-93501825D01*
X213827205Y-93634004D01*
X213828689Y-93638585D01*
X213869008Y-93771601D01*
X213870420Y-93776633D01*
X213905002Y-93910487D01*
X213906291Y-93915979D01*
X213934538Y-94049787D01*
X213934721Y-94050650D01*
X213935827Y-94056592D01*
X213936019Y-94057777D01*
X213957699Y-94192080D01*
X213958563Y-94198466D01*
X213973455Y-94334676D01*
X213974012Y-94341464D01*
X213981535Y-94478507D01*
X213981724Y-94485657D01*
X213981505Y-94598924D01*
X213981436Y-94599283D01*
X213981436Y-103194373D01*
X213981118Y-103203317D01*
X213971394Y-103339959D01*
X213971022Y-103344185D01*
X213956432Y-103483001D01*
X213955921Y-103487184D01*
X213936698Y-103625432D01*
X213936053Y-103629566D01*
X213912248Y-103767112D01*
X213911472Y-103771198D01*
X213883111Y-103908027D01*
X213882205Y-103912062D01*
X213849356Y-104047938D01*
X213848323Y-104051923D01*
X213811024Y-104186759D01*
X213809867Y-104190692D01*
X213768160Y-104324377D01*
X213766881Y-104328255D01*
X213720826Y-104460627D01*
X213719426Y-104464450D01*
X213669058Y-104595422D01*
X213667537Y-104599194D01*
X213612913Y-104728603D01*
X213611274Y-104732318D01*
X213552453Y-104860019D01*
X213550697Y-104863675D01*
X213487708Y-104989594D01*
X213485833Y-104993196D01*
X213418746Y-105117155D01*
X213416755Y-105120697D01*
X213345553Y-105242689D01*
X213343443Y-105246173D01*
X213269256Y-105364335D01*
X213265123Y-105370507D01*
X213022825Y-105710187D01*
X213019049Y-105713895D01*
X213008679Y-105729823D01*
X213005684Y-105734217D01*
X212994640Y-105749707D01*
X212992569Y-105754581D01*
X212777624Y-106084908D01*
X212772784Y-106090191D01*
X212765557Y-106102993D01*
X212761464Y-106109740D01*
X212753442Y-106122074D01*
X212750991Y-106128808D01*
X212339028Y-106858941D01*
X212333680Y-106865709D01*
X212329107Y-106875652D01*
X212324385Y-106884894D01*
X212319014Y-106894416D01*
X212316665Y-106902712D01*
X211967700Y-107661748D01*
X211962997Y-107668827D01*
X211959156Y-107679349D01*
X211955286Y-107688751D01*
X211950589Y-107698971D01*
X211948947Y-107707322D01*
X211663551Y-108489447D01*
X211659478Y-108496791D01*
X211656400Y-108507891D01*
X211653358Y-108517381D01*
X211649399Y-108528237D01*
X211648445Y-108536590D01*
X211426543Y-109337182D01*
X211423100Y-109344742D01*
X211420850Y-109356293D01*
X211418605Y-109365824D01*
X211415460Y-109377178D01*
X211415170Y-109385483D01*
X211256699Y-110199956D01*
X211253876Y-110207699D01*
X211252506Y-110219555D01*
X211251024Y-110229130D01*
X211248740Y-110240875D01*
X211249094Y-110249110D01*
X211154024Y-111072828D01*
X211151815Y-111080733D01*
X211151356Y-111092732D01*
X211150618Y-111102355D01*
X211149237Y-111114323D01*
X211150218Y-111122471D01*
X211118528Y-111950806D01*
X211116934Y-111958832D01*
X211117393Y-111970909D01*
X211117393Y-111980474D01*
X211116932Y-111992597D01*
X211118529Y-112000623D01*
X211150213Y-112828946D01*
X211149235Y-112837086D01*
X211150615Y-112849068D01*
X211151348Y-112858625D01*
X211151815Y-112870754D01*
X211154031Y-112878658D01*
X211249089Y-113702319D01*
X211248738Y-113710562D01*
X211251012Y-113722252D01*
X211252498Y-113731854D01*
X211253868Y-113743723D01*
X211256698Y-113751477D01*
X211415162Y-114565949D01*
X211415454Y-114574255D01*
X211418589Y-114585570D01*
X211420837Y-114595119D01*
X211423093Y-114606704D01*
X211426542Y-114614269D01*
X211499708Y-114878246D01*
X211648442Y-115414875D01*
X211649399Y-115423227D01*
X211653343Y-115434042D01*
X211656383Y-115443528D01*
X211659475Y-115454677D01*
X211663555Y-115462026D01*
X211948944Y-116244151D01*
X211950589Y-116252500D01*
X211955269Y-116262684D01*
X211959139Y-116272087D01*
X211962999Y-116282661D01*
X211967706Y-116289739D01*
X212109868Y-116598961D01*
X212316667Y-117048781D01*
X212319022Y-117057088D01*
X212324356Y-117066540D01*
X212329105Y-117075836D01*
X212333670Y-117085766D01*
X212339026Y-117092542D01*
X212750995Y-117822701D01*
X212753450Y-117829441D01*
X212761434Y-117841713D01*
X212765552Y-117848503D01*
X212772764Y-117861284D01*
X212777612Y-117866577D01*
X212835432Y-117955436D01*
X212992404Y-118196675D01*
X212992578Y-118196941D01*
X212994661Y-118201841D01*
X213005672Y-118217277D01*
X213008707Y-118221730D01*
X213019089Y-118237687D01*
X213022886Y-118241410D01*
X213265396Y-118581397D01*
X213269088Y-118586871D01*
X213344324Y-118704982D01*
X213346588Y-118708676D01*
X213415511Y-118825650D01*
X213418124Y-118830085D01*
X213420257Y-118833853D01*
X213487510Y-118957524D01*
X213489494Y-118961325D01*
X213552367Y-119086946D01*
X213554203Y-119090773D01*
X213612780Y-119218376D01*
X213614470Y-119222226D01*
X213668705Y-119351588D01*
X213670252Y-119355455D01*
X213720147Y-119486448D01*
X213721552Y-119490328D01*
X213767103Y-119622805D01*
X213768372Y-119626699D01*
X213809588Y-119760566D01*
X213810720Y-119764468D01*
X213847583Y-119899539D01*
X213848583Y-119903448D01*
X213881088Y-120039572D01*
X213881958Y-120043487D01*
X213910110Y-120180553D01*
X213910850Y-120184471D01*
X213934643Y-120322316D01*
X213935257Y-120326242D01*
X213954687Y-120464735D01*
X213955175Y-120468663D01*
X213970241Y-120607656D01*
X213970605Y-120611589D01*
X213981066Y-120747843D01*
X213981436Y-120757488D01*
X213981436Y-122557200D01*
X213981433Y-122558111D01*
X213981392Y-122563697D01*
X213981392Y-122563698D01*
X213981328Y-122572609D01*
X213978264Y-122996614D01*
X213977991Y-123004035D01*
X213950082Y-123425184D01*
X213949388Y-123432453D01*
X213897332Y-123849641D01*
X213896243Y-123856724D01*
X213820740Y-124269253D01*
X213819284Y-124276124D01*
X213721007Y-124683413D01*
X213719212Y-124690051D01*
X213598870Y-125091344D01*
X213596765Y-125097737D01*
X213455052Y-125492353D01*
X213452665Y-125498492D01*
X213290264Y-125885782D01*
X213287618Y-125891665D01*
X213105234Y-126270915D01*
X213102351Y-126276542D01*
X212900676Y-126647076D01*
X212897576Y-126652453D01*
X212677326Y-127013544D01*
X212674023Y-127018675D01*
X212435909Y-127369624D01*
X212432417Y-127374516D01*
X212177135Y-127714644D01*
X212173461Y-127719305D01*
X211901729Y-128047903D01*
X211897882Y-128052341D01*
X211610435Y-128368686D01*
X211606418Y-128372907D01*
X211303929Y-128676352D01*
X211299743Y-128680362D01*
X210983004Y-128970137D01*
X210978650Y-128973940D01*
X210648341Y-129249388D01*
X210643817Y-129252988D01*
X210300624Y-129513445D01*
X210295926Y-129516843D01*
X209940691Y-129761528D01*
X209935816Y-129764723D01*
X209569133Y-129993038D01*
X209564076Y-129996025D01*
X209186792Y-130207206D01*
X209181550Y-130209980D01*
X208794312Y-130403391D01*
X208788881Y-130405944D01*
X208392441Y-130580885D01*
X208386817Y-130583206D01*
X207981877Y-130739007D01*
X207976060Y-130741083D01*
X207563386Y-130877046D01*
X207557379Y-130878861D01*
X207137672Y-130994322D01*
X207131478Y-130995858D01*
X206705441Y-131090146D01*
X206699068Y-131091385D01*
X206267427Y-131163824D01*
X206260888Y-131164746D01*
X205824339Y-131214666D01*
X205817650Y-131215251D01*
X205376889Y-131241977D01*
X205370075Y-131242205D01*
X204927208Y-131245058D01*
X204926396Y-131245061D01*
X192927466Y-131245061D01*
X192919322Y-131244798D01*
X192896440Y-131243316D01*
X192864079Y-131241220D01*
X192775718Y-131235497D01*
X192771828Y-131235184D01*
X192626406Y-131221231D01*
X192622549Y-131220801D01*
X192477636Y-131202378D01*
X192473814Y-131201832D01*
X192329683Y-131179001D01*
X192325915Y-131178345D01*
X192253748Y-131164646D01*
X192182574Y-131151135D01*
X192178824Y-131150364D01*
X192036458Y-131118829D01*
X192032741Y-131117946D01*
X191891498Y-131082135D01*
X191887815Y-131081142D01*
X191747824Y-131041102D01*
X191744186Y-131040002D01*
X191654385Y-131011352D01*
X191605573Y-130995779D01*
X191601959Y-130994565D01*
X191464827Y-130946196D01*
X191461243Y-130944871D01*
X191325783Y-130892421D01*
X191322235Y-130890984D01*
X191188559Y-130834497D01*
X191185077Y-130832963D01*
X191053228Y-130772445D01*
X191049806Y-130770810D01*
X191047051Y-130769442D01*
X190951885Y-130722179D01*
X190920099Y-130706393D01*
X190916651Y-130704614D01*
X190825479Y-130655779D01*
X190789121Y-130636304D01*
X190785718Y-130634413D01*
X190785442Y-130634254D01*
X190693798Y-130581446D01*
X190660686Y-130562366D01*
X190656781Y-130560021D01*
X190403371Y-130401529D01*
X189908544Y-130092046D01*
X189902104Y-130086454D01*
X189892122Y-130081286D01*
X189883246Y-130076224D01*
X189873768Y-130070296D01*
X189865682Y-130067597D01*
X189101645Y-129672036D01*
X189094932Y-129667091D01*
X189084137Y-129662536D01*
X189075213Y-129658352D01*
X189064872Y-129653000D01*
X189056788Y-129650998D01*
X188263588Y-129316384D01*
X188256664Y-129312065D01*
X188245097Y-129308190D01*
X188236171Y-129304819D01*
X188224992Y-129300105D01*
X188216946Y-129298763D01*
X187399463Y-129025052D01*
X187392368Y-129021334D01*
X187380173Y-129018231D01*
X187371262Y-129015610D01*
X187359380Y-129011633D01*
X187351395Y-129010912D01*
X187020100Y-128926655D01*
X186514476Y-128798061D01*
X186507231Y-128794918D01*
X186494545Y-128792652D01*
X186485656Y-128790731D01*
X186473216Y-128787568D01*
X186465319Y-128787435D01*
X185613843Y-128635420D01*
X185606484Y-128632835D01*
X185593381Y-128631445D01*
X185584557Y-128630191D01*
X185571665Y-128627892D01*
X185563880Y-128628320D01*
X184702682Y-128537117D01*
X184695210Y-128535073D01*
X184681904Y-128534604D01*
X184673095Y-128533983D01*
X184659961Y-128532594D01*
X184652277Y-128533563D01*
X183786145Y-128503159D01*
X183778569Y-128501651D01*
X183765247Y-128502117D01*
X183756447Y-128502117D01*
X183743175Y-128501653D01*
X183735599Y-128503157D01*
X182869464Y-128533556D01*
X182861781Y-128532583D01*
X182848588Y-128533978D01*
X182839789Y-128534598D01*
X182826578Y-128535064D01*
X182819115Y-128537099D01*
X181957849Y-128628304D01*
X181950070Y-128627873D01*
X181937113Y-128630183D01*
X181928309Y-128631433D01*
X181915295Y-128632814D01*
X181907943Y-128635390D01*
X181056398Y-128787413D01*
X181048511Y-128787543D01*
X181036010Y-128790720D01*
X181027150Y-128792635D01*
X181014484Y-128794898D01*
X181007251Y-128798033D01*
X180170295Y-129010888D01*
X180162305Y-129011607D01*
X180150413Y-129015589D01*
X180141477Y-129018217D01*
X180129382Y-129021293D01*
X180122279Y-129025008D01*
X179304722Y-129298738D01*
X179296668Y-129300079D01*
X179285491Y-129304793D01*
X179276556Y-129308168D01*
X179265042Y-129312024D01*
X179258112Y-129316342D01*
X178464912Y-129650951D01*
X178456817Y-129652950D01*
X178446402Y-129658340D01*
X178437484Y-129662521D01*
X178426746Y-129667052D01*
X178420032Y-129671992D01*
X177655928Y-130067582D01*
X177647842Y-130070280D01*
X177638344Y-130076219D01*
X177629484Y-130081272D01*
X177619542Y-130086420D01*
X177613101Y-130092007D01*
X176867660Y-130558223D01*
X176862922Y-130561045D01*
X176735358Y-130633261D01*
X176732222Y-130634978D01*
X176604096Y-130702786D01*
X176600897Y-130704421D01*
X176470720Y-130768633D01*
X176467455Y-130770185D01*
X176335428Y-130830663D01*
X176332099Y-130832130D01*
X176198222Y-130888839D01*
X176194819Y-130890223D01*
X176059319Y-130943016D01*
X176055849Y-130944309D01*
X175918776Y-130993125D01*
X175915257Y-130994320D01*
X175776760Y-131039051D01*
X175773158Y-131040155D01*
X175633314Y-131080720D01*
X175629617Y-131081731D01*
X175488601Y-131118024D01*
X175484823Y-131118935D01*
X175342750Y-131150863D01*
X175338894Y-131151666D01*
X175195896Y-131179137D01*
X175191962Y-131179829D01*
X175048041Y-131202774D01*
X175044029Y-131203347D01*
X174899391Y-131221658D01*
X174895303Y-131222108D01*
X174750095Y-131235693D01*
X174745932Y-131236013D01*
X174613312Y-131243999D01*
X174602005Y-131244680D01*
X174594433Y-131244908D01*
X169943844Y-131244908D01*
X169935701Y-131244645D01*
X169792103Y-131235345D01*
X169788212Y-131235032D01*
X169642802Y-131221080D01*
X169638945Y-131220650D01*
X169494014Y-131202224D01*
X169490192Y-131201678D01*
X169346081Y-131178850D01*
X169342295Y-131178191D01*
X169198960Y-131150982D01*
X169195209Y-131150211D01*
X169052862Y-131118680D01*
X169049146Y-131117798D01*
X168907862Y-131081977D01*
X168904180Y-131080983D01*
X168764211Y-131040950D01*
X168760569Y-131039849D01*
X168621931Y-130995618D01*
X168618327Y-130994408D01*
X168481203Y-130946040D01*
X168477622Y-130944715D01*
X168342154Y-130892264D01*
X168338644Y-130890843D01*
X168204937Y-130834343D01*
X168201422Y-130832794D01*
X168069670Y-130772320D01*
X168066188Y-130770657D01*
X167936476Y-130706240D01*
X167933026Y-130704460D01*
X167805492Y-130636149D01*
X167802078Y-130634252D01*
X167748171Y-130603190D01*
X167677235Y-130562315D01*
X167673365Y-130559991D01*
X167144615Y-130229292D01*
X166924935Y-130091896D01*
X166918496Y-130086305D01*
X166908506Y-130081132D01*
X166899641Y-130076075D01*
X166890157Y-130070144D01*
X166882070Y-130067445D01*
X166118060Y-129671897D01*
X166111344Y-129666949D01*
X166100526Y-129662384D01*
X166091592Y-129658194D01*
X166081248Y-129652839D01*
X166073159Y-129650838D01*
X165279979Y-129316231D01*
X165273055Y-129311912D01*
X165261488Y-129308037D01*
X165252562Y-129304666D01*
X165241383Y-129299952D01*
X165233337Y-129298610D01*
X164415855Y-129024900D01*
X164408760Y-129021182D01*
X164396565Y-129018079D01*
X164387654Y-129015458D01*
X164375771Y-129011481D01*
X164367787Y-129010760D01*
X164277938Y-128987909D01*
X164208060Y-128970137D01*
X163530868Y-128797908D01*
X163523624Y-128794765D01*
X163510938Y-128792499D01*
X163502049Y-128790578D01*
X163489609Y-128787415D01*
X163481712Y-128787282D01*
X162630236Y-128635267D01*
X162622877Y-128632682D01*
X162609774Y-128631292D01*
X162600950Y-128630038D01*
X162588058Y-128627739D01*
X162580273Y-128628167D01*
X161719076Y-128536964D01*
X161711604Y-128534920D01*
X161698298Y-128534451D01*
X161689489Y-128533830D01*
X161676355Y-128532441D01*
X161668671Y-128533410D01*
X160802539Y-128503007D01*
X160794963Y-128501499D01*
X160781641Y-128501965D01*
X160772841Y-128501965D01*
X160759568Y-128501501D01*
X160751993Y-128503005D01*
X159885858Y-128533403D01*
X159878176Y-128532430D01*
X159864983Y-128533825D01*
X159856184Y-128534445D01*
X159842973Y-128534911D01*
X159835510Y-128536946D01*
X158974244Y-128628152D01*
X158966465Y-128627721D01*
X158953508Y-128630031D01*
X158944704Y-128631281D01*
X158931690Y-128632662D01*
X158924338Y-128635238D01*
X158072793Y-128787261D01*
X158064906Y-128787391D01*
X158052405Y-128790568D01*
X158043545Y-128792483D01*
X158030879Y-128794746D01*
X158023646Y-128797881D01*
X157186691Y-129010736D01*
X157178701Y-129011455D01*
X157166809Y-129015437D01*
X157157873Y-129018065D01*
X157145778Y-129021141D01*
X157138675Y-129024856D01*
X156321118Y-129298586D01*
X156313064Y-129299927D01*
X156301887Y-129304641D01*
X156292952Y-129308016D01*
X156281438Y-129311872D01*
X156274507Y-129316191D01*
X155481310Y-129650798D01*
X155473212Y-129652797D01*
X155462790Y-129658192D01*
X155453865Y-129662377D01*
X155443105Y-129666917D01*
X155436397Y-129671856D01*
X154672323Y-130067429D01*
X154664237Y-130070127D01*
X154654739Y-130076066D01*
X154645879Y-130081119D01*
X154635937Y-130086267D01*
X154629496Y-130091854D01*
X153881543Y-130559642D01*
X153876804Y-130562464D01*
X153751760Y-130633252D01*
X153748626Y-130634968D01*
X153620485Y-130702785D01*
X153617285Y-130704421D01*
X153487106Y-130768633D01*
X153483843Y-130770185D01*
X153439199Y-130790636D01*
X153351809Y-130830668D01*
X153348487Y-130832132D01*
X153214622Y-130888835D01*
X153211221Y-130890218D01*
X153075699Y-130943020D01*
X153072228Y-130944313D01*
X152935166Y-130993125D01*
X152931619Y-130994329D01*
X152793172Y-131039044D01*
X152789549Y-131040155D01*
X152649705Y-131080720D01*
X152646008Y-131081731D01*
X152504992Y-131118024D01*
X152501214Y-131118935D01*
X152359141Y-131150863D01*
X152355285Y-131151666D01*
X152212287Y-131179137D01*
X152208353Y-131179829D01*
X152064432Y-131202774D01*
X152060420Y-131203347D01*
X151915781Y-131221658D01*
X151911693Y-131222108D01*
X151766485Y-131235693D01*
X151762322Y-131236013D01*
X151628865Y-131244049D01*
X151618393Y-131244680D01*
X151610821Y-131244908D01*
X146960224Y-131244908D01*
X146952081Y-131244645D01*
X146808483Y-131235345D01*
X146804592Y-131235032D01*
X146659182Y-131221080D01*
X146655325Y-131220650D01*
X146510394Y-131202224D01*
X146506572Y-131201678D01*
X146362462Y-131178850D01*
X146358676Y-131178191D01*
X146215340Y-131150982D01*
X146211589Y-131150211D01*
X146069243Y-131118680D01*
X146065527Y-131117798D01*
X145924242Y-131081977D01*
X145920559Y-131080983D01*
X145780600Y-131040952D01*
X145776951Y-131039849D01*
X145638315Y-130995618D01*
X145634700Y-130994404D01*
X145497585Y-130946040D01*
X145494004Y-130944715D01*
X145358536Y-130892264D01*
X145355026Y-130890843D01*
X145221319Y-130834343D01*
X145217804Y-130832794D01*
X145086065Y-130772326D01*
X145082583Y-130770663D01*
X144952847Y-130706234D01*
X144949397Y-130704454D01*
X144821868Y-130636145D01*
X144818453Y-130634247D01*
X144693506Y-130562249D01*
X144689601Y-130559904D01*
X143941308Y-130091896D01*
X143934869Y-130086305D01*
X143924879Y-130081132D01*
X143916014Y-130076075D01*
X143906530Y-130070144D01*
X143898443Y-130067445D01*
X143134433Y-129671897D01*
X143127717Y-129666949D01*
X143116899Y-129662384D01*
X143107965Y-129658194D01*
X143097621Y-129652839D01*
X143089532Y-129650838D01*
X142296352Y-129316231D01*
X142289428Y-129311912D01*
X142277861Y-129308037D01*
X142268935Y-129304666D01*
X142257756Y-129299952D01*
X142249710Y-129298610D01*
X141432229Y-129024900D01*
X141425134Y-129021182D01*
X141412939Y-129018079D01*
X141404028Y-129015458D01*
X141392145Y-129011481D01*
X141384161Y-129010760D01*
X141294312Y-128987909D01*
X141224434Y-128970137D01*
X140547242Y-128797908D01*
X140539998Y-128794765D01*
X140527312Y-128792499D01*
X140518423Y-128790578D01*
X140505983Y-128787415D01*
X140498086Y-128787282D01*
X139646610Y-128635267D01*
X139639251Y-128632682D01*
X139626148Y-128631292D01*
X139617324Y-128630038D01*
X139604432Y-128627739D01*
X139596647Y-128628167D01*
X138735451Y-128536964D01*
X138727979Y-128534920D01*
X138714673Y-128534451D01*
X138705864Y-128533830D01*
X138692730Y-128532441D01*
X138685046Y-128533410D01*
X137818914Y-128503007D01*
X137811338Y-128501499D01*
X137798016Y-128501965D01*
X137789216Y-128501965D01*
X137775943Y-128501501D01*
X137768368Y-128503005D01*
X136902234Y-128533403D01*
X136894552Y-128532430D01*
X136881359Y-128533825D01*
X136872560Y-128534445D01*
X136859349Y-128534911D01*
X136851886Y-128536946D01*
X135990620Y-128628152D01*
X135982841Y-128627721D01*
X135969884Y-128630031D01*
X135961080Y-128631281D01*
X135948066Y-128632662D01*
X135940714Y-128635238D01*
X135089170Y-128787261D01*
X135081283Y-128787391D01*
X135068782Y-128790568D01*
X135059922Y-128792483D01*
X135047256Y-128794746D01*
X135040023Y-128797881D01*
X134203068Y-129010736D01*
X134195078Y-129011455D01*
X134183186Y-129015437D01*
X134174250Y-129018065D01*
X134162155Y-129021141D01*
X134155052Y-129024856D01*
X133337496Y-129298586D01*
X133329442Y-129299927D01*
X133318265Y-129304641D01*
X133309330Y-129308016D01*
X133297816Y-129311872D01*
X133290885Y-129316191D01*
X132497629Y-129650823D01*
X132489540Y-129652824D01*
X132479177Y-129658188D01*
X132470259Y-129662369D01*
X132459521Y-129666900D01*
X132452807Y-129671840D01*
X131688703Y-130067429D01*
X131680617Y-130070127D01*
X131671119Y-130076066D01*
X131662259Y-130081119D01*
X131652317Y-130086267D01*
X131645876Y-130091854D01*
X130897933Y-130559636D01*
X130893194Y-130562458D01*
X130768126Y-130633260D01*
X130764991Y-130634977D01*
X130636863Y-130702786D01*
X130633663Y-130704421D01*
X130503473Y-130768638D01*
X130500210Y-130770190D01*
X130455936Y-130790471D01*
X130368173Y-130830673D01*
X130364863Y-130832132D01*
X130231006Y-130888833D01*
X130227602Y-130890217D01*
X130092085Y-130943016D01*
X130088615Y-130944309D01*
X129951542Y-130993125D01*
X129948023Y-130994320D01*
X129809526Y-131039051D01*
X129805924Y-131040155D01*
X129666080Y-131080720D01*
X129662383Y-131081732D01*
X129521366Y-131118025D01*
X129517588Y-131118935D01*
X129375516Y-131150863D01*
X129371660Y-131151666D01*
X129228660Y-131179137D01*
X129224726Y-131179829D01*
X129080805Y-131202774D01*
X129076793Y-131203347D01*
X128932154Y-131221658D01*
X128928066Y-131222108D01*
X128782857Y-131235693D01*
X128778694Y-131236013D01*
X128645237Y-131244049D01*
X128634765Y-131244680D01*
X128627193Y-131244908D01*
X123976597Y-131244908D01*
X123968454Y-131244645D01*
X123824856Y-131235345D01*
X123820965Y-131235032D01*
X123675555Y-131221080D01*
X123671698Y-131220650D01*
X123526767Y-131202224D01*
X123522945Y-131201678D01*
X123378835Y-131178850D01*
X123375049Y-131178191D01*
X123231713Y-131150982D01*
X123227962Y-131150211D01*
X123085616Y-131118680D01*
X123081900Y-131117798D01*
X122940615Y-131081977D01*
X122936932Y-131080983D01*
X122796965Y-131040950D01*
X122793317Y-131039847D01*
X122654698Y-130995622D01*
X122651082Y-130994408D01*
X122513958Y-130946040D01*
X122510376Y-130944715D01*
X122374910Y-130892264D01*
X122371361Y-130890827D01*
X122281408Y-130852816D01*
X122237694Y-130834344D01*
X122234190Y-130832800D01*
X122232730Y-130832130D01*
X122204337Y-130819097D01*
X122102427Y-130772320D01*
X122098946Y-130770657D01*
X121969211Y-130706229D01*
X121965770Y-130704454D01*
X121838217Y-130636130D01*
X121834842Y-130634254D01*
X121709921Y-130562271D01*
X121706016Y-130559926D01*
X120957670Y-130091884D01*
X120951233Y-130086297D01*
X120941262Y-130081134D01*
X120932390Y-130076074D01*
X120922907Y-130070143D01*
X120914822Y-130067445D01*
X120150812Y-129671897D01*
X120144096Y-129666949D01*
X120133278Y-129662384D01*
X120124344Y-129658194D01*
X120114000Y-129652839D01*
X120105911Y-129650838D01*
X119312731Y-129316231D01*
X119305807Y-129311912D01*
X119294240Y-129308037D01*
X119285314Y-129304666D01*
X119274135Y-129299952D01*
X119266089Y-129298610D01*
X118448607Y-129024900D01*
X118441512Y-129021182D01*
X118429317Y-129018079D01*
X118420406Y-129015458D01*
X118408523Y-129011481D01*
X118400539Y-129010760D01*
X117563619Y-128797908D01*
X117556375Y-128794765D01*
X117543689Y-128792499D01*
X117534800Y-128790578D01*
X117522360Y-128787415D01*
X117514463Y-128787282D01*
X116662988Y-128635267D01*
X116655629Y-128632682D01*
X116642526Y-128631292D01*
X116633702Y-128630038D01*
X116620810Y-128627739D01*
X116613025Y-128628167D01*
X115751828Y-128536964D01*
X115744356Y-128534920D01*
X115731050Y-128534451D01*
X115722241Y-128533830D01*
X115709107Y-128532441D01*
X115701423Y-128533410D01*
X114835291Y-128503007D01*
X114827715Y-128501499D01*
X114814393Y-128501965D01*
X114805593Y-128501965D01*
X114792320Y-128501501D01*
X114784745Y-128503005D01*
X113918610Y-128533403D01*
X113910928Y-128532430D01*
X113897735Y-128533825D01*
X113888936Y-128534445D01*
X113875725Y-128534911D01*
X113868262Y-128536946D01*
X113006996Y-128628152D01*
X112999217Y-128627721D01*
X112986260Y-128630031D01*
X112977456Y-128631281D01*
X112964442Y-128632662D01*
X112957090Y-128635238D01*
X112105546Y-128787261D01*
X112097659Y-128787391D01*
X112085158Y-128790568D01*
X112076298Y-128792483D01*
X112063632Y-128794746D01*
X112056399Y-128797881D01*
X111219444Y-129010736D01*
X111211454Y-129011455D01*
X111199562Y-129015437D01*
X111190626Y-129018065D01*
X111178531Y-129021141D01*
X111171428Y-129024856D01*
X110353871Y-129298586D01*
X110345817Y-129299927D01*
X110334640Y-129304641D01*
X110325705Y-129308016D01*
X110314191Y-129311872D01*
X110307260Y-129316191D01*
X109514004Y-129650823D01*
X109505915Y-129652824D01*
X109495552Y-129658188D01*
X109486634Y-129662369D01*
X109475896Y-129666900D01*
X109469182Y-129671840D01*
X108705078Y-130067429D01*
X108696992Y-130070127D01*
X108687494Y-130076066D01*
X108678634Y-130081119D01*
X108668691Y-130086267D01*
X108662252Y-130091853D01*
X107914269Y-130559660D01*
X107909533Y-130562480D01*
X107784493Y-130633271D01*
X107781358Y-130634988D01*
X107653221Y-130702806D01*
X107650040Y-130704432D01*
X107609764Y-130724299D01*
X107519887Y-130768632D01*
X107516624Y-130770183D01*
X107384530Y-130830695D01*
X107381199Y-130832163D01*
X107247405Y-130888837D01*
X107244004Y-130890220D01*
X107108473Y-130943027D01*
X107104999Y-130944322D01*
X106967936Y-130993132D01*
X106964391Y-130994336D01*
X106825899Y-131039065D01*
X106822275Y-131040175D01*
X106682427Y-131080740D01*
X106678728Y-131081752D01*
X106537752Y-131118031D01*
X106533976Y-131118941D01*
X106418586Y-131144871D01*
X106391923Y-131150863D01*
X106388071Y-131151666D01*
X106245018Y-131179145D01*
X106241086Y-131179836D01*
X106097173Y-131202779D01*
X106093160Y-131203352D01*
X105948547Y-131221658D01*
X105944459Y-131222108D01*
X105799238Y-131235693D01*
X105795076Y-131236013D01*
X105673783Y-131243317D01*
X105651146Y-131244680D01*
X105643574Y-131244908D01*
X93644313Y-131244908D01*
X93643506Y-131244905D01*
X93641087Y-131244889D01*
X93200774Y-131242067D01*
X93193959Y-131241839D01*
X92753268Y-131215130D01*
X92746580Y-131214546D01*
X92310073Y-131164646D01*
X92303534Y-131163724D01*
X91871930Y-131091307D01*
X91865558Y-131090068D01*
X91439562Y-130995805D01*
X91433367Y-130994269D01*
X91013670Y-130878826D01*
X91007663Y-130877011D01*
X90939537Y-130854568D01*
X90594991Y-130741063D01*
X90589180Y-130738990D01*
X90555460Y-130726018D01*
X90321861Y-130636152D01*
X90184290Y-130583228D01*
X90178666Y-130580907D01*
X89782252Y-130405996D01*
X89776821Y-130403444D01*
X89389530Y-130210028D01*
X89384287Y-130207253D01*
X89007012Y-129996096D01*
X89001956Y-129993110D01*
X88635295Y-129764832D01*
X88630420Y-129761638D01*
X88511375Y-129679648D01*
X88275137Y-129516943D01*
X88270465Y-129513565D01*
X87927288Y-129253145D01*
X87922783Y-129249560D01*
X87592451Y-128974121D01*
X87588099Y-128970320D01*
X87288736Y-128696470D01*
X87271294Y-128680514D01*
X87267113Y-128676509D01*
X87266956Y-128676352D01*
X87092638Y-128501499D01*
X86964651Y-128373119D01*
X86960634Y-128368899D01*
X86878992Y-128279058D01*
X86673127Y-128052518D01*
X86669305Y-128048110D01*
X86397531Y-127719492D01*
X86393864Y-127714838D01*
X86393718Y-127714644D01*
X86148514Y-127387973D01*
X86138579Y-127374737D01*
X86135086Y-127369845D01*
X85905307Y-127031213D01*
X85896919Y-127018852D01*
X85893642Y-127013760D01*
X85673349Y-126652633D01*
X85670268Y-126647291D01*
X85468556Y-126276727D01*
X85465680Y-126271111D01*
X85283275Y-125891857D01*
X85280628Y-125885974D01*
X85118194Y-125498645D01*
X85115810Y-125492517D01*
X85115751Y-125492353D01*
X84974062Y-125097844D01*
X84971962Y-125091466D01*
X84971925Y-125091344D01*
X84853438Y-124696283D01*
X84851596Y-124690142D01*
X84849801Y-124683505D01*
X84849779Y-124683413D01*
X84751487Y-124276124D01*
X84750049Y-124269338D01*
X84674517Y-123856724D01*
X84673432Y-123849671D01*
X84621352Y-123432402D01*
X84620660Y-123425144D01*
X84592732Y-123003938D01*
X84592459Y-122996516D01*
X84589356Y-122568917D01*
X84589353Y-122568003D01*
X84589353Y-120756927D01*
X84589672Y-120747972D01*
X84592445Y-120709055D01*
X84599409Y-120611305D01*
X84599776Y-120607143D01*
X84614374Y-120468321D01*
X84614883Y-120464158D01*
X84614890Y-120464112D01*
X84634118Y-120325860D01*
X84634761Y-120321741D01*
X84658587Y-120184093D01*
X84659339Y-120180140D01*
X84687713Y-120043254D01*
X84688597Y-120039310D01*
X84721467Y-119903347D01*
X84722484Y-119899422D01*
X84759801Y-119764512D01*
X84760946Y-119760623D01*
X84802668Y-119626869D01*
X84803924Y-119623064D01*
X84849991Y-119490644D01*
X84851363Y-119486896D01*
X84901763Y-119355829D01*
X84903222Y-119352211D01*
X84957883Y-119222699D01*
X84959506Y-119219023D01*
X84961063Y-119215642D01*
X84970048Y-119196133D01*
X103608473Y-119196133D01*
X103608499Y-119196390D01*
X103620667Y-119257565D01*
X103620672Y-119257615D01*
X103620677Y-119257615D01*
X103632773Y-119318556D01*
X103632837Y-119318765D01*
X103632844Y-119318783D01*
X103632845Y-119318785D01*
X103648034Y-119355455D01*
X103656806Y-119376631D01*
X103656816Y-119376682D01*
X103656825Y-119376679D01*
X103680476Y-119433843D01*
X103680598Y-119434073D01*
X103714716Y-119485133D01*
X103714710Y-119485136D01*
X103714741Y-119485170D01*
X103749762Y-119537629D01*
X103749763Y-119537630D01*
X103749772Y-119537643D01*
X103749924Y-119537828D01*
X103749928Y-119537832D01*
X103749929Y-119537833D01*
X103794415Y-119582319D01*
X103794440Y-119582365D01*
X103794451Y-119582355D01*
X104823239Y-120611995D01*
X104954429Y-120743293D01*
X104954814Y-120743718D01*
X104958928Y-120747832D01*
X104958929Y-120747833D01*
X105002237Y-120791141D01*
X105002263Y-120791188D01*
X105002274Y-120791178D01*
X105046962Y-120835903D01*
X105047164Y-120836069D01*
X105047167Y-120836071D01*
X105098553Y-120870406D01*
X105150693Y-120905276D01*
X105150696Y-120905277D01*
X105150917Y-120905394D01*
X105150925Y-120905400D01*
X105208819Y-120929380D01*
X105208862Y-120929414D01*
X105208868Y-120929401D01*
X105249320Y-120946176D01*
X105265963Y-120953078D01*
X105265966Y-120953078D01*
X105265996Y-120953088D01*
X105266204Y-120953150D01*
X105266215Y-120953155D01*
X105328030Y-120965450D01*
X105328029Y-120965450D01*
X105328037Y-120965451D01*
X105388344Y-120977474D01*
X105388355Y-120977474D01*
X105388600Y-120977498D01*
X105388606Y-120977500D01*
X105388611Y-120977500D01*
X105451961Y-120977500D01*
X105513131Y-120977525D01*
X105513132Y-120977524D01*
X105518983Y-120977527D01*
X105519552Y-120977500D01*
X117258393Y-120977500D01*
X117258394Y-120977500D01*
X117380785Y-120953155D01*
X117496075Y-120905400D01*
X117599833Y-120836071D01*
X118135126Y-120300777D01*
X118197435Y-120266755D01*
X118252806Y-120267693D01*
X118252824Y-120267586D01*
X118253540Y-120267705D01*
X118255157Y-120267733D01*
X118257960Y-120268443D01*
X118257964Y-120268443D01*
X118257965Y-120268444D01*
X118480031Y-120305500D01*
X118480035Y-120305500D01*
X118705165Y-120305500D01*
X118705169Y-120305500D01*
X118927235Y-120268444D01*
X119140174Y-120195342D01*
X119338176Y-120088189D01*
X119515840Y-119949906D01*
X119668322Y-119784268D01*
X119757118Y-119648354D01*
X119811120Y-119602268D01*
X119881468Y-119592692D01*
X119945825Y-119622669D01*
X119968080Y-119648353D01*
X119984003Y-119672724D01*
X120056875Y-119784265D01*
X120056879Y-119784270D01*
X120209362Y-119949908D01*
X120263931Y-119992381D01*
X120387024Y-120088189D01*
X120585026Y-120195342D01*
X120585027Y-120195342D01*
X120585028Y-120195343D01*
X120659879Y-120221039D01*
X120797965Y-120268444D01*
X121020031Y-120305500D01*
X121020035Y-120305500D01*
X121245165Y-120305500D01*
X121245169Y-120305500D01*
X121467235Y-120268444D01*
X121680174Y-120195342D01*
X121878176Y-120088189D01*
X122055840Y-119949906D01*
X122208322Y-119784268D01*
X122297118Y-119648354D01*
X122351120Y-119602268D01*
X122421468Y-119592692D01*
X122485825Y-119622669D01*
X122508080Y-119648353D01*
X122524003Y-119672724D01*
X122596875Y-119784265D01*
X122596879Y-119784270D01*
X122749362Y-119949908D01*
X122803931Y-119992381D01*
X122927024Y-120088189D01*
X123125026Y-120195342D01*
X123125027Y-120195342D01*
X123125028Y-120195343D01*
X123199879Y-120221039D01*
X123337965Y-120268444D01*
X123560031Y-120305500D01*
X123560035Y-120305500D01*
X123785165Y-120305500D01*
X123785169Y-120305500D01*
X124007235Y-120268444D01*
X124007243Y-120268441D01*
X124010671Y-120267573D01*
X124012127Y-120267627D01*
X124012376Y-120267586D01*
X124012384Y-120267637D01*
X124081618Y-120270230D01*
X124130714Y-120300618D01*
X124780929Y-120950833D01*
X124869167Y-121039071D01*
X124972925Y-121108400D01*
X125088215Y-121156155D01*
X125210606Y-121180500D01*
X142115592Y-121180500D01*
X142115624Y-121180500D01*
X142177056Y-121180533D01*
X142177061Y-121180531D01*
X142177063Y-121180532D01*
X142177394Y-121180500D01*
X142239052Y-121168235D01*
X142239054Y-121168249D01*
X142239116Y-121168222D01*
X142299460Y-121156253D01*
X142299463Y-121156251D01*
X142299725Y-121156173D01*
X142299776Y-121156156D01*
X142299785Y-121156155D01*
X142357822Y-121132114D01*
X142357825Y-121132121D01*
X142357883Y-121132088D01*
X142414775Y-121108560D01*
X142414779Y-121108556D01*
X142415070Y-121108401D01*
X142415075Y-121108400D01*
X142446132Y-121087647D01*
X142466792Y-121073844D01*
X142466811Y-121073830D01*
X142518570Y-121039287D01*
X142518579Y-121039277D01*
X142518821Y-121039078D01*
X142518833Y-121039071D01*
X142562573Y-120995329D01*
X142562633Y-120995296D01*
X142562620Y-120995283D01*
X142800669Y-120757488D01*
X143452134Y-120106717D01*
X143452662Y-120106241D01*
X143456829Y-120102073D01*
X143456833Y-120102071D01*
X143499820Y-120059082D01*
X143499881Y-120059048D01*
X143499868Y-120059035D01*
X143517715Y-120041207D01*
X143544856Y-120014096D01*
X143544860Y-120014088D01*
X143544890Y-120014054D01*
X143545067Y-120013836D01*
X143545071Y-120013833D01*
X143579032Y-119963006D01*
X143579038Y-119963010D01*
X143579067Y-119962953D01*
X143614240Y-119910375D01*
X143614243Y-119910367D01*
X143614288Y-119910285D01*
X143614390Y-119910094D01*
X143614400Y-119910074D01*
X143617175Y-119903376D01*
X143638485Y-119851929D01*
X143662056Y-119795110D01*
X143662058Y-119795096D01*
X143662148Y-119794799D01*
X143662155Y-119794785D01*
X143674450Y-119732969D01*
X143674482Y-119732908D01*
X143674463Y-119732905D01*
X143683021Y-119690000D01*
X143686466Y-119672732D01*
X143686466Y-119672729D01*
X143686467Y-119672724D01*
X143686500Y-119672394D01*
X143686500Y-119609407D01*
X143686509Y-119592692D01*
X143686533Y-119547944D01*
X143686532Y-119547939D01*
X143686535Y-119542210D01*
X143686500Y-119541475D01*
X143686500Y-117130000D01*
X144784697Y-117130000D01*
X144803882Y-117398246D01*
X144861049Y-117661039D01*
X144955031Y-117913016D01*
X144955036Y-117913026D01*
X145083912Y-118149045D01*
X145083917Y-118149052D01*
X145083919Y-118149055D01*
X145245085Y-118364349D01*
X145245087Y-118364351D01*
X145245090Y-118364355D01*
X145435244Y-118554509D01*
X145435247Y-118554511D01*
X145435251Y-118554515D01*
X145650545Y-118715681D01*
X145650548Y-118715682D01*
X145650554Y-118715687D01*
X145886573Y-118844563D01*
X145886583Y-118844568D01*
X146138561Y-118938551D01*
X146401350Y-118995717D01*
X146669600Y-119014903D01*
X146937850Y-118995717D01*
X147200639Y-118938551D01*
X147452617Y-118844568D01*
X147527882Y-118803470D01*
X147688645Y-118715687D01*
X147688647Y-118715685D01*
X147688655Y-118715681D01*
X147903949Y-118554515D01*
X148094115Y-118364349D01*
X148255281Y-118149055D01*
X148255285Y-118149047D01*
X148255287Y-118149045D01*
X148375213Y-117929416D01*
X148384168Y-117913017D01*
X148396726Y-117879348D01*
X148409364Y-117845467D01*
X148451911Y-117788631D01*
X148518431Y-117763821D01*
X148527419Y-117763500D01*
X149570393Y-117763500D01*
X149570394Y-117763500D01*
X149673425Y-117743006D01*
X149722575Y-117743006D01*
X149825606Y-117763500D01*
X149825607Y-117763500D01*
X149950394Y-117763500D01*
X150563406Y-117763500D01*
X150631527Y-117783502D01*
X150652501Y-117800405D01*
X151655566Y-118803470D01*
X151689592Y-118865782D01*
X151684527Y-118936596D01*
X151676023Y-118959398D01*
X151609049Y-119138960D01*
X151551882Y-119401753D01*
X151532697Y-119670000D01*
X151551882Y-119938246D01*
X151609049Y-120201039D01*
X151703031Y-120453016D01*
X151703036Y-120453026D01*
X151831912Y-120689045D01*
X151831917Y-120689052D01*
X151831919Y-120689055D01*
X151993085Y-120904349D01*
X151993087Y-120904351D01*
X151993090Y-120904355D01*
X152183244Y-121094509D01*
X152183247Y-121094511D01*
X152183251Y-121094515D01*
X152398545Y-121255681D01*
X152398548Y-121255682D01*
X152398554Y-121255687D01*
X152634573Y-121384563D01*
X152634583Y-121384568D01*
X152886561Y-121478551D01*
X153149350Y-121535717D01*
X153417600Y-121554903D01*
X153685850Y-121535717D01*
X153948639Y-121478551D01*
X154200617Y-121384568D01*
X154271271Y-121345988D01*
X154436645Y-121255687D01*
X154436647Y-121255685D01*
X154436655Y-121255681D01*
X154651949Y-121094515D01*
X154842115Y-120904349D01*
X155003281Y-120689055D01*
X155003285Y-120689047D01*
X155003287Y-120689045D01*
X155125769Y-120464735D01*
X155132168Y-120453017D01*
X155226151Y-120201039D01*
X155283317Y-119938250D01*
X155302503Y-119670000D01*
X155283317Y-119401750D01*
X155226151Y-119138961D01*
X155132168Y-118886983D01*
X155132163Y-118886973D01*
X155003287Y-118650954D01*
X155003282Y-118650948D01*
X155003281Y-118650945D01*
X154842115Y-118435651D01*
X154842111Y-118435647D01*
X154842109Y-118435644D01*
X154651955Y-118245490D01*
X154651951Y-118245487D01*
X154651949Y-118245485D01*
X154436655Y-118084319D01*
X154436652Y-118084317D01*
X154436645Y-118084312D01*
X154200626Y-117955436D01*
X154200616Y-117955431D01*
X153948639Y-117861449D01*
X153685846Y-117804282D01*
X153417600Y-117785097D01*
X153149353Y-117804282D01*
X152886560Y-117861449D01*
X152684779Y-117936709D01*
X152613963Y-117941773D01*
X152551652Y-117907748D01*
X151862999Y-117219095D01*
X151828973Y-117156783D01*
X151834038Y-117085968D01*
X151862999Y-117040905D01*
X151904071Y-116999833D01*
X152551653Y-116352249D01*
X152613964Y-116318226D01*
X152684778Y-116323289D01*
X152886561Y-116398551D01*
X153149350Y-116455717D01*
X153417600Y-116474903D01*
X153685850Y-116455717D01*
X153948639Y-116398551D01*
X154200617Y-116304568D01*
X154261744Y-116271190D01*
X154436645Y-116175687D01*
X154436647Y-116175685D01*
X154436655Y-116175681D01*
X154651949Y-116014515D01*
X154842115Y-115824349D01*
X155003281Y-115609055D01*
X155003285Y-115609047D01*
X155003287Y-115609045D01*
X155132163Y-115373026D01*
X155132168Y-115373017D01*
X155226151Y-115121039D01*
X155283317Y-114858250D01*
X155302503Y-114590000D01*
X155283317Y-114321750D01*
X155226151Y-114058961D01*
X155132168Y-113806983D01*
X155132163Y-113806973D01*
X155003287Y-113570954D01*
X155003282Y-113570948D01*
X155003281Y-113570945D01*
X154842115Y-113355651D01*
X154842111Y-113355647D01*
X154842109Y-113355644D01*
X154651955Y-113165490D01*
X154651951Y-113165487D01*
X154651949Y-113165485D01*
X154436655Y-113004319D01*
X154436652Y-113004317D01*
X154436645Y-113004312D01*
X154200626Y-112875436D01*
X154200616Y-112875431D01*
X154039008Y-112815155D01*
X153948639Y-112781449D01*
X153948635Y-112781448D01*
X153948632Y-112781447D01*
X153695950Y-112726479D01*
X153633637Y-112692454D01*
X153599612Y-112630142D01*
X153604677Y-112559326D01*
X153633636Y-112514266D01*
X155444726Y-110703176D01*
X155495528Y-110674528D01*
X155494959Y-110673027D01*
X155502077Y-110670326D01*
X155502083Y-110670325D01*
X155654430Y-110590367D01*
X155783215Y-110476273D01*
X155880954Y-110334675D01*
X155941965Y-110173801D01*
X155962704Y-110003000D01*
X155941965Y-109832199D01*
X155880954Y-109671325D01*
X155783215Y-109529727D01*
X155654430Y-109415633D01*
X155654429Y-109415632D01*
X155654426Y-109415630D01*
X155502087Y-109335677D01*
X155502079Y-109335673D01*
X155335031Y-109294500D01*
X155335028Y-109294500D01*
X155162972Y-109294500D01*
X155162968Y-109294500D01*
X154995920Y-109335673D01*
X154995912Y-109335677D01*
X154843573Y-109415630D01*
X154843568Y-109415634D01*
X154714785Y-109529727D01*
X154617046Y-109671325D01*
X154617046Y-109671326D01*
X154617042Y-109671332D01*
X154585258Y-109755139D01*
X154556542Y-109799552D01*
X151008167Y-113347929D01*
X150919931Y-113436164D01*
X150919926Y-113436171D01*
X150850601Y-113539923D01*
X150802846Y-113655212D01*
X150778500Y-113777603D01*
X150778500Y-116281406D01*
X150758498Y-116349527D01*
X150741595Y-116370501D01*
X150652501Y-116459595D01*
X150590189Y-116493621D01*
X150563406Y-116496500D01*
X150202595Y-116496500D01*
X150134474Y-116476498D01*
X150113500Y-116459595D01*
X150101835Y-116447930D01*
X150101834Y-116447929D01*
X150101833Y-116447928D01*
X149998075Y-116378599D01*
X149927888Y-116349527D01*
X149882790Y-116330847D01*
X149882785Y-116330845D01*
X149760396Y-116306500D01*
X149760394Y-116306500D01*
X149759994Y-116306500D01*
X149635206Y-116306500D01*
X149635203Y-116306500D01*
X149576255Y-116318226D01*
X149512815Y-116330845D01*
X149512813Y-116330845D01*
X149512812Y-116330846D01*
X149473835Y-116346991D01*
X149397528Y-116378599D01*
X149397523Y-116378601D01*
X149293771Y-116447926D01*
X149293764Y-116447931D01*
X149282101Y-116459595D01*
X149219789Y-116493621D01*
X149193006Y-116496500D01*
X148527419Y-116496500D01*
X148459298Y-116476498D01*
X148412805Y-116422842D01*
X148409364Y-116414533D01*
X148384171Y-116346991D01*
X148384170Y-116346990D01*
X148384168Y-116346983D01*
X148384163Y-116346973D01*
X148255287Y-116110954D01*
X148255282Y-116110948D01*
X148255281Y-116110945D01*
X148094115Y-115895651D01*
X148094111Y-115895647D01*
X148094109Y-115895644D01*
X147903955Y-115705490D01*
X147903951Y-115705487D01*
X147903949Y-115705485D01*
X147688655Y-115544319D01*
X147688652Y-115544317D01*
X147688645Y-115544312D01*
X147452626Y-115415436D01*
X147452616Y-115415431D01*
X147200639Y-115321449D01*
X146937846Y-115264282D01*
X146669600Y-115245097D01*
X146401353Y-115264282D01*
X146138560Y-115321449D01*
X145886583Y-115415431D01*
X145886573Y-115415436D01*
X145650554Y-115544312D01*
X145435244Y-115705490D01*
X145245090Y-115895644D01*
X145083912Y-116110954D01*
X144955036Y-116346973D01*
X144955031Y-116346983D01*
X144861049Y-116598960D01*
X144803882Y-116861753D01*
X144784697Y-117130000D01*
X143686500Y-117130000D01*
X143686500Y-102929594D01*
X143706502Y-102861473D01*
X143723405Y-102840499D01*
X147856639Y-98707265D01*
X152027464Y-94536439D01*
X152089774Y-94502415D01*
X152160589Y-94507480D01*
X152193949Y-94526105D01*
X152239024Y-94561189D01*
X152272805Y-94579470D01*
X152323196Y-94629482D01*
X152338549Y-94698799D01*
X152313989Y-94765412D01*
X152272809Y-94801096D01*
X152239304Y-94819228D01*
X152239298Y-94819232D01*
X152061697Y-94957465D01*
X151909274Y-95123041D01*
X151786180Y-95311451D01*
X151695779Y-95517543D01*
X151695776Y-95517550D01*
X151648055Y-95705999D01*
X151648056Y-95706000D01*
X152553897Y-95706000D01*
X152518675Y-95767007D01*
X152484600Y-95894174D01*
X152484600Y-96025826D01*
X152518675Y-96152993D01*
X152553897Y-96214000D01*
X151648055Y-96214000D01*
X151695776Y-96402449D01*
X151695779Y-96402456D01*
X151786180Y-96608548D01*
X151909274Y-96796958D01*
X152052581Y-96952632D01*
X152084001Y-97016297D01*
X152076014Y-97086843D01*
X152031155Y-97141872D01*
X152003913Y-97156024D01*
X151888395Y-97199111D01*
X151888392Y-97199112D01*
X151771338Y-97286738D01*
X151683712Y-97403792D01*
X151683710Y-97403797D01*
X151632611Y-97540795D01*
X151632609Y-97540803D01*
X151626100Y-97601350D01*
X151626100Y-99398649D01*
X151632609Y-99459196D01*
X151632611Y-99459204D01*
X151683710Y-99596202D01*
X151683712Y-99596207D01*
X151771338Y-99713261D01*
X151888392Y-99800887D01*
X151888394Y-99800888D01*
X151888396Y-99800889D01*
X151947475Y-99822924D01*
X152025395Y-99851988D01*
X152025403Y-99851990D01*
X152085950Y-99858499D01*
X152085955Y-99858499D01*
X152085962Y-99858500D01*
X152085968Y-99858500D01*
X153883232Y-99858500D01*
X153883238Y-99858500D01*
X153883245Y-99858499D01*
X153883249Y-99858499D01*
X153943796Y-99851990D01*
X153943799Y-99851989D01*
X153943801Y-99851989D01*
X154080804Y-99800889D01*
X154197861Y-99713261D01*
X154285489Y-99596204D01*
X154336589Y-99459201D01*
X154337076Y-99454678D01*
X154343099Y-99398649D01*
X154343100Y-99398632D01*
X154343100Y-97601367D01*
X154343099Y-97601350D01*
X154336590Y-97540803D01*
X154336588Y-97540795D01*
X154294288Y-97427387D01*
X154285489Y-97403796D01*
X154285488Y-97403794D01*
X154285487Y-97403792D01*
X154197861Y-97286738D01*
X154080807Y-97199112D01*
X154080804Y-97199111D01*
X153965286Y-97156024D01*
X153908451Y-97113477D01*
X153883641Y-97046957D01*
X153898733Y-96977583D01*
X153916619Y-96952632D01*
X154059923Y-96796961D01*
X154183019Y-96608548D01*
X154273420Y-96402456D01*
X154273423Y-96402449D01*
X154321144Y-96214000D01*
X153415303Y-96214000D01*
X153450525Y-96152993D01*
X153484600Y-96025826D01*
X153484600Y-95894174D01*
X153450525Y-95767007D01*
X153415303Y-95706000D01*
X154321144Y-95706000D01*
X154321144Y-95705999D01*
X154273423Y-95517550D01*
X154273420Y-95517543D01*
X154183019Y-95311451D01*
X154059925Y-95123041D01*
X153907502Y-94957465D01*
X153729901Y-94819232D01*
X153729900Y-94819231D01*
X153696391Y-94801097D01*
X153646001Y-94751083D01*
X153630650Y-94681766D01*
X153655212Y-94615153D01*
X153696390Y-94579472D01*
X153730176Y-94561189D01*
X153907840Y-94422906D01*
X154060322Y-94257268D01*
X154183460Y-94068791D01*
X154273896Y-93862616D01*
X154329164Y-93644368D01*
X154347756Y-93420000D01*
X154329164Y-93195632D01*
X154307606Y-93110500D01*
X154273897Y-92977387D01*
X154273896Y-92977386D01*
X154273896Y-92977384D01*
X154183460Y-92771209D01*
X154144446Y-92711493D01*
X154060324Y-92582734D01*
X154060320Y-92582729D01*
X153907837Y-92417091D01*
X153825982Y-92353381D01*
X153730176Y-92278811D01*
X153696919Y-92260813D01*
X153646529Y-92210802D01*
X153631176Y-92141485D01*
X153655736Y-92074872D01*
X153696920Y-92039186D01*
X153730176Y-92021189D01*
X153907840Y-91882906D01*
X154060322Y-91717268D01*
X154183460Y-91528791D01*
X154273896Y-91322616D01*
X154329164Y-91104368D01*
X154333297Y-91054486D01*
X154358855Y-90988254D01*
X154416166Y-90946350D01*
X154487034Y-90942083D01*
X154547965Y-90975802D01*
X155400099Y-91827999D01*
X156028193Y-92456140D01*
X156225599Y-92653560D01*
X156259621Y-92715873D01*
X156262500Y-92742652D01*
X156262500Y-116243709D01*
X156291649Y-116390246D01*
X156291650Y-116390249D01*
X156326715Y-116474903D01*
X156348826Y-116528284D01*
X156431835Y-116652516D01*
X156537484Y-116758165D01*
X156661716Y-116841174D01*
X156799754Y-116898351D01*
X156946294Y-116927500D01*
X157095706Y-116927500D01*
X157475100Y-116927500D01*
X157543221Y-116947502D01*
X157564915Y-116965826D01*
X157564931Y-116965810D01*
X157565371Y-116966211D01*
X157568211Y-116968610D01*
X157569237Y-116969735D01*
X157685677Y-117075884D01*
X157722544Y-117136558D01*
X157720755Y-117207532D01*
X157685678Y-117262114D01*
X157569234Y-117368266D01*
X157437058Y-117543297D01*
X157339291Y-117739639D01*
X157339288Y-117739646D01*
X157279267Y-117950602D01*
X157279267Y-117950606D01*
X157259030Y-118168995D01*
X157259030Y-118169004D01*
X157279267Y-118387393D01*
X157279267Y-118387397D01*
X157339288Y-118598353D01*
X157339290Y-118598358D01*
X157339291Y-118598361D01*
X157437057Y-118794701D01*
X157437058Y-118794702D01*
X157512912Y-118895150D01*
X157538002Y-118961566D01*
X157523202Y-119031003D01*
X157487871Y-119071950D01*
X157409338Y-119130738D01*
X157321712Y-119247792D01*
X157321710Y-119247797D01*
X157270611Y-119384795D01*
X157270609Y-119384803D01*
X157264100Y-119445350D01*
X157264100Y-120892649D01*
X157270609Y-120953196D01*
X157270611Y-120953204D01*
X157321710Y-121090202D01*
X157321712Y-121090207D01*
X157409338Y-121207261D01*
X157526392Y-121294887D01*
X157526394Y-121294888D01*
X157526396Y-121294889D01*
X157585475Y-121316924D01*
X157663395Y-121345988D01*
X157663403Y-121345990D01*
X157723950Y-121352499D01*
X157723955Y-121352499D01*
X157723962Y-121352500D01*
X157723968Y-121352500D01*
X159171232Y-121352500D01*
X159171238Y-121352500D01*
X159171245Y-121352499D01*
X159171249Y-121352499D01*
X159231796Y-121345990D01*
X159231799Y-121345989D01*
X159231801Y-121345989D01*
X159368804Y-121294889D01*
X159485861Y-121207261D01*
X159542110Y-121132121D01*
X159573487Y-121090207D01*
X159573487Y-121090206D01*
X159573489Y-121090204D01*
X159624589Y-120953201D01*
X159624595Y-120953153D01*
X159631099Y-120892649D01*
X159631100Y-120892632D01*
X159631100Y-119445367D01*
X159631099Y-119445350D01*
X159624590Y-119384803D01*
X159624588Y-119384795D01*
X159577151Y-119257615D01*
X159573489Y-119247796D01*
X159573488Y-119247794D01*
X159573487Y-119247792D01*
X159485861Y-119130738D01*
X159413476Y-119076552D01*
X159407327Y-119071949D01*
X159364781Y-119015115D01*
X159359716Y-118944299D01*
X159382287Y-118895150D01*
X159458143Y-118794701D01*
X159555909Y-118598361D01*
X159615932Y-118387399D01*
X159629082Y-118245490D01*
X159636170Y-118169004D01*
X159636170Y-118168995D01*
X159624777Y-118046052D01*
X159615932Y-117950601D01*
X159555909Y-117739639D01*
X159458143Y-117543299D01*
X159348604Y-117398246D01*
X159325962Y-117368263D01*
X159209523Y-117262115D01*
X159172656Y-117201441D01*
X159174445Y-117130467D01*
X159209523Y-117075885D01*
X159325962Y-116969736D01*
X159325964Y-116969734D01*
X159458143Y-116794701D01*
X159555909Y-116598361D01*
X159615932Y-116387399D01*
X159628446Y-116252355D01*
X159636170Y-116169004D01*
X159636170Y-116168995D01*
X159623707Y-116034509D01*
X159615932Y-115950601D01*
X159555909Y-115739639D01*
X159458143Y-115543299D01*
X159344655Y-115393017D01*
X159325962Y-115368263D01*
X159209152Y-115261777D01*
X159172285Y-115201103D01*
X159174074Y-115130129D01*
X159209152Y-115075547D01*
X159325591Y-114969398D01*
X159457714Y-114794438D01*
X159555439Y-114598179D01*
X159555441Y-114598174D01*
X159605283Y-114423000D01*
X158759286Y-114423000D01*
X158767680Y-114414606D01*
X158820341Y-114323394D01*
X158847600Y-114221661D01*
X158847600Y-114116339D01*
X158820341Y-114014606D01*
X158767680Y-113923394D01*
X158759286Y-113915000D01*
X159605283Y-113915000D01*
X159555441Y-113739825D01*
X159555439Y-113739820D01*
X159457714Y-113543561D01*
X159325594Y-113368604D01*
X159163573Y-113220902D01*
X158977167Y-113105485D01*
X158977160Y-113105482D01*
X158772736Y-113026287D01*
X158701600Y-113012989D01*
X158701600Y-113857314D01*
X158693206Y-113848920D01*
X158601994Y-113796259D01*
X158500261Y-113769000D01*
X158394939Y-113769000D01*
X158293206Y-113796259D01*
X158201994Y-113848920D01*
X158193600Y-113857314D01*
X158193600Y-113012989D01*
X158122466Y-113026287D01*
X157951016Y-113092707D01*
X157880270Y-113098663D01*
X157817534Y-113065426D01*
X157782727Y-113003547D01*
X157779500Y-112975215D01*
X157779500Y-104385000D01*
X159758444Y-104385000D01*
X159777017Y-104609144D01*
X159777037Y-104609375D01*
X159832302Y-104827612D01*
X159832303Y-104827613D01*
X159832304Y-104827616D01*
X159910161Y-105005114D01*
X159922741Y-105033793D01*
X160045875Y-105222265D01*
X160045878Y-105222268D01*
X160072841Y-105251557D01*
X160189075Y-105377820D01*
X160220496Y-105441485D01*
X160212509Y-105512031D01*
X160167651Y-105567060D01*
X160140407Y-105581213D01*
X160025397Y-105624110D01*
X160025392Y-105624112D01*
X159908338Y-105711738D01*
X159820712Y-105828792D01*
X159820710Y-105828797D01*
X159769611Y-105965795D01*
X159769609Y-105965803D01*
X159763100Y-106026350D01*
X159763100Y-107823649D01*
X159769609Y-107884196D01*
X159769611Y-107884204D01*
X159820710Y-108021202D01*
X159820712Y-108021207D01*
X159908338Y-108138261D01*
X160025392Y-108225887D01*
X160025394Y-108225888D01*
X160025396Y-108225889D01*
X160084475Y-108247924D01*
X160162395Y-108276988D01*
X160162403Y-108276990D01*
X160222950Y-108283499D01*
X160222955Y-108283499D01*
X160222962Y-108283500D01*
X160222968Y-108283500D01*
X162020232Y-108283500D01*
X162020238Y-108283500D01*
X162020245Y-108283499D01*
X162020249Y-108283499D01*
X162080796Y-108276990D01*
X162080799Y-108276989D01*
X162080801Y-108276989D01*
X162217804Y-108225889D01*
X162334861Y-108138261D01*
X162422489Y-108021204D01*
X162473589Y-107884201D01*
X162480100Y-107823638D01*
X162480100Y-106026362D01*
X162480099Y-106026350D01*
X162473590Y-105965803D01*
X162473588Y-105965795D01*
X162422489Y-105828797D01*
X162422487Y-105828792D01*
X162334861Y-105711738D01*
X162217807Y-105624112D01*
X162217803Y-105624110D01*
X162102792Y-105581213D01*
X162045956Y-105538667D01*
X162021146Y-105472146D01*
X162036238Y-105402772D01*
X162054125Y-105377820D01*
X162197314Y-105222277D01*
X162197324Y-105222265D01*
X162235018Y-105164570D01*
X162320460Y-105033791D01*
X162410896Y-104827616D01*
X162466164Y-104609368D01*
X162484756Y-104385000D01*
X162466164Y-104160632D01*
X162451552Y-104102931D01*
X162410897Y-103942387D01*
X162410896Y-103942386D01*
X162410896Y-103942384D01*
X162320460Y-103736209D01*
X162313740Y-103725924D01*
X162197324Y-103547734D01*
X162197320Y-103547729D01*
X162044837Y-103382091D01*
X161962982Y-103318381D01*
X161867176Y-103243811D01*
X161669174Y-103136658D01*
X161669172Y-103136657D01*
X161669171Y-103136656D01*
X161456239Y-103063557D01*
X161456230Y-103063555D01*
X161412076Y-103056187D01*
X161234169Y-103026500D01*
X161009031Y-103026500D01*
X160860811Y-103051233D01*
X160786969Y-103063555D01*
X160786960Y-103063557D01*
X160574028Y-103136656D01*
X160574026Y-103136658D01*
X160376026Y-103243810D01*
X160376024Y-103243811D01*
X160198362Y-103382091D01*
X160045879Y-103547729D01*
X160045875Y-103547734D01*
X159922741Y-103736206D01*
X159832303Y-103942386D01*
X159832302Y-103942387D01*
X159777037Y-104160624D01*
X159777036Y-104160630D01*
X159777036Y-104160632D01*
X159758444Y-104385000D01*
X157779500Y-104385000D01*
X157779500Y-101884500D01*
X181770844Y-101884500D01*
X181789437Y-102108875D01*
X181844702Y-102327112D01*
X181844703Y-102327113D01*
X181935141Y-102533293D01*
X182058275Y-102721765D01*
X182058279Y-102721770D01*
X182131082Y-102800853D01*
X182210760Y-102887406D01*
X182326892Y-102977796D01*
X182368362Y-103035419D01*
X182375500Y-103077226D01*
X182375500Y-103365500D01*
X182355498Y-103433621D01*
X182301842Y-103480114D01*
X182249500Y-103491500D01*
X182235350Y-103491500D01*
X182174803Y-103498009D01*
X182174795Y-103498011D01*
X182037797Y-103549110D01*
X182037792Y-103549112D01*
X181920738Y-103636738D01*
X181833112Y-103753792D01*
X181833110Y-103753797D01*
X181782011Y-103890795D01*
X181782009Y-103890803D01*
X181775500Y-103951350D01*
X181775500Y-105748649D01*
X181782009Y-105809196D01*
X181782011Y-105809204D01*
X181833110Y-105946202D01*
X181833112Y-105946207D01*
X181920738Y-106063261D01*
X182037792Y-106150887D01*
X182037794Y-106150888D01*
X182037796Y-106150889D01*
X182096875Y-106172924D01*
X182174795Y-106201988D01*
X182174803Y-106201990D01*
X182235350Y-106208499D01*
X182235355Y-106208499D01*
X182235362Y-106208500D01*
X182235368Y-106208500D01*
X184032632Y-106208500D01*
X184032638Y-106208500D01*
X184032645Y-106208499D01*
X184032649Y-106208499D01*
X184093196Y-106201990D01*
X184093199Y-106201989D01*
X184093201Y-106201989D01*
X184129246Y-106188545D01*
X184207506Y-106159355D01*
X184278321Y-106154289D01*
X184340631Y-106188312D01*
X195891485Y-117739166D01*
X196015716Y-117822174D01*
X196153753Y-117879351D01*
X196227022Y-117893924D01*
X196227023Y-117893925D01*
X196241598Y-117896824D01*
X196300294Y-117908500D01*
X196300295Y-117908500D01*
X196449705Y-117908500D01*
X200041559Y-117908500D01*
X200109680Y-117928502D01*
X200156173Y-117982158D01*
X200166277Y-118052432D01*
X200136783Y-118117012D01*
X200117073Y-118135364D01*
X200009448Y-118215931D01*
X199943244Y-118265490D01*
X199753090Y-118455644D01*
X199591912Y-118670954D01*
X199463036Y-118906973D01*
X199463031Y-118906983D01*
X199369049Y-119158960D01*
X199311882Y-119421753D01*
X199292697Y-119690000D01*
X199311882Y-119958246D01*
X199369049Y-120221039D01*
X199463031Y-120473016D01*
X199463036Y-120473026D01*
X199591912Y-120709045D01*
X199591917Y-120709052D01*
X199591919Y-120709055D01*
X199753085Y-120924349D01*
X199753087Y-120924351D01*
X199753090Y-120924355D01*
X199943244Y-121114509D01*
X199943247Y-121114511D01*
X199943251Y-121114515D01*
X200158545Y-121275681D01*
X200158548Y-121275682D01*
X200158554Y-121275687D01*
X200394573Y-121404563D01*
X200394583Y-121404568D01*
X200646561Y-121498551D01*
X200909350Y-121555717D01*
X201177600Y-121574903D01*
X201445850Y-121555717D01*
X201708639Y-121498551D01*
X201960617Y-121404568D01*
X202055974Y-121352499D01*
X202196645Y-121275687D01*
X202196647Y-121275685D01*
X202196655Y-121275681D01*
X202411949Y-121114515D01*
X202602115Y-120924349D01*
X202763281Y-120709055D01*
X202763285Y-120709047D01*
X202763287Y-120709045D01*
X202892163Y-120473026D01*
X202892168Y-120473017D01*
X202986151Y-120221039D01*
X203043317Y-119958250D01*
X203062503Y-119690000D01*
X203043317Y-119421750D01*
X202986151Y-119158961D01*
X202892168Y-118906983D01*
X202885707Y-118895150D01*
X202763287Y-118670954D01*
X202763282Y-118670948D01*
X202763281Y-118670945D01*
X202602115Y-118455651D01*
X202602111Y-118455647D01*
X202602109Y-118455644D01*
X202411955Y-118265490D01*
X202411951Y-118265487D01*
X202411949Y-118265485D01*
X202238130Y-118135366D01*
X202195586Y-118078533D01*
X202190520Y-118007717D01*
X202224545Y-117945405D01*
X202286857Y-117911380D01*
X202313641Y-117908500D01*
X204422894Y-117908500D01*
X206122886Y-117908500D01*
X206191007Y-117928502D01*
X206233472Y-117974113D01*
X206304570Y-118104319D01*
X206339913Y-118169045D01*
X206339919Y-118169055D01*
X206501085Y-118384349D01*
X206501087Y-118384351D01*
X206501090Y-118384355D01*
X206691244Y-118574509D01*
X206691247Y-118574511D01*
X206691251Y-118574515D01*
X206906545Y-118735681D01*
X206906548Y-118735682D01*
X206906554Y-118735687D01*
X207142573Y-118864563D01*
X207142583Y-118864568D01*
X207394561Y-118958551D01*
X207657350Y-119015717D01*
X207925600Y-119034903D01*
X208193850Y-119015717D01*
X208456639Y-118958551D01*
X208708617Y-118864568D01*
X208786514Y-118822033D01*
X208944645Y-118735687D01*
X208944647Y-118735685D01*
X208944655Y-118735681D01*
X209159949Y-118574515D01*
X209350115Y-118384349D01*
X209511281Y-118169055D01*
X209511285Y-118169047D01*
X209511287Y-118169045D01*
X209640163Y-117933026D01*
X209640168Y-117933017D01*
X209734151Y-117681039D01*
X209791317Y-117418250D01*
X209810503Y-117150000D01*
X209791317Y-116881750D01*
X209734151Y-116618961D01*
X209640168Y-116366983D01*
X209632124Y-116352251D01*
X209511287Y-116130954D01*
X209511282Y-116130948D01*
X209511281Y-116130945D01*
X209350115Y-115915651D01*
X209350111Y-115915647D01*
X209350109Y-115915644D01*
X209159955Y-115725490D01*
X209159951Y-115725487D01*
X209159949Y-115725485D01*
X208944655Y-115564319D01*
X208944652Y-115564317D01*
X208944645Y-115564312D01*
X208708626Y-115435436D01*
X208708616Y-115435431D01*
X208456639Y-115341449D01*
X208193846Y-115284282D01*
X207925600Y-115265097D01*
X207657353Y-115284282D01*
X207394560Y-115341449D01*
X207142583Y-115435431D01*
X207142573Y-115435436D01*
X206906554Y-115564312D01*
X206691244Y-115725490D01*
X206501090Y-115915644D01*
X206339916Y-116130949D01*
X206311501Y-116182988D01*
X206233472Y-116325886D01*
X206183271Y-116376088D01*
X206122886Y-116391500D01*
X202313641Y-116391500D01*
X202245520Y-116371498D01*
X202199027Y-116317842D01*
X202188923Y-116247568D01*
X202218417Y-116182988D01*
X202238126Y-116164635D01*
X202411949Y-116034515D01*
X202602115Y-115844349D01*
X202763281Y-115629055D01*
X202763285Y-115629047D01*
X202763287Y-115629045D01*
X202892163Y-115393026D01*
X202892168Y-115393017D01*
X202986151Y-115141039D01*
X203043317Y-114878250D01*
X203062503Y-114610000D01*
X203043317Y-114341750D01*
X202986151Y-114078961D01*
X202892168Y-113826983D01*
X202892163Y-113826973D01*
X202763287Y-113590954D01*
X202763282Y-113590948D01*
X202763281Y-113590945D01*
X202602115Y-113375651D01*
X202602111Y-113375647D01*
X202602109Y-113375644D01*
X202411955Y-113185490D01*
X202411951Y-113185487D01*
X202411949Y-113185485D01*
X202196655Y-113024319D01*
X202196652Y-113024317D01*
X202196645Y-113024312D01*
X201960626Y-112895436D01*
X201960616Y-112895431D01*
X201708639Y-112801449D01*
X201445846Y-112744282D01*
X201177600Y-112725097D01*
X200909353Y-112744282D01*
X200646560Y-112801449D01*
X200394583Y-112895431D01*
X200394573Y-112895436D01*
X200158554Y-113024312D01*
X199943244Y-113185490D01*
X199753090Y-113375644D01*
X199591912Y-113590954D01*
X199463036Y-113826973D01*
X199463031Y-113826983D01*
X199369049Y-114078960D01*
X199311882Y-114341753D01*
X199292697Y-114610000D01*
X199311882Y-114878246D01*
X199369049Y-115141039D01*
X199463031Y-115393016D01*
X199463036Y-115393026D01*
X199591912Y-115629045D01*
X199591917Y-115629052D01*
X199591919Y-115629055D01*
X199753085Y-115844349D01*
X199753087Y-115844351D01*
X199753090Y-115844355D01*
X199943244Y-116034509D01*
X199943247Y-116034511D01*
X199943251Y-116034515D01*
X200117069Y-116164633D01*
X200159614Y-116221467D01*
X200164680Y-116292283D01*
X200130655Y-116354595D01*
X200068343Y-116388620D01*
X200041559Y-116391500D01*
X196741371Y-116391500D01*
X196673250Y-116371498D01*
X196652276Y-116354595D01*
X185237884Y-104940202D01*
X205432178Y-104940202D01*
X205448180Y-105133317D01*
X205450771Y-105164577D01*
X205506036Y-105382814D01*
X205506037Y-105382815D01*
X205506038Y-105382818D01*
X205596474Y-105588993D01*
X205596475Y-105588995D01*
X205719609Y-105777467D01*
X205719613Y-105777472D01*
X205872096Y-105943110D01*
X205901242Y-105965795D01*
X206049758Y-106081391D01*
X206247760Y-106188544D01*
X206247761Y-106188544D01*
X206247762Y-106188545D01*
X206359561Y-106226925D01*
X206460699Y-106261646D01*
X206682765Y-106298702D01*
X206682769Y-106298702D01*
X206907899Y-106298702D01*
X206907903Y-106298702D01*
X207129969Y-106261646D01*
X207342908Y-106188544D01*
X207540910Y-106081391D01*
X207718574Y-105943108D01*
X207779579Y-105876839D01*
X207840430Y-105840269D01*
X207911395Y-105842402D01*
X207969940Y-105882564D01*
X207990334Y-105918143D01*
X208034445Y-106036406D01*
X208034446Y-106036409D01*
X208122072Y-106153463D01*
X208239126Y-106241089D01*
X208239128Y-106241090D01*
X208239130Y-106241091D01*
X208294234Y-106261644D01*
X208376129Y-106292190D01*
X208376137Y-106292192D01*
X208436684Y-106298701D01*
X208436689Y-106298701D01*
X208436696Y-106298702D01*
X208436702Y-106298702D01*
X210233966Y-106298702D01*
X210233972Y-106298702D01*
X210233979Y-106298701D01*
X210233983Y-106298701D01*
X210294530Y-106292192D01*
X210294533Y-106292191D01*
X210294535Y-106292191D01*
X210431538Y-106241091D01*
X210475075Y-106208500D01*
X210548595Y-106153463D01*
X210636221Y-106036409D01*
X210636221Y-106036408D01*
X210636223Y-106036406D01*
X210687323Y-105899403D01*
X210689134Y-105882564D01*
X210693833Y-105838851D01*
X210693834Y-105838834D01*
X210693834Y-104041569D01*
X210693833Y-104041552D01*
X210687324Y-103981005D01*
X210687322Y-103980997D01*
X210658258Y-103903077D01*
X210636223Y-103843998D01*
X210636222Y-103843996D01*
X210636221Y-103843994D01*
X210548595Y-103726940D01*
X210431541Y-103639314D01*
X210431536Y-103639312D01*
X210294538Y-103588213D01*
X210294530Y-103588211D01*
X210233983Y-103581702D01*
X210233972Y-103581702D01*
X208436696Y-103581702D01*
X208436684Y-103581702D01*
X208376137Y-103588211D01*
X208376129Y-103588213D01*
X208239131Y-103639312D01*
X208239126Y-103639314D01*
X208122072Y-103726940D01*
X208034446Y-103843994D01*
X208034445Y-103843997D01*
X207990334Y-103962260D01*
X207947787Y-104019095D01*
X207881266Y-104043905D01*
X207811892Y-104028813D01*
X207779580Y-104003565D01*
X207718574Y-103937296D01*
X207718573Y-103937295D01*
X207718571Y-103937293D01*
X207598706Y-103843998D01*
X207540910Y-103799013D01*
X207342908Y-103691860D01*
X207342906Y-103691859D01*
X207342905Y-103691858D01*
X207129973Y-103618759D01*
X207129964Y-103618757D01*
X207085810Y-103611389D01*
X206907903Y-103581702D01*
X206682765Y-103581702D01*
X206534545Y-103606435D01*
X206460703Y-103618757D01*
X206460694Y-103618759D01*
X206247762Y-103691858D01*
X206247760Y-103691860D01*
X206049760Y-103799012D01*
X206049758Y-103799013D01*
X205872096Y-103937293D01*
X205719613Y-104102931D01*
X205719609Y-104102936D01*
X205596475Y-104291408D01*
X205506037Y-104497588D01*
X205506036Y-104497589D01*
X205450771Y-104715826D01*
X205450770Y-104715832D01*
X205450770Y-104715834D01*
X205432178Y-104940202D01*
X185237884Y-104940202D01*
X184558520Y-104260838D01*
X184558512Y-104260832D01*
X184548495Y-104254138D01*
X184502969Y-104199659D01*
X184492500Y-104149375D01*
X184492500Y-103951367D01*
X184492499Y-103951350D01*
X184485990Y-103890803D01*
X184485988Y-103890795D01*
X184451754Y-103799012D01*
X184434889Y-103753796D01*
X184434888Y-103753794D01*
X184434887Y-103753792D01*
X184347261Y-103636738D01*
X184230207Y-103549112D01*
X184230202Y-103549110D01*
X184093204Y-103498011D01*
X184093196Y-103498009D01*
X184032649Y-103491500D01*
X184032638Y-103491500D01*
X184018500Y-103491500D01*
X183950379Y-103471498D01*
X183903886Y-103417842D01*
X183892500Y-103365500D01*
X183892500Y-103077226D01*
X183912502Y-103009105D01*
X183941106Y-102977797D01*
X184057240Y-102887406D01*
X184209722Y-102721768D01*
X184332860Y-102533291D01*
X184423296Y-102327116D01*
X184478564Y-102108868D01*
X184497156Y-101884500D01*
X184479718Y-101674065D01*
X184494027Y-101604529D01*
X184516197Y-101574563D01*
X184539995Y-101550768D01*
X186232423Y-99858499D01*
X186602257Y-99488700D01*
X186664571Y-99454678D01*
X186691348Y-99451800D01*
X186952706Y-99451800D01*
X187099246Y-99422651D01*
X187237284Y-99365474D01*
X187361516Y-99282465D01*
X187467165Y-99176816D01*
X187550174Y-99052584D01*
X187607351Y-98914546D01*
X187636500Y-98768006D01*
X187636500Y-91368597D01*
X189709600Y-91368597D01*
X189716105Y-91429093D01*
X189767155Y-91565964D01*
X189767155Y-91565965D01*
X189854695Y-91682904D01*
X189971634Y-91770444D01*
X190108506Y-91821494D01*
X190169002Y-91827999D01*
X190169015Y-91828000D01*
X190813600Y-91828000D01*
X190813600Y-90900702D01*
X190874607Y-90935925D01*
X191001774Y-90970000D01*
X191133426Y-90970000D01*
X191260593Y-90935925D01*
X191321600Y-90900702D01*
X191321600Y-91828000D01*
X191966185Y-91828000D01*
X191966197Y-91827999D01*
X192026693Y-91821494D01*
X192163564Y-91770444D01*
X192163565Y-91770444D01*
X192280504Y-91682904D01*
X192368044Y-91565965D01*
X192412218Y-91447530D01*
X192454765Y-91390694D01*
X192521285Y-91365883D01*
X192590659Y-91380974D01*
X192622972Y-91406222D01*
X192644027Y-91429093D01*
X192684362Y-91472908D01*
X192738931Y-91515381D01*
X192862024Y-91611189D01*
X193060026Y-91718342D01*
X193060027Y-91718342D01*
X193060028Y-91718343D01*
X193171827Y-91756723D01*
X193272965Y-91791444D01*
X193495031Y-91828500D01*
X193495035Y-91828500D01*
X193720165Y-91828500D01*
X193720169Y-91828500D01*
X193942235Y-91791444D01*
X194080381Y-91744017D01*
X194145948Y-91739627D01*
X194189213Y-91748261D01*
X194189216Y-91748261D01*
X194189221Y-91748262D01*
X194189696Y-91748309D01*
X194190703Y-91748308D01*
X194190704Y-91748309D01*
X194249814Y-91748300D01*
X194252417Y-91748300D01*
X194314000Y-91748338D01*
X194314003Y-91748337D01*
X194314996Y-91748338D01*
X194315380Y-91748300D01*
X194315394Y-91748300D01*
X194315407Y-91748297D01*
X194315481Y-91748290D01*
X194315492Y-91748290D01*
X194359554Y-91739517D01*
X194374186Y-91736605D01*
X194374186Y-91736609D01*
X194374205Y-91736600D01*
X194437785Y-91723955D01*
X194437786Y-91723954D01*
X194437798Y-91723952D01*
X194437851Y-91723935D01*
X194437867Y-91723928D01*
X194437879Y-91723926D01*
X194495442Y-91700072D01*
X194553018Y-91676223D01*
X194553125Y-91676180D01*
X194553276Y-91676077D01*
X194607064Y-91640125D01*
X194656833Y-91606871D01*
X194656834Y-91606869D01*
X194656880Y-91606839D01*
X194656882Y-91606837D01*
X194657007Y-91606711D01*
X194701021Y-91562682D01*
X194701024Y-91562685D01*
X194701035Y-91562667D01*
X194744987Y-91518717D01*
X194745095Y-91518610D01*
X194745104Y-91518599D01*
X194745130Y-91518559D01*
X194745134Y-91518556D01*
X194780429Y-91465714D01*
X194814400Y-91414875D01*
X194814403Y-91414868D01*
X194814439Y-91414799D01*
X194814447Y-91414788D01*
X194838081Y-91357704D01*
X194850239Y-91328353D01*
X194894787Y-91273072D01*
X194962151Y-91250651D01*
X195030942Y-91268209D01*
X195067993Y-91303692D01*
X195068680Y-91303159D01*
X195071879Y-91307270D01*
X195224362Y-91472908D01*
X195278931Y-91515381D01*
X195402024Y-91611189D01*
X195600026Y-91718342D01*
X195600027Y-91718342D01*
X195600028Y-91718343D01*
X195711827Y-91756723D01*
X195812965Y-91791444D01*
X196035031Y-91828500D01*
X196035035Y-91828500D01*
X196260165Y-91828500D01*
X196260169Y-91828500D01*
X196482235Y-91791444D01*
X196695174Y-91718342D01*
X196893176Y-91611189D01*
X197070840Y-91472906D01*
X197223322Y-91307268D01*
X197237490Y-91285583D01*
X197291495Y-91239495D01*
X197342972Y-91228500D01*
X197381629Y-91228500D01*
X197449750Y-91248502D01*
X197470724Y-91265405D01*
X202124485Y-95919166D01*
X202248716Y-96002174D01*
X202386753Y-96059351D01*
X202460022Y-96073924D01*
X202460023Y-96073925D01*
X202474598Y-96076824D01*
X202533294Y-96088500D01*
X202533295Y-96088500D01*
X202682705Y-96088500D01*
X205623500Y-96088500D01*
X205691621Y-96108502D01*
X205738114Y-96162158D01*
X205749500Y-96214500D01*
X205749500Y-96228649D01*
X205756009Y-96289196D01*
X205756011Y-96289204D01*
X205807110Y-96426202D01*
X205807112Y-96426207D01*
X205894738Y-96543261D01*
X206011791Y-96630886D01*
X206011792Y-96630886D01*
X206011796Y-96630889D01*
X206126810Y-96673787D01*
X206183642Y-96716332D01*
X206208453Y-96782852D01*
X206193362Y-96852226D01*
X206175475Y-96877179D01*
X206032280Y-97032729D01*
X206032275Y-97032734D01*
X205909141Y-97221206D01*
X205818703Y-97427386D01*
X205818702Y-97427387D01*
X205763437Y-97645624D01*
X205763436Y-97645630D01*
X205763436Y-97645632D01*
X205744844Y-97870000D01*
X205760965Y-98064554D01*
X205763437Y-98094375D01*
X205818702Y-98312612D01*
X205818703Y-98312613D01*
X205909141Y-98518793D01*
X206032275Y-98707265D01*
X206032279Y-98707270D01*
X206184762Y-98872908D01*
X206238258Y-98914546D01*
X206362424Y-99011189D01*
X206396205Y-99029470D01*
X206446596Y-99079482D01*
X206461949Y-99148799D01*
X206437389Y-99215412D01*
X206396209Y-99251096D01*
X206362704Y-99269228D01*
X206362698Y-99269232D01*
X206185097Y-99407465D01*
X206032674Y-99573041D01*
X205909580Y-99761451D01*
X205819179Y-99967543D01*
X205819176Y-99967550D01*
X205771455Y-100155999D01*
X205771456Y-100156000D01*
X206677297Y-100156000D01*
X206642075Y-100217007D01*
X206608000Y-100344174D01*
X206608000Y-100475826D01*
X206642075Y-100602993D01*
X206677297Y-100664000D01*
X205771455Y-100664000D01*
X205819176Y-100852449D01*
X205819179Y-100852456D01*
X205909580Y-101058548D01*
X206032674Y-101246958D01*
X206185097Y-101412534D01*
X206362698Y-101550767D01*
X206362699Y-101550768D01*
X206560628Y-101657882D01*
X206560630Y-101657883D01*
X206773483Y-101730955D01*
X206773492Y-101730957D01*
X206854000Y-101744391D01*
X206854000Y-100840702D01*
X206915007Y-100875925D01*
X207042174Y-100910000D01*
X207173826Y-100910000D01*
X207300993Y-100875925D01*
X207362000Y-100840702D01*
X207362000Y-101744390D01*
X207442507Y-101730957D01*
X207442516Y-101730955D01*
X207655369Y-101657883D01*
X207655371Y-101657882D01*
X207853300Y-101550768D01*
X207853301Y-101550767D01*
X208030902Y-101412534D01*
X208183325Y-101246958D01*
X208306419Y-101058548D01*
X208396820Y-100852456D01*
X208396823Y-100852449D01*
X208444544Y-100664000D01*
X207538703Y-100664000D01*
X207573925Y-100602993D01*
X207608000Y-100475826D01*
X207608000Y-100344174D01*
X207573925Y-100217007D01*
X207538703Y-100156000D01*
X208444544Y-100156000D01*
X208444544Y-100155999D01*
X208396823Y-99967550D01*
X208396820Y-99967543D01*
X208306419Y-99761451D01*
X208183325Y-99573041D01*
X208030902Y-99407465D01*
X207853301Y-99269232D01*
X207853300Y-99269231D01*
X207819791Y-99251097D01*
X207769401Y-99201083D01*
X207754050Y-99131766D01*
X207778612Y-99065153D01*
X207819790Y-99029472D01*
X207853576Y-99011189D01*
X208031240Y-98872906D01*
X208183722Y-98707268D01*
X208306860Y-98518791D01*
X208397296Y-98312616D01*
X208452564Y-98094368D01*
X208471156Y-97870000D01*
X208452564Y-97645632D01*
X208397296Y-97427384D01*
X208306860Y-97221209D01*
X208264273Y-97156024D01*
X208183724Y-97032734D01*
X208183719Y-97032729D01*
X208040524Y-96877179D01*
X208009103Y-96813514D01*
X208017090Y-96742968D01*
X208061948Y-96687939D01*
X208089183Y-96673789D01*
X208204204Y-96630889D01*
X208321261Y-96543261D01*
X208408889Y-96426204D01*
X208459989Y-96289201D01*
X208466500Y-96228638D01*
X208466500Y-94431362D01*
X208465591Y-94422906D01*
X208459990Y-94370803D01*
X208459988Y-94370795D01*
X208417644Y-94257270D01*
X208408889Y-94233796D01*
X208408888Y-94233794D01*
X208408887Y-94233792D01*
X208321261Y-94116738D01*
X208204207Y-94029112D01*
X208204202Y-94029110D01*
X208067204Y-93978011D01*
X208067196Y-93978009D01*
X208006649Y-93971500D01*
X208006638Y-93971500D01*
X206209362Y-93971500D01*
X206209350Y-93971500D01*
X206148803Y-93978009D01*
X206148795Y-93978011D01*
X206011797Y-94029110D01*
X206011792Y-94029112D01*
X205894738Y-94116738D01*
X205807112Y-94233792D01*
X205807110Y-94233797D01*
X205756011Y-94370795D01*
X205756009Y-94370803D01*
X205749500Y-94431350D01*
X205749500Y-94445500D01*
X205729498Y-94513621D01*
X205675842Y-94560114D01*
X205623500Y-94571500D01*
X202974371Y-94571500D01*
X202906250Y-94551498D01*
X202885276Y-94534595D01*
X199066883Y-90716202D01*
X205454189Y-90716202D01*
X205501910Y-90904651D01*
X205501913Y-90904658D01*
X205592314Y-91110750D01*
X205715408Y-91299160D01*
X205867831Y-91464736D01*
X206045432Y-91602969D01*
X206045433Y-91602970D01*
X206243362Y-91710084D01*
X206243364Y-91710085D01*
X206456217Y-91783157D01*
X206456226Y-91783159D01*
X206536734Y-91796593D01*
X206536734Y-90892904D01*
X206597741Y-90928127D01*
X206724908Y-90962202D01*
X206856560Y-90962202D01*
X206983727Y-90928127D01*
X207044734Y-90892904D01*
X207044734Y-91796592D01*
X207125241Y-91783159D01*
X207125250Y-91783157D01*
X207338103Y-91710085D01*
X207338105Y-91710084D01*
X207536034Y-91602970D01*
X207536035Y-91602969D01*
X207713636Y-91464736D01*
X207775160Y-91397902D01*
X207836013Y-91361330D01*
X207906977Y-91363463D01*
X207965523Y-91403624D01*
X207985919Y-91439205D01*
X208030290Y-91558168D01*
X208117829Y-91675106D01*
X208234768Y-91762646D01*
X208371640Y-91813696D01*
X208432136Y-91820201D01*
X208432149Y-91820202D01*
X209076734Y-91820202D01*
X209076734Y-90892904D01*
X209137741Y-90928127D01*
X209264908Y-90962202D01*
X209396560Y-90962202D01*
X209523727Y-90928127D01*
X209584734Y-90892904D01*
X209584734Y-91820202D01*
X210229319Y-91820202D01*
X210229331Y-91820201D01*
X210289827Y-91813696D01*
X210426698Y-91762646D01*
X210426699Y-91762646D01*
X210543638Y-91675106D01*
X210631178Y-91558167D01*
X210631178Y-91558166D01*
X210682228Y-91421295D01*
X210688733Y-91360799D01*
X210688734Y-91360787D01*
X210688734Y-90716202D01*
X209761437Y-90716202D01*
X209796659Y-90655195D01*
X209830734Y-90528028D01*
X209830734Y-90396376D01*
X209796659Y-90269209D01*
X209761437Y-90208202D01*
X210688734Y-90208202D01*
X210688734Y-89563616D01*
X210688733Y-89563604D01*
X210682228Y-89503108D01*
X210631178Y-89366237D01*
X210631178Y-89366236D01*
X210543638Y-89249297D01*
X210426699Y-89161757D01*
X210289827Y-89110707D01*
X210229331Y-89104202D01*
X209584734Y-89104202D01*
X209584734Y-90031499D01*
X209523727Y-89996277D01*
X209396560Y-89962202D01*
X209264908Y-89962202D01*
X209137741Y-89996277D01*
X209076734Y-90031499D01*
X209076734Y-89104202D01*
X208432136Y-89104202D01*
X208371640Y-89110707D01*
X208234769Y-89161757D01*
X208234768Y-89161757D01*
X208117829Y-89249297D01*
X208030289Y-89366236D01*
X208030287Y-89366241D01*
X207985918Y-89485198D01*
X207943371Y-89542034D01*
X207876851Y-89566844D01*
X207807477Y-89551752D01*
X207775161Y-89526502D01*
X207713636Y-89459667D01*
X207536035Y-89321434D01*
X207536034Y-89321433D01*
X207338105Y-89214319D01*
X207338103Y-89214318D01*
X207125246Y-89141245D01*
X207125235Y-89141242D01*
X207044734Y-89127808D01*
X207044734Y-90031499D01*
X206983727Y-89996277D01*
X206856560Y-89962202D01*
X206724908Y-89962202D01*
X206597741Y-89996277D01*
X206536734Y-90031499D01*
X206536734Y-89127809D01*
X206536733Y-89127808D01*
X206456232Y-89141242D01*
X206456221Y-89141245D01*
X206243364Y-89214318D01*
X206243362Y-89214319D01*
X206045433Y-89321433D01*
X206045432Y-89321434D01*
X205867831Y-89459667D01*
X205715408Y-89625243D01*
X205592314Y-89813653D01*
X205501913Y-90019745D01*
X205501910Y-90019752D01*
X205454189Y-90208201D01*
X205454190Y-90208202D01*
X206360031Y-90208202D01*
X206324809Y-90269209D01*
X206290734Y-90396376D01*
X206290734Y-90528028D01*
X206324809Y-90655195D01*
X206360031Y-90716202D01*
X205454189Y-90716202D01*
X199066883Y-90716202D01*
X198231519Y-89880838D01*
X198231515Y-89880834D01*
X198107284Y-89797826D01*
X197969247Y-89740649D01*
X197895976Y-89726074D01*
X197895975Y-89726073D01*
X197822711Y-89711500D01*
X197822706Y-89711500D01*
X197342972Y-89711500D01*
X197274851Y-89691498D01*
X197237490Y-89654417D01*
X197232104Y-89646175D01*
X197223322Y-89632732D01*
X197070840Y-89467094D01*
X197070839Y-89467093D01*
X197070837Y-89467091D01*
X196951279Y-89374035D01*
X196893176Y-89328811D01*
X196695174Y-89221658D01*
X196695172Y-89221657D01*
X196695171Y-89221656D01*
X196482239Y-89148557D01*
X196482230Y-89148555D01*
X196438076Y-89141187D01*
X196260169Y-89111500D01*
X196035031Y-89111500D01*
X195886811Y-89136233D01*
X195812969Y-89148555D01*
X195812960Y-89148557D01*
X195600028Y-89221656D01*
X195600026Y-89221658D01*
X195415658Y-89321433D01*
X195402026Y-89328810D01*
X195402024Y-89328811D01*
X195224362Y-89467091D01*
X195071879Y-89632729D01*
X194983083Y-89768643D01*
X194929079Y-89814731D01*
X194858731Y-89824306D01*
X194794374Y-89794329D01*
X194772117Y-89768643D01*
X194683320Y-89632729D01*
X194543815Y-89481189D01*
X194530840Y-89467094D01*
X194530839Y-89467093D01*
X194530837Y-89467091D01*
X194411279Y-89374035D01*
X194353176Y-89328811D01*
X194155174Y-89221658D01*
X194155172Y-89221657D01*
X194155171Y-89221656D01*
X193942239Y-89148557D01*
X193942230Y-89148555D01*
X193898076Y-89141187D01*
X193720169Y-89111500D01*
X193495031Y-89111500D01*
X193346811Y-89136233D01*
X193272969Y-89148555D01*
X193272960Y-89148557D01*
X193060028Y-89221656D01*
X193060026Y-89221658D01*
X192875658Y-89321433D01*
X192862026Y-89328810D01*
X192862024Y-89328811D01*
X192684359Y-89467094D01*
X192622974Y-89533775D01*
X192562121Y-89570346D01*
X192491157Y-89568211D01*
X192432612Y-89528049D01*
X192412218Y-89492470D01*
X192368043Y-89374033D01*
X192280504Y-89257095D01*
X192163565Y-89169555D01*
X192026693Y-89118505D01*
X191966197Y-89112000D01*
X191321600Y-89112000D01*
X191321600Y-90039297D01*
X191260593Y-90004075D01*
X191133426Y-89970000D01*
X191001774Y-89970000D01*
X190874607Y-90004075D01*
X190813600Y-90039297D01*
X190813600Y-89112000D01*
X190169002Y-89112000D01*
X190108506Y-89118505D01*
X189971635Y-89169555D01*
X189971634Y-89169555D01*
X189854695Y-89257095D01*
X189767155Y-89374034D01*
X189767155Y-89374035D01*
X189716105Y-89510906D01*
X189709600Y-89571402D01*
X189709600Y-90216000D01*
X190636897Y-90216000D01*
X190601675Y-90277007D01*
X190567600Y-90404174D01*
X190567600Y-90535826D01*
X190601675Y-90662993D01*
X190636897Y-90724000D01*
X189709600Y-90724000D01*
X189709600Y-91368597D01*
X187636500Y-91368597D01*
X187636500Y-76210434D01*
X187636513Y-76135729D01*
X187636511Y-76135719D01*
X187636500Y-76135606D01*
X187636500Y-76135594D01*
X187621784Y-76061613D01*
X187621785Y-76061612D01*
X187621781Y-76061600D01*
X187607390Y-75989182D01*
X187607388Y-75989178D01*
X187607380Y-75989136D01*
X187607367Y-75989094D01*
X187607351Y-75989056D01*
X187607351Y-75989054D01*
X187578926Y-75920433D01*
X187578924Y-75920411D01*
X187578919Y-75920414D01*
X187575413Y-75911947D01*
X187550237Y-75851134D01*
X187550233Y-75851129D01*
X187550225Y-75851108D01*
X187550186Y-75851036D01*
X187550176Y-75851021D01*
X187550174Y-75851016D01*
X187508739Y-75789004D01*
X187467251Y-75726889D01*
X187467247Y-75726885D01*
X187467169Y-75726790D01*
X187467165Y-75726784D01*
X187413425Y-75673044D01*
X187413416Y-75673026D01*
X187413412Y-75673031D01*
X187110130Y-75369642D01*
X187076116Y-75307324D01*
X187081193Y-75236509D01*
X187123750Y-75179680D01*
X187190274Y-75154881D01*
X187231853Y-75158856D01*
X187270847Y-75169304D01*
X187270855Y-75169306D01*
X187505600Y-75189844D01*
X187740345Y-75169306D01*
X187967958Y-75108318D01*
X188181522Y-75008731D01*
X188301049Y-74925038D01*
X188374544Y-74873577D01*
X188374546Y-74873574D01*
X188374549Y-74873573D01*
X188541173Y-74706949D01*
X188660856Y-74536022D01*
X188716310Y-74491696D01*
X188786929Y-74484387D01*
X188850290Y-74516417D01*
X188882791Y-74566099D01*
X188909075Y-74640054D01*
X188909076Y-74640057D01*
X188909077Y-74640058D01*
X189030076Y-74873577D01*
X189035492Y-74884028D01*
X189064318Y-74924865D01*
X189193943Y-75108502D01*
X189381489Y-75309314D01*
X189594631Y-75482718D01*
X189829400Y-75625484D01*
X190081423Y-75734953D01*
X190346004Y-75809085D01*
X190441104Y-75822156D01*
X190618204Y-75846499D01*
X190618215Y-75846500D01*
X190892985Y-75846500D01*
X190892995Y-75846499D01*
X191022545Y-75828692D01*
X191165196Y-75809085D01*
X191429777Y-75734953D01*
X191681800Y-75625484D01*
X191916569Y-75482718D01*
X192129711Y-75309314D01*
X192317257Y-75108502D01*
X192475711Y-74884023D01*
X192602123Y-74640058D01*
X192694138Y-74381153D01*
X192750042Y-74112130D01*
X192753532Y-74061115D01*
X192768793Y-73838004D01*
X192768793Y-73837995D01*
X192750043Y-73563883D01*
X192750042Y-73563877D01*
X192750042Y-73563870D01*
X192694138Y-73294847D01*
X192602123Y-73035942D01*
X192475711Y-72791977D01*
X192317257Y-72567498D01*
X192129711Y-72366686D01*
X191916569Y-72193282D01*
X191681800Y-72050516D01*
X191681801Y-72050516D01*
X191681797Y-72050514D01*
X191429780Y-71941048D01*
X191429778Y-71941047D01*
X191429777Y-71941047D01*
X191297486Y-71903981D01*
X191165193Y-71866914D01*
X190892995Y-71829500D01*
X190892985Y-71829500D01*
X190618215Y-71829500D01*
X190618204Y-71829500D01*
X190346006Y-71866914D01*
X190081419Y-71941048D01*
X189829402Y-72050514D01*
X189594628Y-72193284D01*
X189381486Y-72366688D01*
X189193943Y-72567498D01*
X189035492Y-72791971D01*
X188909075Y-73035945D01*
X188882791Y-73109900D01*
X188841131Y-73167389D01*
X188775004Y-73193228D01*
X188705404Y-73179215D01*
X188660854Y-73139975D01*
X188541173Y-72969051D01*
X188541170Y-72969048D01*
X188541168Y-72969045D01*
X188374554Y-72802431D01*
X188374544Y-72802422D01*
X188181525Y-72667270D01*
X188181526Y-72667270D01*
X187967960Y-72567683D01*
X187967956Y-72567681D01*
X187740348Y-72506694D01*
X187505600Y-72486156D01*
X187270851Y-72506694D01*
X187043243Y-72567681D01*
X187043239Y-72567683D01*
X186829674Y-72667270D01*
X186636655Y-72802422D01*
X186636645Y-72802431D01*
X186470031Y-72969045D01*
X186470022Y-72969055D01*
X186334870Y-73162074D01*
X186235283Y-73375639D01*
X186235281Y-73375643D01*
X186174294Y-73603251D01*
X186169998Y-73652352D01*
X186153756Y-73838000D01*
X186174294Y-74072745D01*
X186174295Y-74072750D01*
X186174294Y-74072750D01*
X186184597Y-74111200D01*
X186182907Y-74182177D01*
X186143112Y-74240972D01*
X186077847Y-74268919D01*
X186007834Y-74257145D01*
X185973779Y-74232890D01*
X185941488Y-74200588D01*
X185941153Y-74200284D01*
X185876586Y-74135730D01*
X185842554Y-74073422D01*
X185840152Y-74035644D01*
X185840401Y-74032794D01*
X185857444Y-73838000D01*
X185836906Y-73603255D01*
X185775918Y-73375642D01*
X185676331Y-73162078D01*
X185676330Y-73162077D01*
X185676329Y-73162074D01*
X185541177Y-72969055D01*
X185541168Y-72969045D01*
X185374554Y-72802431D01*
X185374544Y-72802422D01*
X185181525Y-72667270D01*
X185181526Y-72667270D01*
X184967960Y-72567683D01*
X184967956Y-72567681D01*
X184740348Y-72506694D01*
X184505600Y-72486156D01*
X184270851Y-72506694D01*
X184043243Y-72567681D01*
X184043239Y-72567683D01*
X183829674Y-72667270D01*
X183636655Y-72802422D01*
X183636645Y-72802431D01*
X183470031Y-72969045D01*
X183470022Y-72969055D01*
X183334870Y-73162074D01*
X183235283Y-73375639D01*
X183235281Y-73375643D01*
X183174294Y-73603251D01*
X183153756Y-73838000D01*
X183174294Y-74072748D01*
X183235281Y-74300356D01*
X183235283Y-74300360D01*
X183334870Y-74513925D01*
X183470022Y-74706944D01*
X183470031Y-74706954D01*
X183636645Y-74873568D01*
X183636655Y-74873577D01*
X183829674Y-75008729D01*
X183829673Y-75008729D01*
X183905596Y-75044132D01*
X184043242Y-75108318D01*
X184217020Y-75154881D01*
X184270847Y-75169304D01*
X184270855Y-75169306D01*
X184505600Y-75189844D01*
X184703615Y-75172519D01*
X184773218Y-75186508D01*
X184803773Y-75209028D01*
X184867037Y-75272410D01*
X184868068Y-75273549D01*
X184871834Y-75277315D01*
X184871835Y-75277316D01*
X184924452Y-75329933D01*
X184947463Y-75352987D01*
X184976931Y-75382512D01*
X184978219Y-75383570D01*
X184987337Y-75391839D01*
X186082611Y-76487499D01*
X186116625Y-76549817D01*
X186119500Y-76576579D01*
X186119500Y-97873235D01*
X186099498Y-97941356D01*
X186045842Y-97987849D01*
X186041723Y-97989642D01*
X186037355Y-97991451D01*
X186029616Y-97994657D01*
X185997899Y-98007793D01*
X185965721Y-98021120D01*
X185900719Y-98064554D01*
X185900715Y-98064557D01*
X185841498Y-98104120D01*
X185788340Y-98157278D01*
X183440538Y-100504858D01*
X183378224Y-100538880D01*
X183330710Y-100540040D01*
X183246569Y-100526000D01*
X183021431Y-100526000D01*
X182873327Y-100550714D01*
X182799369Y-100563055D01*
X182799360Y-100563057D01*
X182586428Y-100636156D01*
X182586426Y-100636158D01*
X182388426Y-100743310D01*
X182388424Y-100743311D01*
X182210762Y-100881591D01*
X182058279Y-101047229D01*
X182058275Y-101047234D01*
X181935141Y-101235706D01*
X181844703Y-101441886D01*
X181844702Y-101441887D01*
X181789437Y-101660124D01*
X181789436Y-101660130D01*
X181789436Y-101660132D01*
X181783567Y-101730957D01*
X181770844Y-101884500D01*
X157779500Y-101884500D01*
X157779500Y-99695103D01*
X172414296Y-99695103D01*
X172435034Y-99865899D01*
X172489647Y-100009901D01*
X172496046Y-100026775D01*
X172593785Y-100168373D01*
X172722570Y-100282467D01*
X172722571Y-100282467D01*
X172722573Y-100282469D01*
X172803465Y-100324924D01*
X172874917Y-100362425D01*
X172874918Y-100362425D01*
X172874920Y-100362426D01*
X173033394Y-100401485D01*
X173041972Y-100403600D01*
X173041975Y-100403600D01*
X173214025Y-100403600D01*
X173214028Y-100403600D01*
X173381083Y-100362425D01*
X173407126Y-100348756D01*
X173418032Y-100343033D01*
X173476587Y-100328600D01*
X174703393Y-100328600D01*
X174703394Y-100328600D01*
X174825785Y-100304255D01*
X174878386Y-100282467D01*
X174936960Y-100258205D01*
X174940505Y-100256881D01*
X174941077Y-100256498D01*
X174941079Y-100256498D01*
X174982920Y-100228539D01*
X175044833Y-100187171D01*
X175133071Y-100098933D01*
X175140242Y-100091762D01*
X175140253Y-100091748D01*
X181517329Y-93714581D01*
X181579640Y-93680557D01*
X181650456Y-93685621D01*
X181707292Y-93728167D01*
X181728568Y-93772745D01*
X181774172Y-93952829D01*
X181864610Y-94159008D01*
X181987744Y-94347480D01*
X181987748Y-94347485D01*
X182140231Y-94513123D01*
X182167818Y-94534595D01*
X182317893Y-94651404D01*
X182515895Y-94758557D01*
X182515896Y-94758557D01*
X182515897Y-94758558D01*
X182573987Y-94778500D01*
X182728834Y-94831659D01*
X182950900Y-94868715D01*
X182950904Y-94868715D01*
X183176034Y-94868715D01*
X183176038Y-94868715D01*
X183398104Y-94831659D01*
X183611043Y-94758557D01*
X183809045Y-94651404D01*
X183986709Y-94513121D01*
X184139191Y-94347483D01*
X184144426Y-94339471D01*
X184198133Y-94257265D01*
X184262329Y-94159006D01*
X184352765Y-93952831D01*
X184408033Y-93734583D01*
X184426625Y-93510215D01*
X184408033Y-93285847D01*
X184408031Y-93285839D01*
X184352766Y-93067602D01*
X184352765Y-93067601D01*
X184352765Y-93067599D01*
X184262329Y-92861424D01*
X184203387Y-92771206D01*
X184139193Y-92672949D01*
X184139189Y-92672944D01*
X183986706Y-92507306D01*
X183870798Y-92417091D01*
X183809045Y-92369026D01*
X183611043Y-92261873D01*
X183611041Y-92261872D01*
X183611040Y-92261871D01*
X183398108Y-92188772D01*
X183398099Y-92188770D01*
X183353945Y-92181402D01*
X183176038Y-92151715D01*
X183176034Y-92151715D01*
X182976166Y-92151715D01*
X182971792Y-92151500D01*
X182967794Y-92151500D01*
X182790394Y-92151500D01*
X181488606Y-92151500D01*
X181488603Y-92151500D01*
X181397432Y-92169635D01*
X181366215Y-92175845D01*
X181366214Y-92175845D01*
X181366211Y-92175846D01*
X181274080Y-92214009D01*
X181274076Y-92214009D01*
X181247050Y-92225203D01*
X181240605Y-92230494D01*
X181205680Y-92253830D01*
X181181121Y-92270241D01*
X181147172Y-92292926D01*
X181147171Y-92292927D01*
X181147162Y-92292932D01*
X174415498Y-99024695D01*
X174353186Y-99058720D01*
X174326402Y-99061600D01*
X173476587Y-99061600D01*
X173418032Y-99047167D01*
X173381087Y-99027777D01*
X173381079Y-99027773D01*
X173214031Y-98986600D01*
X173214028Y-98986600D01*
X173041972Y-98986600D01*
X173041968Y-98986600D01*
X172874920Y-99027773D01*
X172874912Y-99027777D01*
X172722573Y-99107730D01*
X172722568Y-99107734D01*
X172593785Y-99221827D01*
X172496045Y-99363426D01*
X172435034Y-99524300D01*
X172414296Y-99695096D01*
X172414296Y-99695103D01*
X157779500Y-99695103D01*
X157779500Y-92369027D01*
X157779500Y-92369024D01*
X157779503Y-92301623D01*
X157779501Y-92301617D01*
X157779502Y-92301613D01*
X157779501Y-92301600D01*
X157774967Y-92278807D01*
X157763986Y-92223600D01*
X157750706Y-92156828D01*
X157750408Y-92155196D01*
X157750396Y-92155156D01*
X157750219Y-92154737D01*
X157721996Y-92086598D01*
X157694200Y-92019487D01*
X157693336Y-92017263D01*
X157693287Y-92017169D01*
X157692711Y-92016323D01*
X157658835Y-91965623D01*
X157658834Y-91965621D01*
X157610183Y-91892805D01*
X157610168Y-91892787D01*
X157600287Y-91882906D01*
X157567126Y-91849745D01*
X157567125Y-91849743D01*
X157567125Y-91849744D01*
X157038817Y-91321397D01*
X181674400Y-91321397D01*
X181680905Y-91381893D01*
X181731955Y-91518764D01*
X181731955Y-91518765D01*
X181819495Y-91635704D01*
X181936434Y-91723244D01*
X182073306Y-91774294D01*
X182133802Y-91780799D01*
X182133815Y-91780800D01*
X182778400Y-91780800D01*
X182778400Y-90853502D01*
X182839407Y-90888725D01*
X182966574Y-90922800D01*
X183098226Y-90922800D01*
X183225393Y-90888725D01*
X183286400Y-90853502D01*
X183286400Y-91780800D01*
X183930985Y-91780800D01*
X183930997Y-91780799D01*
X183991493Y-91774294D01*
X184128364Y-91723244D01*
X184128365Y-91723244D01*
X184245304Y-91635704D01*
X184332844Y-91518765D01*
X184332844Y-91518764D01*
X184383894Y-91381893D01*
X184390399Y-91321397D01*
X184390400Y-91321385D01*
X184390400Y-90676800D01*
X183463103Y-90676800D01*
X183498325Y-90615793D01*
X183532400Y-90488626D01*
X183532400Y-90356974D01*
X183498325Y-90229807D01*
X183463103Y-90168800D01*
X184390400Y-90168800D01*
X184390400Y-89524214D01*
X184390399Y-89524202D01*
X184383894Y-89463706D01*
X184332844Y-89326835D01*
X184332844Y-89326834D01*
X184245304Y-89209895D01*
X184128365Y-89122355D01*
X183991493Y-89071305D01*
X183930997Y-89064800D01*
X183286400Y-89064800D01*
X183286400Y-89992097D01*
X183225393Y-89956875D01*
X183098226Y-89922800D01*
X182966574Y-89922800D01*
X182839407Y-89956875D01*
X182778400Y-89992097D01*
X182778400Y-89064800D01*
X182133802Y-89064800D01*
X182073306Y-89071305D01*
X181936435Y-89122355D01*
X181936434Y-89122355D01*
X181819495Y-89209895D01*
X181731955Y-89326834D01*
X181731955Y-89326835D01*
X181680905Y-89463706D01*
X181674400Y-89524202D01*
X181674400Y-90168800D01*
X182601697Y-90168800D01*
X182566475Y-90229807D01*
X182532400Y-90356974D01*
X182532400Y-90488626D01*
X182566475Y-90615793D01*
X182601697Y-90676800D01*
X181674400Y-90676800D01*
X181674400Y-91321397D01*
X157038817Y-91321397D01*
X154366847Y-88649228D01*
X154332824Y-88586915D01*
X154330376Y-88549736D01*
X154347756Y-88340000D01*
X154329164Y-88115632D01*
X154273896Y-87897384D01*
X154183460Y-87691209D01*
X154141360Y-87626770D01*
X154060324Y-87502734D01*
X154060320Y-87502729D01*
X153907837Y-87337091D01*
X153825982Y-87273381D01*
X153730176Y-87198811D01*
X153696919Y-87180813D01*
X153646529Y-87130802D01*
X153631176Y-87061485D01*
X153655736Y-86994872D01*
X153696920Y-86959186D01*
X153730176Y-86941189D01*
X153907840Y-86802906D01*
X154060322Y-86637268D01*
X154183460Y-86448791D01*
X154273896Y-86242616D01*
X154329164Y-86024368D01*
X154347756Y-85800000D01*
X154329164Y-85575632D01*
X154273896Y-85357384D01*
X154183460Y-85151209D01*
X154083210Y-84997764D01*
X154060324Y-84962734D01*
X154060320Y-84962729D01*
X153907837Y-84797091D01*
X153825982Y-84733381D01*
X153730176Y-84658811D01*
X153532174Y-84551658D01*
X153532172Y-84551657D01*
X153532171Y-84551656D01*
X153319239Y-84478557D01*
X153319230Y-84478555D01*
X153275076Y-84471187D01*
X153097169Y-84441500D01*
X152872031Y-84441500D01*
X152723811Y-84466233D01*
X152649969Y-84478555D01*
X152649960Y-84478557D01*
X152437028Y-84551656D01*
X152437026Y-84551658D01*
X152239026Y-84658810D01*
X152239024Y-84658811D01*
X152061362Y-84797091D01*
X151908879Y-84962729D01*
X151908875Y-84962734D01*
X151785741Y-85151206D01*
X151695303Y-85357386D01*
X151695302Y-85357387D01*
X151640037Y-85575624D01*
X151640036Y-85575630D01*
X151640036Y-85575632D01*
X151621444Y-85800000D01*
X151625272Y-85846202D01*
X151640037Y-86024375D01*
X151695302Y-86242612D01*
X151695303Y-86242613D01*
X151785741Y-86448793D01*
X151908875Y-86637265D01*
X151908879Y-86637270D01*
X152061362Y-86802908D01*
X152115931Y-86845381D01*
X152239024Y-86941189D01*
X152272280Y-86959186D01*
X152322671Y-87009200D01*
X152338023Y-87078516D01*
X152313462Y-87145129D01*
X152272280Y-87180813D01*
X152239026Y-87198810D01*
X152239024Y-87198811D01*
X152061362Y-87337091D01*
X151908879Y-87502729D01*
X151908875Y-87502734D01*
X151785741Y-87691206D01*
X151695303Y-87897386D01*
X151695302Y-87897387D01*
X151640037Y-88115624D01*
X151640036Y-88115630D01*
X151640036Y-88115632D01*
X151621444Y-88340000D01*
X151638823Y-88549731D01*
X151640037Y-88564375D01*
X151695302Y-88782612D01*
X151695303Y-88782613D01*
X151785741Y-88988793D01*
X151908875Y-89177265D01*
X151908879Y-89177270D01*
X152012676Y-89290022D01*
X152046565Y-89326835D01*
X152061362Y-89342908D01*
X152101353Y-89374034D01*
X152239024Y-89481189D01*
X152259870Y-89492470D01*
X152272280Y-89499186D01*
X152322671Y-89549200D01*
X152338023Y-89618516D01*
X152313462Y-89685129D01*
X152272280Y-89720814D01*
X152239026Y-89738810D01*
X152239024Y-89738811D01*
X152061362Y-89877091D01*
X151908879Y-90042729D01*
X151808917Y-90195733D01*
X151754913Y-90241821D01*
X151728017Y-90250396D01*
X151710306Y-90253919D01*
X151693412Y-90257279D01*
X151691161Y-90257705D01*
X151670187Y-90261466D01*
X151636757Y-90267461D01*
X151631001Y-90269089D01*
X151625213Y-90270845D01*
X151574235Y-90291960D01*
X151572033Y-90292848D01*
X151520594Y-90313025D01*
X151515227Y-90315765D01*
X151509929Y-90318597D01*
X151464026Y-90349267D01*
X151462041Y-90350566D01*
X151415540Y-90380383D01*
X151410808Y-90384119D01*
X151406168Y-90387927D01*
X151367111Y-90426983D01*
X151365414Y-90428648D01*
X131214122Y-109832199D01*
X129259878Y-111713929D01*
X129169178Y-111801263D01*
X129106233Y-111834105D01*
X129081782Y-111836500D01*
X125799587Y-111836500D01*
X125741032Y-111822067D01*
X125704087Y-111802677D01*
X125704079Y-111802673D01*
X125537031Y-111761500D01*
X125537028Y-111761500D01*
X125364972Y-111761500D01*
X125364968Y-111761500D01*
X125197920Y-111802673D01*
X125197912Y-111802677D01*
X125045573Y-111882630D01*
X125045568Y-111882634D01*
X124916785Y-111996727D01*
X124819045Y-112138326D01*
X124758034Y-112299200D01*
X124737296Y-112469996D01*
X124737296Y-112470003D01*
X124758034Y-112640799D01*
X124811375Y-112781447D01*
X124819046Y-112801675D01*
X124916785Y-112943273D01*
X125045570Y-113057367D01*
X125045571Y-113057367D01*
X125045573Y-113057369D01*
X125087087Y-113079157D01*
X125197917Y-113137325D01*
X125197918Y-113137325D01*
X125197920Y-113137326D01*
X125312188Y-113165490D01*
X125364972Y-113178500D01*
X125364975Y-113178500D01*
X125537025Y-113178500D01*
X125537028Y-113178500D01*
X125704083Y-113137325D01*
X125730126Y-113123656D01*
X125741032Y-113117933D01*
X125799587Y-113103500D01*
X129380862Y-113103500D01*
X129383244Y-113103522D01*
X129386400Y-113103582D01*
X129438400Y-113104566D01*
X129438401Y-113104565D01*
X129438409Y-113104566D01*
X129438416Y-113104564D01*
X129444422Y-113104088D01*
X129450382Y-113103500D01*
X129450394Y-113103500D01*
X129504574Y-113092721D01*
X129506887Y-113092284D01*
X129539195Y-113086491D01*
X129561233Y-113082540D01*
X129561233Y-113082539D01*
X129561238Y-113082539D01*
X129561241Y-113082537D01*
X129567070Y-113080888D01*
X129572778Y-113079157D01*
X129572780Y-113079155D01*
X129572785Y-113079155D01*
X129613502Y-113062289D01*
X129623797Y-113058025D01*
X129625955Y-113057154D01*
X129677411Y-113036972D01*
X129677414Y-113036969D01*
X129682736Y-113034252D01*
X129688066Y-113031403D01*
X129688075Y-113031400D01*
X129734058Y-113000673D01*
X129735823Y-112999517D01*
X129782460Y-112969616D01*
X129782465Y-112969610D01*
X129782468Y-112969609D01*
X129787150Y-112965912D01*
X129791825Y-112962076D01*
X129791833Y-112962071D01*
X129830937Y-112922965D01*
X129832531Y-112921401D01*
X151790173Y-91778529D01*
X151853117Y-91745688D01*
X151923824Y-91752091D01*
X151970267Y-91783953D01*
X152030831Y-91849743D01*
X152061362Y-91882908D01*
X152074078Y-91892805D01*
X152239024Y-92021189D01*
X152272280Y-92039186D01*
X152322671Y-92089200D01*
X152338023Y-92158516D01*
X152313462Y-92225129D01*
X152272280Y-92260813D01*
X152239026Y-92278810D01*
X152239024Y-92278811D01*
X152061362Y-92417091D01*
X151908879Y-92582729D01*
X151908875Y-92582734D01*
X151785741Y-92771206D01*
X151695303Y-92977385D01*
X151670110Y-93076869D01*
X151637061Y-93135032D01*
X142649167Y-102122929D01*
X142560931Y-102211164D01*
X142560926Y-102211171D01*
X142491601Y-102314923D01*
X142443846Y-102430212D01*
X142419500Y-102552603D01*
X142419500Y-114922500D01*
X142399498Y-114990621D01*
X142345842Y-115037114D01*
X142293500Y-115048500D01*
X140553950Y-115048500D01*
X140493403Y-115055009D01*
X140493395Y-115055011D01*
X140356397Y-115106110D01*
X140356392Y-115106112D01*
X140239338Y-115193738D01*
X140151712Y-115310792D01*
X140151711Y-115310795D01*
X140107600Y-115429058D01*
X140065053Y-115485893D01*
X139998532Y-115510703D01*
X139929158Y-115495611D01*
X139896846Y-115470363D01*
X139835840Y-115404094D01*
X139835839Y-115404093D01*
X139835837Y-115404091D01*
X139715972Y-115310796D01*
X139658176Y-115265811D01*
X139460174Y-115158658D01*
X139460172Y-115158657D01*
X139460171Y-115158656D01*
X139247239Y-115085557D01*
X139247230Y-115085555D01*
X139187254Y-115075547D01*
X139025169Y-115048500D01*
X138800031Y-115048500D01*
X138662091Y-115071518D01*
X138577969Y-115085555D01*
X138577960Y-115085557D01*
X138365028Y-115158656D01*
X138365026Y-115158658D01*
X138168344Y-115265097D01*
X138167026Y-115265810D01*
X138167024Y-115265811D01*
X137989362Y-115404091D01*
X137836879Y-115569729D01*
X137748083Y-115705643D01*
X137694079Y-115751731D01*
X137623731Y-115761306D01*
X137559374Y-115731329D01*
X137537117Y-115705643D01*
X137448320Y-115569729D01*
X137323286Y-115433908D01*
X137295840Y-115404094D01*
X137295839Y-115404093D01*
X137295837Y-115404091D01*
X137175972Y-115310796D01*
X137118176Y-115265811D01*
X136920174Y-115158658D01*
X136920172Y-115158657D01*
X136920171Y-115158656D01*
X136707239Y-115085557D01*
X136707230Y-115085555D01*
X136647254Y-115075547D01*
X136485169Y-115048500D01*
X136260031Y-115048500D01*
X136122091Y-115071518D01*
X136037969Y-115085555D01*
X136037960Y-115085557D01*
X135825028Y-115158656D01*
X135825026Y-115158658D01*
X135628344Y-115265097D01*
X135627026Y-115265810D01*
X135627024Y-115265811D01*
X135449362Y-115404091D01*
X135296879Y-115569729D01*
X135208083Y-115705643D01*
X135154079Y-115751731D01*
X135083731Y-115761306D01*
X135019374Y-115731329D01*
X134997117Y-115705643D01*
X134908320Y-115569729D01*
X134783286Y-115433908D01*
X134755840Y-115404094D01*
X134755839Y-115404093D01*
X134755837Y-115404091D01*
X134635972Y-115310796D01*
X134578176Y-115265811D01*
X134380174Y-115158658D01*
X134380172Y-115158657D01*
X134380171Y-115158656D01*
X134167239Y-115085557D01*
X134167230Y-115085555D01*
X134107254Y-115075547D01*
X133945169Y-115048500D01*
X133720031Y-115048500D01*
X133582091Y-115071518D01*
X133497969Y-115085555D01*
X133497960Y-115085557D01*
X133285028Y-115158656D01*
X133285026Y-115158658D01*
X133088344Y-115265097D01*
X133087026Y-115265810D01*
X133087024Y-115265811D01*
X132909362Y-115404091D01*
X132756879Y-115569729D01*
X132668083Y-115705643D01*
X132614079Y-115751731D01*
X132543731Y-115761306D01*
X132479374Y-115731329D01*
X132457117Y-115705643D01*
X132368320Y-115569729D01*
X132243286Y-115433908D01*
X132215840Y-115404094D01*
X132215839Y-115404093D01*
X132215837Y-115404091D01*
X132095972Y-115310796D01*
X132038176Y-115265811D01*
X131840174Y-115158658D01*
X131840172Y-115158657D01*
X131840171Y-115158656D01*
X131627239Y-115085557D01*
X131627230Y-115085555D01*
X131567254Y-115075547D01*
X131405169Y-115048500D01*
X131180031Y-115048500D01*
X131042091Y-115071518D01*
X130957969Y-115085555D01*
X130957960Y-115085557D01*
X130745028Y-115158656D01*
X130745026Y-115158658D01*
X130548344Y-115265097D01*
X130547026Y-115265810D01*
X130547024Y-115265811D01*
X130369362Y-115404091D01*
X130216879Y-115569729D01*
X130128083Y-115705643D01*
X130074079Y-115751731D01*
X130003731Y-115761306D01*
X129939374Y-115731329D01*
X129917117Y-115705643D01*
X129828320Y-115569729D01*
X129703286Y-115433908D01*
X129675840Y-115404094D01*
X129675839Y-115404093D01*
X129675837Y-115404091D01*
X129555972Y-115310796D01*
X129498176Y-115265811D01*
X129300174Y-115158658D01*
X129300172Y-115158657D01*
X129300171Y-115158656D01*
X129087239Y-115085557D01*
X129087230Y-115085555D01*
X129027254Y-115075547D01*
X128865169Y-115048500D01*
X128640031Y-115048500D01*
X128502091Y-115071518D01*
X128417969Y-115085555D01*
X128417960Y-115085557D01*
X128205028Y-115158656D01*
X128205026Y-115158658D01*
X128008344Y-115265097D01*
X128007026Y-115265810D01*
X128007024Y-115265811D01*
X127829362Y-115404091D01*
X127676879Y-115569729D01*
X127588083Y-115705643D01*
X127534079Y-115751731D01*
X127463731Y-115761306D01*
X127399374Y-115731329D01*
X127377117Y-115705643D01*
X127288320Y-115569729D01*
X127163286Y-115433908D01*
X127135840Y-115404094D01*
X127135839Y-115404093D01*
X127135837Y-115404091D01*
X127015972Y-115310796D01*
X126958176Y-115265811D01*
X126760174Y-115158658D01*
X126760172Y-115158657D01*
X126760171Y-115158656D01*
X126547239Y-115085557D01*
X126547230Y-115085555D01*
X126487254Y-115075547D01*
X126325169Y-115048500D01*
X126100031Y-115048500D01*
X125962091Y-115071518D01*
X125877969Y-115085555D01*
X125877960Y-115085557D01*
X125665028Y-115158656D01*
X125665026Y-115158658D01*
X125468344Y-115265097D01*
X125467026Y-115265810D01*
X125467024Y-115265811D01*
X125289362Y-115404091D01*
X125136879Y-115569729D01*
X125048083Y-115705643D01*
X124994079Y-115751731D01*
X124923731Y-115761306D01*
X124859374Y-115731329D01*
X124837117Y-115705643D01*
X124748320Y-115569729D01*
X124623286Y-115433908D01*
X124595840Y-115404094D01*
X124595839Y-115404093D01*
X124595837Y-115404091D01*
X124475972Y-115310796D01*
X124418176Y-115265811D01*
X124220174Y-115158658D01*
X124220172Y-115158657D01*
X124220171Y-115158656D01*
X124007239Y-115085557D01*
X124007230Y-115085555D01*
X123947254Y-115075547D01*
X123785169Y-115048500D01*
X123560031Y-115048500D01*
X123422091Y-115071518D01*
X123337969Y-115085555D01*
X123337960Y-115085557D01*
X123125028Y-115158656D01*
X123125026Y-115158658D01*
X122928344Y-115265097D01*
X122927026Y-115265810D01*
X122927024Y-115265811D01*
X122749362Y-115404091D01*
X122596879Y-115569729D01*
X122508083Y-115705643D01*
X122454079Y-115751731D01*
X122383731Y-115761306D01*
X122319374Y-115731329D01*
X122297117Y-115705643D01*
X122208320Y-115569729D01*
X122083286Y-115433908D01*
X122055840Y-115404094D01*
X122055839Y-115404093D01*
X122055837Y-115404091D01*
X121935972Y-115310796D01*
X121878176Y-115265811D01*
X121680174Y-115158658D01*
X121680172Y-115158657D01*
X121680171Y-115158656D01*
X121467239Y-115085557D01*
X121467230Y-115085555D01*
X121407254Y-115075547D01*
X121245169Y-115048500D01*
X121020031Y-115048500D01*
X120882091Y-115071518D01*
X120797969Y-115085555D01*
X120797960Y-115085557D01*
X120585028Y-115158656D01*
X120585026Y-115158658D01*
X120388344Y-115265097D01*
X120387026Y-115265810D01*
X120387024Y-115265811D01*
X120209362Y-115404091D01*
X120056879Y-115569729D01*
X119968083Y-115705643D01*
X119914079Y-115751731D01*
X119843731Y-115761306D01*
X119779374Y-115731329D01*
X119757117Y-115705643D01*
X119668320Y-115569729D01*
X119543286Y-115433908D01*
X119515840Y-115404094D01*
X119515839Y-115404093D01*
X119515837Y-115404091D01*
X119395972Y-115310796D01*
X119338176Y-115265811D01*
X119140174Y-115158658D01*
X119140172Y-115158657D01*
X119140171Y-115158656D01*
X118927239Y-115085557D01*
X118927230Y-115085555D01*
X118867254Y-115075547D01*
X118705169Y-115048500D01*
X118480031Y-115048500D01*
X118342091Y-115071518D01*
X118257969Y-115085555D01*
X118257960Y-115085557D01*
X118045028Y-115158656D01*
X118045026Y-115158658D01*
X117848344Y-115265097D01*
X117847026Y-115265810D01*
X117847024Y-115265811D01*
X117669362Y-115404091D01*
X117516879Y-115569729D01*
X117428083Y-115705643D01*
X117374079Y-115751731D01*
X117303731Y-115761306D01*
X117239374Y-115731329D01*
X117217117Y-115705643D01*
X117128320Y-115569729D01*
X117003286Y-115433908D01*
X116975840Y-115404094D01*
X116975839Y-115404093D01*
X116975837Y-115404091D01*
X116855972Y-115310796D01*
X116798176Y-115265811D01*
X116600174Y-115158658D01*
X116600172Y-115158657D01*
X116600171Y-115158656D01*
X116387239Y-115085557D01*
X116387230Y-115085555D01*
X116327254Y-115075547D01*
X116165169Y-115048500D01*
X115940031Y-115048500D01*
X115802091Y-115071518D01*
X115717969Y-115085555D01*
X115717960Y-115085557D01*
X115505028Y-115158656D01*
X115505026Y-115158658D01*
X115308344Y-115265097D01*
X115307026Y-115265810D01*
X115307024Y-115265811D01*
X115129362Y-115404091D01*
X114976879Y-115569729D01*
X114888083Y-115705643D01*
X114834079Y-115751731D01*
X114763731Y-115761306D01*
X114699374Y-115731329D01*
X114677117Y-115705643D01*
X114588320Y-115569729D01*
X114463286Y-115433908D01*
X114435840Y-115404094D01*
X114435839Y-115404093D01*
X114435837Y-115404091D01*
X114315972Y-115310796D01*
X114258176Y-115265811D01*
X114060174Y-115158658D01*
X114060172Y-115158657D01*
X114060171Y-115158656D01*
X113847239Y-115085557D01*
X113847230Y-115085555D01*
X113787254Y-115075547D01*
X113625169Y-115048500D01*
X113400031Y-115048500D01*
X113262091Y-115071518D01*
X113177969Y-115085555D01*
X113177960Y-115085557D01*
X112965028Y-115158656D01*
X112965026Y-115158658D01*
X112768344Y-115265097D01*
X112767026Y-115265810D01*
X112767024Y-115265811D01*
X112589362Y-115404091D01*
X112436879Y-115569729D01*
X112348083Y-115705643D01*
X112294079Y-115751731D01*
X112223731Y-115761306D01*
X112159374Y-115731329D01*
X112137117Y-115705643D01*
X112048320Y-115569729D01*
X111923286Y-115433908D01*
X111895840Y-115404094D01*
X111895839Y-115404093D01*
X111895837Y-115404091D01*
X111775972Y-115310796D01*
X111718176Y-115265811D01*
X111520174Y-115158658D01*
X111520172Y-115158657D01*
X111520171Y-115158656D01*
X111307239Y-115085557D01*
X111307230Y-115085555D01*
X111247254Y-115075547D01*
X111085169Y-115048500D01*
X110860031Y-115048500D01*
X110722091Y-115071518D01*
X110637969Y-115085555D01*
X110637960Y-115085557D01*
X110425028Y-115158656D01*
X110425026Y-115158658D01*
X110228344Y-115265097D01*
X110227026Y-115265810D01*
X110227024Y-115265811D01*
X110049362Y-115404091D01*
X109896879Y-115569729D01*
X109808083Y-115705643D01*
X109754079Y-115751731D01*
X109683731Y-115761306D01*
X109619374Y-115731329D01*
X109597117Y-115705643D01*
X109508320Y-115569729D01*
X109383286Y-115433908D01*
X109355840Y-115404094D01*
X109355839Y-115404093D01*
X109355837Y-115404091D01*
X109235972Y-115310796D01*
X109178176Y-115265811D01*
X108980174Y-115158658D01*
X108980172Y-115158657D01*
X108980171Y-115158656D01*
X108767239Y-115085557D01*
X108767230Y-115085555D01*
X108707254Y-115075547D01*
X108545169Y-115048500D01*
X108320031Y-115048500D01*
X108182091Y-115071518D01*
X108097969Y-115085555D01*
X108097960Y-115085557D01*
X107885028Y-115158656D01*
X107885026Y-115158658D01*
X107688344Y-115265097D01*
X107687026Y-115265810D01*
X107687024Y-115265811D01*
X107509362Y-115404091D01*
X107356879Y-115569729D01*
X107268083Y-115705643D01*
X107214079Y-115751731D01*
X107143731Y-115761306D01*
X107079374Y-115731329D01*
X107057117Y-115705643D01*
X106968320Y-115569729D01*
X106843286Y-115433908D01*
X106815840Y-115404094D01*
X106815839Y-115404093D01*
X106815837Y-115404091D01*
X106695972Y-115310796D01*
X106638176Y-115265811D01*
X106440174Y-115158658D01*
X106440172Y-115158657D01*
X106440171Y-115158656D01*
X106227239Y-115085557D01*
X106227222Y-115085553D01*
X106143116Y-115071518D01*
X106079217Y-115040577D01*
X106042190Y-114980000D01*
X106043791Y-114909021D01*
X106074759Y-114858144D01*
X108056499Y-112876405D01*
X108118811Y-112842379D01*
X108145594Y-112839500D01*
X119554393Y-112839500D01*
X119554394Y-112839500D01*
X119676785Y-112815155D01*
X119792075Y-112767400D01*
X119895833Y-112698071D01*
X123233726Y-109360176D01*
X123284528Y-109331528D01*
X123283959Y-109330027D01*
X123291077Y-109327326D01*
X123291083Y-109327325D01*
X123443430Y-109247367D01*
X123572215Y-109133273D01*
X123669954Y-108991675D01*
X123730965Y-108830801D01*
X123751704Y-108660000D01*
X123730965Y-108489199D01*
X123669954Y-108328325D01*
X123572215Y-108186727D01*
X123443430Y-108072633D01*
X123443429Y-108072632D01*
X123443426Y-108072630D01*
X123291087Y-107992677D01*
X123291079Y-107992673D01*
X123124031Y-107951500D01*
X123124028Y-107951500D01*
X122951972Y-107951500D01*
X122951968Y-107951500D01*
X122784920Y-107992673D01*
X122784912Y-107992677D01*
X122632573Y-108072630D01*
X122632568Y-108072634D01*
X122503785Y-108186727D01*
X122406046Y-108328325D01*
X122406046Y-108328326D01*
X122406042Y-108328332D01*
X122374258Y-108412139D01*
X122345542Y-108456552D01*
X119266501Y-111535595D01*
X119204189Y-111569620D01*
X119177406Y-111572500D01*
X107768603Y-111572500D01*
X107695568Y-111587028D01*
X107646215Y-111596845D01*
X107646213Y-111596845D01*
X107646212Y-111596846D01*
X107530923Y-111644601D01*
X107427171Y-111713926D01*
X107427164Y-111713931D01*
X103749931Y-115391164D01*
X103749926Y-115391171D01*
X103697013Y-115470362D01*
X103680600Y-115494925D01*
X103660821Y-115542675D01*
X103633330Y-115609045D01*
X103632845Y-115610215D01*
X103629098Y-115629055D01*
X103608500Y-115732603D01*
X103608500Y-119132898D01*
X103608473Y-119196133D01*
X84970048Y-119196133D01*
X85018356Y-119091242D01*
X85020072Y-119087667D01*
X85083072Y-118961716D01*
X85084944Y-118958122D01*
X85087432Y-118953525D01*
X85152078Y-118834068D01*
X85154000Y-118830647D01*
X85225238Y-118708589D01*
X85227280Y-118705218D01*
X85301367Y-118587212D01*
X85305486Y-118581063D01*
X85410883Y-118433304D01*
X85547868Y-118241261D01*
X85551672Y-118237533D01*
X85561291Y-118222746D01*
X85561293Y-118222746D01*
X85562070Y-118221550D01*
X85565090Y-118217119D01*
X85565938Y-118215931D01*
X85565937Y-118215930D01*
X85576174Y-118201584D01*
X85578256Y-118196675D01*
X85596262Y-118169004D01*
X85793146Y-117866435D01*
X85797999Y-117861138D01*
X85805202Y-117848371D01*
X85809326Y-117841570D01*
X85809354Y-117841528D01*
X85809353Y-117841526D01*
X85817353Y-117829235D01*
X85819807Y-117822483D01*
X86231736Y-117092411D01*
X86237097Y-117085629D01*
X86241637Y-117075749D01*
X86246413Y-117066400D01*
X86251749Y-117056947D01*
X86254105Y-117048627D01*
X86603028Y-116289683D01*
X86607753Y-116282585D01*
X86611607Y-116272019D01*
X86615509Y-116262537D01*
X86620192Y-116252355D01*
X86621834Y-116243989D01*
X86907193Y-115461965D01*
X86911284Y-115454600D01*
X86914363Y-115443485D01*
X86917433Y-115433908D01*
X86921379Y-115423099D01*
X86922333Y-115414724D01*
X87144207Y-114614231D01*
X87147665Y-114606653D01*
X87149913Y-114595095D01*
X87152178Y-114585476D01*
X87155315Y-114574162D01*
X87155604Y-114565838D01*
X87314057Y-113751460D01*
X87316894Y-113743697D01*
X87318263Y-113731825D01*
X87319758Y-113722166D01*
X87322034Y-113710475D01*
X87321679Y-113702218D01*
X87416739Y-112878589D01*
X87418960Y-112870668D01*
X87419417Y-112858643D01*
X87420161Y-112848946D01*
X87421539Y-112837032D01*
X87420555Y-112828865D01*
X87452242Y-112000619D01*
X87453845Y-111992579D01*
X87453382Y-111980467D01*
X87453382Y-111970825D01*
X87453844Y-111958757D01*
X87452244Y-111950713D01*
X87447323Y-111822067D01*
X87420563Y-111122470D01*
X87421550Y-111114301D01*
X87420166Y-111102331D01*
X87419423Y-111092643D01*
X87418966Y-111080626D01*
X87416745Y-111072698D01*
X87321696Y-110249105D01*
X87322053Y-110240857D01*
X87319763Y-110229085D01*
X87318274Y-110219459D01*
X87316908Y-110207619D01*
X87314078Y-110199863D01*
X87161498Y-109415634D01*
X87155628Y-109385470D01*
X87155341Y-109377144D01*
X87152194Y-109365792D01*
X87149932Y-109356188D01*
X87147690Y-109344663D01*
X87144238Y-109337087D01*
X87048502Y-108991675D01*
X86922360Y-108536560D01*
X86921409Y-108528197D01*
X86917444Y-108517330D01*
X86914385Y-108507785D01*
X86911311Y-108496694D01*
X86907229Y-108489336D01*
X86907179Y-108489200D01*
X86621865Y-107707278D01*
X86620225Y-107698916D01*
X86615517Y-107688674D01*
X86611633Y-107679237D01*
X86607783Y-107668688D01*
X86603068Y-107661596D01*
X86254135Y-106902613D01*
X86251782Y-106894300D01*
X86246409Y-106884776D01*
X86241662Y-106875483D01*
X86237127Y-106865617D01*
X86231778Y-106858844D01*
X85915735Y-106298702D01*
X85819826Y-106128716D01*
X85817373Y-106121965D01*
X85809345Y-106109627D01*
X85805214Y-106102818D01*
X85798042Y-106090106D01*
X85793196Y-106084809D01*
X85661596Y-105882564D01*
X85578216Y-105754423D01*
X85576143Y-105749542D01*
X85565942Y-105735241D01*
X85565943Y-105735240D01*
X85565089Y-105734043D01*
X85562092Y-105729644D01*
X85551785Y-105713805D01*
X85547995Y-105710077D01*
X85305185Y-105369668D01*
X85301527Y-105364247D01*
X85226463Y-105246536D01*
X85223999Y-105242507D01*
X85152956Y-105121310D01*
X85150694Y-105117285D01*
X85084236Y-104993748D01*
X85082175Y-104989747D01*
X85020244Y-104864062D01*
X85018373Y-104860092D01*
X85018340Y-104860019D01*
X84960889Y-104732396D01*
X84959218Y-104728507D01*
X84906095Y-104598934D01*
X84904581Y-104595062D01*
X84857651Y-104468889D01*
X84855745Y-104463764D01*
X84854413Y-104460001D01*
X84809774Y-104327096D01*
X84808615Y-104323455D01*
X84768128Y-104189183D01*
X84767109Y-104185605D01*
X84730695Y-104050129D01*
X84729785Y-104046536D01*
X84729160Y-104043905D01*
X84697350Y-103909949D01*
X84696574Y-103906461D01*
X84693325Y-103890799D01*
X84668046Y-103768933D01*
X84667383Y-103765494D01*
X84644848Y-103639314D01*
X84642698Y-103627278D01*
X84642146Y-103623923D01*
X84621212Y-103485096D01*
X84620760Y-103481808D01*
X84604204Y-103348235D01*
X84603497Y-103342533D01*
X84603142Y-103339331D01*
X84593785Y-103243810D01*
X84589953Y-103204684D01*
X84589353Y-103192401D01*
X84589353Y-94632240D01*
X84589671Y-94623289D01*
X84594094Y-94561183D01*
X84599404Y-94486630D01*
X84599776Y-94482421D01*
X84599813Y-94482076D01*
X84614370Y-94343633D01*
X84614879Y-94339471D01*
X84615075Y-94338064D01*
X84634115Y-94201151D01*
X84634744Y-94197120D01*
X84658583Y-94059401D01*
X84659332Y-94055468D01*
X84687701Y-93918600D01*
X84688600Y-93914598D01*
X84721451Y-93778714D01*
X84722483Y-93774731D01*
X84725369Y-93764299D01*
X84759806Y-93639800D01*
X84760934Y-93635966D01*
X84802659Y-93502213D01*
X84803926Y-93498375D01*
X84804168Y-93497680D01*
X84849994Y-93365957D01*
X84851368Y-93362204D01*
X84901752Y-93231185D01*
X84903214Y-93227558D01*
X84957883Y-93098026D01*
X84959491Y-93094382D01*
X85018370Y-92966539D01*
X85020049Y-92963044D01*
X85083076Y-92837044D01*
X85084918Y-92833503D01*
X85152073Y-92709410D01*
X85154055Y-92705889D01*
X85225237Y-92583929D01*
X85227280Y-92580553D01*
X85301529Y-92462289D01*
X85305632Y-92456163D01*
X85547871Y-92116564D01*
X85551674Y-92112837D01*
X85561292Y-92098052D01*
X85561293Y-92098052D01*
X85562070Y-92096856D01*
X85565090Y-92092425D01*
X85565938Y-92091237D01*
X85565937Y-92091236D01*
X85576173Y-92076890D01*
X85578254Y-92071983D01*
X85793145Y-91741739D01*
X85797998Y-91736443D01*
X85805201Y-91723676D01*
X85809325Y-91716875D01*
X85809353Y-91716833D01*
X85809352Y-91716831D01*
X85817352Y-91704540D01*
X85819806Y-91697788D01*
X86231735Y-90967715D01*
X86237096Y-90960933D01*
X86241636Y-90951053D01*
X86246412Y-90941704D01*
X86251748Y-90932251D01*
X86254104Y-90923931D01*
X86603025Y-90164987D01*
X86607750Y-90157889D01*
X86611610Y-90147308D01*
X86615507Y-90137839D01*
X86620190Y-90127656D01*
X86621832Y-90119290D01*
X86907191Y-89337266D01*
X86911282Y-89329901D01*
X86914361Y-89318786D01*
X86917431Y-89309209D01*
X86921377Y-89298400D01*
X86922331Y-89290025D01*
X87144206Y-88489530D01*
X87147664Y-88481952D01*
X87149912Y-88470394D01*
X87152177Y-88460775D01*
X87155314Y-88449461D01*
X87155603Y-88441137D01*
X87314056Y-87626758D01*
X87316893Y-87618995D01*
X87318262Y-87607123D01*
X87319757Y-87597464D01*
X87322033Y-87585773D01*
X87321678Y-87577516D01*
X87416738Y-86753884D01*
X87418959Y-86745963D01*
X87419416Y-86733938D01*
X87420160Y-86724241D01*
X87421538Y-86712327D01*
X87420554Y-86704160D01*
X87452242Y-85875913D01*
X87453845Y-85867873D01*
X87453382Y-85855761D01*
X87453382Y-85846119D01*
X87453844Y-85834051D01*
X87452244Y-85826007D01*
X87434319Y-85357384D01*
X87420563Y-84997762D01*
X87421550Y-84989593D01*
X87420166Y-84977623D01*
X87419423Y-84967935D01*
X87418966Y-84955917D01*
X87416745Y-84947992D01*
X87321696Y-84124398D01*
X87322053Y-84116146D01*
X87319767Y-84104399D01*
X87318276Y-84094759D01*
X87316910Y-84082919D01*
X87314078Y-84075157D01*
X87155630Y-83260763D01*
X87155342Y-83252436D01*
X87152195Y-83241084D01*
X87149933Y-83231480D01*
X87147691Y-83219955D01*
X87144239Y-83212379D01*
X87140154Y-83197640D01*
X86922361Y-82411852D01*
X86921410Y-82403489D01*
X86917445Y-82392622D01*
X86914386Y-82383077D01*
X86911312Y-82371986D01*
X86907230Y-82364628D01*
X86621867Y-81582571D01*
X86620227Y-81574212D01*
X86615518Y-81563968D01*
X86611634Y-81554531D01*
X86607785Y-81543983D01*
X86603070Y-81536892D01*
X86254134Y-80777906D01*
X86251779Y-80769585D01*
X86246424Y-80760097D01*
X86241663Y-80750779D01*
X86237133Y-80740921D01*
X86231780Y-80734143D01*
X85819828Y-80004019D01*
X85817375Y-79997267D01*
X85809364Y-79984959D01*
X85809365Y-79984958D01*
X85809329Y-79984903D01*
X85805207Y-79978106D01*
X85798018Y-79965362D01*
X85793167Y-79960066D01*
X85578273Y-79629814D01*
X85576195Y-79624912D01*
X85565105Y-79609365D01*
X85562082Y-79604931D01*
X85561299Y-79603727D01*
X85561298Y-79603726D01*
X85551737Y-79589031D01*
X85547941Y-79585304D01*
X85304637Y-79244206D01*
X85302546Y-79241179D01*
X85223682Y-79123191D01*
X85220597Y-79118336D01*
X85155508Y-79010534D01*
X85148390Y-78998746D01*
X85145634Y-78993943D01*
X85078971Y-78871641D01*
X85076531Y-78866930D01*
X85015140Y-78742060D01*
X85013017Y-78737516D01*
X84956645Y-78610236D01*
X84954802Y-78605851D01*
X84903212Y-78476349D01*
X84901636Y-78472178D01*
X84854608Y-78340710D01*
X84853260Y-78336734D01*
X84810547Y-78203489D01*
X84809410Y-78199743D01*
X84773393Y-78074085D01*
X84770735Y-78064812D01*
X84769810Y-78061397D01*
X84735509Y-77927213D01*
X84734953Y-77925038D01*
X84734165Y-77921773D01*
X84702918Y-77784367D01*
X84702269Y-77781343D01*
X84674336Y-77642878D01*
X84673808Y-77640100D01*
X84648948Y-77500810D01*
X84648544Y-77498403D01*
X84626617Y-77359201D01*
X84626141Y-77355891D01*
X84590410Y-77081771D01*
X84589353Y-77065485D01*
X84589353Y-75353496D01*
X84589356Y-75352585D01*
X84589936Y-75272410D01*
X84592448Y-74925025D01*
X84592721Y-74917617D01*
X84592722Y-74917604D01*
X84620636Y-74496429D01*
X84621325Y-74489205D01*
X84673389Y-74071963D01*
X84674478Y-74064887D01*
X84674496Y-74064791D01*
X84716003Y-73838004D01*
X176242407Y-73838004D01*
X176261156Y-74112116D01*
X176261157Y-74112122D01*
X176261158Y-74112130D01*
X176287932Y-74240972D01*
X176317060Y-74381146D01*
X176317062Y-74381154D01*
X176382792Y-74566099D01*
X176409077Y-74640058D01*
X176530076Y-74873577D01*
X176535492Y-74884028D01*
X176564318Y-74924865D01*
X176693943Y-75108502D01*
X176881489Y-75309314D01*
X177094631Y-75482718D01*
X177329400Y-75625484D01*
X177581423Y-75734953D01*
X177846004Y-75809085D01*
X177941104Y-75822156D01*
X178118204Y-75846499D01*
X178118215Y-75846500D01*
X178392985Y-75846500D01*
X178392995Y-75846499D01*
X178522545Y-75828692D01*
X178665196Y-75809085D01*
X178929777Y-75734953D01*
X179181800Y-75625484D01*
X179416569Y-75482718D01*
X179629711Y-75309314D01*
X179817257Y-75108502D01*
X179975711Y-74884023D01*
X180102123Y-74640058D01*
X180128408Y-74566098D01*
X180170066Y-74508611D01*
X180236193Y-74482771D01*
X180305793Y-74496783D01*
X180350345Y-74536025D01*
X180470022Y-74706944D01*
X180470031Y-74706954D01*
X180636645Y-74873568D01*
X180636655Y-74873577D01*
X180829674Y-75008729D01*
X180829673Y-75008729D01*
X180905596Y-75044132D01*
X181043242Y-75108318D01*
X181217020Y-75154881D01*
X181270847Y-75169304D01*
X181270855Y-75169306D01*
X181505600Y-75189844D01*
X181740345Y-75169306D01*
X181967958Y-75108318D01*
X182181522Y-75008731D01*
X182301049Y-74925038D01*
X182374544Y-74873577D01*
X182374546Y-74873574D01*
X182374549Y-74873573D01*
X182541173Y-74706949D01*
X182588011Y-74640058D01*
X182676329Y-74513925D01*
X182676329Y-74513924D01*
X182676331Y-74513922D01*
X182775918Y-74300358D01*
X182836906Y-74072745D01*
X182857444Y-73838000D01*
X182836906Y-73603255D01*
X182775918Y-73375642D01*
X182676331Y-73162078D01*
X182676330Y-73162077D01*
X182676329Y-73162074D01*
X182541177Y-72969055D01*
X182541168Y-72969045D01*
X182374554Y-72802431D01*
X182374544Y-72802422D01*
X182181525Y-72667270D01*
X182181526Y-72667270D01*
X181967960Y-72567683D01*
X181967956Y-72567681D01*
X181740348Y-72506694D01*
X181505600Y-72486156D01*
X181270851Y-72506694D01*
X181043243Y-72567681D01*
X181043239Y-72567683D01*
X180829674Y-72667270D01*
X180636655Y-72802422D01*
X180636645Y-72802431D01*
X180470031Y-72969045D01*
X180470022Y-72969055D01*
X180350345Y-73139974D01*
X180294888Y-73184303D01*
X180224269Y-73191612D01*
X180160908Y-73159582D01*
X180128407Y-73109899D01*
X180102123Y-73035942D01*
X179975711Y-72791977D01*
X179817257Y-72567498D01*
X179629711Y-72366686D01*
X179416569Y-72193282D01*
X179181800Y-72050516D01*
X179181801Y-72050516D01*
X179181797Y-72050514D01*
X178929780Y-71941048D01*
X178929778Y-71941047D01*
X178929777Y-71941047D01*
X178797486Y-71903981D01*
X178665193Y-71866914D01*
X178392995Y-71829500D01*
X178392985Y-71829500D01*
X178118215Y-71829500D01*
X178118204Y-71829500D01*
X177846006Y-71866914D01*
X177581419Y-71941048D01*
X177329402Y-72050514D01*
X177094628Y-72193284D01*
X176881486Y-72366688D01*
X176693943Y-72567498D01*
X176535492Y-72791971D01*
X176409077Y-73035941D01*
X176317062Y-73294845D01*
X176317060Y-73294853D01*
X176261157Y-73563877D01*
X176261156Y-73563883D01*
X176242407Y-73837995D01*
X176242407Y-73838004D01*
X84716003Y-73838004D01*
X84749988Y-73652320D01*
X84751439Y-73645480D01*
X84849721Y-73238183D01*
X84851515Y-73231546D01*
X84853403Y-73225250D01*
X84971862Y-72830238D01*
X84973958Y-72823872D01*
X85115682Y-72429229D01*
X85118068Y-72423095D01*
X85120077Y-72418304D01*
X85280483Y-72035773D01*
X85283111Y-72029932D01*
X85465503Y-71650669D01*
X85468366Y-71645078D01*
X85670063Y-71274508D01*
X85673157Y-71269145D01*
X85673301Y-71268909D01*
X85893417Y-70908040D01*
X85896692Y-70902951D01*
X86134844Y-70551950D01*
X86138331Y-70547068D01*
X86143220Y-70540554D01*
X86393630Y-70206921D01*
X86397253Y-70202323D01*
X86669027Y-69873679D01*
X86672854Y-69869266D01*
X86960331Y-69552891D01*
X86964347Y-69548671D01*
X86964550Y-69548468D01*
X87266806Y-69245257D01*
X87270949Y-69241286D01*
X87587782Y-68951427D01*
X87592061Y-68947688D01*
X87922459Y-68672163D01*
X87926951Y-68668589D01*
X88270141Y-68408132D01*
X88274777Y-68404779D01*
X88630110Y-68160020D01*
X88634877Y-68156895D01*
X89001672Y-67928502D01*
X89006657Y-67925558D01*
X89383984Y-67714339D01*
X89389214Y-67711570D01*
X89776467Y-67518135D01*
X89781853Y-67515603D01*
X90178368Y-67340607D01*
X90183937Y-67338309D01*
X90588900Y-67182474D01*
X90594680Y-67180411D01*
X91007390Y-67044403D01*
X91013346Y-67042603D01*
X91433126Y-66927084D01*
X91439272Y-66925559D01*
X91865374Y-66831214D01*
X91871720Y-66829980D01*
X92303419Y-66757484D01*
X92309884Y-66756571D01*
X92746461Y-66706593D01*
X92753087Y-66706012D01*
X93193929Y-66679217D01*
X93200707Y-66678989D01*
X93636665Y-66676112D01*
X93637496Y-66676110D01*
X93644290Y-66676110D01*
X105643224Y-66676110D01*
X105651440Y-66676377D01*
G37*
G04 #@! TD.AperFunction*
M02*
