<?xml version="1.0" encoding="UTF-8"?>
<svg xmlns="http://www.w3.org/2000/svg" width="129.413mm" height="133.230mm" viewBox="-133.706696 20.384964 129.413391 133.230087">
    <path transform="matrix(-1,0,0,1,-0.914161,-157.280457)" style="stroke:#c08000;stroke-width:0.05mm;fill:none" d="M14.88,233.552002C14.957137,234.48555,15.42122,235.344101,16.16,235.919998C16.786282,236.427719,17.569784,236.702087,18.375999,236.695999L64.903999,236.695999C66.842644,236.929993,68.605247,235.553558,68.848,233.615997L68.872002,233.264008L68.879997,186.800003C69.247681,184.918182,68.036369,183.090561,66.160004,182.695999C65.915894,182.640808,65.666267,182.613998,65.416,182.615997L18.832001,182.623993C16.940649,182.343491,15.173515,183.633179,14.864,185.520004C14.814292,185.851181,14.808914,186.187393,14.848,186.520004L14.848,233.167999L14.88,233.552002z"/>
    <path transform="matrix(-1,0,0,1,-0.07748,-157.53244)" style="stroke:#c08000;stroke-width:0.05mm;fill:none" d="M68.792,233.863998C68.672859,234.551331,68.336433,235.182159,67.832001,235.664001C68.401657,235.08876,68.755135,234.333923,68.832001,233.528L68.792,233.863998z"/>
    <path transform="matrix(-1,0,0,1,-0.07748,-157.53244)" style="stroke:#c08000;stroke-width:0.05mm;fill:none" d="M15.32,234.927994L15.456,235.143997C15.314461,234.940491,15.198947,234.720154,15.112,234.488007C15.170479,234.639557,15.239991,234.786621,15.32,234.927994z"/>
    <circle transform="matrix(-1,0,0,1,-10.367201,79.209579)" style="stroke:#c08000;stroke-width:0.05mm;fill:none" r="1.6" cx="0" cy="0"/>
    <circle transform="matrix(-1,0,0,1,-128.350403,79.209579)" style="stroke:#c08000;stroke-width:0.05mm;fill:none" r="1.6" cx="0" cy="0"/>
    <circle transform="matrix(-1,0,0,1,-92.022209,25.092968)" style="stroke:#c08000;stroke-width:0.05mm;fill:none" r="1.6" cx="0" cy="0"/>
    <circle transform="matrix(-1,0,0,1,-128.350403,25.092968)" style="stroke:#c08000;stroke-width:0.05mm;fill:none" r="1.6" cx="0" cy="0"/>
    <circle transform="matrix(-1,0,0,1,-10.367201,25.092968)" style="stroke:#c08000;stroke-width:0.05mm;fill:none" r="1.6" cx="0" cy="0"/>
    <circle transform="matrix(-1,0,0,1,-92.022209,79.209579)" style="stroke:#c08000;stroke-width:0.05mm;fill:none" r="1.6" cx="0" cy="0"/>
    <path transform="matrix(-1,0.000001,-0.000001,-1,0.183687,302.02298)" style="stroke:#c08000;stroke-width:0.05mm;fill:none" d="M25.728001,148.423996C26.325016,148.48938,26.905128,148.662857,27.440001,148.936005C27.842922,149.182556,28.248341,149.425262,28.656,149.664001C32.365677,151.565582,36.7752,151.514679,40.439999,149.528C40.965763,149.170914,41.532509,148.878113,42.127998,148.656006C42.546036,148.512085,42.982368,148.428574,43.424,148.408005L47.992001,148.408005C48.678013,148.442932,49.34864,148.622849,49.959999,148.936005C50.362904,149.182541,50.76833,149.425262,51.175999,149.664001C54.885452,151.566986,59.295464,151.516113,62.959999,149.528C63.570358,149.119568,64.231934,148.794174,64.928001,148.559998C65.260117,148.472473,65.600815,148.421494,65.944,148.408005L70.503998,148.408005C71.458344,148.452393,72.377892,148.781189,73.143997,149.352005C74.391953,150.110809,75.774429,150.621429,77.216003,150.856003C80.038994,151.346985,82.945374,150.879456,85.472,149.528C85.997711,149.170822,86.564499,148.878082,87.160004,148.656006C87.578033,148.51207,88.014366,148.428558,88.456001,148.408005L93.024002,148.408005C93.711426,148.433014,94.384361,148.613586,94.991997,148.936005C95.395172,149.182709,95.800125,149.42514,96.208,149.664001C99.917458,151.566986,104.327461,151.516113,107.991997,149.528C108.599709,149.116943,109.261971,148.7939,109.959999,148.567993C110.290649,148.472412,110.631973,148.41864,110.975998,148.408005L123.167999,148.408005C125.443161,148.5186,127.593643,149.481094,129.192001,151.104004C130.697739,152.597244,131.566513,154.615952,131.615997,156.735992C131.639984,157.359756,131.639984,157.984238,131.615997,158.608002C131.512924,159.65683,131.094574,160.649643,130.416,161.455994C128.157639,165.164581,128.286026,169.8526,130.744003,173.432007C131.091614,173.894592,131.349442,174.418381,131.503998,174.975998C131.561325,175.198898,131.598663,175.426498,131.615997,175.656006L131.615997,182.104004C131.567947,183.945282,131.056137,185.74501,130.128006,187.335999C128.490601,190.023804,125.794838,191.894638,122.704002,192.488007C122.376053,192.541565,122.044296,192.568375,121.711998,192.567993L117.632004,192.567993L116.183998,192.559998L114.695999,192.559998L113.167999,192.552002L110.031998,192.552002L108.416,192.544006L106.776001,192.544006L105.120003,192.535995L103.447998,192.535995L100.071999,192.528L96.664001,192.520004L93.255997,192.520004L89.872002,192.511993L88.199997,192.511993L86.543999,192.503998C81.513817,192.494629,76.599785,192.491699,71.568001,192.496002C70.460236,192.562897,69.398209,192.961487,68.519997,193.639999C67.770752,194.208435,67.089043,194.860657,66.487999,195.584C65.508522,196.765869,64.56147,197.974365,63.647999,199.207993C60.947327,202.674561,57.797157,205.765533,54.279999,208.399994C52.773808,209.523285,51.157501,210.490936,49.456001,211.287994L49.703999,211.279999C49.160999,211.513504,48.581947,211.651443,47.992001,211.688004L43.424,211.688004C42.488518,211.635971,41.586975,211.319794,40.824001,210.776001C36.831947,208.340118,31.800957,208.396011,27.864,210.919998C27.142788,211.370697,26.32078,211.634613,25.472,211.688004L13.72,211.688004C10.330049,211.698105,7.222542,209.802673,5.68,206.783997C5.195852,205.78685,4.907957,204.705872,4.832,203.600006L4.832,201.399994C4.870077,200.535522,5.177791,199.704712,5.712,199.024002C8.333197,195.211868,8.282003,190.166168,5.584,186.408005C5.148053,185.748627,4.889138,184.988388,4.832,184.199997L4.832,175.800003C4.872038,174.93837,5.17963,174.110672,5.712,173.432007C8.330832,169.620056,8.282865,164.577454,5.592,160.815994C5.142647,160.162811,4.879865,159.399368,4.832,158.608002L4.832,156.496002C4.890717,155.426834,5.168414,154.381378,5.648,153.423996C7.079857,150.482697,10.004175,148.558731,13.272,148.408005L25.472,148.408005L25.728001,148.423996z"/>
    <path transform="matrix(-1,0.000001,-0.000001,-1,0.222688,302.771851)" style="stroke:#c08000;stroke-width:0.05mm;fill:none" d="M72.328003,172.151993L72.087997,172.192001L73.040001,172.192001C72.805687,172.145416,72.566063,172.131927,72.328003,172.151993z"/>
    <circle transform="matrix(-1,0.000001,0.000001,1,-9.244214,148.51001)" style="stroke:#c08000;stroke-width:0.05mm;fill:none" r="1.6" cx="0" cy="0"/>
    <circle transform="matrix(-1,0.000001,0.000001,1,-9.24425,94.393105)" style="stroke:#c08000;stroke-width:0.05mm;fill:none" r="1.6" cx="0" cy="0"/>
    <circle transform="matrix(-1,0.000001,0.000001,1,-127.227417,148.510086)" style="stroke:#c08000;stroke-width:0.05mm;fill:none" r="1.6" cx="0" cy="0"/>
    <circle transform="matrix(-1,0.000001,0.000001,1,-90.899414,148.510056)" style="stroke:#c08000;stroke-width:0.05mm;fill:none" r="1.6" cx="0" cy="0"/>
    <path transform="matrix(-1,0.000001,-0.000001,-1,0.183687,302.02298)" style="stroke:#c08000;stroke-width:0.05mm;fill:none" d="M36.464001,152.679993C21.753265,152.838837,9.891182,164.768585,9.816,179.479996C9.818661,179.874649,9.826664,180.269531,9.84,180.664001L9.896,180.664001L9.896,181.664001C10.998308,196.217133,23.486124,207.247284,38.063999,206.544006C49.365288,205.999161,59.117695,198.440247,62.464001,187.632004L62.639999,187.632004L62.639999,186.807999C63.952126,182.108521,63.952129,177.139465,62.639999,172.440002L62.639999,172.192001C60.136124,163.40831,53.34063,156.498291,44.599998,153.848007C41.964447,153.041367,39.220066,152.647369,36.464001,152.679993z"/>
    <path transform="matrix(-1,0,0,1,-44.022102,67.110565)" style="stroke:#c08000;stroke-width:0.05mm;fill:none" d="M-39.691601,7.17097L-39.669201,7.02862L-39.643902,6.88655L-39.615299,6.74497L-39.583302,6.6041L-39.547501,6.46415L-39.507702,6.32534L-39.4636,6.18788L-39.415001,6.05199L-39.361599,5.91788L-39.303101,5.78576L-39.239201,5.65586L-39.169701,5.52839L-39.094398,5.40355L-39.012798,5.28155L-38.752701,4.9169L-38.509399,4.54296L-38.073101,3.76968L-37.703899,2.96667L-37.401901,2.13888L-37.167,1.29127L-36.9991,0.428789L-36.898499,-0.443598L-36.864899,-1.32094L-36.898499,-2.19828L-36.999199,-3.07066L-37.167,-3.93313L-37.401901,-4.78073L-37.703999,-5.6085L-38.073101,-6.4115L-38.509399,-7.18475L-38.752701,-7.55868L-39.012798,-7.92332L-39.090401,-8.04679L-39.1637,-8.17252L-39.232899,-8.30038L-39.297901,-8.43023L-39.358501,-8.56195L-39.414902,-8.6954L-39.466801,-8.83047L-39.514301,-8.96702L-39.557301,-9.10493L-39.595798,-9.24406L-39.6297,-9.38429L-39.659,-9.52548L-39.683601,-9.66752L-39.7034,-9.81027L-39.718498,-9.9536L-39.728699,-10.0974L-39.728699,-18.6691L-39.714699,-18.812099L-39.696999,-18.954901L-39.675598,-19.0973L-39.6502,-19.239201L-39.620899,-19.380501L-39.587601,-19.520901L-39.550098,-19.660299L-39.5084,-19.7985L-39.462399,-19.9354L-39.412102,-20.070801L-39.357201,-20.204599L-39.297798,-20.336599L-39.233799,-20.4666L-39.165001,-20.5944L-39.0914,-20.719999L-39.012798,-20.843201L-38.752701,-21.2078L-38.509399,-21.581699L-38.073101,-22.355L-37.703899,-23.158001L-37.401901,-23.9858L-37.167,-24.833401L-36.9991,-25.6959L-36.898499,-26.5683L-36.864899,-27.445601L-36.898499,-28.323L-36.999199,-29.1954L-37.167,-30.0578L-37.401901,-30.905399L-37.703999,-31.7332L-38.073101,-32.536201L-38.509399,-33.309399L-38.752701,-33.683399L-39.012798,-34.048L-39.090401,-34.171501L-39.1637,-34.297199L-39.232899,-34.424999L-39.297901,-34.554901L-39.358501,-34.6866L-39.414902,-34.820099L-39.466801,-34.955101L-39.514301,-35.091702L-39.557301,-35.229599L-39.595798,-35.368698L-39.6297,-35.508999L-39.659,-35.6502L-39.683601,-35.792198L-39.7034,-35.935001L-39.718498,-36.0783L-39.728699,-36.222099L-39.728802,-38.037998L-39.725601,-38.4706L-39.697201,-38.899799L-39.6441,-39.324799L-39.5672,-39.744999L-39.467098,-40.159599L-39.344601,-40.568001L-39.2005,-40.969398L-39.035301,-41.363201L-38.849899,-41.748699L-38.645,-42.125198L-38.4212,-42.492001L-38.179401,-42.8484L-37.9202,-43.193699L-37.644402,-43.527199L-37.3526,-43.848301L-37.0457,-44.1562L-36.7243,-44.450199L-36.389198,-44.729599L-36.041,-44.993801L-35.6805,-45.2421L-35.308498,-45.473701L-34.925598,-45.688L-34.5326,-45.8843L-34.130199,-46.061798L-33.719101,-46.220001L-33.299999,-46.358002L-32.873699,-46.4753L-32.440899,-46.571098L-32.0023,-46.644699L-31.558599,-46.6954L-31.1106,-46.7225L-30.659,-46.725399L-18.659901,-46.725399L-18.5096,-46.7164L-18.3599,-46.7024L-18.210899,-46.683498L-18.0627,-46.659901L-17.915501,-46.631599L-17.7693,-46.598701L-17.624201,-46.561401L-17.4804,-46.519699L-17.3381,-46.473701L-17.197201,-46.4235L-17.058001,-46.369301L-16.9205,-46.3111L-16.7848,-46.248901L-16.651199,-46.182999L-16.5196,-46.1134L-16.390301,-46.0401L-15.6192,-45.557899L-14.812,-45.139999L-13.9737,-44.786301L-13.1095,-44.497002L-12.2246,-44.271999L-11.3242,-44.111198L-10.4135,-44.014801L-9.49761,-43.982601L-8.58171,-44.014801L-7.67098,-44.111198L-6.77061,-44.271999L-5.88576,-44.497002L-5.02161,-44.786301L-4.18332,-45.139999L-3.37608,-45.557899L-2.60506,-46.0401L-2.47617,-46.114399L-2.34492,-46.1847L-2.21145,-46.250999L-2.0759,-46.313202L-1.93839,-46.3713L-1.79907,-46.425301L-1.65806,-46.474998L-1.5155,-46.5205L-1.37153,-46.561699L-1.22628,-46.598499L-1.07989,-46.630901L-0.932479,-46.658901L-0.784195,-46.6824L-0.635168,-46.701302L-0.485533,-46.715698L-0.33542,-46.725399L4.3237,-46.725399L4.47399,-46.7164L4.62369,-46.7024L4.7727,-46.683498L4.92089,-46.659901L5.06815,-46.631599L5.21436,-46.598701L5.35942,-46.561401L5.50319,-46.519699L5.64557,-46.473701L5.78643,-46.4235L5.92567,-46.369301L6.06316,-46.311001L6.19879,-46.248901L6.33244,-46.182999L6.464,-46.1134L6.59335,-46.0401L7.3644,-45.557899L8.17166,-45.139999L9.00997,-44.786301L9.87414,-44.497002L10.759,-44.271999L11.6594,-44.111198L12.5701,-44.014801L13.486,-43.982601L14.4019,-44.014801L15.3126,-44.111198L16.212999,-44.271999L17.0979,-44.497002L17.962,-44.786301L18.800301,-45.139999L19.6075,-45.557899L20.378599,-46.0401L20.5075,-46.114399L20.6387,-46.1847L20.7722,-46.250999L20.9077,-46.313202L21.0452,-46.3713L21.184601,-46.425301L21.3256,-46.474998L21.4681,-46.5205L21.612101,-46.561699L21.757299,-46.598499L21.9037,-46.630901L22.0511,-46.658901L22.1994,-46.6824L22.348499,-46.701302L22.4981,-46.715698L22.648199,-46.725399L27.307301,-46.725399L27.4576,-46.7164L27.6073,-46.7024L27.7563,-46.683498L27.904499,-46.659901L28.0518,-46.631599L28.198,-46.598701L28.343,-46.561401L28.486799,-46.519699L28.6292,-46.473701L28.7701,-46.4235L28.9093,-46.369301L29.046801,-46.311001L29.1824,-46.248901L29.316099,-46.182999L29.447599,-46.1134L29.577,-46.0401L30.348,-45.557899L31.1553,-45.139999L31.993601,-44.786301L32.8578,-44.497002L33.742599,-44.271999L34.643002,-44.111198L35.553699,-44.014801L36.469601,-43.982601L37.385502,-44.014801L38.296299,-44.111198L39.196602,-44.271999L40.081501,-44.497002L40.945599,-44.786301L41.783901,-45.139999L42.591202,-45.557899L43.362202,-46.0401L43.4911,-46.114399L43.622299,-46.1847L43.755798,-46.250999L43.8913,-46.313202L44.0289,-46.3713L44.168201,-46.425301L44.3092,-46.474998L44.451698,-46.5205L44.595699,-46.561699L44.741001,-46.598499L44.887402,-46.630901L45.034801,-46.658901L45.183102,-46.6824L45.3321,-46.701302L45.481701,-46.715698L45.631802,-46.725399L50.290901,-46.725399L50.4412,-46.7164L50.5909,-46.7024L50.739899,-46.683498L50.8881,-46.659901L51.0354,-46.631599L51.181599,-46.598701L51.326698,-46.561401L51.470402,-46.519699L51.612801,-46.473701L51.7537,-46.4235L51.892899,-46.369301L52.030399,-46.311001L52.166,-46.248901L52.299702,-46.182999L52.431198,-46.1134L52.5606,-46.0401L53.3316,-45.558102L54.138901,-45.140099L54.9772,-44.786499L55.8414,-44.497101L56.7262,-44.272099L57.626598,-44.111401L58.5373,-44.0149L59.453201,-43.9828L60.369099,-44.0149L61.2799,-44.111401L62.180199,-44.272099L63.065102,-44.4972L63.929298,-44.786499L64.767502,-45.140099L65.574799,-45.558102L66.345802,-46.040298L66.474701,-46.114601L66.605904,-46.184898L66.739403,-46.251099L66.875,-46.3134L67.012497,-46.371498L67.151802,-46.4254L67.292801,-46.475101L67.435402,-46.520599L67.5793,-46.561798L67.724602,-46.598598L67.871002,-46.6311L68.018402,-46.659L68.166702,-46.682499L68.315697,-46.7015L68.465302,-46.715801L68.615402,-46.725601L80.614502,-46.725601L81.066299,-46.722698L81.514297,-46.695499L81.958,-46.644798L82.396698,-46.571201L82.829498,-46.475399L83.255798,-46.358101L83.674896,-46.220001L84.086098,-46.061798L84.488503,-45.884201L84.8815,-45.687901L85.264397,-45.473598L85.636398,-45.242001L85.996902,-44.993698L86.345001,-44.7295L86.680199,-44.450001L87.001602,-44.155998L87.308502,-43.848099L87.600197,-43.527L87.875999,-43.193501L88.135201,-42.848202L88.376999,-42.491798L88.6007,-42.125L88.805603,-41.7486L88.990997,-41.363098L89.156097,-40.969299L89.300301,-40.567799L89.422699,-40.1595L89.522797,-39.7449L89.599701,-39.324799L89.652702,-38.899799L89.681099,-38.470699L89.684303,-38.038101L89.684303,-36.222301L89.673302,-36.078701L89.657799,-35.935398L89.637802,-35.792702L89.613197,-35.6506L89.584198,-35.509201L89.550697,-35.3689L89.512703,-35.229599L89.4702,-35.091499L89.423203,-34.9548L89.371696,-34.819599L89.315697,-34.6861L89.255203,-34.554298L89.190201,-34.4245L89.120796,-34.296799L89.046799,-34.171299L88.968399,-34.048199L88.708298,-33.683498L88.464996,-33.309601L88.028702,-32.536301L87.6595,-31.733299L87.357498,-30.9055L87.122498,-30.057899L86.954697,-29.1954L86.853996,-28.323L86.820503,-27.4457L86.853996,-26.568399L86.954697,-25.695999L87.122498,-24.8335L87.357498,-23.985901L87.6595,-23.1581L88.028702,-22.355101L88.464996,-21.5819L88.708298,-21.208L88.968399,-20.8433L89.045898,-20.719801L89.119301,-20.594101L89.188499,-20.466299L89.253502,-20.336399L89.314102,-20.2047L89.370499,-20.071199L89.422401,-19.936199L89.469902,-19.799601L89.513,-19.661699L89.551399,-19.5226L89.585297,-19.382299L89.614601,-19.2411L89.639198,-19.0991L89.658997,-18.9564L89.674103,-18.813L89.684303,-18.669201L89.684402,-10.0976L89.684601,-9.9518L89.676697,-9.80722L89.661003,-9.66384L89.6381,-9.5217L89.608299,-9.38084L89.572304,-9.24126L89.530403,-9.10302L89.483101,-8.96614L89.430901,-8.83064L89.374298,-8.69656L89.313797,-8.56392L89.249802,-8.43276L89.182701,-8.30311L89.113197,-8.17499L88.968399,-7.92347L88.708298,-7.55882L88.464996,-7.18488L88.028702,-6.4116L87.6595,-5.60859L87.357498,-4.7808L87.122498,-3.93319L86.954697,-3.07071L86.854103,-2.19833L86.820503,-1.32098L86.854103,-0.443646L86.954697,0.428736L87.122597,1.29121L87.357498,2.1388L87.6595,2.96658L88.028702,3.76957L88.464996,4.54282L88.708298,4.91675L88.968399,5.28138L89.045998,5.40486L89.119301,5.53059L89.188499,5.65845L89.253502,5.7883L89.314201,5.92002L89.370499,6.05348L89.422401,6.18855L89.469902,6.3251L89.513,6.463L89.551498,6.60214L89.585403,6.74237L89.614601,6.88356L89.639198,7.0256L89.659103,7.16835L89.674103,7.31168L89.684402,7.45547L89.684303,9.1764L89.681198,9.60906L89.652702,10.0382L89.599701,10.4633L89.522797,10.8834L89.422699,11.2981L89.300201,11.7064L89.156097,12.1079L88.990898,12.5017L88.805496,12.8872L88.600601,13.2637L88.376801,13.6305L88.135002,13.9869L87.875801,14.3322L87.599998,14.6657L87.308197,14.9867L87.001297,15.2946L86.679901,15.5886L86.344704,15.8681L85.996597,16.132299L85.636101,16.380501L85.264099,16.6122L84.881203,16.8265L84.488197,17.0228L84.085701,17.2003L83.674599,17.3585L83.2556,17.496599L82.8293,17.613899L82.3965,17.7097L81.957901,17.7833L81.514198,17.834101L81.0662,17.8613L80.614502,17.864401L68.615402,17.864401L68.464203,17.858999L68.314102,17.847L68.165199,17.8286L68.017502,17.8043L67.871002,17.774401L67.7257,17.739201L67.581703,17.6991L67.439003,17.6546L67.2976,17.605801L67.157501,17.553301L67.0187,17.497299L66.881302,17.438299L66.610703,17.312401L66.345802,17.1786L65.569099,16.718599L64.757698,16.3169L63.916599,15.9742L63.0508,15.6912L62.165298,15.4685L61.265099,15.3067L60.355301,15.2064L59.4408,15.1683L58.526699,15.193L57.618099,15.2812L56.719799,15.4335L55.837002,15.6505L54.974701,15.9329L54.137798,16.2813L53.331402,16.696301L52.5606,17.1786L52.431702,17.252899L52.3004,17.3232L52.166901,17.3894L52.031399,17.4517L51.893902,17.5098L51.754601,17.5637L51.613499,17.613501L51.471001,17.659L51.327,17.700199L51.181801,17.737101L51.0354,17.769501L50.888,17.7976L50.7397,17.8211L50.590698,17.840099L50.441101,17.854601L50.290901,17.864401L45.631802,17.864401L45.480598,17.858999L45.330502,17.847L45.181599,17.8286L45.033901,17.8043L44.887402,17.774401L44.7421,17.739201L44.598099,17.6991L44.455399,17.6546L44.3139,17.605801L44.173801,17.553301L44.035099,17.497299L43.897701,17.438299L43.627102,17.312401L43.362202,17.1786L42.585499,16.718599L41.774101,16.3169L40.932999,15.9742L40.067101,15.6912L39.181599,15.4685L38.281502,15.3066L37.371601,15.2064L36.457199,15.1683L35.543098,15.193L34.634399,15.2812L33.736198,15.4335L32.853401,15.6505L31.9911,15.9329L31.1542,16.2813L30.347799,16.696301L29.577,17.1786L29.448099,17.252899L29.316799,17.3232L29.1833,17.3894L29.0478,17.4517L28.910299,17.5098L28.770901,17.5637L28.6299,17.613501L28.4874,17.659L28.343399,17.700199L28.1982,17.737101L28.0518,17.769501L27.9044,17.7976L27.7561,17.8211L27.6071,17.840099L27.457399,17.854601L27.307301,17.864401L22.648199,17.864401L22.497,17.858999L22.346901,17.847L22.198,17.8286L22.050301,17.8043L21.903799,17.774401L21.758499,17.739201L21.6145,17.6991L21.471701,17.6546L21.330299,17.605801L21.190201,17.553301L21.051399,17.497299L20.914,17.438299L20.6434,17.312401L20.378599,17.1786L19.6019,16.718599L18.790501,16.3169L17.949301,15.9742L17.0835,15.6912L16.198,15.4685L15.2978,15.3067L14.388,15.2064L13.4735,15.1683L12.5595,15.193L11.6508,15.2812L10.7526,15.4335L9.86977,15.6505L9.00743,15.9329L8.17056,16.2813L7.3642,16.696301L6.59335,17.1786L6.46444,17.252899L6.33318,17.3232L6.19971,17.3894L6.06415,17.4517L5.92664,17.5098L5.78732,17.5637L5.64631,17.613501L5.50376,17.659L5.35979,17.700199L5.21454,17.737101L5.06815,17.769501L4.92075,17.7976L4.77247,17.8211L4.62344,17.840099L4.47381,17.854601L4.3237,17.864401L-0.335424,17.864401L-0.486651,17.858999L-0.63673,17.847L-0.78564,17.8286L-0.933358,17.8043L-1.07986,17.774401L-1.22513,17.739201L-1.36914,17.6991L-1.51187,17.6546L-1.65331,17.605801L-1.79341,17.553301L-1.93218,17.497299L-2.06958,17.438299L-2.34018,17.312401L-2.60506,17.1786L-3.38173,16.718599L-4.19314,16.3169L-5.03427,15.9742L-5.9001,15.6912L-6.78561,15.4685L-7.68579,15.3067L-8.59562,15.2064L-9.51008,15.1683L-10.4241,15.193L-11.3328,15.2812L-12.2311,15.4335L-13.1139,15.6505L-13.9762,15.9329L-14.8131,16.2813L-15.6194,16.696301L-16.390301,17.1786L-16.519199,17.252899L-16.6504,17.3232L-16.783899,17.3894L-16.9195,17.4517L-17.056999,17.5098L-17.196301,17.5637L-17.337299,17.613501L-17.4799,17.659L-17.6238,17.700199L-17.7691,17.737101L-17.915501,17.769501L-18.062901,17.7976L-18.211201,17.8211L-18.360201,17.840099L-18.5098,17.854601L-18.659901,17.864401L-30.659,17.864401L-31.110701,17.8615L-31.558701,17.8342L-32.002399,17.783501L-32.441101,17.709801L-32.873901,17.614L-33.300301,17.496599L-33.719398,17.3585L-34.130501,17.2003L-34.532902,17.022699L-34.925999,16.826401L-35.3088,16.612101L-35.680901,16.3804L-36.041302,16.132099L-36.3895,15.8679L-36.724602,15.5884L-37.046001,15.2944L-37.352901,14.9865L-37.644699,14.6654L-37.920502,14.3319L-38.1796,13.9866L-38.421398,13.6302L-38.645199,13.2635L-38.850101,12.887L-39.0355,12.5015L-39.2006,12.1077L-39.344799,11.7062L-39.467201,11.2979L-39.567299,10.8833L-39.644199,10.4632L-39.697201,10.0382L-39.725601,9.60905L-39.728802,9.17645L-39.728699,7.45565L-39.691601,7.17097z"/>
</svg>
