G04 #@! TF.GenerationSoftware,KiCad,Pcbnew,5.99.0-unknown-51b9944~86~ubuntu18.04.1*
G04 #@! TF.CreationDate,2020-03-12T08:57:13+09:00*
G04 #@! TF.ProjectId,bGeigieRaku V2,62476569-6769-4655-9261-6b752056322e,rev?*
G04 #@! TF.SameCoordinates,Original*
G04 #@! TF.FileFunction,Legend,Bot*
G04 #@! TF.FilePolarity,Positive*
%FSLAX46Y46*%
G04 Gerber Fmt 4.6, Leading zero omitted, Abs format (unit mm)*
G04 Created by KiCad (PCBNEW 5.99.0-unknown-51b9944~86~ubuntu18.04.1) date 2020-03-12 08:57:13*
%MOMM*%
%LPD*%
G01*
G04 APERTURE LIST*
%ADD10C,0.100000*%
%ADD11C,0.200000*%
%ADD12C,0.150000*%
%ADD13C,0.120000*%
%ADD14C,0.203200*%
%ADD15C,0.300000*%
%ADD16C,0.050000*%
G04 APERTURE END LIST*
D10*
X208235361Y-89468666D02*
X208282980Y-89611523D01*
X208282980Y-89849619D01*
X208235361Y-89944857D01*
X208187742Y-89992476D01*
X208092504Y-90040095D01*
X207997266Y-90040095D01*
X207902028Y-89992476D01*
X207854409Y-89944857D01*
X207806790Y-89849619D01*
X207759171Y-89659142D01*
X207711552Y-89563904D01*
X207663933Y-89516285D01*
X207568695Y-89468666D01*
X207473457Y-89468666D01*
X207378219Y-89516285D01*
X207330600Y-89563904D01*
X207282980Y-89659142D01*
X207282980Y-89897238D01*
X207330600Y-90040095D01*
X208282980Y-90897238D02*
X207759171Y-90897238D01*
X207663933Y-90849619D01*
X207616314Y-90754380D01*
X207616314Y-90563904D01*
X207663933Y-90468666D01*
X208235361Y-90897238D02*
X208282980Y-90802000D01*
X208282980Y-90563904D01*
X208235361Y-90468666D01*
X208140123Y-90421047D01*
X208044885Y-90421047D01*
X207949647Y-90468666D01*
X207902028Y-90563904D01*
X207902028Y-90802000D01*
X207854409Y-90897238D01*
X207616314Y-91230571D02*
X207616314Y-91611523D01*
X208282980Y-91373428D02*
X207425838Y-91373428D01*
X207330600Y-91421047D01*
X207282980Y-91516285D01*
X207282980Y-91611523D01*
X208235361Y-92325809D02*
X208282980Y-92230571D01*
X208282980Y-92040095D01*
X208235361Y-91944857D01*
X208140123Y-91897238D01*
X207759171Y-91897238D01*
X207663933Y-91944857D01*
X207616314Y-92040095D01*
X207616314Y-92230571D01*
X207663933Y-92325809D01*
X207759171Y-92373428D01*
X207854409Y-92373428D01*
X207949647Y-91897238D01*
X208235361Y-93230571D02*
X208282980Y-93135333D01*
X208282980Y-92944857D01*
X208235361Y-92849619D01*
X208187742Y-92802000D01*
X208092504Y-92754380D01*
X207806790Y-92754380D01*
X207711552Y-92802000D01*
X207663933Y-92849619D01*
X207616314Y-92944857D01*
X207616314Y-93135333D01*
X207663933Y-93230571D01*
X208282980Y-94087714D02*
X207759171Y-94087714D01*
X207663933Y-94040095D01*
X207616314Y-93944857D01*
X207616314Y-93754380D01*
X207663933Y-93659142D01*
X208235361Y-94087714D02*
X208282980Y-93992476D01*
X208282980Y-93754380D01*
X208235361Y-93659142D01*
X208140123Y-93611523D01*
X208044885Y-93611523D01*
X207949647Y-93659142D01*
X207902028Y-93754380D01*
X207902028Y-93992476D01*
X207854409Y-94087714D01*
X208235361Y-94516285D02*
X208282980Y-94611523D01*
X208282980Y-94802000D01*
X208235361Y-94897238D01*
X208140123Y-94944857D01*
X208092504Y-94944857D01*
X207997266Y-94897238D01*
X207949647Y-94802000D01*
X207949647Y-94659142D01*
X207902028Y-94563904D01*
X207806790Y-94516285D01*
X207759171Y-94516285D01*
X207663933Y-94563904D01*
X207616314Y-94659142D01*
X207616314Y-94802000D01*
X207663933Y-94897238D01*
X207616314Y-95230571D02*
X207616314Y-95611523D01*
X207282980Y-95373428D02*
X208140123Y-95373428D01*
X208235361Y-95421047D01*
X208282980Y-95516285D01*
X208282980Y-95611523D01*
X208282980Y-96706761D02*
X207282980Y-96706761D01*
X207997266Y-97040095D01*
X207282980Y-97373428D01*
X208282980Y-97373428D01*
X207282980Y-98325809D02*
X207282980Y-97849619D01*
X207759171Y-97802000D01*
X207711552Y-97849619D01*
X207663933Y-97944857D01*
X207663933Y-98182952D01*
X207711552Y-98278190D01*
X207759171Y-98325809D01*
X207854409Y-98373428D01*
X208092504Y-98373428D01*
X208187742Y-98325809D01*
X208235361Y-98278190D01*
X208282980Y-98182952D01*
X208282980Y-97944857D01*
X208235361Y-97849619D01*
X208187742Y-97802000D01*
X208282980Y-99563904D02*
X207282980Y-99563904D01*
X207663933Y-99563904D02*
X207616314Y-99659142D01*
X207616314Y-99849619D01*
X207663933Y-99944857D01*
X207711552Y-99992476D01*
X207806790Y-100040095D01*
X208092504Y-100040095D01*
X208187742Y-99992476D01*
X208235361Y-99944857D01*
X208282980Y-99849619D01*
X208282980Y-99659142D01*
X208235361Y-99563904D01*
X208282980Y-100897238D02*
X207759171Y-100897238D01*
X207663933Y-100849619D01*
X207616314Y-100754380D01*
X207616314Y-100563904D01*
X207663933Y-100468666D01*
X208235361Y-100897238D02*
X208282980Y-100802000D01*
X208282980Y-100563904D01*
X208235361Y-100468666D01*
X208140123Y-100421047D01*
X208044885Y-100421047D01*
X207949647Y-100468666D01*
X207902028Y-100563904D01*
X207902028Y-100802000D01*
X207854409Y-100897238D01*
X208235361Y-101325809D02*
X208282980Y-101421047D01*
X208282980Y-101611523D01*
X208235361Y-101706761D01*
X208140123Y-101754380D01*
X208092504Y-101754380D01*
X207997266Y-101706761D01*
X207949647Y-101611523D01*
X207949647Y-101468666D01*
X207902028Y-101373428D01*
X207806790Y-101325809D01*
X207759171Y-101325809D01*
X207663933Y-101373428D01*
X207616314Y-101468666D01*
X207616314Y-101611523D01*
X207663933Y-101706761D01*
X208235361Y-102563904D02*
X208282980Y-102468666D01*
X208282980Y-102278190D01*
X208235361Y-102182952D01*
X208140123Y-102135333D01*
X207759171Y-102135333D01*
X207663933Y-102182952D01*
X207616314Y-102278190D01*
X207616314Y-102468666D01*
X207663933Y-102563904D01*
X207759171Y-102611523D01*
X207854409Y-102611523D01*
X207949647Y-102135333D01*
X208282980Y-103468666D02*
X207282980Y-103468666D01*
X208235361Y-103468666D02*
X208282980Y-103373428D01*
X208282980Y-103182952D01*
X208235361Y-103087714D01*
X208187742Y-103040095D01*
X208092504Y-102992476D01*
X207806790Y-102992476D01*
X207711552Y-103040095D01*
X207663933Y-103087714D01*
X207616314Y-103182952D01*
X207616314Y-103373428D01*
X207663933Y-103468666D01*
X208282980Y-104706761D02*
X207282980Y-104706761D01*
X207663933Y-104706761D02*
X207616314Y-104802000D01*
X207616314Y-104992476D01*
X207663933Y-105087714D01*
X207711552Y-105135333D01*
X207806790Y-105182952D01*
X208092504Y-105182952D01*
X208187742Y-105135333D01*
X208235361Y-105087714D01*
X208282980Y-104992476D01*
X208282980Y-104802000D01*
X208235361Y-104706761D01*
X207330600Y-106135333D02*
X207282980Y-106040095D01*
X207282980Y-105897238D01*
X207330600Y-105754380D01*
X207425838Y-105659142D01*
X207521076Y-105611523D01*
X207711552Y-105563904D01*
X207854409Y-105563904D01*
X208044885Y-105611523D01*
X208140123Y-105659142D01*
X208235361Y-105754380D01*
X208282980Y-105897238D01*
X208282980Y-105992476D01*
X208235361Y-106135333D01*
X208187742Y-106182952D01*
X207854409Y-106182952D01*
X207854409Y-105992476D01*
X208235361Y-106992476D02*
X208282980Y-106897238D01*
X208282980Y-106706761D01*
X208235361Y-106611523D01*
X208140123Y-106563904D01*
X207759171Y-106563904D01*
X207663933Y-106611523D01*
X207616314Y-106706761D01*
X207616314Y-106897238D01*
X207663933Y-106992476D01*
X207759171Y-107040095D01*
X207854409Y-107040095D01*
X207949647Y-106563904D01*
X208282980Y-107468666D02*
X207616314Y-107468666D01*
X207282980Y-107468666D02*
X207330600Y-107421047D01*
X207378219Y-107468666D01*
X207330600Y-107516285D01*
X207282980Y-107468666D01*
X207378219Y-107468666D01*
X207616314Y-108373428D02*
X208425838Y-108373428D01*
X208521076Y-108325809D01*
X208568695Y-108278190D01*
X208616314Y-108182952D01*
X208616314Y-108040095D01*
X208568695Y-107944857D01*
X208235361Y-108373428D02*
X208282980Y-108278190D01*
X208282980Y-108087714D01*
X208235361Y-107992476D01*
X208187742Y-107944857D01*
X208092504Y-107897238D01*
X207806790Y-107897238D01*
X207711552Y-107944857D01*
X207663933Y-107992476D01*
X207616314Y-108087714D01*
X207616314Y-108278190D01*
X207663933Y-108373428D01*
X208282980Y-108849619D02*
X207616314Y-108849619D01*
X207282980Y-108849619D02*
X207330600Y-108802000D01*
X207378219Y-108849619D01*
X207330600Y-108897238D01*
X207282980Y-108849619D01*
X207378219Y-108849619D01*
X208235361Y-109706761D02*
X208282980Y-109611523D01*
X208282980Y-109421047D01*
X208235361Y-109325809D01*
X208140123Y-109278190D01*
X207759171Y-109278190D01*
X207663933Y-109325809D01*
X207616314Y-109421047D01*
X207616314Y-109611523D01*
X207663933Y-109706761D01*
X207759171Y-109754380D01*
X207854409Y-109754380D01*
X207949647Y-109278190D01*
X208282980Y-110754380D02*
X207806790Y-110421047D01*
X208282980Y-110182952D02*
X207282980Y-110182952D01*
X207282980Y-110563904D01*
X207330600Y-110659142D01*
X207378219Y-110706761D01*
X207473457Y-110754380D01*
X207616314Y-110754380D01*
X207711552Y-110706761D01*
X207759171Y-110659142D01*
X207806790Y-110563904D01*
X207806790Y-110182952D01*
X208282980Y-111611523D02*
X207759171Y-111611523D01*
X207663933Y-111563904D01*
X207616314Y-111468666D01*
X207616314Y-111278190D01*
X207663933Y-111182952D01*
X208235361Y-111611523D02*
X208282980Y-111516285D01*
X208282980Y-111278190D01*
X208235361Y-111182952D01*
X208140123Y-111135333D01*
X208044885Y-111135333D01*
X207949647Y-111182952D01*
X207902028Y-111278190D01*
X207902028Y-111516285D01*
X207854409Y-111611523D01*
X208282980Y-112087714D02*
X207282980Y-112087714D01*
X207902028Y-112182952D02*
X208282980Y-112468666D01*
X207616314Y-112468666D02*
X207997266Y-112087714D01*
X207616314Y-113325809D02*
X208282980Y-113325809D01*
X207616314Y-112897238D02*
X208140123Y-112897238D01*
X208235361Y-112944857D01*
X208282980Y-113040095D01*
X208282980Y-113182952D01*
X208235361Y-113278190D01*
X208187742Y-113325809D01*
X209226314Y-93325809D02*
X210226314Y-93325809D01*
X209273933Y-93325809D02*
X209226314Y-93421047D01*
X209226314Y-93611523D01*
X209273933Y-93706761D01*
X209321552Y-93754380D01*
X209416790Y-93802000D01*
X209702504Y-93802000D01*
X209797742Y-93754380D01*
X209845361Y-93706761D01*
X209892980Y-93611523D01*
X209892980Y-93421047D01*
X209845361Y-93325809D01*
X209892980Y-94230571D02*
X209226314Y-94230571D01*
X209416790Y-94230571D02*
X209321552Y-94278190D01*
X209273933Y-94325809D01*
X209226314Y-94421047D01*
X209226314Y-94516285D01*
X209892980Y-94992476D02*
X209845361Y-94897238D01*
X209797742Y-94849619D01*
X209702504Y-94802000D01*
X209416790Y-94802000D01*
X209321552Y-94849619D01*
X209273933Y-94897238D01*
X209226314Y-94992476D01*
X209226314Y-95135333D01*
X209273933Y-95230571D01*
X209321552Y-95278190D01*
X209416790Y-95325809D01*
X209702504Y-95325809D01*
X209797742Y-95278190D01*
X209845361Y-95230571D01*
X209892980Y-95135333D01*
X209892980Y-94992476D01*
X209226314Y-95611523D02*
X209226314Y-95992476D01*
X208892980Y-95754380D02*
X209750123Y-95754380D01*
X209845361Y-95802000D01*
X209892980Y-95897238D01*
X209892980Y-95992476D01*
X209892980Y-96468666D02*
X209845361Y-96373428D01*
X209797742Y-96325809D01*
X209702504Y-96278190D01*
X209416790Y-96278190D01*
X209321552Y-96325809D01*
X209273933Y-96373428D01*
X209226314Y-96468666D01*
X209226314Y-96611523D01*
X209273933Y-96706761D01*
X209321552Y-96754380D01*
X209416790Y-96802000D01*
X209702504Y-96802000D01*
X209797742Y-96754380D01*
X209845361Y-96706761D01*
X209892980Y-96611523D01*
X209892980Y-96468666D01*
X209226314Y-97087714D02*
X209226314Y-97468666D01*
X208892980Y-97230571D02*
X209750123Y-97230571D01*
X209845361Y-97278190D01*
X209892980Y-97373428D01*
X209892980Y-97468666D01*
X209226314Y-97706761D02*
X209892980Y-97944857D01*
X209226314Y-98182952D02*
X209892980Y-97944857D01*
X210131076Y-97849619D01*
X210178695Y-97802000D01*
X210226314Y-97706761D01*
X209226314Y-98563904D02*
X210226314Y-98563904D01*
X209273933Y-98563904D02*
X209226314Y-98659142D01*
X209226314Y-98849619D01*
X209273933Y-98944857D01*
X209321552Y-98992476D01*
X209416790Y-99040095D01*
X209702504Y-99040095D01*
X209797742Y-98992476D01*
X209845361Y-98944857D01*
X209892980Y-98849619D01*
X209892980Y-98659142D01*
X209845361Y-98563904D01*
X209845361Y-99849619D02*
X209892980Y-99754380D01*
X209892980Y-99563904D01*
X209845361Y-99468666D01*
X209750123Y-99421047D01*
X209369171Y-99421047D01*
X209273933Y-99468666D01*
X209226314Y-99563904D01*
X209226314Y-99754380D01*
X209273933Y-99849619D01*
X209369171Y-99897238D01*
X209464409Y-99897238D01*
X209559647Y-99421047D01*
X209892980Y-101087714D02*
X208892980Y-101087714D01*
X209273933Y-101087714D02*
X209226314Y-101182952D01*
X209226314Y-101373428D01*
X209273933Y-101468666D01*
X209321552Y-101516285D01*
X209416790Y-101563904D01*
X209702504Y-101563904D01*
X209797742Y-101516285D01*
X209845361Y-101468666D01*
X209892980Y-101373428D01*
X209892980Y-101182952D01*
X209845361Y-101087714D01*
X209892980Y-102135333D02*
X209845361Y-102040095D01*
X209797742Y-101992476D01*
X209702504Y-101944857D01*
X209416790Y-101944857D01*
X209321552Y-101992476D01*
X209273933Y-102040095D01*
X209226314Y-102135333D01*
X209226314Y-102278190D01*
X209273933Y-102373428D01*
X209321552Y-102421047D01*
X209416790Y-102468666D01*
X209702504Y-102468666D01*
X209797742Y-102421047D01*
X209845361Y-102373428D01*
X209892980Y-102278190D01*
X209892980Y-102135333D01*
X209892980Y-103325809D02*
X209369171Y-103325809D01*
X209273933Y-103278190D01*
X209226314Y-103182952D01*
X209226314Y-102992476D01*
X209273933Y-102897238D01*
X209845361Y-103325809D02*
X209892980Y-103230571D01*
X209892980Y-102992476D01*
X209845361Y-102897238D01*
X209750123Y-102849619D01*
X209654885Y-102849619D01*
X209559647Y-102897238D01*
X209512028Y-102992476D01*
X209512028Y-103230571D01*
X209464409Y-103325809D01*
X209892980Y-103802000D02*
X209226314Y-103802000D01*
X209416790Y-103802000D02*
X209321552Y-103849619D01*
X209273933Y-103897238D01*
X209226314Y-103992476D01*
X209226314Y-104087714D01*
X209892980Y-104849619D02*
X208892980Y-104849619D01*
X209845361Y-104849619D02*
X209892980Y-104754380D01*
X209892980Y-104563904D01*
X209845361Y-104468666D01*
X209797742Y-104421047D01*
X209702504Y-104373428D01*
X209416790Y-104373428D01*
X209321552Y-104421047D01*
X209273933Y-104468666D01*
X209226314Y-104563904D01*
X209226314Y-104754380D01*
X209273933Y-104849619D01*
X208892980Y-105944857D02*
X209892980Y-106278190D01*
X208892980Y-106611523D01*
X209892980Y-107468666D02*
X209892980Y-106897238D01*
X209892980Y-107182952D02*
X208892980Y-107182952D01*
X209035838Y-107087714D01*
X209131076Y-106992476D01*
X209178695Y-106897238D01*
X209797742Y-107897238D02*
X209845361Y-107944857D01*
X209892980Y-107897238D01*
X209845361Y-107849619D01*
X209797742Y-107897238D01*
X209892980Y-107897238D01*
X209892980Y-108897238D02*
X209892980Y-108325809D01*
X209892980Y-108611523D02*
X208892980Y-108611523D01*
X209035838Y-108516285D01*
X209131076Y-108421047D01*
X209178695Y-108325809D01*
X209797742Y-109325809D02*
X209845361Y-109373428D01*
X209892980Y-109325809D01*
X209845361Y-109278190D01*
X209797742Y-109325809D01*
X209892980Y-109325809D01*
X208892980Y-109992476D02*
X208892980Y-110087714D01*
X208940600Y-110182952D01*
X208988219Y-110230571D01*
X209083457Y-110278190D01*
X209273933Y-110325809D01*
X209512028Y-110325809D01*
X209702504Y-110278190D01*
X209797742Y-110230571D01*
X209845361Y-110182952D01*
X209892980Y-110087714D01*
X209892980Y-109992476D01*
X209845361Y-109897238D01*
X209797742Y-109849619D01*
X209702504Y-109802000D01*
X209512028Y-109754380D01*
X209273933Y-109754380D01*
X209083457Y-109802000D01*
X208988219Y-109849619D01*
X208940600Y-109897238D01*
X208892980Y-109992476D01*
D11*
X166471600Y-94182000D02*
X166471600Y-99516000D01*
X166471600Y-99516000D02*
X179171600Y-99516000D01*
X179171600Y-99516000D02*
X179171600Y-94182000D01*
X179171600Y-94182000D02*
X166471600Y-94182000D01*
D12*
X167076885Y-94777428D02*
X167076885Y-95206000D01*
X167826885Y-94991714D02*
X167076885Y-94991714D01*
X167076885Y-95384571D02*
X167826885Y-95884571D01*
X167076885Y-95884571D02*
X167826885Y-95384571D01*
X167826885Y-96563142D02*
X167826885Y-96134571D01*
X167826885Y-96348857D02*
X167076885Y-96348857D01*
X167184028Y-96277428D01*
X167255457Y-96206000D01*
X167291171Y-96134571D01*
X170366885Y-95223857D02*
X170009742Y-94973857D01*
X170366885Y-94795285D02*
X169616885Y-94795285D01*
X169616885Y-95081000D01*
X169652600Y-95152428D01*
X169688314Y-95188142D01*
X169759742Y-95223857D01*
X169866885Y-95223857D01*
X169938314Y-95188142D01*
X169974028Y-95152428D01*
X170009742Y-95081000D01*
X170009742Y-94795285D01*
X169616885Y-95473857D02*
X170366885Y-95973857D01*
X169616885Y-95973857D02*
X170366885Y-95473857D01*
X170366885Y-96652428D02*
X170366885Y-96223857D01*
X170366885Y-96438142D02*
X169616885Y-96438142D01*
X169724028Y-96366714D01*
X169795457Y-96295285D01*
X169831171Y-96223857D01*
X172871171Y-94795284D02*
X172906885Y-94902427D01*
X172906885Y-95080999D01*
X172871171Y-95152427D01*
X172835457Y-95188141D01*
X172764028Y-95223856D01*
X172692600Y-95223856D01*
X172621171Y-95188141D01*
X172585457Y-95152427D01*
X172549742Y-95080999D01*
X172514028Y-94938141D01*
X172478314Y-94866713D01*
X172442600Y-94830999D01*
X172371171Y-94795284D01*
X172299742Y-94795284D01*
X172228314Y-94830999D01*
X172192600Y-94866713D01*
X172156885Y-94938141D01*
X172156885Y-95116713D01*
X172192600Y-95223856D01*
X172906885Y-95545284D02*
X172156885Y-95545284D01*
X172156885Y-95723856D01*
X172192600Y-95830999D01*
X172264028Y-95902427D01*
X172335457Y-95938141D01*
X172478314Y-95973856D01*
X172585457Y-95973856D01*
X172728314Y-95938141D01*
X172799742Y-95902427D01*
X172871171Y-95830999D01*
X172906885Y-95723856D01*
X172906885Y-95545284D01*
X172692600Y-96259570D02*
X172692600Y-96616713D01*
X172906885Y-96188141D02*
X172156885Y-96438141D01*
X172906885Y-96688141D01*
X175411171Y-94813141D02*
X175446885Y-94920284D01*
X175446885Y-95098856D01*
X175411171Y-95170284D01*
X175375457Y-95205999D01*
X175304028Y-95241713D01*
X175232600Y-95241713D01*
X175161171Y-95205999D01*
X175125457Y-95170284D01*
X175089742Y-95098856D01*
X175054028Y-94955999D01*
X175018314Y-94884570D01*
X174982600Y-94848856D01*
X174911171Y-94813141D01*
X174839742Y-94813141D01*
X174768314Y-94848856D01*
X174732600Y-94884570D01*
X174696885Y-94955999D01*
X174696885Y-95134570D01*
X174732600Y-95241713D01*
X175375457Y-95991713D02*
X175411171Y-95955999D01*
X175446885Y-95848856D01*
X175446885Y-95777427D01*
X175411171Y-95670284D01*
X175339742Y-95598856D01*
X175268314Y-95563141D01*
X175125457Y-95527427D01*
X175018314Y-95527427D01*
X174875457Y-95563141D01*
X174804028Y-95598856D01*
X174732600Y-95670284D01*
X174696885Y-95777427D01*
X174696885Y-95848856D01*
X174732600Y-95955999D01*
X174768314Y-95991713D01*
X175446885Y-96670284D02*
X175446885Y-96313141D01*
X174696885Y-96313141D01*
X177272600Y-94973856D02*
X177236885Y-94902427D01*
X177236885Y-94795284D01*
X177272600Y-94688141D01*
X177344028Y-94616713D01*
X177415457Y-94580999D01*
X177558314Y-94545284D01*
X177665457Y-94545284D01*
X177808314Y-94580999D01*
X177879742Y-94616713D01*
X177951171Y-94688141D01*
X177986885Y-94795284D01*
X177986885Y-94866713D01*
X177951171Y-94973856D01*
X177915457Y-95009570D01*
X177665457Y-95009570D01*
X177665457Y-94866713D01*
X177986885Y-95330999D02*
X177236885Y-95330999D01*
X177236885Y-95830999D02*
X177236885Y-95973856D01*
X177272600Y-96045284D01*
X177344028Y-96116713D01*
X177486885Y-96152427D01*
X177736885Y-96152427D01*
X177879742Y-96116713D01*
X177951171Y-96045284D01*
X177986885Y-95973856D01*
X177986885Y-95830999D01*
X177951171Y-95759570D01*
X177879742Y-95688141D01*
X177736885Y-95652427D01*
X177486885Y-95652427D01*
X177344028Y-95688141D01*
X177272600Y-95759570D01*
X177236885Y-95830999D01*
X177236885Y-96616713D02*
X177236885Y-96688141D01*
X177272600Y-96759570D01*
X177308314Y-96795284D01*
X177379742Y-96830999D01*
X177522600Y-96866713D01*
X177701171Y-96866713D01*
X177844028Y-96830999D01*
X177915457Y-96795284D01*
X177951171Y-96759570D01*
X177986885Y-96688141D01*
X177986885Y-96616713D01*
X177951171Y-96545284D01*
X177915457Y-96509570D01*
X177844028Y-96473856D01*
X177701171Y-96438141D01*
X177522600Y-96438141D01*
X177379742Y-96473856D01*
X177308314Y-96509570D01*
X177272600Y-96545284D01*
X177236885Y-96616713D01*
X166034980Y-94261476D02*
X165034980Y-94261476D01*
X165749266Y-94594809D01*
X165034980Y-94928142D01*
X166034980Y-94928142D01*
X165034980Y-95880523D02*
X165034980Y-95404333D01*
X165511171Y-95356714D01*
X165463552Y-95404333D01*
X165415933Y-95499571D01*
X165415933Y-95737666D01*
X165463552Y-95832904D01*
X165511171Y-95880523D01*
X165606409Y-95928142D01*
X165844504Y-95928142D01*
X165939742Y-95880523D01*
X165987361Y-95832904D01*
X166034980Y-95737666D01*
X166034980Y-95499571D01*
X165987361Y-95404333D01*
X165939742Y-95356714D01*
X159746600Y-110445998D02*
X159710885Y-110374569D01*
X159710885Y-110267427D01*
X159746600Y-110160284D01*
X159818028Y-110088855D01*
X159889457Y-110053141D01*
X160032314Y-110017427D01*
X160139457Y-110017427D01*
X160282314Y-110053141D01*
X160353742Y-110088855D01*
X160425171Y-110160284D01*
X160460885Y-110267427D01*
X160460885Y-110338855D01*
X160425171Y-110445998D01*
X160389457Y-110481712D01*
X160139457Y-110481712D01*
X160139457Y-110338855D01*
X160460885Y-110803141D02*
X159710885Y-110803141D01*
X160460885Y-111231712D01*
X159710885Y-111231712D01*
X160460885Y-111588855D02*
X159710885Y-111588855D01*
X159710885Y-111767427D01*
X159746600Y-111874569D01*
X159818028Y-111945998D01*
X159889457Y-111981712D01*
X160032314Y-112017427D01*
X160139457Y-112017427D01*
X160282314Y-111981712D01*
X160353742Y-111945998D01*
X160425171Y-111874569D01*
X160460885Y-111767427D01*
X160460885Y-111588855D01*
X162250885Y-109838855D02*
X162250885Y-110303140D01*
X162536600Y-110053140D01*
X162536600Y-110160283D01*
X162572314Y-110231712D01*
X162608028Y-110267426D01*
X162679457Y-110303140D01*
X162858028Y-110303140D01*
X162929457Y-110267426D01*
X162965171Y-110231712D01*
X163000885Y-110160283D01*
X163000885Y-109945998D01*
X162965171Y-109874569D01*
X162929457Y-109838855D01*
X162929457Y-110624569D02*
X162965171Y-110660283D01*
X163000885Y-110624569D01*
X162965171Y-110588855D01*
X162929457Y-110624569D01*
X163000885Y-110624569D01*
X162250885Y-110910283D02*
X162250885Y-111374569D01*
X162536600Y-111124569D01*
X162536600Y-111231712D01*
X162572314Y-111303140D01*
X162608028Y-111338855D01*
X162679457Y-111374569D01*
X162858028Y-111374569D01*
X162929457Y-111338855D01*
X162965171Y-111303140D01*
X163000885Y-111231712D01*
X163000885Y-111017426D01*
X162965171Y-110945998D01*
X162929457Y-110910283D01*
X162250885Y-111588855D02*
X163000885Y-111838855D01*
X162250885Y-112088855D01*
X164790885Y-111338854D02*
X164790885Y-110981712D01*
X165148028Y-110945997D01*
X165112314Y-110981712D01*
X165076600Y-111053140D01*
X165076600Y-111231712D01*
X165112314Y-111303140D01*
X165148028Y-111338854D01*
X165219457Y-111374569D01*
X165398028Y-111374569D01*
X165469457Y-111338854D01*
X165505171Y-111303140D01*
X165540885Y-111231712D01*
X165540885Y-111053140D01*
X165505171Y-110981712D01*
X165469457Y-110945997D01*
X164790885Y-111588854D02*
X165540885Y-111838854D01*
X164790885Y-112088854D01*
G36*
X180432236Y-83878945D02*
G01*
X180519014Y-83963786D01*
X180605791Y-84048626D01*
X166959247Y-84048626D01*
X167046024Y-83963786D01*
X167132802Y-83878945D01*
X166308158Y-83878143D01*
X163965874Y-83875866D01*
X160368143Y-83872369D01*
X159738120Y-83871756D01*
X153603485Y-83865793D01*
X153603485Y-81855821D01*
X170414996Y-81855821D01*
X170725206Y-81855821D01*
X170733256Y-80931802D01*
X170733839Y-80866012D01*
X170736182Y-80632025D01*
X170738734Y-80443641D01*
X170741788Y-80295569D01*
X170745636Y-80182517D01*
X170750569Y-80099193D01*
X170756879Y-80040305D01*
X170764858Y-80000562D01*
X170774797Y-79974672D01*
X170786990Y-79957342D01*
X170816603Y-79917953D01*
X170832673Y-79879029D01*
X170836230Y-79868106D01*
X170867783Y-79826029D01*
X170921366Y-79773284D01*
X170939046Y-79759058D01*
X171050095Y-79702001D01*
X171192026Y-79665583D01*
X171350425Y-79650396D01*
X171510880Y-79657030D01*
X171658978Y-79686074D01*
X171780304Y-79738119D01*
X171823483Y-79768345D01*
X171876327Y-79820259D01*
X171919841Y-79886857D01*
X171954859Y-79972822D01*
X171982215Y-80082836D01*
X172002744Y-80221581D01*
X172017281Y-80393739D01*
X172026660Y-80603993D01*
X172031715Y-80857025D01*
X172033281Y-81157517D01*
X172033495Y-81855821D01*
X172325265Y-81855821D01*
X172313664Y-80948678D01*
X172311883Y-80817565D01*
X172307911Y-80581559D01*
X172303363Y-80390221D01*
X172297988Y-80238462D01*
X172291534Y-80121190D01*
X172290754Y-80112384D01*
X172790535Y-80112384D01*
X172792653Y-80144741D01*
X172808370Y-80169655D01*
X172850596Y-80182160D01*
X172932170Y-80189222D01*
X173073804Y-80198164D01*
X173089867Y-80090759D01*
X173092986Y-80073443D01*
X173142486Y-79954962D01*
X173233936Y-79846697D01*
X173358408Y-79755410D01*
X173506975Y-79687864D01*
X173670708Y-79650821D01*
X173686287Y-79649181D01*
X173810661Y-79645704D01*
X173940018Y-79655846D01*
X174060097Y-79677176D01*
X174156635Y-79707263D01*
X174215371Y-79743674D01*
X174251582Y-79775841D01*
X174290407Y-79793539D01*
X174293893Y-79793994D01*
X174325633Y-79822240D01*
X174362793Y-79883258D01*
X174398208Y-79961502D01*
X174424713Y-80041430D01*
X174435140Y-80107495D01*
X174435140Y-80107859D01*
X174428267Y-80162431D01*
X174411865Y-80185112D01*
X174393682Y-80198198D01*
X174372527Y-80243847D01*
X174336410Y-80307052D01*
X174255833Y-80375246D01*
X174143834Y-80432724D01*
X174011449Y-80472497D01*
X173932008Y-80490403D01*
X173859507Y-80510162D01*
X173821676Y-80524922D01*
X173804589Y-80532406D01*
X173743511Y-80551440D01*
X173651558Y-80576239D01*
X173541049Y-80603360D01*
X173467474Y-80621489D01*
X173374157Y-80647516D01*
X173310237Y-80669278D01*
X173286527Y-80683376D01*
X173273308Y-80700194D01*
X173227791Y-80721531D01*
X173147162Y-80756366D01*
X173038740Y-80845053D01*
X172958175Y-80966759D01*
X172909249Y-81112597D01*
X172895746Y-81273678D01*
X172921451Y-81441115D01*
X172921529Y-81441396D01*
X172964755Y-81527621D01*
X173041951Y-81622586D01*
X173139541Y-81713620D01*
X173243947Y-81788052D01*
X173341591Y-81833211D01*
X173353413Y-81836485D01*
X173469119Y-81856683D01*
X173613881Y-81867276D01*
X173771577Y-81868541D01*
X173926085Y-81860755D01*
X173966365Y-81855821D01*
X175166075Y-81855821D01*
X176941204Y-81855821D01*
X176941204Y-81594772D01*
X175477973Y-81594772D01*
X175485179Y-81196674D01*
X175492385Y-80798575D01*
X176164585Y-80791608D01*
X176836784Y-80784641D01*
X176836784Y-80551461D01*
X176164585Y-80544494D01*
X175492385Y-80537527D01*
X175492385Y-79702172D01*
X176242899Y-79695246D01*
X176993413Y-79688319D01*
X176993413Y-79454176D01*
X175166075Y-79454176D01*
X175166075Y-81855821D01*
X173966365Y-81855821D01*
X174061279Y-81844195D01*
X174161039Y-81819139D01*
X174210556Y-81798278D01*
X174277766Y-81762417D01*
X174313249Y-81732851D01*
X174341535Y-81704140D01*
X174398558Y-81672108D01*
X174443518Y-81643353D01*
X174485631Y-81586239D01*
X174507741Y-81541431D01*
X174550708Y-81482934D01*
X174561011Y-81469789D01*
X174589266Y-81406592D01*
X174608182Y-81325680D01*
X174624031Y-81210051D01*
X174503557Y-81191985D01*
X174420477Y-81182530D01*
X174366502Y-81190168D01*
X174337593Y-81223478D01*
X174320319Y-81289619D01*
X174310098Y-81324762D01*
X174275306Y-81396770D01*
X174228594Y-81467419D01*
X174180844Y-81521190D01*
X174142940Y-81542563D01*
X174131622Y-81544764D01*
X174081049Y-81563377D01*
X174011298Y-81594772D01*
X173960615Y-81613735D01*
X173869063Y-81634097D01*
X173768282Y-81645861D01*
X173673279Y-81648159D01*
X173599059Y-81640121D01*
X173560628Y-81620877D01*
X173542288Y-81606204D01*
X173491244Y-81594772D01*
X173481100Y-81594463D01*
X173385821Y-81569156D01*
X173293051Y-81513097D01*
X173226644Y-81440220D01*
X173213093Y-81411807D01*
X173191023Y-81324141D01*
X173183669Y-81224567D01*
X173191646Y-81133558D01*
X173215569Y-81071588D01*
X173232909Y-81052178D01*
X173291044Y-81007276D01*
X173376986Y-80963196D01*
X173496653Y-80917558D01*
X173655962Y-80867981D01*
X173860834Y-80812085D01*
X173937012Y-80792039D01*
X174097672Y-80747420D01*
X174220845Y-80707930D01*
X174316219Y-80669296D01*
X174393485Y-80627243D01*
X174462331Y-80577495D01*
X174532447Y-80515779D01*
X174613586Y-80409171D01*
X174667770Y-80269196D01*
X174689357Y-80113413D01*
X174676453Y-79955934D01*
X174643978Y-79860359D01*
X174627162Y-79810869D01*
X174612019Y-79784033D01*
X174537618Y-79687859D01*
X174440474Y-79595447D01*
X174336672Y-79520725D01*
X174242301Y-79477622D01*
X174217052Y-79470165D01*
X174151519Y-79443853D01*
X174116288Y-79418844D01*
X174108448Y-79413158D01*
X174058453Y-79401922D01*
X173974626Y-79394493D01*
X173869244Y-79390771D01*
X173754587Y-79390657D01*
X173642933Y-79394050D01*
X173546560Y-79400851D01*
X173477747Y-79410959D01*
X173448773Y-79424275D01*
X173436792Y-79439777D01*
X173392090Y-79454176D01*
X173354741Y-79459258D01*
X173275529Y-79485562D01*
X173190353Y-79526026D01*
X173117964Y-79571259D01*
X173077117Y-79611873D01*
X173053546Y-79642349D01*
X173013126Y-79663015D01*
X173007036Y-79664918D01*
X172974661Y-79698442D01*
X172930932Y-79765150D01*
X172883520Y-79853751D01*
X172873790Y-79874083D01*
X172831488Y-79972187D01*
X172801761Y-80057115D01*
X172790535Y-80112384D01*
X172290754Y-80112384D01*
X172283750Y-80033318D01*
X172274385Y-79969755D01*
X172263189Y-79925411D01*
X172250005Y-79889796D01*
X172219776Y-79828145D01*
X172194167Y-79799238D01*
X172183717Y-79793672D01*
X172164020Y-79755779D01*
X172146877Y-79720661D01*
X172099211Y-79664907D01*
X172033740Y-79601440D01*
X171963256Y-79541795D01*
X171900547Y-79497509D01*
X171858406Y-79480120D01*
X171856849Y-79480093D01*
X171801004Y-79466838D01*
X171733290Y-79436724D01*
X171708702Y-79426907D01*
X171630468Y-79410703D01*
X171524129Y-79399077D01*
X171403004Y-79392339D01*
X171280411Y-79390800D01*
X171169672Y-79394771D01*
X171084104Y-79404562D01*
X171037027Y-79420485D01*
X171027186Y-79427238D01*
X170970528Y-79454170D01*
X170895054Y-79480625D01*
X170889940Y-79482181D01*
X170760159Y-79548674D01*
X170645220Y-79658552D01*
X170550155Y-79804170D01*
X170479997Y-79977887D01*
X170439779Y-80172059D01*
X170433421Y-80251967D01*
X170427548Y-80376231D01*
X170422546Y-80534303D01*
X170418659Y-80716883D01*
X170416128Y-80914669D01*
X170415194Y-81118359D01*
X170414996Y-81855821D01*
X153603485Y-81855821D01*
X153603485Y-79950168D01*
X152593605Y-79950168D01*
X152415528Y-79950148D01*
X152191766Y-79949918D01*
X152011607Y-79949205D01*
X151869913Y-79947736D01*
X151761543Y-79945239D01*
X151681358Y-79941442D01*
X151624218Y-79936072D01*
X151584982Y-79928856D01*
X151558512Y-79919522D01*
X151539667Y-79907797D01*
X151523307Y-79893408D01*
X151462889Y-79836648D01*
X151462889Y-77339685D01*
X157362581Y-77339685D01*
X157362581Y-78018411D01*
X159033290Y-78018411D01*
X159033290Y-79715225D01*
X159738120Y-79715225D01*
X159738120Y-78018411D01*
X161356620Y-78018411D01*
X161356620Y-77339685D01*
X159738120Y-77339685D01*
X159738120Y-76399911D01*
X163366692Y-76399911D01*
X163366692Y-78827660D01*
X163965874Y-78827660D01*
X164055468Y-78827381D01*
X164223995Y-78825298D01*
X164373513Y-78821445D01*
X164495724Y-78816141D01*
X164582326Y-78809702D01*
X164625021Y-78802447D01*
X164638129Y-78797260D01*
X164710423Y-78773175D01*
X164794744Y-78749551D01*
X164908322Y-78704714D01*
X165027878Y-78609958D01*
X165130856Y-78467883D01*
X165154275Y-78424679D01*
X165184136Y-78349346D01*
X165199215Y-78264509D01*
X165204409Y-78148935D01*
X165203297Y-78044080D01*
X165192344Y-77959000D01*
X165165736Y-77878094D01*
X165117786Y-77776941D01*
X165109799Y-77761424D01*
X165063290Y-77679888D01*
X165022890Y-77622456D01*
X164996581Y-77600733D01*
X164981829Y-77597355D01*
X164950853Y-77564720D01*
X164926942Y-77531996D01*
X164864087Y-77496810D01*
X164762078Y-77468668D01*
X164617701Y-77446964D01*
X164427744Y-77431088D01*
X164188994Y-77420432D01*
X163693002Y-77404947D01*
X163678822Y-76399911D01*
X165663917Y-76399911D01*
X165663917Y-78827660D01*
X166308158Y-78827660D01*
X166530193Y-78826433D01*
X166723051Y-78822716D01*
X166875959Y-78816672D01*
X166984840Y-78808463D01*
X167045619Y-78798252D01*
X167151966Y-78764174D01*
X167251348Y-78728937D01*
X167320894Y-78696575D01*
X167371920Y-78660351D01*
X167415739Y-78613529D01*
X167463668Y-78549373D01*
X167521658Y-78454791D01*
X167580921Y-78286941D01*
X167589016Y-78116566D01*
X167546013Y-77948273D01*
X167451982Y-77786668D01*
X167389153Y-77712940D01*
X167313081Y-77654135D01*
X167214278Y-77611642D01*
X167154634Y-77589405D01*
X167138644Y-77581913D01*
X168052467Y-77581913D01*
X168057792Y-77752976D01*
X168076165Y-77900939D01*
X168112325Y-78049077D01*
X168205133Y-78277761D01*
X168336538Y-78471450D01*
X168506946Y-78630691D01*
X168716768Y-78756028D01*
X168746705Y-78770023D01*
X168819328Y-78800866D01*
X168885223Y-78820588D01*
X168959124Y-78831768D01*
X169055761Y-78836982D01*
X169189870Y-78838810D01*
X169253001Y-78838955D01*
X169378339Y-78836429D01*
X169468831Y-78828639D01*
X169536781Y-78814147D01*
X169594494Y-78791515D01*
X169608763Y-78784685D01*
X169702111Y-78740372D01*
X169787847Y-78700148D01*
X169878557Y-78646630D01*
X169969143Y-78566612D01*
X170623835Y-78566612D01*
X170623835Y-78827660D01*
X172555592Y-78827660D01*
X172894955Y-78827660D01*
X174643978Y-78827660D01*
X174643978Y-78566612D01*
X173208213Y-78566612D01*
X173208213Y-77783467D01*
X174539559Y-77783467D01*
X174539559Y-77727644D01*
X175095616Y-77727644D01*
X175099836Y-77783467D01*
X175100234Y-77785185D01*
X175109358Y-77832426D01*
X175123577Y-77913492D01*
X175139989Y-78011884D01*
X175142349Y-78026054D01*
X175159781Y-78114800D01*
X175176623Y-78177427D01*
X175189527Y-78201144D01*
X175195722Y-78204456D01*
X175221497Y-78240223D01*
X175253008Y-78302619D01*
X175303936Y-78388204D01*
X175384744Y-78488175D01*
X175480290Y-78585494D01*
X175576731Y-78666108D01*
X175660223Y-78715965D01*
X175661560Y-78716515D01*
X175753760Y-78756126D01*
X175844801Y-78797517D01*
X175853603Y-78801361D01*
X175936740Y-78823096D01*
X176050673Y-78837209D01*
X176181656Y-78843745D01*
X176315940Y-78842750D01*
X176439778Y-78834269D01*
X176539421Y-78818347D01*
X176601123Y-78795029D01*
X176658054Y-78763954D01*
X176714157Y-78749346D01*
X176743405Y-78741875D01*
X176808866Y-78698846D01*
X176886821Y-78626394D01*
X176940418Y-78566612D01*
X177463300Y-78566612D01*
X177463300Y-78827660D01*
X179368953Y-78827660D01*
X179368953Y-78566612D01*
X178559703Y-78566612D01*
X178559703Y-76399911D01*
X179760525Y-76399911D01*
X179760525Y-78827660D01*
X181509549Y-78827660D01*
X181509549Y-78566612D01*
X180073783Y-78566612D01*
X180073783Y-77783467D01*
X181405130Y-77783467D01*
X181405130Y-77522419D01*
X180073783Y-77522419D01*
X180073783Y-76660959D01*
X181561759Y-76660959D01*
X181561759Y-76399911D01*
X179760525Y-76399911D01*
X178559703Y-76399911D01*
X178272550Y-76399911D01*
X178272550Y-78566612D01*
X177463300Y-78566612D01*
X176940418Y-78566612D01*
X176969046Y-78534682D01*
X177047316Y-78433873D01*
X177113405Y-78334129D01*
X177159091Y-78245614D01*
X177176147Y-78178489D01*
X177163427Y-78168605D01*
X177111778Y-78151380D01*
X177033952Y-78134114D01*
X176891756Y-78108065D01*
X176849981Y-78217451D01*
X176821263Y-78273658D01*
X176758967Y-78361466D01*
X176684933Y-78442145D01*
X176590513Y-78515683D01*
X176441267Y-78582563D01*
X176268111Y-78607755D01*
X176065694Y-78592558D01*
X176052894Y-78590460D01*
X175884103Y-78548711D01*
X175750272Y-78481645D01*
X175638158Y-78380370D01*
X175534514Y-78235995D01*
X175481558Y-78130154D01*
X175430303Y-77949829D01*
X175406725Y-77731326D01*
X175410273Y-77471265D01*
X175415419Y-77393548D01*
X175426632Y-77281359D01*
X175443145Y-77196353D01*
X175468614Y-77122285D01*
X175506694Y-77042912D01*
X175541036Y-76980061D01*
X175613105Y-76871931D01*
X175694596Y-76788286D01*
X175796102Y-76721353D01*
X175928213Y-76663363D01*
X176101524Y-76606545D01*
X176153399Y-76592790D01*
X176217281Y-76586990D01*
X176264325Y-76603845D01*
X176299327Y-76621878D01*
X176346964Y-76635000D01*
X176439039Y-76648678D01*
X176566115Y-76703275D01*
X176686066Y-76790313D01*
X176785905Y-76899855D01*
X176852643Y-77021960D01*
X176876038Y-77083677D01*
X176910618Y-77153934D01*
X176949311Y-77187232D01*
X177004581Y-77191662D01*
X177088896Y-77175318D01*
X177223536Y-77143899D01*
X177160073Y-76986123D01*
X177116333Y-76895745D01*
X177039133Y-76774714D01*
X176948835Y-76661441D01*
X176856457Y-76569422D01*
X176773021Y-76512150D01*
X176698300Y-76475478D01*
X176614893Y-76431991D01*
X176600583Y-76425324D01*
X176517905Y-76403303D01*
X176468645Y-76396496D01*
X182031645Y-76396496D01*
X182031645Y-78827660D01*
X182593254Y-78827660D01*
X182651884Y-78827535D01*
X182815760Y-78825810D01*
X182960895Y-78822312D01*
X183078923Y-78817363D01*
X183161477Y-78811283D01*
X183200191Y-78804393D01*
X183236116Y-78789626D01*
X183311296Y-78764073D01*
X183402149Y-78736653D01*
X183463951Y-78717099D01*
X183543342Y-78680316D01*
X183617263Y-78625649D01*
X183704133Y-78541174D01*
X183759244Y-78479793D01*
X183843550Y-78365614D01*
X183897062Y-78263025D01*
X183915102Y-78216638D01*
X183944726Y-78147775D01*
X183965244Y-78109304D01*
X183969394Y-78101044D01*
X183983819Y-78048702D01*
X184000698Y-77963370D01*
X184017181Y-77858786D01*
X184028596Y-77730386D01*
X184030902Y-77584562D01*
X184024836Y-77436341D01*
X184017885Y-77365790D01*
X186887144Y-77365790D01*
X186887144Y-77940096D01*
X188714482Y-77940096D01*
X188714482Y-77365790D01*
X186887144Y-77365790D01*
X184017885Y-77365790D01*
X184011336Y-77299322D01*
X183991339Y-77187107D01*
X183965784Y-77113296D01*
X183951181Y-77084390D01*
X183918865Y-77013404D01*
X183882649Y-76928261D01*
X183876797Y-76914973D01*
X183828006Y-76832469D01*
X183758497Y-76741853D01*
X183678228Y-76653419D01*
X183597158Y-76577463D01*
X183525246Y-76524282D01*
X183472449Y-76504170D01*
X183470288Y-76504113D01*
X183416320Y-76490106D01*
X183349939Y-76458941D01*
X183349912Y-76458925D01*
X183317949Y-76444234D01*
X183274778Y-76432758D01*
X183213567Y-76423970D01*
X183127480Y-76417345D01*
X183009685Y-76412356D01*
X182853348Y-76408478D01*
X182651635Y-76405185D01*
X182031645Y-76396496D01*
X176468645Y-76396496D01*
X176402008Y-76387288D01*
X176267748Y-76377995D01*
X176184163Y-76376870D01*
X176129978Y-76376141D01*
X176003551Y-76382444D01*
X175903321Y-76397622D01*
X175814327Y-76423046D01*
X175618191Y-76514015D01*
X175445016Y-76649976D01*
X175413842Y-76682365D01*
X175341696Y-76772081D01*
X175279095Y-76868298D01*
X175234977Y-76956361D01*
X175218285Y-77021617D01*
X175216955Y-77032016D01*
X175195576Y-77052532D01*
X175182555Y-77067961D01*
X175162714Y-77122425D01*
X175143463Y-77202635D01*
X175130367Y-77281687D01*
X175116144Y-77397156D01*
X175104875Y-77519778D01*
X175097664Y-77634844D01*
X175095616Y-77727644D01*
X174539559Y-77727644D01*
X174539559Y-77522419D01*
X173208213Y-77522419D01*
X173208213Y-76660959D01*
X174696188Y-76660959D01*
X174696188Y-76399911D01*
X172894955Y-76399911D01*
X172894955Y-78827660D01*
X172555592Y-78827660D01*
X172555592Y-78567938D01*
X171733290Y-78553560D01*
X171726474Y-77476735D01*
X171719658Y-76399911D01*
X171406979Y-76399911D01*
X171406979Y-78566612D01*
X170623835Y-78566612D01*
X169969143Y-78566612D01*
X170007635Y-78532611D01*
X170123041Y-78387911D01*
X170215108Y-78225306D01*
X170274168Y-78057568D01*
X170274739Y-78055159D01*
X170299479Y-77957828D01*
X170322942Y-77876838D01*
X170340120Y-77829505D01*
X170342160Y-77824850D01*
X170353496Y-77770743D01*
X170360186Y-77689272D01*
X170362222Y-77596309D01*
X170359596Y-77507728D01*
X170352300Y-77439401D01*
X170340327Y-77407200D01*
X170333778Y-77399364D01*
X170316444Y-77351634D01*
X170302217Y-77279133D01*
X170296445Y-77242889D01*
X170271180Y-77131616D01*
X170237192Y-77021042D01*
X170200135Y-76928119D01*
X170165666Y-76869798D01*
X170110375Y-76808173D01*
X170101738Y-76799238D01*
X169968960Y-76661895D01*
X169842000Y-76552698D01*
X169719843Y-76475200D01*
X169592836Y-76424018D01*
X169451328Y-76393769D01*
X169285667Y-76379072D01*
X169275449Y-76378605D01*
X169116178Y-76377672D01*
X168967588Y-76387764D01*
X168840005Y-76407330D01*
X168743756Y-76434819D01*
X168689167Y-76468680D01*
X168670404Y-76486013D01*
X168625107Y-76504331D01*
X168612738Y-76507201D01*
X168561820Y-76538511D01*
X168492201Y-76596190D01*
X168414250Y-76670078D01*
X168338340Y-76750015D01*
X168274839Y-76825841D01*
X168234120Y-76887394D01*
X168223233Y-76908516D01*
X168184674Y-76978787D01*
X168155130Y-77026427D01*
X168149128Y-77035910D01*
X168122493Y-77094661D01*
X168096736Y-77171142D01*
X168078661Y-77252031D01*
X168059615Y-77408136D01*
X168052467Y-77581913D01*
X167138644Y-77581913D01*
X167096186Y-77562021D01*
X167073578Y-77543118D01*
X167073572Y-77542877D01*
X167050272Y-77528420D01*
X166995263Y-77522419D01*
X166965138Y-77521152D01*
X166923121Y-77507306D01*
X166930857Y-77480119D01*
X166988546Y-77441989D01*
X167007010Y-77431375D01*
X167076805Y-77381043D01*
X167146868Y-77319284D01*
X167164588Y-77300870D01*
X167222595Y-77232880D01*
X167288262Y-77148034D01*
X167353471Y-77057804D01*
X167410102Y-76973664D01*
X167450035Y-76907086D01*
X167465150Y-76869545D01*
X167466012Y-76863034D01*
X167491815Y-76843693D01*
X167519373Y-76822965D01*
X167549167Y-76771905D01*
X167566316Y-76737373D01*
X167611573Y-76660749D01*
X167666079Y-76579148D01*
X167701451Y-76526943D01*
X167738095Y-76464951D01*
X167752303Y-76429045D01*
X167741336Y-76416839D01*
X167685369Y-76404310D01*
X167587047Y-76399911D01*
X167421791Y-76399911D01*
X167339051Y-76515124D01*
X167306427Y-76561816D01*
X167270342Y-76617693D01*
X167256311Y-76645841D01*
X167251192Y-76657370D01*
X167222487Y-76704917D01*
X167174176Y-76779093D01*
X167112735Y-76869798D01*
X167075181Y-76925065D01*
X167020623Y-77008521D01*
X166983111Y-77070153D01*
X166969158Y-77099534D01*
X166966421Y-77106428D01*
X166937628Y-77145915D01*
X166884129Y-77208988D01*
X166814243Y-77285652D01*
X166806471Y-77293895D01*
X166728204Y-77371600D01*
X166656962Y-77426211D01*
X166580913Y-77461801D01*
X166488223Y-77482443D01*
X166367060Y-77492211D01*
X166205592Y-77495177D01*
X165977175Y-77496314D01*
X165977175Y-76399911D01*
X165663917Y-76399911D01*
X163678822Y-76399911D01*
X163366692Y-76399911D01*
X159738120Y-76399911D01*
X159738120Y-75616766D01*
X159033290Y-75616766D01*
X159033290Y-77339685D01*
X157362581Y-77339685D01*
X151462889Y-77339685D01*
X151462889Y-75120774D01*
X153603485Y-75120774D01*
X153603485Y-75095316D01*
X169214174Y-75095316D01*
X169214462Y-75127919D01*
X169220592Y-75194087D01*
X169239799Y-75229773D01*
X169278743Y-75251035D01*
X169280242Y-75251609D01*
X169388811Y-75308148D01*
X169515096Y-75397260D01*
X169647139Y-75508850D01*
X169772981Y-75632825D01*
X169880662Y-75759091D01*
X169900550Y-75783778D01*
X169961428Y-75836341D01*
X170026522Y-75851710D01*
X170101738Y-75851710D01*
X170101738Y-74111529D01*
X170898009Y-74111529D01*
X170925403Y-74284098D01*
X171004179Y-74451965D01*
X171060680Y-74524668D01*
X171146639Y-74601864D01*
X171237039Y-74656353D01*
X171316416Y-74676992D01*
X171332615Y-74678222D01*
X171353531Y-74696169D01*
X171331766Y-74731126D01*
X171269929Y-74777454D01*
X171184536Y-74835903D01*
X171094650Y-74924030D01*
X171042661Y-75023886D01*
X171020411Y-75147577D01*
X171022470Y-75303601D01*
X171061457Y-75470204D01*
X171138279Y-75606582D01*
X171250515Y-75708703D01*
X171395741Y-75772532D01*
X171441394Y-75785777D01*
X171511092Y-75810175D01*
X171549251Y-75829453D01*
X171583001Y-75843828D01*
X171653118Y-75850962D01*
X171730950Y-75845484D01*
X171792380Y-75827582D01*
X171813653Y-75818140D01*
X171882058Y-75794572D01*
X171966419Y-75770660D01*
X172012201Y-75756296D01*
X172144337Y-75681589D01*
X172250445Y-75570385D01*
X172318951Y-75433743D01*
X172330638Y-75398515D01*
X172357060Y-75330170D01*
X172377397Y-75291761D01*
X172395470Y-75250138D01*
X172392939Y-75170704D01*
X172361406Y-75079102D01*
X172329464Y-75010337D01*
X172297801Y-74934173D01*
X172294489Y-74926417D01*
X172241914Y-74863384D01*
X172150716Y-74804595D01*
X172106088Y-74781410D01*
X172046320Y-74746795D01*
X172017918Y-74725116D01*
X172021761Y-74714656D01*
X172059477Y-74686849D01*
X172096398Y-74668074D01*
X172799644Y-74668074D01*
X172802147Y-74789726D01*
X172809361Y-74880048D01*
X172821923Y-74948190D01*
X172840468Y-75003303D01*
X172851217Y-75033733D01*
X172872941Y-75109182D01*
X172895211Y-75199089D01*
X172906457Y-75245798D01*
X172947312Y-75372708D01*
X173002962Y-75477057D01*
X173084660Y-75581560D01*
X173122756Y-75618619D01*
X173211966Y-75683694D01*
X173315425Y-75741781D01*
X173415503Y-75783508D01*
X173494570Y-75799500D01*
X173523756Y-75803566D01*
X173560628Y-75825605D01*
X173592285Y-75843504D01*
X173651995Y-75851710D01*
X173707997Y-75844564D01*
X173743362Y-75825605D01*
X173761177Y-75811118D01*
X173811851Y-75799500D01*
X173871826Y-75792887D01*
X173992059Y-75746016D01*
X174109829Y-75661127D01*
X174214869Y-75546460D01*
X174296912Y-75410252D01*
X174298297Y-75407266D01*
X174328868Y-75326753D01*
X174324575Y-75279377D01*
X174279874Y-75256954D01*
X174189218Y-75251299D01*
X174111222Y-75252685D01*
X174065053Y-75262093D01*
X174042598Y-75287315D01*
X174029161Y-75336139D01*
X174003918Y-75401291D01*
X173933339Y-75492356D01*
X173837126Y-75564495D01*
X173731009Y-75603596D01*
X173633141Y-75613760D01*
X173501038Y-75598766D01*
X173386970Y-75543017D01*
X173284242Y-75442709D01*
X173186157Y-75294036D01*
X173183689Y-75289639D01*
X173139893Y-75203858D01*
X173112294Y-75124952D01*
X173095718Y-75033227D01*
X173084991Y-74908989D01*
X173082197Y-74858638D01*
X173079923Y-74765499D01*
X173082456Y-74701063D01*
X173089568Y-74676992D01*
X173116109Y-74692161D01*
X173169689Y-74733870D01*
X173237995Y-74792813D01*
X173298307Y-74842021D01*
X173452313Y-74925762D01*
X173619253Y-74959278D01*
X173802257Y-74943406D01*
X173861214Y-74928681D01*
X173941198Y-74900828D01*
X173990724Y-74873352D01*
X174022560Y-74849666D01*
X174063167Y-74833621D01*
X174071760Y-74832098D01*
X174116733Y-74800667D01*
X174173431Y-74737884D01*
X174232745Y-74656014D01*
X174285568Y-74567318D01*
X174322793Y-74484059D01*
X174353431Y-74352641D01*
X174365643Y-74180178D01*
X174354232Y-74003958D01*
X174352327Y-73995368D01*
X174713403Y-73995368D01*
X174714505Y-74012852D01*
X174752612Y-74021835D01*
X174835235Y-74024372D01*
X174980674Y-74024372D01*
X175060186Y-73857771D01*
X175061315Y-73855412D01*
X175107327Y-73770242D01*
X175151894Y-73705351D01*
X175185517Y-73674620D01*
X175231641Y-73654317D01*
X175296599Y-73619714D01*
X175355248Y-73594670D01*
X175477329Y-73580054D01*
X175612155Y-73601112D01*
X175744829Y-73656619D01*
X175781707Y-73678623D01*
X175851070Y-73731475D01*
X175903775Y-73797591D01*
X175955988Y-73895239D01*
X175990958Y-73972013D01*
X176016982Y-74050851D01*
X176025304Y-74128647D01*
X176020750Y-74230360D01*
X176016511Y-74268462D01*
X175994334Y-74372941D01*
X175960254Y-74475871D01*
X175919618Y-74564804D01*
X175877775Y-74627292D01*
X175840072Y-74650888D01*
X175836774Y-74651205D01*
X175795340Y-74668818D01*
X175737575Y-74705095D01*
X175659735Y-74742949D01*
X175536477Y-74763636D01*
X175401285Y-74755398D01*
X175269411Y-74721010D01*
X175156105Y-74663245D01*
X175076619Y-74584877D01*
X175065946Y-74569345D01*
X175034355Y-74539414D01*
X174989047Y-74530625D01*
X174911301Y-74537627D01*
X174870459Y-74543173D01*
X174808605Y-74552569D01*
X174781671Y-74558205D01*
X174780597Y-74572691D01*
X174786093Y-74628085D01*
X174797885Y-74712680D01*
X174813810Y-74813536D01*
X174831708Y-74917713D01*
X174849418Y-75012272D01*
X174864779Y-75084272D01*
X174875628Y-75120774D01*
X174887099Y-75157737D01*
X174904292Y-75235986D01*
X174924369Y-75342901D01*
X174944962Y-75466663D01*
X174992943Y-75773395D01*
X176184163Y-75773395D01*
X176184163Y-75538452D01*
X175701224Y-75538452D01*
X175645467Y-75538412D01*
X175487313Y-75537539D01*
X175372782Y-75535106D01*
X175295244Y-75530572D01*
X175248069Y-75523395D01*
X175224626Y-75513032D01*
X175218285Y-75498940D01*
X175214541Y-75471980D01*
X175192402Y-75414100D01*
X175192171Y-75413690D01*
X175176243Y-75367860D01*
X175157293Y-75288706D01*
X175137731Y-75190273D01*
X175119966Y-75086606D01*
X175106408Y-74991747D01*
X175099467Y-74919742D01*
X175101553Y-74884634D01*
X175111800Y-74881109D01*
X175157735Y-74891319D01*
X175224870Y-74919794D01*
X175252276Y-74932564D01*
X175330954Y-74958221D01*
X175427000Y-74971771D01*
X175557648Y-74976132D01*
X175585317Y-74976197D01*
X175692685Y-74973596D01*
X175769098Y-74963542D01*
X175832090Y-74942481D01*
X175899194Y-74906854D01*
X175960576Y-74866967D01*
X176085369Y-74759332D01*
X176182030Y-74637821D01*
X176183132Y-74635464D01*
X176640072Y-74635464D01*
X176645931Y-74833337D01*
X176659542Y-75018668D01*
X176680709Y-75178399D01*
X176709236Y-75299473D01*
X176764691Y-75424713D01*
X176851312Y-75553908D01*
X176955110Y-75664240D01*
X177066000Y-75745146D01*
X177173899Y-75786068D01*
X177197644Y-75790603D01*
X177262032Y-75808900D01*
X177295023Y-75827876D01*
X177296417Y-75829711D01*
X177334029Y-75845308D01*
X177398038Y-75851710D01*
X177404876Y-75851639D01*
X177467319Y-75844088D01*
X177501054Y-75827876D01*
X177507360Y-75821893D01*
X177553194Y-75802415D01*
X177623828Y-75785789D01*
X177725807Y-75747531D01*
X177835087Y-75671504D01*
X177938940Y-75568323D01*
X178024768Y-75448586D01*
X178057244Y-75378094D01*
X178092657Y-75271078D01*
X178118503Y-75159932D01*
X178119284Y-75155491D01*
X178138182Y-75061913D01*
X178157203Y-74989069D01*
X178172343Y-74952398D01*
X178177548Y-74938740D01*
X178185163Y-74880947D01*
X178190379Y-74790898D01*
X178193205Y-74680653D01*
X178193651Y-74562269D01*
X178191725Y-74447807D01*
X178187437Y-74349325D01*
X178180796Y-74278882D01*
X178171811Y-74248537D01*
X178160688Y-74228630D01*
X178144977Y-74168642D01*
X178131841Y-74085394D01*
X178128306Y-74059719D01*
X178088618Y-73905453D01*
X178022215Y-73752394D01*
X177937727Y-73617539D01*
X177843782Y-73517889D01*
X177749659Y-73454290D01*
X177589803Y-73391992D01*
X177409909Y-73374122D01*
X177204859Y-73399735D01*
X177111609Y-73427412D01*
X176972512Y-73506621D01*
X176857136Y-73628077D01*
X176763568Y-73794037D01*
X176689891Y-74006757D01*
X176670955Y-74097176D01*
X176652388Y-74254326D01*
X176642159Y-74438107D01*
X176640072Y-74635464D01*
X176183132Y-74635464D01*
X176239240Y-74515460D01*
X176248311Y-74485362D01*
X176272946Y-74416991D01*
X176292983Y-74378092D01*
X176297947Y-74369344D01*
X176308937Y-74315579D01*
X176313849Y-74235937D01*
X176312715Y-74149856D01*
X176305565Y-74076771D01*
X176292431Y-74036119D01*
X176282403Y-74019076D01*
X176259469Y-73960309D01*
X176235460Y-73880795D01*
X176207917Y-73807634D01*
X176128174Y-73682518D01*
X176017937Y-73566651D01*
X175890133Y-73472684D01*
X175757689Y-73413268D01*
X175728023Y-73405171D01*
X175538666Y-73375777D01*
X175350529Y-73381357D01*
X175177324Y-73420433D01*
X175032759Y-73491523D01*
X174968186Y-73544193D01*
X174876097Y-73646972D01*
X174802856Y-73760976D01*
X174761762Y-73867743D01*
X174760188Y-73874890D01*
X174739169Y-73945011D01*
X174716082Y-73991741D01*
X174713403Y-73995368D01*
X174352327Y-73995368D01*
X174319321Y-73846614D01*
X174254919Y-73709392D01*
X174141565Y-73570847D01*
X173996308Y-73464315D01*
X173827837Y-73395911D01*
X173644836Y-73371751D01*
X173614116Y-73372300D01*
X173422499Y-73401242D01*
X173248594Y-73470439D01*
X173100079Y-73574708D01*
X172984629Y-73708870D01*
X172909922Y-73867743D01*
X172890669Y-73927501D01*
X172861112Y-74009221D01*
X172837845Y-74062265D01*
X172836414Y-74065262D01*
X172825275Y-74115568D01*
X172815161Y-74204900D01*
X172807136Y-74321556D01*
X172802261Y-74453838D01*
X172801216Y-74505945D01*
X172799644Y-74668074D01*
X172096398Y-74668074D01*
X172125214Y-74653421D01*
X172261498Y-74575629D01*
X172365775Y-74469622D01*
X172432966Y-74332895D01*
X172467750Y-74158688D01*
X172471490Y-74106700D01*
X172455676Y-73918203D01*
X172394929Y-73750750D01*
X172293168Y-73608786D01*
X172154313Y-73496751D01*
X171982283Y-73419090D01*
X171780997Y-73380243D01*
X171596077Y-73379544D01*
X171398572Y-73417656D01*
X171228450Y-73496280D01*
X171089508Y-73613567D01*
X170985542Y-73767668D01*
X170921946Y-73932406D01*
X170898009Y-74111529D01*
X170101738Y-74111529D01*
X170101738Y-73397856D01*
X169814585Y-73397856D01*
X169814585Y-74355078D01*
X169814151Y-74571994D01*
X169812949Y-74771409D01*
X169811073Y-74947538D01*
X169808621Y-75094598D01*
X169805687Y-75206803D01*
X169802369Y-75278368D01*
X169798763Y-75303508D01*
X169789676Y-75300129D01*
X169747695Y-75273756D01*
X169687817Y-75229786D01*
X169665756Y-75213568D01*
X169595743Y-75167044D01*
X169508260Y-75113002D01*
X169415603Y-75058565D01*
X169330063Y-75010860D01*
X169263934Y-74977012D01*
X169229511Y-74964146D01*
X169223949Y-74973120D01*
X169216921Y-75020627D01*
X169214174Y-75095316D01*
X153603485Y-75095316D01*
X153603485Y-71413854D01*
X173501892Y-71420398D01*
X193400299Y-71426941D01*
X193413459Y-83865789D01*
X188714482Y-83870552D01*
X186922848Y-83872367D01*
X182593254Y-83876756D01*
X181509549Y-83877854D01*
X180432236Y-83878945D01*
G37*
G36*
X164261459Y-77653996D02*
G01*
X164395385Y-77657969D01*
X164493418Y-77665553D01*
X164564051Y-77677427D01*
X164615778Y-77694273D01*
X164631355Y-77701043D01*
X164715917Y-77739359D01*
X164766534Y-77767790D01*
X164795856Y-77794818D01*
X164816529Y-77828929D01*
X164837062Y-77865008D01*
X164878227Y-77923977D01*
X164892498Y-77951516D01*
X164904166Y-78027940D01*
X164902434Y-78149095D01*
X164901608Y-78163384D01*
X164893398Y-78258510D01*
X164878141Y-78321754D01*
X164849058Y-78371281D01*
X164799368Y-78425255D01*
X164756159Y-78464719D01*
X164700257Y-78502204D01*
X164633355Y-78529265D01*
X164547220Y-78547538D01*
X164433621Y-78558659D01*
X164284326Y-78564264D01*
X164091101Y-78565989D01*
X163679950Y-78566612D01*
X163679950Y-77652943D01*
X164100208Y-77652943D01*
X164261459Y-77653996D01*
G37*
G36*
X166574257Y-77757522D02*
G01*
X166739942Y-77759389D01*
X166865862Y-77764692D01*
X166960253Y-77775080D01*
X167031356Y-77792200D01*
X167087408Y-77817700D01*
X167136647Y-77853227D01*
X167187314Y-77900429D01*
X167208519Y-77922387D01*
X167246553Y-77975612D01*
X167266392Y-78039938D01*
X167275741Y-78135882D01*
X167274837Y-78255828D01*
X167249751Y-78350269D01*
X167192179Y-78425421D01*
X167094364Y-78496717D01*
X167072785Y-78509950D01*
X167031730Y-78532908D01*
X166990262Y-78549770D01*
X166939751Y-78561785D01*
X166871567Y-78570200D01*
X166777081Y-78576265D01*
X166647664Y-78581226D01*
X166474684Y-78586333D01*
X165977175Y-78600416D01*
X165977175Y-77757362D01*
X166471938Y-77757362D01*
X166574257Y-77757522D01*
G37*
G36*
X169260704Y-76602432D02*
G01*
X169307793Y-76615834D01*
X169405985Y-76643833D01*
X169507853Y-76672927D01*
X169575246Y-76694694D01*
X169634958Y-76720229D01*
X169657956Y-76739184D01*
X169678948Y-76765724D01*
X169729506Y-76796823D01*
X169785562Y-76837604D01*
X169835350Y-76902667D01*
X169835438Y-76902851D01*
X169865277Y-76953260D01*
X169888918Y-76974217D01*
X169902806Y-76990620D01*
X169927511Y-77045021D01*
X169955357Y-77124320D01*
X169977375Y-77191646D01*
X170005620Y-77270833D01*
X170026025Y-77319752D01*
X170028901Y-77326638D01*
X170039406Y-77382378D01*
X170046042Y-77468573D01*
X170048871Y-77571464D01*
X170047960Y-77677294D01*
X170043372Y-77772304D01*
X170035171Y-77842737D01*
X170023423Y-77874834D01*
X170007268Y-77898110D01*
X169997319Y-77952525D01*
X169996601Y-77967905D01*
X169970172Y-78065616D01*
X169912429Y-78179267D01*
X169832633Y-78296479D01*
X169740046Y-78404874D01*
X169643926Y-78492074D01*
X169553537Y-78545701D01*
X169414543Y-78585191D01*
X169211150Y-78603178D01*
X169002114Y-78580746D01*
X168893927Y-78552089D01*
X168713649Y-78468565D01*
X168569889Y-78347740D01*
X168462795Y-78189759D01*
X168392517Y-77994762D01*
X168383665Y-77954873D01*
X168360519Y-77784398D01*
X168354987Y-77601356D01*
X168365889Y-77418439D01*
X168392042Y-77248333D01*
X168432266Y-77103729D01*
X168485379Y-76997316D01*
X168487588Y-76994189D01*
X168521464Y-76938611D01*
X168535448Y-76900978D01*
X168536823Y-76895428D01*
X168565710Y-76861601D01*
X168620289Y-76820305D01*
X168622823Y-76818672D01*
X168704605Y-76765507D01*
X168782794Y-76714026D01*
X168800801Y-76703309D01*
X168885760Y-76667999D01*
X168978580Y-76645332D01*
X169010987Y-76639871D01*
X169085021Y-76621434D01*
X169130180Y-76601558D01*
X169175421Y-76588114D01*
X169260704Y-76602432D01*
G37*
G36*
X171893508Y-73611559D02*
G01*
X171996834Y-73670234D01*
X172093789Y-73769690D01*
X172150606Y-73870471D01*
X172184235Y-74008026D01*
X172185412Y-74156492D01*
X172152247Y-74298754D01*
X172150281Y-74303768D01*
X172101801Y-74390497D01*
X172034962Y-74468502D01*
X171963013Y-74524815D01*
X171899202Y-74546468D01*
X171881128Y-74549023D01*
X171832087Y-74575585D01*
X171805350Y-74592316D01*
X171728690Y-74606115D01*
X171629321Y-74599718D01*
X171522929Y-74574771D01*
X171425200Y-74532917D01*
X171313794Y-74456035D01*
X171240192Y-74366177D01*
X171197382Y-74252135D01*
X171183586Y-74183881D01*
X171177300Y-74060894D01*
X171200664Y-73933005D01*
X171217346Y-73888002D01*
X171262222Y-73808757D01*
X171319017Y-73734832D01*
X171376385Y-73680218D01*
X171422977Y-73658904D01*
X171433645Y-73657373D01*
X171464571Y-73629707D01*
X171464767Y-73629197D01*
X171495311Y-73613009D01*
X171563695Y-73598533D01*
X171656006Y-73588746D01*
X171769251Y-73587647D01*
X171893508Y-73611559D01*
G37*
G36*
X171823039Y-74833261D02*
G01*
X171895724Y-74855848D01*
X171911626Y-74866015D01*
X171968311Y-74916174D01*
X172025908Y-74982043D01*
X172075979Y-75069186D01*
X172103782Y-75199164D01*
X172084406Y-75330423D01*
X172018050Y-75451188D01*
X171993776Y-75478891D01*
X171882618Y-75563146D01*
X171754912Y-75607685D01*
X171622224Y-75611705D01*
X171496118Y-75574402D01*
X171388159Y-75494971D01*
X171363766Y-75466538D01*
X171319921Y-75398015D01*
X171302560Y-75342347D01*
X171296886Y-75300445D01*
X171276455Y-75264351D01*
X171251700Y-75231797D01*
X171272055Y-75184731D01*
X171278750Y-75174501D01*
X171301554Y-75121674D01*
X171325726Y-75047606D01*
X171335709Y-75017474D01*
X171368204Y-74952736D01*
X171401915Y-74919640D01*
X171437408Y-74902336D01*
X171494245Y-74862570D01*
X171540343Y-74840913D01*
X171625926Y-74826119D01*
X171726632Y-74823460D01*
X171823039Y-74833261D01*
G37*
G36*
X173719562Y-73586913D02*
G01*
X173781838Y-73609061D01*
X173855171Y-73657336D01*
X173895321Y-73688893D01*
X173986210Y-73781702D01*
X174047209Y-73877607D01*
X174069575Y-73964095D01*
X174074713Y-74001036D01*
X174095777Y-74037424D01*
X174105633Y-74050328D01*
X174118099Y-74102825D01*
X174121137Y-74172239D01*
X174114528Y-74235857D01*
X174098048Y-74270964D01*
X174092444Y-74276698D01*
X174072907Y-74321730D01*
X174056307Y-74391690D01*
X174034928Y-74462286D01*
X173967786Y-74566945D01*
X173872536Y-74648418D01*
X173763325Y-74692194D01*
X173749494Y-74694863D01*
X173679178Y-74713677D01*
X173634740Y-74733873D01*
X173618660Y-74742770D01*
X173587516Y-74730470D01*
X173561705Y-74713018D01*
X173505581Y-74703097D01*
X173467696Y-74700638D01*
X173354954Y-74660376D01*
X173251766Y-74570108D01*
X173157068Y-74428996D01*
X173129650Y-74360155D01*
X173108326Y-74234494D01*
X173109760Y-74098558D01*
X173133220Y-73971768D01*
X173177975Y-73873547D01*
X173185857Y-73862231D01*
X173220322Y-73805477D01*
X173234318Y-73769289D01*
X173234797Y-73764282D01*
X173263948Y-73723034D01*
X173328566Y-73677819D01*
X173415108Y-73635421D01*
X173510029Y-73602626D01*
X173599785Y-73586217D01*
X173642470Y-73583687D01*
X173719562Y-73586913D01*
G37*
G36*
X177433897Y-73586840D02*
G01*
X177499036Y-73594079D01*
X177563672Y-73612287D01*
X177619797Y-73649836D01*
X177688096Y-73717342D01*
X177737960Y-73775733D01*
X177789964Y-73851593D01*
X177816550Y-73910640D01*
X177833952Y-73972563D01*
X177863430Y-74048070D01*
X177871673Y-74077828D01*
X177881224Y-74154462D01*
X177888379Y-74263237D01*
X177893155Y-74394785D01*
X177895569Y-74539740D01*
X177895638Y-74688735D01*
X177893378Y-74832403D01*
X177888807Y-74961378D01*
X177881943Y-75066291D01*
X177872801Y-75137777D01*
X177861399Y-75166468D01*
X177843891Y-75179970D01*
X177828768Y-75226141D01*
X177819359Y-75290099D01*
X177770354Y-75394716D01*
X177689956Y-75490715D01*
X177590045Y-75565101D01*
X177482502Y-75604880D01*
X177455142Y-75608556D01*
X177317874Y-75600889D01*
X177191212Y-75554091D01*
X177091926Y-75473790D01*
X177078555Y-75456203D01*
X177028601Y-75363525D01*
X176984553Y-75244875D01*
X176953167Y-75120941D01*
X176941204Y-75012411D01*
X176934460Y-74960554D01*
X176915099Y-74924988D01*
X176912264Y-74921579D01*
X176902558Y-74879362D01*
X176895438Y-74800844D01*
X176890981Y-74698655D01*
X176889261Y-74585427D01*
X176890352Y-74473792D01*
X176894330Y-74376379D01*
X176901270Y-74305821D01*
X176911245Y-74274749D01*
X176924401Y-74245039D01*
X176938359Y-74177589D01*
X176949691Y-74087579D01*
X176962591Y-73991821D01*
X177001564Y-73863709D01*
X177069994Y-73759504D01*
X177176514Y-73663049D01*
X177221957Y-73629573D01*
X177283820Y-73594874D01*
X177346124Y-73583100D01*
X177433897Y-73586840D01*
G37*
G36*
X182782159Y-76665773D02*
G01*
X182862806Y-76667785D01*
X183022190Y-76673335D01*
X183140493Y-76680553D01*
X183225560Y-76690219D01*
X183285237Y-76703114D01*
X183327372Y-76720018D01*
X183346890Y-76731592D01*
X183417030Y-76786374D01*
X183490928Y-76858820D01*
X183557470Y-76936337D01*
X183605546Y-77006330D01*
X183624040Y-77056207D01*
X183627659Y-77083005D01*
X183645661Y-77104742D01*
X183666231Y-77119523D01*
X183688294Y-77177578D01*
X183705183Y-77270788D01*
X183716859Y-77389675D01*
X183723289Y-77524760D01*
X183724434Y-77666563D01*
X183720260Y-77805605D01*
X183710729Y-77932407D01*
X183695805Y-78037490D01*
X183675453Y-78111376D01*
X183649636Y-78144584D01*
X183641240Y-78149233D01*
X183624040Y-78185569D01*
X183623974Y-78187348D01*
X183603452Y-78233279D01*
X183553948Y-78298958D01*
X183486603Y-78372208D01*
X183412560Y-78440851D01*
X183342964Y-78492712D01*
X183316402Y-78508294D01*
X183277165Y-78526147D01*
X183229747Y-78539023D01*
X183165342Y-78548020D01*
X183075146Y-78554238D01*
X182950354Y-78558777D01*
X182782159Y-78562736D01*
X182318799Y-78572434D01*
X182318799Y-76655138D01*
X182782159Y-76665773D01*
G37*
D13*
X140894000Y-120444000D02*
X140894000Y-119114000D01*
X139564000Y-120444000D02*
X140894000Y-120444000D01*
X140894000Y-117844000D02*
X140894000Y-115244000D01*
X138294000Y-117844000D02*
X140894000Y-117844000D01*
X138294000Y-120444000D02*
X138294000Y-117844000D01*
X140894000Y-115244000D02*
X102674000Y-115244000D01*
X138294000Y-120444000D02*
X102674000Y-120444000D01*
X102674000Y-120444000D02*
X102674000Y-115244000D01*
D14*
X203079000Y-72119400D02*
X193544000Y-72119400D01*
X203079000Y-73237000D02*
X203079000Y-72119400D01*
X206558800Y-73237000D02*
X203079000Y-73237000D01*
X206558800Y-82127000D02*
X206558800Y-73237000D01*
X203079000Y-82127000D02*
X206558800Y-82127000D01*
X203079000Y-83244600D02*
X203079000Y-82127000D01*
X193544000Y-83244600D02*
X203079000Y-83244600D01*
X193544000Y-72119400D02*
X193544000Y-83244600D01*
X141549000Y-83224600D02*
X151084000Y-83224600D01*
X141549000Y-82107000D02*
X141549000Y-83224600D01*
X138069200Y-82107000D02*
X141549000Y-82107000D01*
X138069200Y-73217000D02*
X138069200Y-82107000D01*
X141549000Y-73217000D02*
X138069200Y-73217000D01*
X141549000Y-72099400D02*
X141549000Y-73217000D01*
X151084000Y-72099400D02*
X141549000Y-72099400D01*
X151084000Y-83224600D02*
X151084000Y-72099400D01*
D13*
X182728000Y-95960000D02*
X183998000Y-95960000D01*
X182728000Y-94690000D02*
X182728000Y-95960000D01*
X185040929Y-89230000D02*
X185438000Y-89230000D01*
X185040929Y-89990000D02*
X185438000Y-89990000D01*
X194098000Y-89230000D02*
X188098000Y-89230000D01*
X194098000Y-89990000D02*
X194098000Y-89230000D01*
X188098000Y-89990000D02*
X194098000Y-89990000D01*
X185438000Y-90880000D02*
X188098000Y-90880000D01*
X185040929Y-91770000D02*
X185438000Y-91770000D01*
X185040929Y-92530000D02*
X185438000Y-92530000D01*
X194098000Y-91770000D02*
X188098000Y-91770000D01*
X194098000Y-92530000D02*
X194098000Y-91770000D01*
X188098000Y-92530000D02*
X194098000Y-92530000D01*
X185438000Y-93420000D02*
X188098000Y-93420000D01*
X185108000Y-94310000D02*
X185438000Y-94310000D01*
X185108000Y-95070000D02*
X185438000Y-95070000D01*
X188098000Y-94410000D02*
X194098000Y-94410000D01*
X188098000Y-94530000D02*
X194098000Y-94530000D01*
X188098000Y-94650000D02*
X194098000Y-94650000D01*
X188098000Y-94770000D02*
X194098000Y-94770000D01*
X188098000Y-94890000D02*
X194098000Y-94890000D01*
X188098000Y-95010000D02*
X194098000Y-95010000D01*
X194098000Y-94310000D02*
X188098000Y-94310000D01*
X194098000Y-95070000D02*
X194098000Y-94310000D01*
X188098000Y-95070000D02*
X194098000Y-95070000D01*
X188098000Y-96020000D02*
X185438000Y-96020000D01*
X188098000Y-88280000D02*
X188098000Y-96020000D01*
X185438000Y-88280000D02*
X188098000Y-88280000D01*
X185438000Y-96020000D02*
X185438000Y-88280000D01*
D15*
X172821600Y-78760571D02*
X172894171Y-78905714D01*
X172894171Y-79123428D01*
X172821600Y-79341142D01*
X172676457Y-79486285D01*
X172531314Y-79558857D01*
X172241028Y-79631428D01*
X172023314Y-79631428D01*
X171733028Y-79558857D01*
X171587885Y-79486285D01*
X171442742Y-79341142D01*
X171370171Y-79123428D01*
X171370171Y-78978285D01*
X171442742Y-78760571D01*
X171515314Y-78688000D01*
X172023314Y-78688000D01*
X172023314Y-78978285D01*
X172894171Y-77817142D02*
X172531314Y-77817142D01*
X172676457Y-78180000D02*
X172531314Y-77817142D01*
X172676457Y-77454285D01*
X172241028Y-78034857D02*
X172531314Y-77817142D01*
X172241028Y-77599428D01*
X172894171Y-76656000D02*
X172531314Y-76656000D01*
X172676457Y-77018857D02*
X172531314Y-76656000D01*
X172676457Y-76293142D01*
X172241028Y-76873714D02*
X172531314Y-76656000D01*
X172241028Y-76438285D01*
X172894171Y-75494857D02*
X172531314Y-75494857D01*
X172676457Y-75857714D02*
X172531314Y-75494857D01*
X172676457Y-75132000D01*
X172241028Y-75712571D02*
X172531314Y-75494857D01*
X172241028Y-75277142D01*
D12*
X100391980Y-117510666D02*
X101106266Y-117510666D01*
X101249123Y-117463047D01*
X101344361Y-117367809D01*
X101391980Y-117224952D01*
X101391980Y-117129714D01*
X101391980Y-118510666D02*
X101391980Y-117939238D01*
X101391980Y-118224952D02*
X100391980Y-118224952D01*
X100534838Y-118129714D01*
X100630076Y-118034476D01*
X100677695Y-117939238D01*
D16*
X137626485Y-78049142D02*
X137603628Y-77980571D01*
X137580771Y-77957714D01*
X137535057Y-77934857D01*
X137466485Y-77934857D01*
X137420771Y-77957714D01*
X137397914Y-77980571D01*
X137375057Y-78026285D01*
X137375057Y-78209142D01*
X137855057Y-78209142D01*
X137855057Y-78049142D01*
X137832200Y-78003428D01*
X137809342Y-77980571D01*
X137763628Y-77957714D01*
X137717914Y-77957714D01*
X137672200Y-77980571D01*
X137649342Y-78003428D01*
X137626485Y-78049142D01*
X137626485Y-78209142D01*
X137855057Y-77797714D02*
X137855057Y-77523428D01*
X137375057Y-77660571D02*
X137855057Y-77660571D01*
X137375057Y-77112000D02*
X137375057Y-77386285D01*
X137375057Y-77249142D02*
X137855057Y-77249142D01*
X137786485Y-77294857D01*
X137740771Y-77340571D01*
X137717914Y-77386285D01*
X144941657Y-79306285D02*
X144941657Y-79009142D01*
X144758800Y-79169142D01*
X144758800Y-79100571D01*
X144735942Y-79054857D01*
X144713085Y-79032000D01*
X144667371Y-79009142D01*
X144553085Y-79009142D01*
X144507371Y-79032000D01*
X144484514Y-79054857D01*
X144461657Y-79100571D01*
X144461657Y-79237714D01*
X144484514Y-79283428D01*
X144507371Y-79306285D01*
X144507371Y-78803428D02*
X144484514Y-78780571D01*
X144461657Y-78803428D01*
X144484514Y-78826285D01*
X144507371Y-78803428D01*
X144461657Y-78803428D01*
X144941657Y-78620571D02*
X144941657Y-78300571D01*
X144461657Y-78506285D01*
X144941657Y-77820571D02*
X144461657Y-77660571D01*
X144941657Y-77500571D01*
X144461657Y-76746285D02*
X144461657Y-76974857D01*
X144941657Y-76974857D01*
X144461657Y-76586285D02*
X144781657Y-76586285D01*
X144941657Y-76586285D02*
X144918800Y-76609142D01*
X144895942Y-76586285D01*
X144918800Y-76563428D01*
X144941657Y-76586285D01*
X144895942Y-76586285D01*
X144781657Y-76357714D02*
X144301657Y-76357714D01*
X144758800Y-76357714D02*
X144781657Y-76312000D01*
X144781657Y-76220571D01*
X144758800Y-76174857D01*
X144735942Y-76152000D01*
X144690228Y-76129142D01*
X144553085Y-76129142D01*
X144507371Y-76152000D01*
X144484514Y-76174857D01*
X144461657Y-76220571D01*
X144461657Y-76312000D01*
X144484514Y-76357714D01*
X144461657Y-75854857D02*
X144484514Y-75900571D01*
X144507371Y-75923428D01*
X144553085Y-75946285D01*
X144690228Y-75946285D01*
X144735942Y-75923428D01*
X144758800Y-75900571D01*
X144781657Y-75854857D01*
X144781657Y-75786285D01*
X144758800Y-75740571D01*
X144735942Y-75717714D01*
X144690228Y-75694857D01*
X144553085Y-75694857D01*
X144507371Y-75717714D01*
X144484514Y-75740571D01*
X144461657Y-75786285D01*
X144461657Y-75854857D01*
X189204952Y-76473428D02*
X188443047Y-76473428D01*
X154152952Y-76473428D02*
X153391047Y-76473428D01*
X153772000Y-76854380D02*
X153772000Y-76092476D01*
D12*
X180195600Y-89380095D02*
X180147980Y-89284857D01*
X180147980Y-89142000D01*
X180195600Y-88999142D01*
X180290838Y-88903904D01*
X180386076Y-88856285D01*
X180576552Y-88808666D01*
X180719409Y-88808666D01*
X180909885Y-88856285D01*
X181005123Y-88903904D01*
X181100361Y-88999142D01*
X181147980Y-89142000D01*
X181147980Y-89237238D01*
X181100361Y-89380095D01*
X181052742Y-89427714D01*
X180719409Y-89427714D01*
X180719409Y-89237238D01*
X180624171Y-89856285D02*
X180624171Y-90189619D01*
X181147980Y-90332476D02*
X181147980Y-89856285D01*
X180147980Y-89856285D01*
X180147980Y-90332476D01*
X181147980Y-90761047D02*
X180147980Y-90761047D01*
X180195600Y-91761047D02*
X180147980Y-91665809D01*
X180147980Y-91522952D01*
X180195600Y-91380095D01*
X180290838Y-91284857D01*
X180386076Y-91237238D01*
X180576552Y-91189619D01*
X180719409Y-91189619D01*
X180909885Y-91237238D01*
X181005123Y-91284857D01*
X181100361Y-91380095D01*
X181147980Y-91522952D01*
X181147980Y-91618190D01*
X181100361Y-91761047D01*
X181052742Y-91808666D01*
X180719409Y-91808666D01*
X180719409Y-91618190D01*
X180624171Y-92237238D02*
X180624171Y-92570571D01*
X181147980Y-92713428D02*
X181147980Y-92237238D01*
X180147980Y-92237238D01*
X180147980Y-92713428D01*
X181147980Y-93713428D02*
X180671790Y-93380095D01*
X181147980Y-93142000D02*
X180147980Y-93142000D01*
X180147980Y-93522952D01*
X180195600Y-93618190D01*
X180243219Y-93665809D01*
X180338457Y-93713428D01*
X180481314Y-93713428D01*
X180576552Y-93665809D01*
X180624171Y-93618190D01*
X180671790Y-93522952D01*
X180671790Y-93142000D01*
M02*
