G04 #@! TF.GenerationSoftware,KiCad,Pcbnew,5.99.0-unknown-51b9944~86~ubuntu18.04.1*
G04 #@! TF.CreationDate,2020-03-12T08:57:13+09:00*
G04 #@! TF.ProjectId,bGeigieRaku V2,62476569-6769-4655-9261-6b752056322e,rev?*
G04 #@! TF.SameCoordinates,Original*
G04 #@! TF.FileFunction,Copper,L1,Top*
G04 #@! TF.FilePolarity,Positive*
%FSLAX46Y46*%
G04 Gerber Fmt 4.6, Leading zero omitted, Abs format (unit mm)*
G04 Created by KiCad (PCBNEW 5.99.0-unknown-51b9944~86~ubuntu18.04.1) date 2020-03-12 08:57:13*
%MOMM*%
%LPD*%
G01*
G04 APERTURE LIST*
%ADD10C,3.600000*%
%ADD11O,1.700000X1.700000*%
%ADD12R,1.700000X1.700000*%
%ADD13C,2.743200*%
%ADD14C,1.676400*%
%ADD15C,3.000000*%
%ADD16C,0.800000*%
%ADD17C,1.000000*%
%ADD18C,0.250000*%
G04 APERTURE END LIST*
D10*
X172567600Y-126186000D03*
X90271600Y-126186000D03*
X90525600Y-72338000D03*
X209144000Y-72338000D03*
X209143600Y-126186000D03*
D11*
X203048000Y-98246000D03*
X200508000Y-98246000D03*
X197968000Y-98246000D03*
X195428000Y-98246000D03*
X192888000Y-98246000D03*
X190348000Y-98246000D03*
X187808000Y-98246000D03*
X185268000Y-98246000D03*
X182728000Y-98246000D03*
X180188000Y-98246000D03*
X177648000Y-98246000D03*
X175108000Y-98246000D03*
X172568000Y-98246000D03*
X170028000Y-98246000D03*
X167488000Y-98246000D03*
X164948000Y-98246000D03*
X162408000Y-98246000D03*
D12*
X159868000Y-98246000D03*
D11*
X185014000Y-126440000D03*
D12*
X187554000Y-126440000D03*
D11*
X200000000Y-126440000D03*
D12*
X202540000Y-126440000D03*
D11*
X200000000Y-111454000D03*
D12*
X202540000Y-111454000D03*
D11*
X185014000Y-111454000D03*
D12*
X187554000Y-111454000D03*
D11*
X104004000Y-116574000D03*
X104004000Y-119114000D03*
X106544000Y-116574000D03*
X106544000Y-119114000D03*
X109084000Y-116574000D03*
X109084000Y-119114000D03*
X111624000Y-116574000D03*
X111624000Y-119114000D03*
X114164000Y-116574000D03*
X114164000Y-119114000D03*
X116704000Y-116574000D03*
X116704000Y-119114000D03*
X119244000Y-116574000D03*
X119244000Y-119114000D03*
X121784000Y-116574000D03*
X121784000Y-119114000D03*
X124324000Y-116574000D03*
X124324000Y-119114000D03*
X126864000Y-116574000D03*
X126864000Y-119114000D03*
X129404000Y-116574000D03*
X129404000Y-119114000D03*
X131944000Y-116574000D03*
X131944000Y-119114000D03*
X134484000Y-116574000D03*
X134484000Y-119114000D03*
X137024000Y-116574000D03*
X137024000Y-119114000D03*
X139564000Y-116574000D03*
D12*
X139564000Y-119114000D03*
D13*
X196194000Y-75142000D03*
X202942000Y-77682000D03*
X196194000Y-80222000D03*
X148434000Y-80202000D03*
X141686000Y-77662000D03*
X148434000Y-75122000D03*
D11*
X203048000Y-101294000D03*
X200508000Y-101294000D03*
X197968000Y-101294000D03*
X195428000Y-101294000D03*
X192888000Y-101294000D03*
X190348000Y-101294000D03*
X187808000Y-101294000D03*
X185268000Y-101294000D03*
X182728000Y-101294000D03*
X180188000Y-101294000D03*
X177648000Y-101294000D03*
X175108000Y-101294000D03*
X172568000Y-101294000D03*
X170028000Y-101294000D03*
X167488000Y-101294000D03*
X164948000Y-101294000D03*
X162408000Y-101294000D03*
D12*
X159868000Y-101294000D03*
D11*
X203048000Y-104342000D03*
X200508000Y-104342000D03*
X197968000Y-104342000D03*
X195428000Y-104342000D03*
X192888000Y-104342000D03*
X190348000Y-104342000D03*
X187808000Y-104342000D03*
X185268000Y-104342000D03*
X182728000Y-104342000D03*
X180188000Y-104342000D03*
X177648000Y-104342000D03*
X175108000Y-104342000D03*
X172568000Y-104342000D03*
X170028000Y-104342000D03*
X167488000Y-104342000D03*
X164948000Y-104342000D03*
X162408000Y-104342000D03*
D12*
X159868000Y-104342000D03*
D11*
X203048000Y-107390000D03*
X200508000Y-107390000D03*
X197968000Y-107390000D03*
X195428000Y-107390000D03*
X192888000Y-107390000D03*
X190348000Y-107390000D03*
X187808000Y-107390000D03*
X185268000Y-107390000D03*
X182728000Y-107390000D03*
X180188000Y-107390000D03*
X177648000Y-107390000D03*
X175108000Y-107390000D03*
X172568000Y-107390000D03*
X170028000Y-107390000D03*
X167488000Y-107390000D03*
X164948000Y-107390000D03*
X162408000Y-107390000D03*
D12*
X159868000Y-107390000D03*
D14*
X180823000Y-82244000D03*
X190983000Y-82244000D03*
X190983000Y-86054000D03*
X180823000Y-86054000D03*
X200762000Y-86054000D03*
X198222000Y-86054000D03*
X183744000Y-76148000D03*
D15*
X177494000Y-76148000D03*
X189994000Y-76148000D03*
D14*
X186744000Y-76148000D03*
X180744000Y-76148000D03*
D11*
X180061000Y-113740000D03*
X180061000Y-116280000D03*
X180061000Y-118820000D03*
D12*
X180061000Y-121360000D03*
D11*
X183998000Y-89610000D03*
X183998000Y-92150000D03*
D12*
X183998000Y-94690000D03*
D16*
X153862100Y-100543900D03*
X144036500Y-102818000D03*
D17*
X187554000Y-111454000D02*
X185703700Y-111454000D01*
X185014000Y-112379100D02*
X185703700Y-111689400D01*
X185014000Y-112379100D02*
X185014000Y-113304300D01*
X185014000Y-111454000D02*
X185014000Y-112379100D01*
X180061000Y-121360000D02*
X181911300Y-121360000D01*
X181911300Y-121360000D02*
X181911300Y-116407000D01*
X181911300Y-116407000D02*
X185014000Y-113304300D01*
X159868000Y-98246000D02*
X159868000Y-96395700D01*
X183998000Y-94690000D02*
X185848300Y-94690000D01*
X185848300Y-94690000D02*
X185848300Y-88786500D01*
X185848300Y-88786500D02*
X184801200Y-87739400D01*
X184801200Y-87739400D02*
X183245100Y-87739400D01*
X183245100Y-87739400D02*
X183092000Y-87892500D01*
X183092000Y-87892500D02*
X168371200Y-87892500D01*
X168371200Y-87892500D02*
X159868000Y-96395700D01*
X137024000Y-119114000D02*
X134484000Y-119114000D01*
X139564000Y-119114000D02*
X137024000Y-119114000D01*
X159868000Y-101294000D02*
X159868000Y-98246000D01*
X180744000Y-76767100D02*
X190030900Y-86054000D01*
X190030900Y-86054000D02*
X190983000Y-86054000D01*
X180744000Y-76767100D02*
X177367300Y-80143800D01*
X177367300Y-80143800D02*
X153329200Y-80143800D01*
X153329200Y-80143800D02*
X142798700Y-90674300D01*
X142798700Y-90674300D02*
X128053400Y-90674300D01*
X128053400Y-90674300D02*
X104004000Y-114723700D01*
X104004000Y-116574000D02*
X104004000Y-114723700D01*
D18*
X121784000Y-116574000D02*
X122959300Y-116574000D01*
X180061000Y-116280000D02*
X178885700Y-116280000D01*
X178885700Y-116280000D02*
X177698300Y-115092600D01*
X177698300Y-115092600D02*
X124073300Y-115092600D01*
X124073300Y-115092600D02*
X122959300Y-116206600D01*
X122959300Y-116206600D02*
X122959300Y-116574000D01*
X122959300Y-119114000D02*
X122959300Y-119481300D01*
X122959300Y-119481300D02*
X124074900Y-120596900D01*
X124074900Y-120596900D02*
X177108800Y-120596900D01*
X177108800Y-120596900D02*
X178885700Y-118820000D01*
X180061000Y-118820000D02*
X178885700Y-118820000D01*
X121784000Y-119114000D02*
X122959300Y-119114000D01*
X180823000Y-86054000D02*
X168352000Y-86054000D01*
X168352000Y-86054000D02*
X153862100Y-100543900D01*
D17*
X183998000Y-89610000D02*
X169193700Y-89610000D01*
X169193700Y-89610000D02*
X162408000Y-96395700D01*
X162408000Y-101294000D02*
X162408000Y-98246000D01*
X162408000Y-98246000D02*
X162408000Y-96395700D01*
X106544000Y-114723700D02*
X112027400Y-109240300D01*
X112027400Y-109240300D02*
X164948000Y-109240300D01*
X106544000Y-116574000D02*
X106544000Y-114723700D01*
X164948000Y-107390000D02*
X164948000Y-109240300D01*
X164948000Y-101294000D02*
X164948000Y-98246000D01*
D18*
X176472700Y-101294000D02*
X176472700Y-101661400D01*
X176472700Y-101661400D02*
X175664800Y-102469300D01*
X175664800Y-102469300D02*
X172772100Y-102469300D01*
X172772100Y-102469300D02*
X171392600Y-103848800D01*
X171392600Y-103848800D02*
X171392600Y-104660000D01*
X171392600Y-104660000D02*
X170092000Y-105960600D01*
X170092000Y-105960600D02*
X169758400Y-105960600D01*
X169758400Y-105960600D02*
X168758000Y-106961000D01*
X168758000Y-106961000D02*
X168758000Y-107784300D01*
X168758000Y-107784300D02*
X162504800Y-114037500D01*
X162504800Y-114037500D02*
X114968400Y-114037500D01*
X114968400Y-114037500D02*
X112799300Y-116206600D01*
X112799300Y-116206600D02*
X112799300Y-116574000D01*
X111624000Y-116574000D02*
X112799300Y-116574000D01*
X177648000Y-101294000D02*
X176472700Y-101294000D01*
X119244000Y-116574000D02*
X120419300Y-116574000D01*
X175108000Y-101294000D02*
X176292300Y-100109700D01*
X176292300Y-100109700D02*
X178182700Y-100109700D01*
X178182700Y-100109700D02*
X178856300Y-100783300D01*
X178856300Y-100783300D02*
X178856300Y-101882300D01*
X178856300Y-101882300D02*
X177724300Y-103014300D01*
X177724300Y-103014300D02*
X174761200Y-103014300D01*
X174761200Y-103014300D02*
X173838000Y-103937500D01*
X173838000Y-103937500D02*
X173838000Y-107842300D01*
X173838000Y-107842300D02*
X167137900Y-114542400D01*
X167137900Y-114542400D02*
X122083600Y-114542400D01*
X122083600Y-114542400D02*
X120419300Y-116206700D01*
X120419300Y-116206700D02*
X120419300Y-116574000D01*
X167488000Y-101294000D02*
X165964000Y-102818000D01*
X165964000Y-102818000D02*
X144036500Y-102818000D01*
D17*
X183744000Y-76148000D02*
X183744000Y-77605100D01*
X183744000Y-77605100D02*
X190221400Y-84082500D01*
X190221400Y-84082500D02*
X191694600Y-84082500D01*
X191694600Y-84082500D02*
X204906800Y-97294700D01*
X204906800Y-97294700D02*
X204906800Y-112209100D01*
X204906800Y-112209100D02*
X190675900Y-126440000D01*
X190675900Y-126440000D02*
X187554000Y-126440000D01*
X187554000Y-126440000D02*
X185014000Y-126440000D01*
X202540000Y-111454000D02*
X200000000Y-111454000D01*
X202540000Y-126440000D02*
X200000000Y-126440000D01*
M02*
