G04 #@! TF.GenerationSoftware,KiCad,Pcbnew,(5.99.0-237-g844f45605)*
G04 #@! TF.CreationDate,2019-10-21T15:13:03+09:00*
G04 #@! TF.ProjectId,M5_board,4d355f62-6f61-4726-942e-6b696361645f,rev?*
G04 #@! TF.SameCoordinates,Original*
G04 #@! TF.FileFunction,Profile,NP*
%FSLAX46Y46*%
G04 Gerber Fmt 4.6, Leading zero omitted, Abs format (unit mm)*
G04 Created by KiCad (PCBNEW (5.99.0-237-g844f45605)) date 2019-10-21 15:13:03*
%MOMM*%
%LPD*%
G04 APERTURE LIST*
%ADD10C,0.150000*%
G04 APERTURE END LIST*
D10*
X159732000Y-130350000D02*
G75*
G02X181074960Y-130343821I10674960J-12016488D01*
G01*
X159732000Y-130350000D02*
X135991600Y-130292603D01*
X205325000Y-130350000D02*
X181074960Y-130343821D01*
X135998560Y-66743821D02*
X160248600Y-66750000D01*
X181591560Y-66743821D02*
G75*
G02X160248600Y-66750000I-10674960J12016488D01*
G01*
X181591560Y-66743821D02*
X205333600Y-66750000D01*
X211732112Y-109174960D02*
G75*
G02X211725933Y-87832000I12016488J10674960D01*
G01*
X211675000Y-124000000D02*
X211732112Y-109174960D01*
X211725933Y-87832000D02*
X211708600Y-73100000D01*
X84641267Y-109168000D02*
X84650000Y-124000000D01*
X84683600Y-73100000D02*
X84635088Y-87825040D01*
X84635088Y-87825040D02*
G75*
G02X84641267Y-109168000I-12016488J-10674960D01*
G01*
X91000000Y-130350000D02*
X114648640Y-130298782D01*
X91033600Y-66750000D02*
X114655600Y-66750000D01*
X114648640Y-130298782D02*
G75*
G02X135991600Y-130292603I10674960J-12016488D01*
G01*
X135998560Y-66743821D02*
G75*
G02X114655600Y-66750000I-10674960J12016488D01*
G01*
X84683600Y-73100000D02*
G75*
G02X91033600Y-66750000I6350000J0D01*
G01*
X205333600Y-66750049D02*
G75*
G02X211708600Y-73100000I25000J-6349951D01*
G01*
X211675000Y-124000000D02*
G75*
G02X205325000Y-130350000I-6350000J0D01*
G01*
X91000000Y-130350000D02*
G75*
G02X84650000Y-124000000I0J6350000D01*
G01*
M02*
