M48
; DRILL file {KiCad 7.99.0-unknown-07d7ccf46f~176~ubuntu22.04.1} date 2024-01-11T12:25:35+0900
; FORMAT={-:-/ absolute / metric / decimal}
; #@! TF.CreationDate,2024-01-11T12:25:35+09:00
; #@! TF.GenerationSoftware,Kicad,Pcbnew,7.99.0-unknown-07d7ccf46f~176~ubuntu22.04.1
; #@! TF.FileFunction,Plated,1,2,PTH
FMAT,2
METRIC
; #@! TA.AperFunction,Plated,PTH,ViaDrill
T1C0.400
; #@! TA.AperFunction,Plated,PTH,ComponentDrill
T2C0.800
; #@! TA.AperFunction,Plated,PTH,ComponentDrill
T3C1.000
; #@! TA.AperFunction,Plated,PTH,ComponentDrill
T4C1.829
; #@! TA.AperFunction,Plated,PTH,ComponentDrill
T5C2.200
%
G90
G05
T1
X32.604Y-36.844
X35.017Y-40.654
X64.815Y-38.188
X82.694Y-27.88
T2
X68.014Y-42.353
X68.014Y-44.353
X68.014Y-46.353
X68.014Y-48.353
X91.072Y-2.022
X94.072Y-2.022
X97.072Y-2.022
T3
X15.459Y-44.591
X15.459Y-47.131
X17.999Y-44.591
X17.999Y-47.131
X20.539Y-44.591
X20.539Y-47.131
X23.079Y-44.591
X23.079Y-47.131
X25.619Y-44.591
X25.619Y-47.131
X28.159Y-44.591
X28.159Y-47.131
X30.699Y-44.591
X30.699Y-47.131
X33.239Y-44.591
X33.239Y-47.131
X35.779Y-44.591
X35.779Y-47.131
X38.319Y-44.591
X38.319Y-47.131
X40.859Y-44.591
X40.859Y-47.131
X43.399Y-44.591
X43.399Y-47.131
X45.939Y-44.591
X45.939Y-47.131
X48.479Y-44.591
X48.479Y-47.131
X51.019Y-44.591
X51.019Y-47.131
X62.551Y-13.984
X62.551Y-16.524
X62.551Y-19.064
X62.551Y-21.604
X62.551Y-24.144
X62.551Y-26.684
X70.688Y-32.569
X70.688Y-35.109
X92.649Y-18.607
X92.649Y-21.147
X92.7Y-30.069
X92.7Y-33.035
X100.634Y-18.654
X103.174Y-18.654
X105.714Y-18.654
X116.674Y-23.514
X116.674Y-26.054
X116.674Y-28.595
X117.059Y-18.683
X117.064Y-33.161
X119.599Y-18.683
X119.604Y-33.161
T4
X56.236Y-45.314
X62.984Y-42.774
X62.984Y-47.854
X110.744Y-42.794
X110.744Y-47.874
X117.492Y-45.334
T5
X87.822Y-2.022
X100.322Y-2.022
M30
