%TF.GenerationSoftware,KiCad,Pcbnew,7.99.0-unknown-07d7ccf46f~176~ubuntu22.04.1*%
%TF.CreationDate,2024-01-11T12:25:35+09:00*%
%TF.ProjectId,bGeigieZen 3.0.1 production,62476569-6769-4655-9a65-6e20332e302e,V3.0.1*%
%TF.SameCoordinates,Original*%
%TF.FileFunction,Legend,Bot*%
%TF.FilePolarity,Positive*%
%FSLAX46Y46*%
G04 Gerber Fmt 4.6, Leading zero omitted, Abs format (unit mm)*
G04 Created by KiCad (PCBNEW 7.99.0-unknown-07d7ccf46f~176~ubuntu22.04.1) date 2024-01-11 12:25:35*
%MOMM*%
%LPD*%
G01*
G04 APERTURE LIST*
%ADD10C,0.300000*%
%ADD11C,0.050000*%
%ADD12C,0.750000*%
%ADD13C,0.203200*%
%ADD14C,0.000000*%
%ADD15R,1.700000X1.700000*%
%ADD16O,1.700000X1.700000*%
%ADD17C,1.879600*%
%ADD18C,3.203200*%
%ADD19C,5.000000*%
%ADD20R,1.350000X1.350000*%
%ADD21O,1.350000X1.350000*%
%ADD22C,2.743200*%
%ADD23R,12.000000X12.000000*%
G04 APERTURE END LIST*
D10*
X107378370Y-22973400D02*
X107164085Y-23044828D01*
X107164085Y-23044828D02*
X106806942Y-23044828D01*
X106806942Y-23044828D02*
X106664085Y-22973400D01*
X106664085Y-22973400D02*
X106592656Y-22901971D01*
X106592656Y-22901971D02*
X106521227Y-22759114D01*
X106521227Y-22759114D02*
X106521227Y-22616257D01*
X106521227Y-22616257D02*
X106592656Y-22473400D01*
X106592656Y-22473400D02*
X106664085Y-22401971D01*
X106664085Y-22401971D02*
X106806942Y-22330542D01*
X106806942Y-22330542D02*
X107092656Y-22259114D01*
X107092656Y-22259114D02*
X107235513Y-22187685D01*
X107235513Y-22187685D02*
X107306942Y-22116257D01*
X107306942Y-22116257D02*
X107378370Y-21973400D01*
X107378370Y-21973400D02*
X107378370Y-21830542D01*
X107378370Y-21830542D02*
X107306942Y-21687685D01*
X107306942Y-21687685D02*
X107235513Y-21616257D01*
X107235513Y-21616257D02*
X107092656Y-21544828D01*
X107092656Y-21544828D02*
X106735513Y-21544828D01*
X106735513Y-21544828D02*
X106521227Y-21616257D01*
X105235514Y-23044828D02*
X105235514Y-22259114D01*
X105235514Y-22259114D02*
X105306942Y-22116257D01*
X105306942Y-22116257D02*
X105449799Y-22044828D01*
X105449799Y-22044828D02*
X105735514Y-22044828D01*
X105735514Y-22044828D02*
X105878371Y-22116257D01*
X105235514Y-22973400D02*
X105378371Y-23044828D01*
X105378371Y-23044828D02*
X105735514Y-23044828D01*
X105735514Y-23044828D02*
X105878371Y-22973400D01*
X105878371Y-22973400D02*
X105949799Y-22830542D01*
X105949799Y-22830542D02*
X105949799Y-22687685D01*
X105949799Y-22687685D02*
X105878371Y-22544828D01*
X105878371Y-22544828D02*
X105735514Y-22473400D01*
X105735514Y-22473400D02*
X105378371Y-22473400D01*
X105378371Y-22473400D02*
X105235514Y-22401971D01*
X104735513Y-22044828D02*
X104164085Y-22044828D01*
X104521228Y-23044828D02*
X104521228Y-21759114D01*
X104521228Y-21759114D02*
X104449799Y-21616257D01*
X104449799Y-21616257D02*
X104306942Y-21544828D01*
X104306942Y-21544828D02*
X104164085Y-21544828D01*
X103092656Y-22973400D02*
X103235513Y-23044828D01*
X103235513Y-23044828D02*
X103521228Y-23044828D01*
X103521228Y-23044828D02*
X103664085Y-22973400D01*
X103664085Y-22973400D02*
X103735513Y-22830542D01*
X103735513Y-22830542D02*
X103735513Y-22259114D01*
X103735513Y-22259114D02*
X103664085Y-22116257D01*
X103664085Y-22116257D02*
X103521228Y-22044828D01*
X103521228Y-22044828D02*
X103235513Y-22044828D01*
X103235513Y-22044828D02*
X103092656Y-22116257D01*
X103092656Y-22116257D02*
X103021228Y-22259114D01*
X103021228Y-22259114D02*
X103021228Y-22401971D01*
X103021228Y-22401971D02*
X103735513Y-22544828D01*
X102378371Y-22044828D02*
X102378371Y-23544828D01*
X102378371Y-22116257D02*
X102235514Y-22044828D01*
X102235514Y-22044828D02*
X101949799Y-22044828D01*
X101949799Y-22044828D02*
X101806942Y-22116257D01*
X101806942Y-22116257D02*
X101735514Y-22187685D01*
X101735514Y-22187685D02*
X101664085Y-22330542D01*
X101664085Y-22330542D02*
X101664085Y-22759114D01*
X101664085Y-22759114D02*
X101735514Y-22901971D01*
X101735514Y-22901971D02*
X101806942Y-22973400D01*
X101806942Y-22973400D02*
X101949799Y-23044828D01*
X101949799Y-23044828D02*
X102235514Y-23044828D01*
X102235514Y-23044828D02*
X102378371Y-22973400D01*
X100378371Y-22044828D02*
X100378371Y-23044828D01*
X101021228Y-22044828D02*
X101021228Y-22830542D01*
X101021228Y-22830542D02*
X100949799Y-22973400D01*
X100949799Y-22973400D02*
X100806942Y-23044828D01*
X100806942Y-23044828D02*
X100592656Y-23044828D01*
X100592656Y-23044828D02*
X100449799Y-22973400D01*
X100449799Y-22973400D02*
X100378371Y-22901971D01*
X99449799Y-23044828D02*
X99592656Y-22973400D01*
X99592656Y-22973400D02*
X99664085Y-22830542D01*
X99664085Y-22830542D02*
X99664085Y-21544828D01*
X98949799Y-22973400D02*
X98806942Y-23044828D01*
X98806942Y-23044828D02*
X98521228Y-23044828D01*
X98521228Y-23044828D02*
X98378371Y-22973400D01*
X98378371Y-22973400D02*
X98306942Y-22830542D01*
X98306942Y-22830542D02*
X98306942Y-22759114D01*
X98306942Y-22759114D02*
X98378371Y-22616257D01*
X98378371Y-22616257D02*
X98521228Y-22544828D01*
X98521228Y-22544828D02*
X98735514Y-22544828D01*
X98735514Y-22544828D02*
X98878371Y-22473400D01*
X98878371Y-22473400D02*
X98949799Y-22330542D01*
X98949799Y-22330542D02*
X98949799Y-22259114D01*
X98949799Y-22259114D02*
X98878371Y-22116257D01*
X98878371Y-22116257D02*
X98735514Y-22044828D01*
X98735514Y-22044828D02*
X98521228Y-22044828D01*
X98521228Y-22044828D02*
X98378371Y-22116257D01*
X97092656Y-22973400D02*
X97235513Y-23044828D01*
X97235513Y-23044828D02*
X97521228Y-23044828D01*
X97521228Y-23044828D02*
X97664085Y-22973400D01*
X97664085Y-22973400D02*
X97735513Y-22830542D01*
X97735513Y-22830542D02*
X97735513Y-22259114D01*
X97735513Y-22259114D02*
X97664085Y-22116257D01*
X97664085Y-22116257D02*
X97521228Y-22044828D01*
X97521228Y-22044828D02*
X97235513Y-22044828D01*
X97235513Y-22044828D02*
X97092656Y-22116257D01*
X97092656Y-22116257D02*
X97021228Y-22259114D01*
X97021228Y-22259114D02*
X97021228Y-22401971D01*
X97021228Y-22401971D02*
X97735513Y-22544828D01*
X65635557Y-19009072D02*
X65564128Y-18866215D01*
X65564128Y-18866215D02*
X65564128Y-18651929D01*
X65564128Y-18651929D02*
X65635557Y-18437643D01*
X65635557Y-18437643D02*
X65778414Y-18294786D01*
X65778414Y-18294786D02*
X65921271Y-18223357D01*
X65921271Y-18223357D02*
X66206985Y-18151929D01*
X66206985Y-18151929D02*
X66421271Y-18151929D01*
X66421271Y-18151929D02*
X66706985Y-18223357D01*
X66706985Y-18223357D02*
X66849842Y-18294786D01*
X66849842Y-18294786D02*
X66992700Y-18437643D01*
X66992700Y-18437643D02*
X67064128Y-18651929D01*
X67064128Y-18651929D02*
X67064128Y-18794786D01*
X67064128Y-18794786D02*
X66992700Y-19009072D01*
X66992700Y-19009072D02*
X66921271Y-19080500D01*
X66921271Y-19080500D02*
X66421271Y-19080500D01*
X66421271Y-19080500D02*
X66421271Y-18794786D01*
X67064128Y-19723357D02*
X65564128Y-19723357D01*
X65564128Y-19723357D02*
X65564128Y-20294786D01*
X65564128Y-20294786D02*
X65635557Y-20437643D01*
X65635557Y-20437643D02*
X65706985Y-20509072D01*
X65706985Y-20509072D02*
X65849842Y-20580500D01*
X65849842Y-20580500D02*
X66064128Y-20580500D01*
X66064128Y-20580500D02*
X66206985Y-20509072D01*
X66206985Y-20509072D02*
X66278414Y-20437643D01*
X66278414Y-20437643D02*
X66349842Y-20294786D01*
X66349842Y-20294786D02*
X66349842Y-19723357D01*
X66992700Y-21151929D02*
X67064128Y-21366215D01*
X67064128Y-21366215D02*
X67064128Y-21723357D01*
X67064128Y-21723357D02*
X66992700Y-21866215D01*
X66992700Y-21866215D02*
X66921271Y-21937643D01*
X66921271Y-21937643D02*
X66778414Y-22009072D01*
X66778414Y-22009072D02*
X66635557Y-22009072D01*
X66635557Y-22009072D02*
X66492700Y-21937643D01*
X66492700Y-21937643D02*
X66421271Y-21866215D01*
X66421271Y-21866215D02*
X66349842Y-21723357D01*
X66349842Y-21723357D02*
X66278414Y-21437643D01*
X66278414Y-21437643D02*
X66206985Y-21294786D01*
X66206985Y-21294786D02*
X66135557Y-21223357D01*
X66135557Y-21223357D02*
X65992700Y-21151929D01*
X65992700Y-21151929D02*
X65849842Y-21151929D01*
X65849842Y-21151929D02*
X65706985Y-21223357D01*
X65706985Y-21223357D02*
X65635557Y-21294786D01*
X65635557Y-21294786D02*
X65564128Y-21437643D01*
X65564128Y-21437643D02*
X65564128Y-21794786D01*
X65564128Y-21794786D02*
X65635557Y-22009072D01*
X11754670Y-11745010D02*
X10254670Y-11745010D01*
X10826099Y-11745010D02*
X10754670Y-11887868D01*
X10754670Y-11887868D02*
X10754670Y-12173582D01*
X10754670Y-12173582D02*
X10826099Y-12316439D01*
X10826099Y-12316439D02*
X10897527Y-12387868D01*
X10897527Y-12387868D02*
X11040384Y-12459296D01*
X11040384Y-12459296D02*
X11468956Y-12459296D01*
X11468956Y-12459296D02*
X11611813Y-12387868D01*
X11611813Y-12387868D02*
X11683242Y-12316439D01*
X11683242Y-12316439D02*
X11754670Y-12173582D01*
X11754670Y-12173582D02*
X11754670Y-11887868D01*
X11754670Y-11887868D02*
X11683242Y-11745010D01*
X10326099Y-13887868D02*
X10254670Y-13745011D01*
X10254670Y-13745011D02*
X10254670Y-13530725D01*
X10254670Y-13530725D02*
X10326099Y-13316439D01*
X10326099Y-13316439D02*
X10468956Y-13173582D01*
X10468956Y-13173582D02*
X10611813Y-13102153D01*
X10611813Y-13102153D02*
X10897527Y-13030725D01*
X10897527Y-13030725D02*
X11111813Y-13030725D01*
X11111813Y-13030725D02*
X11397527Y-13102153D01*
X11397527Y-13102153D02*
X11540384Y-13173582D01*
X11540384Y-13173582D02*
X11683242Y-13316439D01*
X11683242Y-13316439D02*
X11754670Y-13530725D01*
X11754670Y-13530725D02*
X11754670Y-13673582D01*
X11754670Y-13673582D02*
X11683242Y-13887868D01*
X11683242Y-13887868D02*
X11611813Y-13959296D01*
X11611813Y-13959296D02*
X11111813Y-13959296D01*
X11111813Y-13959296D02*
X11111813Y-13673582D01*
X11683242Y-15173582D02*
X11754670Y-15030725D01*
X11754670Y-15030725D02*
X11754670Y-14745011D01*
X11754670Y-14745011D02*
X11683242Y-14602153D01*
X11683242Y-14602153D02*
X11540384Y-14530725D01*
X11540384Y-14530725D02*
X10968956Y-14530725D01*
X10968956Y-14530725D02*
X10826099Y-14602153D01*
X10826099Y-14602153D02*
X10754670Y-14745011D01*
X10754670Y-14745011D02*
X10754670Y-15030725D01*
X10754670Y-15030725D02*
X10826099Y-15173582D01*
X10826099Y-15173582D02*
X10968956Y-15245011D01*
X10968956Y-15245011D02*
X11111813Y-15245011D01*
X11111813Y-15245011D02*
X11254670Y-14530725D01*
X11754670Y-15887867D02*
X10754670Y-15887867D01*
X10254670Y-15887867D02*
X10326099Y-15816439D01*
X10326099Y-15816439D02*
X10397527Y-15887867D01*
X10397527Y-15887867D02*
X10326099Y-15959296D01*
X10326099Y-15959296D02*
X10254670Y-15887867D01*
X10254670Y-15887867D02*
X10397527Y-15887867D01*
X10754670Y-17245011D02*
X11968956Y-17245011D01*
X11968956Y-17245011D02*
X12111813Y-17173582D01*
X12111813Y-17173582D02*
X12183242Y-17102153D01*
X12183242Y-17102153D02*
X12254670Y-16959296D01*
X12254670Y-16959296D02*
X12254670Y-16745011D01*
X12254670Y-16745011D02*
X12183242Y-16602153D01*
X11683242Y-17245011D02*
X11754670Y-17102153D01*
X11754670Y-17102153D02*
X11754670Y-16816439D01*
X11754670Y-16816439D02*
X11683242Y-16673582D01*
X11683242Y-16673582D02*
X11611813Y-16602153D01*
X11611813Y-16602153D02*
X11468956Y-16530725D01*
X11468956Y-16530725D02*
X11040384Y-16530725D01*
X11040384Y-16530725D02*
X10897527Y-16602153D01*
X10897527Y-16602153D02*
X10826099Y-16673582D01*
X10826099Y-16673582D02*
X10754670Y-16816439D01*
X10754670Y-16816439D02*
X10754670Y-17102153D01*
X10754670Y-17102153D02*
X10826099Y-17245011D01*
X11754670Y-17959296D02*
X10754670Y-17959296D01*
X10254670Y-17959296D02*
X10326099Y-17887868D01*
X10326099Y-17887868D02*
X10397527Y-17959296D01*
X10397527Y-17959296D02*
X10326099Y-18030725D01*
X10326099Y-18030725D02*
X10254670Y-17959296D01*
X10254670Y-17959296D02*
X10397527Y-17959296D01*
X11683242Y-19245011D02*
X11754670Y-19102154D01*
X11754670Y-19102154D02*
X11754670Y-18816440D01*
X11754670Y-18816440D02*
X11683242Y-18673582D01*
X11683242Y-18673582D02*
X11540384Y-18602154D01*
X11540384Y-18602154D02*
X10968956Y-18602154D01*
X10968956Y-18602154D02*
X10826099Y-18673582D01*
X10826099Y-18673582D02*
X10754670Y-18816440D01*
X10754670Y-18816440D02*
X10754670Y-19102154D01*
X10754670Y-19102154D02*
X10826099Y-19245011D01*
X10826099Y-19245011D02*
X10968956Y-19316440D01*
X10968956Y-19316440D02*
X11111813Y-19316440D01*
X11111813Y-19316440D02*
X11254670Y-18602154D01*
X10254670Y-19816439D02*
X10254670Y-20816439D01*
X10254670Y-20816439D02*
X11754670Y-19816439D01*
X11754670Y-19816439D02*
X11754670Y-20816439D01*
X11683242Y-21959296D02*
X11754670Y-21816439D01*
X11754670Y-21816439D02*
X11754670Y-21530725D01*
X11754670Y-21530725D02*
X11683242Y-21387867D01*
X11683242Y-21387867D02*
X11540384Y-21316439D01*
X11540384Y-21316439D02*
X10968956Y-21316439D01*
X10968956Y-21316439D02*
X10826099Y-21387867D01*
X10826099Y-21387867D02*
X10754670Y-21530725D01*
X10754670Y-21530725D02*
X10754670Y-21816439D01*
X10754670Y-21816439D02*
X10826099Y-21959296D01*
X10826099Y-21959296D02*
X10968956Y-22030725D01*
X10968956Y-22030725D02*
X11111813Y-22030725D01*
X11111813Y-22030725D02*
X11254670Y-21316439D01*
X10754670Y-22673581D02*
X11754670Y-22673581D01*
X10897527Y-22673581D02*
X10826099Y-22745010D01*
X10826099Y-22745010D02*
X10754670Y-22887867D01*
X10754670Y-22887867D02*
X10754670Y-23102153D01*
X10754670Y-23102153D02*
X10826099Y-23245010D01*
X10826099Y-23245010D02*
X10968956Y-23316439D01*
X10968956Y-23316439D02*
X11754670Y-23316439D01*
X12669586Y-11530725D02*
X14169586Y-12030725D01*
X14169586Y-12030725D02*
X12669586Y-12530725D01*
X12669586Y-12887867D02*
X12669586Y-13816439D01*
X12669586Y-13816439D02*
X13241015Y-13316439D01*
X13241015Y-13316439D02*
X13241015Y-13530724D01*
X13241015Y-13530724D02*
X13312443Y-13673582D01*
X13312443Y-13673582D02*
X13383872Y-13745010D01*
X13383872Y-13745010D02*
X13526729Y-13816439D01*
X13526729Y-13816439D02*
X13883872Y-13816439D01*
X13883872Y-13816439D02*
X14026729Y-13745010D01*
X14026729Y-13745010D02*
X14098158Y-13673582D01*
X14098158Y-13673582D02*
X14169586Y-13530724D01*
X14169586Y-13530724D02*
X14169586Y-13102153D01*
X14169586Y-13102153D02*
X14098158Y-12959296D01*
X14098158Y-12959296D02*
X14026729Y-12887867D01*
X14026729Y-14459295D02*
X14098158Y-14530724D01*
X14098158Y-14530724D02*
X14169586Y-14459295D01*
X14169586Y-14459295D02*
X14098158Y-14387867D01*
X14098158Y-14387867D02*
X14026729Y-14459295D01*
X14026729Y-14459295D02*
X14169586Y-14459295D01*
X12669586Y-15459296D02*
X12669586Y-15602153D01*
X12669586Y-15602153D02*
X12741015Y-15745010D01*
X12741015Y-15745010D02*
X12812443Y-15816439D01*
X12812443Y-15816439D02*
X12955300Y-15887867D01*
X12955300Y-15887867D02*
X13241015Y-15959296D01*
X13241015Y-15959296D02*
X13598158Y-15959296D01*
X13598158Y-15959296D02*
X13883872Y-15887867D01*
X13883872Y-15887867D02*
X14026729Y-15816439D01*
X14026729Y-15816439D02*
X14098158Y-15745010D01*
X14098158Y-15745010D02*
X14169586Y-15602153D01*
X14169586Y-15602153D02*
X14169586Y-15459296D01*
X14169586Y-15459296D02*
X14098158Y-15316439D01*
X14098158Y-15316439D02*
X14026729Y-15245010D01*
X14026729Y-15245010D02*
X13883872Y-15173581D01*
X13883872Y-15173581D02*
X13598158Y-15102153D01*
X13598158Y-15102153D02*
X13241015Y-15102153D01*
X13241015Y-15102153D02*
X12955300Y-15173581D01*
X12955300Y-15173581D02*
X12812443Y-15245010D01*
X12812443Y-15245010D02*
X12741015Y-15316439D01*
X12741015Y-15316439D02*
X12669586Y-15459296D01*
X14026729Y-16602152D02*
X14098158Y-16673581D01*
X14098158Y-16673581D02*
X14169586Y-16602152D01*
X14169586Y-16602152D02*
X14098158Y-16530724D01*
X14098158Y-16530724D02*
X14026729Y-16602152D01*
X14026729Y-16602152D02*
X14169586Y-16602152D01*
X14169586Y-18102153D02*
X14169586Y-17245010D01*
X14169586Y-17673581D02*
X12669586Y-17673581D01*
X12669586Y-17673581D02*
X12883872Y-17530724D01*
X12883872Y-17530724D02*
X13026729Y-17387867D01*
X13026729Y-17387867D02*
X13098158Y-17245010D01*
X14169586Y-21030723D02*
X12669586Y-21030723D01*
X12669586Y-21030723D02*
X12669586Y-21602152D01*
X12669586Y-21602152D02*
X12741015Y-21745009D01*
X12741015Y-21745009D02*
X12812443Y-21816438D01*
X12812443Y-21816438D02*
X12955300Y-21887866D01*
X12955300Y-21887866D02*
X13169586Y-21887866D01*
X13169586Y-21887866D02*
X13312443Y-21816438D01*
X13312443Y-21816438D02*
X13383872Y-21745009D01*
X13383872Y-21745009D02*
X13455300Y-21602152D01*
X13455300Y-21602152D02*
X13455300Y-21030723D01*
X14169586Y-22530723D02*
X13169586Y-22530723D01*
X13455300Y-22530723D02*
X13312443Y-22602152D01*
X13312443Y-22602152D02*
X13241015Y-22673581D01*
X13241015Y-22673581D02*
X13169586Y-22816438D01*
X13169586Y-22816438D02*
X13169586Y-22959295D01*
X14169586Y-23673580D02*
X14098158Y-23530723D01*
X14098158Y-23530723D02*
X14026729Y-23459294D01*
X14026729Y-23459294D02*
X13883872Y-23387866D01*
X13883872Y-23387866D02*
X13455300Y-23387866D01*
X13455300Y-23387866D02*
X13312443Y-23459294D01*
X13312443Y-23459294D02*
X13241015Y-23530723D01*
X13241015Y-23530723D02*
X13169586Y-23673580D01*
X13169586Y-23673580D02*
X13169586Y-23887866D01*
X13169586Y-23887866D02*
X13241015Y-24030723D01*
X13241015Y-24030723D02*
X13312443Y-24102152D01*
X13312443Y-24102152D02*
X13455300Y-24173580D01*
X13455300Y-24173580D02*
X13883872Y-24173580D01*
X13883872Y-24173580D02*
X14026729Y-24102152D01*
X14026729Y-24102152D02*
X14098158Y-24030723D01*
X14098158Y-24030723D02*
X14169586Y-23887866D01*
X14169586Y-23887866D02*
X14169586Y-23673580D01*
X14169586Y-25459295D02*
X12669586Y-25459295D01*
X14098158Y-25459295D02*
X14169586Y-25316437D01*
X14169586Y-25316437D02*
X14169586Y-25030723D01*
X14169586Y-25030723D02*
X14098158Y-24887866D01*
X14098158Y-24887866D02*
X14026729Y-24816437D01*
X14026729Y-24816437D02*
X13883872Y-24745009D01*
X13883872Y-24745009D02*
X13455300Y-24745009D01*
X13455300Y-24745009D02*
X13312443Y-24816437D01*
X13312443Y-24816437D02*
X13241015Y-24887866D01*
X13241015Y-24887866D02*
X13169586Y-25030723D01*
X13169586Y-25030723D02*
X13169586Y-25316437D01*
X13169586Y-25316437D02*
X13241015Y-25459295D01*
X13169586Y-26816438D02*
X14169586Y-26816438D01*
X13169586Y-26173580D02*
X13955300Y-26173580D01*
X13955300Y-26173580D02*
X14098158Y-26245009D01*
X14098158Y-26245009D02*
X14169586Y-26387866D01*
X14169586Y-26387866D02*
X14169586Y-26602152D01*
X14169586Y-26602152D02*
X14098158Y-26745009D01*
X14098158Y-26745009D02*
X14026729Y-26816438D01*
X14098158Y-28173581D02*
X14169586Y-28030723D01*
X14169586Y-28030723D02*
X14169586Y-27745009D01*
X14169586Y-27745009D02*
X14098158Y-27602152D01*
X14098158Y-27602152D02*
X14026729Y-27530723D01*
X14026729Y-27530723D02*
X13883872Y-27459295D01*
X13883872Y-27459295D02*
X13455300Y-27459295D01*
X13455300Y-27459295D02*
X13312443Y-27530723D01*
X13312443Y-27530723D02*
X13241015Y-27602152D01*
X13241015Y-27602152D02*
X13169586Y-27745009D01*
X13169586Y-27745009D02*
X13169586Y-28030723D01*
X13169586Y-28030723D02*
X13241015Y-28173581D01*
X13169586Y-28602152D02*
X13169586Y-29173580D01*
X12669586Y-28816437D02*
X13955300Y-28816437D01*
X13955300Y-28816437D02*
X14098158Y-28887866D01*
X14098158Y-28887866D02*
X14169586Y-29030723D01*
X14169586Y-29030723D02*
X14169586Y-29173580D01*
X14169586Y-29673580D02*
X13169586Y-29673580D01*
X12669586Y-29673580D02*
X12741015Y-29602152D01*
X12741015Y-29602152D02*
X12812443Y-29673580D01*
X12812443Y-29673580D02*
X12741015Y-29745009D01*
X12741015Y-29745009D02*
X12669586Y-29673580D01*
X12669586Y-29673580D02*
X12812443Y-29673580D01*
X14169586Y-30602152D02*
X14098158Y-30459295D01*
X14098158Y-30459295D02*
X14026729Y-30387866D01*
X14026729Y-30387866D02*
X13883872Y-30316438D01*
X13883872Y-30316438D02*
X13455300Y-30316438D01*
X13455300Y-30316438D02*
X13312443Y-30387866D01*
X13312443Y-30387866D02*
X13241015Y-30459295D01*
X13241015Y-30459295D02*
X13169586Y-30602152D01*
X13169586Y-30602152D02*
X13169586Y-30816438D01*
X13169586Y-30816438D02*
X13241015Y-30959295D01*
X13241015Y-30959295D02*
X13312443Y-31030724D01*
X13312443Y-31030724D02*
X13455300Y-31102152D01*
X13455300Y-31102152D02*
X13883872Y-31102152D01*
X13883872Y-31102152D02*
X14026729Y-31030724D01*
X14026729Y-31030724D02*
X14098158Y-30959295D01*
X14098158Y-30959295D02*
X14169586Y-30816438D01*
X14169586Y-30816438D02*
X14169586Y-30602152D01*
X13169586Y-31745009D02*
X14169586Y-31745009D01*
X13312443Y-31745009D02*
X13241015Y-31816438D01*
X13241015Y-31816438D02*
X13169586Y-31959295D01*
X13169586Y-31959295D02*
X13169586Y-32173581D01*
X13169586Y-32173581D02*
X13241015Y-32316438D01*
X13241015Y-32316438D02*
X13383872Y-32387867D01*
X13383872Y-32387867D02*
X14169586Y-32387867D01*
D11*
X121617571Y-45701642D02*
X121594714Y-45633070D01*
X121594714Y-45633070D02*
X121571857Y-45610213D01*
X121571857Y-45610213D02*
X121526142Y-45587356D01*
X121526142Y-45587356D02*
X121457571Y-45587356D01*
X121457571Y-45587356D02*
X121411857Y-45610213D01*
X121411857Y-45610213D02*
X121389000Y-45633070D01*
X121389000Y-45633070D02*
X121366142Y-45678785D01*
X121366142Y-45678785D02*
X121366142Y-45861642D01*
X121366142Y-45861642D02*
X121846142Y-45861642D01*
X121846142Y-45861642D02*
X121846142Y-45701642D01*
X121846142Y-45701642D02*
X121823285Y-45655928D01*
X121823285Y-45655928D02*
X121800428Y-45633070D01*
X121800428Y-45633070D02*
X121754714Y-45610213D01*
X121754714Y-45610213D02*
X121709000Y-45610213D01*
X121709000Y-45610213D02*
X121663285Y-45633070D01*
X121663285Y-45633070D02*
X121640428Y-45655928D01*
X121640428Y-45655928D02*
X121617571Y-45701642D01*
X121617571Y-45701642D02*
X121617571Y-45861642D01*
X121846142Y-45450213D02*
X121846142Y-45175928D01*
X121366142Y-45313070D02*
X121846142Y-45313070D01*
X121366142Y-44764499D02*
X121366142Y-45038785D01*
X121366142Y-44901642D02*
X121846142Y-44901642D01*
X121846142Y-44901642D02*
X121777571Y-44947356D01*
X121777571Y-44947356D02*
X121731857Y-44993071D01*
X121731857Y-44993071D02*
X121709000Y-45038785D01*
X114759542Y-46958785D02*
X114759542Y-46661642D01*
X114759542Y-46661642D02*
X114576685Y-46821642D01*
X114576685Y-46821642D02*
X114576685Y-46753071D01*
X114576685Y-46753071D02*
X114553828Y-46707357D01*
X114553828Y-46707357D02*
X114530971Y-46684499D01*
X114530971Y-46684499D02*
X114485257Y-46661642D01*
X114485257Y-46661642D02*
X114370971Y-46661642D01*
X114370971Y-46661642D02*
X114325257Y-46684499D01*
X114325257Y-46684499D02*
X114302400Y-46707357D01*
X114302400Y-46707357D02*
X114279542Y-46753071D01*
X114279542Y-46753071D02*
X114279542Y-46890214D01*
X114279542Y-46890214D02*
X114302400Y-46935928D01*
X114302400Y-46935928D02*
X114325257Y-46958785D01*
X114325257Y-46455928D02*
X114302400Y-46433071D01*
X114302400Y-46433071D02*
X114279542Y-46455928D01*
X114279542Y-46455928D02*
X114302400Y-46478785D01*
X114302400Y-46478785D02*
X114325257Y-46455928D01*
X114325257Y-46455928D02*
X114279542Y-46455928D01*
X114759542Y-46273071D02*
X114759542Y-45953071D01*
X114759542Y-45953071D02*
X114279542Y-46158785D01*
X114759542Y-45473071D02*
X114279542Y-45313071D01*
X114279542Y-45313071D02*
X114759542Y-45153071D01*
X114279542Y-44398785D02*
X114279542Y-44627357D01*
X114279542Y-44627357D02*
X114759542Y-44627357D01*
X114279542Y-44238786D02*
X114599542Y-44238786D01*
X114759542Y-44238786D02*
X114736685Y-44261643D01*
X114736685Y-44261643D02*
X114713828Y-44238786D01*
X114713828Y-44238786D02*
X114736685Y-44215929D01*
X114736685Y-44215929D02*
X114759542Y-44238786D01*
X114759542Y-44238786D02*
X114713828Y-44238786D01*
X114599542Y-44010215D02*
X114119542Y-44010215D01*
X114576685Y-44010215D02*
X114599542Y-43964501D01*
X114599542Y-43964501D02*
X114599542Y-43873072D01*
X114599542Y-43873072D02*
X114576685Y-43827358D01*
X114576685Y-43827358D02*
X114553828Y-43804501D01*
X114553828Y-43804501D02*
X114508114Y-43781643D01*
X114508114Y-43781643D02*
X114370971Y-43781643D01*
X114370971Y-43781643D02*
X114325257Y-43804501D01*
X114325257Y-43804501D02*
X114302400Y-43827358D01*
X114302400Y-43827358D02*
X114279542Y-43873072D01*
X114279542Y-43873072D02*
X114279542Y-43964501D01*
X114279542Y-43964501D02*
X114302400Y-44010215D01*
X114279542Y-43507357D02*
X114302400Y-43553072D01*
X114302400Y-43553072D02*
X114325257Y-43575929D01*
X114325257Y-43575929D02*
X114370971Y-43598786D01*
X114370971Y-43598786D02*
X114508114Y-43598786D01*
X114508114Y-43598786D02*
X114553828Y-43575929D01*
X114553828Y-43575929D02*
X114576685Y-43553072D01*
X114576685Y-43553072D02*
X114599542Y-43507357D01*
X114599542Y-43507357D02*
X114599542Y-43438786D01*
X114599542Y-43438786D02*
X114576685Y-43393072D01*
X114576685Y-43393072D02*
X114553828Y-43370215D01*
X114553828Y-43370215D02*
X114508114Y-43347357D01*
X114508114Y-43347357D02*
X114370971Y-43347357D01*
X114370971Y-43347357D02*
X114325257Y-43370215D01*
X114325257Y-43370215D02*
X114302400Y-43393072D01*
X114302400Y-43393072D02*
X114279542Y-43438786D01*
X114279542Y-43438786D02*
X114279542Y-43507357D01*
D12*
X115534657Y-37812500D02*
X113248943Y-37812500D01*
X114391800Y-38955357D02*
X114391800Y-36669642D01*
D13*
%TO.C,BT1*%
X52619000Y-40869500D02*
X52619000Y-49759500D01*
X52619000Y-49759500D02*
X56098800Y-49759500D01*
X56098800Y-39751900D02*
X56098800Y-40869500D01*
X56098800Y-40869500D02*
X52619000Y-40869500D01*
X56098800Y-49759500D02*
X56098800Y-50877100D01*
X56098800Y-50877100D02*
X65633800Y-50877100D01*
X65633800Y-39751900D02*
X56098800Y-39751900D01*
X65633800Y-50877100D02*
X65633800Y-39751900D01*
X108093800Y-39771900D02*
X108093800Y-50897100D01*
X108093800Y-50897100D02*
X117628800Y-50897100D01*
X117628800Y-39771900D02*
X108093800Y-39771900D01*
X117628800Y-40889500D02*
X117628800Y-39771900D01*
X117628800Y-49779500D02*
X121108600Y-49779500D01*
X117628800Y-50897100D02*
X117628800Y-49779500D01*
X121108600Y-40889500D02*
X117628800Y-40889500D01*
X121108600Y-49779500D02*
X121108600Y-40889500D01*
D14*
%TO.C,G back*%
G36*
X7471336Y-19066889D02*
G01*
X5918671Y-19066889D01*
X5918671Y-20977860D01*
X5560364Y-20977860D01*
X5560364Y-19066889D01*
X4326195Y-19066889D01*
X4326195Y-21176920D01*
X3928076Y-21176920D01*
X3928076Y-18668769D01*
X7471336Y-18668769D01*
X7471336Y-19066889D01*
G37*
G36*
X7471336Y-24919240D02*
G01*
X7114308Y-24919240D01*
X7103716Y-23834365D01*
X7093123Y-22749490D01*
X6486701Y-22738504D01*
X5880280Y-22727518D01*
X5858954Y-24660462D01*
X5500646Y-24660462D01*
X5479320Y-22727464D01*
X4892804Y-22738477D01*
X4306289Y-22749490D01*
X4295686Y-23814459D01*
X4285082Y-24879428D01*
X3928076Y-24879428D01*
X3928076Y-22331465D01*
X7471336Y-22331465D01*
X7471336Y-24919240D01*
G37*
G36*
X4326195Y-38495102D02*
G01*
X5872224Y-38495102D01*
X5951813Y-38495137D01*
X6290216Y-38496089D01*
X6601496Y-38498232D01*
X6876902Y-38501418D01*
X7107685Y-38505500D01*
X7285095Y-38510330D01*
X7400382Y-38515760D01*
X7444795Y-38521643D01*
X7453356Y-38540537D01*
X7466257Y-38622670D01*
X7471336Y-38740609D01*
X7471336Y-38933033D01*
X4328324Y-38933033D01*
X4317306Y-39520259D01*
X4306289Y-40107484D01*
X3947982Y-40107484D01*
X3927044Y-37340556D01*
X4326195Y-37340556D01*
X4326195Y-38495102D01*
G37*
G36*
X6137039Y-25843803D02*
G01*
X6489764Y-25953461D01*
X6800750Y-26127616D01*
X7065624Y-26363447D01*
X7280010Y-26658131D01*
X7439536Y-27008845D01*
X7472722Y-27133199D01*
X7504207Y-27375404D01*
X7508796Y-27643284D01*
X7486544Y-27906484D01*
X7437506Y-28134652D01*
X7418025Y-28191514D01*
X7333474Y-28382547D01*
X7223533Y-28579424D01*
X7104474Y-28754829D01*
X6992571Y-28881450D01*
X6957872Y-28911437D01*
X6913589Y-28930388D01*
X6864256Y-28905100D01*
X6784572Y-28829220D01*
X6658342Y-28702991D01*
X6746378Y-28592698D01*
X6779659Y-28550067D01*
X6980394Y-28234053D01*
X7102206Y-27916057D01*
X7144930Y-27597180D01*
X7108398Y-27278524D01*
X6992445Y-26961187D01*
X6916853Y-26828848D01*
X6721278Y-26597276D01*
X6478403Y-26417377D01*
X6199579Y-26292261D01*
X5896158Y-26225042D01*
X5579491Y-26218829D01*
X5260932Y-26276734D01*
X4951830Y-26401870D01*
X4939106Y-26408700D01*
X4704063Y-26567578D01*
X4520025Y-26767750D01*
X4370032Y-27027454D01*
X4324054Y-27134587D01*
X4288419Y-27257606D01*
X4271501Y-27397966D01*
X4267628Y-27586638D01*
X4270893Y-27696550D01*
X4318748Y-28001467D01*
X4428294Y-28269424D01*
X4605490Y-28516832D01*
X4737392Y-28667060D01*
X4593924Y-28810528D01*
X4556547Y-28847173D01*
X4485550Y-28904237D01*
X4426060Y-28917089D01*
X4364643Y-28879906D01*
X4287864Y-28786866D01*
X4182287Y-28632148D01*
X4154885Y-28589991D01*
X4023797Y-28348481D01*
X3940989Y-28102908D01*
X3900590Y-27830133D01*
X3896725Y-27507014D01*
X3904149Y-27337900D01*
X3917973Y-27184958D01*
X3942385Y-27063715D01*
X3982993Y-26947939D01*
X4045404Y-26811401D01*
X4091305Y-26722565D01*
X4304183Y-26417390D01*
X4576297Y-26164705D01*
X4904928Y-25967179D01*
X4922832Y-25958713D01*
X5085401Y-25887791D01*
X5225203Y-25843980D01*
X5376357Y-25818968D01*
X5572985Y-25804442D01*
X5746951Y-25801467D01*
X6137039Y-25843803D01*
G37*
G36*
X7453267Y-14188481D02*
G01*
X7464309Y-14259513D01*
X7463604Y-14374030D01*
X7451430Y-14586153D01*
X6535756Y-14998613D01*
X6525109Y-15951649D01*
X6514463Y-16904686D01*
X6992899Y-17114166D01*
X7471336Y-17323646D01*
X7471336Y-17542630D01*
X7467625Y-17656442D01*
X7451894Y-17729614D01*
X7421571Y-17741500D01*
X7412272Y-17737678D01*
X7323545Y-17699307D01*
X7177205Y-17634331D01*
X6981930Y-17546712D01*
X6746395Y-17440415D01*
X6479278Y-17319401D01*
X6189254Y-17187634D01*
X5885001Y-17049077D01*
X5575195Y-16907692D01*
X5268513Y-16767444D01*
X4973630Y-16632294D01*
X4699225Y-16506206D01*
X4453973Y-16393143D01*
X4246551Y-16297068D01*
X4085635Y-16221943D01*
X3979902Y-16171733D01*
X3938029Y-16150399D01*
X3929035Y-16141366D01*
X3898450Y-16061726D01*
X3890405Y-15958010D01*
X4387674Y-15958010D01*
X4585853Y-16045600D01*
X4658086Y-16077626D01*
X4804605Y-16142795D01*
X4994594Y-16227437D01*
X5211473Y-16324164D01*
X5438658Y-16425587D01*
X5631769Y-16511212D01*
X5821343Y-16593886D01*
X5974939Y-16659368D01*
X6080362Y-16702466D01*
X6125414Y-16717986D01*
X6126692Y-16717376D01*
X6136461Y-16670536D01*
X6144932Y-16557662D01*
X6151604Y-16390838D01*
X6155975Y-16182151D01*
X6157543Y-15943685D01*
X6157543Y-15169384D01*
X6028154Y-15224106D01*
X6018557Y-15228204D01*
X5930523Y-15266750D01*
X5785749Y-15330937D01*
X5597458Y-15414872D01*
X5378874Y-15512663D01*
X5143220Y-15618419D01*
X4387674Y-15958010D01*
X3890405Y-15958010D01*
X3889754Y-15949614D01*
X3902947Y-15841374D01*
X3938029Y-15773347D01*
X3945983Y-15768882D01*
X4013344Y-15736168D01*
X4141254Y-15676104D01*
X4321053Y-15592641D01*
X4544081Y-15489729D01*
X4801677Y-15371319D01*
X5085179Y-15241362D01*
X5385928Y-15103810D01*
X5695262Y-14962612D01*
X6004522Y-14821721D01*
X6157543Y-14752149D01*
X6305045Y-14685086D01*
X6588173Y-14556659D01*
X6845243Y-14440390D01*
X7067595Y-14340231D01*
X7246568Y-14260132D01*
X7373503Y-14204044D01*
X7439737Y-14175918D01*
X7453267Y-14188481D01*
G37*
G36*
X7063995Y-11093049D02*
G01*
X7115986Y-11156314D01*
X7253890Y-11371335D01*
X7372176Y-11621644D01*
X7454623Y-11874782D01*
X7495771Y-12090797D01*
X7514016Y-12417155D01*
X7478526Y-12718460D01*
X7393244Y-12986603D01*
X7262114Y-13213470D01*
X7089076Y-13390949D01*
X6878073Y-13510930D01*
X6633049Y-13565298D01*
X6480608Y-13571625D01*
X6276937Y-13555411D01*
X6115343Y-13501860D01*
X5976016Y-13406173D01*
X5883720Y-13315423D01*
X5776810Y-13172975D01*
X5684801Y-12995256D01*
X5600442Y-12767581D01*
X5516484Y-12475262D01*
X5441995Y-12205320D01*
X5360480Y-11956412D01*
X5279500Y-11771156D01*
X5193425Y-11641358D01*
X5096626Y-11558825D01*
X4983472Y-11515361D01*
X4848334Y-11502774D01*
X4636615Y-11533318D01*
X4473167Y-11625341D01*
X4357725Y-11779710D01*
X4289641Y-11997293D01*
X4268267Y-12278958D01*
X4274905Y-12427646D01*
X4317567Y-12664078D01*
X4407183Y-12894584D01*
X4552423Y-13145611D01*
X4574416Y-13179845D01*
X4601086Y-13239999D01*
X4580370Y-13287262D01*
X4505068Y-13353192D01*
X4485462Y-13368702D01*
X4397097Y-13427459D01*
X4335271Y-13451977D01*
X4329748Y-13451484D01*
X4273636Y-13410203D01*
X4199650Y-13315001D01*
X4118657Y-13183324D01*
X4041526Y-13032614D01*
X3979123Y-12880317D01*
X3959262Y-12815364D01*
X3918860Y-12594411D01*
X3903178Y-12344195D01*
X3911758Y-12091096D01*
X3944145Y-11861497D01*
X3999881Y-11681779D01*
X4014260Y-11651439D01*
X4169800Y-11406289D01*
X4363247Y-11231138D01*
X4594550Y-11126020D01*
X4863656Y-11090973D01*
X4869980Y-11090986D01*
X5088092Y-11111070D01*
X5273917Y-11173530D01*
X5432608Y-11284572D01*
X5569312Y-11450401D01*
X5689180Y-11677224D01*
X5797361Y-11971247D01*
X5899007Y-12338675D01*
X5919562Y-12420034D01*
X5987707Y-12654472D01*
X6056752Y-12828775D01*
X6133415Y-12957756D01*
X6224414Y-13056230D01*
X6257499Y-13082937D01*
X6423865Y-13162268D01*
X6602077Y-13173111D01*
X6776686Y-13119576D01*
X6932247Y-13005769D01*
X7053311Y-12835799D01*
X7072632Y-12794150D01*
X7108504Y-12679463D01*
X7126513Y-12536007D01*
X7130561Y-12338675D01*
X7118499Y-12131173D01*
X7063571Y-11873706D01*
X6956524Y-11625189D01*
X6788873Y-11361354D01*
X6660325Y-11182355D01*
X6933875Y-10947199D01*
X7063995Y-11093049D01*
G37*
G36*
X6961032Y-33873798D02*
G01*
X7013685Y-33917143D01*
X7060258Y-33966738D01*
X7169536Y-34118754D01*
X7278584Y-34310369D01*
X7373575Y-34515919D01*
X7440683Y-34709738D01*
X7447312Y-34735488D01*
X7484060Y-34954881D01*
X7498272Y-35201655D01*
X7490603Y-35449691D01*
X7461706Y-35672872D01*
X7412235Y-35845080D01*
X7382075Y-35910140D01*
X7224555Y-36148228D01*
X7022769Y-36322030D01*
X6781141Y-36428525D01*
X6504097Y-36464694D01*
X6479552Y-36464493D01*
X6240791Y-36434273D01*
X6045423Y-36347261D01*
X5875177Y-36195640D01*
X5819758Y-36127210D01*
X5731514Y-35987224D01*
X5652760Y-35812963D01*
X5577203Y-35589494D01*
X5498552Y-35301888D01*
X5456634Y-35142887D01*
X5375320Y-34879324D01*
X5292426Y-34682454D01*
X5201688Y-34543906D01*
X5096847Y-34455308D01*
X4971639Y-34408288D01*
X4819802Y-34394475D01*
X4767423Y-34395035D01*
X4651058Y-34407450D01*
X4565700Y-34446730D01*
X4475293Y-34526714D01*
X4400081Y-34616096D01*
X4295924Y-34826598D01*
X4250583Y-35071798D01*
X4264125Y-35339031D01*
X4336617Y-35615631D01*
X4468125Y-35888933D01*
X4535799Y-36004682D01*
X4585659Y-36096658D01*
X4604606Y-36141069D01*
X4600254Y-36150151D01*
X4551277Y-36196896D01*
X4465434Y-36260697D01*
X4464728Y-36261178D01*
X4376314Y-36312531D01*
X4307208Y-36322216D01*
X4244941Y-36282268D01*
X4177042Y-36184726D01*
X4091041Y-36021625D01*
X3982442Y-35759284D01*
X3905723Y-35407480D01*
X3898972Y-35028573D01*
X3929770Y-34810328D01*
X4020669Y-34538161D01*
X4160524Y-34311438D01*
X4341865Y-34136824D01*
X4557224Y-34020984D01*
X4799131Y-33970586D01*
X5060118Y-33992294D01*
X5189465Y-34031378D01*
X5373666Y-34134264D01*
X5530479Y-34291495D01*
X5664267Y-34509236D01*
X5779394Y-34793650D01*
X5880223Y-35150901D01*
X5894588Y-35209766D01*
X5972649Y-35493095D01*
X6051927Y-35707580D01*
X6138592Y-35862164D01*
X6238812Y-35965790D01*
X6358757Y-36027400D01*
X6504598Y-36055936D01*
X6602466Y-36060700D01*
X6720169Y-36041196D01*
X6834345Y-35980021D01*
X6951375Y-35881092D01*
X7055436Y-35722600D01*
X7114359Y-35516283D01*
X7132935Y-35250431D01*
X7123033Y-35032718D01*
X7085223Y-34823603D01*
X7011782Y-34622332D01*
X6895049Y-34408326D01*
X6727363Y-34161007D01*
X6700969Y-34122811D01*
X6684621Y-34073928D01*
X6713665Y-34026325D01*
X6796610Y-33954641D01*
X6853042Y-33909277D01*
X6916389Y-33869638D01*
X6961032Y-33873798D01*
G37*
G36*
X7453728Y-29554197D02*
G01*
X7466282Y-29613855D01*
X7463641Y-29739539D01*
X7451430Y-29951908D01*
X6535756Y-30360846D01*
X6525052Y-31290044D01*
X6524256Y-31368128D01*
X6523368Y-31655965D01*
X6525990Y-31897017D01*
X6531889Y-32083087D01*
X6540832Y-32205975D01*
X6552585Y-32257479D01*
X6598280Y-32285714D01*
X6702632Y-32338941D01*
X6848912Y-32408545D01*
X7021126Y-32486701D01*
X7451430Y-32677686D01*
X7463479Y-32902734D01*
X7465517Y-32999005D01*
X7458827Y-33084510D01*
X7443573Y-33110775D01*
X7404759Y-33092814D01*
X7300084Y-33045258D01*
X7137009Y-32971495D01*
X6922794Y-32874800D01*
X6664698Y-32758446D01*
X6369978Y-32625707D01*
X6045895Y-32479859D01*
X5699706Y-32324175D01*
X5369894Y-32175615D01*
X5043059Y-32027786D01*
X4744709Y-31892220D01*
X4482210Y-31772293D01*
X4262926Y-31671383D01*
X4094225Y-31592866D01*
X3983470Y-31540119D01*
X3938029Y-31516519D01*
X3928802Y-31507436D01*
X3898370Y-31428452D01*
X3891109Y-31334125D01*
X4437651Y-31334125D01*
X4449856Y-31341371D01*
X4522980Y-31377114D01*
X4650018Y-31436044D01*
X4818327Y-31512560D01*
X5015259Y-31601057D01*
X5228172Y-31695934D01*
X5444420Y-31791587D01*
X5651357Y-31882412D01*
X5836339Y-31962808D01*
X5986720Y-32027170D01*
X6089857Y-32069897D01*
X6133103Y-32085384D01*
X6134186Y-32084624D01*
X6141586Y-32036737D01*
X6148000Y-31922949D01*
X6153049Y-31755313D01*
X6156356Y-31545880D01*
X6157543Y-31306702D01*
X6157509Y-31269531D01*
X6155650Y-31035476D01*
X6151278Y-30834095D01*
X6144854Y-30677126D01*
X6136836Y-30576305D01*
X6127684Y-30543368D01*
X6110963Y-30551145D01*
X6030526Y-30587454D01*
X5893993Y-30648615D01*
X5711962Y-30729895D01*
X5495030Y-30826557D01*
X5253795Y-30933866D01*
X5106836Y-30999762D01*
X4885294Y-31101505D01*
X4697881Y-31190581D01*
X4554320Y-31262222D01*
X4464336Y-31311660D01*
X4437651Y-31334125D01*
X3891109Y-31334125D01*
X3889763Y-31316632D01*
X3902983Y-31208083D01*
X3938029Y-31138912D01*
X3941210Y-31136919D01*
X3997595Y-31108849D01*
X4115994Y-31052787D01*
X4287724Y-30972697D01*
X4504107Y-30872541D01*
X4756460Y-30756281D01*
X5036105Y-30627879D01*
X5334360Y-30491298D01*
X5642544Y-30350500D01*
X5951978Y-30209448D01*
X6127684Y-30129540D01*
X6253981Y-30072103D01*
X6539871Y-29942427D01*
X6800970Y-29824385D01*
X7028595Y-29721937D01*
X7214067Y-29639045D01*
X7348706Y-29579673D01*
X7423829Y-29547783D01*
X7453728Y-29554197D01*
G37*
G36*
X4099311Y-41680055D02*
G01*
X4952973Y-41680055D01*
X6981668Y-41680055D01*
X7789831Y-41680055D01*
X7789831Y-45979741D01*
X3609581Y-45979741D01*
X3609581Y-42653557D01*
X3967888Y-42653557D01*
X3971088Y-42661427D01*
X4004679Y-42725772D01*
X4070998Y-42847168D01*
X4165254Y-43017009D01*
X4282655Y-43226687D01*
X4418408Y-43467594D01*
X4567724Y-43731121D01*
X4682529Y-43931855D01*
X4860109Y-44235883D01*
X5010206Y-44483980D01*
X5130513Y-44672467D01*
X5218723Y-44797660D01*
X5272530Y-44855878D01*
X5284804Y-44863462D01*
X5329904Y-44883722D01*
X5392799Y-44899033D01*
X5483794Y-44910063D01*
X5613192Y-44917480D01*
X5791296Y-44921950D01*
X6028412Y-44924143D01*
X6334841Y-44924726D01*
X7292182Y-44924726D01*
X7304122Y-44695807D01*
X7316062Y-44466889D01*
X6487978Y-44465478D01*
X6416938Y-44465289D01*
X6121680Y-44462477D01*
X5896657Y-44456177D01*
X5734141Y-44445939D01*
X5626406Y-44431315D01*
X5565727Y-44411856D01*
X5558233Y-44406684D01*
X5500023Y-44340519D01*
X5409498Y-44211339D01*
X5290635Y-44025327D01*
X5147416Y-43788668D01*
X4983819Y-43507545D01*
X4496078Y-42655447D01*
X4231983Y-42643675D01*
X4099311Y-42640711D01*
X4004182Y-42644253D01*
X3967888Y-42653557D01*
X3609581Y-42653557D01*
X3609581Y-42631025D01*
X4952973Y-42631025D01*
X5052806Y-42802484D01*
X5065708Y-42824739D01*
X5131387Y-42939230D01*
X5222781Y-43099658D01*
X5329577Y-43287893D01*
X5441463Y-43485805D01*
X5476018Y-43547124D01*
X5585964Y-43738924D01*
X5678597Y-43881546D01*
X5767764Y-43982045D01*
X5867315Y-44047475D01*
X5991096Y-44084892D01*
X6152957Y-44101350D01*
X6366745Y-44103904D01*
X6646308Y-44099609D01*
X7292182Y-44088675D01*
X7304424Y-43919475D01*
X7316667Y-43750274D01*
X6727152Y-43749687D01*
X6548448Y-43748167D01*
X6303597Y-43739538D01*
X6134387Y-43723412D01*
X6042645Y-43699922D01*
X6041010Y-43699037D01*
X5981120Y-43641159D01*
X5893050Y-43523606D01*
X5784375Y-43357284D01*
X5662674Y-43153095D01*
X5566994Y-42986014D01*
X6586333Y-42986014D01*
X6618303Y-43146599D01*
X6640449Y-43190437D01*
X6745274Y-43299355D01*
X6882647Y-43350703D01*
X7031065Y-43339953D01*
X7169028Y-43262578D01*
X7245666Y-43170483D01*
X7290029Y-43073472D01*
X7294567Y-43042450D01*
X7273449Y-42896570D01*
X7196081Y-42764782D01*
X7078776Y-42677655D01*
X6981668Y-42650700D01*
X6830977Y-42661359D01*
X6705983Y-42729836D01*
X6619997Y-42842574D01*
X6586333Y-42986014D01*
X5566994Y-42986014D01*
X5377694Y-42655447D01*
X5165334Y-42643236D01*
X4952973Y-42631025D01*
X3609581Y-42631025D01*
X3609581Y-41680055D01*
X4099311Y-41680055D01*
G37*
%TD*%
%LPC*%
D15*
%TO.C,J1*%
X51018800Y-44591500D03*
D16*
X51018800Y-47131500D03*
X48478800Y-44591500D03*
X48478800Y-47131500D03*
X45938800Y-44591500D03*
X45938800Y-47131500D03*
X43398800Y-44591500D03*
X43398800Y-47131500D03*
X40858800Y-44591500D03*
X40858800Y-47131500D03*
X38318800Y-44591500D03*
X38318800Y-47131500D03*
X35778800Y-44591500D03*
X35778800Y-47131500D03*
X33238800Y-44591500D03*
X33238800Y-47131500D03*
X30698800Y-44591500D03*
X30698800Y-47131500D03*
X28158800Y-44591500D03*
X28158800Y-47131500D03*
X25618800Y-44591500D03*
X25618800Y-47131500D03*
X23078800Y-44591500D03*
X23078800Y-47131500D03*
X20538800Y-44591500D03*
X20538800Y-47131500D03*
X17998800Y-44591500D03*
X17998800Y-47131500D03*
X15458800Y-44591500D03*
X15458800Y-47131500D03*
%TD*%
D15*
%TO.C,J10*%
X119599200Y-18683500D03*
D16*
X117059200Y-18683500D03*
%TD*%
D15*
%TO.C,J3*%
X62550800Y-26684500D03*
D16*
X62550800Y-24144500D03*
X62550800Y-21604500D03*
X62550800Y-19064500D03*
X62550800Y-16524500D03*
X62550800Y-13984500D03*
%TD*%
D17*
%TO.C,SW1*%
X97071800Y-2022500D03*
X94071800Y-2022500D03*
X91071800Y-2022500D03*
D18*
X100321800Y-2022500D03*
X87821800Y-2022500D03*
%TD*%
D15*
%TO.C,J9*%
X119603800Y-33161500D03*
D16*
X117063800Y-33161500D03*
%TD*%
D19*
%TO.C,H4*%
X11174200Y-6014500D03*
%TD*%
D15*
%TO.C,J5*%
X70687800Y-35109500D03*
D16*
X70687800Y-32569500D03*
%TD*%
D15*
%TO.C,J4*%
X100633800Y-18654500D03*
D16*
X103173800Y-18654500D03*
X105713800Y-18654500D03*
%TD*%
D15*
%TO.C,J2*%
X116674200Y-23514500D03*
D16*
X116674200Y-26054500D03*
X116674200Y-28594500D03*
%TD*%
D15*
%TO.C,J11*%
X92700200Y-33034500D03*
D16*
X92700200Y-30069000D03*
%TD*%
D19*
%TO.C,H6*%
X11303800Y-49744500D03*
%TD*%
D20*
%TO.C,J6*%
X68013800Y-48353500D03*
D21*
X68013800Y-46353500D03*
X68013800Y-44353500D03*
X68013800Y-42353500D03*
%TD*%
D15*
%TO.C,J8*%
X92649400Y-18607300D03*
D16*
X92649400Y-21147300D03*
%TD*%
D22*
%TO.C,BT1*%
X117491800Y-45334500D03*
D23*
X114063800Y-45334500D03*
X59263800Y-45124500D03*
D22*
X62983800Y-47854500D03*
X62983800Y-42774500D03*
X56235800Y-45314500D03*
X110743800Y-42794500D03*
X110743800Y-47874500D03*
%TD*%
%LPD*%
M02*
