%TF.GenerationSoftware,KiCad,Pcbnew,7.99.0-unknown-07d7ccf46f~176~ubuntu22.04.1*%
%TF.CreationDate,2024-01-11T12:25:35+09:00*%
%TF.ProjectId,bGeigieZen 3.0.1 production,62476569-6769-4655-9a65-6e20332e302e,V3.0.1*%
%TF.SameCoordinates,Original*%
%TF.FileFunction,Soldermask,Bot*%
%TF.FilePolarity,Negative*%
%FSLAX46Y46*%
G04 Gerber Fmt 4.6, Leading zero omitted, Abs format (unit mm)*
G04 Created by KiCad (PCBNEW 7.99.0-unknown-07d7ccf46f~176~ubuntu22.04.1) date 2024-01-11 12:25:35*
%MOMM*%
%LPD*%
G01*
G04 APERTURE LIST*
%ADD10R,1.700000X1.700000*%
%ADD11O,1.700000X1.700000*%
%ADD12C,1.879600*%
%ADD13C,3.203200*%
%ADD14C,5.000000*%
%ADD15R,1.350000X1.350000*%
%ADD16O,1.350000X1.350000*%
%ADD17C,2.743200*%
%ADD18R,12.000000X12.000000*%
G04 APERTURE END LIST*
D10*
%TO.C,J1*%
X51018800Y-44591500D03*
D11*
X51018800Y-47131500D03*
X48478800Y-44591500D03*
X48478800Y-47131500D03*
X45938800Y-44591500D03*
X45938800Y-47131500D03*
X43398800Y-44591500D03*
X43398800Y-47131500D03*
X40858800Y-44591500D03*
X40858800Y-47131500D03*
X38318800Y-44591500D03*
X38318800Y-47131500D03*
X35778800Y-44591500D03*
X35778800Y-47131500D03*
X33238800Y-44591500D03*
X33238800Y-47131500D03*
X30698800Y-44591500D03*
X30698800Y-47131500D03*
X28158800Y-44591500D03*
X28158800Y-47131500D03*
X25618800Y-44591500D03*
X25618800Y-47131500D03*
X23078800Y-44591500D03*
X23078800Y-47131500D03*
X20538800Y-44591500D03*
X20538800Y-47131500D03*
X17998800Y-44591500D03*
X17998800Y-47131500D03*
X15458800Y-44591500D03*
X15458800Y-47131500D03*
%TD*%
D10*
%TO.C,J10*%
X119599200Y-18683500D03*
D11*
X117059200Y-18683500D03*
%TD*%
D10*
%TO.C,J3*%
X62550800Y-26684500D03*
D11*
X62550800Y-24144500D03*
X62550800Y-21604500D03*
X62550800Y-19064500D03*
X62550800Y-16524500D03*
X62550800Y-13984500D03*
%TD*%
D12*
%TO.C,SW1*%
X97071800Y-2022500D03*
X94071800Y-2022500D03*
X91071800Y-2022500D03*
D13*
X100321800Y-2022500D03*
X87821800Y-2022500D03*
%TD*%
D10*
%TO.C,J9*%
X119603800Y-33161500D03*
D11*
X117063800Y-33161500D03*
%TD*%
D14*
%TO.C,H4*%
X11174200Y-6014500D03*
%TD*%
D10*
%TO.C,J5*%
X70687800Y-35109500D03*
D11*
X70687800Y-32569500D03*
%TD*%
D10*
%TO.C,J4*%
X100633800Y-18654500D03*
D11*
X103173800Y-18654500D03*
X105713800Y-18654500D03*
%TD*%
D10*
%TO.C,J2*%
X116674200Y-23514500D03*
D11*
X116674200Y-26054500D03*
X116674200Y-28594500D03*
%TD*%
D10*
%TO.C,J11*%
X92700200Y-33034500D03*
D11*
X92700200Y-30069000D03*
%TD*%
D14*
%TO.C,H6*%
X11303800Y-49744500D03*
%TD*%
D15*
%TO.C,J6*%
X68013800Y-48353500D03*
D16*
X68013800Y-46353500D03*
X68013800Y-44353500D03*
X68013800Y-42353500D03*
%TD*%
D10*
%TO.C,J8*%
X92649400Y-18607300D03*
D11*
X92649400Y-21147300D03*
%TD*%
D17*
%TO.C,BT1*%
X117491800Y-45334500D03*
D18*
X114063800Y-45334500D03*
X59263800Y-45124500D03*
D17*
X62983800Y-47854500D03*
X62983800Y-42774500D03*
X56235800Y-45314500D03*
X110743800Y-42794500D03*
X110743800Y-47874500D03*
%TD*%
M02*
