G04 #@! TF.GenerationSoftware,KiCad,Pcbnew,6.99.0-unknown-fe82f2dd40~146~ubuntu20.04.1*
G04 #@! TF.CreationDate,2022-02-10T10:28:43+09:00*
G04 #@! TF.ProjectId,bGeigieZen V2,62476569-6769-4655-9a65-6e2056322e6b,V2.0.0*
G04 #@! TF.SameCoordinates,PX563e908PY447d14c*
G04 #@! TF.FileFunction,Profile,NP*
%FSLAX46Y46*%
G04 Gerber Fmt 4.6, Leading zero omitted, Abs format (unit mm)*
G04 Created by KiCad (PCBNEW 6.99.0-unknown-fe82f2dd40~146~ubuntu20.04.1) date 2022-02-10 10:28:43*
%MOMM*%
%LPD*%
G01*
G04 APERTURE LIST*
G04 #@! TA.AperFunction,Profile*
%ADD10C,0.358429*%
G04 #@! TD*
G04 APERTURE END LIST*
D10*
X84164742Y-59439908D02*
X79505615Y-59439908D01*
X116270262Y4995212D02*
X116703072Y4899401D01*
X122919763Y-7309640D02*
X122842240Y-7433118D01*
X85200827Y4985700D02*
X85344794Y4944491D01*
X122338820Y-8171678D02*
X121902522Y-8944932D01*
X-4046658Y1617423D02*
X-3770852Y1950945D01*
X33089605Y-59396882D02*
X32941321Y-59373394D01*
X76459315Y4004073D02*
X77235985Y4464114D01*
X102489243Y5149890D02*
X114488297Y5149890D01*
X50071804Y2753982D02*
X50957317Y2976724D01*
X39520110Y4898986D02*
X39661116Y4849232D01*
X66731563Y-57211495D02*
X65867391Y-57500832D01*
X-2850496Y-57164665D02*
X-3171895Y-56870656D01*
X78187735Y4891329D02*
X78329167Y4940062D01*
X122842209Y-46762693D02*
X122920636Y-46885812D01*
X55058359Y-59139761D02*
X54919034Y-59085816D01*
X-659125Y4308205D02*
X-256688Y4485814D01*
X33538376Y-59439908D02*
X33388267Y-59430187D01*
X-4305827Y1272121D02*
X-4046658Y1617423D01*
X122864720Y-212794D02*
X123029873Y-606614D01*
X101599541Y5024690D02*
X101744810Y5059866D01*
X-5161660Y-213021D02*
X-4976273Y172469D01*
X-5770351Y-2251329D02*
X-5693455Y-1831196D01*
X72170064Y-56825725D02*
X71259341Y-56729277D01*
X123513006Y-5688900D02*
X123488424Y-5830938D01*
X122919733Y-33434350D02*
X122842209Y-33557828D01*
X114488281Y-59440061D02*
X102489243Y-59440061D01*
X16393370Y-59234189D02*
X16249597Y-59275893D01*
X85766703Y-59083778D02*
X85627466Y-59138028D01*
X123123567Y-21147264D02*
X123187588Y-21278424D01*
X39233590Y4985700D02*
X39377557Y4944491D01*
X32220493Y4891329D02*
X32361925Y4940062D01*
X-5424025Y-33051070D02*
X-5483432Y-32919101D01*
X-5161509Y-54077744D02*
X-5326667Y-53683920D01*
X-3125361Y-41909864D02*
X-3024674Y-41037484D01*
X96924572Y2976724D02*
X97790401Y3259744D01*
X27088187Y2753982D02*
X27973701Y2976724D01*
X-3024668Y-39282806D02*
X-3125349Y-38410419D01*
X78469513Y-59276157D02*
X78325542Y-59234979D01*
X123343750Y-6389402D02*
X123296243Y-6525954D01*
X99442936Y4004075D02*
X100219605Y4464114D01*
X74819442Y-57500849D02*
X73955288Y-57211512D01*
X93314594Y2453788D02*
X94229052Y2491878D01*
X16393936Y4944491D02*
X16536489Y4898986D01*
X85487347Y4898986D02*
X85628352Y4849232D01*
X56522003Y-59439908D02*
X56371894Y-59430187D01*
X-4878936Y-20273180D02*
X-4635620Y-19899252D01*
X71259341Y-56729277D02*
X70343442Y-56697126D01*
X17089886Y4674945D02*
X17223361Y4608666D01*
X62783092Y-59083778D02*
X62643856Y-59138028D01*
X33238632Y-59415829D02*
X33089605Y-59396882D01*
X69416901Y2478515D02*
X70330971Y2453782D01*
X123547904Y-31527518D02*
X123532839Y-31670855D01*
X102339131Y-59430339D02*
X102189494Y-59415981D01*
X123296525Y-1416441D02*
X123396576Y-1831062D01*
X-5593331Y-52874092D02*
X-5693392Y-52459473D01*
X98641335Y-57854635D02*
X97803051Y-57501002D01*
X123128998Y-47268826D02*
X123189475Y-47400570D01*
X-5823355Y-51614290D02*
X-5851811Y-51185113D01*
X121902505Y-19126103D02*
X122338810Y-19899380D01*
X123558136Y-22812070D02*
X123558136Y-31383725D01*
X21642747Y2718997D02*
X22540988Y2566711D01*
X120553696Y2874097D02*
X120875098Y2580088D01*
X123174085Y-53282340D02*
X123029929Y-53683763D01*
X61925570Y5055038D02*
X62071961Y5022564D01*
X120996329Y-42772396D02*
X121231257Y-43620009D01*
X101312796Y4940057D02*
X101455529Y4984633D01*
X42881226Y3218399D02*
X43743566Y2936015D01*
X3214839Y5149890D02*
X15213883Y5149890D01*
X85767676Y4795276D02*
X85905184Y4737164D01*
X67616428Y-56986456D02*
X66731563Y-57211495D01*
X122993147Y-7183909D02*
X122919763Y-7309640D01*
X122993117Y-33308620D02*
X122919733Y-33434350D01*
X121231272Y-17495303D02*
X121533326Y-18323092D01*
X-5588647Y-32649906D02*
X-5634629Y-32513002D01*
X-5785193Y-22239982D02*
X-5755926Y-22098786D01*
X69427541Y-56729271D02*
X68516812Y-56825715D01*
X40337801Y-58827861D02*
X40206243Y-58897484D01*
X3214843Y-59439939D02*
X2763210Y-59437045D01*
X62921565Y4737164D02*
X63057123Y4674945D01*
X26202816Y-56825725D02*
X25292093Y-56729277D01*
X120875364Y-56870477D02*
X120553980Y-57164500D01*
X16249597Y-59275893D02*
X16104545Y-59313222D01*
X-5801759Y-31811824D02*
X-5823239Y-31669381D01*
X61629886Y5106624D02*
X61778167Y5083073D01*
X123488424Y-5830938D02*
X123459158Y-5972135D01*
X121902522Y-8944932D02*
X121533346Y-9747924D01*
X61331230Y5140079D02*
X61480863Y5125641D01*
X62644732Y4849232D02*
X62784056Y4795276D01*
X84164742Y5149890D02*
X84314850Y5140079D01*
X-1051801Y-58402505D02*
X-1434690Y-58188207D01*
X118362287Y-58598742D02*
X117959853Y-58776328D01*
X114488373Y5149783D02*
X114939996Y5146827D01*
X-5359129Y-21014878D02*
X-5289937Y-20887023D01*
X122338794Y-34296391D02*
X121902500Y-35069645D01*
X39377557Y4944491D02*
X39520110Y4898986D01*
X-5770308Y-52039308D02*
X-5823355Y-51614290D01*
X-5854947Y-31383573D02*
X-5854947Y-22811887D01*
X-5823239Y-31669381D02*
X-5840939Y-31526577D01*
X61181130Y-59439908D02*
X56522007Y-59439908D01*
X17483521Y4464114D02*
X18254376Y3981812D01*
X120727854Y-14912827D02*
X120828536Y-15785214D01*
X62784056Y4795276D02*
X62921565Y4737164D01*
X16676612Y-59138042D02*
X16535747Y-59188206D01*
X39519367Y-59188194D02*
X39376990Y-59234178D01*
X23449653Y2478520D02*
X24363723Y2453788D01*
X123062313Y-33180765D02*
X122993117Y-33308620D01*
X61480863Y5125641D02*
X61629886Y5106624D01*
X15213883Y5149890D02*
X15363991Y5140079D01*
X122582134Y-20273320D02*
X122842240Y-20637967D01*
X79505623Y-59439908D02*
X79355514Y-59430187D01*
X-5541228Y-6662511D02*
X-5589839Y-6526620D01*
X85486601Y-59188194D02*
X85344224Y-59234178D01*
X121473776Y1951180D02*
X121749605Y1617666D01*
X77364871Y-58828907D02*
X77235977Y-58754636D01*
X-3171895Y-56870656D02*
X-3478826Y-56562785D01*
X-3830132Y-35872537D02*
X-4199308Y-35069522D01*
X100613209Y-58965645D02*
X100479742Y-58899361D01*
X1871527Y-59359173D02*
X1432923Y-59285581D01*
X77235977Y4464114D02*
X77500856Y4597934D01*
X123487031Y-48365057D02*
X123511557Y-48507156D01*
X123511875Y-22236203D02*
X123534820Y-22378340D01*
X31528878Y-58899209D02*
X31397631Y-58828907D01*
X54925237Y4782832D02*
X55064002Y4838798D01*
X123425258Y-6112364D02*
X123386772Y-6251496D01*
X56521996Y5149890D02*
X61181122Y5149890D01*
X-3293171Y-16647630D02*
X-3125362Y-15785162D01*
X120828535Y-38410473D02*
X120727849Y-39282853D01*
X-5722025Y-21958558D02*
X-5683540Y-21819428D01*
X79055405Y5114133D02*
X79204315Y5132498D01*
X95153671Y-56825878D02*
X94242947Y-56729430D01*
X55777557Y5059869D02*
X55924062Y5089803D01*
X15810928Y5083073D02*
X15958331Y5055038D01*
X101455529Y4984633D02*
X101599541Y5024690D01*
X61925575Y-59346073D02*
X61778314Y-59374364D01*
X16104545Y-59313222D02*
X15958329Y-59346079D01*
X42883769Y-57500832D02*
X42045464Y-57854468D01*
X-5470848Y-53282472D02*
X-5593331Y-52874092D01*
X-5541074Y-21409905D02*
X-5484747Y-21276447D01*
X33388267Y-59430187D02*
X33238632Y-59415829D01*
X-658783Y-58598781D02*
X-1051801Y-58402505D01*
X56370769Y5144538D02*
X56521996Y5149890D01*
X-5755926Y-22098786D02*
X-5722025Y-21958558D01*
X77496120Y-58899209D02*
X77364871Y-58828907D01*
X65029085Y-57854468D02*
X64221819Y-58272402D01*
X62071790Y-59313214D02*
X61925575Y-59346073D01*
X-5359127Y-47139542D02*
X-5289936Y-47011687D01*
X-5139033Y-7432935D02*
X-5220567Y-7310953D01*
X50086812Y-56986470D02*
X49186438Y-56825725D01*
X100748763Y-59027863D02*
X100613209Y-58965645D01*
X38197502Y5149890D02*
X38347611Y5140079D01*
X44632805Y-56986456D02*
X43747940Y-57211495D01*
X-3125349Y-38410419D02*
X-3293153Y-37547941D01*
X120996358Y-11423295D02*
X120828548Y-12285764D01*
X-5289937Y-20887023D02*
X-5216555Y-20761293D01*
X119510237Y-57956474D02*
X119138202Y-58188122D01*
X54787840Y4723792D02*
X54925237Y4782832D01*
X122582140Y-7797752D02*
X122338820Y-8171678D01*
X120828536Y-15785214D02*
X120996342Y-16647692D01*
X120996342Y-16647692D02*
X121231272Y-17495303D01*
X42045464Y-57854468D02*
X41238199Y-58272402D01*
X-5429291Y-6928735D02*
X-5487802Y-6796621D01*
X121902485Y-45250815D02*
X122338785Y-46024098D01*
X39800440Y4795276D02*
X39937949Y4737164D01*
X-5854947Y-5258847D02*
X-5854947Y-3537976D01*
X100755092Y4723786D02*
X100892490Y4782825D01*
X-4976273Y172469D02*
X-4771357Y548952D01*
X-5854951Y-3538053D02*
X-5851822Y-3105450D01*
X68508236Y2566707D02*
X69416901Y2478515D01*
X31804223Y4723792D02*
X31941621Y4782832D01*
X96039059Y2753982D02*
X96924572Y2976724D01*
X-4771357Y548952D02*
X-4547634Y915733D01*
X46443917Y-56729271D02*
X45533188Y-56825715D01*
X-3830154Y-18323003D02*
X-3528102Y-17495229D01*
X123558136Y-31383725D02*
X123547904Y-31527518D01*
X-5844702Y-48792789D02*
X-5829628Y-48649452D01*
X-5289936Y-47011687D02*
X-5216555Y-46885957D01*
X123446079Y-21955765D02*
X123482137Y-22095335D01*
X-4199307Y-8944819D02*
X-4635608Y-8171540D01*
X-3478826Y-56562785D02*
X-3770566Y-56241744D01*
X114940050Y-59437182D02*
X114488358Y-59440091D01*
X123534820Y-22378340D02*
X123550496Y-22521717D01*
X62503727Y4898986D02*
X62644732Y4849232D01*
X15811067Y-59374368D02*
X15662875Y-59397992D01*
X77908861Y4782832D02*
X78047625Y4838798D01*
X99448575Y-58272564D02*
X98641335Y-57854635D01*
X119137875Y3897663D02*
X119509916Y3666027D01*
X102039031Y5114131D02*
X102187940Y5132497D01*
X45533188Y-56825715D02*
X44632805Y-56986456D01*
X53475680Y4004075D02*
X54252350Y4464114D01*
X39088344Y5022564D02*
X39233590Y4985700D01*
X84613506Y5106624D02*
X84761786Y5083073D01*
X39376990Y-59234178D02*
X39233217Y-59275883D01*
X-5326667Y-53683920D02*
X-5470848Y-53282472D01*
X30492067Y4004075D02*
X31268738Y4464114D01*
X18254376Y3981812D02*
X19060744Y3566786D01*
X54252354Y4464114D02*
X54517232Y4597934D01*
X-5693392Y-52459473D02*
X-5770308Y-52039308D01*
X-5589839Y-6526620D02*
X-5633903Y-6389161D01*
X122842209Y-33557828D02*
X122582111Y-33922463D01*
X115831664Y5068849D02*
X116270262Y4995212D01*
X29680659Y3602407D02*
X30492067Y4004075D01*
X77629590Y-58965492D02*
X77496120Y-58899209D01*
X-5770059Y-5827953D02*
X-5795416Y-5685880D01*
X-4976098Y-54463249D02*
X-5161509Y-54077744D01*
X63321421Y-58827861D02*
X63189864Y-58897484D01*
X40206983Y4608666D02*
X40338242Y4538373D01*
X65867391Y-57500832D02*
X65029085Y-57854468D01*
X-4771158Y-54839743D02*
X-4976098Y-54463249D01*
X68516812Y-56825715D02*
X67616428Y-56986456D01*
X85905184Y4737164D02*
X86040743Y4674945D01*
X-5854947Y-48936582D02*
X-5844702Y-48792789D01*
X32080385Y4838798D02*
X32220493Y4891329D01*
X88850995Y-57500984D02*
X88012689Y-57854620D01*
X63450768Y-58754636D02*
X63321421Y-58827861D01*
X120875098Y2580088D02*
X121182033Y2272219D01*
X17088969Y-58963420D02*
X16953339Y-59025552D01*
X1432923Y-59285581D02*
X1000110Y-59189809D01*
X122679312Y172707D02*
X122864720Y-212794D01*
X84761786Y5083073D02*
X84909189Y5055038D01*
X41238199Y-58272402D02*
X40467148Y-58754636D01*
X120727860Y-13158146D02*
X120694295Y-14035485D01*
X123458008Y-48223750D02*
X123487031Y-48365057D01*
X38941949Y-59346073D02*
X38794687Y-59374364D01*
X87205243Y3981812D02*
X88011611Y3566786D01*
X123029873Y-606614D02*
X123174049Y-1008061D01*
X55064002Y4838798D02*
X55204111Y4891329D01*
X119870694Y-57708192D02*
X119510237Y-57956474D01*
X85344794Y4944491D02*
X85487347Y4898986D01*
X-1434690Y-58188207D02*
X-1806727Y-57956582D01*
X-5683540Y-21819428D02*
X-5640520Y-21681523D01*
X999856Y4899451D02*
X1432706Y4995290D01*
X31268738Y-58754636D02*
X30497716Y-58272412D01*
X16953339Y-59025552D02*
X16815848Y-59083791D01*
X75647907Y3602402D02*
X76459315Y4004073D01*
X115388001Y5119618D02*
X115831664Y5068849D01*
X123424488Y-48083377D02*
X123458008Y-48223750D01*
X123473473Y-52039287D02*
X123396580Y-52459409D01*
X31533616Y4597934D02*
X31804223Y4723792D01*
X88011611Y3566786D02*
X88848475Y3218399D01*
X117548434Y4644026D02*
X117959540Y4485848D01*
X38347611Y5140079D02*
X38497244Y5125641D01*
X85628352Y4849232D02*
X85767676Y4795276D01*
X78041977Y-59139761D02*
X77902652Y-59085816D01*
X43747940Y-57211495D02*
X42883769Y-57500832D01*
X123343962Y-47806012D02*
X123386472Y-47944083D01*
X54645972Y-58965492D02*
X54512503Y-58899209D01*
X117548732Y-58934506D02*
X117129646Y-59072583D01*
X16815848Y-59083791D02*
X16676612Y-59138042D01*
X25292093Y-56729277D02*
X24376194Y-56697126D01*
X20759948Y2936015D02*
X21642747Y2718997D01*
X2315196Y-59409892D02*
X1871527Y-59359173D01*
X122842240Y-7433118D02*
X122582140Y-7797752D01*
X62360615Y-59234178D02*
X62216842Y-59275883D01*
X-5359968Y-33181072D02*
X-5424025Y-33051070D01*
X100219605Y4464114D02*
X100484483Y4597929D01*
X-5829628Y-48649452D02*
X-5809773Y-48506699D01*
X118361964Y4308266D02*
X118754984Y4111973D01*
X54517232Y4597934D02*
X54787840Y4723792D01*
X15513624Y5125641D02*
X15662648Y5106624D01*
X20764316Y-57211495D02*
X19900144Y-57500832D01*
X75657725Y-57854483D02*
X74819442Y-57500849D01*
X-3024668Y-13158098D02*
X-3125349Y-12285711D01*
X70343442Y-56697126D02*
X69427541Y-56729271D01*
X-3830131Y-9747831D02*
X-4199307Y-8944819D01*
X25278180Y2491878D02*
X26188008Y2592155D01*
X-3293170Y-42772331D02*
X-3125361Y-41909864D01*
X123296543Y-52873991D02*
X123174085Y-53282340D01*
X101891314Y5089800D02*
X102039031Y5114131D01*
X1000110Y-59189809D02*
X573810Y-59072549D01*
X40206243Y-58897484D02*
X40072591Y-58963409D01*
X-4635608Y-34296240D02*
X-4878930Y-33922297D01*
X-5673689Y-6250351D02*
X-5709464Y-6110403D01*
X86173476Y-58897484D02*
X86039824Y-58963409D01*
X-5216555Y-46885957D02*
X-5139033Y-46762479D01*
X38646495Y-59397989D02*
X38497489Y-59416853D01*
X121533346Y-9747924D02*
X121231291Y-10575697D01*
X-4547634Y915733D02*
X-4305827Y1272121D01*
X98631529Y3602407D02*
X99442936Y4004075D01*
X32361925Y4940062D02*
X32504657Y4984638D01*
X41237995Y3981812D02*
X42044363Y3566786D01*
X-5693455Y-1831196D02*
X-5593414Y-1416606D01*
X17483525Y-58754636D02*
X17354178Y-58827866D01*
X32793938Y5059869D02*
X32940442Y5089803D01*
X100479742Y-58899361D02*
X100348496Y-58829060D01*
X78615912Y5024694D02*
X78761182Y5059869D01*
X91491858Y2566711D02*
X92400523Y2478520D01*
X101892180Y-59373546D02*
X101744771Y-59345564D01*
X17222621Y-58897493D02*
X17088969Y-58963420D01*
X123187967Y-6794482D02*
X123127299Y-6926201D01*
X121533309Y-44447800D02*
X121902485Y-45250815D01*
X-5722018Y-48083230D02*
X-5683533Y-47944098D01*
X79354395Y5144538D02*
X79505623Y5149890D01*
X62920583Y-59025539D02*
X62783092Y-59083778D01*
X32940442Y5089803D02*
X33088160Y5114133D01*
X72155256Y2592148D02*
X73055436Y2753975D01*
X88848475Y3218399D02*
X89710816Y2936015D01*
X121473998Y-56241543D02*
X121182277Y-56562593D01*
X38197502Y-59439908D02*
X33538380Y-59439908D01*
X119509916Y3666027D02*
X119870382Y3417759D01*
X21649181Y-56986456D02*
X20764316Y-57211495D01*
X50971662Y-57211512D02*
X50086812Y-56986470D01*
X93327048Y-56697278D02*
X92411146Y-56729424D01*
X123558060Y-50752622D02*
X123554936Y-51185201D01*
X91500417Y-56825867D02*
X90600033Y-56986608D01*
X31941621Y4782832D02*
X32080385Y4838798D01*
X85055399Y-59313214D02*
X84909184Y-59346073D01*
X63450768Y4464114D02*
X64221623Y3981812D01*
X123127299Y-6926201D02*
X123062342Y-7056053D01*
X56073232Y-59396882D02*
X55924948Y-59373394D01*
X-3528100Y-43619928D02*
X-3293170Y-42772331D01*
X24363723Y2453788D02*
X25278180Y2491878D01*
X122582111Y-33922463D02*
X122338794Y-34296391D01*
X123554953Y-3105442D02*
X123558075Y-3538098D01*
X114939996Y5146827D02*
X115388001Y5119618D01*
X90593616Y2718997D02*
X91491858Y2566711D01*
X31397631Y-58828907D02*
X31268738Y-58754636D01*
X573810Y-59072549D02*
X154745Y-58934496D01*
X123512990Y-31813608D02*
X123488407Y-31955648D01*
X-5776413Y-31953745D02*
X-5801759Y-31811824D01*
X123304729Y-21545141D02*
X123356901Y-21680638D01*
X76464964Y-58272412D02*
X75657725Y-57854483D01*
X55488276Y4984638D02*
X55632288Y5024694D01*
X88012689Y-57854620D02*
X87205424Y-58272555D01*
X115831831Y-59359273D02*
X115388116Y-59410012D01*
X28852194Y-57500849D02*
X27988040Y-57211512D01*
X38794687Y-59374364D02*
X38646495Y-59397989D01*
X49186438Y-56825725D02*
X48275716Y-56729277D01*
X38347786Y-59430858D02*
X38197502Y-59439908D01*
X-5326794Y-606825D02*
X-5161660Y-213021D01*
X-5844705Y-22668099D02*
X-5829632Y-22524767D01*
X123343727Y-32514115D02*
X123296218Y-32650667D01*
X121749804Y-55908019D02*
X121473998Y-56241543D01*
X123296218Y-32650667D02*
X123244273Y-32785737D01*
X17354178Y-58827866D02*
X17222621Y-58897493D01*
X62071961Y5022564D02*
X62217207Y4985700D01*
X-5365427Y-7058638D02*
X-5429291Y-6928735D01*
X123404176Y-21817523D02*
X123446079Y-21955765D01*
X117959853Y-58776328D02*
X117548732Y-58934506D01*
X2763210Y-59437045D02*
X2315196Y-59409892D01*
X123056545Y-21017608D02*
X123123567Y-21147264D01*
X-3479129Y2271994D02*
X-3172214Y2579877D01*
X123386750Y-32376209D02*
X123343727Y-32514115D01*
X101309154Y-59235131D02*
X101166598Y-59189650D01*
X-3125362Y-15785162D02*
X-3024675Y-14912779D01*
X-5593015Y-21544973D02*
X-5541074Y-21409905D01*
X-5851822Y-3105450D02*
X-5823381Y-2676312D01*
X123029929Y-53683763D02*
X122864797Y-54077566D01*
X54381255Y-58828907D02*
X54252361Y-58754636D01*
X123245462Y-47534112D02*
X123296958Y-47669307D01*
X27103189Y-56986470D02*
X26202816Y-56825725D01*
X123531584Y-48649903D02*
X123547111Y-48793154D01*
X-4635619Y-46023947D02*
X-4199325Y-45250692D01*
X-2167189Y-57708320D02*
X-2515353Y-57444117D01*
X-1807082Y3665892D02*
X-1435044Y3897551D01*
X-4878936Y-46397874D02*
X-4635619Y-46023947D01*
X38497489Y-59416853D02*
X38347786Y-59430858D01*
X78907687Y5089803D02*
X79055405Y5114133D01*
X70330971Y2453782D02*
X71245429Y2491872D01*
X26188008Y2592155D02*
X27088187Y2753982D01*
X123526514Y-2676255D02*
X123554953Y-3105442D01*
X2315073Y5119750D02*
X2763144Y5146985D01*
X56071780Y5114133D02*
X56220689Y5132498D01*
X123386472Y-47944083D02*
X123424488Y-48083377D01*
X71245429Y2491872D02*
X72155256Y2592148D01*
X-5854947Y-50752439D02*
X-5854947Y-48936582D01*
X56222259Y-59415829D02*
X56073232Y-59396882D01*
X31662347Y-58965492D02*
X31528878Y-58899209D01*
X15662875Y-59397992D02*
X15513870Y-59416854D01*
X-1806727Y-57956582D02*
X-2167189Y-57708320D01*
X19061839Y-57854468D02*
X18254574Y-58272402D01*
X-5483432Y-32919101D02*
X-5538277Y-32785326D01*
X-2991110Y-14035440D02*
X-3024668Y-13158098D01*
X18254574Y-58272402D02*
X17483523Y-58754636D01*
X-3024674Y-41037484D02*
X-2991110Y-40160146D01*
X62502992Y-59188194D02*
X62360615Y-59234178D01*
X63057123Y4674945D02*
X63190598Y4608666D01*
X101171364Y4891322D02*
X101312796Y4940057D01*
X-3293153Y-37547941D02*
X-3528081Y-36700329D01*
X51835815Y-57500849D02*
X50971662Y-57211512D01*
X48261797Y2491878D02*
X49171625Y2592155D01*
X121231257Y-43620009D02*
X121533309Y-44447800D01*
X74806779Y3259739D02*
X75647907Y3602402D01*
X-5424082Y-21144729D02*
X-5359129Y-21014878D01*
X16954327Y4737164D02*
X17089886Y4674945D01*
X86039824Y-58963409D02*
X85904194Y-59025539D01*
X44626365Y2718997D02*
X45524606Y2566711D01*
X28839531Y3259744D02*
X29680659Y3602407D01*
X46433270Y2478520D02*
X47347340Y2453788D01*
X-5683533Y-47944098D02*
X-5640514Y-47806192D01*
X122474498Y-54839540D02*
X122250776Y-55206324D01*
X-5809773Y-48506699D02*
X-5785187Y-48364659D01*
X24376194Y-56697126D02*
X23460293Y-56729271D01*
X-4046393Y-55908226D02*
X-4305582Y-55562924D01*
X17354619Y4538373D02*
X17483525Y4464114D01*
X120694295Y-14035485D02*
X120727854Y-14912827D01*
X101744810Y5059866D02*
X101891314Y5089800D01*
X117129646Y-59072583D02*
X116703319Y-59189865D01*
X55199366Y-59189498D02*
X55058359Y-59139761D01*
X15363991Y5140079D02*
X15513624Y5125641D01*
X-4305582Y-55562924D02*
X-4547412Y-55206532D01*
X117129371Y4782108D02*
X117548434Y4644026D01*
X122920636Y-46885812D02*
X122994577Y-47011303D01*
X38794549Y5083073D02*
X38941952Y5055038D01*
X56220689Y5132498D02*
X56370769Y5144538D01*
X33088160Y5114133D02*
X33237070Y5132498D01*
X79355514Y-59430187D02*
X79205879Y-59415829D01*
X22540988Y2566711D02*
X23449653Y2478520D01*
X-5633903Y-6389161D02*
X-5673689Y-6250351D01*
X32793913Y-59345412D02*
X32647517Y-59312983D01*
X116703072Y4899401D02*
X117129371Y4782108D01*
X-4635608Y-8171540D02*
X-4878930Y-7797599D01*
X-4199325Y-45250692D02*
X-3830152Y-44447701D01*
X84464483Y5125641D02*
X84613506Y5106624D01*
X31935408Y-59085816D02*
X31797901Y-59027711D01*
X-2850829Y2873901D02*
X-2515697Y3153374D01*
X47347340Y2453788D02*
X48261797Y2491878D01*
X53481337Y-58272412D02*
X52674098Y-57854483D01*
X95138879Y2592155D02*
X96039059Y2753982D01*
X32647517Y-59312983D02*
X32502266Y-59276157D01*
X33387149Y5144538D02*
X33538376Y5149890D01*
X55341922Y-59234979D02*
X55199366Y-59189498D01*
X63189864Y-58897484D02*
X63056212Y-58963409D01*
X39661116Y4849232D02*
X39800440Y4795276D01*
X154745Y-58934496D02*
X-256360Y-58776343D01*
X100892490Y4782825D02*
X101031254Y4838792D01*
X-5809779Y-22382018D02*
X-5785193Y-22239982D01*
X122986995Y-20889488D02*
X123056545Y-21017608D01*
X-2515353Y-57444117D02*
X-2850496Y-57164665D01*
X123547919Y-5402818D02*
X123532855Y-5546151D01*
X87205424Y-58272555D02*
X86434372Y-58754789D01*
X-5795416Y-5685880D02*
X-5817838Y-5543528D01*
X16104723Y5022564D02*
X16249969Y4985700D01*
X90600033Y-56986608D02*
X89715167Y-57211647D01*
X-3528102Y-17495229D02*
X-3293171Y-16647630D01*
X50957317Y2976724D02*
X51823146Y3259744D01*
X-5817838Y-5543528D02*
X-5854947Y-5258847D01*
X78047625Y4838798D02*
X78187735Y4891329D01*
X123511557Y-48507156D02*
X123531584Y-48649903D01*
X22549564Y-56825715D02*
X21649181Y-56986456D01*
X100484483Y4597929D02*
X100755092Y4723786D01*
X31797901Y-59027711D02*
X31662347Y-58965492D01*
X-4547412Y-55206532D02*
X-4771158Y-54839743D01*
X32941321Y-59373394D02*
X32793913Y-59345412D01*
X-5823381Y-2676312D02*
X-5770351Y-2251329D01*
X92400523Y2478520D02*
X93314594Y2453788D01*
X84909184Y-59346073D02*
X84761923Y-59374364D01*
X-3770852Y1950945D02*
X-3479129Y2271994D01*
X102187940Y5132497D02*
X102338018Y5144537D01*
X84909189Y5055038D02*
X85055581Y5022564D01*
X16535747Y-59188206D02*
X16393370Y-59234189D01*
X119138202Y-58188122D02*
X118755311Y-58402442D01*
X116703319Y-59189865D02*
X116270473Y-59285660D01*
X65864855Y3218397D02*
X66727195Y2936012D01*
X-5851811Y-51185113D02*
X-5854951Y-50752469D01*
X-5741498Y-5969532D02*
X-5770059Y-5827953D01*
X51823146Y3259744D02*
X52664273Y3602407D01*
X85055581Y5022564D02*
X85200827Y4985700D01*
X19900144Y-57500832D02*
X19061839Y-57854468D01*
X-3770566Y-56241744D02*
X-4046393Y-55908226D01*
X67609995Y2718994D02*
X68508236Y2566707D01*
X123473480Y-2251231D02*
X123526514Y-2676255D01*
X-5295942Y-7186115D02*
X-5365427Y-7058638D01*
X85200451Y-59275883D02*
X85055399Y-59313214D01*
X-5291175Y-33308948D02*
X-5359968Y-33181072D01*
X118755311Y-58402442D02*
X118362287Y-58598742D01*
X-5634629Y-32513002D02*
X-5676309Y-32374772D01*
X123488407Y-31955648D02*
X123459140Y-32096847D01*
X121749605Y1617666D02*
X122008797Y1272369D01*
X40072591Y-58963409D02*
X39936960Y-59025539D01*
X62217207Y4985700D02*
X62361174Y4944491D01*
X123558151Y-5259030D02*
X123547919Y-5402818D01*
X122338785Y-46024098D02*
X122582106Y-46398041D01*
X101744771Y-59345564D02*
X101598375Y-59313136D01*
X61481116Y-59416853D02*
X61331414Y-59430858D01*
X84761923Y-59374364D02*
X84613731Y-59397989D01*
X54919034Y-59085816D02*
X54781527Y-59027711D01*
X123558136Y-48936765D02*
X123558136Y-50752652D01*
X-5640520Y-21681523D02*
X-5593015Y-21544973D01*
X120727843Y-41037532D02*
X120828525Y-41909919D01*
X92411146Y-56729424D02*
X91500417Y-56825867D01*
X38646268Y5106624D02*
X38794549Y5083073D01*
X15364167Y-59430858D02*
X15213883Y-59439908D01*
X77765145Y-59027711D02*
X77629590Y-58965492D01*
X61778314Y-59374364D02*
X61630122Y-59397989D01*
X32648669Y5024694D02*
X32793938Y5059869D01*
X122842209Y-20637967D02*
X122986995Y-20889488D01*
X55777540Y-59345412D02*
X55631144Y-59312983D01*
X38497244Y5125641D02*
X38646268Y5106624D01*
X122008797Y1272369D02*
X122250627Y915981D01*
X123532855Y-5546151D02*
X123513006Y-5688900D01*
X122994577Y-47011303D02*
X123064031Y-47139022D01*
X-5755919Y-48223460D02*
X-5722018Y-48083230D01*
X123127270Y-33050913D02*
X123062313Y-33180765D01*
X123459140Y-32096847D02*
X123425238Y-32237077D01*
X123558151Y-3538160D02*
X123558151Y-5259030D01*
X121533326Y-18323092D02*
X121902505Y-19126103D01*
X123396580Y-52459409D02*
X123296543Y-52873991D01*
X23460293Y-56729271D02*
X22549564Y-56825715D01*
X120727849Y-39282853D02*
X120694285Y-40160192D01*
X120828548Y-12285764D02*
X120727860Y-13158146D01*
X-5593414Y-1416606D02*
X-5470953Y-1008251D01*
X122250627Y915981D02*
X122474373Y549197D01*
X62643856Y-59138028D02*
X62502992Y-59188194D01*
X-5484743Y-47401112D02*
X-5424079Y-47269394D01*
X-5139033Y-33557675D02*
X-5217559Y-33434536D01*
X78182985Y-59189498D02*
X78041977Y-59139761D01*
X86040743Y4674945D02*
X86174218Y4608666D01*
X-5676309Y-32374772D02*
X-5713775Y-32235380D01*
X-3528081Y-36700329D02*
X-3830132Y-35872537D01*
X63190598Y4608666D02*
X63321855Y4538373D01*
X119870382Y3417759D02*
X120218549Y3153552D01*
X94242947Y-56729430D02*
X93327048Y-56697278D01*
X-5538277Y-32785326D02*
X-5588647Y-32649906D01*
X-5709464Y-6110403D02*
X-5741498Y-5969532D01*
X-256688Y4485814D02*
X154436Y4644020D01*
X1432706Y4995290D02*
X1871353Y5068954D01*
X120218549Y3153552D02*
X120553696Y2874097D01*
X78761182Y5059869D02*
X78907687Y5089803D01*
X122338810Y-19899380D02*
X122582134Y-20273320D01*
X-4878930Y-7797599D02*
X-5139033Y-7432950D01*
X154436Y4644020D02*
X573525Y4782130D01*
X16816819Y4795276D02*
X16954327Y4737164D01*
X123187940Y-32919195D02*
X123127270Y-33050913D01*
X79505615Y5149890D02*
X84164742Y5149890D01*
X55632288Y5024694D02*
X55777557Y5059869D01*
X101025591Y-59139914D02*
X100886268Y-59085969D01*
X32215739Y-59189498D02*
X32074732Y-59139761D01*
X40073508Y4674945D02*
X40206983Y4608666D01*
X61331414Y-59430858D02*
X61181130Y-59439908D01*
X-5747115Y-32094983D02*
X-5776413Y-31953745D01*
X123248133Y-21411059D02*
X123304729Y-21545141D01*
X123062342Y-7056053D02*
X122993147Y-7183909D01*
X-4199308Y-35069522D02*
X-4635608Y-34296240D01*
X123174049Y-1008061D02*
X123296525Y-1416441D01*
X123064031Y-47139022D02*
X123128998Y-47268826D01*
X123526499Y-51614320D02*
X123473473Y-52039287D01*
X-5640514Y-47806192D02*
X-5593010Y-47669640D01*
X64221819Y-58272402D02*
X63450768Y-58754636D01*
X54252358Y-58754636D02*
X53481337Y-58272412D01*
X39937949Y4737164D02*
X40073508Y4674945D01*
X-3293152Y-11423233D02*
X-3528080Y-10575621D01*
X-4878930Y-33922297D02*
X-5139033Y-33557645D01*
X122474373Y549197D02*
X122679312Y172707D01*
X-5487802Y-6796621D02*
X-5541228Y-6662511D01*
X16249969Y4985700D02*
X16393936Y4944491D01*
X-2167540Y3417602D02*
X-1807082Y3665892D01*
X33237070Y5132498D02*
X33387149Y5144538D01*
X17223361Y4608666D02*
X17354619Y4538373D01*
X43743566Y2936015D02*
X44626365Y2718997D01*
X121182033Y2272219D02*
X121473776Y1951180D01*
X120694285Y-40160192D02*
X120727843Y-41037532D01*
X84613731Y-59397989D02*
X84464726Y-59416853D01*
X2763144Y5146985D02*
X3214843Y5149966D01*
X-5139033Y-46762509D02*
X-4878936Y-46397874D01*
X123244298Y-6661023D02*
X123187967Y-6794482D01*
X100886268Y-59085969D02*
X100748763Y-59027863D01*
X86305475Y4538373D02*
X86434380Y4464114D01*
X123396576Y-1831062D02*
X123473480Y-2251231D01*
X121533326Y-35872637D02*
X121231274Y-36700409D01*
X101166598Y-59189650D02*
X101025591Y-59139914D01*
X1871353Y5068954D02*
X2315073Y5119750D01*
X-5829632Y-22524767D02*
X-5809779Y-22382018D01*
X122679412Y-54463056D02*
X122474498Y-54839540D01*
X-2991110Y-40160146D02*
X-3024668Y-39282806D01*
X64221623Y3981812D02*
X65027991Y3566785D01*
X-3172214Y2579877D02*
X-2850829Y2873901D01*
X39233217Y-59275883D02*
X39088164Y-59313214D01*
X86434380Y-58754636D02*
X86305033Y-58827861D01*
X48275716Y-56729277D02*
X47359817Y-56697126D01*
X78325542Y-59234979D02*
X78182985Y-59189498D01*
X32504657Y4984638D02*
X32648669Y5024694D01*
X120828525Y-41909919D02*
X120996329Y-42772396D01*
X123532839Y-31670855D02*
X123512990Y-31813608D01*
X73955288Y-57211512D02*
X73070438Y-56986470D01*
X121182277Y-56562593D02*
X120875364Y-56870477D01*
X73940949Y2976718D02*
X74806779Y3259739D01*
X122582106Y-46398041D02*
X122842209Y-46762693D01*
X32074732Y-59139761D02*
X31935408Y-59085816D01*
X45524606Y2566711D02*
X46433270Y2478520D01*
X97803051Y-57501002D02*
X96938896Y-57211664D01*
X122250776Y-55206324D02*
X122008971Y-55562715D01*
X27988040Y-57211512D02*
X27103189Y-56986470D01*
X96938896Y-57211664D02*
X96054045Y-56986623D01*
X-5541070Y-47534571D02*
X-5484743Y-47401112D01*
X62216842Y-59275883D02*
X62071790Y-59313214D01*
X56371894Y-59430187D02*
X56222259Y-59415829D01*
X100219597Y-58754789D02*
X99448575Y-58272564D01*
X-2515697Y3153374D02*
X-2167540Y3417602D01*
X89715167Y-57211647D02*
X88850995Y-57500984D01*
X78471900Y4984638D02*
X78615912Y5024694D01*
X123187588Y-21278424D02*
X123248133Y-21411059D01*
X84315024Y-59430858D02*
X84164742Y-59439908D01*
X123296243Y-6525954D02*
X123244298Y-6661023D01*
X78614763Y-59312983D02*
X78469513Y-59276157D01*
X-3528080Y-10575621D02*
X-3830131Y-9747831D01*
X116270473Y-59285660D02*
X115831831Y-59359273D01*
X86305033Y-58827861D02*
X86173476Y-58897484D01*
X15213883Y-59439908D02*
X3214838Y-59439908D01*
X102040465Y-59397035D02*
X101892180Y-59373546D01*
X27973701Y2976724D02*
X28839531Y3259744D01*
X-1435044Y3897551D02*
X-1052151Y4111887D01*
X123296958Y-47669307D02*
X123343962Y-47806012D01*
X-5840939Y-31526577D02*
X-5854947Y-31383573D01*
X-5484747Y-21276447D02*
X-5424082Y-21144729D01*
X85627466Y-59138028D02*
X85486601Y-59188194D01*
X121902500Y-35069645D02*
X121533326Y-35872637D01*
X123550496Y-22521717D02*
X123558432Y-22666303D01*
X89710816Y2936015D02*
X90593616Y2718997D01*
X102189494Y-59415981D02*
X102040465Y-59397035D01*
X123482137Y-22095335D02*
X123511875Y-22236203D01*
X55631144Y-59312983D02*
X55485893Y-59276157D01*
X31268738Y4464114D02*
X31533616Y4597934D01*
X-5424079Y-47269394D02*
X-5359127Y-47139542D01*
X55345543Y4940062D02*
X55488276Y4984638D01*
X-5470953Y-1008251D02*
X-5326794Y-606825D01*
X15513870Y-59416854D02*
X15364167Y-59430858D01*
X77235985Y-58754636D02*
X76464964Y-58272412D01*
X-5854947Y-22811887D02*
X-5844705Y-22668099D01*
X55485893Y-59276157D02*
X55341922Y-59234979D01*
X85904194Y-59025539D02*
X85766703Y-59083778D01*
X120996344Y-37548006D02*
X120828535Y-38410473D01*
X100348496Y-58829060D02*
X100219605Y-58754789D01*
X66727195Y2936012D02*
X67609995Y2718994D01*
X102338018Y5144537D02*
X102489243Y5149890D01*
X123547111Y-48793154D02*
X123558136Y-48936765D01*
X79205879Y-59415829D02*
X79056852Y-59396882D01*
X77500856Y4597934D02*
X77771463Y4723792D01*
X78329167Y4940062D02*
X78471900Y4984638D01*
X16536489Y4898986D02*
X16677494Y4849232D01*
X19897607Y3218399D02*
X20759948Y2936015D01*
X42044363Y3566786D02*
X42881226Y3218399D01*
X123244273Y-32785737D02*
X123187940Y-32919195D01*
X123425238Y-32237077D02*
X123386750Y-32376209D01*
X61630122Y-59397989D02*
X61481116Y-59416853D01*
X123386772Y-6251496D02*
X123343750Y-6389402D01*
X96054045Y-56986623D02*
X95153671Y-56825878D01*
X120553980Y-57164500D02*
X120218849Y-57443970D01*
X573525Y4782130D02*
X999856Y4899451D01*
X55924062Y5089803D02*
X56071780Y5114133D01*
X-1052151Y4111887D02*
X-659125Y4308205D01*
X78761160Y-59345412D02*
X78614763Y-59312983D01*
X-5217559Y-33434536D02*
X-5291175Y-33308948D01*
X-3125349Y-12285711D02*
X-3293152Y-11423233D01*
X102489243Y-59440061D02*
X102339131Y-59430339D01*
X123558432Y-22666303D02*
X123558151Y-22812070D01*
X54781527Y-59027711D02*
X54645972Y-58965492D01*
X16677494Y4849232D02*
X16816819Y4795276D01*
X33538380Y5149890D02*
X38197502Y5149890D01*
X123356901Y-21680638D02*
X123404176Y-21817523D01*
X97790401Y3259744D02*
X98631529Y3602407D01*
X47359817Y-56697126D02*
X46443917Y-56729271D01*
X123459158Y-5972135D02*
X123425258Y-6112364D01*
X49171625Y2592155D02*
X50071804Y2753982D01*
X15662648Y5106624D02*
X15810928Y5083073D01*
X52674098Y-57854483D02*
X51835815Y-57500849D01*
X61181122Y5149890D02*
X61331230Y5140079D01*
X30497716Y-58272412D02*
X29690477Y-57854483D01*
X19060744Y3566786D02*
X19897607Y3218399D01*
X121231291Y-10575697D02*
X120996358Y-11423295D01*
X85344224Y-59234178D02*
X85200451Y-59275883D01*
X61778167Y5083073D02*
X61925570Y5055038D01*
X73055436Y2753975D02*
X73940949Y2976718D01*
X86174218Y4608666D02*
X86305475Y4538373D01*
X84314850Y5140079D02*
X84464483Y5125641D01*
X39088164Y-59313214D02*
X38941949Y-59346073D01*
X77902652Y-59085816D02*
X77765145Y-59027711D01*
X101031254Y4838792D02*
X101171364Y4891322D01*
X39660232Y-59138028D02*
X39519367Y-59188194D01*
X86434387Y4464114D02*
X87205243Y3981812D01*
X40338242Y4538373D02*
X40467148Y4464114D01*
X39936960Y-59025539D02*
X39799469Y-59083778D01*
X-3024675Y-14912779D02*
X-2991110Y-14035440D01*
X-5593010Y-47669640D02*
X-5541070Y-47534571D01*
X101598375Y-59313136D02*
X101453124Y-59276309D01*
X121231274Y-36700409D02*
X120996344Y-37548006D01*
X115388116Y-59410012D02*
X114940050Y-59437182D01*
X-5139033Y-20637815D02*
X-4878936Y-20273180D01*
X94229052Y2491878D02*
X95138879Y2592155D01*
X40467148Y-58754636D02*
X40337801Y-58827861D01*
X123554936Y-51185201D02*
X123526499Y-51614320D01*
X79204315Y5132498D02*
X79354395Y5144538D01*
X40467140Y4464114D02*
X41237995Y3981812D01*
X-5713775Y-32235380D02*
X-5747115Y-32094983D01*
X65027991Y3566785D02*
X65864855Y3218397D01*
X32358296Y-59234979D02*
X32215739Y-59189498D01*
X122864797Y-54077566D02*
X122679412Y-54463056D01*
X-256360Y-58776343D02*
X-658783Y-58598781D01*
X78908567Y-59373394D02*
X78761160Y-59345412D01*
X123189475Y-47400570D02*
X123245462Y-47534112D01*
X117959540Y4485848D02*
X118361964Y4308266D01*
X73070438Y-56986470D02*
X72170064Y-56825725D01*
X32502266Y-59276157D02*
X32358296Y-59234979D01*
X-5216555Y-20761293D02*
X-5139033Y-20637815D01*
X54512503Y-58899209D02*
X54381255Y-58828907D01*
X63056212Y-58963409D02*
X62920583Y-59025539D01*
X84464726Y-59416853D02*
X84315024Y-59430858D01*
X-5785187Y-48364659D02*
X-5755919Y-48223460D01*
X118754984Y4111973D02*
X119137875Y3897663D01*
X62361174Y4944491D02*
X62503727Y4898986D01*
X15958329Y-59346079D02*
X15811067Y-59374368D01*
X77771463Y4723792D02*
X77908861Y4782832D01*
X120218849Y-57443970D02*
X119870694Y-57708192D01*
X55924948Y-59373394D02*
X55777540Y-59345412D01*
X63321855Y4538373D02*
X63450760Y4464114D01*
X-4199326Y-19125996D02*
X-3830154Y-18323003D01*
X101453124Y-59276309D02*
X101309154Y-59235131D01*
X39799469Y-59083778D02*
X39660232Y-59138028D01*
X15958331Y5055038D02*
X16104723Y5022564D01*
X52664273Y3602407D02*
X53475680Y4004075D01*
X79056852Y-59396882D02*
X78908567Y-59373394D01*
X55204111Y4891329D02*
X55345543Y4940062D01*
X38941952Y5055038D02*
X39088344Y5022564D01*
X29690477Y-57854483D02*
X28852194Y-57500849D01*
X-3830152Y-44447701D02*
X-3528100Y-43619928D01*
X122008971Y-55562715D02*
X121749804Y-55908019D01*
X-5220567Y-7310953D02*
X-5295942Y-7186115D01*
X-4635620Y-19899252D02*
X-4199326Y-19125996D01*
M02*
