G04 #@! TF.GenerationSoftware,KiCad,Pcbnew,6.99.0-unknown-fe82f2dd40~146~ubuntu20.04.1*
G04 #@! TF.CreationDate,2022-02-10T10:28:43+09:00*
G04 #@! TF.ProjectId,bGeigieZen V2,62476569-6769-4655-9a65-6e2056322e6b,V2.0.0*
G04 #@! TF.SameCoordinates,PX563e908PY447d14c*
G04 #@! TF.FileFunction,Legend,Bot*
G04 #@! TF.FilePolarity,Positive*
%FSLAX46Y46*%
G04 Gerber Fmt 4.6, Leading zero omitted, Abs format (unit mm)*
G04 Created by KiCad (PCBNEW 6.99.0-unknown-fe82f2dd40~146~ubuntu20.04.1) date 2022-02-10 10:28:43*
%MOMM*%
%LPD*%
G01*
G04 APERTURE LIST*
%ADD10C,0.300000*%
%ADD11C,0.050000*%
%ADD12C,0.203200*%
%ADD13C,1.879600*%
%ADD14C,3.200000*%
%ADD15R,1.700000X1.700000*%
%ADD16O,1.700000X1.700000*%
%ADD17C,3.203200*%
%ADD18R,1.800000X1.717500*%
%ADD19O,1.800000X1.717500*%
%ADD20C,1.700000*%
%ADD21C,2.743200*%
%ADD22R,12.000000X12.000000*%
G04 APERTURE END LIST*
D10*
X117665371Y-3880785D02*
X116165371Y-3880785D01*
X116736800Y-3880785D02*
X116665371Y-4023643D01*
X116665371Y-4023643D02*
X116665371Y-4309357D01*
X116665371Y-4309357D02*
X116736800Y-4452214D01*
X116736800Y-4452214D02*
X116808228Y-4523643D01*
X116808228Y-4523643D02*
X116951085Y-4595071D01*
X116951085Y-4595071D02*
X117379657Y-4595071D01*
X117379657Y-4595071D02*
X117522514Y-4523643D01*
X117522514Y-4523643D02*
X117593942Y-4452214D01*
X117593942Y-4452214D02*
X117665371Y-4309357D01*
X117665371Y-4309357D02*
X117665371Y-4023643D01*
X117665371Y-4023643D02*
X117593942Y-3880785D01*
X116236800Y-6023643D02*
X116165371Y-5880786D01*
X116165371Y-5880786D02*
X116165371Y-5666500D01*
X116165371Y-5666500D02*
X116236800Y-5452214D01*
X116236800Y-5452214D02*
X116379657Y-5309357D01*
X116379657Y-5309357D02*
X116522514Y-5237928D01*
X116522514Y-5237928D02*
X116808228Y-5166500D01*
X116808228Y-5166500D02*
X117022514Y-5166500D01*
X117022514Y-5166500D02*
X117308228Y-5237928D01*
X117308228Y-5237928D02*
X117451085Y-5309357D01*
X117451085Y-5309357D02*
X117593942Y-5452214D01*
X117593942Y-5452214D02*
X117665371Y-5666500D01*
X117665371Y-5666500D02*
X117665371Y-5809357D01*
X117665371Y-5809357D02*
X117593942Y-6023643D01*
X117593942Y-6023643D02*
X117522514Y-6095071D01*
X117522514Y-6095071D02*
X117022514Y-6095071D01*
X117022514Y-6095071D02*
X117022514Y-5809357D01*
X117593942Y-7309357D02*
X117665371Y-7166500D01*
X117665371Y-7166500D02*
X117665371Y-6880786D01*
X117665371Y-6880786D02*
X117593942Y-6737928D01*
X117593942Y-6737928D02*
X117451085Y-6666500D01*
X117451085Y-6666500D02*
X116879657Y-6666500D01*
X116879657Y-6666500D02*
X116736800Y-6737928D01*
X116736800Y-6737928D02*
X116665371Y-6880786D01*
X116665371Y-6880786D02*
X116665371Y-7166500D01*
X116665371Y-7166500D02*
X116736800Y-7309357D01*
X116736800Y-7309357D02*
X116879657Y-7380786D01*
X116879657Y-7380786D02*
X117022514Y-7380786D01*
X117022514Y-7380786D02*
X117165371Y-6666500D01*
X117665371Y-8023642D02*
X116665371Y-8023642D01*
X116165371Y-8023642D02*
X116236800Y-7952214D01*
X116236800Y-7952214D02*
X116308228Y-8023642D01*
X116308228Y-8023642D02*
X116236800Y-8095071D01*
X116236800Y-8095071D02*
X116165371Y-8023642D01*
X116165371Y-8023642D02*
X116308228Y-8023642D01*
X116665371Y-9380786D02*
X117879657Y-9380786D01*
X117879657Y-9380786D02*
X118022514Y-9309357D01*
X118022514Y-9309357D02*
X118093942Y-9237928D01*
X118093942Y-9237928D02*
X118165371Y-9095071D01*
X118165371Y-9095071D02*
X118165371Y-8880786D01*
X118165371Y-8880786D02*
X118093942Y-8737928D01*
X117593942Y-9380786D02*
X117665371Y-9237928D01*
X117665371Y-9237928D02*
X117665371Y-8952214D01*
X117665371Y-8952214D02*
X117593942Y-8809357D01*
X117593942Y-8809357D02*
X117522514Y-8737928D01*
X117522514Y-8737928D02*
X117379657Y-8666500D01*
X117379657Y-8666500D02*
X116951085Y-8666500D01*
X116951085Y-8666500D02*
X116808228Y-8737928D01*
X116808228Y-8737928D02*
X116736800Y-8809357D01*
X116736800Y-8809357D02*
X116665371Y-8952214D01*
X116665371Y-8952214D02*
X116665371Y-9237928D01*
X116665371Y-9237928D02*
X116736800Y-9380786D01*
X117665371Y-10095071D02*
X116665371Y-10095071D01*
X116165371Y-10095071D02*
X116236800Y-10023643D01*
X116236800Y-10023643D02*
X116308228Y-10095071D01*
X116308228Y-10095071D02*
X116236800Y-10166500D01*
X116236800Y-10166500D02*
X116165371Y-10095071D01*
X116165371Y-10095071D02*
X116308228Y-10095071D01*
X117593942Y-11380786D02*
X117665371Y-11237929D01*
X117665371Y-11237929D02*
X117665371Y-10952215D01*
X117665371Y-10952215D02*
X117593942Y-10809357D01*
X117593942Y-10809357D02*
X117451085Y-10737929D01*
X117451085Y-10737929D02*
X116879657Y-10737929D01*
X116879657Y-10737929D02*
X116736800Y-10809357D01*
X116736800Y-10809357D02*
X116665371Y-10952215D01*
X116665371Y-10952215D02*
X116665371Y-11237929D01*
X116665371Y-11237929D02*
X116736800Y-11380786D01*
X116736800Y-11380786D02*
X116879657Y-11452215D01*
X116879657Y-11452215D02*
X117022514Y-11452215D01*
X117022514Y-11452215D02*
X117165371Y-10737929D01*
X116165371Y-11952214D02*
X116165371Y-12952214D01*
X116165371Y-12952214D02*
X117665371Y-11952214D01*
X117665371Y-11952214D02*
X117665371Y-12952214D01*
X117593942Y-14095071D02*
X117665371Y-13952214D01*
X117665371Y-13952214D02*
X117665371Y-13666500D01*
X117665371Y-13666500D02*
X117593942Y-13523642D01*
X117593942Y-13523642D02*
X117451085Y-13452214D01*
X117451085Y-13452214D02*
X116879657Y-13452214D01*
X116879657Y-13452214D02*
X116736800Y-13523642D01*
X116736800Y-13523642D02*
X116665371Y-13666500D01*
X116665371Y-13666500D02*
X116665371Y-13952214D01*
X116665371Y-13952214D02*
X116736800Y-14095071D01*
X116736800Y-14095071D02*
X116879657Y-14166500D01*
X116879657Y-14166500D02*
X117022514Y-14166500D01*
X117022514Y-14166500D02*
X117165371Y-13452214D01*
X116665371Y-14809356D02*
X117665371Y-14809356D01*
X116808228Y-14809356D02*
X116736800Y-14880785D01*
X116736800Y-14880785D02*
X116665371Y-15023642D01*
X116665371Y-15023642D02*
X116665371Y-15237928D01*
X116665371Y-15237928D02*
X116736800Y-15380785D01*
X116736800Y-15380785D02*
X116879657Y-15452214D01*
X116879657Y-15452214D02*
X117665371Y-15452214D01*
X118595371Y-6309358D02*
X120095371Y-6809358D01*
X120095371Y-6809358D02*
X118595371Y-7309358D01*
X118738228Y-7737929D02*
X118666800Y-7809357D01*
X118666800Y-7809357D02*
X118595371Y-7952215D01*
X118595371Y-7952215D02*
X118595371Y-8309357D01*
X118595371Y-8309357D02*
X118666800Y-8452215D01*
X118666800Y-8452215D02*
X118738228Y-8523643D01*
X118738228Y-8523643D02*
X118881085Y-8595072D01*
X118881085Y-8595072D02*
X119023942Y-8595072D01*
X119023942Y-8595072D02*
X119238228Y-8523643D01*
X119238228Y-8523643D02*
X120095371Y-7666500D01*
X120095371Y-7666500D02*
X120095371Y-8595072D01*
X119952514Y-9237928D02*
X120023942Y-9309357D01*
X120023942Y-9309357D02*
X120095371Y-9237928D01*
X120095371Y-9237928D02*
X120023942Y-9166500D01*
X120023942Y-9166500D02*
X119952514Y-9237928D01*
X119952514Y-9237928D02*
X120095371Y-9237928D01*
X118595371Y-10237929D02*
X118595371Y-10380786D01*
X118595371Y-10380786D02*
X118666800Y-10523643D01*
X118666800Y-10523643D02*
X118738228Y-10595072D01*
X118738228Y-10595072D02*
X118881085Y-10666500D01*
X118881085Y-10666500D02*
X119166800Y-10737929D01*
X119166800Y-10737929D02*
X119523942Y-10737929D01*
X119523942Y-10737929D02*
X119809657Y-10666500D01*
X119809657Y-10666500D02*
X119952514Y-10595072D01*
X119952514Y-10595072D02*
X120023942Y-10523643D01*
X120023942Y-10523643D02*
X120095371Y-10380786D01*
X120095371Y-10380786D02*
X120095371Y-10237929D01*
X120095371Y-10237929D02*
X120023942Y-10095072D01*
X120023942Y-10095072D02*
X119952514Y-10023643D01*
X119952514Y-10023643D02*
X119809657Y-9952214D01*
X119809657Y-9952214D02*
X119523942Y-9880786D01*
X119523942Y-9880786D02*
X119166800Y-9880786D01*
X119166800Y-9880786D02*
X118881085Y-9952214D01*
X118881085Y-9952214D02*
X118738228Y-10023643D01*
X118738228Y-10023643D02*
X118666800Y-10095072D01*
X118666800Y-10095072D02*
X118595371Y-10237929D01*
X119952514Y-11380785D02*
X120023942Y-11452214D01*
X120023942Y-11452214D02*
X120095371Y-11380785D01*
X120095371Y-11380785D02*
X120023942Y-11309357D01*
X120023942Y-11309357D02*
X119952514Y-11380785D01*
X119952514Y-11380785D02*
X120095371Y-11380785D01*
X118595371Y-12380786D02*
X118595371Y-12523643D01*
X118595371Y-12523643D02*
X118666800Y-12666500D01*
X118666800Y-12666500D02*
X118738228Y-12737929D01*
X118738228Y-12737929D02*
X118881085Y-12809357D01*
X118881085Y-12809357D02*
X119166800Y-12880786D01*
X119166800Y-12880786D02*
X119523942Y-12880786D01*
X119523942Y-12880786D02*
X119809657Y-12809357D01*
X119809657Y-12809357D02*
X119952514Y-12737929D01*
X119952514Y-12737929D02*
X120023942Y-12666500D01*
X120023942Y-12666500D02*
X120095371Y-12523643D01*
X120095371Y-12523643D02*
X120095371Y-12380786D01*
X120095371Y-12380786D02*
X120023942Y-12237929D01*
X120023942Y-12237929D02*
X119952514Y-12166500D01*
X119952514Y-12166500D02*
X119809657Y-12095071D01*
X119809657Y-12095071D02*
X119523942Y-12023643D01*
X119523942Y-12023643D02*
X119166800Y-12023643D01*
X119166800Y-12023643D02*
X118881085Y-12095071D01*
X118881085Y-12095071D02*
X118738228Y-12166500D01*
X118738228Y-12166500D02*
X118666800Y-12237929D01*
X118666800Y-12237929D02*
X118595371Y-12380786D01*
D11*
X121551314Y-44947357D02*
X121574171Y-45015929D01*
X121574171Y-45015929D02*
X121597028Y-45038786D01*
X121597028Y-45038786D02*
X121642742Y-45061643D01*
X121642742Y-45061643D02*
X121711314Y-45061643D01*
X121711314Y-45061643D02*
X121757028Y-45038786D01*
X121757028Y-45038786D02*
X121779885Y-45015929D01*
X121779885Y-45015929D02*
X121802742Y-44970214D01*
X121802742Y-44970214D02*
X121802742Y-44787357D01*
X121802742Y-44787357D02*
X121322742Y-44787357D01*
X121322742Y-44787357D02*
X121322742Y-44947357D01*
X121322742Y-44947357D02*
X121345600Y-44993072D01*
X121345600Y-44993072D02*
X121368457Y-45015929D01*
X121368457Y-45015929D02*
X121414171Y-45038786D01*
X121414171Y-45038786D02*
X121459885Y-45038786D01*
X121459885Y-45038786D02*
X121505600Y-45015929D01*
X121505600Y-45015929D02*
X121528457Y-44993072D01*
X121528457Y-44993072D02*
X121551314Y-44947357D01*
X121551314Y-44947357D02*
X121551314Y-44787357D01*
X121322742Y-45198786D02*
X121322742Y-45473072D01*
X121802742Y-45335929D02*
X121322742Y-45335929D01*
X121802742Y-45884500D02*
X121802742Y-45610214D01*
X121802742Y-45747357D02*
X121322742Y-45747357D01*
X121322742Y-45747357D02*
X121391314Y-45701643D01*
X121391314Y-45701643D02*
X121437028Y-45655928D01*
X121437028Y-45655928D02*
X121459885Y-45610214D01*
X114236142Y-43729071D02*
X114236142Y-44026214D01*
X114236142Y-44026214D02*
X114419000Y-43866214D01*
X114419000Y-43866214D02*
X114419000Y-43934785D01*
X114419000Y-43934785D02*
X114441857Y-43980500D01*
X114441857Y-43980500D02*
X114464714Y-44003357D01*
X114464714Y-44003357D02*
X114510428Y-44026214D01*
X114510428Y-44026214D02*
X114624714Y-44026214D01*
X114624714Y-44026214D02*
X114670428Y-44003357D01*
X114670428Y-44003357D02*
X114693285Y-43980500D01*
X114693285Y-43980500D02*
X114716142Y-43934785D01*
X114716142Y-43934785D02*
X114716142Y-43797642D01*
X114716142Y-43797642D02*
X114693285Y-43751928D01*
X114693285Y-43751928D02*
X114670428Y-43729071D01*
X114670428Y-44231928D02*
X114693285Y-44254785D01*
X114693285Y-44254785D02*
X114716142Y-44231928D01*
X114716142Y-44231928D02*
X114693285Y-44209071D01*
X114693285Y-44209071D02*
X114670428Y-44231928D01*
X114670428Y-44231928D02*
X114716142Y-44231928D01*
X114236142Y-44414785D02*
X114236142Y-44734785D01*
X114236142Y-44734785D02*
X114716142Y-44529071D01*
X114236142Y-45137071D02*
X114716142Y-45297071D01*
X114716142Y-45297071D02*
X114236142Y-45457071D01*
X114716142Y-46133643D02*
X114716142Y-45905071D01*
X114716142Y-45905071D02*
X114236142Y-45905071D01*
X114716142Y-46293642D02*
X114396142Y-46293642D01*
X114236142Y-46293642D02*
X114259000Y-46270785D01*
X114259000Y-46270785D02*
X114281857Y-46293642D01*
X114281857Y-46293642D02*
X114259000Y-46316499D01*
X114259000Y-46316499D02*
X114236142Y-46293642D01*
X114236142Y-46293642D02*
X114281857Y-46293642D01*
X114396142Y-46522213D02*
X114876142Y-46522213D01*
X114419000Y-46522213D02*
X114396142Y-46567928D01*
X114396142Y-46567928D02*
X114396142Y-46659356D01*
X114396142Y-46659356D02*
X114419000Y-46705070D01*
X114419000Y-46705070D02*
X114441857Y-46727928D01*
X114441857Y-46727928D02*
X114487571Y-46750785D01*
X114487571Y-46750785D02*
X114624714Y-46750785D01*
X114624714Y-46750785D02*
X114670428Y-46727928D01*
X114670428Y-46727928D02*
X114693285Y-46705070D01*
X114693285Y-46705070D02*
X114716142Y-46659356D01*
X114716142Y-46659356D02*
X114716142Y-46567928D01*
X114716142Y-46567928D02*
X114693285Y-46522213D01*
X114716142Y-47025071D02*
X114693285Y-46979356D01*
X114693285Y-46979356D02*
X114670428Y-46956499D01*
X114670428Y-46956499D02*
X114624714Y-46933642D01*
X114624714Y-46933642D02*
X114487571Y-46933642D01*
X114487571Y-46933642D02*
X114441857Y-46956499D01*
X114441857Y-46956499D02*
X114419000Y-46979356D01*
X114419000Y-46979356D02*
X114396142Y-47025071D01*
X114396142Y-47025071D02*
X114396142Y-47093642D01*
X114396142Y-47093642D02*
X114419000Y-47139356D01*
X114419000Y-47139356D02*
X114441857Y-47162214D01*
X114441857Y-47162214D02*
X114487571Y-47185071D01*
X114487571Y-47185071D02*
X114624714Y-47185071D01*
X114624714Y-47185071D02*
X114670428Y-47162214D01*
X114670428Y-47162214D02*
X114693285Y-47139356D01*
X114693285Y-47139356D02*
X114716142Y-47093642D01*
X114716142Y-47093642D02*
X114716142Y-47025071D01*
X105786751Y-46665928D02*
X105024847Y-46665928D01*
X105405799Y-47046880D02*
X105405799Y-46284976D01*
X70734751Y-46665928D02*
X69972847Y-46665928D01*
D12*
X121108600Y-49779500D02*
X121108600Y-40889500D01*
X121108600Y-40889500D02*
X117628800Y-40889500D01*
X117628800Y-50897100D02*
X117628800Y-49779500D01*
X117628800Y-49779500D02*
X121108600Y-49779500D01*
X117628800Y-40889500D02*
X117628800Y-39771900D01*
X117628800Y-39771900D02*
X108093800Y-39771900D01*
X108093800Y-50897100D02*
X117628800Y-50897100D01*
X108093800Y-39771900D02*
X108093800Y-50897100D01*
X65633800Y-50877100D02*
X65633800Y-39751900D01*
X65633800Y-39751900D02*
X56098800Y-39751900D01*
X56098800Y-50877100D02*
X65633800Y-50877100D01*
X56098800Y-49759500D02*
X56098800Y-50877100D01*
X56098800Y-40869500D02*
X52619000Y-40869500D01*
X56098800Y-39751900D02*
X56098800Y-40869500D01*
X52619000Y-49759500D02*
X56098800Y-49759500D01*
X52619000Y-40869500D02*
X52619000Y-49759500D01*
%LPC*%
D13*
X104485800Y-10936500D03*
X104485800Y-776500D03*
D14*
X218800Y-54116500D03*
D15*
X119599199Y-18683499D03*
D16*
X117059199Y-18683499D03*
D15*
X62550799Y-26684499D03*
D16*
X62550799Y-24144499D03*
X62550799Y-21604499D03*
X62550799Y-19064499D03*
X62550799Y-16524499D03*
X62550799Y-13984499D03*
D13*
X97071800Y-2022500D03*
X94071800Y-2022500D03*
X91071800Y-2022500D03*
D17*
X100321800Y-2022500D03*
X87821800Y-2022500D03*
D13*
X113883800Y-7126500D03*
X113883800Y-4586500D03*
D14*
X110211200Y-17164500D03*
X81283800Y-54116500D03*
D15*
X119599199Y-34304499D03*
D16*
X117059199Y-34304499D03*
D14*
X11174200Y-6014500D03*
D13*
X110835800Y-10936500D03*
X110835800Y-776500D03*
D14*
X81083800Y-124500D03*
D15*
X69043799Y-35109499D03*
D16*
X69043799Y-32569499D03*
D13*
X107787800Y-776500D03*
X107787800Y-10936500D03*
D15*
X100633799Y-18654499D03*
D16*
X103173799Y-18654499D03*
X105713799Y-18654499D03*
D15*
X116674199Y-23514499D03*
D16*
X116674199Y-26054499D03*
X116674199Y-28594499D03*
D18*
X99278799Y-7634499D03*
D19*
X99278799Y-9924499D03*
X99278799Y-12214499D03*
D15*
X94580199Y-34431499D03*
D16*
X92040199Y-34431499D03*
D20*
X75036800Y-44977500D03*
D16*
X75036799Y-42437499D03*
X77576799Y-44977499D03*
X77576799Y-42437499D03*
X80116799Y-44977499D03*
X80116799Y-42437499D03*
X82656799Y-44977499D03*
X82656799Y-42437499D03*
X85196799Y-44977499D03*
X85196799Y-42437499D03*
X87736799Y-44977499D03*
X87736799Y-42437499D03*
X90276799Y-44977499D03*
X90276799Y-42437499D03*
X92816799Y-44977499D03*
X92816799Y-42437499D03*
X95356799Y-44977499D03*
X95356799Y-42437499D03*
X97896799Y-44977499D03*
X97896799Y-42437499D03*
X100436799Y-44977499D03*
X100436799Y-42437499D03*
X102976799Y-44977499D03*
X102976799Y-42437499D03*
X105516799Y-44977499D03*
X105516799Y-42437499D03*
D14*
X118333800Y-124500D03*
X218800Y-124500D03*
X11303800Y-49744500D03*
X118202200Y-54116500D03*
D20*
X75051800Y-50062500D03*
D16*
X75051799Y-47522499D03*
X77591799Y-50062499D03*
X77591799Y-47522499D03*
X80131799Y-50062499D03*
X80131799Y-47522499D03*
X82671799Y-50062499D03*
X82671799Y-47522499D03*
X85211799Y-50062499D03*
X85211799Y-47522499D03*
X87751799Y-50062499D03*
X87751799Y-47522499D03*
X90291799Y-50062499D03*
X90291799Y-47522499D03*
X92831799Y-50062499D03*
X92831799Y-47522499D03*
X95371799Y-50062499D03*
X95371799Y-47522499D03*
X97911799Y-50062499D03*
X97911799Y-47522499D03*
X100451799Y-50062499D03*
X100451799Y-47522499D03*
X102991799Y-50062499D03*
X102991799Y-47522499D03*
X105531799Y-50062499D03*
X105531799Y-47522499D03*
D15*
X92293799Y-18429499D03*
D16*
X94833799Y-18429499D03*
D21*
X117491800Y-45334500D03*
D22*
X114063799Y-45334499D03*
X59263799Y-45124499D03*
D21*
X56235800Y-45314500D03*
X62983800Y-42774500D03*
X62983800Y-47854500D03*
X110743800Y-42794500D03*
X110743800Y-47874500D03*
D14*
X85700200Y-22625500D03*
M02*
