M48
INCH,TZ
T1C0.0157
T2C0.0315
T3C0.0320
T4C0.0394
T5C0.0433
T6C0.0472
T7C0.0866
%
G90
G05
T1
X11892Y-16194
X12676Y-16194
X13217Y-17823
X13779Y-16201
X14373Y-15035
X19385Y-17823
X19717Y-9961
X22490Y-17209
X27864Y-9719
X33615Y-18049
T2
X15507Y-19504
X35555Y-1706
X36736Y-1706
X37917Y-1706
T3
X35586Y-4106
X35586Y-5606
X39586Y-4106
X39586Y-5606
X42315Y-4012
X43315Y-4012
T4
X24763Y-8490
X24763Y-9490
X24763Y-10490
X24763Y-11490
X36236Y-7356
X36236Y-13256
X36604Y-16374
X37236Y-7356
X37236Y-13256
X37604Y-16374
X38604Y-16374
X39604Y-16374
X40604Y-16374
X41604Y-16374
X42536Y-8206
X42604Y-16374
X43536Y-8206
X43604Y-16374
X44536Y-8206
X44604Y-16374
X45604Y-16374
X45935Y-9258
X45935Y-10258
X45935Y-11258
X46086Y-7356
X46086Y-13256
X47086Y-7356
X47086Y-13256
T5
X26309Y-588
X26317Y-3051
X27309Y-588
X27317Y-3051
X28309Y-588
X28317Y-3051
T6
X27521Y-7136
X27521Y-13136
X29549Y-7136
X29549Y-13136
T7
X34276Y-1706
X39197Y-1706
T0
M30
