G04 #@! TF.GenerationSoftware,KiCad,Pcbnew,5.99.0-unknown-a61ea1f~89~ubuntu20.04.1*
G04 #@! TF.CreationDate,2020-07-29T14:39:46+09:00*
G04 #@! TF.ProjectId,bGeigieRaku V2,62476569-6769-4655-9261-6b752056322e,rev?*
G04 #@! TF.SameCoordinates,Original*
G04 #@! TF.FileFunction,Copper,L1,Top*
G04 #@! TF.FilePolarity,Positive*
%FSLAX46Y46*%
G04 Gerber Fmt 4.6, Leading zero omitted, Abs format (unit mm)*
G04 Created by KiCad (PCBNEW 5.99.0-unknown-a61ea1f~89~ubuntu20.04.1) date 2020-07-29 14:39:46*
%MOMM*%
%LPD*%
G01*
G04 APERTURE LIST*
G04 #@! TA.AperFunction,ComponentPad*
%ADD10O,1.700000X1.700000*%
G04 #@! TD*
G04 #@! TA.AperFunction,ComponentPad*
%ADD11R,1.700000X1.700000*%
G04 #@! TD*
G04 #@! TA.AperFunction,ComponentPad*
%ADD12C,3.600000*%
G04 #@! TD*
G04 #@! TA.AperFunction,ComponentPad*
%ADD13C,2.743200*%
G04 #@! TD*
G04 #@! TA.AperFunction,ComponentPad*
%ADD14C,1.676400*%
G04 #@! TD*
G04 #@! TA.AperFunction,ComponentPad*
%ADD15C,3.000000*%
G04 #@! TD*
G04 #@! TA.AperFunction,Conductor*
%ADD16C,0.250000*%
G04 #@! TD*
G04 #@! TA.AperFunction,Conductor*
%ADD17C,1.000000*%
G04 #@! TD*
G04 APERTURE END LIST*
D10*
X204826000Y-116449000D03*
X202286000Y-116449000D03*
X199746000Y-116449000D03*
X197206000Y-116449000D03*
X194666000Y-116449000D03*
X192126000Y-116449000D03*
X189586000Y-116449000D03*
X187046000Y-116449000D03*
X184506000Y-116449000D03*
X181966000Y-116449000D03*
X179426000Y-116449000D03*
X176886000Y-116449000D03*
X174346000Y-116449000D03*
X171806000Y-116449000D03*
X169266000Y-116449000D03*
X166726000Y-116449000D03*
X164186000Y-116449000D03*
D11*
X161646000Y-116449000D03*
D12*
X172568000Y-126186000D03*
X90271600Y-126186000D03*
X90525600Y-72338000D03*
X209144000Y-72338000D03*
X209144000Y-126186000D03*
D10*
X189586000Y-105993000D03*
D11*
X192126000Y-105993000D03*
D10*
X204572000Y-105993000D03*
D11*
X207112000Y-105993000D03*
D10*
X204572000Y-91007000D03*
D11*
X207112000Y-91007000D03*
D10*
X189586000Y-91007000D03*
D11*
X192126000Y-91007000D03*
D10*
X104004000Y-116574000D03*
X104004000Y-119114000D03*
X106544000Y-116574000D03*
X106544000Y-119114000D03*
X109084000Y-116574000D03*
X109084000Y-119114000D03*
X111624000Y-116574000D03*
X111624000Y-119114000D03*
X114164000Y-116574000D03*
X114164000Y-119114000D03*
X116704000Y-116574000D03*
X116704000Y-119114000D03*
X119244000Y-116574000D03*
X119244000Y-119114000D03*
X121784000Y-116574000D03*
X121784000Y-119114000D03*
X124324000Y-116574000D03*
X124324000Y-119114000D03*
X126864000Y-116574000D03*
X126864000Y-119114000D03*
X129404000Y-116574000D03*
X129404000Y-119114000D03*
X131944000Y-116574000D03*
X131944000Y-119114000D03*
X134484000Y-116574000D03*
X134484000Y-119114000D03*
X137024000Y-116574000D03*
X137024000Y-119114000D03*
X139564000Y-116574000D03*
D11*
X139564000Y-119114000D03*
D13*
X196194000Y-75142000D03*
X202942000Y-77682000D03*
X196194000Y-80222000D03*
X148434000Y-80202000D03*
X141686000Y-77662000D03*
X148434000Y-75122000D03*
D10*
X204826000Y-113359000D03*
X202286000Y-113359000D03*
X199746000Y-113359000D03*
X197206000Y-113359000D03*
X194666000Y-113359000D03*
X192126000Y-113359000D03*
X189586000Y-113359000D03*
X187046000Y-113359000D03*
X184506000Y-113359000D03*
X181966000Y-113359000D03*
X179426000Y-113359000D03*
X176886000Y-113359000D03*
X174346000Y-113359000D03*
X171806000Y-113359000D03*
X169266000Y-113359000D03*
X166726000Y-113359000D03*
X164186000Y-113359000D03*
D11*
X161646000Y-113359000D03*
D10*
X204826000Y-119540000D03*
X202286000Y-119540000D03*
X199746000Y-119540000D03*
X197206000Y-119540000D03*
X194666000Y-119540000D03*
X192126000Y-119540000D03*
X189586000Y-119540000D03*
X187046000Y-119540000D03*
X184506000Y-119540000D03*
X181966000Y-119540000D03*
X179426000Y-119540000D03*
X176886000Y-119540000D03*
X174346000Y-119540000D03*
X171806000Y-119540000D03*
X169266000Y-119540000D03*
X166726000Y-119540000D03*
X164186000Y-119540000D03*
D11*
X161646000Y-119540000D03*
D10*
X204826000Y-122630000D03*
X202286000Y-122630000D03*
X199746000Y-122630000D03*
X197206000Y-122630000D03*
X194666000Y-122630000D03*
X192126000Y-122630000D03*
X189586000Y-122630000D03*
X187046000Y-122630000D03*
X184506000Y-122630000D03*
X181966000Y-122630000D03*
X179426000Y-122630000D03*
X176886000Y-122630000D03*
X174346000Y-122630000D03*
X171806000Y-122630000D03*
X169266000Y-122630000D03*
X166726000Y-122630000D03*
X164186000Y-122630000D03*
D11*
X161646000Y-122630000D03*
D14*
X180823000Y-82244000D03*
X190983000Y-82244000D03*
X190983000Y-86054000D03*
X180823000Y-86054000D03*
X200762000Y-86054000D03*
X198222000Y-86054000D03*
X183744000Y-76148000D03*
D15*
X177494000Y-76148000D03*
X189994000Y-76148000D03*
D14*
X186744000Y-76148000D03*
X180744000Y-76148000D03*
D10*
X174346000Y-87197000D03*
X174346000Y-89737000D03*
X174346000Y-92277000D03*
D11*
X174346000Y-94817000D03*
D10*
X165964000Y-100024000D03*
X165964000Y-102564000D03*
D11*
X165964000Y-105104000D03*
D16*
X207112000Y-105993000D02*
X204572000Y-105993000D01*
X207112000Y-91007000D02*
X204572000Y-91007000D01*
X135659300Y-116941400D02*
X135659300Y-116574000D01*
X136467200Y-117749300D02*
X135659300Y-116941400D01*
X146868900Y-117749300D02*
X136467200Y-117749300D01*
X156120700Y-108497500D02*
X146868900Y-117749300D01*
X178318500Y-108497500D02*
X156120700Y-108497500D01*
X200762000Y-86054000D02*
X178318500Y-108497500D01*
X134484000Y-116574000D02*
X135659300Y-116574000D01*
X124324000Y-119114000D02*
X125499300Y-119114000D01*
X125499300Y-119481400D02*
X125499300Y-119114000D01*
X126307200Y-120289300D02*
X125499300Y-119481400D01*
X146160800Y-120289300D02*
X126307200Y-120289300D01*
X154585700Y-111864400D02*
X146160800Y-120289300D01*
X167771400Y-111864400D02*
X154585700Y-111864400D01*
X169266000Y-113359000D02*
X167771400Y-111864400D01*
X120419300Y-119481300D02*
X120419300Y-119114000D01*
X121683500Y-120745500D02*
X120419300Y-119481300D01*
X157719600Y-120745500D02*
X121683500Y-120745500D01*
X160470600Y-117994500D02*
X157719600Y-120745500D01*
X169499200Y-117994500D02*
X160470600Y-117994500D01*
X170465900Y-117027800D02*
X169499200Y-117994500D01*
X170465900Y-116060900D02*
X170465900Y-117027800D01*
X171992500Y-114534300D02*
X170465900Y-116060900D01*
X172362800Y-114534300D02*
X171992500Y-114534300D01*
X173170700Y-113726400D02*
X172362800Y-114534300D01*
X173170700Y-113359000D02*
X173170700Y-113726400D01*
X174346000Y-113359000D02*
X173170700Y-113359000D01*
X119244000Y-119114000D02*
X120419300Y-119114000D01*
X117879300Y-118746600D02*
X117879300Y-119114000D01*
X118687200Y-117938700D02*
X117879300Y-118746600D01*
X119580300Y-117938700D02*
X118687200Y-117938700D01*
X120419400Y-117099600D02*
X119580300Y-117938700D01*
X120419400Y-116271900D02*
X120419400Y-117099600D01*
X134127300Y-102564000D02*
X120419400Y-116271900D01*
X165964000Y-102564000D02*
X134127300Y-102564000D01*
X116704000Y-119114000D02*
X117879300Y-119114000D01*
D17*
X166726000Y-113359000D02*
X166726000Y-116449000D01*
X103203400Y-114723700D02*
X106544000Y-114723700D01*
X102152700Y-115774400D02*
X103203400Y-114723700D01*
X102152700Y-119920400D02*
X102152700Y-115774400D01*
X106712600Y-124480300D02*
X102152700Y-119920400D01*
X166726000Y-124480300D02*
X106712600Y-124480300D01*
X166726000Y-122630000D02*
X166726000Y-124480300D01*
X106544000Y-116574000D02*
X106544000Y-114723700D01*
X164186000Y-113359000D02*
X164186000Y-116449000D01*
X172495700Y-91642000D02*
X165964000Y-98173700D01*
X172495700Y-87197000D02*
X172495700Y-91642000D01*
X174346000Y-87197000D02*
X172495700Y-87197000D01*
X165964000Y-100024000D02*
X165964000Y-98173700D01*
D16*
X138199300Y-116206700D02*
X138199300Y-116574000D01*
X150477400Y-103928600D02*
X138199300Y-116206700D01*
X166314000Y-103928600D02*
X150477400Y-103928600D01*
X168011500Y-102231100D02*
X166314000Y-103928600D01*
X168011500Y-98990400D02*
X168011500Y-102231100D01*
X173360600Y-93641300D02*
X168011500Y-98990400D01*
X174690700Y-93641300D02*
X173360600Y-93641300D01*
X180823000Y-87509000D02*
X174690700Y-93641300D01*
X180823000Y-86054000D02*
X180823000Y-87509000D01*
X137024000Y-116574000D02*
X138199300Y-116574000D01*
X184600700Y-94817000D02*
X188410700Y-91007000D01*
X174346000Y-94817000D02*
X184600700Y-94817000D01*
X189586000Y-91007000D02*
X188410700Y-91007000D01*
X161646000Y-113359000D02*
X161646000Y-116449000D01*
X137024000Y-119114000D02*
X134484000Y-119114000D01*
X192126000Y-91007000D02*
X189586000Y-91007000D01*
X174346000Y-96722000D02*
X174346000Y-94817000D01*
X165964000Y-105104000D02*
X174346000Y-96722000D01*
M02*
