G04 #@! TF.GenerationSoftware,KiCad,Pcbnew,5.99.0-unknown-da005bd2a6~101~ubuntu20.04.1*
G04 #@! TF.CreationDate,2021-02-28T21:29:47+09:00*
G04 #@! TF.ProjectId,M5_board_bGeigieRaku V1.9,4d355f62-6f61-4726-945f-624765696769,rev?*
G04 #@! TF.SameCoordinates,Original*
G04 #@! TF.FileFunction,Legend,Top*
G04 #@! TF.FilePolarity,Positive*
%FSLAX46Y46*%
G04 Gerber Fmt 4.6, Leading zero omitted, Abs format (unit mm)*
G04 Created by KiCad (PCBNEW 5.99.0-unknown-da005bd2a6~101~ubuntu20.04.1) date 2021-02-28 21:29:47*
%MOMM*%
%LPD*%
G01*
G04 APERTURE LIST*
%ADD10C,0.300000*%
%ADD11C,0.200000*%
%ADD12C,0.150000*%
%ADD13C,0.120650*%
%ADD14C,0.096520*%
%ADD15C,0.152400*%
%ADD16C,0.120000*%
%ADD17C,0.127000*%
%ADD18C,0.304800*%
G04 APERTURE END LIST*
D10*
X107071885Y-69880000D02*
X107214742Y-69951428D01*
X107429028Y-69951428D01*
X107643314Y-69880000D01*
X107786171Y-69737142D01*
X107857600Y-69594285D01*
X107929028Y-69308571D01*
X107929028Y-69094285D01*
X107857600Y-68808571D01*
X107786171Y-68665714D01*
X107643314Y-68522857D01*
X107429028Y-68451428D01*
X107286171Y-68451428D01*
X107071885Y-68522857D01*
X107000457Y-68594285D01*
X107000457Y-69094285D01*
X107286171Y-69094285D01*
X105500457Y-68451428D02*
X106000457Y-69165714D01*
X106357600Y-68451428D02*
X106357600Y-69951428D01*
X105786171Y-69951428D01*
X105643314Y-69880000D01*
X105571885Y-69808571D01*
X105500457Y-69665714D01*
X105500457Y-69451428D01*
X105571885Y-69308571D01*
X105643314Y-69237142D01*
X105786171Y-69165714D01*
X106357600Y-69165714D01*
X104571885Y-69951428D02*
X104286171Y-69951428D01*
X104143314Y-69880000D01*
X104000457Y-69737142D01*
X103929028Y-69451428D01*
X103929028Y-68951428D01*
X104000457Y-68665714D01*
X104143314Y-68522857D01*
X104286171Y-68451428D01*
X104571885Y-68451428D01*
X104714742Y-68522857D01*
X104857600Y-68665714D01*
X104929028Y-68951428D01*
X104929028Y-69451428D01*
X104857600Y-69737142D01*
X104714742Y-69880000D01*
X104571885Y-69951428D01*
X103500457Y-69951428D02*
X103000457Y-68451428D01*
X102500457Y-69951428D01*
X102000457Y-69237142D02*
X101500457Y-69237142D01*
X101286171Y-68451428D02*
X102000457Y-68451428D01*
X102000457Y-69951428D01*
X101286171Y-69951428D01*
X201993314Y-125858928D02*
X201993314Y-127358928D01*
X201993314Y-126787500D02*
X201850457Y-126858928D01*
X201564742Y-126858928D01*
X201421885Y-126787500D01*
X201350457Y-126716071D01*
X201279028Y-126573214D01*
X201279028Y-126144642D01*
X201350457Y-126001785D01*
X201421885Y-125930357D01*
X201564742Y-125858928D01*
X201850457Y-125858928D01*
X201993314Y-125930357D01*
X199850457Y-127287500D02*
X199993314Y-127358928D01*
X200207600Y-127358928D01*
X200421885Y-127287500D01*
X200564742Y-127144642D01*
X200636171Y-127001785D01*
X200707600Y-126716071D01*
X200707600Y-126501785D01*
X200636171Y-126216071D01*
X200564742Y-126073214D01*
X200421885Y-125930357D01*
X200207600Y-125858928D01*
X200064742Y-125858928D01*
X199850457Y-125930357D01*
X199779028Y-126001785D01*
X199779028Y-126501785D01*
X200064742Y-126501785D01*
X198564742Y-125930357D02*
X198707600Y-125858928D01*
X198993314Y-125858928D01*
X199136171Y-125930357D01*
X199207600Y-126073214D01*
X199207600Y-126644642D01*
X199136171Y-126787500D01*
X198993314Y-126858928D01*
X198707600Y-126858928D01*
X198564742Y-126787500D01*
X198493314Y-126644642D01*
X198493314Y-126501785D01*
X199207600Y-126358928D01*
X197850457Y-125858928D02*
X197850457Y-126858928D01*
X197850457Y-127358928D02*
X197921885Y-127287500D01*
X197850457Y-127216071D01*
X197779028Y-127287500D01*
X197850457Y-127358928D01*
X197850457Y-127216071D01*
X196493314Y-126858928D02*
X196493314Y-125644642D01*
X196564742Y-125501785D01*
X196636171Y-125430357D01*
X196779028Y-125358928D01*
X196993314Y-125358928D01*
X197136171Y-125430357D01*
X196493314Y-125930357D02*
X196636171Y-125858928D01*
X196921885Y-125858928D01*
X197064742Y-125930357D01*
X197136171Y-126001785D01*
X197207600Y-126144642D01*
X197207600Y-126573214D01*
X197136171Y-126716071D01*
X197064742Y-126787500D01*
X196921885Y-126858928D01*
X196636171Y-126858928D01*
X196493314Y-126787500D01*
X195779028Y-125858928D02*
X195779028Y-126858928D01*
X195779028Y-127358928D02*
X195850457Y-127287500D01*
X195779028Y-127216071D01*
X195707600Y-127287500D01*
X195779028Y-127358928D01*
X195779028Y-127216071D01*
X194493314Y-125930357D02*
X194636171Y-125858928D01*
X194921885Y-125858928D01*
X195064742Y-125930357D01*
X195136171Y-126073214D01*
X195136171Y-126644642D01*
X195064742Y-126787500D01*
X194921885Y-126858928D01*
X194636171Y-126858928D01*
X194493314Y-126787500D01*
X194421885Y-126644642D01*
X194421885Y-126501785D01*
X195136171Y-126358928D01*
X193921885Y-127358928D02*
X192921885Y-127358928D01*
X193921885Y-125858928D01*
X192921885Y-125858928D01*
X191779028Y-125930357D02*
X191921885Y-125858928D01*
X192207600Y-125858928D01*
X192350457Y-125930357D01*
X192421885Y-126073214D01*
X192421885Y-126644642D01*
X192350457Y-126787500D01*
X192207600Y-126858928D01*
X191921885Y-126858928D01*
X191779028Y-126787500D01*
X191707600Y-126644642D01*
X191707600Y-126501785D01*
X192421885Y-126358928D01*
X191064742Y-126858928D02*
X191064742Y-125858928D01*
X191064742Y-126716071D02*
X190993314Y-126787500D01*
X190850457Y-126858928D01*
X190636171Y-126858928D01*
X190493314Y-126787500D01*
X190421885Y-126644642D01*
X190421885Y-125858928D01*
X199564742Y-124943928D02*
X199064742Y-123443928D01*
X198564742Y-124943928D01*
X197279028Y-123443928D02*
X198136171Y-123443928D01*
X197707600Y-123443928D02*
X197707600Y-124943928D01*
X197850457Y-124729642D01*
X197993314Y-124586785D01*
X198136171Y-124515357D01*
X196636171Y-123586785D02*
X196564742Y-123515357D01*
X196636171Y-123443928D01*
X196707600Y-123515357D01*
X196636171Y-123586785D01*
X196636171Y-123443928D01*
X195850457Y-123443928D02*
X195564742Y-123443928D01*
X195421885Y-123515357D01*
X195350457Y-123586785D01*
X195207600Y-123801071D01*
X195136171Y-124086785D01*
X195136171Y-124658214D01*
X195207600Y-124801071D01*
X195279028Y-124872500D01*
X195421885Y-124943928D01*
X195707600Y-124943928D01*
X195850457Y-124872500D01*
X195921885Y-124801071D01*
X195993314Y-124658214D01*
X195993314Y-124301071D01*
X195921885Y-124158214D01*
X195850457Y-124086785D01*
X195707600Y-124015357D01*
X195421885Y-124015357D01*
X195279028Y-124086785D01*
X195207600Y-124158214D01*
X195136171Y-124301071D01*
X194493314Y-123586785D02*
X194421885Y-123515357D01*
X194493314Y-123443928D01*
X194564742Y-123515357D01*
X194493314Y-123586785D01*
X194493314Y-123443928D01*
X193136171Y-124943928D02*
X193421885Y-124943928D01*
X193564742Y-124872500D01*
X193636171Y-124801071D01*
X193779028Y-124586785D01*
X193850457Y-124301071D01*
X193850457Y-123729642D01*
X193779028Y-123586785D01*
X193707600Y-123515357D01*
X193564742Y-123443928D01*
X193279028Y-123443928D01*
X193136171Y-123515357D01*
X193064742Y-123586785D01*
X192993314Y-123729642D01*
X192993314Y-124086785D01*
X193064742Y-124229642D01*
X193136171Y-124301071D01*
X193279028Y-124372500D01*
X193564742Y-124372500D01*
X193707600Y-124301071D01*
X193779028Y-124229642D01*
X193850457Y-124086785D01*
D11*
X189753300Y-114751100D02*
X189753300Y-109036100D01*
X202453300Y-114751100D02*
X189753300Y-114751100D01*
X189753300Y-109036100D02*
X202453300Y-109036100D01*
X202453300Y-109036100D02*
X202453300Y-114751100D01*
D12*
X212489742Y-101994285D02*
X212537361Y-102041904D01*
X212584980Y-102184761D01*
X212584980Y-102280000D01*
X212537361Y-102422857D01*
X212442123Y-102518095D01*
X212346885Y-102565714D01*
X212156409Y-102613333D01*
X212013552Y-102613333D01*
X211823076Y-102565714D01*
X211727838Y-102518095D01*
X211632600Y-102422857D01*
X211584980Y-102280000D01*
X211584980Y-102184761D01*
X211632600Y-102041904D01*
X211680219Y-101994285D01*
X212584980Y-101565714D02*
X211584980Y-101565714D01*
X212584980Y-101137142D02*
X212061171Y-101137142D01*
X211965933Y-101184761D01*
X211918314Y-101280000D01*
X211918314Y-101422857D01*
X211965933Y-101518095D01*
X212013552Y-101565714D01*
X212584980Y-100232380D02*
X212061171Y-100232380D01*
X211965933Y-100280000D01*
X211918314Y-100375238D01*
X211918314Y-100565714D01*
X211965933Y-100660952D01*
X212537361Y-100232380D02*
X212584980Y-100327619D01*
X212584980Y-100565714D01*
X212537361Y-100660952D01*
X212442123Y-100708571D01*
X212346885Y-100708571D01*
X212251647Y-100660952D01*
X212204028Y-100565714D01*
X212204028Y-100327619D01*
X212156409Y-100232380D01*
X212584980Y-99756190D02*
X211918314Y-99756190D01*
X212108790Y-99756190D02*
X212013552Y-99708571D01*
X211965933Y-99660952D01*
X211918314Y-99565714D01*
X211918314Y-99470476D01*
X211918314Y-98708571D02*
X212727838Y-98708571D01*
X212823076Y-98756190D01*
X212870695Y-98803809D01*
X212918314Y-98899047D01*
X212918314Y-99041904D01*
X212870695Y-99137142D01*
X212537361Y-98708571D02*
X212584980Y-98803809D01*
X212584980Y-98994285D01*
X212537361Y-99089523D01*
X212489742Y-99137142D01*
X212394504Y-99184761D01*
X212108790Y-99184761D01*
X212013552Y-99137142D01*
X211965933Y-99089523D01*
X211918314Y-98994285D01*
X211918314Y-98803809D01*
X211965933Y-98708571D01*
X212537361Y-97851428D02*
X212584980Y-97946666D01*
X212584980Y-98137142D01*
X212537361Y-98232380D01*
X212442123Y-98280000D01*
X212061171Y-98280000D01*
X211965933Y-98232380D01*
X211918314Y-98137142D01*
X211918314Y-97946666D01*
X211965933Y-97851428D01*
X212061171Y-97803809D01*
X212156409Y-97803809D01*
X212251647Y-98280000D01*
X212584980Y-96470476D02*
X212537361Y-96565714D01*
X212489742Y-96613333D01*
X212394504Y-96660952D01*
X212108790Y-96660952D01*
X212013552Y-96613333D01*
X211965933Y-96565714D01*
X211918314Y-96470476D01*
X211918314Y-96327619D01*
X211965933Y-96232380D01*
X212013552Y-96184761D01*
X212108790Y-96137142D01*
X212394504Y-96137142D01*
X212489742Y-96184761D01*
X212537361Y-96232380D01*
X212584980Y-96327619D01*
X212584980Y-96470476D01*
X211918314Y-95708571D02*
X212584980Y-95708571D01*
X212013552Y-95708571D02*
X211965933Y-95660952D01*
X211918314Y-95565714D01*
X211918314Y-95422857D01*
X211965933Y-95327619D01*
X212061171Y-95280000D01*
X212584980Y-95280000D01*
X212584980Y-94660952D02*
X212537361Y-94756190D01*
X212442123Y-94803809D01*
X211584980Y-94803809D01*
X211918314Y-94375238D02*
X212584980Y-94137142D01*
X211918314Y-93899047D02*
X212584980Y-94137142D01*
X212823076Y-94232380D01*
X212870695Y-94280000D01*
X212918314Y-94375238D01*
D10*
X128200457Y-69751428D02*
X128200457Y-68537142D01*
X128129028Y-68394285D01*
X128057600Y-68322857D01*
X127914742Y-68251428D01*
X127629028Y-68251428D01*
X127486171Y-68322857D01*
X127414742Y-68394285D01*
X127343314Y-68537142D01*
X127343314Y-69751428D01*
X126700457Y-68322857D02*
X126486171Y-68251428D01*
X126129028Y-68251428D01*
X125986171Y-68322857D01*
X125914742Y-68394285D01*
X125843314Y-68537142D01*
X125843314Y-68680000D01*
X125914742Y-68822857D01*
X125986171Y-68894285D01*
X126129028Y-68965714D01*
X126414742Y-69037142D01*
X126557600Y-69108571D01*
X126629028Y-69180000D01*
X126700457Y-69322857D01*
X126700457Y-69465714D01*
X126629028Y-69608571D01*
X126557600Y-69680000D01*
X126414742Y-69751428D01*
X126057600Y-69751428D01*
X125843314Y-69680000D01*
X124700457Y-69037142D02*
X124486171Y-68965714D01*
X124414742Y-68894285D01*
X124343314Y-68751428D01*
X124343314Y-68537142D01*
X124414742Y-68394285D01*
X124486171Y-68322857D01*
X124629028Y-68251428D01*
X125200457Y-68251428D01*
X125200457Y-69751428D01*
X124700457Y-69751428D01*
X124557600Y-69680000D01*
X124486171Y-69608571D01*
X124414742Y-69465714D01*
X124414742Y-69322857D01*
X124486171Y-69180000D01*
X124557600Y-69108571D01*
X124700457Y-69037142D01*
X125200457Y-69037142D01*
D12*
X196279871Y-111343814D02*
X196315585Y-111236671D01*
X196315585Y-111058100D01*
X196279871Y-110986671D01*
X196244157Y-110950957D01*
X196172728Y-110915242D01*
X196101300Y-110915242D01*
X196029871Y-110950957D01*
X195994157Y-110986671D01*
X195958442Y-111058100D01*
X195922728Y-111200957D01*
X195887014Y-111272385D01*
X195851300Y-111308100D01*
X195779871Y-111343814D01*
X195708442Y-111343814D01*
X195637014Y-111308100D01*
X195601300Y-111272385D01*
X195565585Y-111200957D01*
X195565585Y-111022385D01*
X195601300Y-110915242D01*
X196315585Y-110593814D02*
X195565585Y-110593814D01*
X195565585Y-110415242D01*
X195601300Y-110308100D01*
X195672728Y-110236671D01*
X195744157Y-110200957D01*
X195887014Y-110165242D01*
X195994157Y-110165242D01*
X196137014Y-110200957D01*
X196208442Y-110236671D01*
X196279871Y-110308100D01*
X196315585Y-110415242D01*
X196315585Y-110593814D01*
X196101300Y-109879528D02*
X196101300Y-109522385D01*
X196315585Y-109950957D02*
X195565585Y-109700957D01*
X196315585Y-109450957D01*
D10*
X174032171Y-70980571D02*
X174032171Y-70694857D01*
X174103600Y-70552000D01*
X174246457Y-70409142D01*
X174532171Y-70337714D01*
X175032171Y-70337714D01*
X175317885Y-70409142D01*
X175460742Y-70552000D01*
X175532171Y-70694857D01*
X175532171Y-70980571D01*
X175460742Y-71123428D01*
X175317885Y-71266285D01*
X175032171Y-71337714D01*
X174532171Y-71337714D01*
X174246457Y-71266285D01*
X174103600Y-71123428D01*
X174032171Y-70980571D01*
X175532171Y-69694857D02*
X174032171Y-69694857D01*
X175532171Y-68837714D01*
X174032171Y-68837714D01*
D12*
X200808300Y-111165242D02*
X200772585Y-111236671D01*
X200772585Y-111343814D01*
X200808300Y-111450957D01*
X200879728Y-111522385D01*
X200951157Y-111558100D01*
X201094014Y-111593814D01*
X201201157Y-111593814D01*
X201344014Y-111558100D01*
X201415442Y-111522385D01*
X201486871Y-111450957D01*
X201522585Y-111343814D01*
X201522585Y-111272385D01*
X201486871Y-111165242D01*
X201451157Y-111129528D01*
X201201157Y-111129528D01*
X201201157Y-111272385D01*
X201522585Y-110808100D02*
X200772585Y-110808100D01*
X200772585Y-110308100D02*
X200772585Y-110165242D01*
X200808300Y-110093814D01*
X200879728Y-110022385D01*
X201022585Y-109986671D01*
X201272585Y-109986671D01*
X201415442Y-110022385D01*
X201486871Y-110093814D01*
X201522585Y-110165242D01*
X201522585Y-110308100D01*
X201486871Y-110379528D01*
X201415442Y-110450957D01*
X201272585Y-110486671D01*
X201022585Y-110486671D01*
X200879728Y-110450957D01*
X200808300Y-110379528D01*
X200772585Y-110308100D01*
X200772585Y-109522385D02*
X200772585Y-109450957D01*
X200808300Y-109379528D01*
X200844014Y-109343814D01*
X200915442Y-109308100D01*
X201058300Y-109272385D01*
X201236871Y-109272385D01*
X201379728Y-109308100D01*
X201451157Y-109343814D01*
X201486871Y-109379528D01*
X201522585Y-109450957D01*
X201522585Y-109522385D01*
X201486871Y-109593814D01*
X201451157Y-109629528D01*
X201379728Y-109665242D01*
X201236871Y-109700957D01*
X201058300Y-109700957D01*
X200915442Y-109665242D01*
X200844014Y-109629528D01*
X200808300Y-109593814D01*
X200772585Y-109522385D01*
X188093485Y-110011431D02*
X188093485Y-110368574D01*
X188450628Y-110404288D01*
X188414914Y-110368574D01*
X188379200Y-110297145D01*
X188379200Y-110118574D01*
X188414914Y-110047145D01*
X188450628Y-110011431D01*
X188522057Y-109975716D01*
X188700628Y-109975716D01*
X188772057Y-110011431D01*
X188807771Y-110047145D01*
X188843485Y-110118574D01*
X188843485Y-110297145D01*
X188807771Y-110368574D01*
X188772057Y-110404288D01*
X188093485Y-109761431D02*
X188843485Y-109511431D01*
X188093485Y-109261431D01*
D10*
X96514742Y-94001428D02*
X96586171Y-93787142D01*
X96586171Y-93430000D01*
X96514742Y-93287142D01*
X96443314Y-93215714D01*
X96300457Y-93144285D01*
X96157600Y-93144285D01*
X96014742Y-93215714D01*
X95943314Y-93287142D01*
X95871885Y-93430000D01*
X95800457Y-93715714D01*
X95729028Y-93858571D01*
X95657600Y-93930000D01*
X95514742Y-94001428D01*
X95371885Y-94001428D01*
X95229028Y-93930000D01*
X95157600Y-93858571D01*
X95086171Y-93715714D01*
X95086171Y-93358571D01*
X95157600Y-93144285D01*
X96586171Y-92501428D02*
X95086171Y-92501428D01*
X95086171Y-92144285D01*
X95157600Y-91930000D01*
X95300457Y-91787142D01*
X95443314Y-91715714D01*
X95729028Y-91644285D01*
X95943314Y-91644285D01*
X96229028Y-91715714D01*
X96371885Y-91787142D01*
X96514742Y-91930000D01*
X96586171Y-92144285D01*
X96586171Y-92501428D01*
X96443314Y-90144285D02*
X96514742Y-90215714D01*
X96586171Y-90430000D01*
X96586171Y-90572857D01*
X96514742Y-90787142D01*
X96371885Y-90930000D01*
X96229028Y-91001428D01*
X95943314Y-91072857D01*
X95729028Y-91072857D01*
X95443314Y-91001428D01*
X95300457Y-90930000D01*
X95157600Y-90787142D01*
X95086171Y-90572857D01*
X95086171Y-90430000D01*
X95157600Y-90215714D01*
X95229028Y-90144285D01*
X96157600Y-89572857D02*
X96157600Y-88858571D01*
X96586171Y-89715714D02*
X95086171Y-89215714D01*
X96586171Y-88715714D01*
X96586171Y-87358571D02*
X95871885Y-87858571D01*
X96586171Y-88215714D02*
X95086171Y-88215714D01*
X95086171Y-87644285D01*
X95157600Y-87501428D01*
X95229028Y-87430000D01*
X95371885Y-87358571D01*
X95586171Y-87358571D01*
X95729028Y-87430000D01*
X95800457Y-87501428D01*
X95871885Y-87644285D01*
X95871885Y-88215714D01*
X96586171Y-86715714D02*
X95086171Y-86715714D01*
X95086171Y-86358571D01*
X95157600Y-86144285D01*
X95300457Y-86001428D01*
X95443314Y-85930000D01*
X95729028Y-85858571D01*
X95943314Y-85858571D01*
X96229028Y-85930000D01*
X96371885Y-86001428D01*
X96514742Y-86144285D01*
X96586171Y-86358571D01*
X96586171Y-86715714D01*
D12*
X185553485Y-111511430D02*
X185553485Y-111047145D01*
X185839200Y-111297145D01*
X185839200Y-111190002D01*
X185874914Y-111118573D01*
X185910628Y-111082859D01*
X185982057Y-111047145D01*
X186160628Y-111047145D01*
X186232057Y-111082859D01*
X186267771Y-111118573D01*
X186303485Y-111190002D01*
X186303485Y-111404288D01*
X186267771Y-111475716D01*
X186232057Y-111511430D01*
X186232057Y-110725716D02*
X186267771Y-110690002D01*
X186303485Y-110725716D01*
X186267771Y-110761430D01*
X186232057Y-110725716D01*
X186303485Y-110725716D01*
X185553485Y-110440002D02*
X185553485Y-109975716D01*
X185839200Y-110225716D01*
X185839200Y-110118573D01*
X185874914Y-110047145D01*
X185910628Y-110011430D01*
X185982057Y-109975716D01*
X186160628Y-109975716D01*
X186232057Y-110011430D01*
X186267771Y-110047145D01*
X186303485Y-110118573D01*
X186303485Y-110332859D01*
X186267771Y-110404288D01*
X186232057Y-110440002D01*
X185553485Y-109761430D02*
X186303485Y-109511430D01*
X185553485Y-109261430D01*
X190485585Y-111079958D02*
X190485585Y-110651387D01*
X191235585Y-110865672D02*
X190485585Y-110865672D01*
X190485585Y-110472815D02*
X191235585Y-109972815D01*
X190485585Y-109972815D02*
X191235585Y-110472815D01*
X191235585Y-109294244D02*
X191235585Y-109722815D01*
X191235585Y-109508529D02*
X190485585Y-109508529D01*
X190592728Y-109579958D01*
X190664157Y-109651387D01*
X190699871Y-109722815D01*
X183049200Y-110904287D02*
X183013485Y-110975716D01*
X183013485Y-111082859D01*
X183049200Y-111190001D01*
X183120628Y-111261430D01*
X183192057Y-111297144D01*
X183334914Y-111332859D01*
X183442057Y-111332859D01*
X183584914Y-111297144D01*
X183656342Y-111261430D01*
X183727771Y-111190001D01*
X183763485Y-111082859D01*
X183763485Y-111011430D01*
X183727771Y-110904287D01*
X183692057Y-110868573D01*
X183442057Y-110868573D01*
X183442057Y-111011430D01*
X183763485Y-110547144D02*
X183013485Y-110547144D01*
X183763485Y-110118573D01*
X183013485Y-110118573D01*
X183763485Y-109761430D02*
X183013485Y-109761430D01*
X183013485Y-109582859D01*
X183049200Y-109475716D01*
X183120628Y-109404287D01*
X183192057Y-109368573D01*
X183334914Y-109332859D01*
X183442057Y-109332859D01*
X183584914Y-109368573D01*
X183656342Y-109404287D01*
X183727771Y-109475716D01*
X183763485Y-109582859D01*
X183763485Y-109761430D01*
D10*
X191050171Y-71226571D02*
X191050171Y-70940857D01*
X191121600Y-70798000D01*
X191264457Y-70655142D01*
X191550171Y-70583714D01*
X192050171Y-70583714D01*
X192335885Y-70655142D01*
X192478742Y-70798000D01*
X192550171Y-70940857D01*
X192550171Y-71226571D01*
X192478742Y-71369428D01*
X192335885Y-71512285D01*
X192050171Y-71583714D01*
X191550171Y-71583714D01*
X191264457Y-71512285D01*
X191121600Y-71369428D01*
X191050171Y-71226571D01*
X191764457Y-69440857D02*
X191764457Y-69940857D01*
X192550171Y-69940857D02*
X191050171Y-69940857D01*
X191050171Y-69226571D01*
X191764457Y-68155142D02*
X191764457Y-68655142D01*
X192550171Y-68655142D02*
X191050171Y-68655142D01*
X191050171Y-67940857D01*
D12*
X193775585Y-110633529D02*
X193418442Y-110883529D01*
X193775585Y-111062101D02*
X193025585Y-111062101D01*
X193025585Y-110776387D01*
X193061300Y-110704958D01*
X193097014Y-110669244D01*
X193168442Y-110633529D01*
X193275585Y-110633529D01*
X193347014Y-110669244D01*
X193382728Y-110704958D01*
X193418442Y-110776387D01*
X193418442Y-111062101D01*
X193025585Y-110383529D02*
X193775585Y-109883529D01*
X193025585Y-109883529D02*
X193775585Y-110383529D01*
X193775585Y-109204958D02*
X193775585Y-109633529D01*
X193775585Y-109419244D02*
X193025585Y-109419244D01*
X193132728Y-109490672D01*
X193204157Y-109562101D01*
X193239871Y-109633529D01*
X198819871Y-111044245D02*
X198855585Y-110937102D01*
X198855585Y-110758530D01*
X198819871Y-110687102D01*
X198784157Y-110651388D01*
X198712728Y-110615673D01*
X198641300Y-110615673D01*
X198569871Y-110651388D01*
X198534157Y-110687102D01*
X198498442Y-110758530D01*
X198462728Y-110901388D01*
X198427014Y-110972816D01*
X198391300Y-111008530D01*
X198319871Y-111044245D01*
X198248442Y-111044245D01*
X198177014Y-111008530D01*
X198141300Y-110972816D01*
X198105585Y-110901388D01*
X198105585Y-110722816D01*
X198141300Y-110615673D01*
X198784157Y-109865673D02*
X198819871Y-109901388D01*
X198855585Y-110008530D01*
X198855585Y-110079959D01*
X198819871Y-110187102D01*
X198748442Y-110258530D01*
X198677014Y-110294245D01*
X198534157Y-110329959D01*
X198427014Y-110329959D01*
X198284157Y-110294245D01*
X198212728Y-110258530D01*
X198141300Y-110187102D01*
X198105585Y-110079959D01*
X198105585Y-110008530D01*
X198141300Y-109901388D01*
X198177014Y-109865673D01*
X198855585Y-109187102D02*
X198855585Y-109544245D01*
X198105585Y-109544245D01*
D13*
X178530265Y-82685279D02*
X177955741Y-83087446D01*
X178530265Y-83374708D02*
X177323765Y-83374708D01*
X177323765Y-82915089D01*
X177381218Y-82800184D01*
X177438670Y-82742732D01*
X177553575Y-82685279D01*
X177725932Y-82685279D01*
X177840837Y-82742732D01*
X177898289Y-82800184D01*
X177955741Y-82915089D01*
X177955741Y-83374708D01*
X177438670Y-82225660D02*
X177381218Y-82168208D01*
X177323765Y-82053303D01*
X177323765Y-81766041D01*
X177381218Y-81651136D01*
X177438670Y-81593684D01*
X177553575Y-81536232D01*
X177668479Y-81536232D01*
X177840837Y-81593684D01*
X178530265Y-82283112D01*
X178530265Y-81536232D01*
X185530867Y-82948547D02*
X184841439Y-82948547D01*
X185186153Y-82948547D02*
X185186153Y-81742047D01*
X185071248Y-81914404D01*
X184956344Y-82029309D01*
X184841439Y-82086761D01*
X186047939Y-82948547D02*
X186047939Y-81742047D01*
X186737367Y-82948547D02*
X186220296Y-82259119D01*
X186737367Y-81742047D02*
X186047939Y-82431476D01*
D12*
X143645380Y-116838333D02*
X144359666Y-116838333D01*
X144502523Y-116885952D01*
X144597761Y-116981190D01*
X144645380Y-117124047D01*
X144645380Y-117219285D01*
X144645380Y-115838333D02*
X144645380Y-116409761D01*
X144645380Y-116124047D02*
X143645380Y-116124047D01*
X143788238Y-116219285D01*
X143883476Y-116314523D01*
X143931095Y-116409761D01*
X205205219Y-92591904D02*
X205157600Y-92687142D01*
X205062361Y-92782380D01*
X204919504Y-92925238D01*
X204871885Y-93020476D01*
X204871885Y-93115714D01*
X205109980Y-93068095D02*
X205062361Y-93163333D01*
X204967123Y-93258571D01*
X204776647Y-93306190D01*
X204443314Y-93306190D01*
X204252838Y-93258571D01*
X204157600Y-93163333D01*
X204109980Y-93068095D01*
X204109980Y-92877619D01*
X204157600Y-92782380D01*
X204252838Y-92687142D01*
X204443314Y-92639523D01*
X204776647Y-92639523D01*
X204967123Y-92687142D01*
X205062361Y-92782380D01*
X205109980Y-92877619D01*
X205109980Y-93068095D01*
X205109980Y-92210952D02*
X204109980Y-92210952D01*
X204157600Y-90449047D02*
X204109980Y-90544285D01*
X204109980Y-90687142D01*
X204157600Y-90830000D01*
X204252838Y-90925238D01*
X204348076Y-90972857D01*
X204538552Y-91020476D01*
X204681409Y-91020476D01*
X204871885Y-90972857D01*
X204967123Y-90925238D01*
X205062361Y-90830000D01*
X205109980Y-90687142D01*
X205109980Y-90591904D01*
X205062361Y-90449047D01*
X205014742Y-90401428D01*
X204681409Y-90401428D01*
X204681409Y-90591904D01*
X205109980Y-89972857D02*
X204109980Y-89972857D01*
X205109980Y-89401428D01*
X204109980Y-89401428D01*
X205109980Y-88925238D02*
X204109980Y-88925238D01*
X204109980Y-88687142D01*
X204157600Y-88544285D01*
X204252838Y-88449047D01*
X204348076Y-88401428D01*
X204538552Y-88353809D01*
X204681409Y-88353809D01*
X204871885Y-88401428D01*
X204967123Y-88449047D01*
X205062361Y-88544285D01*
X205109980Y-88687142D01*
X205109980Y-88925238D01*
X152999666Y-90062380D02*
X152999666Y-90776666D01*
X152952047Y-90919523D01*
X152856809Y-91014761D01*
X152713952Y-91062380D01*
X152618714Y-91062380D01*
X153380619Y-90062380D02*
X153999666Y-90062380D01*
X153666333Y-90443333D01*
X153809190Y-90443333D01*
X153904428Y-90490952D01*
X153952047Y-90538571D01*
X153999666Y-90633809D01*
X153999666Y-90871904D01*
X153952047Y-90967142D01*
X153904428Y-91014761D01*
X153809190Y-91062380D01*
X153523476Y-91062380D01*
X153428238Y-91014761D01*
X153380619Y-90967142D01*
D14*
X175183195Y-77633452D02*
X175240647Y-77461095D01*
X175240647Y-77173833D01*
X175183195Y-77058928D01*
X175125742Y-77001476D01*
X175010838Y-76944023D01*
X174895933Y-76944023D01*
X174781028Y-77001476D01*
X174723576Y-77058928D01*
X174666123Y-77173833D01*
X174608671Y-77403642D01*
X174551219Y-77518547D01*
X174493766Y-77576000D01*
X174378861Y-77633452D01*
X174263957Y-77633452D01*
X174149052Y-77576000D01*
X174091600Y-77518547D01*
X174034147Y-77403642D01*
X174034147Y-77116381D01*
X174091600Y-76944023D01*
X174034147Y-76541857D02*
X175240647Y-76254595D01*
X174378861Y-76024785D01*
X175240647Y-75794976D01*
X174034147Y-75507714D01*
X175240647Y-74416119D02*
X175240647Y-75105547D01*
X175240647Y-74760833D02*
X174034147Y-74760833D01*
X174206504Y-74875738D01*
X174321409Y-74990642D01*
X174378861Y-75105547D01*
D13*
X195200242Y-82192279D02*
X195257695Y-82249732D01*
X195315147Y-82422089D01*
X195315147Y-82536993D01*
X195257695Y-82709351D01*
X195142790Y-82824255D01*
X195027885Y-82881708D01*
X194798076Y-82939160D01*
X194625719Y-82939160D01*
X194395909Y-82881708D01*
X194281004Y-82824255D01*
X194166100Y-82709351D01*
X194108647Y-82536993D01*
X194108647Y-82422089D01*
X194166100Y-82249732D01*
X194223552Y-82192279D01*
X194223552Y-81732660D02*
X194166100Y-81675208D01*
X194108647Y-81560303D01*
X194108647Y-81273041D01*
X194166100Y-81158136D01*
X194223552Y-81100684D01*
X194338457Y-81043232D01*
X194453361Y-81043232D01*
X194625719Y-81100684D01*
X195315147Y-81790112D01*
X195315147Y-81043232D01*
X202545814Y-83157732D02*
X203350147Y-83157732D01*
X202086195Y-83444993D02*
X202947980Y-83732255D01*
X202947980Y-82985374D01*
X203235242Y-82525755D02*
X203292695Y-82468303D01*
X203350147Y-82525755D01*
X203292695Y-82583208D01*
X203235242Y-82525755D01*
X203350147Y-82525755D01*
X202143647Y-82066136D02*
X202143647Y-81261803D01*
X203350147Y-81778874D01*
X202545814Y-80285112D02*
X203350147Y-80285112D01*
X202545814Y-80802184D02*
X203177790Y-80802184D01*
X203292695Y-80744732D01*
X203350147Y-80629827D01*
X203350147Y-80457470D01*
X203292695Y-80342565D01*
X203235242Y-80285112D01*
X202545814Y-79882946D02*
X202545814Y-79423327D01*
X203350147Y-79710589D02*
X202316004Y-79710589D01*
X202201100Y-79653136D01*
X202143647Y-79538232D01*
X202143647Y-79423327D01*
D12*
X204160380Y-85591904D02*
X203160380Y-85591904D01*
X203636571Y-85591904D02*
X203636571Y-85020476D01*
X204160380Y-85020476D02*
X203160380Y-85020476D01*
X203588952Y-84401428D02*
X203541333Y-84496666D01*
X203493714Y-84544285D01*
X203398476Y-84591904D01*
X203350857Y-84591904D01*
X203255619Y-84544285D01*
X203208000Y-84496666D01*
X203160380Y-84401428D01*
X203160380Y-84210952D01*
X203208000Y-84115714D01*
X203255619Y-84068095D01*
X203350857Y-84020476D01*
X203398476Y-84020476D01*
X203493714Y-84068095D01*
X203541333Y-84115714D01*
X203588952Y-84210952D01*
X203588952Y-84401428D01*
X203636571Y-84496666D01*
X203684190Y-84544285D01*
X203779428Y-84591904D01*
X203969904Y-84591904D01*
X204065142Y-84544285D01*
X204112761Y-84496666D01*
X204160380Y-84401428D01*
X204160380Y-84210952D01*
X204112761Y-84115714D01*
X204065142Y-84068095D01*
X203969904Y-84020476D01*
X203779428Y-84020476D01*
X203684190Y-84068095D01*
X203636571Y-84115714D01*
X203588952Y-84210952D01*
X204930219Y-106887142D02*
X204882600Y-106982380D01*
X204787361Y-107077619D01*
X204644504Y-107220476D01*
X204596885Y-107315714D01*
X204596885Y-107410952D01*
X204834980Y-107363333D02*
X204787361Y-107458571D01*
X204692123Y-107553809D01*
X204501647Y-107601428D01*
X204168314Y-107601428D01*
X203977838Y-107553809D01*
X203882600Y-107458571D01*
X203834980Y-107363333D01*
X203834980Y-107172857D01*
X203882600Y-107077619D01*
X203977838Y-106982380D01*
X204168314Y-106934761D01*
X204501647Y-106934761D01*
X204692123Y-106982380D01*
X204787361Y-107077619D01*
X204834980Y-107172857D01*
X204834980Y-107363333D01*
X204834980Y-106506190D02*
X203834980Y-106506190D01*
X204834980Y-105268095D02*
X203834980Y-105268095D01*
X203834980Y-104887142D01*
X203882600Y-104791904D01*
X203930219Y-104744285D01*
X204025457Y-104696666D01*
X204168314Y-104696666D01*
X204263552Y-104744285D01*
X204311171Y-104791904D01*
X204358790Y-104887142D01*
X204358790Y-105268095D01*
X204834980Y-104125238D02*
X204787361Y-104220476D01*
X204692123Y-104268095D01*
X203834980Y-104268095D01*
X204168314Y-103315714D02*
X204834980Y-103315714D01*
X204168314Y-103744285D02*
X204692123Y-103744285D01*
X204787361Y-103696666D01*
X204834980Y-103601428D01*
X204834980Y-103458571D01*
X204787361Y-103363333D01*
X204739742Y-103315714D01*
X204787361Y-102887142D02*
X204834980Y-102791904D01*
X204834980Y-102601428D01*
X204787361Y-102506190D01*
X204692123Y-102458571D01*
X204644504Y-102458571D01*
X204549266Y-102506190D01*
X204501647Y-102601428D01*
X204501647Y-102744285D01*
X204454028Y-102839523D01*
X204358790Y-102887142D01*
X204311171Y-102887142D01*
X204215933Y-102839523D01*
X204168314Y-102744285D01*
X204168314Y-102601428D01*
X204215933Y-102506190D01*
X180530380Y-113738333D02*
X181244666Y-113738333D01*
X181387523Y-113785952D01*
X181482761Y-113881190D01*
X181530380Y-114024047D01*
X181530380Y-114119285D01*
X180530380Y-113357380D02*
X180530380Y-112690714D01*
X181530380Y-113119285D01*
D13*
X178530265Y-85760887D02*
X177955741Y-86163053D01*
X178530265Y-86450315D02*
X177323765Y-86450315D01*
X177323765Y-85990696D01*
X177381218Y-85875791D01*
X177438670Y-85818339D01*
X177553575Y-85760887D01*
X177725932Y-85760887D01*
X177840837Y-85818339D01*
X177898289Y-85875791D01*
X177955741Y-85990696D01*
X177955741Y-86450315D01*
X178530265Y-84611839D02*
X178530265Y-85301267D01*
X178530265Y-84956553D02*
X177323765Y-84956553D01*
X177496122Y-85071458D01*
X177611027Y-85186363D01*
X177668479Y-85301267D01*
X184674736Y-86504547D02*
X184904546Y-86504547D01*
X185019451Y-86447095D01*
X185076903Y-86389642D01*
X185191808Y-86217285D01*
X185249260Y-85987476D01*
X185249260Y-85527857D01*
X185191808Y-85412952D01*
X185134355Y-85355500D01*
X185019451Y-85298047D01*
X184789641Y-85298047D01*
X184674736Y-85355500D01*
X184617284Y-85412952D01*
X184559832Y-85527857D01*
X184559832Y-85815119D01*
X184617284Y-85930023D01*
X184674736Y-85987476D01*
X184789641Y-86044928D01*
X185019451Y-86044928D01*
X185134355Y-85987476D01*
X185191808Y-85930023D01*
X185249260Y-85815119D01*
X185766332Y-86504547D02*
X185766332Y-85298047D01*
X185881236Y-86044928D02*
X186225951Y-86504547D01*
X186225951Y-85700214D02*
X185766332Y-86159833D01*
D12*
X203428600Y-100388904D02*
X203380980Y-100484142D01*
X203380980Y-100627000D01*
X203428600Y-100769857D01*
X203523838Y-100865095D01*
X203619076Y-100912714D01*
X203809552Y-100960333D01*
X203952409Y-100960333D01*
X204142885Y-100912714D01*
X204238123Y-100865095D01*
X204333361Y-100769857D01*
X204380980Y-100627000D01*
X204380980Y-100531761D01*
X204333361Y-100388904D01*
X204285742Y-100341285D01*
X203952409Y-100341285D01*
X203952409Y-100531761D01*
X203857171Y-99912714D02*
X203857171Y-99579380D01*
X204380980Y-99436523D02*
X204380980Y-99912714D01*
X203380980Y-99912714D01*
X203380980Y-99436523D01*
X204380980Y-99007952D02*
X203380980Y-99007952D01*
X203428600Y-98007952D02*
X203380980Y-98103190D01*
X203380980Y-98246047D01*
X203428600Y-98388904D01*
X203523838Y-98484142D01*
X203619076Y-98531761D01*
X203809552Y-98579380D01*
X203952409Y-98579380D01*
X204142885Y-98531761D01*
X204238123Y-98484142D01*
X204333361Y-98388904D01*
X204380980Y-98246047D01*
X204380980Y-98150809D01*
X204333361Y-98007952D01*
X204285742Y-97960333D01*
X203952409Y-97960333D01*
X203952409Y-98150809D01*
X203857171Y-97531761D02*
X203857171Y-97198428D01*
X204380980Y-97055571D02*
X204380980Y-97531761D01*
X203380980Y-97531761D01*
X203380980Y-97055571D01*
X204380980Y-96055571D02*
X203904790Y-96388904D01*
X204380980Y-96627000D02*
X203380980Y-96627000D01*
X203380980Y-96246047D01*
X203428600Y-96150809D01*
X203476219Y-96103190D01*
X203571457Y-96055571D01*
X203714314Y-96055571D01*
X203809552Y-96103190D01*
X203857171Y-96150809D01*
X203904790Y-96246047D01*
X203904790Y-96627000D01*
X163020380Y-98298095D02*
X162020380Y-98298095D01*
X162020380Y-98060000D01*
X162068000Y-97917142D01*
X162163238Y-97821904D01*
X162258476Y-97774285D01*
X162448952Y-97726666D01*
X162591809Y-97726666D01*
X162782285Y-97774285D01*
X162877523Y-97821904D01*
X162972761Y-97917142D01*
X163020380Y-98060000D01*
X163020380Y-98298095D01*
X162115619Y-97345714D02*
X162068000Y-97298095D01*
X162020380Y-97202857D01*
X162020380Y-96964761D01*
X162068000Y-96869523D01*
X162115619Y-96821904D01*
X162210857Y-96774285D01*
X162306095Y-96774285D01*
X162448952Y-96821904D01*
X163020380Y-97393333D01*
X163020380Y-96774285D01*
X163740380Y-105441904D02*
X162740380Y-105441904D01*
X163740380Y-104870476D02*
X163168952Y-105299047D01*
X162740380Y-104870476D02*
X163311809Y-105441904D01*
X157870380Y-98298095D02*
X156870380Y-98298095D01*
X156870380Y-98060000D01*
X156918000Y-97917142D01*
X157013238Y-97821904D01*
X157108476Y-97774285D01*
X157298952Y-97726666D01*
X157441809Y-97726666D01*
X157632285Y-97774285D01*
X157727523Y-97821904D01*
X157822761Y-97917142D01*
X157870380Y-98060000D01*
X157870380Y-98298095D01*
X157870380Y-96774285D02*
X157870380Y-97345714D01*
X157870380Y-97060000D02*
X156870380Y-97060000D01*
X157013238Y-97155238D01*
X157108476Y-97250476D01*
X157156095Y-97345714D01*
X158590380Y-105441904D02*
X157590380Y-105441904D01*
X158590380Y-104870476D02*
X158018952Y-105299047D01*
X157590380Y-104870476D02*
X158161809Y-105441904D01*
X199011095Y-95337400D02*
X198915857Y-95289780D01*
X198773000Y-95289780D01*
X198630142Y-95337400D01*
X198534904Y-95432638D01*
X198487285Y-95527876D01*
X198439666Y-95718352D01*
X198439666Y-95861209D01*
X198487285Y-96051685D01*
X198534904Y-96146923D01*
X198630142Y-96242161D01*
X198773000Y-96289780D01*
X198868238Y-96289780D01*
X199011095Y-96242161D01*
X199058714Y-96194542D01*
X199058714Y-95861209D01*
X198868238Y-95861209D01*
X199487285Y-95765971D02*
X199820619Y-95765971D01*
X199963476Y-96289780D02*
X199487285Y-96289780D01*
X199487285Y-95289780D01*
X199963476Y-95289780D01*
X200392047Y-96289780D02*
X200392047Y-95289780D01*
X201392047Y-95337400D02*
X201296809Y-95289780D01*
X201153952Y-95289780D01*
X201011095Y-95337400D01*
X200915857Y-95432638D01*
X200868238Y-95527876D01*
X200820619Y-95718352D01*
X200820619Y-95861209D01*
X200868238Y-96051685D01*
X200915857Y-96146923D01*
X201011095Y-96242161D01*
X201153952Y-96289780D01*
X201249190Y-96289780D01*
X201392047Y-96242161D01*
X201439666Y-96194542D01*
X201439666Y-95861209D01*
X201249190Y-95861209D01*
X201868238Y-95765971D02*
X202201571Y-95765971D01*
X202344428Y-96289780D02*
X201868238Y-96289780D01*
X201868238Y-95289780D01*
X202344428Y-95289780D01*
X203344428Y-96289780D02*
X203011095Y-95813590D01*
X202773000Y-96289780D02*
X202773000Y-95289780D01*
X203153952Y-95289780D01*
X203249190Y-95337400D01*
X203296809Y-95385019D01*
X203344428Y-95480257D01*
X203344428Y-95623114D01*
X203296809Y-95718352D01*
X203249190Y-95765971D01*
X203153952Y-95813590D01*
X202773000Y-95813590D01*
G36*
X89745106Y-89172241D02*
G01*
X89756124Y-89759467D01*
X92899136Y-89759467D01*
X92899136Y-89951891D01*
X92894057Y-90069830D01*
X92881156Y-90151963D01*
X92872595Y-90170857D01*
X92828182Y-90176740D01*
X92712895Y-90182170D01*
X92535485Y-90187000D01*
X92304702Y-90191082D01*
X92029296Y-90194268D01*
X91718016Y-90196411D01*
X91379613Y-90197363D01*
X91300024Y-90197398D01*
X89753995Y-90197398D01*
X89753995Y-91351944D01*
X89354844Y-91351944D01*
X89375782Y-88585016D01*
X89734089Y-88585016D01*
X89745106Y-89172241D01*
G37*
G36*
X92385672Y-99781063D02*
G01*
X92420371Y-99811050D01*
X92532274Y-99937671D01*
X92651333Y-100113076D01*
X92761274Y-100309953D01*
X92845825Y-100500986D01*
X92865306Y-100557848D01*
X92914344Y-100786016D01*
X92936596Y-101049216D01*
X92932007Y-101317096D01*
X92900522Y-101559301D01*
X92867336Y-101683655D01*
X92707810Y-102034369D01*
X92493424Y-102329053D01*
X92228550Y-102564884D01*
X91917564Y-102739039D01*
X91564839Y-102848697D01*
X91174751Y-102891033D01*
X91000785Y-102888058D01*
X90804157Y-102873532D01*
X90653003Y-102848520D01*
X90513201Y-102804709D01*
X90350632Y-102733787D01*
X90332728Y-102725321D01*
X90004097Y-102527795D01*
X89731983Y-102275110D01*
X89519105Y-101969935D01*
X89473204Y-101881099D01*
X89410793Y-101744561D01*
X89370185Y-101628785D01*
X89345773Y-101507542D01*
X89331949Y-101354600D01*
X89324525Y-101185486D01*
X89328390Y-100862367D01*
X89368789Y-100589592D01*
X89451597Y-100344019D01*
X89582685Y-100102509D01*
X89610087Y-100060352D01*
X89715664Y-99905634D01*
X89792443Y-99812594D01*
X89853860Y-99775411D01*
X89913350Y-99788263D01*
X89984347Y-99845327D01*
X90021724Y-99881972D01*
X90165192Y-100025440D01*
X90033290Y-100175668D01*
X89856094Y-100423076D01*
X89746548Y-100691033D01*
X89698693Y-100995950D01*
X89695428Y-101105862D01*
X89699301Y-101294534D01*
X89716219Y-101434894D01*
X89751854Y-101557913D01*
X89797832Y-101665046D01*
X89947825Y-101924750D01*
X90131863Y-102124922D01*
X90366906Y-102283800D01*
X90379630Y-102290630D01*
X90688732Y-102415766D01*
X91007291Y-102473671D01*
X91323958Y-102467458D01*
X91627379Y-102400239D01*
X91906203Y-102275123D01*
X92149078Y-102095224D01*
X92344653Y-101863652D01*
X92420245Y-101731313D01*
X92536198Y-101413976D01*
X92572730Y-101095320D01*
X92530006Y-100776443D01*
X92408194Y-100458447D01*
X92207459Y-100142433D01*
X92174178Y-100099802D01*
X92086142Y-99989509D01*
X92212372Y-99863280D01*
X92292056Y-99787400D01*
X92341389Y-99762112D01*
X92385672Y-99781063D01*
G37*
G36*
X92899136Y-106361035D02*
G01*
X89355876Y-106361035D01*
X89355876Y-103813072D01*
X89712882Y-103813072D01*
X89723486Y-104878041D01*
X89734089Y-105943010D01*
X90320604Y-105954023D01*
X90907120Y-105965036D01*
X90928446Y-104032038D01*
X91286754Y-104032038D01*
X91308080Y-105964982D01*
X91914501Y-105953996D01*
X92520923Y-105943010D01*
X92531516Y-104858135D01*
X92542108Y-103773260D01*
X92899136Y-103773260D01*
X92899136Y-106361035D01*
G37*
G36*
X91123062Y-113729888D02*
G01*
X90813728Y-113588690D01*
X90512979Y-113451138D01*
X90229477Y-113321181D01*
X89971881Y-113202771D01*
X89748853Y-113099859D01*
X89569054Y-113016396D01*
X89441144Y-112956332D01*
X89373783Y-112923618D01*
X89365829Y-112919153D01*
X89330747Y-112851126D01*
X89317554Y-112742886D01*
X89318205Y-112734490D01*
X89815474Y-112734490D01*
X90571020Y-113074081D01*
X90806674Y-113179837D01*
X91025258Y-113277628D01*
X91213549Y-113361563D01*
X91358323Y-113425750D01*
X91446357Y-113464296D01*
X91455954Y-113468394D01*
X91585343Y-113523116D01*
X91585343Y-112748815D01*
X91583775Y-112510349D01*
X91579404Y-112301662D01*
X91572732Y-112134838D01*
X91564261Y-112021964D01*
X91554492Y-111975124D01*
X91553214Y-111974514D01*
X91508162Y-111990034D01*
X91402739Y-112033132D01*
X91249143Y-112098614D01*
X91059569Y-112181288D01*
X90866458Y-112266913D01*
X90639273Y-112368336D01*
X90422394Y-112465063D01*
X90232405Y-112549705D01*
X90085886Y-112614874D01*
X90013653Y-112646900D01*
X89815474Y-112734490D01*
X89318205Y-112734490D01*
X89326250Y-112630774D01*
X89356835Y-112551134D01*
X89365829Y-112542101D01*
X89407702Y-112520767D01*
X89513435Y-112470557D01*
X89674351Y-112395432D01*
X89881773Y-112299357D01*
X90127025Y-112186294D01*
X90401430Y-112060206D01*
X90696313Y-111925056D01*
X91002995Y-111784808D01*
X91312801Y-111643423D01*
X91617054Y-111504866D01*
X91907078Y-111373099D01*
X92174195Y-111252085D01*
X92409730Y-111145788D01*
X92605005Y-111058169D01*
X92751345Y-110993193D01*
X92840072Y-110954822D01*
X92849371Y-110951000D01*
X92879694Y-110962886D01*
X92895425Y-111036058D01*
X92899136Y-111149870D01*
X92899136Y-111368854D01*
X92420699Y-111578334D01*
X91942263Y-111787814D01*
X91952909Y-112740851D01*
X91963556Y-113693887D01*
X92879230Y-114106347D01*
X92891404Y-114318470D01*
X92892109Y-114432987D01*
X92881067Y-114504019D01*
X92867537Y-114516582D01*
X92801303Y-114488456D01*
X92674368Y-114432368D01*
X92495395Y-114352269D01*
X92273043Y-114252110D01*
X92015973Y-114135841D01*
X91732845Y-114007414D01*
X91585343Y-113940351D01*
X91432322Y-113870779D01*
X91123062Y-113729888D01*
G37*
G36*
X92060849Y-115127202D02*
G01*
X92305873Y-115181570D01*
X92516876Y-115301551D01*
X92689914Y-115479030D01*
X92821044Y-115705897D01*
X92906326Y-115974040D01*
X92941816Y-116275345D01*
X92923571Y-116601703D01*
X92882423Y-116817718D01*
X92799976Y-117070856D01*
X92681690Y-117321165D01*
X92543786Y-117536186D01*
X92491795Y-117599451D01*
X92361675Y-117745301D01*
X92088125Y-117510145D01*
X92216673Y-117331146D01*
X92384324Y-117067311D01*
X92491371Y-116818794D01*
X92546299Y-116561327D01*
X92558361Y-116353825D01*
X92554313Y-116156493D01*
X92536304Y-116013037D01*
X92500432Y-115898350D01*
X92481111Y-115856701D01*
X92360047Y-115686731D01*
X92204486Y-115572924D01*
X92029877Y-115519389D01*
X91851665Y-115530232D01*
X91685299Y-115609563D01*
X91652214Y-115636270D01*
X91561215Y-115734744D01*
X91484552Y-115863725D01*
X91415507Y-116038028D01*
X91347362Y-116272466D01*
X91326807Y-116353825D01*
X91225161Y-116721253D01*
X91116980Y-117015276D01*
X90997112Y-117242099D01*
X90860408Y-117407928D01*
X90701717Y-117518970D01*
X90515892Y-117581430D01*
X90297780Y-117601514D01*
X90291456Y-117601527D01*
X90022350Y-117566480D01*
X89791047Y-117461362D01*
X89597600Y-117286211D01*
X89442060Y-117041061D01*
X89427681Y-117010721D01*
X89371945Y-116831003D01*
X89339558Y-116601404D01*
X89330978Y-116348305D01*
X89346660Y-116098089D01*
X89387062Y-115877136D01*
X89406923Y-115812183D01*
X89469326Y-115659886D01*
X89546457Y-115509176D01*
X89627450Y-115377499D01*
X89701436Y-115282297D01*
X89757548Y-115241016D01*
X89763071Y-115240523D01*
X89824897Y-115265041D01*
X89913262Y-115323798D01*
X89932868Y-115339308D01*
X90008170Y-115405238D01*
X90028886Y-115452501D01*
X90002216Y-115512655D01*
X89980223Y-115546889D01*
X89834983Y-115797916D01*
X89745367Y-116028422D01*
X89702705Y-116264854D01*
X89696067Y-116413542D01*
X89717441Y-116695207D01*
X89785525Y-116912790D01*
X89900967Y-117067159D01*
X90064415Y-117159182D01*
X90276134Y-117189726D01*
X90411272Y-117177139D01*
X90524426Y-117133675D01*
X90621225Y-117051142D01*
X90707300Y-116921344D01*
X90788280Y-116736088D01*
X90869795Y-116487180D01*
X90944284Y-116217238D01*
X91028242Y-115924919D01*
X91112601Y-115697244D01*
X91204610Y-115519525D01*
X91311520Y-115377077D01*
X91403816Y-115286327D01*
X91543143Y-115190640D01*
X91704737Y-115137089D01*
X91908408Y-115120875D01*
X92060849Y-115127202D01*
G37*
G36*
X92208941Y-92263975D02*
G01*
X92450569Y-92370470D01*
X92652355Y-92544272D01*
X92809875Y-92782360D01*
X92840035Y-92847420D01*
X92889506Y-93019628D01*
X92918403Y-93242809D01*
X92926072Y-93490845D01*
X92911860Y-93737619D01*
X92875112Y-93957012D01*
X92868483Y-93982762D01*
X92801375Y-94176581D01*
X92706384Y-94382131D01*
X92597336Y-94573746D01*
X92488058Y-94725762D01*
X92441485Y-94775357D01*
X92388832Y-94818702D01*
X92344189Y-94822862D01*
X92280842Y-94783223D01*
X92224410Y-94737859D01*
X92141465Y-94666175D01*
X92112421Y-94618572D01*
X92128769Y-94569689D01*
X92155163Y-94531493D01*
X92322849Y-94284174D01*
X92439582Y-94070168D01*
X92513023Y-93868897D01*
X92550833Y-93659782D01*
X92560735Y-93442069D01*
X92542159Y-93176217D01*
X92483236Y-92969900D01*
X92379175Y-92811408D01*
X92262145Y-92712479D01*
X92147969Y-92651304D01*
X92030266Y-92631800D01*
X91932398Y-92636564D01*
X91786557Y-92665100D01*
X91666612Y-92726710D01*
X91566392Y-92830336D01*
X91479727Y-92984920D01*
X91400449Y-93199405D01*
X91322388Y-93482734D01*
X91308023Y-93541599D01*
X91207194Y-93898850D01*
X91092067Y-94183264D01*
X90958279Y-94401005D01*
X90801466Y-94558236D01*
X90617265Y-94661122D01*
X90487918Y-94700206D01*
X90226931Y-94721914D01*
X89985024Y-94671516D01*
X89769665Y-94555676D01*
X89588324Y-94381062D01*
X89448469Y-94154339D01*
X89357570Y-93882172D01*
X89326772Y-93663927D01*
X89333523Y-93285020D01*
X89410242Y-92933216D01*
X89518841Y-92670875D01*
X89604842Y-92507774D01*
X89672741Y-92410232D01*
X89735008Y-92370284D01*
X89804114Y-92379969D01*
X89892528Y-92431322D01*
X89893234Y-92431803D01*
X89979077Y-92495604D01*
X90028054Y-92542349D01*
X90032406Y-92551431D01*
X90013459Y-92595842D01*
X89963599Y-92687818D01*
X89895925Y-92803567D01*
X89764417Y-93076869D01*
X89691925Y-93353469D01*
X89678383Y-93620702D01*
X89723724Y-93865902D01*
X89827881Y-94076404D01*
X89903093Y-94165786D01*
X89993500Y-94245770D01*
X90078858Y-94285050D01*
X90195223Y-94297465D01*
X90247602Y-94298025D01*
X90399439Y-94284212D01*
X90524647Y-94237192D01*
X90629488Y-94148594D01*
X90720226Y-94010046D01*
X90803120Y-93813176D01*
X90884434Y-93549613D01*
X90926352Y-93390612D01*
X91005003Y-93103006D01*
X91080560Y-92879537D01*
X91159314Y-92705276D01*
X91247558Y-92565290D01*
X91302977Y-92496860D01*
X91473223Y-92345239D01*
X91668591Y-92258227D01*
X91907352Y-92228007D01*
X91931897Y-92227806D01*
X92208941Y-92263975D01*
G37*
G36*
X89037381Y-82712759D02*
G01*
X93217631Y-82712759D01*
X93217631Y-87012445D01*
X89037381Y-87012445D01*
X89037381Y-86061475D01*
X90380773Y-86061475D01*
X90593134Y-86049264D01*
X90805494Y-86037053D01*
X90994794Y-85706486D01*
X92014133Y-85706486D01*
X92047797Y-85849926D01*
X92133783Y-85962664D01*
X92258777Y-86031141D01*
X92409468Y-86041800D01*
X92506576Y-86014845D01*
X92623881Y-85927718D01*
X92701249Y-85795930D01*
X92722367Y-85650050D01*
X92717829Y-85619028D01*
X92673466Y-85522017D01*
X92596828Y-85429922D01*
X92458865Y-85352547D01*
X92310447Y-85341797D01*
X92173074Y-85393145D01*
X92068249Y-85502063D01*
X92046103Y-85545901D01*
X92014133Y-85706486D01*
X90994794Y-85706486D01*
X91090474Y-85539405D01*
X91212175Y-85335216D01*
X91320850Y-85168894D01*
X91408920Y-85051341D01*
X91468810Y-84993463D01*
X91470445Y-84992578D01*
X91562187Y-84969088D01*
X91731397Y-84952962D01*
X91976248Y-84944333D01*
X92154952Y-84942813D01*
X92744467Y-84942226D01*
X92732224Y-84773025D01*
X92719982Y-84603825D01*
X92074108Y-84592891D01*
X91794545Y-84588596D01*
X91580757Y-84591150D01*
X91418896Y-84607608D01*
X91295115Y-84645025D01*
X91195564Y-84710455D01*
X91106397Y-84810954D01*
X91013764Y-84953576D01*
X90903818Y-85145376D01*
X90869263Y-85206695D01*
X90757377Y-85404607D01*
X90650581Y-85592842D01*
X90559187Y-85753270D01*
X90493508Y-85867761D01*
X90480606Y-85890016D01*
X90380773Y-86061475D01*
X89037381Y-86061475D01*
X89037381Y-86038943D01*
X89395688Y-86038943D01*
X89431982Y-86048247D01*
X89527111Y-86051789D01*
X89659783Y-86048825D01*
X89923878Y-86037053D01*
X90411619Y-85184955D01*
X90575216Y-84903832D01*
X90718435Y-84667173D01*
X90837298Y-84481161D01*
X90927823Y-84351981D01*
X90986033Y-84285816D01*
X90993527Y-84280644D01*
X91054206Y-84261185D01*
X91161941Y-84246561D01*
X91324457Y-84236323D01*
X91549480Y-84230023D01*
X91844738Y-84227211D01*
X91915778Y-84227022D01*
X92743862Y-84225611D01*
X92731922Y-83996693D01*
X92719982Y-83767774D01*
X91762641Y-83767774D01*
X91456212Y-83768357D01*
X91219096Y-83770550D01*
X91040992Y-83775020D01*
X90911594Y-83782437D01*
X90820599Y-83793467D01*
X90757704Y-83808778D01*
X90712604Y-83829038D01*
X90700330Y-83836622D01*
X90646523Y-83894840D01*
X90558313Y-84020033D01*
X90438006Y-84208520D01*
X90287909Y-84456617D01*
X90110329Y-84760645D01*
X89995524Y-84961379D01*
X89846208Y-85224906D01*
X89710455Y-85465813D01*
X89593054Y-85675491D01*
X89498798Y-85845332D01*
X89432479Y-85966728D01*
X89398888Y-86031073D01*
X89395688Y-86038943D01*
X89037381Y-86038943D01*
X89037381Y-82712759D01*
G37*
G36*
X91070344Y-98342000D02*
G01*
X90762160Y-98201202D01*
X90463905Y-98064621D01*
X90184260Y-97936219D01*
X89931907Y-97819959D01*
X89715524Y-97719803D01*
X89543794Y-97639713D01*
X89425395Y-97583651D01*
X89369010Y-97555581D01*
X89365829Y-97553588D01*
X89330783Y-97484417D01*
X89317563Y-97375868D01*
X89318909Y-97358375D01*
X89865451Y-97358375D01*
X89892136Y-97380840D01*
X89982120Y-97430278D01*
X90125681Y-97501919D01*
X90313094Y-97590995D01*
X90534636Y-97692738D01*
X90681595Y-97758634D01*
X90922830Y-97865943D01*
X91139762Y-97962605D01*
X91321793Y-98043885D01*
X91458326Y-98105046D01*
X91538763Y-98141355D01*
X91555484Y-98149132D01*
X91564636Y-98116195D01*
X91572654Y-98015374D01*
X91579078Y-97858405D01*
X91583450Y-97657024D01*
X91585309Y-97422969D01*
X91585343Y-97385798D01*
X91584156Y-97146620D01*
X91580849Y-96937187D01*
X91575800Y-96769551D01*
X91569386Y-96655763D01*
X91561986Y-96607876D01*
X91560903Y-96607116D01*
X91517657Y-96622603D01*
X91414520Y-96665330D01*
X91264139Y-96729692D01*
X91079157Y-96810088D01*
X90872220Y-96900913D01*
X90655972Y-96996566D01*
X90443059Y-97091443D01*
X90246127Y-97179940D01*
X90077818Y-97256456D01*
X89950780Y-97315386D01*
X89877656Y-97351129D01*
X89865451Y-97358375D01*
X89318909Y-97358375D01*
X89326170Y-97264048D01*
X89356602Y-97185064D01*
X89365829Y-97175981D01*
X89411270Y-97152381D01*
X89522025Y-97099634D01*
X89690726Y-97021117D01*
X89910010Y-96920207D01*
X90172509Y-96800280D01*
X90470859Y-96664714D01*
X90797694Y-96516885D01*
X91127506Y-96368325D01*
X91473695Y-96212641D01*
X91797778Y-96066793D01*
X92092498Y-95934054D01*
X92350594Y-95817700D01*
X92564809Y-95721005D01*
X92727884Y-95647242D01*
X92832559Y-95599686D01*
X92871373Y-95581725D01*
X92886627Y-95607990D01*
X92893317Y-95693495D01*
X92891279Y-95789766D01*
X92879230Y-96014814D01*
X92448926Y-96205799D01*
X92276712Y-96283955D01*
X92130432Y-96353559D01*
X92026080Y-96406786D01*
X91980385Y-96435021D01*
X91968632Y-96486525D01*
X91959689Y-96609413D01*
X91953790Y-96795483D01*
X91951168Y-97036535D01*
X91952056Y-97324372D01*
X91952852Y-97402456D01*
X91963556Y-98331654D01*
X92879230Y-98740592D01*
X92891441Y-98952961D01*
X92894082Y-99078645D01*
X92881528Y-99138303D01*
X92851629Y-99144717D01*
X92776506Y-99112827D01*
X92641867Y-99053455D01*
X92456395Y-98970563D01*
X92228770Y-98868115D01*
X91967671Y-98750073D01*
X91681781Y-98620397D01*
X91555484Y-98562960D01*
X91379778Y-98483052D01*
X91070344Y-98342000D01*
G37*
G36*
X89753995Y-109625611D02*
G01*
X90988164Y-109625611D01*
X90988164Y-107714640D01*
X91346471Y-107714640D01*
X91346471Y-109625611D01*
X92899136Y-109625611D01*
X92899136Y-110023731D01*
X89355876Y-110023731D01*
X89355876Y-107515580D01*
X89753995Y-107515580D01*
X89753995Y-109625611D01*
G37*
D15*
X183490000Y-83260000D02*
X183363000Y-83387000D01*
X182728000Y-83133000D02*
X182728000Y-81355000D01*
X188824000Y-83387000D02*
X188443000Y-83387000D01*
X189078000Y-83133000D02*
X189078000Y-81355000D01*
X188316000Y-81228000D02*
X188443000Y-81101000D01*
X188316000Y-83260000D02*
X183490000Y-83260000D01*
X182982000Y-81101000D02*
X183363000Y-81101000D01*
X188316000Y-83260000D02*
X188443000Y-83387000D01*
X183490000Y-81228000D02*
X183363000Y-81101000D01*
X182982000Y-83387000D02*
X183363000Y-83387000D01*
X188316000Y-81228000D02*
X183490000Y-81228000D01*
X188824000Y-81101000D02*
X188443000Y-81101000D01*
X189078000Y-83133000D02*
G75*
G02*
X188824000Y-83387000I-254000J0D01*
G01*
X189078000Y-81355000D02*
G75*
G03*
X188824000Y-81101000I-254000J0D01*
G01*
X182982000Y-83387000D02*
G75*
G02*
X182728000Y-83133000I0J254000D01*
G01*
X182982000Y-81101000D02*
G75*
G03*
X182728000Y-81355000I0J-254000D01*
G01*
G36*
X189941600Y-82548800D02*
G01*
X189078000Y-82548800D01*
X189078000Y-81939200D01*
X189941600Y-81939200D01*
X189941600Y-82548800D01*
G37*
G36*
X182728000Y-82548800D02*
G01*
X181864400Y-82548800D01*
X181864400Y-81939200D01*
X182728000Y-81939200D01*
X182728000Y-82548800D01*
G37*
D16*
X123323000Y-113905000D02*
X122303000Y-113905000D01*
X123323000Y-119105000D02*
X122303000Y-119105000D01*
X108083000Y-113905000D02*
X107063000Y-113905000D01*
X128403000Y-119105000D02*
X127383000Y-119105000D01*
X136023000Y-119105000D02*
X135003000Y-119105000D01*
X141103000Y-119105000D02*
X140083000Y-119105000D01*
X105543000Y-119105000D02*
X104973000Y-119105000D01*
X104973000Y-113905000D02*
X104973000Y-119105000D01*
X143193000Y-113905000D02*
X143193000Y-119105000D01*
X133483000Y-113905000D02*
X132463000Y-113905000D01*
X136023000Y-113905000D02*
X135003000Y-113905000D01*
X120783000Y-113905000D02*
X119763000Y-113905000D01*
X141103000Y-113905000D02*
X140083000Y-113905000D01*
X115703000Y-113905000D02*
X114683000Y-113905000D01*
X142623000Y-112465000D02*
X142623000Y-113905000D01*
X128403000Y-113905000D02*
X127383000Y-113905000D01*
X115703000Y-119105000D02*
X114683000Y-119105000D01*
X125863000Y-119105000D02*
X124843000Y-119105000D01*
X130943000Y-119105000D02*
X129923000Y-119105000D01*
X110623000Y-119105000D02*
X109603000Y-119105000D01*
X118243000Y-113905000D02*
X117223000Y-113905000D01*
X113163000Y-119105000D02*
X112143000Y-119105000D01*
X138563000Y-113905000D02*
X137543000Y-113905000D01*
X143193000Y-119105000D02*
X142623000Y-119105000D01*
X143193000Y-113905000D02*
X142623000Y-113905000D01*
X120783000Y-119105000D02*
X119763000Y-119105000D01*
X133483000Y-119105000D02*
X132463000Y-119105000D01*
X125863000Y-113905000D02*
X124843000Y-113905000D01*
X138563000Y-119105000D02*
X137543000Y-119105000D01*
X113163000Y-113905000D02*
X112143000Y-113905000D01*
X118243000Y-119105000D02*
X117223000Y-119105000D01*
X110623000Y-113905000D02*
X109603000Y-113905000D01*
X108083000Y-119105000D02*
X107063000Y-119105000D01*
X130943000Y-113905000D02*
X129923000Y-113905000D01*
X105543000Y-113905000D02*
X104973000Y-113905000D01*
X210033000Y-104155000D02*
X211363000Y-104155000D01*
X208763000Y-104155000D02*
X208763000Y-106815000D01*
X211363000Y-104155000D02*
X211363000Y-105485000D01*
X208763000Y-106815000D02*
X206163000Y-106815000D01*
X208763000Y-104155000D02*
X206163000Y-104155000D01*
X206163000Y-104155000D02*
X206163000Y-106815000D01*
X154663000Y-92050000D02*
X154663000Y-93380000D01*
X152003000Y-102330000D02*
X154663000Y-102330000D01*
X152003000Y-94650000D02*
X154663000Y-94650000D01*
X152003000Y-94650000D02*
X152003000Y-102330000D01*
X154663000Y-94650000D02*
X154663000Y-102330000D01*
X153333000Y-92050000D02*
X154663000Y-92050000D01*
D17*
X190244000Y-78948000D02*
X190244000Y-77848000D01*
X177244000Y-73348000D02*
X177244000Y-74448000D01*
X180744000Y-73348000D02*
X181994000Y-73348000D01*
X181994000Y-73348000D02*
X185494000Y-73348000D01*
X186744000Y-74548000D02*
X180744000Y-74548000D01*
X190244000Y-73348000D02*
X190244000Y-74448000D01*
X190244000Y-78948000D02*
X184744000Y-78948000D01*
X182744000Y-77948000D02*
X182744000Y-78948000D01*
X185494000Y-73348000D02*
X185494000Y-70348000D01*
X184744000Y-78948000D02*
X184744000Y-77948000D01*
X182744000Y-78948000D02*
X177244000Y-78948000D01*
X186744000Y-73348000D02*
X186744000Y-74548000D01*
X181994000Y-70348000D02*
X181994000Y-73348000D01*
X185494000Y-70348000D02*
X181994000Y-70348000D01*
X177244000Y-78948000D02*
X177244000Y-77848000D01*
X186744000Y-73348000D02*
X190244000Y-73348000D01*
X184744000Y-78948000D02*
X182744000Y-78948000D01*
X185494000Y-73348000D02*
X186744000Y-73348000D01*
X177244000Y-73348000D02*
X180744000Y-73348000D01*
X180744000Y-74548000D02*
X180744000Y-73348000D01*
X184744000Y-77948000D02*
X182744000Y-77948000D01*
D18*
X198852800Y-82767000D02*
X198852800Y-81243000D01*
D15*
X197532000Y-80862000D02*
X200834000Y-80862000D01*
D18*
X199487800Y-82767000D02*
X199487800Y-81243000D01*
D15*
X197024000Y-81370000D02*
X197024000Y-82640000D01*
X197532000Y-83148000D02*
X200834000Y-83148000D01*
X201342000Y-81370000D02*
X201342000Y-82640000D01*
X200834000Y-80862000D02*
G75*
G02*
X201342000Y-81370000I0J-508000D01*
G01*
X200834000Y-83148000D02*
G75*
G03*
X201342000Y-82640000I0J508000D01*
G01*
X197024000Y-81370000D02*
G75*
G02*
X197532000Y-80862000I508000J0D01*
G01*
X197024000Y-82640000D02*
G75*
G03*
X197532000Y-83148000I508000J0D01*
G01*
D16*
X206163000Y-89169000D02*
X206163000Y-91829000D01*
X210033000Y-89169000D02*
X211363000Y-89169000D01*
X208763000Y-91829000D02*
X206163000Y-91829000D01*
X211363000Y-89169000D02*
X211363000Y-90499000D01*
X208763000Y-89169000D02*
X206163000Y-89169000D01*
X208763000Y-89169000D02*
X208763000Y-91829000D01*
X183408000Y-114735000D02*
X182078000Y-114735000D01*
X182078000Y-114735000D02*
X182078000Y-113405000D01*
X184678000Y-114735000D02*
X207598000Y-114735000D01*
X207598000Y-114735000D02*
X207598000Y-112075000D01*
X184678000Y-114735000D02*
X184678000Y-112075000D01*
X184678000Y-112075000D02*
X207598000Y-112075000D01*
D15*
X182982000Y-87197000D02*
X183363000Y-87197000D01*
X183490000Y-85038000D02*
X183363000Y-84911000D01*
X188316000Y-85038000D02*
X188443000Y-84911000D01*
X188824000Y-84911000D02*
X188443000Y-84911000D01*
X182982000Y-84911000D02*
X183363000Y-84911000D01*
X189078000Y-85165000D02*
X189078000Y-86943000D01*
X183490000Y-85038000D02*
X188316000Y-85038000D01*
X188316000Y-87070000D02*
X188443000Y-87197000D01*
X183490000Y-87070000D02*
X188316000Y-87070000D01*
X182728000Y-85165000D02*
X182728000Y-86943000D01*
X188824000Y-87197000D02*
X188443000Y-87197000D01*
X183490000Y-87070000D02*
X183363000Y-87197000D01*
X182728000Y-85165000D02*
G75*
G02*
X182982000Y-84911000I254000J0D01*
G01*
X182728000Y-86943000D02*
G75*
G03*
X182982000Y-87197000I254000J0D01*
G01*
X188824000Y-87197000D02*
G75*
G03*
X189078000Y-86943000I0J254000D01*
G01*
X188824000Y-84911000D02*
G75*
G02*
X189078000Y-85165000I0J-254000D01*
G01*
G36*
X189941600Y-86358800D02*
G01*
X189078000Y-86358800D01*
X189078000Y-85749200D01*
X189941600Y-85749200D01*
X189941600Y-86358800D01*
G37*
G36*
X182728000Y-86358800D02*
G01*
X181864400Y-86358800D01*
X181864400Y-85749200D01*
X182728000Y-85749200D01*
X182728000Y-86358800D01*
G37*
D16*
X205778000Y-96600000D02*
X208438000Y-96600000D01*
X205778000Y-94000000D02*
X207108000Y-94000000D01*
X208438000Y-96600000D02*
X208438000Y-101740000D01*
X205778000Y-95330000D02*
X205778000Y-94000000D01*
X205778000Y-101740000D02*
X208438000Y-101740000D01*
X205778000Y-96600000D02*
X205778000Y-101740000D01*
X163568000Y-100220000D02*
X167408000Y-100220000D01*
X165488000Y-103740000D02*
X165488000Y-101480000D01*
X167408000Y-93640000D02*
X163568000Y-93640000D01*
X163568000Y-100340000D02*
X167408000Y-100340000D01*
X163568000Y-93640000D02*
X163568000Y-101480000D01*
X163568000Y-101480000D02*
X167408000Y-101480000D01*
X165488000Y-91380000D02*
X165488000Y-93640000D01*
X163568000Y-100100000D02*
X167408000Y-100100000D01*
X167408000Y-101480000D02*
X167408000Y-93640000D01*
X183744000Y-91829000D02*
X181144000Y-91829000D01*
X183744000Y-89169000D02*
X181144000Y-89169000D01*
X181144000Y-89169000D02*
X181144000Y-91829000D01*
X183744000Y-89169000D02*
X183744000Y-91829000D01*
X185014000Y-89169000D02*
X186344000Y-89169000D01*
X186344000Y-89169000D02*
X186344000Y-90499000D01*
X186344000Y-104155000D02*
X186344000Y-105485000D01*
X183744000Y-106815000D02*
X181144000Y-106815000D01*
X185014000Y-104155000D02*
X186344000Y-104155000D01*
X183744000Y-104155000D02*
X181144000Y-104155000D01*
X181144000Y-104155000D02*
X181144000Y-106815000D01*
X183744000Y-104155000D02*
X183744000Y-106815000D01*
X158418000Y-101480000D02*
X162258000Y-101480000D01*
X158418000Y-100100000D02*
X162258000Y-100100000D01*
X158418000Y-100220000D02*
X162258000Y-100220000D01*
X160338000Y-103740000D02*
X160338000Y-101480000D01*
X158418000Y-93640000D02*
X158418000Y-101480000D01*
X158418000Y-100340000D02*
X162258000Y-100340000D01*
X162258000Y-93640000D02*
X158418000Y-93640000D01*
X160338000Y-91380000D02*
X160338000Y-93640000D01*
X162258000Y-101480000D02*
X162258000Y-93640000D01*
X199746000Y-93988000D02*
X199746000Y-91328000D01*
X204886000Y-93988000D02*
X204886000Y-91328000D01*
X199746000Y-91328000D02*
X204886000Y-91328000D01*
X197146000Y-93988000D02*
X197146000Y-92658000D01*
X199746000Y-93988000D02*
X204886000Y-93988000D01*
X198476000Y-93988000D02*
X197146000Y-93988000D01*
M02*
