G04 #@! TF.GenerationSoftware,KiCad,Pcbnew,5.99.0-unknown-da005bd2a6~101~ubuntu20.04.1*
G04 #@! TF.CreationDate,2021-02-28T21:44:41+09:00*
G04 #@! TF.ProjectId,M5_board_bGeigieRaku V1.9,4d355f62-6f61-4726-945f-624765696769,rev?*
G04 #@! TF.SameCoordinates,PX563e908PY447d14c*
G04 #@! TF.FileFunction,Soldermask,Top*
G04 #@! TF.FilePolarity,Negative*
%FSLAX46Y46*%
G04 Gerber Fmt 4.6, Leading zero omitted, Abs format (unit mm)*
G04 Created by KiCad (PCBNEW 5.99.0-unknown-da005bd2a6~101~ubuntu20.04.1) date 2021-02-28 21:44:41*
%MOMM*%
%LPD*%
G01*
G04 APERTURE LIST*
%ADD10C,1.879600*%
%ADD11C,3.200000*%
%ADD12R,1.000000X3.150000*%
%ADD13R,1.700000X1.700000*%
%ADD14O,1.700000X1.700000*%
%ADD15C,3.203200*%
%ADD16R,2.400000X2.400000*%
%ADD17O,2.400000X2.400000*%
%ADD18R,1.905000X2.000000*%
%ADD19O,1.905000X2.000000*%
G04 APERTURE END LIST*
D10*
X90389200Y-10428500D03*
X100549200Y-10428500D03*
D11*
X218800Y-54116500D03*
D12*
X51429200Y-42164500D03*
X51429200Y-47214500D03*
X48889200Y-42164500D03*
X48889200Y-47214500D03*
X46349200Y-42164500D03*
X46349200Y-47214500D03*
X43809200Y-42164500D03*
X43809200Y-47214500D03*
X41269200Y-42164500D03*
X41269200Y-47214500D03*
X38729200Y-42164500D03*
X38729200Y-47214500D03*
X36189200Y-42164500D03*
X36189200Y-47214500D03*
X33649200Y-42164500D03*
X33649200Y-47214500D03*
X31109200Y-42164500D03*
X31109200Y-47214500D03*
X28569200Y-42164500D03*
X28569200Y-47214500D03*
X26029200Y-42164500D03*
X26029200Y-47214500D03*
X23489200Y-42164500D03*
X23489200Y-47214500D03*
X20949200Y-42164500D03*
X20949200Y-47214500D03*
X18409200Y-42164500D03*
X18409200Y-47214500D03*
X15869200Y-42164500D03*
X15869200Y-47214500D03*
D13*
X119599200Y-33669500D03*
D14*
X117059200Y-33669500D03*
D13*
X62899200Y-21564500D03*
D14*
X62899200Y-24104500D03*
X62899200Y-26644500D03*
X62899200Y-29184500D03*
D10*
X96310200Y-4332500D03*
X93310200Y-4332500D03*
X90310200Y-4332500D03*
D15*
X99560200Y-4332500D03*
X87060200Y-4332500D03*
D10*
X110019200Y-10189500D03*
X107479200Y-10189500D03*
D11*
X110211200Y-17164500D03*
X85700200Y-22625500D03*
D13*
X119599200Y-18683500D03*
D14*
X117059200Y-18683500D03*
D13*
X92974200Y-41589500D03*
D14*
X95514200Y-41589500D03*
X98054200Y-41589500D03*
X100594200Y-41589500D03*
X103134200Y-41589500D03*
X105674200Y-41589500D03*
X108214200Y-41589500D03*
X110754200Y-41589500D03*
X113294200Y-41589500D03*
X115834200Y-41589500D03*
D11*
X13374200Y-4964500D03*
X81873800Y0D03*
X13374200Y-48989500D03*
D10*
X100549200Y-14238500D03*
X90389200Y-14238500D03*
D13*
X116674200Y-23514500D03*
D14*
X116674200Y-26054500D03*
X116674200Y-28594500D03*
D16*
X75054200Y-33364500D03*
D17*
X75054200Y-18124500D03*
D11*
X118202200Y0D03*
D13*
X94580200Y-18683500D03*
D14*
X92040200Y-18683500D03*
D13*
X94580200Y-33669500D03*
D14*
X92040200Y-33669500D03*
D11*
X218800Y0D03*
X81873800Y-54116500D03*
X118202200Y-54116500D03*
D16*
X69904200Y-33364500D03*
D17*
X69904200Y-18124500D03*
D13*
X108042200Y-20842500D03*
D14*
X110582200Y-20842500D03*
X113122200Y-20842500D03*
D18*
X66824200Y-1494500D03*
D19*
X69364200Y-1494500D03*
X71904200Y-1494500D03*
D18*
X66844200Y-7749500D03*
D19*
X69384200Y-7749500D03*
X71924200Y-7749500D03*
M02*
