G04 #@! TF.GenerationSoftware,KiCad,Pcbnew,5.99.0-unknown-da005bd2a6~101~ubuntu20.04.1*
G04 #@! TF.CreationDate,2021-02-28T21:44:41+09:00*
G04 #@! TF.ProjectId,M5_board_bGeigieRaku V1.9,4d355f62-6f61-4726-945f-624765696769,rev?*
G04 #@! TF.SameCoordinates,PX563e908PY447d14c*
G04 #@! TF.FileFunction,Legend,Top*
G04 #@! TF.FilePolarity,Positive*
%FSLAX46Y46*%
G04 Gerber Fmt 4.6, Leading zero omitted, Abs format (unit mm)*
G04 Created by KiCad (PCBNEW 5.99.0-unknown-da005bd2a6~101~ubuntu20.04.1) date 2021-02-28 21:44:41*
%MOMM*%
%LPD*%
G01*
G04 APERTURE LIST*
%ADD10C,0.200000*%
%ADD11C,0.300000*%
%ADD12C,0.150000*%
%ADD13C,0.120650*%
%ADD14C,0.096520*%
%ADD15C,0.152400*%
%ADD16C,0.120000*%
%ADD17C,0.127000*%
%ADD18C,0.304800*%
G04 APERTURE END LIST*
D10*
X99319500Y-42935600D02*
X99319500Y-37220600D01*
X112019500Y-42935600D02*
X99319500Y-42935600D01*
X99319500Y-37220600D02*
X112019500Y-37220600D01*
X112019500Y-37220600D02*
X112019500Y-42935600D01*
D11*
X16638085Y1935500D02*
X16780942Y1864072D01*
X16995228Y1864072D01*
X17209514Y1935500D01*
X17352371Y2078358D01*
X17423800Y2221215D01*
X17495228Y2506929D01*
X17495228Y2721215D01*
X17423800Y3006929D01*
X17352371Y3149786D01*
X17209514Y3292643D01*
X16995228Y3364072D01*
X16852371Y3364072D01*
X16638085Y3292643D01*
X16566657Y3221215D01*
X16566657Y2721215D01*
X16852371Y2721215D01*
X15066657Y3364072D02*
X15566657Y2649786D01*
X15923800Y3364072D02*
X15923800Y1864072D01*
X15352371Y1864072D01*
X15209514Y1935500D01*
X15138085Y2006929D01*
X15066657Y2149786D01*
X15066657Y2364072D01*
X15138085Y2506929D01*
X15209514Y2578358D01*
X15352371Y2649786D01*
X15923800Y2649786D01*
X14138085Y1864072D02*
X13852371Y1864072D01*
X13709514Y1935500D01*
X13566657Y2078358D01*
X13495228Y2364072D01*
X13495228Y2864072D01*
X13566657Y3149786D01*
X13709514Y3292643D01*
X13852371Y3364072D01*
X14138085Y3364072D01*
X14280942Y3292643D01*
X14423800Y3149786D01*
X14495228Y2864072D01*
X14495228Y2364072D01*
X14423800Y2078358D01*
X14280942Y1935500D01*
X14138085Y1864072D01*
X13066657Y1864072D02*
X12566657Y3364072D01*
X12066657Y1864072D01*
X11566657Y2578358D02*
X11066657Y2578358D01*
X10852371Y3364072D02*
X11566657Y3364072D01*
X11566657Y1864072D01*
X10852371Y1864072D01*
D12*
X122055942Y-30178785D02*
X122103561Y-30226404D01*
X122151180Y-30369261D01*
X122151180Y-30464500D01*
X122103561Y-30607357D01*
X122008323Y-30702595D01*
X121913085Y-30750214D01*
X121722609Y-30797833D01*
X121579752Y-30797833D01*
X121389276Y-30750214D01*
X121294038Y-30702595D01*
X121198800Y-30607357D01*
X121151180Y-30464500D01*
X121151180Y-30369261D01*
X121198800Y-30226404D01*
X121246419Y-30178785D01*
X122151180Y-29750214D02*
X121151180Y-29750214D01*
X122151180Y-29321642D02*
X121627371Y-29321642D01*
X121532133Y-29369261D01*
X121484514Y-29464500D01*
X121484514Y-29607357D01*
X121532133Y-29702595D01*
X121579752Y-29750214D01*
X122151180Y-28416880D02*
X121627371Y-28416880D01*
X121532133Y-28464500D01*
X121484514Y-28559738D01*
X121484514Y-28750214D01*
X121532133Y-28845452D01*
X122103561Y-28416880D02*
X122151180Y-28512119D01*
X122151180Y-28750214D01*
X122103561Y-28845452D01*
X122008323Y-28893071D01*
X121913085Y-28893071D01*
X121817847Y-28845452D01*
X121770228Y-28750214D01*
X121770228Y-28512119D01*
X121722609Y-28416880D01*
X122151180Y-27940690D02*
X121484514Y-27940690D01*
X121674990Y-27940690D02*
X121579752Y-27893071D01*
X121532133Y-27845452D01*
X121484514Y-27750214D01*
X121484514Y-27654976D01*
X121484514Y-26893071D02*
X122294038Y-26893071D01*
X122389276Y-26940690D01*
X122436895Y-26988309D01*
X122484514Y-27083547D01*
X122484514Y-27226404D01*
X122436895Y-27321642D01*
X122103561Y-26893071D02*
X122151180Y-26988309D01*
X122151180Y-27178785D01*
X122103561Y-27274023D01*
X122055942Y-27321642D01*
X121960704Y-27369261D01*
X121674990Y-27369261D01*
X121579752Y-27321642D01*
X121532133Y-27274023D01*
X121484514Y-27178785D01*
X121484514Y-26988309D01*
X121532133Y-26893071D01*
X122103561Y-26035928D02*
X122151180Y-26131166D01*
X122151180Y-26321642D01*
X122103561Y-26416880D01*
X122008323Y-26464500D01*
X121627371Y-26464500D01*
X121532133Y-26416880D01*
X121484514Y-26321642D01*
X121484514Y-26131166D01*
X121532133Y-26035928D01*
X121627371Y-25988309D01*
X121722609Y-25988309D01*
X121817847Y-26464500D01*
X122151180Y-24654976D02*
X122103561Y-24750214D01*
X122055942Y-24797833D01*
X121960704Y-24845452D01*
X121674990Y-24845452D01*
X121579752Y-24797833D01*
X121532133Y-24750214D01*
X121484514Y-24654976D01*
X121484514Y-24512119D01*
X121532133Y-24416880D01*
X121579752Y-24369261D01*
X121674990Y-24321642D01*
X121960704Y-24321642D01*
X122055942Y-24369261D01*
X122103561Y-24416880D01*
X122151180Y-24512119D01*
X122151180Y-24654976D01*
X121484514Y-23893071D02*
X122151180Y-23893071D01*
X121579752Y-23893071D02*
X121532133Y-23845452D01*
X121484514Y-23750214D01*
X121484514Y-23607357D01*
X121532133Y-23512119D01*
X121627371Y-23464500D01*
X122151180Y-23464500D01*
X122151180Y-22845452D02*
X122103561Y-22940690D01*
X122008323Y-22988309D01*
X121151180Y-22988309D01*
X121484514Y-22559738D02*
X122151180Y-22321642D01*
X121484514Y-22083547D02*
X122151180Y-22321642D01*
X122389276Y-22416880D01*
X122436895Y-22464500D01*
X122484514Y-22559738D01*
D11*
X37766657Y2064072D02*
X37766657Y3278358D01*
X37695228Y3421215D01*
X37623800Y3492643D01*
X37480942Y3564072D01*
X37195228Y3564072D01*
X37052371Y3492643D01*
X36980942Y3421215D01*
X36909514Y3278358D01*
X36909514Y2064072D01*
X36266657Y3492643D02*
X36052371Y3564072D01*
X35695228Y3564072D01*
X35552371Y3492643D01*
X35480942Y3421215D01*
X35409514Y3278358D01*
X35409514Y3135500D01*
X35480942Y2992643D01*
X35552371Y2921215D01*
X35695228Y2849786D01*
X35980942Y2778358D01*
X36123800Y2706929D01*
X36195228Y2635500D01*
X36266657Y2492643D01*
X36266657Y2349786D01*
X36195228Y2206929D01*
X36123800Y2135500D01*
X35980942Y2064072D01*
X35623800Y2064072D01*
X35409514Y2135500D01*
X34266657Y2778358D02*
X34052371Y2849786D01*
X33980942Y2921215D01*
X33909514Y3064072D01*
X33909514Y3278358D01*
X33980942Y3421215D01*
X34052371Y3492643D01*
X34195228Y3564072D01*
X34766657Y3564072D01*
X34766657Y2064072D01*
X34266657Y2064072D01*
X34123800Y2135500D01*
X34052371Y2206929D01*
X33980942Y2349786D01*
X33980942Y2492643D01*
X34052371Y2635500D01*
X34123800Y2706929D01*
X34266657Y2778358D01*
X34766657Y2778358D01*
D12*
X105846071Y-39528314D02*
X105881785Y-39421171D01*
X105881785Y-39242600D01*
X105846071Y-39171171D01*
X105810357Y-39135457D01*
X105738928Y-39099742D01*
X105667500Y-39099742D01*
X105596071Y-39135457D01*
X105560357Y-39171171D01*
X105524642Y-39242600D01*
X105488928Y-39385457D01*
X105453214Y-39456885D01*
X105417500Y-39492600D01*
X105346071Y-39528314D01*
X105274642Y-39528314D01*
X105203214Y-39492600D01*
X105167500Y-39456885D01*
X105131785Y-39385457D01*
X105131785Y-39206885D01*
X105167500Y-39099742D01*
X105881785Y-38778314D02*
X105131785Y-38778314D01*
X105131785Y-38599742D01*
X105167500Y-38492600D01*
X105238928Y-38421171D01*
X105310357Y-38385457D01*
X105453214Y-38349742D01*
X105560357Y-38349742D01*
X105703214Y-38385457D01*
X105774642Y-38421171D01*
X105846071Y-38492600D01*
X105881785Y-38599742D01*
X105881785Y-38778314D01*
X105667500Y-38064028D02*
X105667500Y-37706885D01*
X105881785Y-38135457D02*
X105131785Y-37885457D01*
X105881785Y-37635457D01*
D11*
X111559514Y-54043428D02*
X111559514Y-55543428D01*
X111559514Y-54972000D02*
X111416657Y-55043428D01*
X111130942Y-55043428D01*
X110988085Y-54972000D01*
X110916657Y-54900571D01*
X110845228Y-54757714D01*
X110845228Y-54329142D01*
X110916657Y-54186285D01*
X110988085Y-54114857D01*
X111130942Y-54043428D01*
X111416657Y-54043428D01*
X111559514Y-54114857D01*
X109416657Y-55472000D02*
X109559514Y-55543428D01*
X109773800Y-55543428D01*
X109988085Y-55472000D01*
X110130942Y-55329142D01*
X110202371Y-55186285D01*
X110273800Y-54900571D01*
X110273800Y-54686285D01*
X110202371Y-54400571D01*
X110130942Y-54257714D01*
X109988085Y-54114857D01*
X109773800Y-54043428D01*
X109630942Y-54043428D01*
X109416657Y-54114857D01*
X109345228Y-54186285D01*
X109345228Y-54686285D01*
X109630942Y-54686285D01*
X108130942Y-54114857D02*
X108273800Y-54043428D01*
X108559514Y-54043428D01*
X108702371Y-54114857D01*
X108773800Y-54257714D01*
X108773800Y-54829142D01*
X108702371Y-54972000D01*
X108559514Y-55043428D01*
X108273800Y-55043428D01*
X108130942Y-54972000D01*
X108059514Y-54829142D01*
X108059514Y-54686285D01*
X108773800Y-54543428D01*
X107416657Y-54043428D02*
X107416657Y-55043428D01*
X107416657Y-55543428D02*
X107488085Y-55472000D01*
X107416657Y-55400571D01*
X107345228Y-55472000D01*
X107416657Y-55543428D01*
X107416657Y-55400571D01*
X106059514Y-55043428D02*
X106059514Y-53829142D01*
X106130942Y-53686285D01*
X106202371Y-53614857D01*
X106345228Y-53543428D01*
X106559514Y-53543428D01*
X106702371Y-53614857D01*
X106059514Y-54114857D02*
X106202371Y-54043428D01*
X106488085Y-54043428D01*
X106630942Y-54114857D01*
X106702371Y-54186285D01*
X106773800Y-54329142D01*
X106773800Y-54757714D01*
X106702371Y-54900571D01*
X106630942Y-54972000D01*
X106488085Y-55043428D01*
X106202371Y-55043428D01*
X106059514Y-54972000D01*
X105345228Y-54043428D02*
X105345228Y-55043428D01*
X105345228Y-55543428D02*
X105416657Y-55472000D01*
X105345228Y-55400571D01*
X105273800Y-55472000D01*
X105345228Y-55543428D01*
X105345228Y-55400571D01*
X104059514Y-54114857D02*
X104202371Y-54043428D01*
X104488085Y-54043428D01*
X104630942Y-54114857D01*
X104702371Y-54257714D01*
X104702371Y-54829142D01*
X104630942Y-54972000D01*
X104488085Y-55043428D01*
X104202371Y-55043428D01*
X104059514Y-54972000D01*
X103988085Y-54829142D01*
X103988085Y-54686285D01*
X104702371Y-54543428D01*
X103488085Y-55543428D02*
X102488085Y-55543428D01*
X103488085Y-54043428D01*
X102488085Y-54043428D01*
X101345228Y-54114857D02*
X101488085Y-54043428D01*
X101773800Y-54043428D01*
X101916657Y-54114857D01*
X101988085Y-54257714D01*
X101988085Y-54829142D01*
X101916657Y-54972000D01*
X101773800Y-55043428D01*
X101488085Y-55043428D01*
X101345228Y-54972000D01*
X101273800Y-54829142D01*
X101273800Y-54686285D01*
X101988085Y-54543428D01*
X100630942Y-55043428D02*
X100630942Y-54043428D01*
X100630942Y-54900571D02*
X100559514Y-54972000D01*
X100416657Y-55043428D01*
X100202371Y-55043428D01*
X100059514Y-54972000D01*
X99988085Y-54829142D01*
X99988085Y-54043428D01*
X109130942Y-53128428D02*
X108630942Y-51628428D01*
X108130942Y-53128428D01*
X106845228Y-51628428D02*
X107702371Y-51628428D01*
X107273800Y-51628428D02*
X107273800Y-53128428D01*
X107416657Y-52914142D01*
X107559514Y-52771285D01*
X107702371Y-52699857D01*
X106202371Y-51771285D02*
X106130942Y-51699857D01*
X106202371Y-51628428D01*
X106273800Y-51699857D01*
X106202371Y-51771285D01*
X106202371Y-51628428D01*
X105416657Y-51628428D02*
X105130942Y-51628428D01*
X104988085Y-51699857D01*
X104916657Y-51771285D01*
X104773800Y-51985571D01*
X104702371Y-52271285D01*
X104702371Y-52842714D01*
X104773800Y-52985571D01*
X104845228Y-53057000D01*
X104988085Y-53128428D01*
X105273800Y-53128428D01*
X105416657Y-53057000D01*
X105488085Y-52985571D01*
X105559514Y-52842714D01*
X105559514Y-52485571D01*
X105488085Y-52342714D01*
X105416657Y-52271285D01*
X105273800Y-52199857D01*
X104988085Y-52199857D01*
X104845228Y-52271285D01*
X104773800Y-52342714D01*
X104702371Y-52485571D01*
X104059514Y-51771285D02*
X103988085Y-51699857D01*
X104059514Y-51628428D01*
X104130942Y-51699857D01*
X104059514Y-51771285D01*
X104059514Y-51628428D01*
X102702371Y-53128428D02*
X102988085Y-53128428D01*
X103130942Y-53057000D01*
X103202371Y-52985571D01*
X103345228Y-52771285D01*
X103416657Y-52485571D01*
X103416657Y-51914142D01*
X103345228Y-51771285D01*
X103273800Y-51699857D01*
X103130942Y-51628428D01*
X102845228Y-51628428D01*
X102702371Y-51699857D01*
X102630942Y-51771285D01*
X102559514Y-51914142D01*
X102559514Y-52271285D01*
X102630942Y-52414142D01*
X102702371Y-52485571D01*
X102845228Y-52557000D01*
X103130942Y-52557000D01*
X103273800Y-52485571D01*
X103345228Y-52414142D01*
X103416657Y-52271285D01*
X83598371Y834929D02*
X83598371Y1120643D01*
X83669800Y1263500D01*
X83812657Y1406358D01*
X84098371Y1477786D01*
X84598371Y1477786D01*
X84884085Y1406358D01*
X85026942Y1263500D01*
X85098371Y1120643D01*
X85098371Y834929D01*
X85026942Y692072D01*
X84884085Y549215D01*
X84598371Y477786D01*
X84098371Y477786D01*
X83812657Y549215D01*
X83669800Y692072D01*
X83598371Y834929D01*
X85098371Y2120643D02*
X83598371Y2120643D01*
X85098371Y2977786D01*
X83598371Y2977786D01*
D12*
X110374500Y-39349742D02*
X110338785Y-39421171D01*
X110338785Y-39528314D01*
X110374500Y-39635457D01*
X110445928Y-39706885D01*
X110517357Y-39742600D01*
X110660214Y-39778314D01*
X110767357Y-39778314D01*
X110910214Y-39742600D01*
X110981642Y-39706885D01*
X111053071Y-39635457D01*
X111088785Y-39528314D01*
X111088785Y-39456885D01*
X111053071Y-39349742D01*
X111017357Y-39314028D01*
X110767357Y-39314028D01*
X110767357Y-39456885D01*
X111088785Y-38992600D02*
X110338785Y-38992600D01*
X110338785Y-38492600D02*
X110338785Y-38349742D01*
X110374500Y-38278314D01*
X110445928Y-38206885D01*
X110588785Y-38171171D01*
X110838785Y-38171171D01*
X110981642Y-38206885D01*
X111053071Y-38278314D01*
X111088785Y-38349742D01*
X111088785Y-38492600D01*
X111053071Y-38564028D01*
X110981642Y-38635457D01*
X110838785Y-38671171D01*
X110588785Y-38671171D01*
X110445928Y-38635457D01*
X110374500Y-38564028D01*
X110338785Y-38492600D01*
X110338785Y-37706885D02*
X110338785Y-37635457D01*
X110374500Y-37564028D01*
X110410214Y-37528314D01*
X110481642Y-37492600D01*
X110624500Y-37456885D01*
X110803071Y-37456885D01*
X110945928Y-37492600D01*
X111017357Y-37528314D01*
X111053071Y-37564028D01*
X111088785Y-37635457D01*
X111088785Y-37706885D01*
X111053071Y-37778314D01*
X111017357Y-37814028D01*
X110945928Y-37849742D01*
X110803071Y-37885457D01*
X110624500Y-37885457D01*
X110481642Y-37849742D01*
X110410214Y-37814028D01*
X110374500Y-37778314D01*
X110338785Y-37706885D01*
X97659685Y-38195931D02*
X97659685Y-38553074D01*
X98016828Y-38588788D01*
X97981114Y-38553074D01*
X97945400Y-38481645D01*
X97945400Y-38303074D01*
X97981114Y-38231645D01*
X98016828Y-38195931D01*
X98088257Y-38160216D01*
X98266828Y-38160216D01*
X98338257Y-38195931D01*
X98373971Y-38231645D01*
X98409685Y-38303074D01*
X98409685Y-38481645D01*
X98373971Y-38553074D01*
X98338257Y-38588788D01*
X97659685Y-37945931D02*
X98409685Y-37695931D01*
X97659685Y-37445931D01*
D11*
X6080942Y-22185928D02*
X6152371Y-21971642D01*
X6152371Y-21614500D01*
X6080942Y-21471642D01*
X6009514Y-21400214D01*
X5866657Y-21328785D01*
X5723800Y-21328785D01*
X5580942Y-21400214D01*
X5509514Y-21471642D01*
X5438085Y-21614500D01*
X5366657Y-21900214D01*
X5295228Y-22043071D01*
X5223800Y-22114500D01*
X5080942Y-22185928D01*
X4938085Y-22185928D01*
X4795228Y-22114500D01*
X4723800Y-22043071D01*
X4652371Y-21900214D01*
X4652371Y-21543071D01*
X4723800Y-21328785D01*
X6152371Y-20685928D02*
X4652371Y-20685928D01*
X4652371Y-20328785D01*
X4723800Y-20114500D01*
X4866657Y-19971642D01*
X5009514Y-19900214D01*
X5295228Y-19828785D01*
X5509514Y-19828785D01*
X5795228Y-19900214D01*
X5938085Y-19971642D01*
X6080942Y-20114500D01*
X6152371Y-20328785D01*
X6152371Y-20685928D01*
X6009514Y-18328785D02*
X6080942Y-18400214D01*
X6152371Y-18614500D01*
X6152371Y-18757357D01*
X6080942Y-18971642D01*
X5938085Y-19114500D01*
X5795228Y-19185928D01*
X5509514Y-19257357D01*
X5295228Y-19257357D01*
X5009514Y-19185928D01*
X4866657Y-19114500D01*
X4723800Y-18971642D01*
X4652371Y-18757357D01*
X4652371Y-18614500D01*
X4723800Y-18400214D01*
X4795228Y-18328785D01*
X5723800Y-17757357D02*
X5723800Y-17043071D01*
X6152371Y-17900214D02*
X4652371Y-17400214D01*
X6152371Y-16900214D01*
X6152371Y-15543071D02*
X5438085Y-16043071D01*
X6152371Y-16400214D02*
X4652371Y-16400214D01*
X4652371Y-15828785D01*
X4723800Y-15685928D01*
X4795228Y-15614500D01*
X4938085Y-15543071D01*
X5152371Y-15543071D01*
X5295228Y-15614500D01*
X5366657Y-15685928D01*
X5438085Y-15828785D01*
X5438085Y-16400214D01*
X6152371Y-14900214D02*
X4652371Y-14900214D01*
X4652371Y-14543071D01*
X4723800Y-14328785D01*
X4866657Y-14185928D01*
X5009514Y-14114500D01*
X5295228Y-14043071D01*
X5509514Y-14043071D01*
X5795228Y-14114500D01*
X5938085Y-14185928D01*
X6080942Y-14328785D01*
X6152371Y-14543071D01*
X6152371Y-14900214D01*
D12*
X95119685Y-39695930D02*
X95119685Y-39231645D01*
X95405400Y-39481645D01*
X95405400Y-39374502D01*
X95441114Y-39303073D01*
X95476828Y-39267359D01*
X95548257Y-39231645D01*
X95726828Y-39231645D01*
X95798257Y-39267359D01*
X95833971Y-39303073D01*
X95869685Y-39374502D01*
X95869685Y-39588788D01*
X95833971Y-39660216D01*
X95798257Y-39695930D01*
X95798257Y-38910216D02*
X95833971Y-38874502D01*
X95869685Y-38910216D01*
X95833971Y-38945930D01*
X95798257Y-38910216D01*
X95869685Y-38910216D01*
X95119685Y-38624502D02*
X95119685Y-38160216D01*
X95405400Y-38410216D01*
X95405400Y-38303073D01*
X95441114Y-38231645D01*
X95476828Y-38195930D01*
X95548257Y-38160216D01*
X95726828Y-38160216D01*
X95798257Y-38195930D01*
X95833971Y-38231645D01*
X95869685Y-38303073D01*
X95869685Y-38517359D01*
X95833971Y-38588788D01*
X95798257Y-38624502D01*
X95119685Y-37945930D02*
X95869685Y-37695930D01*
X95119685Y-37445930D01*
X100051785Y-39264458D02*
X100051785Y-38835887D01*
X100801785Y-39050172D02*
X100051785Y-39050172D01*
X100051785Y-38657315D02*
X100801785Y-38157315D01*
X100051785Y-38157315D02*
X100801785Y-38657315D01*
X100801785Y-37478744D02*
X100801785Y-37907315D01*
X100801785Y-37693029D02*
X100051785Y-37693029D01*
X100158928Y-37764458D01*
X100230357Y-37835887D01*
X100266071Y-37907315D01*
X92615400Y-39088787D02*
X92579685Y-39160216D01*
X92579685Y-39267359D01*
X92615400Y-39374501D01*
X92686828Y-39445930D01*
X92758257Y-39481644D01*
X92901114Y-39517359D01*
X93008257Y-39517359D01*
X93151114Y-39481644D01*
X93222542Y-39445930D01*
X93293971Y-39374501D01*
X93329685Y-39267359D01*
X93329685Y-39195930D01*
X93293971Y-39088787D01*
X93258257Y-39053073D01*
X93008257Y-39053073D01*
X93008257Y-39195930D01*
X93329685Y-38731644D02*
X92579685Y-38731644D01*
X93329685Y-38303073D01*
X92579685Y-38303073D01*
X93329685Y-37945930D02*
X92579685Y-37945930D01*
X92579685Y-37767359D01*
X92615400Y-37660216D01*
X92686828Y-37588787D01*
X92758257Y-37553073D01*
X92901114Y-37517359D01*
X93008257Y-37517359D01*
X93151114Y-37553073D01*
X93222542Y-37588787D01*
X93293971Y-37660216D01*
X93329685Y-37767359D01*
X93329685Y-37945930D01*
D11*
X100616371Y588929D02*
X100616371Y874643D01*
X100687800Y1017500D01*
X100830657Y1160358D01*
X101116371Y1231786D01*
X101616371Y1231786D01*
X101902085Y1160358D01*
X102044942Y1017500D01*
X102116371Y874643D01*
X102116371Y588929D01*
X102044942Y446072D01*
X101902085Y303215D01*
X101616371Y231786D01*
X101116371Y231786D01*
X100830657Y303215D01*
X100687800Y446072D01*
X100616371Y588929D01*
X101330657Y2374643D02*
X101330657Y1874643D01*
X102116371Y1874643D02*
X100616371Y1874643D01*
X100616371Y2588929D01*
X101330657Y3660358D02*
X101330657Y3160358D01*
X102116371Y3160358D02*
X100616371Y3160358D01*
X100616371Y3874643D01*
D12*
X103341785Y-38818029D02*
X102984642Y-39068029D01*
X103341785Y-39246601D02*
X102591785Y-39246601D01*
X102591785Y-38960887D01*
X102627500Y-38889458D01*
X102663214Y-38853744D01*
X102734642Y-38818029D01*
X102841785Y-38818029D01*
X102913214Y-38853744D01*
X102948928Y-38889458D01*
X102984642Y-38960887D01*
X102984642Y-39246601D01*
X102591785Y-38568029D02*
X103341785Y-38068029D01*
X102591785Y-38068029D02*
X103341785Y-38568029D01*
X103341785Y-37389458D02*
X103341785Y-37818029D01*
X103341785Y-37603744D02*
X102591785Y-37603744D01*
X102698928Y-37675172D01*
X102770357Y-37746601D01*
X102806071Y-37818029D01*
X108386071Y-39228745D02*
X108421785Y-39121602D01*
X108421785Y-38943030D01*
X108386071Y-38871602D01*
X108350357Y-38835888D01*
X108278928Y-38800173D01*
X108207500Y-38800173D01*
X108136071Y-38835888D01*
X108100357Y-38871602D01*
X108064642Y-38943030D01*
X108028928Y-39085888D01*
X107993214Y-39157316D01*
X107957500Y-39193030D01*
X107886071Y-39228745D01*
X107814642Y-39228745D01*
X107743214Y-39193030D01*
X107707500Y-39157316D01*
X107671785Y-39085888D01*
X107671785Y-38907316D01*
X107707500Y-38800173D01*
X108350357Y-38050173D02*
X108386071Y-38085888D01*
X108421785Y-38193030D01*
X108421785Y-38264459D01*
X108386071Y-38371602D01*
X108314642Y-38443030D01*
X108243214Y-38478745D01*
X108100357Y-38514459D01*
X107993214Y-38514459D01*
X107850357Y-38478745D01*
X107778928Y-38443030D01*
X107707500Y-38371602D01*
X107671785Y-38264459D01*
X107671785Y-38193030D01*
X107707500Y-38085888D01*
X107743214Y-38050173D01*
X108421785Y-37371602D02*
X108421785Y-37728745D01*
X107671785Y-37728745D01*
D13*
X88096465Y-10869779D02*
X87521941Y-11271946D01*
X88096465Y-11559208D02*
X86889965Y-11559208D01*
X86889965Y-11099589D01*
X86947418Y-10984684D01*
X87004870Y-10927232D01*
X87119775Y-10869779D01*
X87292132Y-10869779D01*
X87407037Y-10927232D01*
X87464489Y-10984684D01*
X87521941Y-11099589D01*
X87521941Y-11559208D01*
X87004870Y-10410160D02*
X86947418Y-10352708D01*
X86889965Y-10237803D01*
X86889965Y-9950541D01*
X86947418Y-9835636D01*
X87004870Y-9778184D01*
X87119775Y-9720732D01*
X87234679Y-9720732D01*
X87407037Y-9778184D01*
X88096465Y-10467612D01*
X88096465Y-9720732D01*
X95097067Y-11133047D02*
X94407639Y-11133047D01*
X94752353Y-11133047D02*
X94752353Y-9926547D01*
X94637448Y-10098904D01*
X94522544Y-10213809D01*
X94407639Y-10271261D01*
X95614139Y-11133047D02*
X95614139Y-9926547D01*
X96303567Y-11133047D02*
X95786496Y-10443619D01*
X96303567Y-9926547D02*
X95614139Y-10615976D01*
D12*
X53211580Y-45022833D02*
X53925866Y-45022833D01*
X54068723Y-45070452D01*
X54163961Y-45165690D01*
X54211580Y-45308547D01*
X54211580Y-45403785D01*
X54211580Y-44022833D02*
X54211580Y-44594261D01*
X54211580Y-44308547D02*
X53211580Y-44308547D01*
X53354438Y-44403785D01*
X53449676Y-44499023D01*
X53497295Y-44594261D01*
X114771419Y-20776404D02*
X114723800Y-20871642D01*
X114628561Y-20966880D01*
X114485704Y-21109738D01*
X114438085Y-21204976D01*
X114438085Y-21300214D01*
X114676180Y-21252595D02*
X114628561Y-21347833D01*
X114533323Y-21443071D01*
X114342847Y-21490690D01*
X114009514Y-21490690D01*
X113819038Y-21443071D01*
X113723800Y-21347833D01*
X113676180Y-21252595D01*
X113676180Y-21062119D01*
X113723800Y-20966880D01*
X113819038Y-20871642D01*
X114009514Y-20824023D01*
X114342847Y-20824023D01*
X114533323Y-20871642D01*
X114628561Y-20966880D01*
X114676180Y-21062119D01*
X114676180Y-21252595D01*
X114676180Y-20395452D02*
X113676180Y-20395452D01*
X113723800Y-18633547D02*
X113676180Y-18728785D01*
X113676180Y-18871642D01*
X113723800Y-19014500D01*
X113819038Y-19109738D01*
X113914276Y-19157357D01*
X114104752Y-19204976D01*
X114247609Y-19204976D01*
X114438085Y-19157357D01*
X114533323Y-19109738D01*
X114628561Y-19014500D01*
X114676180Y-18871642D01*
X114676180Y-18776404D01*
X114628561Y-18633547D01*
X114580942Y-18585928D01*
X114247609Y-18585928D01*
X114247609Y-18776404D01*
X114676180Y-18157357D02*
X113676180Y-18157357D01*
X114676180Y-17585928D01*
X113676180Y-17585928D01*
X114676180Y-17109738D02*
X113676180Y-17109738D01*
X113676180Y-16871642D01*
X113723800Y-16728785D01*
X113819038Y-16633547D01*
X113914276Y-16585928D01*
X114104752Y-16538309D01*
X114247609Y-16538309D01*
X114438085Y-16585928D01*
X114533323Y-16633547D01*
X114628561Y-16728785D01*
X114676180Y-16871642D01*
X114676180Y-17109738D01*
X62565866Y-18246880D02*
X62565866Y-18961166D01*
X62518247Y-19104023D01*
X62423009Y-19199261D01*
X62280152Y-19246880D01*
X62184914Y-19246880D01*
X62946819Y-18246880D02*
X63565866Y-18246880D01*
X63232533Y-18627833D01*
X63375390Y-18627833D01*
X63470628Y-18675452D01*
X63518247Y-18723071D01*
X63565866Y-18818309D01*
X63565866Y-19056404D01*
X63518247Y-19151642D01*
X63470628Y-19199261D01*
X63375390Y-19246880D01*
X63089676Y-19246880D01*
X62994438Y-19199261D01*
X62946819Y-19151642D01*
D14*
X84749395Y-5817952D02*
X84806847Y-5645595D01*
X84806847Y-5358333D01*
X84749395Y-5243428D01*
X84691942Y-5185976D01*
X84577038Y-5128523D01*
X84462133Y-5128523D01*
X84347228Y-5185976D01*
X84289776Y-5243428D01*
X84232323Y-5358333D01*
X84174871Y-5588142D01*
X84117419Y-5703047D01*
X84059966Y-5760500D01*
X83945061Y-5817952D01*
X83830157Y-5817952D01*
X83715252Y-5760500D01*
X83657800Y-5703047D01*
X83600347Y-5588142D01*
X83600347Y-5300881D01*
X83657800Y-5128523D01*
X83600347Y-4726357D02*
X84806847Y-4439095D01*
X83945061Y-4209285D01*
X84806847Y-3979476D01*
X83600347Y-3692214D01*
X84806847Y-2600619D02*
X84806847Y-3290047D01*
X84806847Y-2945333D02*
X83600347Y-2945333D01*
X83772704Y-3060238D01*
X83887609Y-3175142D01*
X83945061Y-3290047D01*
D13*
X104766442Y-10376779D02*
X104823895Y-10434232D01*
X104881347Y-10606589D01*
X104881347Y-10721493D01*
X104823895Y-10893851D01*
X104708990Y-11008755D01*
X104594085Y-11066208D01*
X104364276Y-11123660D01*
X104191919Y-11123660D01*
X103962109Y-11066208D01*
X103847204Y-11008755D01*
X103732300Y-10893851D01*
X103674847Y-10721493D01*
X103674847Y-10606589D01*
X103732300Y-10434232D01*
X103789752Y-10376779D01*
X103789752Y-9917160D02*
X103732300Y-9859708D01*
X103674847Y-9744803D01*
X103674847Y-9457541D01*
X103732300Y-9342636D01*
X103789752Y-9285184D01*
X103904657Y-9227732D01*
X104019561Y-9227732D01*
X104191919Y-9285184D01*
X104881347Y-9974612D01*
X104881347Y-9227732D01*
X112112014Y-11342232D02*
X112916347Y-11342232D01*
X111652395Y-11629493D02*
X112514180Y-11916755D01*
X112514180Y-11169874D01*
X112801442Y-10710255D02*
X112858895Y-10652803D01*
X112916347Y-10710255D01*
X112858895Y-10767708D01*
X112801442Y-10710255D01*
X112916347Y-10710255D01*
X111709847Y-10250636D02*
X111709847Y-9446303D01*
X112916347Y-9963374D01*
X112112014Y-8469612D02*
X112916347Y-8469612D01*
X112112014Y-8986684D02*
X112743990Y-8986684D01*
X112858895Y-8929232D01*
X112916347Y-8814327D01*
X112916347Y-8641970D01*
X112858895Y-8527065D01*
X112801442Y-8469612D01*
X112112014Y-8067446D02*
X112112014Y-7607827D01*
X112916347Y-7895089D02*
X111882204Y-7895089D01*
X111767300Y-7837636D01*
X111709847Y-7722732D01*
X111709847Y-7607827D01*
D12*
X113726580Y-13776404D02*
X112726580Y-13776404D01*
X113202771Y-13776404D02*
X113202771Y-13204976D01*
X113726580Y-13204976D02*
X112726580Y-13204976D01*
X113155152Y-12585928D02*
X113107533Y-12681166D01*
X113059914Y-12728785D01*
X112964676Y-12776404D01*
X112917057Y-12776404D01*
X112821819Y-12728785D01*
X112774200Y-12681166D01*
X112726580Y-12585928D01*
X112726580Y-12395452D01*
X112774200Y-12300214D01*
X112821819Y-12252595D01*
X112917057Y-12204976D01*
X112964676Y-12204976D01*
X113059914Y-12252595D01*
X113107533Y-12300214D01*
X113155152Y-12395452D01*
X113155152Y-12585928D01*
X113202771Y-12681166D01*
X113250390Y-12728785D01*
X113345628Y-12776404D01*
X113536104Y-12776404D01*
X113631342Y-12728785D01*
X113678961Y-12681166D01*
X113726580Y-12585928D01*
X113726580Y-12395452D01*
X113678961Y-12300214D01*
X113631342Y-12252595D01*
X113536104Y-12204976D01*
X113345628Y-12204976D01*
X113250390Y-12252595D01*
X113202771Y-12300214D01*
X113155152Y-12395452D01*
X114496419Y-35071642D02*
X114448800Y-35166880D01*
X114353561Y-35262119D01*
X114210704Y-35404976D01*
X114163085Y-35500214D01*
X114163085Y-35595452D01*
X114401180Y-35547833D02*
X114353561Y-35643071D01*
X114258323Y-35738309D01*
X114067847Y-35785928D01*
X113734514Y-35785928D01*
X113544038Y-35738309D01*
X113448800Y-35643071D01*
X113401180Y-35547833D01*
X113401180Y-35357357D01*
X113448800Y-35262119D01*
X113544038Y-35166880D01*
X113734514Y-35119261D01*
X114067847Y-35119261D01*
X114258323Y-35166880D01*
X114353561Y-35262119D01*
X114401180Y-35357357D01*
X114401180Y-35547833D01*
X114401180Y-34690690D02*
X113401180Y-34690690D01*
X114401180Y-33452595D02*
X113401180Y-33452595D01*
X113401180Y-33071642D01*
X113448800Y-32976404D01*
X113496419Y-32928785D01*
X113591657Y-32881166D01*
X113734514Y-32881166D01*
X113829752Y-32928785D01*
X113877371Y-32976404D01*
X113924990Y-33071642D01*
X113924990Y-33452595D01*
X114401180Y-32309738D02*
X114353561Y-32404976D01*
X114258323Y-32452595D01*
X113401180Y-32452595D01*
X113734514Y-31500214D02*
X114401180Y-31500214D01*
X113734514Y-31928785D02*
X114258323Y-31928785D01*
X114353561Y-31881166D01*
X114401180Y-31785928D01*
X114401180Y-31643071D01*
X114353561Y-31547833D01*
X114305942Y-31500214D01*
X114353561Y-31071642D02*
X114401180Y-30976404D01*
X114401180Y-30785928D01*
X114353561Y-30690690D01*
X114258323Y-30643071D01*
X114210704Y-30643071D01*
X114115466Y-30690690D01*
X114067847Y-30785928D01*
X114067847Y-30928785D01*
X114020228Y-31024023D01*
X113924990Y-31071642D01*
X113877371Y-31071642D01*
X113782133Y-31024023D01*
X113734514Y-30928785D01*
X113734514Y-30785928D01*
X113782133Y-30690690D01*
X90096580Y-41922833D02*
X90810866Y-41922833D01*
X90953723Y-41970452D01*
X91048961Y-42065690D01*
X91096580Y-42208547D01*
X91096580Y-42303785D01*
X90096580Y-41541880D02*
X90096580Y-40875214D01*
X91096580Y-41303785D01*
D13*
X88096465Y-13945387D02*
X87521941Y-14347553D01*
X88096465Y-14634815D02*
X86889965Y-14634815D01*
X86889965Y-14175196D01*
X86947418Y-14060291D01*
X87004870Y-14002839D01*
X87119775Y-13945387D01*
X87292132Y-13945387D01*
X87407037Y-14002839D01*
X87464489Y-14060291D01*
X87521941Y-14175196D01*
X87521941Y-14634815D01*
X88096465Y-12796339D02*
X88096465Y-13485767D01*
X88096465Y-13141053D02*
X86889965Y-13141053D01*
X87062322Y-13255958D01*
X87177227Y-13370863D01*
X87234679Y-13485767D01*
X94240936Y-14689047D02*
X94470746Y-14689047D01*
X94585651Y-14631595D01*
X94643103Y-14574142D01*
X94758008Y-14401785D01*
X94815460Y-14171976D01*
X94815460Y-13712357D01*
X94758008Y-13597452D01*
X94700555Y-13540000D01*
X94585651Y-13482547D01*
X94355841Y-13482547D01*
X94240936Y-13540000D01*
X94183484Y-13597452D01*
X94126032Y-13712357D01*
X94126032Y-13999619D01*
X94183484Y-14114523D01*
X94240936Y-14171976D01*
X94355841Y-14229428D01*
X94585651Y-14229428D01*
X94700555Y-14171976D01*
X94758008Y-14114523D01*
X94815460Y-13999619D01*
X95332532Y-14689047D02*
X95332532Y-13482547D01*
X95447436Y-14229428D02*
X95792151Y-14689047D01*
X95792151Y-13884714D02*
X95332532Y-14344333D01*
D12*
X112994800Y-28573404D02*
X112947180Y-28668642D01*
X112947180Y-28811500D01*
X112994800Y-28954357D01*
X113090038Y-29049595D01*
X113185276Y-29097214D01*
X113375752Y-29144833D01*
X113518609Y-29144833D01*
X113709085Y-29097214D01*
X113804323Y-29049595D01*
X113899561Y-28954357D01*
X113947180Y-28811500D01*
X113947180Y-28716261D01*
X113899561Y-28573404D01*
X113851942Y-28525785D01*
X113518609Y-28525785D01*
X113518609Y-28716261D01*
X113423371Y-28097214D02*
X113423371Y-27763880D01*
X113947180Y-27621023D02*
X113947180Y-28097214D01*
X112947180Y-28097214D01*
X112947180Y-27621023D01*
X113947180Y-27192452D02*
X112947180Y-27192452D01*
X112994800Y-26192452D02*
X112947180Y-26287690D01*
X112947180Y-26430547D01*
X112994800Y-26573404D01*
X113090038Y-26668642D01*
X113185276Y-26716261D01*
X113375752Y-26763880D01*
X113518609Y-26763880D01*
X113709085Y-26716261D01*
X113804323Y-26668642D01*
X113899561Y-26573404D01*
X113947180Y-26430547D01*
X113947180Y-26335309D01*
X113899561Y-26192452D01*
X113851942Y-26144833D01*
X113518609Y-26144833D01*
X113518609Y-26335309D01*
X113423371Y-25716261D02*
X113423371Y-25382928D01*
X113947180Y-25240071D02*
X113947180Y-25716261D01*
X112947180Y-25716261D01*
X112947180Y-25240071D01*
X113947180Y-24240071D02*
X113470990Y-24573404D01*
X113947180Y-24811500D02*
X112947180Y-24811500D01*
X112947180Y-24430547D01*
X112994800Y-24335309D01*
X113042419Y-24287690D01*
X113137657Y-24240071D01*
X113280514Y-24240071D01*
X113375752Y-24287690D01*
X113423371Y-24335309D01*
X113470990Y-24430547D01*
X113470990Y-24811500D01*
X72586580Y-26482595D02*
X71586580Y-26482595D01*
X71586580Y-26244500D01*
X71634200Y-26101642D01*
X71729438Y-26006404D01*
X71824676Y-25958785D01*
X72015152Y-25911166D01*
X72158009Y-25911166D01*
X72348485Y-25958785D01*
X72443723Y-26006404D01*
X72538961Y-26101642D01*
X72586580Y-26244500D01*
X72586580Y-26482595D01*
X71681819Y-25530214D02*
X71634200Y-25482595D01*
X71586580Y-25387357D01*
X71586580Y-25149261D01*
X71634200Y-25054023D01*
X71681819Y-25006404D01*
X71777057Y-24958785D01*
X71872295Y-24958785D01*
X72015152Y-25006404D01*
X72586580Y-25577833D01*
X72586580Y-24958785D01*
X73306580Y-33626404D02*
X72306580Y-33626404D01*
X73306580Y-33054976D02*
X72735152Y-33483547D01*
X72306580Y-33054976D02*
X72878009Y-33626404D01*
X67436580Y-26482595D02*
X66436580Y-26482595D01*
X66436580Y-26244500D01*
X66484200Y-26101642D01*
X66579438Y-26006404D01*
X66674676Y-25958785D01*
X66865152Y-25911166D01*
X67008009Y-25911166D01*
X67198485Y-25958785D01*
X67293723Y-26006404D01*
X67388961Y-26101642D01*
X67436580Y-26244500D01*
X67436580Y-26482595D01*
X67436580Y-24958785D02*
X67436580Y-25530214D01*
X67436580Y-25244500D02*
X66436580Y-25244500D01*
X66579438Y-25339738D01*
X66674676Y-25434976D01*
X66722295Y-25530214D01*
X68156580Y-33626404D02*
X67156580Y-33626404D01*
X68156580Y-33054976D02*
X67585152Y-33483547D01*
X67156580Y-33054976D02*
X67728009Y-33626404D01*
X108577295Y-23521900D02*
X108482057Y-23474280D01*
X108339200Y-23474280D01*
X108196342Y-23521900D01*
X108101104Y-23617138D01*
X108053485Y-23712376D01*
X108005866Y-23902852D01*
X108005866Y-24045709D01*
X108053485Y-24236185D01*
X108101104Y-24331423D01*
X108196342Y-24426661D01*
X108339200Y-24474280D01*
X108434438Y-24474280D01*
X108577295Y-24426661D01*
X108624914Y-24379042D01*
X108624914Y-24045709D01*
X108434438Y-24045709D01*
X109053485Y-23950471D02*
X109386819Y-23950471D01*
X109529676Y-24474280D02*
X109053485Y-24474280D01*
X109053485Y-23474280D01*
X109529676Y-23474280D01*
X109958247Y-24474280D02*
X109958247Y-23474280D01*
X110958247Y-23521900D02*
X110863009Y-23474280D01*
X110720152Y-23474280D01*
X110577295Y-23521900D01*
X110482057Y-23617138D01*
X110434438Y-23712376D01*
X110386819Y-23902852D01*
X110386819Y-24045709D01*
X110434438Y-24236185D01*
X110482057Y-24331423D01*
X110577295Y-24426661D01*
X110720152Y-24474280D01*
X110815390Y-24474280D01*
X110958247Y-24426661D01*
X111005866Y-24379042D01*
X111005866Y-24045709D01*
X110815390Y-24045709D01*
X111434438Y-23950471D02*
X111767771Y-23950471D01*
X111910628Y-24474280D02*
X111434438Y-24474280D01*
X111434438Y-23474280D01*
X111910628Y-23474280D01*
X112910628Y-24474280D02*
X112577295Y-23998090D01*
X112339200Y-24474280D02*
X112339200Y-23474280D01*
X112720152Y-23474280D01*
X112815390Y-23521900D01*
X112863009Y-23569519D01*
X112910628Y-23664757D01*
X112910628Y-23807614D01*
X112863009Y-23902852D01*
X112815390Y-23950471D01*
X112720152Y-23998090D01*
X112339200Y-23998090D01*
G36*
X-688694Y-17356741D02*
G01*
X-677676Y-17943967D01*
X2465336Y-17943967D01*
X2465336Y-18136391D01*
X2460257Y-18254330D01*
X2447356Y-18336463D01*
X2438795Y-18355357D01*
X2394382Y-18361240D01*
X2279095Y-18366670D01*
X2101685Y-18371500D01*
X1870902Y-18375582D01*
X1595496Y-18378768D01*
X1284216Y-18380911D01*
X945813Y-18381863D01*
X866224Y-18381898D01*
X-679805Y-18381898D01*
X-679805Y-19536444D01*
X-1078956Y-19536444D01*
X-1058018Y-16769516D01*
X-699711Y-16769516D01*
X-688694Y-17356741D01*
G37*
G36*
X1951872Y-27965563D02*
G01*
X1986571Y-27995550D01*
X2098474Y-28122171D01*
X2217533Y-28297576D01*
X2327474Y-28494453D01*
X2412025Y-28685486D01*
X2431506Y-28742348D01*
X2480544Y-28970516D01*
X2502796Y-29233716D01*
X2498207Y-29501596D01*
X2466722Y-29743801D01*
X2433536Y-29868155D01*
X2274010Y-30218869D01*
X2059624Y-30513553D01*
X1794750Y-30749384D01*
X1483764Y-30923539D01*
X1131039Y-31033197D01*
X740951Y-31075533D01*
X566985Y-31072558D01*
X370357Y-31058032D01*
X219203Y-31033020D01*
X79401Y-30989209D01*
X-83168Y-30918287D01*
X-101072Y-30909821D01*
X-429703Y-30712295D01*
X-701817Y-30459610D01*
X-914695Y-30154435D01*
X-960596Y-30065599D01*
X-1023007Y-29929061D01*
X-1063615Y-29813285D01*
X-1088027Y-29692042D01*
X-1101851Y-29539100D01*
X-1109275Y-29369986D01*
X-1105410Y-29046867D01*
X-1065011Y-28774092D01*
X-982203Y-28528519D01*
X-851115Y-28287009D01*
X-823713Y-28244852D01*
X-718136Y-28090134D01*
X-641357Y-27997094D01*
X-579940Y-27959911D01*
X-520450Y-27972763D01*
X-449453Y-28029827D01*
X-412076Y-28066472D01*
X-268608Y-28209940D01*
X-400510Y-28360168D01*
X-577706Y-28607576D01*
X-687252Y-28875533D01*
X-735107Y-29180450D01*
X-738372Y-29290362D01*
X-734499Y-29479034D01*
X-717581Y-29619394D01*
X-681946Y-29742413D01*
X-635968Y-29849546D01*
X-485975Y-30109250D01*
X-301937Y-30309422D01*
X-66894Y-30468300D01*
X-54170Y-30475130D01*
X254932Y-30600266D01*
X573491Y-30658171D01*
X890158Y-30651958D01*
X1193579Y-30584739D01*
X1472403Y-30459623D01*
X1715278Y-30279724D01*
X1910853Y-30048152D01*
X1986445Y-29915813D01*
X2102398Y-29598476D01*
X2138930Y-29279820D01*
X2096206Y-28960943D01*
X1974394Y-28642947D01*
X1773659Y-28326933D01*
X1740378Y-28284302D01*
X1652342Y-28174009D01*
X1778572Y-28047780D01*
X1858256Y-27971900D01*
X1907589Y-27946612D01*
X1951872Y-27965563D01*
G37*
G36*
X2465336Y-34545535D02*
G01*
X-1077924Y-34545535D01*
X-1077924Y-31997572D01*
X-720918Y-31997572D01*
X-710314Y-33062541D01*
X-699711Y-34127510D01*
X-113196Y-34138523D01*
X473320Y-34149536D01*
X494646Y-32216538D01*
X852954Y-32216538D01*
X874280Y-34149482D01*
X1480701Y-34138496D01*
X2087123Y-34127510D01*
X2097716Y-33042635D01*
X2108308Y-31957760D01*
X2465336Y-31957760D01*
X2465336Y-34545535D01*
G37*
G36*
X689262Y-41914388D02*
G01*
X379928Y-41773190D01*
X79179Y-41635638D01*
X-204323Y-41505681D01*
X-461919Y-41387271D01*
X-684947Y-41284359D01*
X-864746Y-41200896D01*
X-992656Y-41140832D01*
X-1060017Y-41108118D01*
X-1067971Y-41103653D01*
X-1103053Y-41035626D01*
X-1116246Y-40927386D01*
X-1115595Y-40918990D01*
X-618326Y-40918990D01*
X137220Y-41258581D01*
X372874Y-41364337D01*
X591458Y-41462128D01*
X779749Y-41546063D01*
X924523Y-41610250D01*
X1012557Y-41648796D01*
X1022154Y-41652894D01*
X1151543Y-41707616D01*
X1151543Y-40933315D01*
X1149975Y-40694849D01*
X1145604Y-40486162D01*
X1138932Y-40319338D01*
X1130461Y-40206464D01*
X1120692Y-40159624D01*
X1119414Y-40159014D01*
X1074362Y-40174534D01*
X968939Y-40217632D01*
X815343Y-40283114D01*
X625769Y-40365788D01*
X432658Y-40451413D01*
X205473Y-40552836D01*
X-11406Y-40649563D01*
X-201395Y-40734205D01*
X-347914Y-40799374D01*
X-420147Y-40831400D01*
X-618326Y-40918990D01*
X-1115595Y-40918990D01*
X-1107550Y-40815274D01*
X-1076965Y-40735634D01*
X-1067971Y-40726601D01*
X-1026098Y-40705267D01*
X-920365Y-40655057D01*
X-759449Y-40579932D01*
X-552027Y-40483857D01*
X-306775Y-40370794D01*
X-32370Y-40244706D01*
X262513Y-40109556D01*
X569195Y-39969308D01*
X879001Y-39827923D01*
X1183254Y-39689366D01*
X1473278Y-39557599D01*
X1740395Y-39436585D01*
X1975930Y-39330288D01*
X2171205Y-39242669D01*
X2317545Y-39177693D01*
X2406272Y-39139322D01*
X2415571Y-39135500D01*
X2445894Y-39147386D01*
X2461625Y-39220558D01*
X2465336Y-39334370D01*
X2465336Y-39553354D01*
X1986899Y-39762834D01*
X1508463Y-39972314D01*
X1519109Y-40925351D01*
X1529756Y-41878387D01*
X2445430Y-42290847D01*
X2457604Y-42502970D01*
X2458309Y-42617487D01*
X2447267Y-42688519D01*
X2433737Y-42701082D01*
X2367503Y-42672956D01*
X2240568Y-42616868D01*
X2061595Y-42536769D01*
X1839243Y-42436610D01*
X1582173Y-42320341D01*
X1299045Y-42191914D01*
X1151543Y-42124851D01*
X998522Y-42055279D01*
X689262Y-41914388D01*
G37*
G36*
X1627049Y-43311702D02*
G01*
X1872073Y-43366070D01*
X2083076Y-43486051D01*
X2256114Y-43663530D01*
X2387244Y-43890397D01*
X2472526Y-44158540D01*
X2508016Y-44459845D01*
X2489771Y-44786203D01*
X2448623Y-45002218D01*
X2366176Y-45255356D01*
X2247890Y-45505665D01*
X2109986Y-45720686D01*
X2057995Y-45783951D01*
X1927875Y-45929801D01*
X1654325Y-45694645D01*
X1782873Y-45515646D01*
X1950524Y-45251811D01*
X2057571Y-45003294D01*
X2112499Y-44745827D01*
X2124561Y-44538325D01*
X2120513Y-44340993D01*
X2102504Y-44197537D01*
X2066632Y-44082850D01*
X2047311Y-44041201D01*
X1926247Y-43871231D01*
X1770686Y-43757424D01*
X1596077Y-43703889D01*
X1417865Y-43714732D01*
X1251499Y-43794063D01*
X1218414Y-43820770D01*
X1127415Y-43919244D01*
X1050752Y-44048225D01*
X981707Y-44222528D01*
X913562Y-44456966D01*
X893007Y-44538325D01*
X791361Y-44905753D01*
X683180Y-45199776D01*
X563312Y-45426599D01*
X426608Y-45592428D01*
X267917Y-45703470D01*
X82092Y-45765930D01*
X-136020Y-45786014D01*
X-142344Y-45786027D01*
X-411450Y-45750980D01*
X-642753Y-45645862D01*
X-836200Y-45470711D01*
X-991740Y-45225561D01*
X-1006119Y-45195221D01*
X-1061855Y-45015503D01*
X-1094242Y-44785904D01*
X-1102822Y-44532805D01*
X-1087140Y-44282589D01*
X-1046738Y-44061636D01*
X-1026877Y-43996683D01*
X-964474Y-43844386D01*
X-887343Y-43693676D01*
X-806350Y-43561999D01*
X-732364Y-43466797D01*
X-676252Y-43425516D01*
X-670729Y-43425023D01*
X-608903Y-43449541D01*
X-520538Y-43508298D01*
X-500932Y-43523808D01*
X-425630Y-43589738D01*
X-404914Y-43637001D01*
X-431584Y-43697155D01*
X-453577Y-43731389D01*
X-598817Y-43982416D01*
X-688433Y-44212922D01*
X-731095Y-44449354D01*
X-737733Y-44598042D01*
X-716359Y-44879707D01*
X-648275Y-45097290D01*
X-532833Y-45251659D01*
X-369385Y-45343682D01*
X-157666Y-45374226D01*
X-22528Y-45361639D01*
X90626Y-45318175D01*
X187425Y-45235642D01*
X273500Y-45105844D01*
X354480Y-44920588D01*
X435995Y-44671680D01*
X510484Y-44401738D01*
X594442Y-44109419D01*
X678801Y-43881744D01*
X770810Y-43704025D01*
X877720Y-43561577D01*
X970016Y-43470827D01*
X1109343Y-43375140D01*
X1270937Y-43321589D01*
X1474608Y-43305375D01*
X1627049Y-43311702D01*
G37*
G36*
X1775141Y-20448475D02*
G01*
X2016769Y-20554970D01*
X2218555Y-20728772D01*
X2376075Y-20966860D01*
X2406235Y-21031920D01*
X2455706Y-21204128D01*
X2484603Y-21427309D01*
X2492272Y-21675345D01*
X2478060Y-21922119D01*
X2441312Y-22141512D01*
X2434683Y-22167262D01*
X2367575Y-22361081D01*
X2272584Y-22566631D01*
X2163536Y-22758246D01*
X2054258Y-22910262D01*
X2007685Y-22959857D01*
X1955032Y-23003202D01*
X1910389Y-23007362D01*
X1847042Y-22967723D01*
X1790610Y-22922359D01*
X1707665Y-22850675D01*
X1678621Y-22803072D01*
X1694969Y-22754189D01*
X1721363Y-22715993D01*
X1889049Y-22468674D01*
X2005782Y-22254668D01*
X2079223Y-22053397D01*
X2117033Y-21844282D01*
X2126935Y-21626569D01*
X2108359Y-21360717D01*
X2049436Y-21154400D01*
X1945375Y-20995908D01*
X1828345Y-20896979D01*
X1714169Y-20835804D01*
X1596466Y-20816300D01*
X1498598Y-20821064D01*
X1352757Y-20849600D01*
X1232812Y-20911210D01*
X1132592Y-21014836D01*
X1045927Y-21169420D01*
X966649Y-21383905D01*
X888588Y-21667234D01*
X874223Y-21726099D01*
X773394Y-22083350D01*
X658267Y-22367764D01*
X524479Y-22585505D01*
X367666Y-22742736D01*
X183465Y-22845622D01*
X54118Y-22884706D01*
X-206869Y-22906414D01*
X-448776Y-22856016D01*
X-664135Y-22740176D01*
X-845476Y-22565562D01*
X-985331Y-22338839D01*
X-1076230Y-22066672D01*
X-1107028Y-21848427D01*
X-1100277Y-21469520D01*
X-1023558Y-21117716D01*
X-914959Y-20855375D01*
X-828958Y-20692274D01*
X-761059Y-20594732D01*
X-698792Y-20554784D01*
X-629686Y-20564469D01*
X-541272Y-20615822D01*
X-540566Y-20616303D01*
X-454723Y-20680104D01*
X-405746Y-20726849D01*
X-401394Y-20735931D01*
X-420341Y-20780342D01*
X-470201Y-20872318D01*
X-537875Y-20988067D01*
X-669383Y-21261369D01*
X-741875Y-21537969D01*
X-755417Y-21805202D01*
X-710076Y-22050402D01*
X-605919Y-22260904D01*
X-530707Y-22350286D01*
X-440300Y-22430270D01*
X-354942Y-22469550D01*
X-238577Y-22481965D01*
X-186198Y-22482525D01*
X-34361Y-22468712D01*
X90847Y-22421692D01*
X195688Y-22333094D01*
X286426Y-22194546D01*
X369320Y-21997676D01*
X450634Y-21734113D01*
X492552Y-21575112D01*
X571203Y-21287506D01*
X646760Y-21064037D01*
X725514Y-20889776D01*
X813758Y-20749790D01*
X869177Y-20681360D01*
X1039423Y-20529739D01*
X1234791Y-20442727D01*
X1473552Y-20412507D01*
X1498097Y-20412306D01*
X1775141Y-20448475D01*
G37*
G36*
X-1396419Y-10897259D02*
G01*
X2783831Y-10897259D01*
X2783831Y-15196945D01*
X-1396419Y-15196945D01*
X-1396419Y-14245975D01*
X-53027Y-14245975D01*
X159334Y-14233764D01*
X371694Y-14221553D01*
X560994Y-13890986D01*
X1580333Y-13890986D01*
X1613997Y-14034426D01*
X1699983Y-14147164D01*
X1824977Y-14215641D01*
X1975668Y-14226300D01*
X2072776Y-14199345D01*
X2190081Y-14112218D01*
X2267449Y-13980430D01*
X2288567Y-13834550D01*
X2284029Y-13803528D01*
X2239666Y-13706517D01*
X2163028Y-13614422D01*
X2025065Y-13537047D01*
X1876647Y-13526297D01*
X1739274Y-13577645D01*
X1634449Y-13686563D01*
X1612303Y-13730401D01*
X1580333Y-13890986D01*
X560994Y-13890986D01*
X656674Y-13723905D01*
X778375Y-13519716D01*
X887050Y-13353394D01*
X975120Y-13235841D01*
X1035010Y-13177963D01*
X1036645Y-13177078D01*
X1128387Y-13153588D01*
X1297597Y-13137462D01*
X1542448Y-13128833D01*
X1721152Y-13127313D01*
X2310667Y-13126726D01*
X2298424Y-12957525D01*
X2286182Y-12788325D01*
X1640308Y-12777391D01*
X1360745Y-12773096D01*
X1146957Y-12775650D01*
X985096Y-12792108D01*
X861315Y-12829525D01*
X761764Y-12894955D01*
X672597Y-12995454D01*
X579964Y-13138076D01*
X470018Y-13329876D01*
X435463Y-13391195D01*
X323577Y-13589107D01*
X216781Y-13777342D01*
X125387Y-13937770D01*
X59708Y-14052261D01*
X46806Y-14074516D01*
X-53027Y-14245975D01*
X-1396419Y-14245975D01*
X-1396419Y-14223443D01*
X-1038112Y-14223443D01*
X-1001818Y-14232747D01*
X-906689Y-14236289D01*
X-774017Y-14233325D01*
X-509922Y-14221553D01*
X-22181Y-13369455D01*
X141416Y-13088332D01*
X284635Y-12851673D01*
X403498Y-12665661D01*
X494023Y-12536481D01*
X552233Y-12470316D01*
X559727Y-12465144D01*
X620406Y-12445685D01*
X728141Y-12431061D01*
X890657Y-12420823D01*
X1115680Y-12414523D01*
X1410938Y-12411711D01*
X1481978Y-12411522D01*
X2310062Y-12410111D01*
X2298122Y-12181193D01*
X2286182Y-11952274D01*
X1328841Y-11952274D01*
X1022412Y-11952857D01*
X785296Y-11955050D01*
X607192Y-11959520D01*
X477794Y-11966937D01*
X386799Y-11977967D01*
X323904Y-11993278D01*
X278804Y-12013538D01*
X266530Y-12021122D01*
X212723Y-12079340D01*
X124513Y-12204533D01*
X4206Y-12393020D01*
X-145891Y-12641117D01*
X-323471Y-12945145D01*
X-438276Y-13145879D01*
X-587592Y-13409406D01*
X-723345Y-13650313D01*
X-840746Y-13859991D01*
X-935002Y-14029832D01*
X-1001321Y-14151228D01*
X-1034912Y-14215573D01*
X-1038112Y-14223443D01*
X-1396419Y-14223443D01*
X-1396419Y-10897259D01*
G37*
G36*
X636544Y-26526500D02*
G01*
X328360Y-26385702D01*
X30105Y-26249121D01*
X-249540Y-26120719D01*
X-501893Y-26004459D01*
X-718276Y-25904303D01*
X-890006Y-25824213D01*
X-1008405Y-25768151D01*
X-1064790Y-25740081D01*
X-1067971Y-25738088D01*
X-1103017Y-25668917D01*
X-1116237Y-25560368D01*
X-1114891Y-25542875D01*
X-568349Y-25542875D01*
X-541664Y-25565340D01*
X-451680Y-25614778D01*
X-308119Y-25686419D01*
X-120706Y-25775495D01*
X100836Y-25877238D01*
X247795Y-25943134D01*
X489030Y-26050443D01*
X705962Y-26147105D01*
X887993Y-26228385D01*
X1024526Y-26289546D01*
X1104963Y-26325855D01*
X1121684Y-26333632D01*
X1130836Y-26300695D01*
X1138854Y-26199874D01*
X1145278Y-26042905D01*
X1149650Y-25841524D01*
X1151509Y-25607469D01*
X1151543Y-25570298D01*
X1150356Y-25331120D01*
X1147049Y-25121687D01*
X1142000Y-24954051D01*
X1135586Y-24840263D01*
X1128186Y-24792376D01*
X1127103Y-24791616D01*
X1083857Y-24807103D01*
X980720Y-24849830D01*
X830339Y-24914192D01*
X645357Y-24994588D01*
X438420Y-25085413D01*
X222172Y-25181066D01*
X9259Y-25275943D01*
X-187673Y-25364440D01*
X-355982Y-25440956D01*
X-483020Y-25499886D01*
X-556144Y-25535629D01*
X-568349Y-25542875D01*
X-1114891Y-25542875D01*
X-1107630Y-25448548D01*
X-1077198Y-25369564D01*
X-1067971Y-25360481D01*
X-1022530Y-25336881D01*
X-911775Y-25284134D01*
X-743074Y-25205617D01*
X-523790Y-25104707D01*
X-261291Y-24984780D01*
X37059Y-24849214D01*
X363894Y-24701385D01*
X693706Y-24552825D01*
X1039895Y-24397141D01*
X1363978Y-24251293D01*
X1658698Y-24118554D01*
X1916794Y-24002200D01*
X2131009Y-23905505D01*
X2294084Y-23831742D01*
X2398759Y-23784186D01*
X2437573Y-23766225D01*
X2452827Y-23792490D01*
X2459517Y-23877995D01*
X2457479Y-23974266D01*
X2445430Y-24199314D01*
X2015126Y-24390299D01*
X1842912Y-24468455D01*
X1696632Y-24538059D01*
X1592280Y-24591286D01*
X1546585Y-24619521D01*
X1534832Y-24671025D01*
X1525889Y-24793913D01*
X1519990Y-24979983D01*
X1517368Y-25221035D01*
X1518256Y-25508872D01*
X1519052Y-25586956D01*
X1529756Y-26516154D01*
X2445430Y-26925092D01*
X2457641Y-27137461D01*
X2460282Y-27263145D01*
X2447728Y-27322803D01*
X2417829Y-27329217D01*
X2342706Y-27297327D01*
X2208067Y-27237955D01*
X2022595Y-27155063D01*
X1794970Y-27052615D01*
X1533871Y-26934573D01*
X1247981Y-26804897D01*
X1121684Y-26747460D01*
X945978Y-26667552D01*
X636544Y-26526500D01*
G37*
G36*
X-679805Y-37810111D02*
G01*
X554364Y-37810111D01*
X554364Y-35899140D01*
X912671Y-35899140D01*
X912671Y-37810111D01*
X2465336Y-37810111D01*
X2465336Y-38208231D01*
X-1077924Y-38208231D01*
X-1077924Y-35700080D01*
X-679805Y-35700080D01*
X-679805Y-37810111D01*
G37*
D15*
X93056200Y-11444500D02*
X92929200Y-11571500D01*
X92294200Y-11317500D02*
X92294200Y-9539500D01*
X98390200Y-11571500D02*
X98009200Y-11571500D01*
X98644200Y-11317500D02*
X98644200Y-9539500D01*
X97882200Y-9412500D02*
X98009200Y-9285500D01*
X97882200Y-11444500D02*
X93056200Y-11444500D01*
X92548200Y-9285500D02*
X92929200Y-9285500D01*
X97882200Y-11444500D02*
X98009200Y-11571500D01*
X93056200Y-9412500D02*
X92929200Y-9285500D01*
X92548200Y-11571500D02*
X92929200Y-11571500D01*
X97882200Y-9412500D02*
X93056200Y-9412500D01*
X98390200Y-9285500D02*
X98009200Y-9285500D01*
X98644200Y-11317500D02*
G75*
G02*
X98390200Y-11571500I-254000J0D01*
G01*
X98644200Y-9539500D02*
G75*
G03*
X98390200Y-9285500I-254000J0D01*
G01*
X92548200Y-11571500D02*
G75*
G02*
X92294200Y-11317500I0J254000D01*
G01*
X92548200Y-9285500D02*
G75*
G03*
X92294200Y-9539500I0J-254000D01*
G01*
G36*
X99507800Y-10733300D02*
G01*
X98644200Y-10733300D01*
X98644200Y-10123700D01*
X99507800Y-10123700D01*
X99507800Y-10733300D01*
G37*
G36*
X92294200Y-10733300D02*
G01*
X91430600Y-10733300D01*
X91430600Y-10123700D01*
X92294200Y-10123700D01*
X92294200Y-10733300D01*
G37*
D16*
X32889200Y-42089500D02*
X31869200Y-42089500D01*
X32889200Y-47289500D02*
X31869200Y-47289500D01*
X17649200Y-42089500D02*
X16629200Y-42089500D01*
X37969200Y-47289500D02*
X36949200Y-47289500D01*
X45589200Y-47289500D02*
X44569200Y-47289500D01*
X50669200Y-47289500D02*
X49649200Y-47289500D01*
X15109200Y-47289500D02*
X14539200Y-47289500D01*
X14539200Y-42089500D02*
X14539200Y-47289500D01*
X52759200Y-42089500D02*
X52759200Y-47289500D01*
X43049200Y-42089500D02*
X42029200Y-42089500D01*
X45589200Y-42089500D02*
X44569200Y-42089500D01*
X30349200Y-42089500D02*
X29329200Y-42089500D01*
X50669200Y-42089500D02*
X49649200Y-42089500D01*
X25269200Y-42089500D02*
X24249200Y-42089500D01*
X52189200Y-40649500D02*
X52189200Y-42089500D01*
X37969200Y-42089500D02*
X36949200Y-42089500D01*
X25269200Y-47289500D02*
X24249200Y-47289500D01*
X35429200Y-47289500D02*
X34409200Y-47289500D01*
X40509200Y-47289500D02*
X39489200Y-47289500D01*
X20189200Y-47289500D02*
X19169200Y-47289500D01*
X27809200Y-42089500D02*
X26789200Y-42089500D01*
X22729200Y-47289500D02*
X21709200Y-47289500D01*
X48129200Y-42089500D02*
X47109200Y-42089500D01*
X52759200Y-47289500D02*
X52189200Y-47289500D01*
X52759200Y-42089500D02*
X52189200Y-42089500D01*
X30349200Y-47289500D02*
X29329200Y-47289500D01*
X43049200Y-47289500D02*
X42029200Y-47289500D01*
X35429200Y-42089500D02*
X34409200Y-42089500D01*
X48129200Y-47289500D02*
X47109200Y-47289500D01*
X22729200Y-42089500D02*
X21709200Y-42089500D01*
X27809200Y-47289500D02*
X26789200Y-47289500D01*
X20189200Y-42089500D02*
X19169200Y-42089500D01*
X17649200Y-47289500D02*
X16629200Y-47289500D01*
X40509200Y-42089500D02*
X39489200Y-42089500D01*
X15109200Y-42089500D02*
X14539200Y-42089500D01*
X119599200Y-32339500D02*
X120929200Y-32339500D01*
X118329200Y-32339500D02*
X118329200Y-34999500D01*
X120929200Y-32339500D02*
X120929200Y-33669500D01*
X118329200Y-34999500D02*
X115729200Y-34999500D01*
X118329200Y-32339500D02*
X115729200Y-32339500D01*
X115729200Y-32339500D02*
X115729200Y-34999500D01*
X64229200Y-20234500D02*
X64229200Y-21564500D01*
X61569200Y-30514500D02*
X64229200Y-30514500D01*
X61569200Y-22834500D02*
X64229200Y-22834500D01*
X61569200Y-22834500D02*
X61569200Y-30514500D01*
X64229200Y-22834500D02*
X64229200Y-30514500D01*
X62899200Y-20234500D02*
X64229200Y-20234500D01*
D17*
X99810200Y-7132500D02*
X99810200Y-6032500D01*
X86810200Y-1532500D02*
X86810200Y-2632500D01*
X90310200Y-1532500D02*
X91560200Y-1532500D01*
X91560200Y-1532500D02*
X95060200Y-1532500D01*
X96310200Y-2732500D02*
X90310200Y-2732500D01*
X99810200Y-1532500D02*
X99810200Y-2632500D01*
X99810200Y-7132500D02*
X94310200Y-7132500D01*
X92310200Y-6132500D02*
X92310200Y-7132500D01*
X95060200Y-1532500D02*
X95060200Y1467500D01*
X94310200Y-7132500D02*
X94310200Y-6132500D01*
X92310200Y-7132500D02*
X86810200Y-7132500D01*
X96310200Y-1532500D02*
X96310200Y-2732500D01*
X91560200Y1467500D02*
X91560200Y-1532500D01*
X95060200Y1467500D02*
X91560200Y1467500D01*
X86810200Y-7132500D02*
X86810200Y-6032500D01*
X96310200Y-1532500D02*
X99810200Y-1532500D01*
X94310200Y-7132500D02*
X92310200Y-7132500D01*
X95060200Y-1532500D02*
X96310200Y-1532500D01*
X86810200Y-1532500D02*
X90310200Y-1532500D01*
X90310200Y-2732500D02*
X90310200Y-1532500D01*
X94310200Y-6132500D02*
X92310200Y-6132500D01*
D18*
X108419000Y-10951500D02*
X108419000Y-9427500D01*
D15*
X107098200Y-9046500D02*
X110400200Y-9046500D01*
D18*
X109054000Y-10951500D02*
X109054000Y-9427500D01*
D15*
X106590200Y-9554500D02*
X106590200Y-10824500D01*
X107098200Y-11332500D02*
X110400200Y-11332500D01*
X110908200Y-9554500D02*
X110908200Y-10824500D01*
X110400200Y-9046500D02*
G75*
G02*
X110908200Y-9554500I0J-508000D01*
G01*
X110400200Y-11332500D02*
G75*
G03*
X110908200Y-10824500I0J508000D01*
G01*
X106590200Y-9554500D02*
G75*
G02*
X107098200Y-9046500I508000J0D01*
G01*
X106590200Y-10824500D02*
G75*
G03*
X107098200Y-11332500I508000J0D01*
G01*
D16*
X115729200Y-17353500D02*
X115729200Y-20013500D01*
X119599200Y-17353500D02*
X120929200Y-17353500D01*
X118329200Y-20013500D02*
X115729200Y-20013500D01*
X120929200Y-17353500D02*
X120929200Y-18683500D01*
X118329200Y-17353500D02*
X115729200Y-17353500D01*
X118329200Y-17353500D02*
X118329200Y-20013500D01*
X92974200Y-42919500D02*
X91644200Y-42919500D01*
X91644200Y-42919500D02*
X91644200Y-41589500D01*
X94244200Y-42919500D02*
X117164200Y-42919500D01*
X117164200Y-42919500D02*
X117164200Y-40259500D01*
X94244200Y-42919500D02*
X94244200Y-40259500D01*
X94244200Y-40259500D02*
X117164200Y-40259500D01*
D15*
X92548200Y-15381500D02*
X92929200Y-15381500D01*
X93056200Y-13222500D02*
X92929200Y-13095500D01*
X97882200Y-13222500D02*
X98009200Y-13095500D01*
X98390200Y-13095500D02*
X98009200Y-13095500D01*
X92548200Y-13095500D02*
X92929200Y-13095500D01*
X98644200Y-13349500D02*
X98644200Y-15127500D01*
X93056200Y-13222500D02*
X97882200Y-13222500D01*
X97882200Y-15254500D02*
X98009200Y-15381500D01*
X93056200Y-15254500D02*
X97882200Y-15254500D01*
X92294200Y-13349500D02*
X92294200Y-15127500D01*
X98390200Y-15381500D02*
X98009200Y-15381500D01*
X93056200Y-15254500D02*
X92929200Y-15381500D01*
X92294200Y-13349500D02*
G75*
G02*
X92548200Y-13095500I254000J0D01*
G01*
X92294200Y-15127500D02*
G75*
G03*
X92548200Y-15381500I254000J0D01*
G01*
X98390200Y-15381500D02*
G75*
G03*
X98644200Y-15127500I0J254000D01*
G01*
X98390200Y-13095500D02*
G75*
G02*
X98644200Y-13349500I0J-254000D01*
G01*
G36*
X99507800Y-14543300D02*
G01*
X98644200Y-14543300D01*
X98644200Y-13933700D01*
X99507800Y-13933700D01*
X99507800Y-14543300D01*
G37*
G36*
X92294200Y-14543300D02*
G01*
X91430600Y-14543300D01*
X91430600Y-13933700D01*
X92294200Y-13933700D01*
X92294200Y-14543300D01*
G37*
D16*
X115344200Y-24784500D02*
X118004200Y-24784500D01*
X115344200Y-22184500D02*
X116674200Y-22184500D01*
X118004200Y-24784500D02*
X118004200Y-29924500D01*
X115344200Y-23514500D02*
X115344200Y-22184500D01*
X115344200Y-29924500D02*
X118004200Y-29924500D01*
X115344200Y-24784500D02*
X115344200Y-29924500D01*
X73134200Y-28404500D02*
X76974200Y-28404500D01*
X75054200Y-31924500D02*
X75054200Y-29664500D01*
X76974200Y-21824500D02*
X73134200Y-21824500D01*
X73134200Y-28524500D02*
X76974200Y-28524500D01*
X73134200Y-21824500D02*
X73134200Y-29664500D01*
X73134200Y-29664500D02*
X76974200Y-29664500D01*
X75054200Y-19564500D02*
X75054200Y-21824500D01*
X73134200Y-28284500D02*
X76974200Y-28284500D01*
X76974200Y-29664500D02*
X76974200Y-21824500D01*
X93310200Y-20013500D02*
X90710200Y-20013500D01*
X93310200Y-17353500D02*
X90710200Y-17353500D01*
X90710200Y-17353500D02*
X90710200Y-20013500D01*
X93310200Y-17353500D02*
X93310200Y-20013500D01*
X94580200Y-17353500D02*
X95910200Y-17353500D01*
X95910200Y-17353500D02*
X95910200Y-18683500D01*
X95910200Y-32339500D02*
X95910200Y-33669500D01*
X93310200Y-34999500D02*
X90710200Y-34999500D01*
X94580200Y-32339500D02*
X95910200Y-32339500D01*
X93310200Y-32339500D02*
X90710200Y-32339500D01*
X90710200Y-32339500D02*
X90710200Y-34999500D01*
X93310200Y-32339500D02*
X93310200Y-34999500D01*
X67984200Y-29664500D02*
X71824200Y-29664500D01*
X67984200Y-28284500D02*
X71824200Y-28284500D01*
X67984200Y-28404500D02*
X71824200Y-28404500D01*
X69904200Y-31924500D02*
X69904200Y-29664500D01*
X67984200Y-21824500D02*
X67984200Y-29664500D01*
X67984200Y-28524500D02*
X71824200Y-28524500D01*
X71824200Y-21824500D02*
X67984200Y-21824500D01*
X69904200Y-19564500D02*
X69904200Y-21824500D01*
X71824200Y-29664500D02*
X71824200Y-21824500D01*
X109312200Y-22172500D02*
X109312200Y-19512500D01*
X114452200Y-22172500D02*
X114452200Y-19512500D01*
X109312200Y-19512500D02*
X114452200Y-19512500D01*
X106712200Y-22172500D02*
X106712200Y-20842500D01*
X109312200Y-22172500D02*
X114452200Y-22172500D01*
X108042200Y-22172500D02*
X106712200Y-22172500D01*
M02*
