G04 #@! TF.GenerationSoftware,KiCad,Pcbnew,5.99.0-unknown-da005bd2a6~101~ubuntu20.04.1*
G04 #@! TF.CreationDate,2021-02-28T21:29:47+09:00*
G04 #@! TF.ProjectId,M5_board_bGeigieRaku V1.9,4d355f62-6f61-4726-945f-624765696769,rev?*
G04 #@! TF.SameCoordinates,Original*
G04 #@! TF.FileFunction,Soldermask,Bot*
G04 #@! TF.FilePolarity,Negative*
%FSLAX46Y46*%
G04 Gerber Fmt 4.6, Leading zero omitted, Abs format (unit mm)*
G04 Created by KiCad (PCBNEW 5.99.0-unknown-da005bd2a6~101~ubuntu20.04.1) date 2021-02-28 21:29:47*
%MOMM*%
%LPD*%
G01*
G04 APERTURE LIST*
%ADD10C,1.879600*%
%ADD11C,3.200000*%
%ADD12R,1.700000X1.700000*%
%ADD13O,1.700000X1.700000*%
%ADD14C,3.203200*%
%ADD15R,2.400000X2.400000*%
%ADD16O,2.400000X2.400000*%
%ADD17R,12.000000X12.000000*%
%ADD18R,1.905000X2.000000*%
%ADD19O,1.905000X2.000000*%
G04 APERTURE END LIST*
D10*
X180823000Y-82244000D03*
X190983000Y-82244000D03*
D11*
X90652600Y-125932000D03*
D12*
X210033000Y-105485000D03*
D13*
X207493000Y-105485000D03*
D12*
X153333000Y-93380000D03*
D13*
X153333000Y-95920000D03*
X153333000Y-98460000D03*
X153333000Y-101000000D03*
D10*
X186744000Y-76148000D03*
X183744000Y-76148000D03*
X180744000Y-76148000D03*
D14*
X189994000Y-76148000D03*
X177494000Y-76148000D03*
D10*
X200453000Y-82005000D03*
X197913000Y-82005000D03*
D11*
X200645000Y-88980000D03*
X176134000Y-94441000D03*
D12*
X210033000Y-90499000D03*
D13*
X207493000Y-90499000D03*
D12*
X183408000Y-113405000D03*
D13*
X185948000Y-113405000D03*
X188488000Y-113405000D03*
X191028000Y-113405000D03*
X193568000Y-113405000D03*
X196108000Y-113405000D03*
X198648000Y-113405000D03*
X201188000Y-113405000D03*
X203728000Y-113405000D03*
X206268000Y-113405000D03*
D11*
X103808000Y-76780000D03*
X172307600Y-71815500D03*
X103808000Y-120805000D03*
D10*
X190983000Y-86054000D03*
X180823000Y-86054000D03*
D12*
X207108000Y-95330000D03*
D13*
X207108000Y-97870000D03*
X207108000Y-100410000D03*
D15*
X165488000Y-105180000D03*
D16*
X165488000Y-89940000D03*
D11*
X208636000Y-71815500D03*
D12*
X185014000Y-90499000D03*
D13*
X182474000Y-90499000D03*
D12*
X185014000Y-105485000D03*
D13*
X182474000Y-105485000D03*
D11*
X90652600Y-71815500D03*
X172307600Y-125932000D03*
X208636000Y-125932000D03*
D15*
X160338000Y-105180000D03*
D16*
X160338000Y-89940000D03*
D12*
X198476000Y-92658000D03*
D13*
X201016000Y-92658000D03*
X203556000Y-92658000D03*
D17*
X204907600Y-123040000D03*
X150107600Y-122830000D03*
D18*
X157258000Y-73310000D03*
D19*
X159798000Y-73310000D03*
X162338000Y-73310000D03*
D18*
X157278000Y-79565000D03*
D19*
X159818000Y-79565000D03*
X162358000Y-79565000D03*
M02*
